/* XPM */
static char *w_12_left_resized[] = {
/* columns rows colors chars-per-pixel */
"80 80 160 2 ",
"   c None",
".  c #151413",
"X  c #181715",
"o  c #1A1917",
"O  c #1B1A18",
"+  c #231A16",
"@  c #221E1B",
"#  c #291F1A",
"$  c #1E201F",
"%  c #23211E",
"&  c #2D211C",
"*  c #32241D",
"=  c #1F2122",
"-  c #252422",
";  c #292622",
":  c #2D2A25",
">  c #232729",
",  c #25292C",
"<  c #2B2B2A",
"1  c #312C27",
"2  c #3D2B24",
"3  c #322E29",
"4  c #36322C",
"5  c #3A342D",
"6  c #272C30",
"7  c #282E32",
"8  c #2C3032",
"9  c #343435",
"0  c #3A3631",
"q  c #3D3933",
"w  c #30363A",
"e  c #37393C",
"r  c #3A3C3D",
"t  c #423D36",
"y  c #423F38",
"u  c #45413A",
"i  c #4A453D",
"p  c #4D483F",
"a  c #3B3E41",
"s  c #3E4144",
"d  c #414347",
"f  c #4A4742",
"g  c #4E4941",
"h  c #44464A",
"j  c #46494D",
"k  c #484B4F",
"l  c #534D44",
"z  c #514E49",
"x  c #565047",
"c  c #57524A",
"v  c #5B544B",
"b  c #5F584E",
"n  c #464B51",
"m  c #4B4E53",
"M  c #4D5156",
"N  c #4D535A",
"B  c #565657",
"V  c #5A5650",
"C  c #5F5B55",
"Z  c #51555A",
"A  c #55595F",
"S  c #595B5C",
"D  c #61594F",
"F  c #645D52",
"G  c #635F58",
"H  c #676054",
"J  c #6A6256",
"K  c #646059",
"L  c #6E665A",
"P  c #70675A",
"I  c #726A5D",
"U  c #555B62",
"Y  c #595D63",
"T  c #585F68",
"R  c #5C6167",
"E  c #5D636B",
"W  c #6D6861",
"Q  c #61666D",
"!  c #776E60",
"~  c #786F61",
"^  c #7C7364",
"/  c #7D7568",
"(  c #646B74",
")  c #686C73",
"_  c #676F79",
"`  c #696F78",
"'  c #6B727C",
"]  c #70767F",
"[  c #787A7D",
"{  c #807667",
"}  c #817768",
"|  c #857A6B",
" . c #897E6F",
".. c #837D75",
"X. c #8A806F",
"o. c #8D8271",
"O. c #918675",
"+. c #948877",
"@. c #968A79",
"#. c #998D7B",
"$. c #9D917E",
"%. c #6F7681",
"&. c #747A83",
"*. c #787E87",
"=. c #767D88",
"-. c #797F89",
";. c #7B828D",
":. c #7F8590",
">. c #928B80",
",. c #9F9280",
"<. c #9D978C",
"1. c #808792",
"2. c #828995",
"3. c #868D99",
"4. c #888F9B",
"5. c #8F959E",
"6. c #939599",
"7. c #A29583",
"8. c #A69986",
"9. c #A89B87",
"0. c #AB9D8A",
"q. c #A69C8E",
"w. c #A39C91",
"e. c #AEA08C",
"r. c #B1A38F",
"t. c #ABA499",
"y. c #B4A691",
"u. c #B6A893",
"i. c #BAAB96",
"p. c #BDAF99",
"a. c #BFB09A",
"s. c #8D94A0",
"d. c #9097A2",
"f. c #949AA5",
"g. c #999EA5",
"h. c #A0A5AD",
"j. c #A5A8AD",
"k. c #B4ADA1",
"l. c #B9B1A4",
"z. c #BEB6AA",
"x. c #A9ACB1",
"c. c #C0B19B",
"v. c #C3B6A2",
"b. c #C6B9A5",
"n. c #C8BBA7",
"m. c #C0B8AB",
"M. c #CABDAA",
"N. c #C7BFB2",
"B. c #CCC0AE",
"V. c #CCC2B2",
"C. c #CFC6B8",
"Z. c #D2C7B7",
"A. c #D3C8B7",
"S. c #D0C7BA",
"D. c #D4CABB",
"F. c #B8BCC3",
"G. c #C1C5CB",
"H. c #D7CEC0",
"J. c #D8CFC1",
"K. c #DAD1C3",
/* pixels */
"                                                                                                                                                                ",
"                                                        O O O O O O O O o O o o O O O O O O o o O                                                               ",
"                                              o O O O o X X O O O % % ; ; ; ; ; % % % + O o o o X O O o O o                                                     ",
"                                      O O O o o X O % 3 u V W / | O.O.o.o. .| | } ^ ~ I H v p t 4 ; @ O o o o O O O                                             ",
"                                  O O X X X ; t C ..w.l.b.v.c.c.c.c.c.a.p.u.0.7.$.#.#.$.#.#.#.@.o.| I F g 0 ; O o o o O O O                                     ",
"                            o O O o O < z ..t.M.S.A.M.v.c.a.a.p.c.a.a.a.a.a.a.p.u.0.$.$.#.#.#.#.#.$.$.$.#.O.| L l 0 % O o o o O                                 ",
"                        O O o o ; f ..l.D.J.D.M.v.c.p.p.p.a.a.i.e.u.a.a.a.a.a.a.c.p.p.u.0.$.#.#.@.#.#.@.#.#.$.$.#.O.^ D q % o o O o                             ",
"                    O O X o 4 W t.S.K.J.Z.M.c.c.a.a.c.a.a.c.i.,.#.,.i.a.a.a.a.a.c.c.c.c.c.i.r.$.$.@.#.#.#.#.@.#.#.#.$.$.O.^ x 3 O o O O                         ",
"                  O o o > W l.J.K.K.A.n.c.c.c.c.c.c.c.c.a.c.i.$.#.,.i.a.p.c.p.p.c.p.c.p.p.c.c.i.y.8.$.#.@.#.#.#.#.#.@.#.#.$.#. .D 4 o X o O                     ",
"                O o o u w.H.K.K.D.c.c.c.c.c.c.e.o.{ $.c.a.c.c.u.e.u.a.a.c.p.c.c.p.c.p.c.c.p.p.c.c.p.u.9.$.#.#.#.#.#.#.#.#.#.#.#.#.X.v : o o O                   ",
"              O O O v z.K.K.H.C.c.c.c.c.u.+.F p D J i D I I o.r.c.a.a.a.p.c.p.c.p.c.c.p.p.c.c.p.c.p.c.c.i.e.$.$.#.#.#.#.#.#.#.@.#.$.#.^ q O O O                 ",
"            O O O C V.K.K.D.M.a.c.y.c.c.$. .@.e.u.F 5 5 4 4 5 l o.p.a.a.c.p.c.p.c.p.c.c.c.c.p.c.p.c.p.c.p.p.i.e.$.#.#.#.#.#.o.} o.#.#.#.X.p O O O               ",
"          O O o c N.K.K.D.b.a.p.c.c.c.c.e.$.c.c.r.x 5 t 5 5 5 5 u 7.c.c.p.c.c.c.p.c.c.c.p.c.c.p.c.p.c.p.p.c.c.p.i.9.$.#.#.#.| ^ o.$.#.#.#.O.p O O o             ",
"        O O X r z.K.K.A.v.c.a.c.c.c.c.r.$.$.y.c.c.$.D 5 4 4 5 2 t $.c.p.p.c.p.c.c.p.i.9.9.i.p.c.p.c.c.c.c.p.p.c.c.p.y.8.#.@.@.O.X.O.#.#.#.#.o.q o O O           ",
"        O o ; <.K.K.A.v.p.c.a.a.y.c.c.c.c.c.{ F #.y.#.P i t t l O.p.p.c.c.p.c.p.p.p.i.$.$.i.c.p.p.c.p.c.p.c.p.c.c.p.c.p.9.#.#.| ^ ^ @.#.#.#.#.^ : O O           ",
"      O O X W D.K.Z.v.p.c.p.a.a.c.c.c.c.c.c.J t { $.#.0.e.7.8.y.c.c.c.p.p.c.p.c.c.c.p.u.i.c.c.c.c.p.c.p.c.p.c.c.p.c.p.c.p.e.#.| ^ ^ @.#.#.#.#.#.v O o O         ",
"      O o < i.K.A.v.c.a.a.a.a.a.u.7.O.| ^ I F v F F F ! O.,.0.u.a.a.c.a.a.a.a.a.a.a.a.a.a.a.a.a.p.c.p.c.c.c.p.c.p.c.c.p.c.p.9.+.X.O.@.@.#.#.@.#.X.5 O O o       ",
"    o O o G H.H.v.a.a.a.a.a.a.a.u.0.8.7.7.$.#.+.o.| ~ L F v x x b P o.,.y.a.a.a.a.a.a.a.a.a.a.a.c.p.p.c.p.c.c.p.c.p.p.c.p.c.i.$.#.#./ X.#.@.#.#.$.J $ O O       ",
"    O o % <.K.M.p.a.a.a.a.a.a.a.a.a.c.c.c.c.c.c.c.c.c.c.a.i.y.0.#.| I b F I o.e.p.a.a.a.a.a.a.a.c.p.c.p.c.p.c.c.p.c.c.p.p.c.p.8.#.$.! L #.#.#.#.#.O.5 o O O     ",
"    O o 9 m.S.a.a.a.a.a.a.a.a.a.a.a.a.a.a.a.a.a.a.a.a.a.a.a.a.a.a.a.a.p.e.$.X./ X.7.i.a.a.a.a.a.p.c.p.c.p.c.r.p.c.p.p.c.c.c.c.9.@.$.~ p #.#.#.#.#.#.H $ O O     ",
"    O X f C.n.p.a.a.a.a.a.a.a.a.a.a.a.a.a.a.a.a.a.a.a.a.a.a.a.a.a.a.a.a.a.c.c.a.y.e.u.a.a.a.a.a.c.p.p.c.p.c.#.$.c.p.p.c.p.p.p.9.@.$.~ q o.$.@.$.#.#.X.* $ X     ",
"    O X v C.c.a.a.a.a.a.a.a.a.a.a.a.a.a.a.a.a.a.a.a.a.a.a.a.a.a.a.a.a.a.a.a.a.a.a.a.a.a.a.a.a.a.c.c.c.i.8.e.9.H r.c.c.p.c.c.p.$.$.@./ 5 X.@.$.@.#.#.#.i X o $   ",
"  O O X G V.a.a.a.a.a.a.a.a.a.a.a.a.a.a.a.a.a.a.a.a.a.a.a.a.a.a.a.a.a.a.a.a.a.a.a.a.a.a.a.a.a.a.p.c.p.9.#.$.y.L J p.p.c.c.p.e.#.@.$.^ 3 | $.@.#.#.#.#.H $ o o   ",
"  O O o K M.a.a.a.a.a.a.a.a.a.a.a.p.y.y.a.a.a.a.a.a.a.a.a.a.a.a.a.a.a.a.a.a.a.a.a.a.a.a.a.a.a.a.c.p.c.e.$.$.p.$.t #.c.c.p.e.$.#.$.$.I : } $.$.@.#.@.#.^ % o o   ",
"    O X G z.9.7.8.0.u.p.c.a.a.a.a.9.#.#.e.p.c.p.c.a.a.a.a.a.a.a.a.a.a.a.a.a.a.a.a.a.a.a.a.a.a.a.c.p.c.p.i.i.p.p.D H c.p.r.$.#.#.@.o.i : X.$.@.$.#.#.#.o.; o O   ",
"    o o f q.#.#.#.#.#.7.r.p.c.a.p.8.@.$.r.a.p.c.a.a.c.p.a.a.a.a.a.a.a.a.a.a.a.a.a.a.a.a.a.a.a.a.p.c.p.c.p.c.c.i.H O.p.e.$.$.O.I p 4 O p @.@.#.#.#.#.#.o.4 o O   ",
"    O o 0 <.$.#.#.#.#.#.$.8.i.a.a.i.0.@.8.i.a.c.c.c.c.a.a.a.a.a.a.a.a.a.a.a.a.a.p.a.p.p.a.p.a.a.c.c.c.p.c.p.c.e.o.p.e.$.$.} u O O % l X.$.@.$.@.#.#.#.o.5 o O   ",
"    o X ; >.o./ {  .@.#.#.#.$.r.a.a.a.e...P I } @.8.r.i.i.p.p.i.p.u.r.y.a.a.a.a.p.u.y.e.9.9.9.9.r.i.p.c.p.c.p.9.u.e.#.#.| 5 o O 5 ^ O.O.@.#.@.$.#.#.$.o.4 o O   ",
"    o . O i 4 % % : t F  .#.$.#.0.p.a.a.a.y.@.^ D v x x v D F F J I | ,.r.e.e.8.$.$.#.$.#.#.#.#.$.$.i.c.c.p.p.i.e.$.@.$.D O o 5 X.#.} ^ X.#.#.@.#.#.#.o.: O O   ",
"    X . X o o o O o X O : D o.$.#.8.p.a.a.a.c.a.p.u.0.8.,.$.,.8.0.0.9.$.$.#.#.#.$.@.O.O.O.#.#.#.#.@.$.i.c.p.c.r.#.@.$.@.p o X l #.#.o.| O.#.#.#.#.@.$./ ; O o   ",
"    . X O O O : 1 ; % O o O 5 I @.#.8.i.a.a.a.a.a.a.c.c.c.c.c.r.7.$.#.$.$.O.X.I b i 0 5 5 p ~ #.#.#.$.r.p.c.i.$.@.#.#.#.x o X i #.#.#.#.@.| | @.#.#.$.L O O O   ",
"      o O O ; 5 5 5 4 : @ o o ; F O.$.0.a.a.a.a.a.a.a.a.c.i.9.$.@.#.@.} b u ; $ O X X o o O % b @.#.#.8.c.p.9.@.#.#.@.$.I $ X 3 X.#.#.#.X.^ ^ o.#.#.#.x o O o   ",
"      X O o 1 5 5 5 5 5 3 ; O o $ p O.#.r.a.a.a.a.a.a.a.a.$.$.$.X.H t - O X O O O % % : % O o % I $.@.8.p.i.$.@.$.@.$.#.X.5 O O J #.#.#.o.^ / @.#.#.O.0 o O     ",
"      $ o + 4 5 5 5 5 5 5 5 ; + o O i O.$.p.a.a.a.a.a.a.e.#.X.p : O X O O % % : 4 5 5 5 5 & O o u O.$.7.p.r.$.#.@.$.@.#.$.! % O 4 o.#.#.#.@.@.#.#.#./ % o O     ",
"      $ O O 1 5 5 5 5 5 5 5 5 : O O O H $.i.a.a.a.a.a.i.$.P 1 o O O $ & 3 5 0 5 5 5 5 5 5 1 O O : X.@.8.p.e.@.@.#.@.#.#.$.@.I : O F #.#.#.#.#.#.#.$.v O O o     ",
"      o O O ; 4 5 5 5 5 5 5 5 5 ; + O 3 X.y.a.a.a.a.a.p.^ ; o O % : 4 5 5 5 5 5 5 5 5 5 5 3 O O % | $.e.p.9.$.$.@.$.#.#.@.#.$.b o t @.#.#.#.#.#.#.X.3 o O       ",
"    X o O o % : 4 4 5 5 5 5 5 5 4 O o % X.y.p.p.y.p.a.p.v o o O : 5 5 5 5 5 5 5 5 5 5 5 5 1 O o : X.$.y.a.e.$.@.#.#.#.#.@.O.$.! O t @.#.#.#.#.#.#.D O O O       ",
"    X X O o O % * 1 1 1 3 3 4 1 ; O o : @.a.a.i.r.p.a.p.v . o % : : 5 5 5 5 5 5 5 5 5 5 5 : O o 5 @.,.p.p.e.@.#.#.#.#.#.| ^ X.H O b $.@.#.#.#.#.| 3 o O         ",
"    $ . o o o o O ; ; ; ; ; % $ O o O H i.a.a.c.c.v.a.a.X.o O O & : : 1 2 5 5 5 5 5 5 5 4 @ o O H $.e.a.a.y.$.@.#.#.#.O.^ ~ ^ 5 5 o.#.#.#.@.#.@.p O O O         ",
"    o X @ p 1 o o o o O O O o o o 1 J X.H p J { X.$.a.a.u.p o o O % : : : 1 1 5 4 5 5 4 & o o 4 X.7.u.a.a.i.$.$.#.#.#.#.X.^ i q } #.#.#.#.#.#.F % O O           ",
"    O o - @.O.v q ; @ O O % 1 u P $.^ ; O $ O O O 1 X.v.c.$.p O O O O % : : ; : : 1 : % o o % L $.r.a.a.a.p.e.#.@.#.#.#.X.p p o.#.#.#.#.#.#.L ; o O O           ",
"    O O % $.c.i.$.#.X.{ X.+.$.i.v.e.4 O 1 5 : 1 1 o 4 $.c.b.y.J : o O O O % % & % % O o o % b #.e.a.a.a.a.p.r.#.#.#.O.! v ! #.$.#.#.#.#.#.J ; o O O             ",
"    $ O O I a.a.c.c.c.c.a.c.a.a.c.#.% $ 5 5 5 5 5 $ ; $.c.c.c.a.@.v : O o o O O O o o O 1 J #.0.p.a.a.a.a.a.p.$.O./ P ~ O.#.#.#.#.#.$.o.x % o O o               ",
"      O X 4 7.c.v.$.u.a.a.a.a.a.c.$.: O 1 3 1 5 1 O 1 $.c.c.c.c.c.i.$.I g 5 : % % : q D  .8.u.c.a.a.a.a.a.a.a.$.X.X.@.#.#.#.#.#.#.O.P 0 O o O O                 ",
"      O O X p r.a.p.a.a.a.a.a.a.a.i.P % + O O ; $ O P p.a.a.a.a.p.c.c.p.r.8.@.X.o.@.$.e.i.p.c.p.a.a.a.a.a.a.a.e.#.#.#.#.#.#.#.X.F q O o O O                     ",
"        O O O v u.c.y.r.a.r.y.a.a.a.i.O.J H p q u { i.a.a.a.a.a.c.p.p.c.c.c.c.p.p.p.p.c.c.p.c.p.a.a.a.a.a.a.p.$.#.#.#.@.X.P i * O o O O o                       ",
"          O O O v u.i.i.a.i.i.c.a.a.c.c.c.c.i.u.i.a.a.a.a.a.a.a.p.c.c.p.p.c.p.c.c.c.i.r.i.c.c.c.a.a.a.a.a.p.e.$.@.X.H i * $ $ X O O O                           ",
"            O O O X.c.a.a.a.a.a.a.a.a.a.a.a.a.a.a.a.a.a.a.a.a.a.c.p.p.c.c.p.c.p.c.p.0.#.8.p.p.p.i.u.r.e.$.@.^ D u % $ . $ X $ X                                 ",
"            O O O ^ c.c.a.a.a.a.a.a.a.a.a.a.p.a.a.a.a.a.a.a.a.a.a.a.a.a.a.a.a.a.a.a.u.e.u.a.y.8.$.@.} H p 4 % o X O O O o                                       ",
"            o O X I c.a.a.a.u.a.a.a.a.a.a.a.p.p.a.a.a.a.a.a.a.a.a.a.a.a.a.a.a.p.a.a.a.a.a.u.$./ p 0 % $ o o o O O O                                             ",
"            o O X c i.a.a.a.^ e.c.a.p.p.a.c.e.#.a.a.a.a.a.a.a.a.a.a.a.a.a.a.a.a.p.a.a.a.a.e./ 3 o o o $ O O                                                     ",
"              O o ; +.a.c.,.0 @.c.a.a.p.a.c.^ D p.a.a.a.a.a.a.$.e.a.a.a.a.a.a.p.X.e.a.a.p.7.g o o o o X O                                                       ",
"              O O o 4 I P u O v $.p.p.p.c.y.u u y.p.c.a.a.a.c.~ ! p.a.a.a.a.a.p.p I y.u.y./ % o o o $ X X $                                                     ",
"                o O o O O o O o 1 ! e.e.+.P $ q | e.a.v.c.a.a.p p 9.p.a.a.a.y.+.: p #.$.| 5 O O < f n a $ . $                                                   ",
"                  O O O o O O o o % i t % + O O $ p @.$.$.P p ; : v X.9.$.I t : O % i x 3 o o a E R U U n $ $ X                                                 ",
"                              O o o X o o O O O $ o 1 u 4 O o o o o : u 4 $ X O O X X X X o $ m ( ' ( R R n % $ O                                               ",
"                              O $ $ 1 O o o X X O O X . X o $ , = O o o o O O O : 5 $ O O o % E %.( E U U U e O o                                               ",
"                              o o : p $ O 3 i 5 % o o $ o $ , , - O o o o o o O - : O X o O % N E _ %.' Q E E w o O                                             ",
"                              O o t u X O p X.X.H q % + o o $ X O $ O $ O $ % % - 4 q u : O $ E ;.%._ Q U n s < O O o                                           ",
"                            O o % ! 3 o O o X % : : % $ o 3 H 5 o % c D x x x x v H H i % O O r n N U N a = O o O o                                             ",
"                        O o o O F o.% X 4 b p t 4 : % $ X i $.t $ $ - * % % % % $ O O o O O o $ = O o o O ; O X o O                                             ",
"                      O o % F  .X.p O O ; u p p p u 0 % o 1 v & . - 4 5 q q q 4 - O O O O $ O O o o q V t v I l % o O                                           ",
"                    O O O O t l % O O $ $ X $ X O O O O $ X o o $ $ 4 0 q 0 1 % $ O O = = = = O o 4 ,.X.$ % l l % o O O                                         ",
"                    O O q 4 % O X O o $ w , > - $ $ $ O % L v % o X o X $ o o $ = = = = 6 = O O X < L q X O o X % 5 % o O                                       ",
"                    O o 3 l x : O O O = , > , 7 7 7 > X ; F F - X $ > > > , , , 7 7 7 7 , O @ f 4 o o o 3 F G P } +.g o O                                       ",
"                    O O O O O O O O @ & @ @ @ O O - O X o o O O O > , 7 7 7 7 7 7 7 6 7 = o -  .{ x v P O.7.8.8.7.8.L O O                                       ",
"                    O o : b F L ~ & @ t 2 * * * & # + @ @ @ O O O O @ O O $ $ @ O @ O @ O O % y F 0.i.u.8.7.7.7.8.8.D o O                                       ",
"                      O O g | 8.O.@ X + # & * ; & 1 * 2 * * * * & & & # & & # @ & # * @ + O o g e.r.#.u.8.7.7.7.8.} : o o                                       ",
"                        O O O ; 3 O O M S 9 ; @ @ + # # # # * * * * * * * * * # * : : + + + O D ~ l #.0.~ ,.8.7.^ 3 o O                                         ",
"                            O o o O @ 5.G.5.' ( U j s r 9 ; @ @ @ @ + @ + @ + @ @ @ @ @ @ @ O O 0 @.,.g ~ #.{ p % o O                                           ",
"                                O o < x.G.g.d.5.4.2.4.h.g.*.' ) ) Q Y U U A U Y Y Y m M Z k % X 3 D 3 : g 0 + o o O                                             ",
"                                  o 4 j.F.f.4.:.3.4.3.3.4.4.4.4.d.5.4.4.3.4.3.3.4.*.Q T T E k < O o o o o o o o                                                 ",
"                                  O O B [ S j d Z &.;.3.1.-.] &.2.2.2.3.2.1.3.:.-.` R Y T R R m 9 < 7 9 , o O                                                   ",
"                                    O o O O O ; @ ; h j e < - < h Q &.:.-.( Z e < < w s m j 9 @ O O - < - O                                                     ",
"                                    O O O O O F | g : O X X X o X @ 9 a < @ O X i b t - @ O o o O O   o O                                                       ",
"                                    O O @ O O ; y y : O O O O O O   X X O O O O 4 g u ; O O O o O O                                                             ",
"                                  O o O * & @ + O o o O + + o O     O O @ ; # @ o o o o O o + o O O                                                             ",
"                                  O O O @ @ @ @ @ + O O O o O O     O O + # # # # @ + @ + O o + O O                                                             ",
"                                  O O O O O o O O O O O O O o O     O O o o O O O O O O O O O O o O                                                             ",
"                                                                          o O o O O o O O                                                                       "
};
