/* XPM */
static char *w_11_left_resized[] = {
/* columns rows colors chars-per-pixel */
"80 80 161 2 ",
"   c None",
".  c #171614",
"X  c #181715",
"o  c #1A1917",
"O  c #1B1A18",
"+  c #221A16",
"@  c #291C17",
"#  c #221E1B",
"$  c #281F1A",
"%  c #1F201E",
"&  c #23211E",
"*  c #2C211C",
"=  c #33241D",
"-  c #1F2121",
";  c #242422",
":  c #292622",
">  c #2D2925",
",  c #222628",
"<  c #252A2D",
"1  c #2C2B2A",
"2  c #312C26",
"3  c #3C2B23",
"4  c #322E29",
"5  c #35312C",
"6  c #3A342D",
"7  c #262C30",
"8  c #292E32",
"9  c #2F3234",
"0  c #333434",
"q  c #3A3731",
"w  c #3E3A33",
"e  c #353738",
"r  c #3B3C3C",
"t  c #423D36",
"y  c #433F38",
"u  c #46413A",
"i  c #4A453D",
"p  c #4D483F",
"a  c #50483F",
"s  c #3C3E42",
"d  c #3E4044",
"f  c #3F4348",
"g  c #414347",
"h  c #494641",
"j  c #4F4941",
"k  c #43464A",
"l  c #47494E",
"z  c #4A4C4F",
"x  c #534D44",
"c  c #575147",
"v  c #585147",
"b  c #57524A",
"n  c #5B544A",
"m  c #5F584E",
"M  c #4A4D52",
"N  c #4C5055",
"B  c #4E535A",
"V  c #555657",
"C  c #5B5751",
"Z  c #5D5953",
"A  c #52555B",
"S  c #60594E",
"D  c #645D52",
"F  c #645F59",
"G  c #676056",
"H  c #6A6256",
"J  c #6D6559",
"K  c #736A5D",
"L  c #555B64",
"P  c #595E65",
"I  c #595F68",
"U  c #5A6067",
"Y  c #5C626A",
"T  c #5E6670",
"R  c #6D6961",
"E  c #60666E",
"W  c #66696E",
"Q  c #776E60",
"!  c #786F61",
"~  c #7C7264",
"^  c #78736B",
"/  c #606771",
"(  c #646C75",
")  c #686F7A",
"_  c #6B727B",
"`  c #7F7971",
"'  c #71767D",
"]  c #807667",
"[  c #817768",
"{  c #857A6B",
"}  c #897E6E",
"|  c #8A7F70",
" . c #8A806F",
".. c #8D8272",
"X. c #89837A",
"o. c #8E887E",
"O. c #918675",
"+. c #948877",
"@. c #968A79",
"#. c #998D7B",
"$. c #9D917F",
"%. c #6F7681",
"&. c #707782",
"*. c #747B85",
"=. c #777D88",
"-. c #787E89",
";. c #7F8184",
":. c #7B818C",
">. c #7F8591",
",. c #8F8980",
"<. c #85878B",
"1. c #948C81",
"2. c #979187",
"3. c #9F9280",
"4. c #9D968C",
"5. c #808792",
"6. c #838A95",
"7. c #868D99",
"8. c #8B919C",
"9. c #94989E",
"0. c #A29582",
"q. c #A69986",
"w. c #A89B87",
"e. c #AB9D8A",
"r. c #A39A8C",
"t. c #AEA18D",
"y. c #B1A38F",
"u. c #AEA494",
"i. c #ADA69B",
"p. c #B4A691",
"a. c #B7A893",
"s. c #BAAB96",
"d. c #BDAE99",
"f. c #B2AB9F",
"g. c #BFB09A",
"h. c #8E95A0",
"j. c #9097A2",
"k. c #9A9EA4",
"l. c #989EA8",
"z. c #9CA1A8",
"x. c #B7AFA4",
"c. c #BDB5A9",
"v. c #C0B19B",
"b. c #C6B9A5",
"n. c #C8BAA7",
"m. c #C5BBAD",
"M. c #CABDAB",
"N. c #C7BFB1",
"B. c #C9BFB0",
"V. c #CCC0AE",
"C. c #CEC3B3",
"Z. c #CFC7B9",
"A. c #D0C5B4",
"S. c #D4CABB",
"D. c #D8CEBE",
"F. c #BCC0C6",
"G. c #BFC3C9",
"H. c #C3C7CE",
"J. c #D7CEC0",
"K. c #D8CFC1",
"L. c #DAD1C3",
/* pixels */
"                                                                                                                                                                ",
"                                                                O O O O O O O O O + O O O                                                                       ",
"                                                  o O O O o O o o . o O o o o o X X X X o o o O O o O O                                                         ",
"                                          O O O o o X X O : 1 q u j x x c v v c x a i t 6 1 : O O o o o o O O o O                                               ",
"                                    O O O X X o : q b ^ ,.r.u.p.s.d.s.a.t.q.0.#.#.#.@.@.O...{ K H n u 5 & O o o O O o O                                         ",
"                              O O O O X # q C X.i.N.C.V.b.b.v.v.g.g.v.g.v.d.s.p.w.$.#.#.#.#.$.$.$.#.#...{ K n w > O o X O O O                                   ",
"                          O O o . O q R 4.m.D.D.C.b.v.g.d.g.g.d.s.d.g.g.g.g.g.g.v.a.y.q.$.#.#.#.#.#.#.#.$.#.#.+.{ K x 5 & o o O O                               ",
"                      O O o o > C 2.N.J.L.Z.M.v.d.g.g.g.d.d.d.w.0.q.d.g.g.g.g.g.v.v.v.v.a.t.$.#.#.#.#.#.#.#.#.#.#.#.#...K j > O o o O                           ",
"                    O O X 1 R x.D.L.L.A.n.v.v.v.v.v.v.v.v.v.a.#.@.$.s.d.v.d.v.v.d.v.d.v.v.v.s.y.0.$.@.#.#.#.#.#.#.#.#.#.#.#.{ S 6 O o O o                       ",
"                o O O O b i.J.L.D.S.n.v.v.v.v.v.p.t.v.v.v.v.v.w.0.e.d.g.d.v.v.d.v.d.v.d.s.v.v.v.g.a.e.$.@.#.#.#.#.#.#.#.#.#.#.$...S 4 O O O O                   ",
"              O O o ; ^ Z.L.J.D.n.v.v.v.v.s.#.K c c D @.$.q.y.v.d.g.g.g.v.d.v.v.v.d.v.d.v.v.v.v.g.g.g.s.t.$.$.@.#.#.#.#.#.#.#.#.$.#. .j % o O o                 ",
"            o O o > o.D.L.J.S.b.v.a.v.v.e.K S ! @.] t t t t x [ y.v.g.g.d.v.d.d.d.v.d.v.s.v.v.s.g.g.g.v.g.s.y.$.#.#.#.#.#.$... .O.#.$.O.G : o O O               ",
"            O O : o.L.L.J.C.b.d.v.v.v.v.t.$.v.v.y.a t 3 6 6 6 6 S y.v.d.v.d.d.v.v.d.v.v.v.v.v.v.g.g.g.g.g.g.g.s.t.$.#.#.#.+.~ ~ ..$.#.#.#.K : o O O             ",
"          O o # ` J.L.J.C.g.d.g.a.v.v.p.$.$.a.v.v.K t 6 6 6 6 6 t #.v.v.d.v.v.d.v.v.v.y.y.d.v.v.g.g.g.g.g.g.g.g.g.s.w.$.#.#.O. ...#.#.#.#.#.J & O O             ",
"        O o O Z Z.L.J.V.v.g.g.g.v.v.v.v.t.t.$.$.p.s.| a 6 6 6 6 S y.v.v.v.v.d.v.d.v.y.#.$.s.v.s.g.g.g.g.g.g.g.g.g.g.g.y.$.#.#. .~  .#.#.#.#.#.x O O O           ",
"        O o 0 x.L.J.V.g.g.g.g.g.v.v.v.v.v.v.D t K q.$.#.[ J K O.a.v.v.v.d.v.v.d.v.d.s.t.y.v.v.v.g.g.g.g.g.g.g.g.g.g.g.g.a.0.@.~ ~ ~ #.#.#.#.#...6 o O o         ",
"      O o O ` L.L.V.g.g.g.g.g.g.d.a.p.e.q.3.Q n ~ { ..3.a.d.g.b.v.g.g.g.g.g.g.g.g.g.g.g.g.g.g.g.g.g.g.g.g.g.g.g.g.g.g.g.g.a.$. .[ O.@.#.#.#.#.#.K & o o         ",
"      O o q c.L.C.g.g.g.g.g.g.g.p.#...~ Q K J G m c x x c n G ! ..3.p.s.v.v.g.g.g.g.g.g.g.g.g.g.g.g.g.g.g.g.g.g.g.g.g.g.g.g.t.#.@.#.{ +.#.#.#.#.+.u o o O       ",
"    O O X R L.S.v.g.g.g.g.g.g.g.g.d.g.g.g.g.g.d.d.s.p.t.q.#...~ H m n G ~ $.y.g.v.g.g.g.g.g.g.g.g.g.g.g.g.g.g.g.g.g.g.g.g.g.s.$.#.#.H ] #.#.#.#.#.~ & % O       ",
"    O o # 4.J.b.g.g.g.g.g.g.g.g.g.g.g.g.g.g.g.g.g.g.g.g.v.v.g.v.g.s.t.3. .K J ~ $.p.g.g.g.g.g.g.g.g.g.g.g.g.s.g.g.g.g.g.g.g.g.w.#.#.H D #.#.#.#.#.+.u o O O     ",
"    o o 1 c.C.v.g.g.g.g.g.g.g.g.g.g.g.g.g.g.g.g.g.g.g.g.g.g.g.g.g.g.g.g.v.g.s.t.$.$.a.g.g.g.g.g.g.g.g.g.v.g.$.y.g.g.g.g.g.g.g.0.@.$.H p @.#.#.#.#.#.K % o o     ",
"    O o r C.b.d.g.g.g.g.g.g.g.g.g.g.g.g.g.g.g.g.g.g.g.g.d.g.g.g.g.g.g.g.g.g.g.g.g.g.g.g.g.g.g.g.g.g.g.s.y.a.$.~ g.g.g.g.g.g.g.$.@.$.J u +.#.#.#.#.#. .2 o o     ",
"    O X h B.v.v.g.g.g.g.g.g.g.g.d.g.g.g.g.g.g.g.g.g.g.g.g.g.g.g.g.g.g.g.g.g.g.g.g.g.g.g.g.g.g.g.g.g.g.e.#.$.y.v ..v.g.g.g.g.t.#.#.$.K 6 O.#.#.#.#.#.#.p o % X   ",
"    O X h M.v.v.g.g.g.g.g.g.g.g.g.g.d.d.g.g.g.g.g.g.g.g.g.g.g.g.g.g.g.g.g.g.g.g.g.g.g.g.g.g.g.g.g.g.g.w.@.$.g.{ i y.v.g.v.y.$.#.@.$.H 5  .#.#.#.#.#.#.D o o o   ",
"    O o h b.a.p.p.a.d.g.g.g.g.g.g.p.0.0.y.g.g.g.g.g.g.g.g.g.g.g.g.g.g.g.g.g.g.g.g.g.g.g.g.g.g.g.g.g.g.s.t.a.g.a.p ~ v.g.a.$.#.$.$.@.i 5 O.#.#.@.#.#.$.K & o O   ",
"    O X u i.3.#.#.$.0.t.s.g.g.g.g.q.#.#.e.g.g.g.g.g.g.g.g.g.g.g.g.g.g.g.g.g.g.g.g.g.g.g.g.g.g.g.g.g.g.g.g.g.g.s.m { v.p.$.$.#.{ D i % p @.#.#.#.#.#.#.{ : o O   ",
"    o o 1 1.#.#.#.#.#.#.3.p.g.g.d.p.3.#.p.g.v.g.v.g.g.g.d.g.g.g.g.g.g.g.g.g.g.g.g.g.g.g.g.g.g.g.g.g.g.g.g.g.g.t.[ s.a.$.$. .c > O O t { $.#.#.#.#.#.#.{ : X O   ",
"    O o & o.3.#.@.#.$.#.#.#.q.a.g.g.d.0.{ { @.e.a.d.v.v.g.b.v.v.v.v.g.g.g.g.g.g.g.g.s.a.y.y.y.p.s.g.g.g.g.g.g.q.y.y.$.#...u o X > H O.@.@.#.#.#.#.#.#.{ > o O   ",
"    O X o F G u y j G { #.#.#.$.p.d.g.g.p.@.Q Z n D J ~ ~ } } { { { { $.s.s.a.t.w.q.$.$.#.#.#.$.$.e.s.g.g.g.d.p.t.$.#.#.S O o 5 ~ #.{ ~ O.#.#.#.#.#.#.~ : o o   ",
"    o . X O O o X X O : p ~ #.#.#.t.g.g.g.g.g.a.q.@.{ ~ Q K Q ~  .#.3.q.3.3.$.$.$.$.#.#.#.#.#.#.#.#.w.d.g.g.g.p.$.#.#.@.u o o v $.@.{ [ O.#.#.#.#.#.$.Q & o o   ",
"      . o O o # ; # O o o & c ..#.#.e.d.g.g.g.g.g.v.v.v.g.g.v.d.t.3.#.#.#.$.@...[ J n c n J ..#.#.#.$.y.g.g.s.$.#.#.#.#.p o o v $.@.@.@.@. ...#.#.#.$.D O O O   ",
"      . O O # 5 6 5 2 : O o o 6 ~ #.$.t.g.g.g.g.g.g.g.g.g.d.p.0.#.$.$.#.~ G u 5 & O o X X % 6 Q #.#.#.e.g.g.t.#.#.#.#.$.m O O w +.#.#.$.{ ~ ~ ..#.#.#.p o O o   ",
"      X O O & 6 6 6 6 6 2 # O o : H @.$.a.g.g.g.g.g.g.g.d.y.$.#.#.{ G t & O o o % % % & % X o > ] #.#.$.d.s.$.#.#.#.#.#.] > % % ~ $.#.#.} ~ ~ +.$.#...5 o O     ",
"      o O O 2 6 6 6 6 6 6 6 & + X % m @.$.d.g.g.g.g.g.g.p.$.@.~ j > O . O O & * = 5 2 5 4 & o X a #.#.t.d.y.#.#.#.#.#.#.#.S % X i +.#.#.@...O.#.#.#.! & o O     ",
"      % O O > 6 6 6 6 6 6 6 6 & O o % H $.a.g.g.g.g.g.d.$...a & o X O & > 4 5 6 q 6 6 6 6 2 + X 4 ..#.$.d.t.#.#.#.#.#.#.#.+.a % & K #.#.#.#.#.#.$.@.c o O o     ",
"      X O X > 6 6 6 6 6 6 6 6 6 : O o 5  .y.g.g.g.g.g.d.@.y o O O ; 1 6 6 6 6 6 6 6 6 6 6 4 % X *  .$.t.s.t.#.#.#.#.#.#.#.$.@.a o p #.#.#.#.#.#.@. .1 o O       ",
"      % O o % 2 6 6 6 6 6 6 6 6 5 O O % Q y.g.g.d.v.v.v.K o o O * 6 6 6 6 6 6 6 6 6 6 6 6 4 % o >  .$.p.d.t.#.#.#.#.#.#.#.#.#.J O i #.#.#.#.#.#.$.S O O O       ",
"      X O O O & > 2 4 5 6 6 6 4 2 # X # ~ d.g.d.$.g.g.v.H o O % > 2 6 6 6 6 6 6 6 6 6 6 6 = o o 5 ..$.s.d.t.#.#.#.#.#.@. .~ O.H O n #.#.#.#.#.#. .4 o O         ",
"    % . X o O O # > = > 2 > > & % O X q $.v.v.v.d.d.g.v.] O o # > > 1 5 6 6 6 6 6 6 6 q 6 & o o x #.t.d.d.y.#.#.#.#.#.O.~ ~ ] t 4 { #.#.#.#.#.@.a O O o         ",
"    o X . 2 % X X O # # % O O O X o q  .O. .@.t.$.s.v.v.t.u X O & & = > 2 2 5 6 6 6 6 6 * % o > ] $.p.d.d.s.$.#.@.#.#.O. .] a 4 Q #.#.#.#.#.$.H & O O           ",
"    O o O K Q w % o X X X o O % q J @.a & % % > 2 i +.v.v.$.t O o o & * = > > > 2 4 1 * O O O n #.t.g.g.g.g.$.#.#.#.#.#...n u ] #.#.#.#.#.#.Q > o O O           ",
"    O O O ~ s.t. .J n a a m Q +.y.d.m O & 6 : & : X 6 $.v.v.$.a % o o % & & & > * : & % o o u O.$.d.g.g.g.g.p.$.#.#.#.] n D O.#.#.#.#.#.#.K > o o O             ",
"    % O O m g.g.v.v.d.d.d.d.v.v.v.$.q O 4 6 6 6 6 % %  .b.g.v.a.~ q % o o o o % O O . O % p  .w.g.g.g.g.g.g.s.$.@. .K J  .#.#.#.#.#.#.@.G > o O O               ",
"      O O 4 $.v.d.p.p.v.v.v.v.v.g.t.q O 2 6 2 6 5 % % ..v.g.g.v.v.t.] c 5 & & O O % & u J $.t.g.g.g.g.g.g.g.g.$. .] ..#.#.#.#.#.#.#.~ u O O o o                 ",
"      O O O j p.v.s.s.v.g.d.v.v.g.d.H O $ & # 2 ; X y y.v.g.g.g.g.v.g.a.$.O.! J J !  .$.y.s.g.g.g.g.g.g.g.g.g.$.@.#.#.#.#.#.$.O.Q i : o o O                     ",
"        O X O m a.v.s.p.d.s.p.d.d.v.p.K u w 5 & > p $.v.d.g.g.g.g.g.g.g.v.g.g.s.s.s.s.g.g.v.g.g.g.g.g.g.g.g.g.t.#.#.#.$.O.] m 6 & o o O O                       ",
"          O O % D a.s.y.g.s.p.d.v.g.v.v.s.p.t.#.$.s.v.g.v.d.g.g.g.g.g.g.g.g.g.g.v.g.g.a.s.g.g.g.g.g.g.g.g.g.p.$.#.O.] m w & % . O o O                           ",
"            o O O ! d.v.d.g.g.g.g.g.v.d.v.v.v.v.v.v.d.v.d.v.g.g.g.g.g.g.g.g.g.g.g.g.t.$.w.g.g.g.d.s.s.a.y.$...K n 6 & O X X % X                                 ",
"            O O X c d.g.g.g.g.g.g.d.v.g.g.g.v.v.g.g.g.g.g.g.g.g.g.g.g.g.g.g.g.g.g.g.p.q.t.d.d.t.$.$.@.] D u 1 % o o O O O                                       ",
"              O X j d.g.g.g.g.g.v.d.g.g.v.d.v.v.g.g.g.g.g.g.g.g.g.g.g.g.g.g.g.g.g.g.g.g.g.s.q. .J a 5 & O o O O o o                                             ",
"              o o w p.g.g.g.$.q.v.v.g.g.g.g.d.$.d.d.g.g.g.g.d.d.g.g.g.g.g.g.g.g.g.g.g.g.g.t...u O . % X O O %                                                   ",
"              O o & ..g.v.g.n ~ v.g.g.d.g.v.$.S s.v.g.g.g.g.d.t.y.g.g.g.g.g.g.g.$.t.g.d.d.t.S O o % o X O                                                       ",
"              O O o w { $.Q : c t.d.d.d.g.g.J 5 t.d.d.g.g.g.v.O.Q d.g.g.g.g.g.g.G J s.d.d.O.5 o O X % . X %                                                     ",
"                O O O & : O O O q ] p.s.y.$.6 2  .y.d.d.v.v.v.~ t q.d.g.g.g.d.t.w u @.q.@.i O o % q r 7 % . %                                                   ",
"                  O O o O O O O . & m D y : % o 4 n $.p.p.@.K q > G @.y.p.@.D w & & c H u % o 1 B U U U g % % X                                                 ",
"                      O       O X % o X . % . % X % q m a > % X X % 5 n a > o o o X X % o o O f ) _ T L A f % . O                                               ",
"                              O o O & O O O o o o O o o . % % % % % . X o . o o & 1 & o o o % U ) T Y U U U e o o                                               ",
"                                % ; n % O & 6 2 % o o o X % % < , % % o o % X % 1 q & o o O % M ( &.&.) U U U 9 o O                                             ",
"                              O X 6 n o o u  . .H 6 % O % . % % o o o o . % X % O & > 5 * o % U &.( T T L B N e O O o                                           ",
"                            O o % Q u . o O & 2 6 6 > % X & a 5 o % p v p a a a m G J n > % X d Y T ( Y l 9 O O O O o                                           ",
"                        O O O O n $.5 . : p t 4 > ; % % X q $.a . % 5 6 5 4 > * ; ; ; O o o O , , - % O O O O o o O                                             ",
"                      O o # n {  .S % % ; p m n a p t & X 4 J 5 % % > > > 4 4 4 ; O O O O % O O O X : u t c S u & o O                                           ",
"                    O O O O u c ; o % % % X % % o % % O % X . % . & 6 t u t w 4 - O O - - - - O o ; { #.1 & n G > o o o                                         ",
"                    O O t 0 O O o . . % 9 ; % % % % % O % a a % . % % . % % . % O - - - 7 - O o X > { b O X o X O > & O O                                       ",
"                    O o 4 x c > o O O O 8 < 8 8 8 8 , O # K K > o O , , , , , , < 7 8 8 7 O O 4 4 o O o # h c c J ..x O O                                       ",
"                    O O O O O O & O O ; # O O # - , - O O O # O O , 7 8 8 7 8 8 8 8 8 8 < O O Q { i y x ~ 0.0.q.0.q.~ O O                                       ",
"                    O o 4 D D J } 4 # t 3 = * * # @ + + O O O O O O O - - ; - - - - - - O O O x D +.p.p.w.0.0.q.0.q.Q O o                                       ",
"                      O O x | q.$.2 . + * = = = = = > = = = = * $ * * $ $ # # @ @ $ $ + + O o 4 O.s.q.p.e.0.0.0.q.@.t o O                                       ",
"                        O O O > 6 # X y M 0 ; + + # $ $ * = = = = = = = = = = @ $ = > @ + + o j @.D ] p.{ #.q.0...u O O                                         ",
"                            O o o o X <.H.8._ I N d e 0 1 & # + + + # @ $ # + + @ # # + + O O # 4 K t.J D $.O.D 4 o O                                           ",
"                                  O ; k.H.l.j.8.7.6.6.k.9.' E I P V M z z l M M M M g k M l ; X > K x ; c j > O o O                                             ",
"                                  O > k.F.k.8.5.7.7.7.8.8.7.8.7.j.j.7.7.7.7.7.7.8.-.Y E Y I M , O X o o O o o o                                                 ",
"                                  O O V <.W A M P -.5.7.6.5.-.:.7.6.6.7.6.5.7.6.5._ I P I E Y A e 1 1 9 , o O                                                   ",
"                                    O O O O X # # 1 M A g 0 1 8 M ) :.5.>.' Y k 0 e s M A M r : # - , 9 ; O O                                                   ",
"                                    O O O O o m { p > O X X o o X ; r l e ; O X y j 4 ; ; O o o O O o o o O                                                     ",
"                                    O O + O O 4 n n t # O O O O O O X X X O O O y H n 4 O O o O O +                                                             ",
"                                  O O O = $ # O X o o O O + o o O   O O # $ # O O o o O O O + o O O                                                             ",
"                                  O O O # $ $ # # + + o + o O O     O O # $ = $ $ # # + O + + o O O                                                             ",
"                                  O o O o O O O O O O O O O o O     O O o o O O O + O O O o O O o O                                                             ",
"                                          O O O O O O O O               O O O O O O O o O o O                                                                   "
};
