/* XPM */
static char *w_7_left_resized[] = {
/* columns rows colors chars-per-pixel */
"80 80 153 2 ",
"   c None",
".  c #171614",
"X  c #181715",
"o  c #1A1917",
"O  c #1B1A18",
"+  c #231A16",
"@  c #221E1B",
"#  c #2A1E19",
"$  c #23211E",
"%  c #2D211C",
"&  c #32241D",
"*  c #1F2121",
"=  c #252422",
"-  c #292623",
";  c #2D2A25",
":  c #232728",
">  c #252A2D",
",  c #2D2D2C",
"<  c #312C27",
"1  c #3C2B23",
"2  c #322E29",
"3  c #35322C",
"4  c #3A342D",
"5  c #272D30",
"6  c #292E31",
"7  c #293034",
"8  c #323334",
"9  c #3A3631",
"0  c #3E3A33",
"q  c #35393C",
"w  c #3A3B3D",
"e  c #423D36",
"r  c #433F39",
"t  c #46413A",
"y  c #4A453D",
"u  c #3D3F42",
"i  c #3E4043",
"p  c #444445",
"a  c #4A4742",
"s  c #4E4941",
"d  c #42454A",
"f  c #46494E",
"g  c #48494C",
"h  c #534D44",
"j  c #514E48",
"k  c #575047",
"l  c #5A5147",
"z  c #57534C",
"x  c #5B544A",
"c  c #5F584E",
"v  c #464B51",
"b  c #4A4D52",
"n  c #4D5155",
"m  c #4F535A",
"M  c #5D5953",
"N  c #52565D",
"B  c #55595E",
"V  c #60594F",
"C  c #645D52",
"Z  c #6A6256",
"A  c #65615A",
"S  c #6E6559",
"D  c #70675B",
"F  c #736A5D",
"G  c #535A62",
"H  c #5A5E64",
"J  c #5D626B",
"K  c #616364",
"L  c #6C6760",
"P  c #6F6A63",
"I  c #61666E",
"U  c #63686F",
"Y  c #766E61",
"T  c #786F61",
"R  c #7C7264",
"E  c #77726A",
"W  c #7A756D",
"Q  c #606770",
"!  c #646B73",
"~  c #696E77",
"^  c #6F7173",
"/  c #6B717B",
"(  c #70767F",
")  c #807667",
"_  c #817768",
"`  c #847A6B",
"'  c #897E6E",
"]  c #847E74",
"[  c #8A7F70",
"{  c #8A806F",
"}  c #8D8272",
"|  c #918675",
" . c #948877",
".. c #968A79",
"X. c #998D7B",
"o. c #9D917E",
"O. c #6E7680",
"+. c #717680",
"@. c #737983",
"#. c #767D88",
"$. c #7B818C",
"%. c #918C82",
"&. c #9E9281",
"*. c #9B948B",
"=. c #808792",
"-. c #838A95",
";. c #868E9A",
":. c #888F9B",
">. c #8B929D",
",. c #999B9F",
"<. c #A29583",
"1. c #A69985",
"2. c #A89B87",
"3. c #A3998B",
"4. c #AB9D8A",
"5. c #A39C91",
"6. c #AEA18D",
"7. c #B1A38F",
"8. c #A9A297",
"9. c #AFA699",
"0. c #B4A691",
"q. c #B7A893",
"w. c #BAAB96",
"e. c #BDAE99",
"r. c #BFB09A",
"t. c #8E95A0",
"y. c #9096A1",
"u. c #949AA4",
"i. c #9FA2A6",
"p. c #9CA1A9",
"a. c #A1A6AF",
"s. c #B7AFA3",
"d. c #BAB2A6",
"f. c #BDB6A9",
"g. c #ADB0B5",
"h. c #B5B9BF",
"j. c #C0B19B",
"k. c #C4B6A2",
"l. c #C6B9A5",
"z. c #C8BBA7",
"x. c #C2BAAE",
"c. c #C9BCA9",
"v. c #C5BDB0",
"b. c #CCC0AE",
"n. c #CBC2B5",
"m. c #D0C5B4",
"M. c #D0C7BA",
"N. c #D5CBBB",
"B. c #BFC3C9",
"V. c #C3C7CE",
"C. c #D7CEC0",
"Z. c #D8CFC1",
"A. c #DAD1C3",
/* pixels */
"                                                                                                                                                                ",
"                                                        o O O O o O o O o O o o O O O O o O O O O                                                               ",
"                                                O O O o o o X O O O $ $ = = - - % $ $ $ O O o o o X o O o O o                                                   ",
"                                        O O O o X O @ - w j C Y _ ' ' ' ' ' ' ' ` ) ) F D C k y 9 3 - O O o o O O o O                                           ",
"                                  O o O X X @ 2 g W *.9.r.r.r.j.j.j.e.e.0.4.<.o.o.X.o.X.X.X.X.X...} _ F V y 3 = O o o O O O                                     ",
"                            O O O O o $ r L *.x.m.m.c.j.r.r.r.r.j.r.e.j.j.r.r.q.7.o.o.X.X.X.X.X.X.X.X.o.o.X.| _ Z s 3 O o o o O O                               ",
"                        O O o X O 9 L 5.v.Z.N.c.j.r.r.r.r.r.w.0.q.j.r.r.r.r.j.r.j.w.q.6.o.o.X.X.X.X.X.X.X.X.X.X.o.X.} R k 3 O O O O O                           ",
"                    o O O O = s %.x.Z.A.M.c.j.j.j.j.r.r.r.w.1.X.o.q.r.r.r.r.r.r.j.j.j.j.j.w.4.o.X.X...X.X.X.X.X.X.X.X.o.X.} D t $ o O O O                       ",
"                  O O o @ z 5.M.A.A.m.c.j.j.j.j.j.j.j.e.j.w.o.X.o.q.j.j.e.j.e.j.e.e.j.e.j.e.j.q.q.o.o.X.X.X.X.X.X.X.X.X.X.X.X...T t $ X o O                     ",
"                O o o 9 %.M.A.A.N.z.j.j.j.j.j.7.<.7.j.j.j.j.7.4.q.r.r.r.j.j.j.e.j.j.e.j.j.e.e.j.j.e.q.2.o.X.X.o...X.X.X.X.X.X.X.X...S 3 o o O                   ",
"              O o o j s.A.A.A.n.j.j.j.j.w.X.S h l x R | ' o.0.j.j.r.r.r.j.e.j.j.e.j.j.j.e.j.j.e.j.e.j.e.q.6.o.o.X.X.X.X.X.| ' | X.X.X.' y O O O                 ",
"            O O O M v.A.A.Z.b.j.j.j.j.7.R C ) o.' e 4 4 1 e l [ q.r.r.r.e.j.e.e.j.e.j.e.j.e.j.j.e.j.e.j.e.j.q.7.<.X...X.X.' T ' X.X...o.} y O O O               ",
"          O O O z v.A.A.N.l.r.r.j.j.j.7.o.w.j.j.C 4 4 4 4 4 4 e | j.e.j.e.j.e.j.j.e.j.w.j.j.j.e.j.j.e.j.e.j.e.e.q.6.o.X.X...{ } ..X.X.X.o.} t o O o             ",
"        O O X r f.A.Z.N.l.r.r.r.j.j.w.o.o.7.j.j.o.l 4 4 4 4 4 4 R j.j.e.e.j.j.e.j.e.4.o.7.j.e.j.j.e.j.e.j.j.j.j.j.j.q.1.X.X.| R R  .X.X.X...' 3 o O O           ",
"        O X - 5.A.A.N.k.r.r.r.r.j.j.j.q.6.4.' o.j.4.S e 4 4 e Z 7.j.e.j.j.e.j.j.e.w.1.o.7.j.j.j.j.e.j.e.j.e.j.e.j.j.j.e.2.X.{ T R | X.X.X.X.o.D $ o O           ",
"      O O O P Z.A.M.k.r.r.r.r.r.j.j.j.j.j.} e l o.o.o.o.| { <.q.j.j.j.e.e.j.j.e.j.j.j.w.j.j.j.e.e.j.e.j.e.j.e.j.j.e.e.j.e.6. .` { ..X.X...X.X...h O o O         ",
"      O o 3 d.A.N.l.r.r.r.r.e.r.e.0.6.2.&.} c Z R R _ <.4.0.e.e.r.r.r.e.r.r.r.r.r.r.r.r.r.r.r.r.j.j.e.j.e.j.e.e.j.e.j.e.j.e.o.X.o.{ _ X.X.X...o.' 2 X O         ",
"    O O o P Z.Z.l.r.r.r.r.r.r.e.1.} ` R Y F F Z C c c z h k z C D ` X.6.e.r.j.r.r.r.r.r.r.r.r.r.j.e.j.e.j.e.j.j.e.j.j.e.e.j.7.o.o.{ c ..X.X.X.X.X.V O O O       ",
"    O o = 8.A.n.r.r.r.r.r.r.r.r.e.e.r.r.r.j.j.j.r.r.w.q.0.4.<...` Y Z c Z T  .6.e.r.r.r.r.r.r.r.j.e.j.e.j.e.e.j.j.j.e.j.e.j.q.o.o.| y ` o.X.X.X.o.{ 2 O O       ",
"    O X r n.N.j.r.r.r.r.r.r.r.r.r.r.r.r.r.r.r.r.r.r.j.r.j.j.j.j.j.r.e.0.6.X.{ ` { 6.e.r.r.r.r.r.j.j.e.j.j.q.o.j.e.j.j.e.j.e.w.o...o.y S X...X.X...o.l O O O     ",
"  o o X M Z.c.e.r.r.r.r.r.r.r.r.r.r.r.r.r.r.r.r.r.r.r.r.r.r.r.r.r.r.r.r.r.j.j.r.q.q.e.r.r.r.r.r.e.j.j.w.q.w.) o.j.e.e.j.e.j.7.X.X.X.y l X...X.X.o...R $ @ O     ",
"  O o o Y Z.j.r.r.r.r.r.r.r.r.r.r.r.r.r.r.r.r.r.r.r.r.r.r.r.r.r.r.r.r.r.r.r.r.r.j.r.r.r.r.r.r.r.j.e.j.2.X.2.o.l 6.j.j.e.j.e.o.X...o.k y X.X.X.X...o.| 0 o O     ",
"  O O o W m.r.r.r.r.r.r.r.r.r.r.r.r.r.r.r.r.r.r.r.r.r.r.r.r.r.r.r.r.r.r.r.r.r.r.r.r.r.r.r.r.r.r.e.e.w.o...o.e.C C e.j.j.e.6.o.X.X.X.y t ..X.X.X.X.o.X.k O O o   ",
"  o o o W n.r.r.r.r.r.r.r.r.r.r.r.r.e.e.r.r.r.r.r.r.r.r.r.r.r.r.r.r.r.r.r.r.r.r.r.r.r.r.r.r.r.r.j.j.j.7.2.q.j.o.e X.j.j.7.o.X.o.o.{ 4 t X.X.X.X.X...o.Z O O O   ",
"  O o o Y c.e.w.w.r.r.r.r.r.r.r.r.6.<.<.q.j.r.r.r.r.r.r.r.r.r.r.r.r.r.r.r.r.r.r.r.r.r.r.r.r.r.r.r.r.r.r.r.j.j.q.y X.j.0.o.X. .R l 3 O C o.X.X...X.X.X.R $ o O   ",
"  O o o A e.&.&.&.1.4.q.r.j.r.r.e.<...X.6.j.r.r.r.r.r.r.r.r.r.r.r.r.r.r.r.r.r.r.r.r.r.r.r.r.r.r.r.r.r.r.r.r.j.1.R e.7.o.X.{ y $ X $ k { X.X.X.X.X.X.X._ = o O   ",
"    O o a 3.X.X.X.X.X.&.2.q.r.r.r.6.o.o.q.j.j.r.j.j.r.r.r.r.r.r.r.r.r.r.r.r.r.r.r.r.r.e.e.e.e.e.e.r.r.r.r.r.r.o.7.7.o.X.{ 0 O O 4 T  . .X.X.X.X.X.X.X.` = o O   ",
"    o o , *.o.X.X.X.X.X...o.6.e.r.e.e.o._ _ | 2.7.q.r.r.r.j.j.r.r.w.0.6.r.r.r.r.q.6.6.1.o.o.o.o.1.0.r.r.r.r.e.0.q.o.X.X.V O o 3 ` X._ R { o.X.X.X.X.o._ $ o O   ",
"    o X @ ] ' Z C S _  .X.X.X.<.q.r.r.r.7...F C z x V C Z S Z Z Z D ` o.6.6.2.&.o.X.X.o.o.o.X...o.o.6.e.r.r.r.q.o.X.o...y X X l X.X.' _ | X.X.X.X.X.X.F @ O O   ",
"    o . X 3 = O O O = 9 V ' X.X.o.6.r.r.j.j.j.e.7.<.X.} } } | &.2.6.2.o.o.X.X.o.o. .{ R R { ..X...X.o.0.r.r.e.1.X.X...X.k X O y X.X.X.X. .' ' ..X.X.o.Z O o O   ",
"    o . X X O O O O O o O < C | X.o.6.e.j.r.r.r.j.j.j.j.r.j.j.q.1.o.X.o.o. ._ Z y 9 - $ $ 3 k { X.X...2.e.r.6.o.X.X...o.S O O 3 { o.X.X.{ T T { X.X.X.h o O O   ",
"      X O O O ; 3 2 ; @ O o O 0 R X.X.6.r.r.r.r.r.r.r.r.r.r.6.o.X.X...` c 0 = O X X O O O O O 4 ` o.o.o.e.e.1...X.X.o.o.{ 3 X @ Z o.X.X.} ) ) ..X.X.| 0 o O     ",
"      o o o $ 4 4 4 4 4 ; + o X = Z  .o.0.r.r.r.r.r.r.r.r.6.X.o.| D y $ @ X O O $ $ & < ; O o X y ..X.o.w.w.o.X.X.X.X.X.X.F $ o 3 ' ..X.......X.X.X._ = O O     ",
"      o o o - 4 4 4 4 4 4 3 $ o O O k  .o.q.r.r.r.r.r.j.q.o. .Z 9 O O O O $ $ 2 4 4 4 4 4 2 @ o ; ` o.o.e.0.o.X.X.X.X.X.X...D $ o k X.X.X.X.X.X.X.o.C O o O     ",
"      O o O - 4 4 4 4 4 4 4 3 - O O O x X.7.r.r.r.r.r.r.6.` t O O O O $ 2 4 4 4 4 4 4 4 4 3 $ o @ S o.o.e.7.X.X.X.X.X.X.X.X.o.D $ 2 } X.X.X.X.X.X...0 o O o     ",
"      o + o $ 4 4 4 4 4 4 4 4 4 ; O o $ Y 6.e.r.r.r.r.r.o.t o O O - 3 4 4 4 4 4 4 4 4 4 4 4 $ o O Z X.6.r.0.X.X.X...X.X.X.X.X.{ ; = ' X.X.X...X.o.F $ O O       ",
"      O O o $ < 3 4 4 4 4 4 4 4 4 $ O O x 6.e.r.e.e.r.r. .$ O O $ 1 4 4 4 4 4 4 4 4 4 4 4 3 $ O O D o.6.r.q.o.X.X.X.X.X.} R { { - 9 | X.X.X.X.X.| t o O O       ",
"      X o o o - ; < 3 4 4 4 4 4 3 $ O o y 7.r.r.7.0.r.r...$ O O ; < 2 4 4 4 4 4 4 4 4 4 4 < O o $ ` o.q.r.w.o.....X.X...` T R V $ Z X.X.X.X.X.X.Z O o O         ",
"      o o o O O $ - & ; < < ; ; $ O o O ) r.r.r.r.e.r.r.7.0 o o $ $ < < 2 4 4 4 4 4 4 4 4 $ O o y ..1.r.r.r.6.X.X.X.X.X.} ) D 2 l ..X.X.X.X.X._ 2 o O o         ",
"      O o o + o O o $ $ $ $ @ O o X $ Z o.' ` o.o.6.e.r.r.{ = o O $ $ ; ; & < 2 3 3 1 2 ; O o $ R o.q.r.r.r.6.o.X.X.X.X.X.T t C ..X.X.X.X.X.} 0 o O O           ",
"      O O 3 Z < + o o o o o O O $ y { R 2 O O = - ; c 6.r.r.` < O O O $ % - ; ; ; ; ; $ O O O k ..6.r.r.r.r.e.o.X.X...| S l R X.X.X.X.X.X.' e O O O             ",
"      O X t 6.o.R y e 3 4 0 y D ..w.o.< O < 2 $ < $ X C r.r.r.X.y $ o X O O O $ $ $ @ O O O y  .6.e.r.r.r.r.r.6.X...{ S F | X.X.X.X.X.X.R 9 O o o               ",
"      O o 2 6.r.r.w.q.6.6.q.e.r.r.j.R O $ 4 4 3 4 2 o 0 0.r.r.r.0.' y ; O o X O o o X o - c  .4.w.e.r.r.r.r.r.0.| ) { | X.X.X.X.X.X.} V ; o O O                 ",
"      O O O Y r.r.e.0.e.r.r.r.r.r.r.) O $ 4 3 3 4 ; X r q.r.r.r.e.e.0.X.D k t 4 3 4 y C { 1.q.r.r.e.r.r.r.r.r.w.X.....X.X.X.X.X.' C 3 O o O O                   ",
"        O o 2 X.k.r.7.w.r.r.r.r.j.j.o.0 o $ $ $ < O O T r.r.r.r.e.j.j.j.e.q.6.o.o.<.4.7.e.e.r.r.r.r.r.r.r.r.r.e.o.X.o.o.X.| T y ; O o O O                       ",
"        o O o 0 o.j.j.e.w.r.w.w.j.j.k.o.x e 0 2 = 9 Y w.r.r.r.r.e.j.j.e.e.e.e.j.r.r.r.r.r.e.r.r.r.r.r.r.r.r.r.7.o.X. .R c 4 $ O o O O                           ",
"          O O o t o.j.7.7.r.7.q.j.j.r.r.r.w.q.o.o.0.r.r.r.r.r.r.j.e.j.j.j.e.j.j.r.r.r.7.1.7.r.r.e.w.e.e.w.0.6...R V 0 $ O O O O O                               ",
"            O o o 0 o.r.r.r.r.r.r.r.r.r.r.j.j.k.j.r.r.r.r.r.r.r.e.j.e.j.e.j.j.e.r.r.r.4...6.r.r.0.6.6.o.} Y k 9 $ O X O O O                                     ",
"              O O O F r.r.r.r.r.r.r.r.r.r.r.r.r.r.r.r.r.r.r.r.r.r.r.r.r.r.r.r.r.r.r.r.e.q.e.w.6.X.{ Z y 2 @ o o o O O                                           ",
"              O O o Z r.r.r.r.r.r.r.r.r.r.r.r.r.r.r.r.r.r.r.r.r.r.r.r.r.r.r.r.r.r.r.r.r.r.r.6. .l $ O O O O O O                                                 ",
"              O O X k e.r.r.r.1.0.r.r.r.r.r.r.q.o.r.r.r.r.r.r.r.e.r.r.r.r.r.r.r.r.q.w.r.r.r.6.D O X O O O O                                                     ",
"                O X 2 1.r.r.r.c { r.r.r.r.r.j.o.V w.r.r.r.r.r.r.o.6.r.r.r.r.e.e.j.W  .r.r.e.o.t O O O O O O                                                     ",
"                o O O k &.6.} = V 0.r.r.r.r.r.Z 9 6.e.r.r.r.r.r.{ C q.r.r.r.r.e.r.k y 6.6.6.D @ O O O O O O O                                                   ",
"                  O o O 3 9 = O = t { q.w.7.o.0 ; ) 6.e.r.r.r.r.Y 3 X.q.r.r.e.6.} 2 3 R | Y ; o O , v n i * O O                                                 ",
"                    O o o o O O O o = C S y - O O - y | 6.6.) k 2 @ y F X.X.S 3 @ O O $ 3 $ o o i J J G J i * O O                                               ",
"                        O O     o O o O o o o o o o O 2 y e * o O o X * 3 2 O O O O O @ o o O @ n Q / ~ J J n * O O                                             ",
"                                o o * $ O O o . o O O O o o O O : : * o X o O O O ; s 9 $ O o $ Q O.! J G G N u O O                                             ",
"                                o o ; y O o 9 c t = O O O O O * : = O o O o o o O = = @ O O o * N Q ! O./ J Q Q 8 O O                                           ",
"                                o o y y o o t Y R S e = O O O O O o O $ $ @ @ $ $ < 9 y y < O * J #.O./ Q G i u > O O O                                         ",
"                            o O o 3 { 3 o O O o O $ = $ O o 3 F 9 X $ c C x k k k x c V t O O O i i v m v q @ o O O O                                           ",
"                          O O $ 2 ) | $ o 3 C z y 0 3 ; O o y <.9 o O $ $ * O O O O O O X X O O * * o o o @ ; $ o o O                                           ",
"                      O O o = F | Z 0 O O $ 9 t y t e 3 $ O < y = O ; 9 0 e t r 3 : O O O * * * * o o w Z t k Y c = o o                                         ",
"                      O O O O 2 9 O o o O * o o o o o o O O O O o O * 2 3 3 3 ; @ O o * * * * * O o 3 1.' O O t t $ X o O                                       ",
"                      O $ y y ; O o o o : q > : : : : * O $ R C $ o O O O O O O * * * > * > * o O o - c 3 o O O O - t - o O                                     ",
"                      o O = t a = X o o O > : > > > 6 : o = x h @ O * > > > > > > 5 6 6 7 > O O s e @ X O 8 D T R } o.h o O                                     ",
"                    O O o $ O O $ 3 $ @ % # @ O $ O * O o o o o O O * > 5 5 6 6 6 6 5 5 > = o = ` _ V C R ..1.1.<.2.1.F O o                                     ",
"                      O o 4 T ` ....- @ 1 1 1 & % % % % # $ O @ O O O + O @ @ O * @ O * O O o @ 0 C 4.j.w.1.<.<.<.<.<.c O O                                     ",
"                        O O 0 S } _ $ o @ # $ % & % & & & & & & & & & & # - & # + # & # # + o o y 6.4.| 0.<.<.<.<.2.R - O o                                     ",
"                          O o o O $ O O J E p , = @ @ # # % # % & & & - & & & # # & & & + + o o s D h ..2.F <.1.o.S ; o O                                       ",
"                                O O o = ,.V.u.$.( U N b b t , : = $ @ @ @ @ @ @ @ @ $ @ $ = = O O 8 ..&.r Y  .D r @ O O                                         ",
"                                    o 8 g.B.u.u.;.;.;.>.a.p.$.#.+.@.^ U ! I I I Q ~ J m G G m = o - s ; $ r < + o o O                                           ",
"                                    o , i.h.t.=.$.-.;.-.;.;.;.>.:.y.:.;.;.;.;.;.;.;.@.J H J J m 8 @ O O O o o O O                                               ",
"                                    O O p K g w 8 f ~ $.$.$.O.! / =.=.-.;.=.=.-.#.( ! H H H J H f 8 6 8 u : o O                                                 ",
"                                      o o o X o 3 ; = w w , = O * w H +.#.( H p 3 = : 6 u f u ; @ O + * ; O O                                                   ",
"                                      O O O O O Z | c 3 O o o O O O O ; 8 = O X O x Z t = O o o O O o   o o                                                     ",
"                                      o O # O o = 9 0 ; O O o O O O   o o O O O O 8 y r = O O X O O O                                                           ",
"                                    O O O & % @ O O O O O + O O O     O O + & @ + O o o o O O + o O O                                                           ",
"                                    O o o @ # @ # @ + O O O O O O     O O @ @ # # @ # # + O + O O O O                                                           ",
"                                      O O O O O o o O O O O O o O     O O O O O o O O O O o O O O O O                                                           ",
"                                                                              O O O O o O                                                                       "
};
