/* XPM */
static char *w_1_left_resized[] = {
/* columns rows colors chars-per-pixel */
"80 80 155 2 ",
"   c None",
".  c #161513",
"X  c #181715",
"o  c #1A1917",
"O  c #1B1A18",
"+  c #201916",
"@  c #281C17",
"#  c #221E1B",
"$  c #2A1F1A",
"%  c #23211E",
"&  c #2C211C",
"*  c #33241D",
"=  c #1E2122",
"-  c #252422",
";  c #292623",
":  c #2C2925",
">  c #232729",
",  c #25292B",
"<  c #2B2B2A",
"1  c #312C26",
"2  c #3C2A22",
"3  c #322E29",
"4  c #35312C",
"5  c #3A342D",
"6  c #272D30",
"7  c #292E32",
"8  c #2F3031",
"9  c #333333",
"0  c #3A3631",
"q  c #3D3933",
"w  c #353638",
"e  c #34383B",
"r  c #393A3C",
"t  c #413D36",
"y  c #423E38",
"u  c #46413A",
"i  c #4A453D",
"p  c #4D483F",
"a  c #3E4348",
"s  c #444443",
"d  c #484540",
"f  c #4E4941",
"g  c #434649",
"h  c #464A4F",
"j  c #534D44",
"k  c #575147",
"l  c #585046",
"z  c #57544E",
"x  c #5B544A",
"c  c #5F584D",
"v  c #4B4F54",
"b  c #4E535A",
"n  c #595650",
"m  c #5D5953",
"M  c #52565C",
"N  c #56595D",
"B  c #5A5B5D",
"V  c #615A4F",
"C  c #645D52",
"Z  c #685F53",
"A  c #676054",
"S  c #696156",
"D  c #65615A",
"F  c #6D665A",
"G  c #70675B",
"H  c #736A5D",
"J  c #555A61",
"K  c #5A5E65",
"L  c #595F68",
"P  c #5D6066",
"I  c #5D636B",
"U  c #5F6770",
"Y  c #6D6961",
"T  c #62666E",
"R  c #696A6C",
"E  c #776E60",
"W  c #786F61",
"Q  c #746F68",
"!  c #7C7364",
"~  c #7E766A",
"^  c #7D786F",
"/  c #606771",
"(  c #656B74",
")  c #696E77",
"_  c #676F79",
"`  c #6D737D",
"'  c #737476",
"]  c #757779",
"[  c #807667",
"{  c #817768",
"}  c #847A6B",
"|  c #887E6E",
" . c #817C74",
".. c #8A806F",
"X. c #8D8271",
"o. c #8A8378",
"O. c #8E887F",
"+. c #918675",
"@. c #948877",
"#. c #968A79",
"$. c #998D7B",
"%. c #9D917E",
"&. c #6F7680",
"*. c #747A84",
"=. c #787E88",
"-. c #7C828D",
";. c #7E8590",
":. c #8F8A80",
">. c #968F86",
",. c #9F9280",
"<. c #999289",
"1. c #9E988D",
"2. c #818793",
"3. c #838A95",
"4. c #868D99",
"5. c #888F9A",
"6. c #8C939E",
"7. c #A29582",
"8. c #A69986",
"9. c #A89B87",
"0. c #A49A8B",
"q. c #AB9D8A",
"w. c #A39C91",
"e. c #AEA18C",
"r. c #B1A38F",
"t. c #B4A691",
"y. c #B7A893",
"u. c #BAAB96",
"i. c #B2AB9F",
"p. c #BDAF99",
"a. c #BFB09A",
"s. c #8F95A0",
"d. c #9096A2",
"f. c #9399A3",
"g. c #BAB0A1",
"h. c #BDB5A9",
"j. c #A4AAB2",
"k. c #ADB1B9",
"l. c #C0B19B",
"z. c #C3B5A1",
"x. c #C6B9A5",
"c. c #C2B9AC",
"v. c #C9BDAA",
"b. c #C9BFB1",
"n. c #CDC1AF",
"m. c #CDC3B3",
"M. c #D0C5B4",
"N. c #D1C7B8",
"B. c #D5CBBC",
"V. c #BBBFC5",
"C. c #C3C7CD",
"Z. c #C5C9CF",
"A. c #D7CEC0",
"S. c #D8CFC1",
"D. c #DAD1C3",
/* pixels */
"                                                                O O o O O O o O o o O o O O                                                                     ",
"                                                    O O o O O o o o o o X o X o o o o o o o O O O o O O O                                                       ",
"                                            O O O o o X o O # ; : 4 q t u i p p i u u q 4 < : % O o o o o O o O O o                                             ",
"                                      O O O O X o - 0 f D } o.,.7.7.,.%.$.$.$.$.$.$.@.@.@.X.| ! H A k u 4 ; # O o o O O O                                       ",
"                                O o O o X # 9 x ^ w.g.z.z.l.l.l.a.a.p.p.t.e.8.,.$.$.$.$.$.$.$.$.%.%.$.$.X.| H c u < # o o o O O                                 ",
"                            o O o X O 0 Z <.c.N.m.v.l.a.a.a.a.a.a.a.a.a.a.a.u.p.t.9.,.$.$.$.$.$.$.$.$.$.$.$.$.$.$.X.W x 0 % o o O O O                           ",
"                        O O o o < n >.c.A.A.v.l.a.a.a.a.a.y.r.t.a.a.a.a.a.a.a.a.a.a.p.t.q.,.$.$.$.$.$.$.$.$.$.$.$.$.$.$.+.! k 3 O o o O                         ",
"                    O O X O 0 Q i.A.D.B.v.l.l.l.a.a.a.a.p.7.$.$.t.a.a.a.a.a.a.a.a.a.a.a.a.p.r.8.%.$.$.$.$.$.$.$.$.$.$.$.$.%.$...C 4 O o O O                     ",
"                O O o o w ^ h.D.D.B.v.l.l.l.l.l.l.l.l.l.l.%.#.%.t.a.a.a.a.a.a.a.a.a.a.a.a.a.a.a.u.r.%.%.$.$.$.$.$.$.$.$.$.$.$.$.$...c : o o O                   ",
"              o o o - F h.D.D.D.n.l.l.l.l.l.u.q.r.l.l.l.l.y.r.y.a.a.a.a.a.a.a.a.a.a.p.a.a.a.a.a.a.l.l.t.e.%.$.$.$.$.$.$.#.+...#.$.$.$.! 0 O o O                 ",
"            O O o < :.B.D.D.B.x.l.l.l.l.q.{ l j c H +.| @.q.l.l.a.a.a.a.a.a.a.a.a.a.a.a.a.a.a.a.a.a.a.a.a.y.e.%.$.$.$.$.#.} ! ..$.$.$.$...i O O O               ",
"          O O o 4 w.D.D.D.N.z.a.l.l.y.} V Z +.@.p 5 5 2 t p H q.a.a.a.a.a.a.a.a.a.a.a.a.a.a.a.a.a.a.a.a.a.l.l.u.e.7.$.$.$.X...+.#.$.$.$.%...t o O O             ",
"        O o o < w.D.D.S.m.l.a.a.l.l.e.%.r.l.l.[ 5 5 5 5 5 5 5 Z p.p.a.a.a.a.a.a.a.u.y.y.a.a.a.a.a.a.a.a.a.a.a.a.l.u.e.%.$.$...} } @.$.$.$.$.| 4 o O O           ",
"        O o % :.D.D.B.m.l.a.a.a.l.l.9.%.q.l.l.%.x 5 5 5 5 5 5 l y.a.a.a.a.a.a.a.a.t.$.,.p.a.a.a.a.a.a.a.a.a.a.a.l.a.a.t.%.%.} W ! @.$.$.$.$.%.H - o O           ",
"      O o o F B.D.S.n.l.a.a.a.a.l.l.t.%.e.8.8.l.r.[ i 5 5 5 j #.a.a.a.a.p.a.a.a.a.p.9.e.p.a.a.a.a.a.a.a.a.a.a.a.a.a.a.l.u.7...} | @.$.$.$.$.$.$.c O o O         ",
"      O o w h.D.D.m.l.a.a.a.a.a.l.l.l.l.9.p i +.%.%.%.X.} @.r.l.a.a.a.a.a.a.a.a.a.a.a.a.p.a.a.a.a.a.a.a.a.a.a.a.a.a.a.l.l.u.%.#.$.X.} $.$.$.$.$.+.q o O O       ",
"    O o O  .D.D.N.l.l.a.a.a.a.a.a.a.p.y.q.A c | | | ,.t.t.u.p.a.a.a.a.a.a.a.a.a.a.a.a.a.a.a.a.a.a.a.a.a.a.a.a.a.a.a.a.a.a.a.e.%.$.+.V @.$.$.$.$.$.W % O O       ",
"    o X q c.D.B.l.p.a.a.a.a.a.e.$.| E F C C c k j j j j k k c S W ..%.e.y.a.a.p.a.a.a.a.a.a.a.a.a.a.a.a.a.a.a.a.a.a.a.a.a.a.t.%.$.@.k W $.$.$.$.$.@.i X O O     ",
"  O o o Y D.B.x.a.a.a.a.a.a.a.y.e.e.t.y.y.y.y.y.y.t.t.e.9.7.$.o.~ G A c S E +.e.y.a.a.a.a.a.a.a.a.a.a.a.a.y.t.a.a.a.a.a.a.a.p.%.$.$.k c %.$.$.$.$.$.! % O O     ",
"  O O % 1.D.m.a.a.a.a.a.a.a.a.a.a.a.a.a.a.a.a.a.a.a.a.a.l.l.a.l.l.a.a.y.e.%.@...+.e.p.a.a.a.a.a.a.a.a.a.a.y...t.l.a.a.a.a.a.u.%.$.%.C u @.$.$.$.$.$.@.u O O O   ",
"  O O 3 h.B.l.a.a.a.a.a.a.a.a.a.a.a.a.a.a.a.a.a.a.a.a.a.a.a.a.a.a.a.a.a.a.a.l.a.u.u.a.a.a.a.a.a.a.a.l.t.9.t...H u.a.a.a.a.a.e.%.$.$.G 5 ..$.$.$.$.$.%.Z O X O   ",
"  O X y m.m.a.a.a.a.a.a.a.a.a.a.a.a.a.a.a.a.a.a.a.a.a.a.a.a.a.a.a.a.a.a.a.a.a.a.a.a.a.a.a.a.a.a.a.a.l.%.$.%.r.l ! a.a.a.a.u.%.#.$.$.G : ..$.$.$.$.$.$.} % O O   ",
"  O X s m.x.a.a.a.a.a.a.a.a.a.a.a.a.a.a.a.a.a.a.a.a.a.a.a.a.a.a.a.a.a.a.a.a.a.a.a.a.a.a.a.a.a.a.a.a.u.8.$.9.l.#.t %.l.a.a.8.%.$.%.%.C % ..$.$.$.$.$.$.@.q X O   ",
"  O X s m.l.a.a.a.a.a.a.a.a.a.a.a.a.a.a.a.a.a.a.a.a.a.a.a.a.a.a.a.a.a.a.a.a.a.a.a.a.a.a.a.a.a.a.a.a.l.u.t.u.l.u.c S l.u.e.#.%.#.} C : 3 ..$.$.$.$.$.$.@.i O O O ",
"  O X y c.l.l.a.a.a.a.a.a.a.a.a.a.y.e.t.a.a.a.a.a.a.a.a.a.a.a.a.a.a.a.a.a.a.a.a.a.a.a.a.a.a.a.a.a.a.a.a.a.a.a.a.S @.a.e.#.#.| p & O % A $.$.$.#.$.$.$.$.x o O O ",
"  O o 9 g.a.y.t.y.u.a.a.a.a.a.a.y.%.$.%.y.a.a.a.a.a.a.a.a.a.a.a.a.a.a.a.a.a.a.a.a.a.a.a.a.a.a.a.a.a.a.a.a.a.a.e...p.e.%.%.! 3 X O q ! @.$.$.$.$.$.$.$.%.c O o o ",
"  O o : w.9.$.$.$.,.9.t.p.l.a.l.y.%.$.7.p.a.a.l.l.l.a.a.l.a.a.a.a.a.a.a.a.a.a.a.a.a.a.a.u.y.y.t.p.a.a.a.a.a.a.e.r.r.%.#.+.q o O u ..+.} ..$.$.$.$.$.$.$.C o O O ",
"  O O O ^ ,.$.$.$.$.$.$.7.r.p.l.a.t.8.#.,.q.y.p.l.l.l.l.l.l.l.l.a.a.u.t.p.a.a.a.y.e.e.%.%.%.%.%.%.8.y.a.a.a.a.u.t.%.#.%.! % O % ! $.+.! ~ #.$.$.$.$.$.$.c o o O ",
"  O o X m 0.$.$.$.$.$.$.$.$.8.y.a.a.a.e.X.F C C F ! } | | | } ! E E ~ %.t.e.e.%.%.$.$.%.$.%.$.#.$.#.%.y.a.a.a.y.%.#.#.%.~ % O % } $.#.@.#.+...+.$.$.$.$.j o o O ",
"    o . q o.C f i k F | #.%.$.%.e.p.l.l.l.p.e.$.| W F S S F E } #.7.9.%.%.$.$.$.%.@...W E ~ +.%.$.$.%.9.a.a.a.e.%.$.$.$...4 O # A %.$.$.#.| ! ! +.$.$.@.t o O o ",
"    o . O : O O X O O : i E @.$.$.9.p.l.a.a.l.l.l.l.l.l.l.l.l.p.e.%.$.$.$.%...E k q : % O % 5 S @.$.#.%.y.a.u.%.$.$.$.$.#.k O X t +.#.%.$.| ! ! @.$.$.X.4 o O   ",
"    X . O O O O % O O O o % u ~ $.$.7.y.a.a.a.a.a.a.l.a.a.a.y.8.$.%.%.+.E p < # o X o O O O O O x #.$.$.t.a.r.$.$.$.$.#.%...4 O O V %.#.%.+...@.$.$.%.! % o O   ",
"    . X O O % 3 5 4 1 % O o o : c +.%.,.u.a.a.a.a.a.a.a.p.t.,.$.$...S q # X X O # % & : 3 % O O % E $.$.e.p.e.$.$.$.$.$.@.$.! 1 X : ~ $.$.$.$.$.$.$.$.V O O o   ",
"      o o O & 5 5 5 5 5 1 % O O O t ..$.e.p.a.a.a.a.a.a.u.e.%...c 3 O X X O % 3 2 5 q 5 0 5 % O o p #.$.e.a.%.%.$.$.$.$.$.$.$.{ q o f $.$.$.$.$.$.$.@.u o O O   ",
"      O O O 1 5 5 5 5 5 5 4 & # o o 3 ~ #.r.a.a.a.a.a.a.t.$.E 4 O X X # % 3 5 5 5 5 5 5 5 5 1 O o 4 +.$.r.p.e.$.$.$.$.$.$.$.$.%.H # 4 +.$.$.$.$.#.%.! - O O     ",
"      X O O : 5 5 5 5 5 5 5 5 3 # O o 4 { e.p.a.a.a.a.p.t.W % X O # : 4 0 5 5 5 5 5 5 5 5 0 1 O o 1 ..$.t.a.%.$.$.$.$.$.$.#.+.@.| - 4 X.$.$.$.$.$.$.k O O O     ",
"      O O X % 4 5 5 5 5 5 5 5 5 3 # O O k %.p.a.a.p.p.a.r.u o O % 1 0 0 0 5 5 5 5 5 5 5 0 0 1 O o 1 X.%.u.a.r.$.$.$.$.$.#...E ..H O k $.$.$.$.$.$.} ; O O       ",
"      X O O % 1 4 5 5 5 5 5 5 5 5 ; O o 0 $.p.p.u.r.p.a.t.t o O % : 1 5 0 5 5 5 5 5 5 5 0 5 & o o t $.%.p.a.t.$.$.#.$.$.$.[ W E u 4 | %.$.$.$.$.+.i X O O       ",
"      X O O O % : 1 4 4 4 5 5 5 4 % o o t e.a.a.u.u.a.a.p.x X O O * : : 3 5 5 5 5 5 5 5 5 1 % X O Z $.r.a.a.p.e.#.$.$.$.$.+...p 5 ! $.$.$.$.$.$.V # O O         ",
"      X O O O O % % * : : : : % # O O O E p.p.p.a.a.a.a.a.$.< O O # ; * : * 1 1 1 4 4 5 4 % O O 4 ..%.p.a.a.a.r.$.$.$.$.$.#.C p } $.$.$.$.$.$.G & O O O         ",
"      O X O O O O O # # = O O O o o - A ..c u x A Z { t.p.a...3 X O O # % : : : : 3 : : % O o O A %.t.a.a.a.a.p.%.$.$.$...c Z +.$.$.$.$.$.$.G ; o O O           ",
"      O o : C 0 # o o o o o o O : k @...: O % O O O O k t.a.a.%.i # o O O # # % % % % O O o O x @.e.p.a.a.a.a.a.r.$.+.! G ..$.$.$.$.$.%.+.c % o O O             ",
"      O X 4 8.7.{ V i t t i c [ %.p.u.u o ; 5 : 3 4 # # ..a.a.a.t.~ u - O X O O O O O o O : V #.r.p.a.a.a.a.a.a.y.@.....$.$.#.$.$.$.#.H q O O O o               ",
"      O X % #.l.p.p.u.y.y.u.p.a.a.a.e.3 O 4 5 5 5 4 - X F p.a.a.a.a.r.X.A u 3 ; % % : 0 x ..%.t.p.p.a.a.a.a.a.a.p.%.#.#.$.$.$.$.+.G u % o O O                   ",
"      O O X k u.a.a.u.y.a.a.a.p.a.a.t.u o : 4 : 3 4 # # ..a.p.a.a.a.a.a.p.r.,.@.....+.%.e.y.a.a.p.a.a.a.a.a.a.a.u.e.#.$.$.$...V 0 O O o O O                     ",
"        O O # ! p.a.y.t.a.a.a.p.a.a.a.X.: O # O - # O p r.a.a.a.a.a.a.a.a.a.a.a.l.l.a.a.l.l.a.a.p.a.a.a.a.p.a.p.r.%.$.X.H i ; o o O O O                         ",
"        O O O ; { p.p.p.p.p.p.t.p.a.a.p.%.H C Z f f H r.a.a.a.a.a.a.a.a.a.a.a.a.a.a.a.a.t.e.r.a.p.p.a.a.p.u.r.e.+.E k 4 # o o O O o                             ",
"          O O X : W u.u.e.p.u.r.p.a.a.a.a.a.p.p.u.u.a.a.a.a.a.a.a.a.a.a.a.a.a.a.a.a.a.a.e.#.9.a.p.y.e.e.%.@.W k 4 % o O O O O                                   ",
"            O O o % G p.p.a.a.a.a.a.a.a.a.a.a.a.a.a.a.a.a.a.a.a.a.a.a.a.a.a.a.a.a.a.a.a.u.r.u.p.r.%.+.H k 4 # O X O O O                                         ",
"              o o o 3 q.a.a.a.a.a.a.a.a.a.a.a.a.a.a.a.a.a.a.a.a.a.a.a.a.a.a.a.a.a.a.a.a.a.a.p.u.%.H 4 # o o O O O                                               ",
"                O o - %.a.a.a.a.a.a.a.a.a.a.a.a.a.p.a.a.a.a.a.a.a.a.a.p.a.a.a.a.a.a.a.a.a.a.a.r...4 o O O O O                                                   ",
"                O o O | l.a.a.p.$.u.a.a.p.a.a.a.e.@.a.a.a.a.a.a.a.y.u.a.a.a.a.a.a.a.,.#.a.a.p.r.A O o O O O O O                                                 ",
"                o O o j y.a.l.r.p %.a.a.a.a.a.a...j u.a.a.a.a.a.a.%.~ p.a.a.a.a.a.a.~ i e.r.t.$.0 o O o o o O O                                                 ",
"                  O o - H e.e.! - H y.a.a.a.a.p.x 3 ,.a.a.a.a.a.l.#.y %.p.a.a.a.a.y.C % ~ %.@.k O o O 6 w < O O O                                               ",
"                  O O o % q 4 - O % t ..t.y.e.} 3 ; F #.y.p.a.u.e.H % H $.t.t.e.H u % # 3 f t # o = a M P I v > O O                                             ",
"                    o O o o o o O X X - x V 0 # O O O 3 F @.@.V 3 # O % 4 c A y O X O O X X X X O 9 _ &./ M M a % O O                                           ",
"                        O O O     O O O O O X O O o o o # < ; O X O # O O O O X O O O 3 q - # O O b _ U I I I U a O O                                           ",
"                                  O O O O O O X o o o o O o O O O , 7 = O O O O O O ; y q % O O = a _ *.*._ J M b 7 O O                                         ",
"                                    O O % O O t E A t % O O O O O = # O X X X X X X O O # ; - O O J &.U I U I I I h O O O                                       ",
"                                    O O O O O 4 x A A i 3 O O O ; % O O 3 t q q t u j c F F q O O a U _ &._ J r < % O O O                                       ",
"                                  # O = % o O % O o O O # O O - ..V O O t k p u t 0 4 3 < ; O O O , 7 ; , : # O o o O O                                         ",
"                                O O O u - o 3 A A x p u 0 % o ; +.k o O O # O # % % % O O O O O O O O O % : 8 u 4 # O o                                         ",
"                            o O O 0 A G # o O ; 4 0 0 4 3 % O O < % O - t i f f p q : O O O O = = O o ; ! ~ 4 u ~ F : o O                                       ",
"                          O O o O A [ 0 o O = = O O O O O O o - : # X O # % % = # O O X = = = = O X X p 9.x X o : 4 O o o O                                     ",
"                          O O % O O O O O # e 7 , , , , = O O D +.t o O O - = O - = > > 6 6 > o # < O # < O O : % ; 5 j - o o                                   ",
"                          O o 0 x f 4 O O O = > > , 6 8 , O o 4 y < O O > 6 6 7 6 7 7 7 7 6 # o 0 | j ; : 0 Z +.X.+.$.%.u o O                                   ",
"                          O o O : 4 : O O * * # O O O O O o O X o o O O = , , , > > > > > = O o q E G +.$.7.7.7.8.7.7.7.l o O                                   ",
"                          O O O - : : % O 2 2 * 2 & * & & & # % # @ # # O # # O # # O # # # o o # j 9.p.y.t.7.7.7.7.8.$.q o O                                   ",
"                            o O q } $.q o O # $ & & & * * * * * 2 * & * * * * * * $ $ & * * @ o 3 ,.$.E 7.e.#.7.7.8.$.j O o                                     ",
"                              O O : t - o r ' B w < - # # # @ $ @ $ $ $ $ * $ $ $ $ $ $ $ $ o o - t i #.q.S X.9.7.} u O O O                                     ",
"                                O O o o X B C.k.;.=.` T N B B g 9 8 < < < ; ; < < < < 8 8 8 9 % X - { X.t k | G u - o O o                                       ",
"                                      O o ' Z.k.s.s.4.5.4.f.j.f.2.;.=.4.=.*.*.*.*.=.=.2.) L L h # o - - O 1 ; O o o O                                           ",
"                                      O O R V.j.5.-.-.4.4.3.4.4.5.5.5.6.4.4.4.4.4.5.5.5.` I L L v 9 - O O O > - O O                                             ",
"                                        o < R P g r e M ] ;.-.*.( K ) -.;.3.4.2.2.=.( J M M N K K h < O O < r < O o                                             ",
"                                        O O o o o - 5 % < r 8 > O O % w M ) ] L s < # ; - - < 9 , O O O o O O O O                                               ",
"                                        o O # O O % t : o o X o o O o o O - > O X o O t t ; O X O O o O O                                                       ",
"                                        O O $ & + O O O o O O + O O O     o o @ $ # O O O O O O O + O O O                                                       ",
"                                      O o O # $ & $ # + O O O + O O O     O O # * $ $ # $ # O + + + O O O                                                       ",
"                                      O O O O o O O O O o O O O O O O   O O O O O O O O O O O O o O O O O                                                       ",
"                                              O O O O O O O O O             O O O O O O o O o O o O                                                             "
};
