/* XPM */
static char *w_5_left_resized[] = {
/* columns rows colors chars-per-pixel */
"80 80 155 2 ",
"   c None",
".  c #161513",
"X  c #181716",
"o  c #1A1917",
"O  c #1C1A18",
"+  c #211A16",
"@  c #291C17",
"#  c #221E1B",
"$  c #291F1A",
"%  c #23211E",
"&  c #2B211C",
"*  c #33241D",
"=  c #1F2122",
"-  c #242422",
";  c #292623",
":  c #2D2925",
">  c #232729",
",  c #262A2C",
"<  c #2D2C2A",
"1  c #352721",
"2  c #302C26",
"3  c #382821",
"4  c #322E2A",
"5  c #35312B",
"6  c #3A342D",
"7  c #272D30",
"8  c #292F32",
"9  c #2D3134",
"0  c #333435",
"q  c #3A3630",
"w  c #3D3933",
"e  c #353638",
"r  c #37383A",
"t  c #3A3B3D",
"y  c #413D36",
"u  c #433F38",
"i  c #46423A",
"p  c #4A453D",
"a  c #4D483F",
"s  c #3C3E41",
"d  c #3F4144",
"f  c #404142",
"g  c #4A4742",
"h  c #4E4A42",
"j  c #44464B",
"k  c #46484D",
"l  c #494A4C",
"z  c #534D44",
"x  c #514E49",
"c  c #565047",
"v  c #575148",
"b  c #5B544A",
"n  c #5F584D",
"m  c #4A4F54",
"M  c #4C5056",
"N  c #4E5259",
"B  c #5F5B55",
"V  c #51565C",
"C  c #54585E",
"Z  c #5B5C5D",
"A  c #61594F",
"S  c #645D52",
"D  c #676054",
"F  c #696256",
"G  c #66625B",
"H  c #6D6559",
"J  c #736A5D",
"K  c #555C64",
"L  c #595D64",
"P  c #585F68",
"I  c #5B6067",
"U  c #5D636B",
"Y  c #5F6670",
"T  c #686B6E",
"R  c #766E61",
"E  c #786F62",
"W  c #7C7364",
"Q  c #7C766C",
"!  c #666C75",
"~  c #696E77",
"^  c #676E78",
"/  c #6A6F78",
"(  c #6B727B",
")  c #717375",
"_  c #807667",
"`  c #817768",
"'  c #857B6B",
"]  c #897E6E",
"[  c #837D75",
"{  c #8A7F70",
"}  c #8A806F",
"|  c #858077",
" . c #8D8272",
".. c #878179",
"X. c #8C867D",
"o. c #918675",
"O. c #948877",
"+. c #968A79",
"@. c #998D7B",
"#. c #9D917E",
"$. c #6E7580",
"%. c #717781",
"&. c #737983",
"*. c #787E88",
"=. c #7D8187",
"-. c #7B818C",
";. c #7F8691",
":. c #838689",
">. c #9F9280",
",. c #9B958A",
"<. c #808792",
"1. c #838A95",
"2. c #8C8F94",
"3. c #868D99",
"4. c #888F9A",
"5. c #8C929E",
"6. c #A29683",
"7. c #A69986",
"8. c #A89B87",
"9. c #A4998A",
"0. c #AA9D89",
"q. c #A39C92",
"w. c #AFA18D",
"e. c #B1A38F",
"r. c #A9A093",
"t. c #AFA89C",
"y. c #B4A691",
"u. c #B7A893",
"i. c #BAAB96",
"p. c #BDAE99",
"a. c #BFB09A",
"s. c #8F96A1",
"d. c #9097A2",
"f. c #959BA4",
"g. c #A5A8AD",
"h. c #B5AEA2",
"j. c #BEB4A4",
"k. c #BEB6AA",
"l. c #ABB0B8",
"z. c #B2B6BF",
"x. c #C0B19B",
"c. c #C4B6A1",
"v. c #C6B8A4",
"b. c #C4BBAC",
"n. c #CBBEAB",
"m. c #CDC1AF",
"M. c #CDC2B3",
"N. c #CEC5B8",
"B. c #D0C5B4",
"V. c #D4CBBC",
"C. c #D8CEBF",
"Z. c #C3C7CD",
"A. c #D6CDC0",
"S. c #D8CFC1",
"D. c #DAD1C3",
/* pixels */
"                                                                      O o O O O O o                                                                             ",
"                                                      O O O O O O O O o o o o o o o o O o O O O O o O                                                           ",
"                                              O O O o o X X O O O - ; : < 5 4 4 4 : : % % # O o o O o o O o O O                                                 ",
"                                      O O O O X o O - q h B R '  . . . . . .o. . .} ] ' W J F n h w 5 ; # o o o o O O O                                         ",
"                                  O O O X X ; u G X.r.p.a.a.a.c.x.a.i.u.w.7.>.@.@.@.#.@.@.@.#.@.@.O. .' R A p 5 ; O o O O O O                                   ",
"                            O O O X O : x [ h.n.B.n.c.a.a.a.a.a.x.a.x.a.x.a.i.y.8.#.@.@.@.@.@.@.@.@.@.@.#.#.@. .W D p : O O o O O                               ",
"                        o o o X - g [ h.V.A.B.c.x.a.a.a.a.p.y.i.a.a.a.a.a.a.a.x.a.p.y.0.#.#.@.@.@.@.@.@.@.@.@.@.#.#.@.} J a : o o o o                           ",
"                    O O o o < G q.N.S.A.n.c.i.x.a.a.a.a.p.6.@.>.u.a.a.a.a.a.a.a.a.x.x.x.p.e.7.#.@.@.@.@.@.@.@.@.@.@.@.@.@.O.' n 5 O o O O                       ",
"                  O o o < R h.S.D.C.n.x.x.x.x.x.x.x.x.x.i.#.+.@.u.a.a.a.a.a.a.a.a.a.a.a.a.x.p.i.e.#.#.@.@.@.@.@.@.@.@.@.@.@.@.@.} n : X o O                     ",
"              o O o - B h.D.D.S.m.x.x.x.x.x.x.e.u.x.x.x.x.e.8.w.p.a.a.a.a.a.a.a.a.a.a.a.a.a.a.x.x.p.u.8.#.@.@.@.@.@.@.@.@.O.O.@.@.@.W i O o O                   ",
"            o O o : ..N.D.D.V.b.x.x.x.x.e.] A z S ] +.+.7.u.x.x.a.a.a.a.a.a.a.a.a.a.a.a.a.a.p.a.x.x.x.p.i.e.#.#.O.@.@.@.+.W ' O.@.@.#. .c # O O                 ",
"          O O X 4 ,.S.D.D.B.v.a.x.x.x.] A A ' o.u y y y y A o.u.a.a.a.a.a.a.a.a.a.a.a.a.a.a.a.a.p.x.x.p.x.p.p.e.6.@.@.@.+.` ' O.@.@.@.@.O.c O O O               ",
"        O o o < ,.D.D.S.M.x.a.x.x.x.w.+.0.x.x.J 3 6 6 6 6 6 6 _ a.a.a.a.a.a.a.a.a.p.i.p.p.a.a.a.x.p.x.x.p.x.p.p.p.e.#.@.@.+.} '  .@.@.@.@.O.a O O O             ",
"        O o % X.S.D.S.M.x.x.a.a.x.x.8.#.w.x.x.@.a y 6 6 6 6 6 A i.a.a.a.a.a.a.a.a.w.#.8.a.a.a.a.p.x.x.p.x.p.x.x.p.x.i.7.@.+.W W ' @.@.@.@.@.} 5 O O O           ",
"      O O o G V.D.S.M.x.a.a.a.a.x.x.y.#.w.0.y.x.8.F y 3 6 6 z @.x.a.a.a.a.a.a.a.a.e.6.w.a.a.a.a.x.p.p.x.x.x.x.p.p.x.x.p.w.+.` W ' @.@.@.@.@.@.R ; o o           ",
"      O o w k.D.S.M.x.a.a.a.a.a.x.x.x.x.#.p a #.#.#.+._ E  .w.x.a.a.a.a.a.a.a.a.a.a.p.p.a.a.a.a.p.x.x.p.p.x.p.x.x.p.p.p.p.8.+.o.+. .O.@.@.@.@.@.c O O O         ",
"    O O O ..D.S.B.x.x.a.a.a.a.x.x.a.p.i.7.A A }  . .8.i.i.p.x.x.a.a.a.a.a.a.a.a.a.a.a.a.a.a.a.a.x.x.p.x.x.x.x.p.x.x.x.p.x.u.#.#.@.W W @.@.@.+.@.} 6 X O O       ",
"    O o w b.D.V.x.a.a.a.a.a.p.w.@.' R H S S b c z h z c v S F R } @.w.u.a.a.a.a.a.a.a.a.a.a.a.a.p.x.x.p.x.x.p.x.x.p.p.x.x.p.8.@.@.W b +.@.@.@.@.#.F O o O       ",
"  o O o R D.V.v.a.a.a.a.a.a.a.y.w.w.e.y.e.y.y.y.y.w.0.7.>.O. .W H D n D J } 7.y.p.a.a.a.a.a.a.a.x.p.p.x.x.i.x.x.p.x.p.p.x.x.w.#.@.} i } @.@.@.@.#.} q o O O     ",
"  O o % q.D.n.a.p.a.a.a.a.a.a.a.x.a.a.x.x.x.a.x.x.x.x.x.x.x.x.x.a.i.u.w.#. .' } #.y.a.a.a.a.a.a.p.x.p.x.x.#.#.x.x.p.x.x.p.p.w.@.#. .q E @.@.@.@.@.#.S O O O     ",
"  O o q k.V.j.p.a.p.x.a.a.a.a.a.a.a.x.p.x.p.x.a.a.a.a.a.a.a.a.a.a.a.a.a.a.a.a.p.y.i.a.a.a.a.a.a.x.x.p.y.w.e.H 6.x.x.x.x.x.p.#.#.@.o.y D @.@.+.@.@.@.' & O O     ",
"  O X f N.n.p.a.a.a.a.a.a.a.a.a.a.a.a.a.p.x.a.a.a.a.p.x.a.x.p.a.a.a.a.a.a.a.a.a.a.a.a.a.a.a.a.a.x.p.u.#.@.w.} b w.x.x.x.x.e.#.#.@.+.i v @.@.@.@.@.@.O.i o O O   ",
"  O X h N.v.a.a.a.a.a.x.a.a.a.a.a.a.p.x.a.x.a.a.a.a.p.a.a.a.a.a.a.a.a.a.a.a.a.a.a.a.a.a.a.a.a.a.p.p.u.#.@.w.u.a H p.x.x.i.#.+.@.#. .6 c @.@.@.@.@.@.@.n o O O   ",
"  O X h M.x.a.a.a.a.a.p.a.a.a.a.p.x.a.x.a.p.a.a.a.a.x.a.a.a.a.a.a.a.a.a.a.a.a.a.a.a.a.a.a.a.a.a.x.x.p.e.w.p.x.#.i #.x.x.#.@.#.+.} A % b #.@.@.@.@.@.@.J O O O   ",
"  O X p b.x.x.x.a.a.a.a.a.a.a.a.p.y.w.u.p.p.x.p.x.x.p.x.a.a.a.a.a.a.a.a.a.a.a.a.a.a.a.a.a.a.a.a.a.a.a.a.a.a.a.7.v w.x.8.#.+._ a : O : W #.@.@.@.@.@.#.W % o O   ",
"  O o w j.p.y.e.y.i.p.x.x.x.a.a.y.@.+.6.p.x.p.x.x.p.x.p.a.a.a.a.a.a.a.a.a.a.a.a.a.a.a.a.a.a.a.a.a.a.a.a.a.a.a.@.+.x.#.@.+.H * o O i W #.@.@.@.@.@.@.#.' : o O   ",
"  O o < q.6.@.@.@.#.7.e.p.x.a.a.y.#.@.7.a.x.p.x.x.x.x.p.x.x.x.p.a.a.a.a.a.a.a.a.a.a.a.a.p.p.i.i.a.a.a.a.a.a.p.>.u.8.@.#.W % O # b o.} } o.@.@.@.@.@.@.' ; o O   ",
"  O O - [ >.@.@.@.@.@.@.6.e.p.x.p.y.6.O.>.0.i.x.x.x.x.x.x.x.x.x.a.a.i.i.a.a.a.p.i.e.w.#.#.#.#.#.7.y.a.a.a.a.p.u.w.@.@.+.a o o i O.@.` W } #.@.@.@.@.@.' ; o O   ",
"  O o X G 9.@.O.O.@.@.@.@.#.8.i.x.x.p.8.] H S S J W ' {  .] ' W E W } 7.u.e.w.#.@.@.@.#.@.@.@.+.@.@.w.p.a.a.a.y.@.@.@.+.i o o v #.+.o.} +.O.O.@.@.@.@.E % o O   ",
"  O o . i Q z y y h D ' O.@.@.#.e.p.p.x.x.i.0.@.' J H D D H E ] @.>.7.>.@.@.@.@.@.O.} Q ' } @.@.@.@.#.y.a.a.p.#.@.@.@.@.b O X i O.#.#.@.o.W W  .@.@.#.F O o O   ",
"    o . O % o o o o O ; p R +.@.@.0.p.x.p.p.x.x.x.x.x.x.x.x.x.i.w.@.@.@.@.@.} H z w : % % 4 c } @.@.@.w.a.a.w.@.@.@.@.#.W % X % W #.+.#. .W W } @.@.@.v o O O   ",
"    . X O O O % % % O o o % p ' @.@.8.p.x.x.x.p.x.x.x.x.x.x.e.>.@.@.@.} H i : O o o O O o O o 6 ' @.@.#.p.p.#.@.@.@.@.@.+.a O O p o.#.+.+.} ' +.@.#.O.y o O     ",
"    . X O O % 6 6 6 : % O o O 2 D O.O.w.p.a.a.a.a.a.a.a.p.e.#.#.+.W v < O o o O % % & 2 * % O X p +.@.#.p.u.#.@.@.@.@.@.@.} w O % H @.@.@.@.@.@.@.@.' : o o     ",
"      O O O : 6 6 6 6 6 4 % O O O a } @.w.a.a.a.a.a.a.a.y.#.@.W a ; o o O # % 2 5 6 6 6 q : O O % _ #.#.p.y.@.@.@.@.@.@.@.@.} i O 5  .@.@.@.@.@.@.@.H O O O     ",
"      O O O 4 6 6 6 6 6 6 6 % O O O y } #.u.a.a.a.a.a.a.w.o.b % o O O % : 6 6 6 6 6 6 6 q 6 O O O H @.#.p.y.#.@.@.+.@.@.@.@.@.} 5 O J @.@.@.@.@.@.@.i o O o     ",
"      O O O 2 6 6 6 6 6 6 6 6 2 O o o p o.e.a.a.a.a.a.a.7.a O O O % < 6 6 6 6 6 6 6 6 6 6 6 % O O S #.#.a.u.#.#.@.@.@.@.@.O.+.+.i % J #.@.@.@.@.#.W % o O       ",
"      O O O & 6 6 6 6 6 6 6 q 6 4 O O O J w.p.a.a.p.a.a.O.% O O % 6 6 6 6 6 6 6 6 6 6 6 6 6 % O O S @.w.a.i.#.#.@.@.@.@.o.W W  .q : ] @.@.@.@.@.+.p o O o       ",
"      O O O % 4 5 6 6 6 6 6 6 6 6 % O O b w.p.a.e.y.a.a.o.O O O * 2 5 6 6 6 6 6 6 6 6 6 6 5 O O O J @.y.a.a.#.@.@.@.@.@.} E W F ; A @.@.@.@.@.@.J % O o         ",
"      X O O O % 2 5 2 5 6 6 5 5 2 O O O H p.a.a.i.p.a.x.w.: O O % : < < 5 6 6 6 6 6 6 6 6 & O X 6  .#.p.a.a.e.@.@.@.@.@.O.} J 6 z +.@.@.@.@.@.' 5 o O O         ",
"      X O O O O O % & * & 2 % % O O X q #.i.y.p.a.a.x.a.p.J O O O % & : * : 2 5 5 5 6 5 : % o O D @.y.a.a.a.i.#.@.@.@.@.@.W p S +.@.@.@.@.@. .i o O o           ",
"      o X % % X O O O O % O O O O O y } H i w c v A  .p.a.u.D O X O O % % : : 2 : : : & O o o y  .7.p.a.a.a.p.w.@.@.@.O.J a } +.@.@.@.@.@. .i o O O             ",
"    o O o i J w % O O o o o O : p W w.v X O % o O O % W a.a.u.W 5 O X O O # % % & % % # o o 5 Q #.i.a.a.a.p.p.i.#.O.} H E o.@.@.@.@.@.@.W w O o o               ",
"      O X p i.w.o.J A v b F _ #.u.x.O.% O 5 6 : 6 : O q e.p.a.a.7.D 6 % X X o O O O o o # u ' 7.i.a.a.a.a.a.a.p.#.} } o.@.@.@.@.@.@.] n : o O O                 ",
"      O o 5 8.x.a.a.a.p.p.a.a.x.a.x.W O % 6 6 6 q 5 O < w.p.a.a.a.p.8.W b y < - % - 5 i J +.w.p.a.a.a.a.a.a.a.a.#.#.+.@.@.@.@.@.' n 4 O o o o                   ",
"      O O O F a.a.a.w.i.a.a.a.a.a.a.@.% O 5 2 ; 6 & O y y.a.a.a.a.a.a.a.i.w.#.o. .o.@.w.w.i.a.a.a.a.a.a.a.a.a.a.e.@.+.@.@.O.E a : O o O O                       ",
"        O o ; ' a.a.y.p.a.a.a.a.a.a.p.J & % O O % O 4  .a.a.a.a.a.a.a.a.a.p.a.a.p.a.p.a.a.a.a.a.a.a.a.a.a.a.a.i.#.@.O.} A 6 % o o O o                           ",
"        o O X <  .a.a.i.u.a.y.y.a.a.a.p.#.W W J n H #.a.a.a.a.a.a.a.a.a.p.a.a.a.a.a.a.p.w.w.p.a.p.i.a.a.i.y.w.#.} D i % O O o O O                               ",
"          O O o : _ p.u.e.a.i.u.a.a.a.a.a.x.a.a.x.x.x.a.a.a.a.a.a.a.a.a.a.a.a.a.a.a.a.u.@.#.i.a.i.w.w.w.@.} D i ; O o O O O                                     ",
"            O o o ; ' a.a.a.a.a.a.a.a.a.a.a.a.a.a.a.a.a.a.a.a.a.a.a.a.a.a.a.a.a.a.a.a.p.y.u.a.u.#.O.W A y - O o O O O O                                         ",
"              O o X v i.a.a.a.a.a.a.a.a.a.a.a.a.a.a.a.a.a.a.a.a.a.a.a.a.a.a.a.a.a.a.a.a.a.a.p.6.} i % O o O O O O                                               ",
"                O X p i.a.a.a.a.p.a.a.a.a.p.a.a.i.p.a.a.a.a.a.a.a.a.a.a.a.a.a.a.a.a.p.a.a.a.i.#.a o O O O O                                                     ",
"                o o 5 8.a.a.a.7.O.a.a.a.a.a.a.p.} w.a.a.a.a.a.a.i.w.a.a.a.a.a.a.a.y.' u.a.a.u.} % o O O O O O                                                   ",
"                O o O W a.a.x.R c i.a.a.a.a.a.e.y } a.a.a.a.x.x.y.H 8.a.a.a.a.a.x.8.q  .e.u.8.c O O O o o O O                                                   ",
"                o O o < W #.' 5 2 } y.a.a.a.a.o.% H u.a.a.a.x.x.i.i R u.a.a.a.a.u.' % n +.@.F % O O , r 9 = O O                                                 ",
"                  O O o O : = o O % p  .e.#.' a O y J #.p.p.i.#.Q : i ' 6.y.w.W i : O % w i % o O d V I U V 9 O O                                               ",
"                    O O O o o O O O X < a q O O O O O w R } S < # O O % i b i # X X O O X X o O < U ( ^ I V m < o O                                             ",
"                        O O     O O O O o o O O o O O o % % O O O # O O o o o O O O : i 5 % O o s ^ Y Y U I U N % O o                                           ",
"                                  O O % O O O % % O X o X o O O = 9 > O O O O o o % w w : O O O 9 Y $.&.$.U K K j O O                                           ",
"                                  O O y % o 4 Q } H q % O O o X O O O o o o o o o O O % - : # X s &.! Y Y U K K M > O O                                         ",
"                                O O < a O O O 5 w p i 5 % O O 4 q O O 5 g p i i a z A H J i O O , P ! ( ^ I s > O O O O                                         ",
"                              o O O F a o O 5 : % % O O O O O } Q % O : i i w 5 < < : : - O O O = , - > - O O O X o O                                           ",
"                          O o % 5 b @.q X = v H F n z i 4 O % H n O O % % % % - ; ; O O O O O O O o o o 4 q u v q ; O O                                         ",
"                        O O o 5 } _ q O O o O % % % = % % o O O O O # q p a z p w < O O O O = > O O O z 6.z ; c W p O O O                                       ",
"                      o O O % O % % o o O , = = O % O % O O : i ; O O O O O O O o O = = = = > O O o O R ] : X O % O O O o O                                     ",
"                      o O - c h 6 % o O O 9 9 7 7 7 7 , O O v O.h O O = = = = = > > 7 7 8 8 = O - : o # O o : y 6 i D S O O                                     ",
"                      O O o % w w O o O O % O - = > > > O O - : - o O > 8 8 8 8 8 8 8 8 8 , O X v { i 4 q b  .>.#.6.7.o.< O O                                   ",
"                      O o O % ; % : ; O 1 3 * & # # # O O O o X O O O % = > > - > - = = - = O X g H W 6.0.7.6.6.6.6.6.O.5 o O                                   ",
"                        O o q W O.7.z o & 1 * * * * * * * & & & $ $ $ # # # + # O # # # + @ O O - H i.y.y.w.6.6.6.6.7.J # o                                     ",
"                          O O 5 b J q o O 0 % # # $ $ * * * * * 1 1 * * * * 1 * $ @ * * * + o X w 7.' J w.#.O.6.6.6.R : O O                                     ",
"                            O o X X O o f g.2.L k r < - % # # O + $ @ # $ $ $ $ $ @ # @ @ + O X ; 6 z 8.O.n @.6. .b ; X O                                       ",
"                                  O O X Z Z.z.5.4.<.-.&.=.:.T m k s s w e 0 e 0 e r s s e s s - X ; Q J : n J p : o o O                                         ",
"                                    O o ) Z.l.s.5.3.3.3.5.f.d.3.3.3.d.1.<.<.;.<.<.<.<./ I U U k - o % O O % O O o O                                             ",
"                                    o o l g.f.&.~ ~ <.1.1.3.3.3.1.3.3.1.3.3.1.1.3.3.1.! U L P U N e - % - > - X O                                               ",
"                                      O + 0 0 ; - - 0 K ( ! L l d C %.-.1.3.;.*./ C k k m C L V d , O - < r % O                                                 ",
"                                        O o X o ; S w % - # O X o O > f L L l 4 # # 0 : - ; : - O O O O o O o O                                                 ",
"                                      O o O O O - v n w # o O O O O o o O O o o O - n S u + o O O O O                                                           ",
"                                      O O # * # O o O O O O o + O O     O o # $ O O O O O O O o o O O o                                                         ",
"                                    o O O # $ $ $ # # + O O + O O O     O O $ * $ $ $ # # + O + + O O O                                                         ",
"                                    O O O O o O O O O O o O o O O O   O O o O O + O O O O O o O o O O O                                                         ",
"                                            O O O o o O O O o O         O O O O O O O O o O O O O o                                                             "
};
