/* XPM */
static char *w_8_left_resized[] = {
/* columns rows colors chars-per-pixel */
"80 80 161 2 ",
"   c None",
".  c #171614",
"X  c #181715",
"o  c #1A1917",
"O  c #1C1A18",
"+  c #211A16",
"@  c #221E1B",
"#  c #291E19",
"$  c #23211E",
"%  c #2D211C",
"&  c #32241D",
"*  c #1D1F20",
"=  c #1E2122",
"-  c #252422",
";  c #292623",
":  c #2D2925",
">  c #222729",
",  c #252A2D",
"<  c #2D2C2A",
"1  c #342721",
"2  c #312C27",
"3  c #3B2A22",
"4  c #322E29",
"5  c #35312C",
"6  c #3A342D",
"7  c #272D30",
"8  c #292E32",
"9  c #2E3032",
"0  c #323335",
"q  c #3A3631",
"w  c #3D3933",
"e  c #343739",
"r  c #393A3D",
"t  c #423D36",
"y  c #433F38",
"u  c #45413A",
"i  c #4A453D",
"p  c #4D483F",
"a  c #3A3D40",
"s  c #3E4145",
"d  c #424445",
"f  c #4E4941",
"g  c #444649",
"h  c #44494E",
"j  c #4E4F4F",
"k  c #534D44",
"l  c #514E49",
"z  c #565047",
"x  c #575249",
"c  c #5B544A",
"v  c #5F584E",
"b  c #474C53",
"n  c #494D52",
"m  c #4D5156",
"M  c #4E5359",
"N  c #555657",
"B  c #595650",
"V  c #5C5852",
"C  c #53565C",
"Z  c #585A5C",
"A  c #60594E",
"S  c #645D52",
"D  c #685F53",
"F  c #6A6256",
"G  c #6D6559",
"H  c #70675B",
"J  c #726A5D",
"K  c #545A62",
"L  c #5A5E65",
"P  c #595F68",
"I  c #5D636B",
"U  c #5F6770",
"Y  c #6E6962",
"T  c #61656D",
"R  c #696A6C",
"E  c #776E60",
"W  c #786F61",
"Q  c #7C7364",
"!  c #77726A",
"~  c #7B766E",
"^  c #646A72",
"/  c #686D76",
"(  c #686F79",
")  c #6B727C",
"_  c #7E7971",
"`  c #70767F",
"'  c #707274",
"]  c #807667",
"[  c #817768",
"{  c #847A6B",
"}  c #897E6E",
"|  c #817C73",
" . c #8A7F70",
".. c #8A806F",
"X. c #8D8272",
"o. c #868178",
"O. c #918675",
"+. c #948877",
"@. c #968A79",
"#. c #998D7B",
"$. c #9D917E",
"%. c #717780",
"&. c #747A84",
"*. c #777D88",
"=. c #797F8A",
"-. c #7B828D",
";. c #7E8590",
":. c #86888B",
">. c #848689",
",. c #908A81",
"<. c #969086",
"1. c #9F9380",
"2. c #9C958A",
"3. c #808793",
"4. c #838A96",
"5. c #868E9A",
"6. c #898F99",
"7. c #8B929D",
"8. c #A29683",
"9. c #A69985",
"0. c #A89B87",
"q. c #A2988A",
"w. c #AB9D89",
"e. c #AEA18C",
"r. c #B1A38F",
"t. c #ACA499",
"y. c #ACA394",
"u. c #B4A691",
"i. c #B7A893",
"p. c #BAAB96",
"a. c #B6AA99",
"s. c #BDAE99",
"d. c #BFB09A",
"f. c #9A9FAA",
"g. c #9298A3",
"h. c #9BA0A9",
"j. c #B7AFA3",
"k. c #B7B0A4",
"l. c #B9B1A5",
"z. c #BDB5A9",
"x. c #A2A7B0",
"c. c #A8AEB6",
"v. c #A3A9B2",
"b. c #C0B19B",
"n. c #C4B7A2",
"m. c #C6B8A4",
"M. c #C8BBA7",
"N. c #CABDAA",
"B. c #C1B9AC",
"V. c #C6BDB0",
"C. c #CCC0AE",
"Z. c #CDC3B5",
"A. c #D1C6B5",
"S. c #D5CBBD",
"D. c #D8CEBF",
"F. c #B7BAC0",
"G. c #C4C8CE",
"H. c #D7CEC0",
"J. c #D8CFC2",
"K. c #DAD1C3",
"L. c #C6CAD0",
/* pixels */
"                                                                                                                                                                ",
"                                                            O o O O o o O O o O O O O O o O O                                                                   ",
"                                                o O O o o X X X o o o O O O O O O O O O o o o O O O O O o                                                       ",
"                                        O O O o X X O @ , q f x S F G G J J J J G F A z f y 6 : - O O o o o O O O o                                             ",
"                                  O o O O o O $ w V _ 2.y.a.s.s.b.b.s.i.r.9.$.$.#.#.$.#.#.#.+...] J A f q : @ o o o O o O                                       ",
"                              O O O X O 4 c | t.V.Z.N.M.b.d.d.d.d.d.s.b.b.s.p.r.0.$.#.#.#.#.#.#.#.#.#.#.+.} J v t : O o o O o O                                 ",
"                        O O o o O < V ,.z.S.D.A.M.d.d.d.d.d.s.p.p.d.d.d.d.d.b.b.s.p.r.9.$.#.#.#.#.#.#.#.#.#.#.#.+.} G p < O o O O O                             ",
"                      O O O O u _ j.H.K.S.N.b.b.d.d.d.d.d.s.w.#.8.i.d.d.d.d.d.d.b.b.b.s.i.r.$.#.#.#.#.#.#.#.#.#.#.#.#.#.} F t $ o o O O                         ",
"                  O O X O g <.Z.K.K.S.N.b.b.b.b.b.b.b.b.b.b.$.#.#.r.b.b.b.s.b.b.s.b.s.b.b.b.s.r.9.$.#.#.#.#.#.#.#.#.#.#.#.#.+.Q u $ o X o                       ",
"                O o O 5 o.Z.K.K.D.N.b.b.b.b.b.p.w.i.b.b.b.b.r.$.e.s.d.b.s.b.b.s.b.s.s.b.s.b.s.b.d.i.e.$.#.#.#.#.#.#.#.#.#.#.#.#.@.J w @ o O O                   ",
"              O O o i t.K.K.K.A.b.b.b.b.b.9.Q z z A [ #.@.9.p.b.d.d.d.d.b.s.s.b.s.b.b.s.b.s.s.b.d.b.b.p.e.$.#.#.#.#.#.#.#.#.O.@.#.#.O.c $ o O O                 ",
"            O O o l z.K.K.D.Z.b.b.b.b.i.] A J @...i 3 t t y D $.s.d.d.d.b.s.b.s.b.b.s.b.s.b.b.s.d.d.d.b.b.d.r.9.#.#.#.#.#.} Q ..#.#.#.@.F ; o O O               ",
"          O O O f B.K.K.S.M.d.d.b.b.b.i.$.i.b.b.G 6 t 3 6 6 6 y +.b.s.b.s.b.s.b.s.b.b.s.b.b.s.b.d.d.d.d.d.d.b.p.r.$.#.#.#...[ O.#.#.#.#.$.F $ o O               ",
"        O O X w k.K.J.S.m.d.d.d.b.b.i.$.$.u.b.b.#.p 6 6 6 6 6 5 Q b.b.b.b.s.b.b.b.s.r.0.i.s.b.s.d.d.d.d.d.d.d.d.b.p.e.$.@.#.O.{ ..#.#.#.#.#.c o o O             ",
"        O X ; 2.K.K.S.n.d.d.d.d.b.b.b.u.e.e.@.$.b.9.D t 5 5 6 v 9.b.b.s.b.s.b.s.s.s.$.#.r.b.b.b.d.d.d.d.d.d.d.d.b.b.b.r.$.#.{ W Q O.#.#.#.#.+.u o O O           ",
"      O O X Y S.K.S.m.s.d.d.d.d.b.b.b.b.b.O.t p $.$.$.@.] ] @.u.b.s.s.b.s.b.s.b.b.s.s.u.b.b.s.b.d.d.d.d.d.d.d.d.d.b.b.b.i.$...Q { @.#.#.#.#.$.Q ; o O           ",
"      O o 5 k.K.S.m.d.d.d.d.d.d.p.i.e.w.8.X.v G { { } w.u.p.d.b.b.d.d.d.d.d.d.d.d.d.d.d.d.d.d.d.d.d.d.d.d.d.d.d.d.d.d.d.d.r.$.O.@.X.+.#.#.#.#.#.c o o o         ",
"    O O X Y K.H.M.d.d.d.d.d.d.p.9.X.[ Q J H G F v x k z z c S H { @.e.p.d.b.d.d.d.d.d.d.d.d.d.d.d.d.d.d.d.d.d.d.d.d.d.d.d.d.9.#.#.[ J #.#.#.#.#...6 o O         ",
"    O O - t.K.C.d.d.d.d.d.d.d.d.d.s.d.d.d.d.d.s.s.p.a.u.w.8.+.{ J F c A J ..e.i.d.d.d.d.d.d.d.d.d.d.d.d.b.d.b.d.d.d.d.d.d.b.r.#.#...z +.#.#.#.#.$.S O O O       ",
"    O X y Z.S.b.d.d.d.d.d.d.d.d.d.d.d.d.d.d.d.d.d.d.d.d.b.b.b.b.d.s.u.e.#...Q ~ #.u.d.d.d.d.d.d.d.d.d.d.b.r.r.b.d.d.d.d.d.b.r.#.#...u ..#.#.#.#.#...2 o O       ",
"  O o X Z D.M.b.d.d.d.d.d.d.d.d.d.d.d.d.d.d.d.d.d.d.d.d.d.d.d.d.d.d.d.d.d.d.d.a.e.e.d.d.d.d.d.d.d.d.b.d.p.r.[ p.b.d.d.d.d.b.r.#.#.O.w W #.#.#.#.#.#.z X O O     ",
"  o O o ! S.b.b.d.d.d.d.d.d.d.d.d.d.d.d.d.d.d.d.d.d.d.d.d.d.d.d.d.d.d.d.d.d.d.d.d.d.d.d.d.d.d.d.d.d.s.0.$.u.W ] d.d.d.d.d.p.$.#.#.+.w F #.#.#.#.#.#.J @ O o     ",
"  O O o | A.b.s.d.d.d.d.d.d.d.d.d.d.d.d.d.d.d.d.d.d.d.d.d.d.d.d.d.d.d.d.d.d.d.d.d.d.d.d.d.d.d.d.d.d.u.$.#.e.9.u #.b.b.d.d.r.$.#.#.O.6 S #.#.@.#.#.#...< X O     ",
"  o o X | N.d.b.d.d.d.d.d.d.d.d.d.d.p.s.d.d.d.d.d.d.d.d.d.d.d.d.d.d.d.d.d.d.d.d.d.d.d.d.d.d.d.d.d.d.p.9.$.i.b.H z u.b.b.r.$.#.#.$...: D #.#.#.#.#.#.@.t X O     ",
"  o O o ~ M.p.a.i.s.d.d.d.d.d.d.d.e.8.9.p.d.d.d.d.d.d.d.d.d.d.d.d.d.d.d.d.d.d.d.d.d.d.d.d.d.d.d.d.d.d.d.s.d.d.8.t 0.b.u.$.#.#.X.W i $ J $.#.#.#.#.#.@.k o O O   ",
"  O o o H a.1.$.$.8.w.i.d.b.d.d.p.$.@.#.u.d.d.d.d.d.d.d.d.d.d.d.d.d.d.d.d.d.d.d.d.d.d.d.d.d.d.d.d.d.d.d.d.d.d.@.J d.u.$.#.O.A 6 $ o u ..#.#.#.#.#.@.$.c o o O   ",
"    O o j q.#.#.#.#.#.#.9.i.d.d.d.w.$.$.i.b.b.d.b.d.d.d.d.d.d.d.d.s.d.d.d.d.d.d.d.d.d.d.d.d.d.d.d.d.d.d.d.d.s.@.u.r.$.#...u O o : D ..#.#.#.#.#.#.#.$.v o O o   ",
"    o X q 2.$.#.#.$.#.#.#.$.e.s.d.d.i.#.{ { @.w.i.p.d.d.b.b.b.d.d.s.i.i.d.d.d.d.p.i.e.e.9.1.9.9.e.s.d.d.d.d.i.e.u.$.$.@.p o o 6 [ +.....@.#.#.#.@.#.#.v o O O   ",
"    o X $ | J c z A Q X.$.#.#.8.i.b.d.d.e.O.J v x v S G J J J H J W ..0.u.e.e.8.$.$.#.#.#.#.#.@.$.8.i.d.d.d.s.i.$.@.#...2 o @ J $.O.Q [ @.$.#.#.#.#.#.k o o O   ",
"    o . o : O o o O $ 6 v } $.#.8.r.d.d.b.b.b.i.w.$.O.} { } X.@.1.9.9.$.$.#.#.$.#.@.O.X.O.#.#.#.#.#.9.d.d.d.s.$.#.#.$...< o @ Q #.#.O.+.+.X.O.$.#.#.@.u o O     ",
"    X . o o O O $ + o o o < F O.#.$.r.d.d.d.d.d.d.b.b.b.d.b.d.u.9.$.#.#.$.@...H c y 5 2 5 p W #.#.#.$.u.d.d.e.#.#.#.#.O.w X o F #.#.#.#.{ W { @.@.$.X.5 o O     ",
"      X O O @ 5 5 4 : $ O o O u { #.$.r.d.d.d.d.d.d.b.d.d.s.w.$.#.$.@.{ v t ; O O X X X X X $ F #.#.#.e.d.i.$.#.#.#.#.$.v o X t +.#.#.@.{ W [ @.#.$.Q $ o O     ",
"      o O O : 6 6 6 6 6 : O O O 4 J #.$.i.d.d.d.d.d.d.d.b.$.#.#.X.G i $ O X X O + $ % : $ @ o $ Q $.#.e.d.r.#.#.#.#.#.#...6 X $ H #.#.#.O...O.#.#.$.A O O o     ",
"      o O + : 6 6 6 6 6 6 2 @ O o $ D #.$.d.d.d.d.d.d.d.r.$.X.A 5 O o o @ $ ; 2 6 6 6 6 6 $ o o p $.+.e.s.e.#.#.#.#.#.#.#.Q < . 6 X.#.#.#.#.#.#.#.+.u o O o     ",
"      @ O O : 6 6 6 6 6 6 6 5 # O o $ H $.p.d.d.d.d.b.s.$.Q 5 O X o $ $ 4 6 6 6 6 6 6 6 6 : O X 6 O.#.e.d.8.#.#.#.#.@.#.#.#.Q 5 O F #.#.#.#.@.#.$.[ $ O O       ",
"      X O O ; 6 6 6 6 6 6 6 6 6 $ O O 6 X.r.d.d.d.d.b.d...4 O O $ ; 5 6 6 6 6 6 6 6 6 6 6 4 @ X 2 ..$.e.d.8.@.#.#.#.#.#.#.#.$.c o z #.#.#.#.#.#.#.x o O O       ",
"      O O O @ : 6 6 6 6 6 6 6 6 5 @ o @ W r.b.d.i.s.d.d.F o O O & 6 6 6 6 6 6 6 6 6 6 6 6 < O O 4 X.$.p.d.e.#.#.#.#.#.#.X...#.A O A #.#.#.#.#.#.{ : o O         ",
"      o O O O ; : 2 5 6 6 6 6 5 4 @ O O Q d.b.s.e.p.d.d.S o o = ; 2 6 6 6 6 6 6 6 6 6 6 6 - O X u @.8.s.s.e.#.#.#.#.#.O.Q W ..u ; { #.#.#.#.#.@.k o O O         ",
"      o X O O O $ ; & : : : ; ; O O o q $.n.b.b.b.b.d.b...@ O O $ < : 4 5 6 6 6 6 6 6 6 4 @ O @ G $.r.d.s.u.$.#.#.@.#.+.Q Q v $ F #.#.#.#.#.$.H $ o o           ",
"    O O O $ O O O O @ @ $ @ O O O o 5 ..O.W ..#.$.e.b.b.i.z O O @ $ : ; & 2 2 5 5 5 6 5 $ o X w O.8.s.d.s.s.$.#.#.#.#.#.+.F w G @.#.#.#.#.#.Q < o o o           ",
"    O O o c F 5 O O O X O . O O 5 F @.z $ O * $ - 5 [ d.b.e.p $ o o @ $ ; : : < : : & $ O o ; J $.i.d.d.d.d.e.$.#.#.#.+.D p Q $.#.#.#.#.#.[ 6 O O O             ",
"    O O X J s.1.Q A p u i p G X.e.d.F o $ 5 ; ; 2 O ; #.b.b.u.H 2 o o o O $ $ $ $ $ O o X $ F #.r.d.d.d.d.b.i.$.#.+.[ D J +.$.#.#.#.#.#.E 5 o o o               ",
"    O O X k s.d.b.s.p.i.p.d.d.b.b.u.t o 2 6 5 6 6 - o E b.b.b.d.$.v 5 @ X X X X X X o O 5 H $.e.s.d.d.d.d.d.b.$...Q Q O.#.#.#.#.#.#.X.v - o O O                 ",
"      O X ; @.d.b.i.u.d.b.b.d.d.b.p.i o 2 6 4 6 5 $ O Q b.b.d.d.d.s.8.Q c t 5 : : 5 i F O.w.p.d.d.d.d.d.d.d.b.$.X.@.#.#.#.#.#.#.X.F q O o O o                   ",
"      O O X u e.b.p.u.d.d.d.d.d.d.b.{ $ O - O : ; o w e.b.d.d.d.d.d.d.d.p.e.$.#.@.$.9.e.p.d.d.d.d.d.d.d.d.d.d.u.#.#.#.#.#.+.Q c 4 O O O O                       ",
"        O O X z u.b.d.i.s.s.u.s.d.d.p...p i t 2 4 p $.b.d.d.d.d.d.d.d.d.d.d.d.d.d.d.d.d.d.d.d.d.d.d.d.d.d.d.s.$.#.#.@...S t $ O o O O                           ",
"          O O O z e.b.$.p.p.r.s.d.d.d.b.d.p.u.$.$.b.b.d.d.d.d.d.d.d.d.d.d.d.d.d.d.d.s.e.e.d.d.d.b.d.s.s.p.i.$.@.~ D u $ O o O O O                               ",
"            O o O v d.d.d.b.d.d.d.d.d.d.b.b.b.n.b.d.d.d.d.d.d.d.d.d.d.d.d.d.d.d.d.d.u.$.1.s.d.p.i.e.e.$.@.Q A w $ O X o O O O                                   ",
"              O o 5 e.d.d.d.d.d.d.d.d.d.d.d.d.d.d.d.d.d.d.d.d.d.d.d.d.d.d.d.d.d.d.d.s.u.i.d.i.1.@...D i 5 $ o o o O O o                                         ",
"              O o ; 9.d.d.d.d.d.d.d.d.d.d.d.b.b.d.d.d.d.d.d.d.d.d.d.d.d.d.d.d.d.d.d.d.d.d.s.1.Q u $ O X o o o O                                                 ",
"              O o $ O.d.d.d.e.@.d.d.d.d.d.d.d.$.r.b.d.d.d.d.b.b.d.d.d.d.d.d.b.d.s.p.d.d.d.i.+.6 X X O O O                                                       ",
"              O O o v s.d.b...z p.b.d.d.d.d.p.c @.b.d.d.d.d.d.i.#.d.d.d.d.d.b.b.$.~ s.d.d.u.G @ O O O O o O                                                     ",
"                O X ; J 1.@.u < O.p.d.b.b.b.$.: Q d.b.b.b.d.b.r.p $.d.d.d.d.d.b...q #.u.u.+.6 X O X o o o O                                                     ",
"                O O X @ < $ o o ; c $.p.r.$.A O A #.p.b.b.b.b.$.6 Q u.d.d.d.u.$.c $ J +...i O O $ d n s < O O                                                   ",
"                  O O o o o o o o o w S p : O O = 5 J $.e.O.A t O q S @.$...p $ O O $ w 4 O o 7 I I K I M 7 o O                                                 ",
"                      o @     O O O o X O O O O O X = t y ; o X O o O 4 q $ O X O O O O o O o r I ( ( I I K 9 O O                                               ",
"                                O O ; @ o O X X o O o o o O O - < * o o o o O O $ y w $ O O X n &.( U I C K h $ o O                                             ",
"                                O O v ; X - c c q O o o O O O > > * O o O o O o $ < $ o o O O s I ^ ( ) U U ^ h @ O O                                           ",
"                              O X w H = O : S W E p 4 @ O o o O O O @ @ @ $ $ $ ; 4 t u q O o g -.%.) ( I b s 7 O O O                                           ",
"                          o o o $ ..S X O O X o @ - $ @ o = F x O O i S c z z z c v S z ; o o 7 M s m m a > O o O o                                             ",
"                        O O ; w Y e.y X $ v S z u q 4 $ o ; @.D O O @ = $ $ O O O O O o O X O @ = O o o o ; : o o O O                                           ",
"                    O o o O v +.S w = o O ; w y u t q ; o = u 4 o $ 5 w t t y w 2 O O o * * * O O o > S z u J H w o O o                                         ",
"                    o O $ O O ; O X O O = O o o o o o o O O O O o @ : 5 5 5 4 $ * O O * = = = * O O E e.6 o 4 p : X o O O                                       ",
"                    o o u x u ; O O O O e 8 , > > > > O O A Q 5 o O * O O o O * = = = , 8 = O O o O f f * O O @ $ w w O o                                       ",
"                    O O O < w ; X O O O - - > , , 8 , O O u c 4 o O , , , > 7 7 7 7 8 8 8 = o 4 k - o o - c ] W } $.{ - O                                       ",
"                    O o $ < - ; i 5 O % % @ @ O O O @ O O O X O O * , 7 7 7 7 7 7 7 7 7 , O o f @.D S E  .8.9.9.8.9.@.5 o O                                     ",
"                    O o : J #.8.u.z O 1 3 3 1 & & % % @ @ @ O @ O O O @ O O = @ * @ O O + O O : f X.s.p.e.8.8.8.8.8.} - o o                                     ",
"                      O o % p G { w O O @ $ % % % & & 1 & & & & & % 1 # & % # # # # & # + @ o $  .i.@.8.u.1.8.8.9.+.u O O                                       ",
"                        O o o o O O o d >.I a , $ @ @ @ # # # & & & & & & & & # # 1 & # + + o - Y k H u.] } 9.8.} t O o                                         ",
"                                O O O R G.c.;.-.) T N K l r < ; - @ @ @ # @ @ @ @ @ @ = - - @ O @ D w.F i O.] k - O O                                           ",
"                                  O O :.G.v.g.7.5.5.5.f.v.6.-.&.*.*.( / ^ T ^ ^ / ^ C K K K a O O w y O 4 q @ X O O                                             ",
"                                  O O ' z.h.;.-.3.5.4.4.5.5.5.5.7.7.6.5.6.6.5.5.6.;.T P P T L g , O O O O o o O                                                 ",
"                                    o < N g e 0 0 K %.;.=.) T T =.3.3.4.4.;.4.-.%.^ L L P I L n r 9 e r < O O                                                   ",
"                                      o X X . ; w @ < e < = O @ 4 n ( *.%.P g 8 - - , e d d 4 @ O O = ; $ O                                                     ",
"                                      O O O o y 8.Q f ; o o O O o o - 8 ; O X X i E x 4 O O o O O O     o                                                       ",
"                                    O O @ + O @ 5 t q @ O O O O O   X o O O O O ; f f 4 O O o O O O                                                             ",
"                                    O O # & @ + O o X O O + O O O   O O O % # @ O O O X O + + + O O                                                             ",
"                                  O o O @ @ @ @ @ @ + O O O O O O   O O O # # # # @ @ + O O o O O O                                                             ",
"                                    O O O O o O O o O O O O O O     O O O O X O O O O O O O O O O O                                                             ",
"                                                                            O O O O O O                                                                         "
};
