/* XPM */
static char *w_15_left_resized[] = {
/* columns rows colors chars-per-pixel */
"80 80 153 2 ",
"   c None",
".  c #151513",
"X  c #181716",
"o  c #1A1917",
"O  c #1C1B19",
"+  c #221A16",
"@  c #221E1B",
"#  c #291E19",
"$  c #1F201F",
"%  c #23211E",
"&  c #2C211B",
"*  c #33241D",
"=  c #1F2121",
"-  c #252422",
";  c #292622",
":  c #2D2A25",
">  c #222628",
",  c #252A2C",
"<  c #2C2C2B",
"1  c #312C27",
"2  c #3F2C24",
"3  c #322E29",
"4  c #35322C",
"5  c #3A342D",
"6  c #272D30",
"7  c #292E31",
"8  c #2D3133",
"9  c #333334",
"0  c #3A3630",
"q  c #3D3933",
"w  c #363739",
"e  c #37383A",
"r  c #3B3B3A",
"t  c #413D36",
"y  c #433F38",
"u  c #46413A",
"i  c #4A453D",
"p  c #4E483F",
"a  c #50493F",
"s  c #3C3E41",
"d  c #3E4144",
"f  c #424343",
"g  c #4B4740",
"h  c #4E4941",
"j  c #434649",
"k  c #46494E",
"l  c #534D44",
"z  c #514E49",
"x  c #565047",
"c  c #585147",
"v  c #5A544A",
"b  c #5F584D",
"n  c #494D52",
"m  c #4E5156",
"M  c #4D5359",
"N  c #5C5852",
"B  c #51555A",
"V  c #53585F",
"C  c #615A4F",
"Z  c #645D52",
"A  c #676054",
"S  c #696155",
"D  c #6D6559",
"F  c #70675A",
"G  c #736A5D",
"H  c #565B63",
"J  c #5A5E65",
"K  c #595F68",
"L  c #5C6067",
"P  c #5C626B",
"I  c #6B6760",
"U  c #6D6861",
"Y  c #61656D",
"T  c #776E60",
"R  c #796F61",
"E  c #7C7364",
"W  c #7B756D",
"Q  c #606770",
"!  c #656B74",
"~  c #696D75",
"^  c #6C727C",
"/  c #797B7E",
"(  c #807667",
")  c #817768",
"_  c #847A6B",
"`  c #897E6E",
"'  c #827D74",
"]  c #897F70",
"[  c #8A806F",
"{  c #8D8272",
"}  c #89837B",
"|  c #918675",
" . c #948877",
".. c #968A79",
"X. c #998D7B",
"o. c #9D917E",
"O. c #6F7681",
"+. c #707781",
"@. c #747A85",
"#. c #787D85",
"$. c #757D88",
"%. c #787E89",
"&. c #7C838E",
"*. c #908A81",
"=. c #979187",
"-. c #9E9281",
";. c #9B9489",
":. c #808792",
">. c #828995",
",. c #898E96",
"<. c #868D99",
"1. c #888F9B",
"2. c #8D9094",
"3. c #8B929D",
"4. c #A29583",
"5. c #A69985",
"6. c #A89A87",
"7. c #A2998C",
"8. c #AB9D8A",
"9. c #AFA18D",
"0. c #B1A38F",
"q. c #A6A095",
"w. c #ABA294",
"e. c #AEA69A",
"r. c #B4A691",
"t. c #B7A893",
"y. c #BAAB96",
"u. c #B1A99E",
"i. c #BDAE99",
"p. c #BFB09A",
"a. c #8E95A1",
"s. c #9298A3",
"d. c #9CA0A6",
"f. c #A1A4A8",
"g. c #BAB2A6",
"h. c #BDB5A9",
"j. c #AFB3B9",
"k. c #B5B8BE",
"l. c #C0B19B",
"z. c #C4B6A1",
"x. c #C6B8A4",
"c. c #C0B8AC",
"v. c #C9BDAA",
"b. c #C8BFB1",
"n. c #CDC3B3",
"m. c #CEC6B9",
"M. c #D2C7B6",
"N. c #D4CABB",
"B. c #B6BAC0",
"V. c #BCC0C7",
"C. c #D6CEC0",
"Z. c #D9CFC0",
"A. c #DAD1C3",
/* pixels */
"                                                                                                                                                                ",
"                                                          o O O O O O O O O o O O O O O O O O                                                                   ",
"                                                O O O o o X X X X o O O O O O O O O o O X o o O O O O o o                                                       ",
"                                        O O O o X X o % < q g v Z S S D G G G G D A C v h y 5 : - O O o o o O O O o                                             ",
"                                  O O o X X + ; t N ' ;.e.y.i.i.l.i.y.t.9.4.o.o.X.X.X.X.X.....[ ) G C l 5 ; % o o O o O O                                       ",
"                              O O X X @ 0 N } u.n.m.v.z.l.p.p.p.p.p.p.p.p.i.t.9.5.o.X.X.X.X.X.X.X.X.X.X. .` G v t : O o o O o O                                 ",
"                        O o o o O 8 Z =.c.N.N.n.z.p.p.p.p.p.i.y.i.p.p.p.p.p.l.l.i.t.0.4.X.X.X.X.X.X.X.X.X.X.o.X...` D h : O o O O O                             ",
"                    O O o X - g } h.C.A.N.v.l.l.p.p.p.p.p.y.4.o.5.i.p.p.p.p.p.p.l.l.l.i.t.8.o.X.X.X.X.X.X.X.X.X.X.X.X...{ S t % o o O O                         ",
"                  O O o % v 7.m.A.A.M.v.l.l.l.l.l.l.l.l.l.0.X.X.o.i.p.p.p.p.p.l.p.p.p.p.l.i.i.0.o.o.X...X.X...X...X.X.X.X.o. .T u % o O O                       ",
"                O o O t =.N.A.A.N.v.l.l.l.l.l.y.9.l.l.l.l.l.6.4.0.l.p.p.p.p.p.i.p.p.p.p.l.i.i.l.l.r.9.o.X...o.X.X.X.X.X.X.X.X.X...G 5 O O O o                   ",
"              O o O N h.A.A.C.m.l.l.l.l.y.o.G c x D  .o.o.0.l.l.p.p.p.p.p.p.p.p.l.i.p.p.i.l.i.l.l.l.p.y.9.o.o...X.X.X...X... ...X.o.[ v % O O O                 ",
"            O O O U m.A.A.C.v.p.l.l.l.6.G C G X.G t t t t a R 8.p.p.p.p.l.i.p.p.p.p.p.p.l.i.l.l.p.l.p.p.l.p.0.o.X.X.X.X.X._ E { X.X.o...A % o O O               ",
"          O O O D m.A.A.N.z.l.i.y.l.l.6.o.t.l.0.a 2 5 5 5 5 5 l 8.l.i.l.p.p.p.p.p.l.l.l.l.l.l.i.p.p.p.p.p.p.p.p.0.o.X...X.[ _ | X.X.X.X.X.S % o O               ",
"        O O o v m.A.A.N.g.l.p.l.l.l.t.o.o.t.l.l.( t 5 5 5 5 5 5 ..l.p.l.p.p.p.p.i.i.8.8.i.i.i.l.p.p.p.p.p.p.p.p.l.y.6.o.X...{ _ [ X.X.X.X...x O O O             ",
"      O O O q g.A.A.N.l.i.p.p.p.l.l.l.8.8.8.o.r.y. .a 5 5 5 t Z 0.l.l.i.p.p.p.p.l.t.o.o.t.l.l.i.p.p.p.p.p.p.p.p.l.l.p.0.o..._ T E X.X.X.X.X.{ q o O O           ",
"      O O O *.A.A.m.l.i.l.p.l.i.l.l.l.l.l.G t F 5.o.o.` G R ..y.l.l.i.l.p.p.i.l.i.i.t.t.l.i.i.l.p.p.p.p.p.p.p.p.p.l.p.p.r.o.[ E _ ..X.X.X.X.o.E - o O           ",
"    O O X z m.A.N.l.l.p.p.p.p.p.i.y.t.9.8.) v E ` ` ..r.i.p.l.l.l.l.p.p.p.p.p.p.p.p.p.p.p.p.p.p.p.p.p.p.p.p.p.p.p.p.p.p.p.9.....X.[ ..X.X.X.X.X.c O O o         ",
"    o O O ;.A.N.z.i.p.p.p.p.p.t.o.` E G D A Z v l l l l x Z D E | -.r.i.l.p.p.p.p.p.p.p.p.p.p.p.p.p.p.p.p.p.p.p.p.p.p.p.p.p.5...o.E T X.X.X.X.X.[ 1 o O         ",
"    O o r b.A.v.p.p.p.p.p.p.p.i.y.y.y.i.y.i.i.y.y.t.0.8.4...` T A b b A E o.9.p.p.p.p.p.p.p.p.p.p.p.p.p.p.p.p.p.p.p.p.p.p.l.9...X.E c X.X.X.X...o.b $ X O       ",
"  O O X F A.n.p.p.p.p.p.p.p.p.p.p.p.l.p.p.p.p.p.l.l.i.l.p.l.l.l.p.y.0.-.{ E T [ o.t.p.p.p.p.p.p.p.p.p.p.p.9.t.l.p.p.p.p.p.l.0...X.[ u [ X.X.X.X.X.[ : X O       ",
"  O O O *.Z.z.p.p.p.p.p.p.p.p.p.p.p.p.p.p.p.p.p.p.p.p.p.p.p.p.p.p.p.p.p.l.l.i.0.9.9.p.p.p.i.p.p.p.p.l.p.i.6._ p.p.p.p.p.p.l.9...X.[ q E X.X.X.X.X.X.p O O O     ",
"  O O % q.M.p.p.p.p.p.p.p.p.p.p.p.p.p.p.p.p.p.p.p.p.p.p.i.p.p.p.p.p.p.p.p.p.p.p.p.p.p.p.p.p.p.p.p.p.i.6.o.r.D [ l.p.p.p.p.y.o...X.| 0 G o.X.X.X.X.X.G $ O o     ",
"  O O - e.v.p.p.p.p.p.p.i.p.p.p.p.p.p.p.p.p.p.p.l.p.p.p.l.p.p.p.p.p.p.p.p.p.p.p.p.p.p.p.p.p.p.p.p.p.0.o.o.9.X.i 5.l.p.p.p.9.o.o.X.[ 4 S X.X.X.X.X.X.[ : o X     ",
"  O O - e.x.p.p.p.p.p.p.p.p.p.p.p.p.i.p.p.p.p.p.i.p.p.p.p.p.l.i.p.p.p.p.p.p.p.p.p.p.p.p.p.p.p.p.p.p.y.o.o.y.p.C b y.l.p.0.o...X.o.[ & D X.X...X.X.X. .q X $     ",
"  o O - q.x.i.i.i.p.p.p.p.p.p.p.i.8.5.8.i.p.i.p.p.p.p.p.l.i.l.p.p.p.p.p.p.p.p.p.p.p.p.p.p.p.p.p.p.p.p.i.i.p.p.o.u 9.p.0.o.o...[ G u % R o...X.X.X.X.X.h o O O   ",
"  O o % ;.r.4.o.4.6.0.i.p.p.p.l.t.X.X.o.y.p.p.p.p.p.p.p.i.l.p.p.p.p.p.p.p.p.p.p.p.p.p.p.p.p.p.p.p.p.p.p.p.p.l.[ E p.0.o.o.[ C 4 % O i | X.X.X.X.X.X.X.v o o O   ",
"  O o O W 4.X.X.X.X.X.4.0.i.p.p.y.4.X.5.i.l.l.p.p.l.p.p.l.i.p.i.p.p.p.p.p.p.p.p.p.p.p.p.p.p.p.i.p.p.p.p.p.p.p.| r.0.o.o.[ q O X 1 A | ..X.X.X.X.X.X.o.b o O o   ",
"  o O o N 7.X.X.X.X.X.X.X.5.t.l.p.i.8.| ` ..8.t.i.l.l.l.z.l.l.z.p.p.i.i.p.p.p.p.i.t.9.9.5.5.5.9.r.p.p.p.p.p.r.0.0.o.X...i O O 5 _ .._ [ ..X.X.X.X.X.X.v o O O   ",
"    o . u =.E D D E { X.X.X.o.9.i.p.p.y.o.E Z v Z S T E ) ) E E E E [ 6.t.9.9.6.o.o.X.o.X...o...o.6.i.p.p.p.p.r.o...o._ ; X % T o.| E ( ..X.X.X.X.X.X.l o o O   ",
"    o . % 0 % O O % 4 l E ..X.X.5.y.p.l.l.p.y.8.X.] E T T R E { X.4.6.4.o.o.X.X.o.X.| | ..X.X.......6.p.p.p.y.o.X.X.X.[ ; O % E o...| ....[ ..X.X.X...u o O     ",
"    X . O X O O O O o O % p ) X.X.4.y.p.i.p.p.l.l.l.l.l.l.l.l.r.6.o...o.o...[ R b i q 4 q v _ o...o.o.t.p.p.9...X.X.o.[ 5 o $ S o......._ E _ X.X.X.{ 4 o O     ",
"    . X O O @ 3 4 : % O O o : Z ..X.4.y.l.p.p.p.p.p.l.p.p.i.8.-...X...[ S i : $ O o X o X o : F o...o.0.p.t.o.X.X.X...o.v o X u ....o..._ R ) ..X.X.) % o O     ",
"    . X O O * 5 5 5 5 3 % O X @ i [ o.o.i.p.p.p.p.p.p.p.l.o.X.X. .G p : $ X X o $ % & & $ O o 1 [ X.X.9.p.0.X.X.X.X.X.X.[ 3 X $ G X.X.X.| [ | X.X.X.A O O o     ",
"      $ O O 3 5 5 5 5 5 5 ; O o o 0 _ X.9.p.p.p.p.p.p.p.0.X.| A q $ o o o % & 1 3 5 5 5 5 $ O o a o.X.9.p.9.X.X.X.X.X.X.X.T 1 X 5 { X.X.X.X.X.X.X...u o O o     ",
"      $ O O 5 5 5 5 5 5 5 5 1 $ o o 0 [ o.i.p.p.p.p.i.y.o.( q O o O $ % 1 4 5 5 t 2 5 5 5 ; O o t  .X.9.p.o.X.X.X.X.X...X.X.E 1 o D X.X.X.X.X.X.o._ - o O       ",
"      O O O 1 5 5 5 5 5 5 5 5 1 $ o o a X.t.p.p.p.p.i.t.[ 1 X o $ & 3 4 5 5 5 5 5 5 5 5 5 1 O X 4 { X.r.p.o.X.X.X.X.X.X.X.X.o.v o x X.X...X.X.X.X.v O O O       ",
"      $ O O ; 4 5 5 5 5 5 5 5 5 1 O O : [ t.p.i.i.l.l.p.b o O $ : 5 5 5 5 5 5 5 5 5 5 5 5 1 O X 5 | o.p.p.9.X.X.X.X.X.X.{ [ X.C o v o.X.X.X.X.o._ 1 o O         ",
"    . X O O @ ; 1 5 5 5 5 5 5 5 1 O X ; [ i.p.y.o.l.p.p.a o O $ : 3 5 5 5 5 5 5 5 5 5 5 5 & o X i ..o.p.i.9.X.X.X.X.X.| E E [ u ; ) X.X.X.X.X.X.x O O o         ",
"    X X O o o @ ; ; * : 1 1 : ; $ O X q 9.l.l.p.i.p.p.p.R O O O & : : 3 5 5 5 5 5 5 5 5 3 $ O % D o.r.p.i.r.o.X.X.X.X.| E E Z ; Z X.X.X.X.X.X.G % o O           ",
"    $ X X O o o @ % % % ; % O O X o 1 [ o...o.9.0.y.l.l.o.q o o $ & : : * 1 3 5 3 5 5 3 % $ o 0 { o.i.p.i.y.o.X.X.X.X.X.| F 0 Z ..X.X.X.X.X._ 4 O O O           ",
"    O o O c u O X O X O o X O O : a { C : $ : 4 4 a o.p.p.X.y $ O $ $ % & : : 1 1 1 : % $ . % G X.t.p.p.p.p.9.o.X.X.X.| F a R X.X.X.X.X.X.` q o O O             ",
"    O o $ [ 6._ c q 3 : 3 0 a T o.i.A o $ 1 % $ ; X q 9.l.l.o.a $ o o O $ $ % & % % $ $ X $ C X.9.p.p.p.p.p.t.o.X. .[ A S { X.X.X.X.X.X.E 5 o o o               ",
"    O O O T l.p.y.r.0.o.o.t.i.l.l.r.4 O 1 5 5 5 5 @ $ { l.l.l.y.[ i & $ X X X $ o $ . X 1 A X.9.p.p.p.p.p.p.p.o.{ E E { X.X.X.X.X.X. .S < o O O                 ",
"    O O o u 0.l.p.y.i.l.z.l.l.p.l.9.4 O 3 5 3 5 5 % O | l.l.p.l.p.r.{ Z u 3 & % % % q v [ 5.r.i.p.p.p.p.p.p.z.o.{ | X.X.X.X.X.X.{ G t O o O o                   ",
"      O O O G p.l.t.0.i.i.i.l.p.i.i.C X % ; % 1 ; o 5 o.p.p.p.p.i.p.p.y.9.o.{ [ [ { o.9.r.i.l.p.p.p.p.p.p.p.p.r.X.X.X.X.X.X.[ C 0 O O O O                       ",
"        o o - ) i.i.i.i.p.i.y.i.p.p.0.A 5 1 : @ $ t | p.p.p.p.p.p.p.p.p.p.l.p.p.i.i.i.p.l.l.p.p.p.p.p.p.p.p.p.o.X.X.X.[ F i : o o O O o                         ",
"        O O o ; _ i.l.o.i.y.9.i.p.p.l.p.y.o.o. ...0.p.p.p.p.p.p.p.p.p.p.p.p.p.p.p.p.i.r.r.p.l.p.p.p.p.p.i.t.9.X.[ F p 1 $ X o o O                               ",
"          o O O % [ l.i.p.i.i.p.p.p.l.l.l.l.l.l.l.p.p.p.p.p.p.p.p.p.p.p.p.p.p.p.p.p.r.X.o.y.p.i.t.t.r.o.X.[ A u : $ X O X o $                                   ",
"            O O X u t.p.p.p.p.p.p.p.p.p.p.p.l.l.l.p.p.p.p.p.p.p.p.p.p.p.p.p.p.p.p.p.i.9.r.p.y.o.X.{ T v q ; O X o O O o                                         ",
"              O o 5 0.l.p.p.p.p.p.p.p.p.p.p.l.z.l.l.p.p.p.p.p.p.p.p.p.p.p.p.p.p.p.p.p.p.p.i.5.[ a 4 % O o o O O O                                               ",
"              o O < 5.l.p.l.t.6.p.p.p.p.p.p.p.o.y.p.p.p.p.p.p.p.p.p.p.p.p.p.p.p.i.i.p.p.p.r. .u X o O O O O                                                     ",
"              O O O ) l.p.l.{ S p.p.p.p.p.p.y.A o.l.p.p.p.p.p.t.5.p.p.p.p.p.p.p.9.[ p.l.l.r.T % O o O O O O                                                     ",
"              O O o q ..t.9.p q o.z.l.p.p.p.o.1 { l.p.p.p.p.l.t.b 9.i.i.p.p.p.l.[ t o.t.t.o.u X O X $ $ . $                                                     ",
"                o O o 3 u 4 O $ u ( t.p.y.r.F $ R o.p.p.p.p.x.o.0 _ t.p.p.p.i.0.A % E o...c $ o $ 0 d s $ . $                                                   ",
"                  O O o o o o O X $ a [ S t % O 1 a { 0.t.o.[ c % p E 5.9.X.Z 5 % $ 1 p t $ O % M L H L V 7 $ $                                                 ",
"                      o o O   o O O $ $ o o X $ O O : v C 5 O o X o $ t p 3 X X X O X X o O o 9 P ^ ^ L H M < X O                                               ",
"                                o O $ O o O o o o $ o o $ X $ $ - $ X o X o $ X $ 4 4 $ O X o k @.! P K H L k O o O                                             ",
"                                O o : : o O : 1 % o o o X . $ ; 6 $ $ o o o o o % 3 ; O X O O d P ! +.+.Q P P d O O                                             ",
"                                o o ; % o ; T | R i % $ X X X $ O o $ o o $ $ O % & 4 t 5 $ X k &.O.! Q L M n d O O O                                           ",
"                                X $ 5 $ o O % : 5 0 3 % X $ t a $ o 5 v c c a a v C S C 0 O o 8 M M L L k 8 $ o O O O                                           ",
"                            O o X 5 a o O 5 u 3 ; % % $ o o E { % X $ 3 1 & ; % $ $ O O o o O $ = = o X o O O o o O                                             ",
"                          O O - 0 ( a $ O u b C b a u 5 $ o a c $ $ : 1 3 5 0 0 < $ O o O o $ O o o , z u l A u - o O                                           ",
"                        O O O b  .C $ X O X O $ O $ $ O X o o o X $ : q y y q 3 = $ O O = = = O o ; { o.: % v A : o o o                                         ",
"                      O O O O @ ; O X $ , < $ $ $ $ $ $ $ 3 C 0 o X $ . $ . . $ O = = 6 = = O o o ; G g o o o o O - % o O                                       ",
"                      O o 4 l t < O o O ; 7 , 7 7 7 6 = X t ) l O O = > > > > , , 6 7 7 , O O u 5 O X X - l v l S ` u o O                                       ",
"                      O O O 3 u 4 O o @ + + O $ = - - = o O @ O O O > 6 7 7 7 7 6 7 7 7 > o % _ ) l l Z ` 4.4.5.5.5.D O O                                       ",
"                      O O O - % % % O & t * & & # # + + + O O O O O % O = $ $ = O = O = O X O y Z 5.y.t.6.5.4.4.4.5.A O o                                       ",
"                        O O u _ X.G O % & * 1 * ; * * * * * * ; & & & & & & # @ @ # & & # O o l 9.r.X.t.4.4.4.4.5.{ 4 o O                                       ",
"                        o O O q C p o O f r ; @ O # # # # * * * * * * * * * * & # * * & # X O Z T v X.8.) 4.4.4._ 0 O O                                         ",
"                            O o X o o < f.j.#.P B j w 0 8 ; @ + + # @ + # @ @ + @ @ # @ @ O o @ t X.o.h E o._ v ; o O                                           ",
"                                  O o r k.V.s.a.<.<.:.<.f.,.~ Q Y J V B B m B B H J V n M j @ O q N : 4 x q & O o O                                             ",
"                                  o o f k.B.s.3.:.<.<.<.3.1.1.1.<.s.3.<.<.<.<.<.<.<.^ Y P P k > O o O O O X O O                                                 ",
"                                    o - / 2.~ H B ! &.:.<.>.:.#.&.<.&.>.<.:.:.<.:.%.! K J P Y B 9 - = , r - o O                                                 ",
"                                      o % - O O - % e V B s 0 > 9 B ^ &.:.%.! m w < < e j n s : O O O - , O O                                                   ",
"                                      O o o O @ Z v ; O o o o o X O - e d < O O O h g : O O O o o o O   o                                                       ",
"                                    O O O # O O % ; @ O o o O o O O O o o O @ O O 1 5 ; O O O o O O O                                                           ",
"                                    O O @ * & @ + O O O O + + o O     O O # * # @ O O O O o + + O O O                                                           ",
"                                    o O O O @ + @ @ + O O O O o O     O O O # @ # @ + # O O + o O O O                                                           ",
"                                      O O O O O O O O O O O O O O     O O O O O O O O O O O O O O O                                                             ",
"                                                                                                                                                                "
};
