/* XPM */
static char *w_16_left_resized[] = {
/* columns rows colors chars-per-pixel */
"80 80 152 2 ",
"   c None",
".  c #171614",
"X  c #181715",
"o  c #1A1917",
"O  c #1B1A18",
"+  c #201916",
"@  c #221E1B",
"#  c #291F1A",
"$  c #1F201F",
"%  c #23211E",
"&  c #2C211C",
"*  c #33241D",
"=  c #1F2121",
"-  c #242422",
";  c #292622",
":  c #2D2925",
">  c #252A2C",
",  c #2C2B29",
"<  c #322620",
"1  c #332A25",
"2  c #392821",
"3  c #332E29",
"4  c #35312C",
"5  c #3A342D",
"6  c #272D30",
"7  c #292E32",
"8  c #2D3235",
"9  c #323333",
"0  c #3A3630",
"q  c #3D3933",
"w  c #363739",
"e  c #37393B",
"r  c #3B3B3B",
"t  c #423D36",
"y  c #433F38",
"u  c #46413A",
"i  c #4A453D",
"p  c #4D483F",
"a  c #50493F",
"s  c #3D3F41",
"d  c #3E4144",
"f  c #414346",
"g  c #494642",
"h  c #4E4941",
"j  c #434549",
"k  c #45484C",
"l  c #494B4D",
"z  c #524C43",
"x  c #565047",
"c  c #57524A",
"v  c #5B544A",
"b  c #5F584D",
"n  c #464B51",
"m  c #494D52",
"M  c #4D5157",
"N  c #4D535B",
"B  c #5F5B55",
"V  c #51555B",
"C  c #615A4F",
"Z  c #655D52",
"A  c #635F58",
"S  c #676054",
"D  c #6A6256",
"F  c #66625B",
"G  c #6D6559",
"H  c #70675B",
"J  c #726A5D",
"K  c #555B63",
"L  c #595D63",
"P  c #5C6067",
"I  c #5C626B",
"U  c #5E6670",
"Y  c #6B6760",
"T  c #63676F",
"R  c #756E62",
"E  c #786F61",
"W  c #7C7364",
"Q  c #76726A",
"!  c #7D7569",
"~  c #636A73",
"^  c #6A6E76",
"/  c #666E78",
"(  c #6B727C",
")  c #7D7870",
"_  c #70767F",
"`  c #807667",
"'  c #817768",
"]  c #857A6B",
"[  c #897E6E",
"{  c #847F76",
"}  c #8A806F",
"|  c #8D8272",
" . c #868178",
".. c #8E887F",
"X. c #918675",
"o. c #948877",
"O. c #90877A",
"+. c #968A79",
"@. c #998D7B",
"#. c #9D917F",
"$. c #727883",
"%. c #787E87",
"&. c #787E89",
"*. c #7C828C",
"=. c #7E8590",
"-. c #8F8980",
";. c #86898C",
":. c #938D83",
">. c #9E9281",
",. c #808793",
"<. c #838A96",
"1. c #8B8F93",
"2. c #868D99",
"3. c #888F9A",
"4. c #8C939E",
"5. c #A29683",
"6. c #A69986",
"7. c #A89B87",
"8. c #AA9D89",
"9. c #AEA18C",
"0. c #B1A38F",
"q. c #ACA59A",
"w. c #B4A691",
"e. c #B7A893",
"r. c #BAAB96",
"t. c #BDAF99",
"y. c #BFB09A",
"u. c #8E95A0",
"i. c #9197A2",
"p. c #949AA5",
"a. c #9B9EA2",
"s. c #9EA2A8",
"d. c #A0A3A7",
"f. c #B4ADA0",
"g. c #B8B0A4",
"h. c #B0B5BD",
"j. c #C0B19B",
"k. c #C3B5A1",
"l. c #C7B9A6",
"z. c #C8BBA7",
"x. c #C4BAAC",
"c. c #CABDAB",
"v. c #CEC3B3",
"b. c #CFC7B9",
"n. c #D1C6B5",
"m. c #D0C7BA",
"M. c #D4CBBC",
"N. c #B6BBC3",
"B. c #BEC1C7",
"V. c #C1C5CB",
"C. c #D7CEC0",
"Z. c #DAD1C3",
/* pixels */
"                                                                                                                                                                ",
"                                                                  O O O O O O O O O o O O                                                                       ",
"                                                    O O O O O O o X o O o X o X X o o o o O o O O O O O                                                         ",
"                                            O O O o X X o O - , 5 q t u p z z h p i y q 4 : ; O O o o o o o O O O                                               ",
"                                      O O O o o O : u B ! O.>.8.0.0.9.6.5.#.@.@.@.+.+.o.X.} ] E D b i 0 : O o o o o o o O                                       ",
"                                O O O X o - y Y :.f.x.z.l.j.j.j.y.y.j.y.r.e.9.6.#.@.@.@.@.@.@.@.@.@.@.X.[ W C i 4 % o X o O O                                   ",
"                          O O o X X ; g ) q.v.M.n.z.j.y.t.y.y.t.y.y.y.y.y.y.y.t.e.0.7.#.@.@.@.@.@.@.@.@.@.@.#.@.| ! C t ; O o o O O                             ",
"                      o O O o O w Q q.m.Z.M.c.j.j.y.y.y.y.t.0.6.9.t.y.y.y.y.y.y.j.j.j.r.0.5.#.+.@.@.@.@.@.@.@.@.@.@.@.o.! C 0 O o o O O                         ",
"                    O o X = g -.c.Z.Z.M.c.j.j.j.j.j.j.j.j.r.@.@.#.e.j.j.j.y.y.t.j.y.y.j.j.j.e.8.#.@.@.@.+.@.@.@.@.@.@.@.@.@.X.H t % o o o                       ",
"                  O O O y :.b.Z.Z.M.c.j.j.j.j.j.j.j.j.j.j.r.5.@.6.r.y.y.t.y.y.y.y.y.j.t.r.j.j.j.j.e.#.@.@.@.@.@.@.@.@.@.@.@.@.@.o.G 4 O o O o                   ",
"              O O o % Y x.Z.Z.C.c.j.j.j.j.j.8.] H | 0.r.r.j.r.r.r.y.y.y.y.y.y.y.t.j.t.j.j.j.j.j.j.j.r.e.8.#.+.+.@.@.+.@.@.+.o.@.@.#.} x % o o o                 ",
"            O o o ;  .M.Z.Z.M.z.j.e.j.j.#.D z Z J i i C C D @.r.j.y.y.y.j.t.y.y.j.t.j.t.r.j.j.r.j.j.j.j.j.r.9.#.@.@.@.@.@.} W } +.#.#.+.D : o o O               ",
"            O o ; ..C.Z.Z.n.k.y.j.j.j.8.] X.8.e.H 2 5 5 5 5 5 Z 9.j.t.j.y.y.t.j.t.j.j.j.j.r.j.j.t.j.t.j.t.j.j.r.9.#.+.+.@.} ` } #.+.#.+.@.G % O O               ",
"          O O % { C.Z.Z.v.k.y.y.j.j.j.6.#.e.j.j.H t 5 5 5 5 5 5 ] j.y.y.t.y.y.y.j.t.w.0.r.j.j.j.j.t.r.j.j.t.t.j.j.r.8.#.@.@.X.[ } +.+.#.@.@.C O o O             ",
"        O O O Y M.C.Z.v.y.y.y.y.j.j.j.#.#.w.w.j.w.` t 5 5 5 5 y +.j.j.j.j.y.y.y.t.r.5.@.w.j.j.r.j.t.j.j.t.j.t.j.j.j.t.0.#.+.[ E W o.@.@.@.@.o.u o o O           ",
"      O O O r g.Z.C.v.y.y.y.y.y.j.j.j.e.j.@.C ` 0.6.| Z a a Z @.r.j.j.t.y.y.t.j.j.r.0.0.r.j.j.j.t.j.t.j.j.t.j.t.j.t.j.j.e.#.} W ` o.@.@.@.@.#.] , o O O         ",
"      O o O :.Z.Z.v.j.y.y.y.y.y.y.j.j.j.j.o.i C @.@.5.e.e.e.t.j.y.t.y.t.y.y.y.y.y.y.y.y.j.t.y.j.j.j.j.j.t.j.t.j.t.j.r.j.j.0.@.o.+.X.X.@.@.@.@.@.Z $ o o         ",
"      O o g v.Z.n.j.y.y.y.y.y.t.9.>.| ' W G v v c c v H W ] X.5.9.r.y.j.j.j.y.t.y.y.y.y.y.y.y.t.j.r.j.t.j.t.j.t.r.j.j.j.j.r.6.@.@.} J @.@.@.@.@.X.q o O O       ",
"    O o O  .Z.M.k.y.y.y.y.y.y.r.9.5.5.>.>.#.5.@.@.X.| ' E G Z b c b S W @.9.t.t.j.y.j.y.y.y.y.y.j.j.t.j.j.j.j.j.j.t.j.t.j.j.0.@.@.} x X.@.@.@.@.@.J % o O       ",
"    O o , g.Z.z.y.y.y.y.y.y.y.y.y.j.j.j.j.j.j.j.j.j.j.j.j.j.t.e.0.6.o.} J G E X.9.t.t.y.y.y.y.y.t.j.r.j.j.e.w.j.j.j.t.j.j.j.e.#.@.X.u W @.@.@.@.@.X.q o o O     ",
"    O X h b.v.j.y.y.y.y.y.y.y.y.y.y.y.y.j.y.y.y.y.y.y.y.y.y.y.y.t.j.j.j.y.r.0.#.@.9.e.t.y.y.y.y.j.t.j.j.j.w.} r.j.j.r.j.j.j.0.@.@.+.u D @.@.@.+.@.@.Z $ o o     ",
"  O O X F C.l.y.y.y.y.y.y.y.y.y.y.y.y.y.y.y.y.y.y.y.y.y.y.y.y.y.y.y.y.j.y.j.j.j.t.t.t.t.y.y.y.y.t.j.j.e.#.w.` ` r.j.j.j.r.j.8.@.@.+.i v @.@.@.@.@.@.} & o o     ",
"  O O X R M.j.y.y.y.y.y.y.y.y.y.y.y.y.y.y.y.y.y.y.y.y.y.y.y.y.y.y.y.y.y.y.y.y.y.y.y.y.y.y.y.y.y.j.j.r.#.@.#.9.i o.j.j.j.j.e.#.@.@.@.i p @.@.@.@.@.@.+.u o $     ",
"  O O O Q v.y.y.y.y.y.y.y.y.y.y.y.y.y.y.y.y.y.y.y.y.y.y.y.y.y.y.y.y.y.y.y.y.t.y.y.y.y.y.y.y.y.y.j.r.r.#.#.9.j.` p 0.j.j.r.#.@.@.#.o.q p @.@.@.@.@.@.@.v o o o   ",
"  O O X Q v.t.j.y.j.y.y.y.y.y.y.y.t.0.w.t.t.y.t.y.y.y.y.y.y.y.y.y.y.y.y.y.y.y.y.y.y.y.t.y.y.y.y.j.t.t.t.t.t.t.9.u X.j.j.#.@.@.@.] b % v #.@.@.@.@.@.#.G O O O   ",
"  O O X F x.0.0.0.w.r.y.j.y.y.y.t.7.@.@.w.y.y.y.y.y.y.y.y.y.y.y.y.y.y.y.y.y.y.y.y.y.y.y.y.y.y.y.t.j.t.j.t.t.t.9.C 9.j.#.#.@.E u & O 3 ! @.@.@.+.@.@.@.J % o O   ",
"    o X c w.@.@.@.@.5.8.e.y.y.y.t.5.@.#.w.y.y.y.y.y.y.y.y.y.y.y.y.y.y.y.y.y.y.y.y.y.j.j.j.t.j.t.j.j.j.t.t.t.t.#.#.j.6.@.+.b & . % p ] @.@.@.@.@.@.@.@.W % o O   ",
"    O o w >.@.@.@.@.@.@.#.8.r.y.y.e.8.@.5.0.t.j.j.j.j.j.j.y.j.y.j.j.j.y.y.y.y.j.y.t.r.w.0.9.9.9.w.t.t.j.t.j.r.9.r.#.@.@.J $ X & S +.} ] o.@.@.@.@.@.#.W % o O   ",
"    o o ; O.>.O.X.o.@.@.@.@.5.0.y.y.y.0.| J D J ' o.#.5.7.7.6.5.@.o.X.#.t.r.r.0.9.#.#.#.@.@.+.@.#.6.w.j.t.j.t.t.6.@.@.@.i o o a +.+.` W X.@.@.@.@.@.@.J % o o   ",
"    o X X F b q 5 t x E X.@.@.@.8.r.j.j.j.e.6.| E Z b c c v b Z R } @.9.6.#.#.@.@.@.@.@.@.@.@.@.@.@.#.t.j.t.t.9.@.@.@.@.u o $ v #.+.o.X.+.X.X.@.@.@.#.D O O O   ",
"    o . X O O o X o o O 4 Z | #.@.6.e.j.y.y.j.j.j.y.t.e.e.e.r.t.w.9.#.@.@.#.@.o.! G c p a S } @.@.@.#.0.t.t.w.#.@.@.@.@.x $ o u +.#.+.#.} W W X.@.@.@.x o o O   ",
"      X X O O % ; % O O o O 4 H +.@.5.e.j.y.y.y.y.y.y.y.y.y.t.7.@.+.@.@.| J a 5 % $ o . . $ & Z +.@.@.6.t.t.9.@.@.@.@.@.W % o % ` #.+.@.} W W X.@.@.o.q o O     ",
"      . O O O 4 5 5 3 : @ o o $ a | #.#.t.y.y.y.y.y.y.y.y.t.#.@.@.o.W x 3 $ . o O O $ @ @ O o $ D @.@.#.t.r.#.@.@.@.@.@.o.a O O a @.@.@.o.} } @.@.@.] : o O     ",
"      . O O % 5 5 5 5 5 4 ; O o $ q ` @.#.y.y.y.y.y.y.y.t.#.#.X.G t % o $ o $ % < 3 5 5 5 ; O o 5 | #.#.r.r.@.@.@.@.@.@.@.} u O % J @.@.@.@.@.@.@.@.H O O O     ",
"      $ O O ; 5 5 5 5 5 5 5 1 @ o o 3 ` #.e.y.y.y.y.y.j.w.@.E q $ . o $ % 1 1 5 5 5 5 5 5 3 O O % W #.#.t.w.@.@.@.@.@.@.@.@.} i O u o.@.@.@.@.@.@.@.i o O o     ",
"      o O o & 5 5 5 5 5 5 5 5 4 $ o o 0 } 9.y.y.y.y.j.k.#.G % . o $ % 3 5 5 5 5 5 5 5 5 5 5 @ o @ J #.#.t.w.@.@.@.@.@.@.@.@.@.} % : } @.@.@.@.@.@.` : o O       ",
"      o O o % 3 5 5 5 5 5 5 5 5 3 $ o O D #.k.y.y.y.y.y.#.3 $ o % 3 5 5 5 5 5 5 5 5 5 5 5 5 % O O D @.#.k.r.@.@.@.@.@.@.o.} o.} , , | @.@.@.@.@.@.x o O o       ",
"      o O o O : 3 5 5 5 5 5 5 5 5 ; o o a #.y.y.w.e.y.j.@.% . $ & 1 5 5 5 5 5 5 5 5 5 5 5 3 $ o $ E #.w.y.r.@.@.o.@.@.@.} J } E % z @.@.@.@.@.@.! : o O         ",
"      o o o o @ ; : 3 3 4 4 4 4 1 $ o o a t.y.y.e.r.y.j.#.3 o o % 3 : 3 5 5 5 5 5 5 5 5 5 < o o 4 | #.t.y.t.#.@.@.@.@.@.} E J u 5 | @.@.@.@.@.X.u o o O         ",
"      X o o o o @ % ; * ; ; & % O O o 3 @.t.e.y.y.j.j.y.t.C o o $ % 1 : 1 1 1 5 5 5 5 5 3 $ . $ C @.0.y.y.y.w.@.@.@.@.@.X.} a q ' @.@.@.@.@.+.v O o o           ",
"      O o % , O o O O $ O O O O o O u } J u u a b D @.t.y.9.a $ o $ $ & ; 1 ; 1 1 3 3 : % o o 5 | #.t.y.y.j.t.#.@.@.@.@.} x x | @.@.@.@.@.+.Z % o O             ",
"      o o 0 | S 5 ; O o o o $ 4 i } #.v O $ & $ O $ : } y.y.9.C % o o o $ & % ; ; & % $ o o ; E #.e.t.y.y.j.j.#.@.@.@.W b E @.@.@.@.@.@.o.b % o O O             ",
"      O o 4 9.r.#.+.W H G W | #.r.j.o.% @ 4 5 : 3 : o u e.y.y.t.} i % o o o o o O o o o $ 3 E #.e.j.y.y.y.y.y.0.o.} E W X.@.@.@.@.@.@.] i O O O o               ",
"      O o % X.j.j.j.j.j.j.j.j.j.t.y.` O % 5 5 5 5 1 $ 4 9.y.y.y.y.w.} b q % $ $ o $ $ 3 v | #.e.j.j.y.y.y.y.j.e.X.} X.@.@.@.@.@.@.| b : O O O                   ",
"      O o o p w.y.t.9.e.j.y.y.y.y.j.+.; O 3 : : 4 & o a r.y.y.y.y.y.y.r.9.X.W H D J } X.#.r.t.y.y.y.y.y.j.j.j.t.#.@.@.@.@.@.o.W z 3 O o O O                     ",
"        o o O S t.j.e.t.y.y.t.y.y.y.r.H ; @ O O $ $ 4 +.y.y.y.y.y.y.y.y.y.r.y.r.r.r.r.r.j.j.y.y.y.y.y.y.j.j.j.e.#.@.@.+.} S t & o o O O                         ",
"          O o $ H e.j.e.w.y.w.0.y.y.y.t.@.} ` G b H #.y.y.y.y.y.y.y.y.y.y.y.y.y.y.y.y.r.e.r.y.y.j.j.j.y.k.j.r.#.@.} G i : O o o O O                             ",
"            o o $ S e.e.e.y.r.r.y.y.y.y.y.j.j.j.j.j.k.y.y.y.y.y.y.y.y.y.y.y.y.y.y.y.y.9.@.9.t.y.y.t.t.#.#.#.} D i : O o o o O o                                 ",
"              o O $ ! j.y.y.y.y.y.y.y.y.y.y.y.y.y.y.y.y.y.y.y.y.y.y.y.y.y.y.y.y.t.j.j.0.6.w.j.w.#.#.o.W b q ; o o o $ $ o                                       ",
"              O o . b y.y.y.y.y.y.y.y.y.y.y.y.y.y.y.y.y.y.y.y.y.y.y.y.y.y.y.y.y.j.j.t.j.j.t.r.#.} a 5 % o o $ o o o                                             ",
"                o o x t.y.y.y.r.r.j.y.y.y.y.y.y.e.y.y.y.y.y.y.y.y.y.y.y.y.y.y.y.t.j.t.t.t.j.9.] 4 o o o o o $                                                   ",
"                O o 5 9.j.y.j.} @.j.y.y.y.y.y.w.W r.y.y.y.y.y.y.e.e.y.y.y.y.y.y.j.#.9.j.t.j.9.b o O o O $ $                                                     ",
"                o o $ W t.j.r.p D y.y.y.y.y.y.X.u 9.j.y.y.y.y.j.@.! t.t.y.y.y.y.j.J Z w.t.r.o.3 o o o o o o o                                                   ",
"                o o o : S W v $ q W 0.y.y.y.y.b ; X.r.y.y.y.j.j.X.t 5.t.y.t.y.y.w.p 0 +.#.+.p O o $ 8 9 : O o X                                                 ",
"                  o O o o $ o o o $ i o.#.| C : $ a ` w.y.t.w.#.C % J #.w.r.5.J i & % i Z u O o : m K P P d - $ O                                               ",
"                      o o o o o o . $ 3 q % o o o o % a } E i % $ $ $ q Z Z 0 X o o o o o o o o d / ( U N N e $ O                                               ",
"                                $ . $ $ . o $ . O O O O $ O o o $ $ $ . o . o o o $ 3 : o o o $ I / I I I I I 9 o o                                             ",
"                                  $ . % $ o o $ O . o O O $ o $ > , $ o o $ $ o o : q : $ o o $ N / $.$.~ K K M ; o O                                           ",
"                                  $ o ; $ o 4 W W a : O O O o o $ $ o o o o . o o o $ % , : o $ ~ ( U U U K K K e O O                                           ",
"                                  X $ - o o & t a C i 3 $ O $ 4 : o o 0 i u u u p x S J Z 3 o $ n I / ( ~ m 8 % O O O O                                         ",
"                                X X ; 4 O O ; ; $ O O $ o o % | D o $ 5 i u 5 4 , , : ; = O O O > ; - = $ O o o o O O                                           ",
"                            o O $ % Z q o $ b G S v a t : o ; W a o o % % % % & ; ; O o O O O O o o o , 0 q x q ; O o                                           ",
"                          o O $ a | E ; o o $ $ ; ; ; ; $ o O $ $ o $ q u p a i 9 ; O O O = = = O o q @.H ; u W v $ O o                                         ",
"                        O o o o q a ; O O ; $ $ $ o $ O o $ 1 q & $ o o $ . $ $ O O = = = = O O X O x | q o o % % o O O O                                       ",
"                        O o , 4 % o o o O 8 8 6 > 6 > > O O b X.i X O = - = = - = 6 6 6 7 - o $ 0 @ O @ o - t 0 t v C @ O                                       ",
"                        o O : z v u $ o O % $ = - > > > O O - : % O O > 6 7 7 7 8 7 7 6 7 $ o y +.c 0 t x ] >.@.#.5.@.5 o O                                     ",
"                        O O o O O o o o : * & & @ @ O O O O o o o O O = = - = - - - = = $ O o 0 C E 6.9.8.5.5.5.5.6.#.0 o O                                     ",
"                        O o O q b Z u o & 2 2 * * * * * * & & & % # @ # % # % @ @ + @ - + O o $ G r.w.8.w.5.5.5.5.5.E % o                                       ",
"                          O o : S | a o $ : ; @ @ # & * * * * * * * * * * & * * # # 2 * & + o 3 +.E H 8.@.o.5.5.5.W : o O                                       ",
"                            o o o $ $ o 9 a.1.K k e , ; - @ @ + + # # # # # # # + + @ + + O o @ , b 7.| v @.5.[ c - o o                                         ",
"                                o o o o l B.N.u.3.,.*._ *.;.^ V l k j s s s s s j j l f f k , o % H Z : c Z y ; O O O                                           ",
"                                    O o A B.h.i.4.2.2.2.4.p.4.2.3.2.p.2.<.<.<.<.2.2.<.^ T L V > O O O O @ O o O O                                               ",
"                                    o o r d.s.&.^ ^ *.<.<.3.3.<.,.2.3.<.<.3.<.<.3.<.=.~ I L I L f > O @ , 9 @ O O                                               ",
"                                      O O 9 9 - - % 9 V ^ ~ V f e m ^ &.=.<.*._ I f w s k M V k 9 $ O @ > , O O                                                 ",
"                                        O o X o ; v 4 O - O o o o o % w M M e ; O @ t 4 @ O % O o O O o o o o                                                   ",
"                                      O O O @ O O : , O o o O o O O o o O o O O O O 0 q - O o O O O O                                                           ",
"                                      O o # * & + O O O O O + + o O     O O & & @ O O O O O + + + o O                                                           ",
"                                    O O O O O # # @ # O O O O O O O   O O O @ # & @ # # + O O + o O O                                                           ",
"                                      O O O O O O O O O O O O O O     O O o O O X O O O O o O O O O O                                                           ",
"                                                                                O O O O O                                                                       "
};
