/* XPM */
static char *w_0_left_resized[] = {
/* columns rows colors chars-per-pixel */
"80 80 154 2 ",
"   c None",
".  c #161614",
"X  c #181715",
"o  c #1A1917",
"O  c #1C1A18",
"+  c #201916",
"@  c #221E1B",
"#  c #2A1F19",
"$  c #23211E",
"%  c #2D211C",
"&  c #32241D",
"*  c #1F2122",
"=  c #252422",
"-  c #292622",
";  c #2C2925",
":  c #222629",
">  c #262A2D",
",  c #2C2C2A",
"<  c #312C27",
"1  c #3B2A23",
"2  c #322E29",
"3  c #36322C",
"4  c #3A342D",
"5  c #272D30",
"6  c #282E32",
"7  c #2D3235",
"8  c #333333",
"9  c #3A3731",
"0  c #3E3A34",
"q  c #36393C",
"w  c #3B3C3D",
"e  c #423D36",
"r  c #433F38",
"t  c #46413A",
"y  c #4A453D",
"u  c #4D483F",
"i  c #3A3D41",
"p  c #3F4043",
"a  c #3F444A",
"s  c #434445",
"d  c #4E4941",
"f  c #434549",
"g  c #484A4E",
"h  c #534D44",
"j  c #565047",
"k  c #57524A",
"l  c #5B544A",
"z  c #5F584D",
"x  c #4A4D51",
"c  c #4D5055",
"v  c #4E535A",
"b  c #515253",
"n  c #5E5B54",
"m  c #51565D",
"M  c #53585E",
"N  c #5C5D5F",
"B  c #60594F",
"V  c #645D52",
"C  c #685F53",
"Z  c #635F58",
"A  c #676054",
"S  c #6A6256",
"D  c #6D6559",
"F  c #70675B",
"G  c #736A5D",
"H  c #555B62",
"J  c #595D64",
"K  c #5D636B",
"L  c #5F6670",
"P  c #616264",
"I  c #6C6760",
"U  c #6D6861",
"Y  c #61666F",
"T  c #766D60",
"R  c #786F61",
"E  c #7C7364",
"W  c #78736B",
"Q  c #7D786F",
"!  c #616770",
"~  c #636A73",
"^  c #686D76",
"/  c #676E78",
"(  c #696F79",
")  c #6C727C",
"_  c #70767F",
"`  c #807667",
"'  c #817768",
"]  c #847A6B",
"[  c #897E6E",
"{  c #827D74",
"}  c #897F71",
"|  c #8D8272",
" . c #868178",
".. c #8B857C",
"X. c #8E887E",
"o. c #918675",
"O. c #948877",
"+. c #968A79",
"@. c #998D7B",
"#. c #9D917E",
"$. c #6F7681",
"%. c #717680",
"&. c #757B85",
"*. c #7D7F84",
"=. c #787F89",
"-. c #7E848F",
";. c #7F8692",
":. c #808284",
">. c #918A80",
",. c #9F9280",
"<. c #9B9489",
"1. c #9F998F",
"2. c #808792",
"3. c #838A95",
"4. c #868D99",
"5. c #888F9B",
"6. c #8C929C",
"7. c #A29582",
"8. c #A69986",
"9. c #A89B87",
"0. c #AB9D8A",
"q. c #AEA08C",
"w. c #B1A38E",
"e. c #ACA499",
"r. c #B4A691",
"t. c #B7A893",
"y. c #BAAB96",
"u. c #BDAE99",
"i. c #BFB09A",
"p. c #8E95A0",
"a. c #9097A2",
"s. c #9399A3",
"d. c #B6AEA3",
"f. c #BAB2A6",
"g. c #A4A9B0",
"h. c #AAAEB5",
"j. c #ADB1B9",
"k. c #B1B6BE",
"l. c #C0B19B",
"z. c #C3B5A2",
"x. c #C6B9A5",
"c. c #C3BBAE",
"v. c #CABDAA",
"b. c #C6BEB1",
"n. c #CCC0AD",
"m. c #CFC3B2",
"M. c #D0C5B4",
"N. c #D4CABB",
"B. c #BABDC3",
"V. c #BFC3C9",
"C. c #C3C7CC",
"Z. c #D7CEC0",
"A. c #D8CFC1",
"S. c #DAD1C3",
/* pixels */
"                                                                                                                                                                ",
"                                                                  O o O O o o O o o o O O o                                                                     ",
"                                                    O o o O o o o o o o o X o o o o o o o o o O O o O o O                                                       ",
"                                            O o O o o X o O $ ; 2 9 0 t u h h h h u t e 9 2 ; $ O O o o o o o O O o                                             ",
"                                      o O X X X o = 0 k T { @.9.0.0.8.7.#.@.@.@.@.@.+.O.O.| | ' R S k t 4 - O O o o O O o                                       ",
"                                O O O o X * 9 V ..e.f.x.x.l.l.l.l.l.i.u.t.r.0.7.#.@.@.@.@.@.@.@.@.#.@.@.o.[ G z t , O O o O O o                                 ",
"                            O o X X @ w I 1.b.N.M.x.l.i.l.l.l.l.i.i.i.i.i.i.i.u.t.q.7.#.@.@.@.@.@.@.@.+.@.@.#.#.@.| G j 4 O o o O o                             ",
"                        O O o o , V <.b.A.N.v.l.u.u.l.l.l.t.0.0.y.i.i.i.i.i.i.i.i.l.i.t.q.7.#.+.@.@.@.@.@.@.@.+.@.@.#.@.O.E h ; O o O o                         ",
"                    o O o O 9 W f.N.S.N.v.l.l.l.y.l.l.l.l.0.+.@.9.i.i.i.i.i.i.i.i.i.i.i.i.u.t.0.#.@.@.@.@.@.@.@.@.@.+.@.@.#.+.[ z ; O o O X                     ",
"                  O o X 8 { c.S.S.N.m.l.l.l.l.l.l.l.l.l.l.q.@.@.q.i.i.i.i.i.i.i.u.i.i.i.i.i.i.i.l.t.#.@.@.@.@.@.+.@.@.@.@.@.@.@.#.] j $ o O O                   ",
"              O O o O Z f.S.S.N.v.l.l.l.l.l.t.@.@.r.l.l.l.l.t.t.i.i.i.i.i.i.i.i.i.i.i.i.i.i.i.i.l.l.u.t.q.#.@.@.@.@.@.@.@.O.| +.+.#.+.G 3 O O X                 ",
"            O O o = { N.S.S.N.v.l.l.l.l.0.R h j B h G G G o.w.l.i.i.i.i.i.i.i.i.i.i.i.i.i.i.i.i.l.l.u.l.l.y.w.#.@.@.@.@.+.' R | #.+.#.#.' 9 O O O               ",
"          O O O - ..N.S.S.N.z.l.y.l.l.@.F G #.0.l 4 4 4 1 9 j o.u.i.i.i.i.i.i.i.i.i.i.l.i.i.i.i.l.l.u.l.l.u.l.u.w.#.@.@.@.| | | +.#.+.@.#.] 3 o O o             ",
"          O O O  .S.S.S.M.z.l.u.l.l.t.#.w.l.l.#.e 1 4 4 4 4 4 r 9.l.i.i.i.i.i.i.i.u.w.r.u.i.i.i.l.u.l.u.u.l.l.u.l.u.q.#.@.@.| E ] O.@.@.+.#.E - o O o           ",
"        O O O I N.S.S.m.l.l.u.l.l.l.t.@.#.l.l.l.| u 4 4 4 4 4 y 0.l.i.i.i.i.i.i.i.t.@.#.t.l.i.i.l.u.u.l.u.l.u.l.l.l.l.r.#.#.] R E O.@.@.@.@.@.A O O O           ",
"      O O o t b.S.S.M.l.i.u.l.u.l.l.l.0.w.@.] 9.y.#.C r e e l @.i.i.i.i.i.i.i.i.i.u.q.w.i.i.i.i.u.l.u.l.l.u.l.u.l.l.l.l.u.#.| ' | +.@.@.+.@.@.+.u o O o         ",
"      O o = <.S.A.M.l.i.i.i.i.i.i.l.l.l.i.C 4 F 7.@.9.0.7.9.y.l.i.i.i.i.i.i.i.i.i.i.i.i.i.i.i.i.l.l.u.l.l.u.l.l.u.l.l.u.l.t.@.+.@.| ] @.@.@.@.@.] ; o O         ",
"    o O o k N.S.N.z.i.i.i.i.i.i.u.r.0.7.@.E l G G F E +.@.8.0.t.i.i.i.i.i.i.i.i.i.i.i.i.i.i.i.i.u.l.l.u.l.l.u.l.l.u.u.l.l.u.q.@.@.| B +.@.@.+.@.@.V O O O       ",
"    O o O <.S.N.z.i.i.i.i.i.i.r.@.} ` E T R R F F S V B z j h h z S E O.q.t.u.i.i.i.i.i.i.i.i.i.l.u.u.l.l.l.l.l.u.l.l.u.l.l.t.@.@.O.u ] @.@.@.@.@.| 3 o O O     ",
"    O o w b.S.v.i.i.i.i.i.i.i.u.u.u.i.l.l.l.l.l.l.l.l.u.u.t.r.0.#.o.E G A S E +.q.u.i.i.i.i.i.i.u.l.l.u.l.w.w.l.l.u.u.l.l.l.y.@.@.+.y S #.@.@.@.@.@.V O O O     ",
"  o O o Z S.M.l.i.i.i.i.i.i.i.i.l.u.u.l.l.l.u.l.u.l.u.u.u.l.l.l.i.i.i.i.u.r.q.@.@.q.y.u.i.i.i.i.l.u.l.l.u.t.] w.l.u.l.l.l.l.w.@.@.@.j j @.@.@.+.@.@.| % o O     ",
"  O o O { S.x.i.i.i.i.i.i.i.i.i.u.l.l.u.l.u.l.u.l.u.l.l.l.u.l.u.i.i.i.i.i.i.u.u.i.u.u.u.i.i.i.i.u.l.l.w.#.w.| D t.l.u.l.l.u.9.@.+.@.l t O.@.@.@.@.@.@.u o O O   ",
"  O O O <.N.l.i.i.i.i.i.i.i.i.i.l.u.u.l.l.u.l.u.u.l.l.u.l.u.u.l.i.i.i.i.i.i.i.i.i.i.i.i.i.i.i.i.l.l.y.#.@.#.t.u R l.l.l.l.t.#.@.@.#.z 4 O.@.@.@.@.@.@.S O O o   ",
"  O O O <.m.i.i.i.i.i.i.i.i.i.i.u.l.l.l.u.l.u.l.l.l.u.l.u.l.l.u.i.i.i.i.i.i.i.i.i.i.i.i.i.i.i.i.l.u.u.9.#.q.l.+.e #.l.l.y.#.@.@.#.+.t 4 O.@.@.@.@.@.@.' $ o O   ",
"  O o O <.v.u.u.u.i.i.i.i.i.i.i.l.l.u.u.l.l.u.l.l.u.l.u.l.u.l.l.i.i.i.i.i.i.i.i.i.i.i.i.i.i.i.i.i.i.i.u.y.i.i.y.u E l.u.#.@.@.o.G u $ y @.@.@.@.@.@.@.| ; o O   ",
"  O O O >.v.u.u.i.i.i.i.i.i.i.i.u.w.7.8.t.l.l.u.u.l.u.l.u.l.u.l.i.i.i.i.i.i.i.i.i.i.i.i.i.i.i.i.i.i.i.i.i.i.i.r.C q.l.#.#.@.F 4 O o 3 E @.@.@.+.+.@.@.O.9 o O   ",
"  O O o Q z.9.8.8.0.r.u.i.i.i.i.u.7.+.@.r.u.u.u.l.u.l.l.u.l.l.l.i.i.i.i.i.i.i.i.i.i.i.u.i.u.i.i.i.i.i.i.i.i.i.q.@.u.8.@.@.V $ X $ j | +.@.@.@.@.@.@.@.O.0 o O   ",
"  O O o n 0.@.@.@.@.@.,.0.u.i.i.u.0.@.#.t.l.l.l.l.l.l.u.l.u.l.l.i.l.l.l.i.i.i.i.i.u.u.y.r.w.q.q.r.y.i.i.i.i.i.q.t.9.@.@.Q % X $ B +.| E | +.@.@.@.@.@.O.0 o O   ",
"    o o 0 <.@.@.@.@.@.@.@.7.w.u.l.u.t.#.] ' o.7.0.t.t.u.l.u.t.t.w.q.,.q.i.y.y.t.w.q.#.#.@.@.@.@.#.#.r.i.i.i.i.y.q.@.@.#.S O o 4 O.@.| ` | @.@.@.@.@.@.o.4 O O   ",
"    O X = >.+.' E ' | @.@.@.@.8.t.l.l.u.r.@.R V k j k z z B z V V G | ,.q.q.#.#.@.#.@.@.@.#.@.@.@.@.#.t.i.i.i.r.@.@.@.@.F O o 2 | @.@.O.@.| ] o.@.@.@.| ; o O   ",
"    O X o d 0 = = = 2 d G | @.@.#.r.l.l.l.l.l.u.r.0.7.@.+.@.8.0.w.q.,.#.@.@.#.@.o.E S l j V ' @.@.@.@.8.i.i.u.#.@.@.@.@.| $ o $ R #.@.@.O.E R ] @.@.@.E $ O O   ",
"    o . X o O O O O o X O 9 D O.@.@.0.u.u.l.l.u.l.l.l.l.l.l.l.r.,.#.@.@.@.| D d 4 $ O o o o $ u | @.@.#.y.i.r.@.@.@.@.@.O.y o o u +.@.@.+.' E [ @.@.@.D O O o   ",
"      . O O O % 2 < $ O o o @ t E @.@.q.i.i.i.i.i.i.i.i.i.i.w.#.#.@.o.E u ; O O o o @ $ O O o o u O.@.@.r.l.q.@.@.@.@.@.@.| $ X $ G #.@.@.O.o.+.@.@.@.h o O o   ",
"      o O X @ 3 4 4 4 4 % O X o - B +.@.q.i.i.i.i.i.i.i.i.w.#.@.o.S e $ O O O @ $ < 2 3 4 ; @ o @ G @.@.w.i.#.@.@.@.@.@.@.@.R < X 3 | +.@.@.@.@.@.@.| 3 o o     ",
"      o X O $ 4 4 4 4 4 4 2 $ O o O u o.#.r.i.i.i.i.i.i.u.#.+.D 8 O o O @ $ ; 2 4 4 9 4 4 4 $ o O u @.@.r.i.#.@.@.@.@.@.@.+.@.| 3 o A #.@.#.+.@.+.#.E $ o O     ",
"      . O O $ 4 4 4 4 4 4 4 4 - O O o t | q.i.i.i.i.i.i.r.+.u $ o O @ $ 2 4 4 4 4 4 4 4 4 4 ; + o 0 +.@.y.l.#.@.@.@.@.@.@.@.@.+.z o h @.@.+.@.@.#.@.d X O O     ",
"      o O o $ 3 4 4 4 4 4 4 4 4 < O O O B #.u.i.i.i.i.i.r.V O o @ $ 3 4 4 4 4 4 4 4 4 4 4 4 ; O o 9 O.#.y.i.#.#.@.@.@.@.@.| | O.V o z @.@.@.@.@.@.' = O O       ",
"      o O o @ ; 4 4 4 4 4 4 4 4 4 ; O o 3 +.y.i.u.y.i.i.r.t o O $ 2 3 4 4 4 4 4 4 4 4 4 4 4 $ O o t @.#.i.i.q.@.@.@.@.@.o.E G | u - ' @.@.@.@.@.+.u o O O       ",
"      . o O O $ < < 4 4 4 4 4 4 4 ; O o < @.i.i.t.q.u.i.t.y o O $ & < 2 4 4 4 4 4 4 4 4 4 4 @ O o l @.q.i.i.r.@.@.@.@.@.O.` R C - V @.@.+.@.@.@.G $ o O         ",
"      . + O O O $ ; - < < 2 2 < $ $ o o u r.l.l.i.i.i.i.i.E O O O $ ; & < 2 3 4 4 4 4 4 4 ; O o ; | #.t.i.i.u.#.+.@.@.@.@.O.G 4 V +.@.@.@.@.@.' 2 o O o         ",
"      O X o o O O O $ $ - $ $ O @ o o 3 o.@. .O.#.#.r.i.i.r.u @ O O @ $ ; ; & ; < 2 2 2 - O O O l @.q.i.i.i.i.q.@.@.@.@.+.G u T @.@.@.@.+.@.[ 9 o O O           ",
"      O o O t - O X O O O O O o O $ j o.l $ @ $ ; - 0  .u.i.r.B $ o O @ $ $ - ; ; & $ $ O O O 0 | #.u.i.i.i.i.u.@.@.@.| D C | @.@.@.@.@.#.E 4 o O o             ",
"      O O $ [ | z 9 ; $ $ $ 2 t D #.y.D o $ 2 $ $ ; O ; @.l.l.y. .e @ X o O O O @ @ @ O X O 0 E #.u.i.i.i.i.i.i.#.O.| G | @.@.@.@.@.@.o.S ; o O o               ",
"      O O O ] i.u.q.#.+.+.@.q.r.i.i.r.0 o < 4 4 4 4 $ o T i.i.i.u.w.E u ; $ o o X o O O 2 k o.q.u.i.i.i.i.i.i.l.r.o.| O.O.@.@.@.#.O.G e O O O O                 ",
"      O O X j t.i.i.i.u.l.i.i.i.i.i.r.e o < 4 2 3 4 = o E i.i.i.i.i.i.r.#.E A j u u z G o.8.t.u.i.i.i.i.i.i.i.i.t.#.@.@.@.@.@.| S 0 $ o o O O                   ",
"        O X $ Q i.i.r.w.i.i.i.u.i.i.u.G O @ - @ ; - o 2 ,.i.i.i.i.i.i.i.i.i.u.t.w.w.w.t.y.u.i.i.i.i.i.i.i.i.i.l.r.@.@.@.O.E u 2 O o o O O                       ",
"        o O X ; o.i.u.u.i.i.u.y.i.i.i.t.T 0 3 2 - - r O.i.i.i.i.i.i.i.i.i.i.i.l.i.i.i.i.y.y.i.i.i.i.i.i.l.l.u.w.#.@.| l 0 $ O O O o O                           ",
"          O O O 2 | i.u.q.u.y.q.u.i.i.i.i.r.q.w.,.#.w.i.i.i.i.i.i.i.i.i.i.i.i.i.i.i.i.i.q.@.w.i.i.i.y.t.t.#.#.| V t - O X O O O                                 ",
"            O O o - ' u.y.u.i.u.i.i.i.i.i.i.i.i.i.i.i.i.i.i.i.i.i.i.i.i.i.i.i.i.i.i.i.u.q.#.r.i.t.#.#.@.' V e $ O O O O O O                                     ",
"              O O o < 9.l.i.i.i.i.i.i.i.i.i.i.i.i.i.i.i.i.i.i.i.i.i.i.i.i.i.i.i.i.i.i.i.i.y.i.r.#.| l 0 $ o o o O O @                                           ",
"                o o $ O.l.i.i.i.i.i.i.i.i.i.i.i.i.i.i.i.i.i.i.i.i.i.i.i.i.i.i.i.i.i.i.i.i.i.i.q.| 3 O X o O O O                                                 ",
"                O O O Q l.i.i.u.q.y.i.i.i.i.i.i.r.w.i.i.i.i.i.i.i.u.i.i.i.i.i.i.i.i.q.y.i.i.i.8.u O O O O O O                                                   ",
"                O O X l u.i.l.t.V q.y.i.i.i.i.i.o.D i.i.i.i.i.i.i.@.q.y.i.i.i.i.i.i.G Q y.i.y.@.4 O O O o o O O                                                 ",
"                  O o - [ y.i.O.- ] i.i.i.i.i.i.z r w.i.i.i.i.i.i.] B t.i.i.i.i.i.u.u t #.q.#.z O O O O * O O O                                                 ",
"                  O O o - l j 3 O 3 S ,.i.i.t.,.8 3 | q.i.i.i.i.u.G 3 @.w.i.i.t.+.F & ; A E k $ O $ 7 b H x , O O                                               ",
"                    o O o o o o O O O 9 E ' j 2 O O 2 j +.q.q.E h ; * 0 V o.o.z $ O O O O $ O o X w ) ~ H H v 5 O O                                             ",
"                        O O o O O O O O @ @ O X O O o O 2 u e $ o o O X O - $ O o O o $ $ O O o * v L L ( K K m ; o O                                           ",
"                                  @ O O O O O O X X O O O X X O O : > @ O O O O O O ; u 0 @ O O * K &.$.~ H m H p O O                                           ",
"                                    O O = O O - t 9 $ O O O O O @ * : @ O O O O O O @ O o O O o * K K L ( ( L L L 7 O O                                         ",
"                                    O O O O O e ' | F r - O O O O O O O = $ - $ ; , 0 u z z 9 o * K &.&.$./ m a q : O O O                                       ",
"                                    O O O O O o O $ ; ; - * X $ F u O O h V z j d d d u y 9 O o @ q q p f p , @ o o o O                                         ",
"                                  X O $ * O = j u 0 3 ; $ * O ; #.k o O O @ O O O O O o X o O X O O o X o O = ; O o O O                                         ",
"                              O O * ; u $ O $ t j j u u 0 - O $ u 2 O $ 9 e t u u e , O o O * * @ O o : D z 0 D D e O O O                                       ",
"                            O o O u +.D O O O o o o O O o O O O O O O O ; 2 2 , = @ O O o * * * O O O G w.t X ; l 0 o o O                                       ",
"                          O O O o - 0 = o O 8 > : = : * : O O k R 4 X O O O X O O * * : > > * O O @ o e r @ O O o O ; ; O O                                     ",
"                          o O - e 3 = O O O > > > 5 5 5 : O O y C 8 X O : 6 6 > 6 6 6 6 6 5 * X s C ; o O ; z G S G | T @ o                                     ",
"                          o O O 0 j u $ X # $ @ O O = = @ O O o X O X O : 6 6 6 6 > > > : = O O V ] F T ' o.7.8.8.8.8.o.; o O                                   ",
"                          O O o o o o o + & e & & % % @ @ @ @ @ @ O @ @ O @ O O O @ O O @ + O O - B 0.l.y.0.7.7.7.7.8.] = o                                     ",
"                            O o ; B G 9 o @ % % & & & & & & & & 1 # & # & & & & & # # & & # O X d w.8.} r.9.7.7.7.8.+.t O O                                     ",
"                              O O 0 D 9 X ; b w - @ @ @ # # # % # & & & & & & - & # # & & # o O e j h @.9.F @.8.7.] e O O                                       ",
"                                o o o o X f B.h.=.^ J c f s r 8 - = $ @ @ @ @ @ @ = = = = - : O X e ,.} r T +.E h - o O                                         ",
"                                      O o N C.k.p.p.4.4.3.s.g.6.&.%.) &.^ ^ ^ ^ ^ ( %.&.! J H , X @ e = - r 2 @ o o O                                           ",
"                                      O X S C.h.p.3.3.4.4.3.5.4.5.5.5.s.5.5.4.4.3.4.5.4.( J J M q = O X O O = O O O                                             ",
"                                        o ; -.-.J x g ! =.2.3.;.&.^ &.3.2.3.4.2.3.2.%.! J J J K J f = O O , q = O O                                             ",
"                                        O o @ O O @ - @ 8 x p 8 : O - f Y &.=.^ c q = = = ; 8 w , * O O O O O O O                                               ",
"                                        O O O + O @ 0 = o o X X o O O o O , , @ X X @ 0 9 O X O O X O O                                                         ",
"                                        O o @ & @ O O O O O O + O O O   O X X @ # O O O + O O O O + O o                                                         ",
"                                      O O O @ # # # @ + O O O + O O O     O O # & % # @ @ @ O + + + O O O                                                       ",
"                                        O O o O O O O O O O O O O O O   O O O O O O O @ O O o O O O O O O                                                       ",
"                                              O O O O O o O o O             O O O o O O o O O O O O                                                             "
};
