/* XPM */
static char *w_14_left_resized[] = {
/* columns rows colors chars-per-pixel */
"80 80 153 2 ",
"   c None",
".  c #171614",
"X  c #181715",
"o  c #1A1917",
"O  c #1C1B19",
"+  c #211915",
"@  c #221E1B",
"#  c #291F1A",
"$  c #1F201F",
"%  c #23211E",
"&  c #2C211B",
"*  c #33241D",
"=  c #1D1F20",
"-  c #1F2121",
";  c #252422",
":  c #292623",
">  c #2D2A25",
",  c #232729",
"<  c #262A2D",
"1  c #2D2C29",
"2  c #302520",
"3  c #312C27",
"4  c #3E2B24",
"5  c #322E29",
"6  c #35312C",
"7  c #3A342D",
"8  c #272D30",
"9  c #292E32",
"0  c #2B3034",
"q  c #323233",
"w  c #3A3631",
"e  c #3D3933",
"r  c #353739",
"t  c #3A3B3E",
"y  c #413D36",
"u  c #433F38",
"i  c #46413A",
"p  c #4A453D",
"a  c #4D483F",
"s  c #50493F",
"d  c #3B3E41",
"f  c #3D4044",
"g  c #434444",
"h  c #4E4941",
"j  c #44474B",
"k  c #484B4F",
"l  c #534D44",
"z  c #524E49",
"x  c #575047",
"c  c #57524A",
"v  c #5B544A",
"b  c #5F584E",
"n  c #474D52",
"m  c #4A4D52",
"M  c #4D5156",
"N  c #4F555C",
"B  c #515252",
"V  c #5D5953",
"C  c #51555B",
"Z  c #54585E",
"A  c #615A4F",
"S  c #645D52",
"D  c #676054",
"F  c #6A6256",
"G  c #66625A",
"H  c #6E6659",
"J  c #70675B",
"K  c #726A5D",
"L  c #545A61",
"P  c #595D64",
"I  c #585F68",
"U  c #5C626A",
"Y  c #5F6670",
"T  c #6C6760",
"R  c #6E6A62",
"E  c #61666D",
"W  c #766E61",
"Q  c #786F61",
"!  c #746F68",
"~  c #7C7264",
"^  c #7E7569",
"/  c #606771",
"(  c #656B74",
")  c #686F79",
"_  c #6B717B",
"`  c #72777F",
"'  c #807667",
"]  c #817768",
"[  c #847A6B",
"{  c #897E6F",
"}  c #8A7F70",
"|  c #8B806F",
" . c #8D8272",
".. c #8B857C",
"X. c #918675",
"o. c #948877",
"O. c #968A79",
"+. c #998D7B",
"@. c #9D917E",
"#. c #6F7680",
"$. c #717680",
"%. c #747A84",
"&. c #7F8184",
"*. c #7D838E",
"=. c #7F8691",
"-. c #8F8980",
";. c #82868D",
":. c #87898E",
">. c #938D83",
",. c #9E9280",
"<. c #808792",
"1. c #838A96",
"2. c #868D99",
"3. c #888F9B",
"4. c #8A919C",
"5. c #A29683",
"6. c #A69986",
"7. c #A89B87",
"8. c #A79D8F",
"9. c #AB9D8A",
"0. c #A39D92",
"q. c #AEA18C",
"w. c #B1A38E",
"e. c #A9A297",
"r. c #AFA79C",
"t. c #B4A691",
"y. c #B7A893",
"u. c #BAAB96",
"i. c #B0A99E",
"p. c #BDAE99",
"a. c #BFB09A",
"s. c #8F95A1",
"d. c #949AA5",
"f. c #9B9FA4",
"g. c #B5AEA2",
"h. c #BFB5A5",
"j. c #BDB5A9",
"k. c #A9ADB2",
"l. c #B1B6BD",
"z. c #C0B19B",
"x. c #C4B6A3",
"c. c #C6B9A5",
"v. c #C8BBA7",
"b. c #C0B8AB",
"n. c #CABEAC",
"m. c #C5BDB1",
"M. c #CEC3B1",
"N. c #CFC6B9",
"B. c #D1C7B6",
"V. c #D4CABB",
"C. c #BABEC4",
"Z. c #D8CFC0",
"A. c #DAD1C3",
/* pixels */
"                                                                                                                                                                ",
"                                                                                                                                                                ",
"                                                        O O O O O O O O o o o o o o o o O O O o O                                                               ",
"                                              O O O o o . . O O @ ; ; : 1 1 5 > 1 : & @ O O o o o o o O O o O                                                   ",
"                                      O O O O X X O : e z G ^ { o.+.o.o.X.X.| | | [ ] ~ K S v p e 1 % O o o o o O o O                                           ",
"                                o O O O . O : p R >.r.h.x.x.z.z.z.z.z.p.y.w.7.@.+.+.+.@.@.+.+.+.o.| ' H v i 1 @ o o o o O o                                     ",
"                            O o o . O 6 V ..g.B.V.M.c.z.a.a.a.a.z.z.z.p.z.z.z.p.w.6.@.+.+.+.+.+.+.+.@.+.+.o. .~ b i : O o o O O                                 ",
"                        O O o o 1 c -.j.Z.A.B.c.z.a.a.a.a.a.u.q.w.p.p.z.p.p.z.z.z.z.z.w.6.@.+.+.+.+.+.+.+.+.+.@.@.o.{ D i : o o O O                             ",
"                    o O o O q ! i.V.A.V.B.z.z.z.z.z.z.z.z.p.7.+.+.w.z.z.p.z.p.z.p.z.z.p.u.y.q.@.+.+.O.+.+.+.+.+.O.+.@.+.O.] b 6 O o o o                         ",
"                  O O o 1 ^ b.A.A.V.B.c.z.z.z.z.z.z.z.z.z.z.6.+.+.w.a.z.z.p.z.p.z.p.p.z.z.z.z.u.w.6.+.+.+.+.+.+.+.+.O.+.+.+.O.| A 6 o O O O                     ",
"                O O O z r.A.A.A.M.c.z.z.z.z.y.@.~  .w.z.p.z.p.w.y.p.p.z.z.z.z.p.p.z.z.p.u.z.u.z.z.p.t.q.@.+.+.+.+.+.+.+.+.@.+.+.+.[ l % o o o                   ",
"              O o O G m.A.A.V.M.z.z.z.z.w.' v l F x s F F K +.p.z.a.a.a.p.z.p.z.z.z.p.z.z.z.z.z.p.z.z.p.t.q.@.+.O.+.+.+.+.o. .o.+.@.O.J 1 o O O                 ",
"            O o O R N.A.A.V.c.a.z.z.z.y. .[ @.y.o.y 4 7 4 6 y D 9.z.p.z.p.z.z.p.p.z.z.z.z.p.z.p.z.p.z.p.z.p.y.q.@.+.+.+.O.[ ~ | +.+.+.+.~ 5 o O O               ",
"          O O O G N.A.A.B.x.a.a.z.u.u.w.@.w.z.z.{ y 7 7 7 7 7 6 J p.z.p.z.p.p.z.z.p.z.u.u.z.z.z.p.z.p.z.z.p.z.z.y.7.@.@.+.X.|  .O.+.+.+.+.~ : O O               ",
"        O o O h m.A.A.B.z.p.a.a.z.z.z.9.@.9.z.z.u.[ i 7 7 7 7 7 ~ z.z.z.p.z.z.p.p.p.6.@.w.z.z.u.z.p.z.p.p.z.p.z.z.p.t.@.+.+.| ] { O.+.+.+.+.D O O o             ",
"        O O 1 e.A.A.B.z.z.a.a.a.z.z.z.z.u.9.S J q.q. .A p i l ~ w.z.z.z.z.p.p.z.z.p.9.@.y.z.z.z.z.z.p.z.z.p.z.p.z.z.z.y.6.+.[ Q ~ X.+.+.+.+.O.p o O O           ",
"      O O O ! Z.A.B.z.p.z.p.p.z.z.z.z.z.z.6.s l o.+.,.y.w.9.y.z.a.a.a.a.a.a.a.a.a.a.a.u.a.a.a.a.p.z.p.z.p.z.p.z.p.z.z.z.y.@.X.[ | o.+.O.@.O.@.[ : o o           ",
"      o o 6 j.A.V.z.z.z.p.z.z.p.w.@. .] ~ H b b b v A K { o.5.9.u.a.z.a.a.a.a.a.a.a.a.a.a.a.a.a.z.p.z.p.z.p.z.p.z.p.p.z.z.y.@.+.@.| | @.+.+.+.+.A $ O O         ",
"    O O O T Z.V.x.p.a.a.z.z.p.p.w.7.6.5.5.@.@.+.O. .] ~ H S v x v D ~ o.q.u.a.a.a.a.a.a.a.a.a.a.z.z.p.z.z.z.z.z.p.p.z.p.p.z.7.+.+.~ J @.O.+.+.+. .6 o O         ",
"    O o ; 0.A.v.z.p.a.a.p.z.z.p.z.z.z.z.z.z.z.z.z.z.z.z.z.p.u.w.q.O.^ H D H | @.y.a.a.a.a.a.a.a.p.p.z.p.p.p.z.z.z.z.p.z.z.z.q.+.@.[ a X.@.O.+.+.@.A O O O       ",
"    O o q m.B.z.z.p.z.z.a.a.a.a.a.a.a.a.z.a.a.a.z.a.a.p.a.z.p.z.u.a.z.a.u.q.@.X.o.q.u.a.a.a.a.a.z.p.z.z.z.q.@.z.z.p.z.z.p.z.q.+.@.[ i | +.O.+.+.@.| 1 o O       ",
"    O X h B.v.a.p.a.a.p.a.z.p.a.a.a.a.a.a.a.a.a.p.a.a.a.a.p.z.a.p.p.a.a.a.a.a.a.u.u.a.a.a.a.a.a.p.z.z.p.t.w.Q q.z.z.p.p.z.p.7.+.@.| 7 ~ @.+.+.+.O.O.a o O O     ",
"    O . V N.x.p.a.a.p.a.a.p.p.z.a.a.a.a.a.a.a.a.a.a.p.a.p.z.z.a.a.a.a.a.a.a.a.a.a.a.a.a.a.a.a.a.z.z.y.@.+.q.] F y.z.p.z.z.p.@.+.+.| 7 K +.+.+.+.@.@.J % O O     ",
"    O X S M.a.a.a.a.z.a.a.z.a.a.a.a.a.z.a.a.a.a.a.a.z.a.a.a.p.a.a.a.a.a.a.a.a.a.a.a.a.a.a.a.a.a.p.z.y.+.+.q.w.i | z.z.z.z.@.+.+.@.| 5 J +.+.+.O.O.@.] % O O     ",
"    O X V M.a.a.a.a.a.a.p.z.p.a.a.u.q.w.p.z.a.a.a.a.a.a.p.z.a.a.a.a.a.a.a.a.a.a.a.a.a.a.a.a.a.a.a.a.p.w.q.u.z.^ i w.z.p.7.+.+.+.@.K % K @.+.+.+.+.+.X.6 o O     ",
"    O X c x.9.6.7.q.y.p.z.z.z.a.p.6.+.+.w.z.a.a.a.a.a.a.a.a.a.a.a.a.a.a.a.a.a.a.a.a.a.a.a.a.a.a.a.a.a.a.a.a.z.@.s t.p.7.+.+.X.K l > : | +.+.+.+.+.@.O.y o O     ",
"    O X g 8.+.+.+.+.+.5.w.p.z.a.p.5.+.@.y.z.a.z.a.z.p.a.p.z.a.a.a.a.a.a.a.a.a.a.a.a.a.a.a.a.a.a.a.a.a.a.a.a.a.| @.p.q.+.O.Q e % o > D +.+.O.+.+.+.+.+.p o o     ",
"    O O 6 >.,.+.+.+.+.+.+.6.y.z.z.u.9.+.@.9.u.z.z.z.z.z.z.z.z.z.a.z.z.z.a.a.a.a.a.a.a.u.y.y.y.u.a.a.a.a.a.a.u.@.y.7.+.+.H % . $ s | X.+.+.+.+.+.O.+.O.p o O     ",
"    O X @ ..O.] ] { X.+.+.+.@.w.p.z.a.w.X.J S J ] X.@.5.9.9.9.6.@.O.O.q.a.a.u.t.q.q.@.@.@.+.+.@.@.y.a.a.a.a.u.t.q.+.@. .6 o $ s X.X.~ [ +.+.+.+.+.+.O.i o o     ",
"    O . X i w ; % : e b ] +.+.+.6.u.a.z.z.u.7.X.~ S b x x v V S K | +.q.q.@.@.@.+.+.+.+.+.+.+.+.@.@.w.a.a.a.a.q.O.+.+.~ % o * | @.X.] | +.+.+.+.+.+.X.e o O     ",
"    o . o X o O O o o o : l [ +.+.5.u.z.z.a.z.z.z.a.p.u.y.y.u.u.t.q.@.+.+.+.+.O.| Q H D K | O.+.+.+.@.a.a.a.w.+.+.+.@.[ % X % | +.+.+.+.| [ X.+.+.+. .1 o O     ",
"      . O O O : 1 > % O o o > D o.+.5.u.z.a.a.a.p.a.a.a.a.a.y.6.+.O.+.+. .W v y * $ $ o $ % x  .+.+.@.y.z.a.@.O.+.+.+.X.e . $ D +.+.+.o.' Q ] +.+.+.~ % o O     ",
"      X o o @ 7 7 7 7 3 % o o @ s | @.@.u.a.a.a.a.a.a.a.a.t.@.+.+.X.Q s 6 $ . . O O @ @ O o o p o.+.+.w.z.y.@.+.+.+.+.+.A o o e X.@.+.o.] ~ | +.+.@.A o O o     ",
"      X o o > 7 7 7 7 7 7 : @ o o e [ O.q.a.a.a.a.a.a.a.u.@.+.| S w % X o $ $ & 2 3 5 6 3 O o @ J +.+.w.c.@.+.+.+.+.+.+.X.i o @ D @.+.+.O.X.O.+.+.o.y o O       ",
"      $ o o > 7 7 7 7 7 7 7 3 @ $ . 7 | @.u.a.a.a.a.a.p.@.O.S 3 $ . $ $ % 3 3 7 7 7 7 7 7 % O o a +.+.w.a.@.+.+.+.+.+.+.+.| y o 6  .+.+.@.+.+.+.@.] % O O       ",
"      o o @ > 7 7 7 7 7 7 7 7 6 $ o o i O.w.a.a.a.a.p.p.+.s O o X $ % 5 7 7 7 7 7 7 7 7 7 3 O o e o.+.w.p.@.O.+.+.+.+.+.+.+.| 6 @ J +.+.+.O.+.+.+.b O O O       ",
"      $ O O % 5 7 7 7 7 7 7 7 7 3 O o % ' w.a.a.a.a.a.p.K $ o O & 7 7 7 7 7 7 7 7 7 7 7 7 3 O X 7 X.@.p.a.@.+.+.+.+.+.+.O.+.+.s O F @.+.+.+.+.@.| 5 o O         ",
"      X o o @ : 3 5 7 7 7 7 7 7 6 $ o @ K y.a.p.q.u.a.a.A o o $ 3 6 7 7 7 7 7 7 7 7 7 7 7 : o . i O.@.p.z.@.+.+.+.+.+.X.' ' X.i % ' +.+.+.+.+.+.b O O o         ",
"      X o o O @ : > 3 3 5 5 3 3 % O o % X.a.a.p.u.a.a.a.K o o $ : > 3 7 7 7 7 7 7 7 7 7 6 $ O $ S @.q.a.z.q.+.+.+.+.+.| Q Q K : l O.+.+.O.+.@.~ > o O           ",
"      O o O o o o # % % % % $ @ O o $ F q.q.w.u.p.z.a.a.@.5 o o % & > 2 3 3 7 7 7 7 7 7 : O O 5 | @.u.a.z.u.+.+.O.+.+.X.| Q e p  .+.+.+.+.+. .y o O O           ",
"    O O X i i $ o o @ O o o o . @ 7 Q ' y 3 e s s H @.a.a.| : o $ $ % & 3 3 : 3 3 5 5 : $ . + S @.@.a.a.z.a.@.+.+.+.+.+.] p v X.+.+.+.+.+.X.h O O O             ",
"    O O o D q.^ s i : % % 3 e v | w.| % O : $ $ % O s t.a.a.X.7 X X O $ % % & : : & % $ o o a X.w.a.a.a.z.c.@.+.+.+.X.K v Q O.+.+.+.+.+.X.h O O o               ",
"    O O o x p.p.u.@.@.@.@.@.u.z.a.u.p o > 7 3 6 6 % $ | z.a.z.q.S 3 O X o O O o + o X X $ a  .q.z.z.a.a.z.a.u.@.o.' H Q o.+.+.+.+.+.@.] y O O O                 ",
"      O O 5 5.z.z.p.p.z.z.z.z.z.p.t.e o 3 7 6 7 6 % o ' z.a.a.z.p.@.F i : $ o $ o $ % e H O.q.a.a.z.a.a.a.a.z.@.| | X.+.+.+.+.+.+. .S > o o o                   ",
"      O O o v y.a.y.@.z.a.a.z.z.z.a.S o % 3 % 6 3 o > @.z.a.a.a.a.a.p.q.O.~ H A S H | O.q.y.a.a.a.a.a.a.a.a.a.@.+.+.+.+.+.+.+.| b 6 O o O O                     ",
"        O o % K p.a.c.z.a.a.p.z.z.c.@.v > % @ @ $ 3 ~ p.a.a.a.a.a.a.a.a.a.a.u.u.y.y.u.a.a.a.a.a.a.a.a.a.a.z.a.@.+.+.+.+.| J i : O o O o                         ",
"          O O % Q p.z.@.p.u.@.z.a.a.z.u.@.@.o.Q ' @.a.a.a.a.a.a.a.a.a.a.a.a.a.a.a.a.a.y.u.z.z.a.a.z.a.z.x.a.w.@.+.| J s 5 @ . o O o                             ",
"          O O X % ~ z.u.p.a.p.a.a.a.z.z.z.z.z.z.z.a.a.a.a.a.a.a.a.a.a.a.a.a.a.a.a.a.t.@.@.z.z.z.p.u.y.w.@.@.| F p > @ o o o o o                                 ",
"            O o o 7 q.z.a.a.a.a.a.a.a.a.a.a.a.a.a.a.a.a.a.a.a.a.a.a.a.z.a.a.a.a.z.z.y.@.q.z.u.q.@.@. .~ v y % $ . X $ $ X                                       ",
"              O o 1 7.z.a.a.a.z.a.a.a.a.a.a.a.a.a.a.a.a.a.a.a.a.p.a.a.p.a.z.p.a.z.z.z.p.z.u.6.X.H a 5 % . . $ o o o                                             ",
"              o O ; @.z.a.a.y.q.a.a.a.a.a.a.a.w.p.a.a.a.a.a.a.a.z.z.a.a.a.a.p.z.z.p.p.z.p.w.X.i O X o o $ $                                                     ",
"              O o O ~ a.a.z.O.F p.a.a.a.a.a.u.J @.a.a.a.a.a.z.p.w.z.a.a.z.p.z.z.7.7.z.z.z.q.F O O O O o $                                                       ",
"              O O o 7 o.y.q.x e q.a.a.p.a.a.@.5 O.z.a.a.a.a.a.@.J y.a.a.p.z.p.z.~ A t.p.u.@.e o O X o o $ .                                                     ",
"                O O O 1 p w O % p | u.p.p.u.F $ ~ y.a.p.a.a.z.@.7 @.p.a.z.z.z.y.x 6 +.@.@.x O o $ 6 e 1 $ X $                                                   ",
"                  O O o o o O O . % S | J i : $ 7 b +.u.p.q. .b % A o.w.y.5.K a % % a F a $ o , n L I U f - $ X                                                 ",
"                      O o O   O O O O % $ o o o o $ 7 H F y $ o O $ 6 v A 7 O o O o o O o o O f ) _ / L N f $ X O                                               ",
"                                O o + $ X O o o X $ . $ o . o $ % O o o o X O O O 6 % O O O O L ) Y U I I U r o O                                               ",
"                                o o 5 5 X O : : + X X X $ $ $ 5 9 $ O O O O o O : 7 : o o o O n ( #.%._ U I L 1 O O                                             ",
"                                o o 5 % o % Q  .H e % $ . o X o O O O O o O o O O % : 6 > O O I #.) Y Y L N N r O O o                                           ",
"                                o $ i $ O $ > 7 i i 5 % . $ e e O O 7 x a a a h v D J D 6 O O f U Y ( E k 0 $ O O O O                                           ",
"                            o o X i b $ $ 7 7 : % % $ o $ $ | ~ $ o 1 y w 6 1 : ; ; % O O O O ; - - O O O O o o o O                                             ",
"                          O O 1 i  .a X o p D A b s i 5 X $ S s o $ % % : 1 5 1 , O O O O O O O O X 1 p e x x 6 O O o                                           ",
"                      o o o % F  .s $ X o X $ $ + $ $ $ o X X $ o $ 7 i p p i 5 ; o O - - - - O o 5 O.{ % 6 H S ; o O o                                         ",
"                      O o % O % % X X $ < > $ $ $ $ $ o $ 7 s 3 o o O O X o o O = - - - - - O o o q [ i o o O O O % O O                                         ",
"                      O o y x i : O O o < 0 < 8 8 9 8 O O h { p O O - - , , , , < 8 8 8 , O O y > X O X : l h l D ' 5 o O                                       ",
"                      O O O 5 e : O O O % O @ $ - , : O O O ; O O O < 8 8 8 9 9 9 9 9 8 ; o > } K g p b [ 5.5.5.6.5.l o O                                       ",
"                      O O @ > ; > 1 O 2 4 * * & @ @ + @ O O O O O O O ; - ; = - - - = O O O ; l F 6.y.q.6.5.5.5.5.5.h o o                                       ",
"                      O O O v X.6.K O @ & * * * * * * * * * & & & # & # ; # @ # @ & & & + O o l w.y.5.y.5.5.5.5.6.] : o O                                       ",
"                        O o @ e v y o O g r ; @ + @ # & * * & * * * * * * * * # # * * # + O O K ~ A ,.6.] 5.6.5.Q 5 o O                                         ",
"                            O o o o o 6 k.k.` E B g r 5 1 ; @ @ @ + + # + # + @ @ @ @ @ @ + O - i +.+.l { +.] l ; O O                                           ",
"                                  o o j C.C.s.4.2.1.<.3.f.;.( U P P C M B m m C C Z m k m g O o u S 3 7 v y % O O O                                             ",
"                                  O X B C.l.s.4.1.3.3.3.4.3.3.3.3.d.3.2.3.3.2.3.3.1.( E E I g ; O O X O X X O O                                                 ",
"                                    O : &.:.E Z C ) *.1.1.1.*.%.=.1.<.2.2.=.1.1.<.%.E I P E E m 9 ; ; 9 0 O O                                                   ",
"                                    O O @ % O O ; ; d Z m d q 1 t P $.*.<.%.E m q 1 q d k m t : @ O = > : O O                                                   ",
"                                      o O O O : K v : O X X X o o O 1 f t : O O : c u : O @ o o O O     o                                                       ",
"                                    O O O @ + O : 6 : O O O O O O   X o o O O O @ e e : O o O o O O                                                             ",
"                                    O O @ * & @ @ O O O O + O O O     o O # * @ O O O O O + + + O O                                                             ",
"                                    O O O O @ @ @ + O O O + O O O   O O O @ # @ # @ @ @ O O O O O O                                                             ",
"                                      O O O o O O O O O O O O O     O O O O O O O O O O O O O O X O                                                             ",
"                                                                                  O                                                                             "
};
