/* XPM */
static char *w_10_left_resized[] = {
/* columns rows colors chars-per-pixel */
"80 80 152 2 ",
"   c None",
".  c #171614",
"X  c #181715",
"o  c #1A1917",
"O  c #1B1A18",
"+  c #241B16",
"@  c #221E1B",
"#  c #2A1F1A",
"$  c #23211E",
"%  c #2D211C",
"&  c #33241D",
"*  c #1F2121",
"=  c #252422",
"-  c #292622",
";  c #2C2925",
":  c #232729",
">  c #25292C",
",  c #2C2B2A",
"<  c #312C27",
"1  c #3C2B23",
"2  c #322E29",
"3  c #35322C",
"4  c #3A342D",
"5  c #272D31",
"6  c #292E31",
"7  c #2F3031",
"8  c #323334",
"9  c #3A3731",
"0  c #3D3933",
"q  c #353739",
"w  c #35383A",
"e  c #3A3B3B",
"r  c #413C36",
"t  c #443F38",
"y  c #46413A",
"u  c #4A453D",
"i  c #4D483F",
"p  c #3C3E41",
"a  c #3F4144",
"s  c #3E4348",
"d  c #414345",
"f  c #4E4941",
"g  c #424549",
"h  c #47484B",
"j  c #4D4E4E",
"k  c #534D44",
"l  c #565047",
"z  c #57524B",
"x  c #5B544A",
"c  c #5F584E",
"v  c #474B51",
"b  c #4A4E54",
"n  c #4D5054",
"m  c #4F5358",
"M  c #5E5A54",
"N  c #51555C",
"B  c #615A4F",
"V  c #645D52",
"C  c #676054",
"Z  c #696256",
"A  c #6D6559",
"S  c #70675B",
"D  c #736A5D",
"F  c #565C63",
"G  c #595E65",
"H  c #595F68",
"J  c #5C6067",
"K  c #5D636B",
"L  c #6E6962",
"P  c #61656D",
"I  c #67686A",
"U  c #766D61",
"Y  c #786F61",
"T  c #7C7364",
"R  c #7B766E",
"E  c #7D786F",
"W  c #606771",
"Q  c #646B74",
"!  c #6A6E75",
"~  c #6C727B",
"^  c #70757F",
"/  c #807667",
"(  c #817768",
")  c #857B6C",
"_  c #897E6E",
"`  c #807B72",
"'  c #8A806F",
"]  c #868076",
"[  c #8D8271",
"{  c #8C877E",
"}  c #918675",
"|  c #948877",
" . c #968A79",
".. c #998D7B",
"X. c #9D917E",
"o. c #707781",
"O. c #757B85",
"+. c #787E88",
"@. c #7C828D",
"#. c #7F8691",
"$. c #8F8A80",
"%. c #838588",
"&. c #938D82",
"*. c #9F9280",
"=. c #9B958A",
"-. c #808792",
";. c #838995",
":. c #868D9A",
">. c #888F9B",
",. c #8B929D",
"<. c #929598",
"1. c #A29583",
"2. c #A69986",
"3. c #A89B87",
"4. c #A79D8F",
"5. c #AB9D8A",
"6. c #A19A90",
"7. c #AEA18C",
"8. c #B1A38E",
"9. c #AEA496",
"0. c #B4A691",
"q. c #B7A893",
"w. c #BAAB96",
"e. c #B1A99E",
"r. c #BDAE99",
"t. c #BFB09A",
"y. c #8F95A1",
"u. c #949AA4",
"i. c #9DA0A4",
"p. c #9CA2AB",
"a. c #B5AEA2",
"s. c #BBB3A7",
"d. c #BFB7AA",
"f. c #C0B19B",
"g. c #C5B8A5",
"h. c #C8BAA7",
"j. c #C7BCAC",
"k. c #CBBEAC",
"l. c #C6BEB1",
"z. c #C8BEB0",
"x. c #CCC0AE",
"c. c #CEC3B2",
"v. c #CEC5B8",
"b. c #D1C6B5",
"n. c #D0C7BA",
"m. c #D4CABB",
"M. c #B8BCC3",
"N. c #C2C6CD",
"B. c #D7CEC0",
"V. c #D8CFC1",
"C. c #DAD1C3",
"Z. c #C5C9D0",
/* pixels */
"                                                                                                                                                                ",
"                                                              O O O O O O O O O o o O O O                                                                       ",
"                                                  o O O O O X O O . O O o o o o o o o o O O o O O O O o                                                         ",
"                                          O O o o o . o O = 3 0 u k l l x c x c x k i y 9 2 - $ O o o o o o O O O                                               ",
"                                    O O O o X + - e M R &.4.0.q.w.r.r.q.7.3.1......... . .[ ) / S c i 4 ; O O X O O O O                                         ",
"                              O o o X O @ q V | e.c.c.k.g.f.f.f.t.t.t.t.t.r.w.0.3.X...........X.......} ) Y c y , O O X O o O                                   ",
"                          o O o X @ e U 6.l.m.m.c.g.f.t.f.t.t.r.w.r.t.t.t.t.t.t.f.q.8.2.X...............X.......[ D x 4 $ O o O o                               ",
"                      o O o o , M =.l.V.C.n.h.f.r.t.r.t.f.t.w.2.*.3.r.t.t.t.t.t.f.f.f.f.q.8.X.....................X...[ T k 2 O o O O                           ",
"                    O O o , U a.m.C.C.b.h.f.f.f.f.f.f.f.f.f.8.....X.w.f.f.r.f.r.f.f.r.f.r.f.w.8.2.X. . ... ... ............._ C 9 O O O O                       ",
"                o O O O z e.V.C.V.b.h.f.f.f.f.f.0.5.f.f.f.f.f.3.1.7.t.t.r.f.r.f.f.r.f.r.f.r.f.f.r.q.7.X...X. .X.................[ C 2 O o O O                   ",
"              O O o = R v.C.C.B.h.f.f.f.f.f.| A i B V | X.1.8.f.r.t.t.t.f.r.r.f.f.r.r.f.f.f.f.r.f.f.f.w.8.X.X. ...................X.' k $ o O o                 ",
"            O O o ; $.B.C.C.n.g.0.f.f.f.X.D B / X.D r r r r k / 0.f.t.t.f.r.f.r.r.f.f.r.r.f.r.f.r.f.f.f.f.w.8.X.............' '  ..... .Z - o O O               ",
"            O o = &.B.C.C.c.g.r.f.f.f.f.7.X.f.f.7.t r r 4 4 4 4 B 0.f.r.f.r.r.f.f.r.f.f.f.r.f.r.f.r.f.r.r.f.f.w.8.X.......| T T } ........D - o O O             ",
"          o o @ E B.C.C.c.t.r.r.f.f.f.7.X...f.f.f.D r & 4 4 4 4 r 1.f.f.r.f.f.r.r.f.r.8.8.r.r.f.r.f.r.f.f.r.r.f.f.w.5.X.....| ' }  .........Z $ O O             ",
"        O O O M n.C.V.x.t.t.t.t.f.f.f.f.7.7.X. .0.f._ i 4 4 4 r S q.f.r.f.r.f.f.f.f.8. .X.r.f.f.r.f.f.f.r.f.r.f.f.r.r.8.X.X. .( T ' ........ .f O O O           ",
"        O o 8 a.C.C.x.t.t.t.t.t.f.f.f.f.f.f.x r / X.X.X.) D Y ..w.f.f.f.r.f.r.f.f.r.w.8.q.f.f.r.f.r.f.r.f.r.f.f.r.f.f.f.w.X.| T U ) ..........' 3 o O o         ",
"      O O O E C.C.x.t.t.t.t.t.t.r.q.7.3.1.*.D x / ) ) X.q.r.f.f.f.f.f.f.r.f.r.f.f.r.f.f.r.f.f.r.r.f.f.r.f.r.f.r.f.r.f.r.f.0.X.' ' }  ...........A $ . o         ",
"      o o 3 d.C.c.f.t.t.t.t.t.t.8...[ ( T D D Z B l k k k x V D ) X.7.r.f.f.f.f.r.f.r.r.f.r.f.f.f.r.r.f.r.f.r.f.f.f.f.r.r.f.7..... .T  .........| y o o O       ",
"    O O O A C.n.f.f.t.t.t.t.t.t.t.t.t.t.t.t.t.t.r.w.0.8.3.1.} / S B x B D | 7.w.f.f.r.f.r.f.f.r.f.r.f.r.r.f.f.f.r.f.r.f.f.f.w.X.....V ) ..........D $ o O       ",
"    o O O =.C.g.r.t.t.t.t.t.t.t.t.t.t.t.t.t.t.t.f.f.f.f.f.f.f.f.f.w.q.X.} T S T  .8.r.f.r.f.r.f.f.f.r.f.f.r.q.f.f.r.f.r.f.f.f.X. ...B Z ..........} y o O O     ",
"    o o , s.n.t.t.t.t.t.t.t.t.t.t.t.t.t.t.t.t.t.f.f.r.f.r.f.r.f.r.r.f.f.f.f.w.8.X.X.r.f.r.f.f.r.r.f.f.f.f.w.| 0.f.w.r.f.f.r.w.X. .X.B l ............C O O O     ",
"    o o 0 l.g.t.t.t.t.t.t.t.t.t.t.t.t.t.t.t.t.t.r.f.f.r.f.r.f.f.f.f.f.r.f.f.f.f.f.f.f.f.f.r.r.f.f.r.f.q.7.0. .Y f.f.f.f.f.f.q.X.....V y  ...........' & O O     ",
"    O o y c.f.f.t.t.t.t.t.t.t.t.t.t.t.t.t.t.t.t.f.r.f.r.r.f.f.r.f.r.f.r.f.r.f.r.f.f.f.f.r.f.r.f.r.f.r.3. .X.0.l ' f.w.f.f.f.3.....X.V r | .......... .y X O     ",
"    o . d j.f.f.f.t.t.t.t.t.t.t.t.t.r.w.t.t.t.t.r.f.r.f.f.r.r.f.r.f.r.f.r.f.r.f.r.r.f.r.f.r.f.r.f.r.r.3...X.f.) y 7.f.f.f.8.......X.l 9 | .... .......x O O O   ",
"    O o y j.q.9.0.q.r.t.t.t.t.t.t.0.1.*.0.t.t.t.t.t.t.t.f.r.f.r.f.r.f.r.f.r.f.r.f.f.r.f.r.f.f.f.r.f.f.q.0.q.f.q.i / f.f.8.X..... .' 9 y  . .........X.S O O O   ",
"    o o 0 9.*.....X.1.7.w.t.t.t.t.3.....3.t.t.t.t.t.t.t.f.r.r.f.f.f.f.r.r.f.r.f.r.f.f.r.f.r.r.f.f.f.f.f.f.f.f.q.B  .f.8.....| Y l 3 O B  .X...........T $ o O   ",
"    O o , &.X...........X.8.r.f.f.0.*...0.t.f.t.t.t.t.t.f.f.f.f.r.f.r.r.f.r.f.f.f.r.f.f.f.f.r.r.f.r.f.r.f.f.f.3.' w.7...../ y $ X $ l ' X. ...........T $ o O   ",
"    O o O ] *... ...........2.q.t.t.w.2.) ( [ 1.0.w.t.t.f.f.f.f.f.f.r.r.r.f.f.r.f.r.q.0.7.7.7.8.q.r.r.f.r.f.f.X.q.7.....) 2 . X r T  .}  ...........X.T $ o O   ",
"    O X . M Z y r i V ( ......X.0.r.t.t.q.X.T V x c Z S Y T T T T T ' X.0.w.0.7.3.X.X.............3.w.f.r.f.r.0.8.......l o o r ' ..( T [ ............Y $ o o   ",
"    o . . @ O o . o o - u D  ...X.3.t.f.t.f.f.w.5.*.[ ) T T / _ | X.*.1.X.X..................... ...X.r.f.r.f.8... ... .r X O B X. .' ) | ............Z O O O   ",
"      . o O o @ $ $ O O o $ i ) ....3.t.t.t.t.t.t.f.f.f.s.f.f.r.7.X.......X.| ' Y B i y i V ) ......X.q.f.f.w.X....... .y X o x X. . ...| ) ' ........l o o O   ",
"      . O O O 3 4 4 2 $ O o o 3 D ..X.3.t.t.t.t.t.t.t.t.f.r.8.X...X.X.} Y x r % $ o o X o o < S .. . .7.f.f.3. .......X.B o X y | ......) T T | ....| r o O     ",
"      X o o - 4 4 4 4 4 < @ O o $ B  ...0.t.t.t.t.t.t.t.t.8.....| E c 4 $ O o o O $ $ $ $ o o % T ....7.t.w.X...........' < X $ T ......_ T ) | ....) ; o O     ",
"      o o o ; 4 4 4 4 4 4 3 - O O $ i | X.w.t.t.t.t.t.t.0.X.| D u $ o o o O $ % 2 4 2 4 4 $ o X i  ...X.r.7... ......... .Z $ X y | .... .| | ....X.Z O o O     ",
"      O O o - 4 4 4 4 4 4 4 4 - O O O V ..0.t.t.t.t.t.t.X.' u @ o O O $ % 3 9 4 4 4 4 4 4 < O X 2 ' ..7.r.7. ............. .B $ O D ............X. .y o O o     ",
"      o O O - 3 4 4 4 4 4 4 4 4 - O o - ' 7.t.t.t.t.t.t. .r o o O $ 2 4 9 4 4 4 4 4 4 4 4 2 $ X $ )  .7.r.7....... ...........l o f ..............( $ o O       ",
"      O O O @ ; 4 4 4 4 4 4 4 4 3 @ O O S 8.t.t.w.w.t.t.Y O O O % 4 4 4 9 4 4 4 4 4 4 4 9 3 O o ; ' X.0.t.7............. .| ..A O u ............ .k o O O       ",
"      X o O O $ ; < < 3 3 4 4 4 2 @ O O D t.t.r.7.q.t.f.S o o * ; 2 2 4 4 4 4 4 4 4 4 4 2 ; O o 9 [ X.w.r.7. ......... .' T [ B O Z ..........X.T $ o O         ",
"      O . o o o @ - - ; ; - - $ O O o 4 X.f.f.f.t.t.t.f.[ $ o O $ < < 3 4 4 9 4 4 4 4 4 4 $ O O x  .7.t.t.0...........} T Y T 3 0 [ ..........[ r O O o         ",
"    O O o < $ o o O + @ @ @ O O . O 9 ' [ Y ' X.X.0.f.f.w.i o O O $ ; ; & 2 2 2 4 2 9 9 % o o < ' X.0.t.t.w.X......... .' T y 0 ) .......... .x O O O           ",
"    O O O C T y $ O o O . . O $ r D  .i * @ @ $ = 9 ' t.t.7.i o O O $ $ % ; ; < ; 2 < $ O O O V ..7.t.t.t.r.7...........' i i | ............V $ o O             ",
"    O O o A t.7.| Y B l x C T  .0.t.C O $ 3 - - < O - X.t.t.8.V % O O O @ $ $ - $ $ $ O O @ i | 7.r.t.t.t.r.7.......| D l D ..X......... .c $ O O O             ",
"    O O o i r.t.f.f.r.t.r.t.f.f.f.0.0 O 2 4 3 4 4 $ o T t.t.f.w.} k - O X X o O O O O o $ x } 7.r.r.t.t.t.t.w.X.} ' A Y } ............[ f O O O o               ",
"      O o $ } f.t.q.7.t.t.t.f.t.t.0.t . < 4 2 4 3 $ O ' f.t.t.t.t.0.| C y 2 $ @ @ $ 3 i T X.7.r.t.r.t.t.t.t.w...' ' } ..........X.[ Z 3 O O O                   ",
"      O O o 9 7.f.w.w.t.t.t.t.t.t.t./ @ O $ @ ; = o t 7.t.t.t.t.t.t.t.w.7.X.' E T '  .3.0.r.t.t.t.t.t.t.t.t.t.7...............' B 4 O O O O                     ",
"        O O o u 7.f.r.0.t.w.8.r.t.t.w.' i i r ; < i X.f.t.t.t.t.t.t.t.t.t.t.t.r.r.r.t.t.t.t.t.t.t.t.t.t.t.r.t.7....... .' S u % O o O O o                       ",
"          O o o i 7.r.7.r.w.0.t.t.t.f.f.t.t.0.X.7.q.f.t.t.t.t.t.t.t.t.t.t.t.t.t.t.t.r.0.q.t.t.t.t.t.t.t.r.w.7.X. .' A u ; @ X o O O                             ",
"            O O o c r.t.t.t.t.t.t.t.t.t.t.f.f.f.f.t.t.t.t.t.t.t.t.t.t.t.t.t.t.t.t.t.8...1.r.t.t.r.q.0.7.7. ./ V y - @ o o O o o                                 ",
"              O o r q.t.t.t.t.t.t.t.t.t.t.t.t.t.t.t.t.t.t.t.t.t.t.t.t.t.t.t.t.t.t.t.q.7.0.t.q.7.X. .' A k 3 $ O O X O O O                                       ",
"              O o 9 0.t.t.t.t.t.t.t.t.t.t.t.t.t.t.t.t.t.t.t.t.t.t.t.t.t.t.t.t.t.t.t.t.t.t.w.X.' x 0 - o X O O O O O                                             ",
"              O o ; 2.t.t.t.*.X.f.t.t.t.t.t.r.X.w.t.t.t.t.t.t.t.t.t.t.t.t.t.t.t.t.t.t.t.t.8.[ 9 o o o o O O                                                     ",
"              O O O D t.f.t.V C t.t.t.t.t.f.7.i 7.f.t.t.t.t.t.7.7.t.t.t.t.t.t.t.X.X.t.t.t.7.V O O o O O @                                                       ",
"              O O O ; D | Y - 0 ..r.t.t.f.f.T ; ..f.t.t.t.t.f...c q.t.t.t.t.t.t.A l 7.q.q.| 3 X o o X X O O                                                     ",
"                O O O O = O O O - C 7.0.7. .t = / X.t.t.f.t.f.' 3  .q.t.t.r.q.7.y 9 | X.| u X X = p s w * X @                                                   ",
"                  o O o O O O O . * u c 9 $ O O = u ' 7.7.[ C 9 $ l ' 7.7.' k 3 @ $ r x 9 O o 7 F J F J v : o o                                                 ",
"                              O O O . O X O O O O o - i t = . o X O $ r y $ X X X X X X o o O s Q ~ Q H F v = o O                                               ",
"                              O O O - @ X O . X X O o X o o @ : * @ o o o o O O $ 9 $ O O O $ F o.W K F F F a O O O                                             ",
"                                O = C $ O - i r = O o o O o * > * @ O O O o o O > 2 $ O O O O v W ~ o.o.K W K e O O                                             ",
"                              O o i V O X 9 Y ) U t - @ O o X O @ O O O O O O @ $ - 3 9 < O O N O.o.Q W F b s 7 O O O                                           ",
"                          o o o - | i X O O O * = ; = @ o = V r O @ k M z l k l c C A l $ O O w N N K J s * O O O O                                             ",
"                        O O = 3 / 7.< . - x l u 9 < = @ o 3 7.i X O - - - = * $ * O @ O o O o $ * * o o O $ @ O o O                                             ",
"                    O O o $ D | V t * . $ 9 i i i u 9 = o - l ; o $ 7 3 9 9 9 3 = O o O O O * o O o > j u f S x ; O O                                           ",
"                    O O $ O ; , O . o O * o . . o o O O o O o o O $ 9 0 r 0 3 - * o o * * * * * o $ ) *.2 O y z ; X O O                                         ",
"                    O O f f 4 O o O o * w > : : : : * O O C C = O O o o o o O O * * * > 6 * O o o $ C l O o O X @ 4 ; O O                                       ",
"                  O O O $ 0 y $ o O O O : = > 6 6 6 : O @ c V - O O > > : > > > 5 5 6 6 6 * X 2 r O o o = l A A T ..A O O                                       ",
"                  O o O = $ O = r = @ - % @ @ O O * @ O O O O O O * > 6 5 5 6 6 5 5 5 5 > O o V } x l V ) 1.2.2.1.2._ - O                                       ",
"                    O o 0 ( [ 1.3.0 + 1 1 & & % % % @ @ @ O O O O @ O @ O * @ * O * O * O O O 9 x } q.q.5.1.1.1.1.2.T $ O                                       ",
"                      O O 4 V ) [ ; o O @ % % & & & & & & & & & % % % # - # # + # % % + + + O - [ w.*.5.5.1.1.1.2. .0 o O                                       ",
"                        O o o O = O O n ! h , $ @ + @ # % # & & & & & & & & & # & ; & + + + o 4 ) c D 0.( } 2.2._ r O O                                         ",
"                              O o O O %.Z.i.@.~ P N h h e , = $ $ @ @ @ @ + + + + + @ @ @ * O O = A 5.A l ..) x ; o O                                           ",
"                                  O = i.N.p.u.,.:.:.>.p.p.@.^ ! ~ I J G F F F G H F b b N N 6 O @ k i @ t r = X O O                                             ",
"                                  o = <.M.u.;.@.;.:.;.:.:.>.>.>.y.,.:.:.:.:.:.:.>.+.P H K K N q * O X O O X o o                                                 ",
"                                  o o d I n a e h ! @.;.#.+.! o.;.-.;.:.;.-.:.-.+.! K G H K H N e 8 8 q = O O                                                   ",
"                                    o o o o X % - = e p 6 = * = a K o.@.+.P b q > > 8 d b g 8 @ O @ = 6 $ O                                                     ",
"                                      O o o X B ..V 0 @ X O O O X O , e , O O o k B t = @ O X O O O   O o                                                       ",
"                                    o o @ O X , f k r = O X O O O   O X X O O O r V l 2 O O O X O O                                                             ",
"                                  O O O & % @ O O . o O O o o O O   O O @ % @ + X X o o o O + + O o                                                             ",
"                                  O O O @ @ @ # @ + + O o + o O     O O O # % # # @ @ + + O o o O O                                                             ",
"                                  O O O O O o O O O O O O O O O     O O O O o O O O O O O O O O O O                                                             ",
"                                                O O                       O O O O o O O o O                                                                     "
};
