/* XPM */
static char *w_6_left_resized[] = {
/* columns rows colors chars-per-pixel */
"80 80 154 2 ",
"   c None",
".  c #151412",
"X  c #181715",
"o  c #1A1917",
"O  c #1C1A18",
"+  c #211A16",
"@  c #291C17",
"#  c #221E1B",
"$  c #281F1A",
"%  c #23211E",
"&  c #2C211C",
"*  c #33241D",
"=  c #1F2021",
"-  c #242422",
";  c #292622",
":  c #2D2925",
">  c #212629",
",  c #252A2D",
"<  c #2C2B2A",
"1  c #362720",
"2  c #312D27",
"3  c #3D2B24",
"4  c #322E29",
"5  c #35312C",
"6  c #3A342D",
"7  c #272D30",
"8  c #292F32",
"9  c #2E3032",
"0  c #2F3538",
"q  c #333435",
"w  c #3A3731",
"e  c #3D3933",
"r  c #353638",
"t  c #37383A",
"y  c #3A3C3E",
"u  c #413D36",
"i  c #433F38",
"p  c #46423B",
"a  c #4A453D",
"s  c #4D483F",
"d  c #3C3D40",
"f  c #3F4145",
"g  c #414346",
"h  c #494641",
"j  c #4E4941",
"k  c #44464A",
"l  c #46484D",
"z  c #534D44",
"x  c #524E48",
"c  c #565047",
"v  c #585147",
"b  c #575148",
"n  c #5B544A",
"m  c #5F584E",
"M  c #474C51",
"N  c #4A4D52",
"B  c #4E555C",
"V  c #5A5751",
"C  c #5E5A53",
"Z  c #51555B",
"A  c #55595F",
"S  c #60594E",
"D  c #645D52",
"F  c #676055",
"G  c #6A6256",
"H  c #6E665A",
"J  c #70675B",
"K  c #736A5D",
"L  c #555B63",
"P  c #595E65",
"I  c #595F68",
"U  c #5C6067",
"Y  c #5D636B",
"T  c #6F6A63",
"R  c #61676F",
"E  c #63686F",
"W  c #766E61",
"Q  c #786F61",
"!  c #746F68",
"~  c #7C7365",
"^  c #7A756D",
"/  c #606771",
"(  c #656B74",
")  c #686D76",
"_  c #696F79",
"`  c #6B727C",
"'  c #7F7A72",
"]  c #70757E",
"[  c #807667",
"{  c #817768",
"}  c #857B6B",
"|  c #897E6E",
" . c #8A7F70",
".. c #8A806F",
"X. c #858077",
"o. c #8D8272",
"O. c #89847B",
"+. c #918675",
"@. c #948877",
"#. c #968A79",
"$. c #998D7B",
"%. c #9D917E",
"&. c #717782",
"*. c #737A84",
"=. c #797D83",
"-. c #797F89",
";. c #7F8691",
":. c #86898C",
">. c #9F9280",
",. c #9C958A",
"<. c #808792",
"1. c #838A95",
"2. c #8A8D92",
"3. c #868D99",
"4. c #888F9B",
"5. c #8D9093",
"6. c #8B919D",
"7. c #A29583",
"8. c #A69986",
"9. c #A89B87",
"0. c #A39889",
"q. c #AB9E8A",
"w. c #A49D92",
"e. c #AEA18C",
"r. c #B1A38E",
"t. c #AFA89D",
"y. c #B4A691",
"u. c #B7A893",
"i. c #BAAB96",
"p. c #BDAE99",
"a. c #BFB09A",
"s. c #9197A2",
"d. c #9399A4",
"f. c #A0A3A9",
"g. c #A6AAAF",
"h. c #B4ADA1",
"j. c #BEB6AA",
"k. c #ABAEB3",
"l. c #B5B9BE",
"z. c #C0B19B",
"x. c #C4B6A2",
"c. c #C8BBA7",
"v. c #C3BBAE",
"b. c #C9BDAB",
"n. c #CDC0AE",
"m. c #CEC3B3",
"M. c #CFC6B9",
"N. c #D2C7B6",
"B. c #D4CBBC",
"V. c #D8CEBF",
"C. c #B9BEC4",
"Z. c #C0C5CB",
"A. c #D8CFC1",
"S. c #DAD1C3",
/* pixels */
"                                                                                                                                                                ",
"                                                        O O O O o O O O o o o O o O o O O O O O O                                                               ",
"                                              O O o O o O X X o O # % - ; ; ; - ; % % O O o o o o o O o o O o                                                   ",
"                                        O O o o o o % < i x D ! ~ ~ { { } } } } { ~ ~ K G S z p w : - O o o o o O O O                                           ",
"                                  o O O X X - w V ' ,.u.p.p.a.a.z.a.i.u.q.7.%.%.$.$.%.$.$.%.$.@.@.o.~ K n p 5 % O o o o O O                                     ",
"                            O O o X o ; h ^ w.c.N.b.x.z.a.a.a.a.a.a.a.a.z.p.u.r.9.%.$.$.$.$.$.$.$.$.%.$.$.$.+.~ F a 4 # o o o O O                               ",
"                        O O o X # g ^ t.M.A.N.c.z.a.a.a.a.p.u.u.a.a.a.a.a.a.z.a.p.i.r.8.%.$.$.$.$.$.$.#.$.$.$.$.$.$...K z < O o O O O                           ",
"                    O O X O < D w.m.S.V.m.x.z.z.a.a.a.a.p.q.>.>.u.a.a.a.a.a.a.a.a.a.z.z.u.e.7.$.$.$.$.$.$.$.$.$.$.$.$.$.$.| G e # o o O                         ",
"                  O O X < ! h.A.S.V.m.z.z.z.z.z.z.z.z.z.p.7.#.$.e.a.a.a.a.a.a.a.a.a.a.a.a.a.p.u.e.%.$.$.$.$.$.$.$.$.$.$.$.$.$.+.G w O o o O                     ",
"              O O o = C h.S.S.A.N.z.z.z.z.z.z.r.u.z.z.z.z.r.9.q.p.a.a.a.a.a.a.a.a.a.a.a.a.a.a.a.p.i.r.%.$.$.$.$.#.$.#.$.$.$.$.$.%.+.S ; o O O                   ",
"            o O o :  .M.S.S.B.b.z.z.z.z.u.o.S z S } %.%.7.u.z.z.a.a.a.a.a.a.a.a.a.a.a.a.a.a.a.a.z.z.z.p.y.8.%.$.$.$.$.$.#...| #.$.$.$.Q 6 o o o                 ",
"          O o o < ,.A.S.S.N.x.a.z.z.i.o.S S } @.s 6 u u u S +.u.a.a.a.a.a.a.a.a.a.a.a.a.a.a.a.a.z.p.p.z.z.z.u.8.%.$.$.$.@.~ ~ @.$.$.$.%.} w o o O               ",
"        O O X < ,.S.S.A.m.x.p.p.z.z.r.$.q.z.z.{ u 3 3 6 6 5 u ~ p.a.a.a.a.a.p.a.a.p.p.p.a.a.a.a.p.z.p.z.z.p.z.p.u.8.%.$.$.+.o.+.#.$.$.$.%.~ 4 o O o             ",
"        O o % O.S.S.A.n.z.a.a.a.z.z.q.%.q.z.z.%.s u 6 6 6 6 3 v i.a.a.a.a.a.a.a.z.r.7.q.p.a.a.a.z.p.p.z.p.z.p.z.z.p.r.%.$.#.{ Q } $.$.$.$.$.K % o O             ",
"      O O o H B.S.A.m.a.a.a.a.a.z.z.y.%.e.q.e.z.q.J u 5 5 6 a @.a.a.a.a.a.a.a.a.z.r.%.9.a.a.a.a.z.p.z.p.p.z.p.z.z.z.z.u.%.$.[ Q } $.$.$.$.$.#.n O O O           ",
"      O o t j.S.A.m.z.a.a.a.a.a.z.z.z.z.9.a s $.%.%.@.~ K } 9.z.a.a.a.a.a.a.a.a.a.p.i.p.a.a.a.a.z.z.p.z.z.p.z.p.z.p.z.z.p.%.....@.@.#.$.$.$.%.o.w o O o         ",
"    o O O O.S.S.N.z.p.a.a.a.a.a.a.p.i.u.8.D m | o.o.9.i.p.z.z.z.a.a.a.a.a.a.a.a.a.a.a.a.a.a.a.a.p.z.p.z.z.p.z.p.z.p.z.p.z.y.$.$.$.~ ..%.$.$.#.$.K % o O         ",
"    o o e v.S.N.z.a.a.a.a.a.p.e.#.} W H D D m v z z z v m D J ~ +.>.y.a.a.a.a.a.a.a.a.a.a.a.a.a.z.p.z.p.z.z.p.z.z.z.z.p.p.p.%.$.%.K G %.$.$.$.$.@.a X O O       ",
"  O o o ! S.V.x.p.a.a.a.a.a.p.u.y.y.u.u.u.u.u.r.r.q.q.7.$.@.{ W G m m F ~ $.e.i.a.a.a.a.a.a.a.a.z.p.p.z.z.p.z.z.p.z.p.z.z.z.e.$.$.~ s @.$.$.$.$.%.Q % O o       ",
"  O o - w.S.b.a.a.a.a.a.a.a.z.a.a.a.p.a.p.p.z.z.z.z.z.z.z.z.z.z.a.i.y.>.+.} ~ ..%.u.a.a.a.a.a.a.p.z.p.z.z.%.e.z.z.p.z.p.z.z.e.$.$...w ..$.$.$.$.$.@.p O O O     ",
"  o o q v.B.z.a.a.a.a.a.a.a.a.a.p.z.p.z.z.p.z.p.p.z.p.z.p.z.p.z.a.a.a.a.a.a.a.u.y.u.a.a.a.a.a.a.z.z.z.u.u.8.Q u.z.p.z.p.p.p.%.$.$...6 ~ $.$.$.$.$.$.F O o O     ",
"  o X h M.b.p.z.a.a.a.a.a.a.a.a.z.p.z.p.p.z.p.z.z.z.z.p.z.p.z.p.a.a.a.a.a.a.a.a.a.a.a.a.a.a.a.a.z.p.u.%.%.y.J Q p.z.p.z.z.y.%.$.$.+.w G $.$.$.$.$.$...: X O     ",
"  O X x N.z.a.a.a.a.a.a.a.a.a.a.p.z.p.z.z.z.z.a.z.p.z.p.p.z.z.z.a.a.a.a.a.a.a.a.a.a.a.a.a.a.a.a.p.p.e.#.$.e.%.p +.z.z.z.z.%.$.$.$...4 D %.$.#.$.$.$.@.u X O     ",
"  O o x m.z.a.a.a.a.a.a.p.a.a.a.p.z.z.z.p.p.a.a.p.z.p.z.p.z.p.z.a.a.a.a.a.a.a.a.a.a.a.a.a.a.a.a.z.z.i.e.e.i.z.~ s y.z.p.e.$.$.$.$.K % G $.$.$.$.$.$.$.c O O O   ",
"  O X h v.z.z.z.z.z.a.a.a.a.a.a.p.r.9.u.p.z.z.p.z.p.z.z.z.p.z.p.a.a.a.a.a.a.a.a.a.a.a.a.a.a.a.a.a.a.a.a.a.a.a.$.s y.p.8.$.$.o.G p % & ~ %.%.$.$.$.$.%.D O O O   ",
"  O o i x.u.q.q.e.u.p.a.z.p.a.a.r.$.$.7.p.z.p.z.p.z.z.p.p.z.p.z.a.a.a.a.a.a.a.a.a.a.a.a.a.a.a.a.a.a.a.a.a.a.a...@.z.e.$.$.Q 6 + X 4 H $.$.$.$.$.$.$.$.J O o O   ",
"  X O 4 w.%.$.$.$.$.7.e.p.a.a.a.r.$.$.9.z.z.p.z.z.z.p.z.z.z.z.z.a.a.a.a.a.a.a.a.a.a.a.i.a.a.a.i.a.a.a.a.a.a.i.%.i.e.#.$.Q & o O s ..@.@.$.$.$.$.$.$.$.K O O O   ",
"  O O - X.>.$.$.$.$.$.$.7.r.p.a.p.u.7.@.$.q.u.p.z.z.z.z.z.z.z.z.a.a.a.i.a.a.a.a.u.y.e.e.>.>.%.e.e.i.a.a.a.a.u.y.e.$.$.@.p o o s @.@.~ ~ +.$.$.$.$.$.%.K O O O   ",
"  O O X T 0.@.o.o.#.$.$.$.$.8.i.z.z.p.9.} H D D J ~ } | o. .} { ~ ~ o.e.u.y.e.>.%.$.$.$.$.$.$.$.$.%.u.a.a.a.a.y.%.$.$.o.4 o O K $.#.| } $.$.$.$.$.$.$.D O O O   ",
"  O o . p D w < 4 u m ~ #.$.$.>.r.p.z.z.z.i.q.$.} W H G G H W } $.7.7.>.%.$.$.$.$.#.+...o.#.$.$.$.$.7.a.a.a.u.%.$.$.$.+.w X O F %.$.$.$.+.{ } @.$.#.$.c o o o   ",
"    X . O O X O o o o % u K #.$.$.e.p.z.z.p.z.z.z.z.z.z.z.z.z.i.e.$.$.$.$.#...K n u 5 : 4 p K @.$.$.%.y.a.a.e.#.$.$.$.$.c O o p #.$.$.%.} Q ~ +.$.$.@.p o O     ",
"    . o O O O ; ; % O o o % a { $.$.q.p.p.z.z.p.z.z.z.p.z.p.q.%.$.$.$...G p : = o X o o o X % n @.$.#.e.a.u.%.$.$.$.$.$.~ ; o % Q $.$.%...~ } #.$.$...2 o O     ",
"    . o O + : 6 6 6 4 % O O X 2 G $.$.e.a.a.a.a.a.a.a.a.i.e.$.$.@.~ z : O o o O % % & & % % o % J $.$.8.a.y.$.$.$.$.$.$.#.S % X u @.$.$.$.@.#.$.$.$.K % O O     ",
"    . O O O 5 6 6 6 6 6 2 % O O % s +.$.y.a.a.a.a.a.a.a.e.%.@.J u % o o O % % : 5 6 6 6 6 % o o p +.$.8.u.e.$.$.$.$.$.$.$.@.m % O D $.$.$.$.$.$.$.$.v O o O     ",
"    . O o % 5 6 6 6 6 6 w 6 & O X O s +.%.a.a.a.a.a.a.i.%.o.a % o O O % : 6 w 6 6 6 6 6 w 2 O O & ..$.e.a.e.$.$.$.$.#.$.$.$.$.S O e @.$.$.$.#.$.%.o.5 o O       ",
"      O o O 5 6 6 6 6 6 6 6 6 : O O O n $.i.a.a.a.a.a.i.@.e X O O ; 4 6 6 6 6 6 6 6 6 6 6 5 O O % ~ @.e.a.e.$.$.$.$.$.$.$.#.#...% 5 o.$.$.$.$.$.$.H O o O       ",
"      O O O : 6 6 6 6 6 6 6 6 6 : O X : o.y.a.a.a.a.a.a.J O X O & 6 6 6 6 6 6 6 6 6 6 6 6 4 O o % ..%.y.a.y.$.$.#.$.$.$.o.{ o.{ % u #.$.$.$.$.$.+.e o O o       ",
"    . o O O % : 5 6 6 6 6 6 6 6 6 O O % ~ u.a.i.e.i.a.a.F O O % : 4 6 6 6 6 6 6 6 6 6 6 6 4 O o 4 o.%.u.a.u.%.$.$.$.$.#.~ Q ~ n % K $.$.$.$.$.%.D O O O         ",
"    . o O O O % : 4 2 2 6 4 5 5 % O X % @.a.a.a.i.a.a.a.{ O O O ; : 4 4 5 6 6 6 6 6 6 6 6 % o o z $.e.a.a.a.%.$.$.$.$.$...~ H 2 m #.$.$.$.$.$.~ : o o o         ",
"    o . X O O O % % & * : % % O O O O D y.e.y.a.i.a.z.a.e.a X X % % & : * 2 5 5 5 5 6 5 : o o ; ~ %.y.a.a.a.e.%.$.$.$.$.$.Q u D #.$.$.$.$.$.| w o o O           ",
"    O o o 4 % X X O O O O O O X O : H ..s 5 e s s D %.a.a.%.p X o O % % : : ; : : : : % o o O b $.e.a.a.a.a.i.$.$.$.#.@.J s ~ %.$.$.$.$.$.| e O O O             ",
"    o O # K ~ a : O O X O % % u H %.@.2 X % % O % O w %.z.z.e.n % X O O O % % & & - # # o o a +.e.i.a.a.a.a.i.e.$.#...G K +.#.%.$.$.$.$.~ w O o o               ",
"    O O o W a.y.%...Q J Q ..%.y.a.a.n X % 6 5 4 6 % X G z.z.z.i.o.s % O X o o X O o o o % c ..e.i.i.a.a.a.a.a.y.+.{ { +.%.#.%.#.$.$.o.D : o O O                 ",
"    o O o j i.a.z.a.a.a.a.a.a.a.a.i.s X 4 6 6 6 w : X n a.z.a.a.a.y.$.G a 5 % % % % 5 j ~ %.e.a.a.a.a.a.a.a.a.i.#.@.$.$.#.%.#.%.o.G 6 O O O O                   ",
"      O o % ..a.a.i.e.p.a.a.a.a.a.a.H O % 4 & 4 w O O Q a.a.a.a.a.a.z.a.e.%.+...} ..$.9.y.i.a.a.a.a.a.a.a.a.a.i.%.$.$.$.%.@.~ n 4 O o O O                       ",
"      O O o 5 $.a.i.i.a.a.a.p.p.a.a.e.s % % O O O O n y.a.a.a.a.a.a.a.a.z.z.a.a.i.a.a.a.a.a.a.a.a.a.a.a.a.a.a.y.%.$.@...F p % o o O O O                         ",
"        O o o w %.a.i.y.i.p.e.i.a.a.a.i.$.....J H ..i.a.a.a.a.a.a.a.a.a.a.a.a.a.a.a.a.u.e.u.a.a.a.i.a.a.i.i.e.%.o.H a : O O O O O                               ",
"          O O O w @.a.y.i.a.i.p.a.a.a.a.a.z.z.a.a.a.a.a.a.a.a.a.a.a.a.a.a.a.a.a.a.a.a.9.$.e.a.a.i.e.e.e.%...G a : O X O O O O                                   ",
"            O O o 6 e.a.a.a.a.a.a.a.a.a.a.a.a.a.a.a.a.a.a.a.a.a.a.a.a.a.a.a.a.a.a.a.a.u.e.i.a.e.%.@.~ D p % % X o O O O                                         ",
"              O o % #.z.a.a.a.a.a.a.a.a.a.a.a.a.a.a.a.a.a.a.a.a.a.a.a.a.a.a.a.a.a.a.a.a.a.a.y.$.J w % O o O o O O                                               ",
"              o O O } a.a.a.a.i.a.a.a.a.a.a.a.p.i.a.a.a.a.a.a.a.a.a.a.a.a.a.a.a.a.a.i.a.a.a.e.Q % X O O O O                                                     ",
"              O O X F a.a.a.i.~ y.a.a.a.a.a.a.%.} a.a.a.a.a.a.a.y.u.a.a.a.a.a.a.a.+.e.a.a.a.8.z O O O X O O                                                     ",
"                O o 5 7.a.z.7.e @.a.a.a.a.a.a.K s i.a.a.a.a.a.a...~ a.a.a.a.a.a.a.m D y.u.u...; O O X X X O O                                                   ",
"                O o o u ~ ' s O c #.i.a.a.a.u.u e %.i.a.a.a.a.a.~ p e.a.a.a.a.i.e.e w o.%.o.e o X % q 0 : O X O                                                 ",
"                  O O o % O o O X % S %.7.{ n - : b ..r.a.a.e.+.s : J $.y.y.@.m w % % w z 5 o o < N L Y Y f = O O                                               ",
"                    o o o o O O O O O w w % X X O X - n { K e % O X = 5 m b : o X o o X o o O O M ] ` Y B B y O o O                                             ",
"                                O O O X O O X O O O O O % O X X = = o X o X O O O % w 5 % O O - Y ( Y Y U Y U 0 o O                                             ",
"                                O X % : X O % : % X X O O O O - 7 < = O O O O o O 5 i 5 % O o - B _ *.&.( L U Z < o O                                           ",
"                                O X e e O O S +.~ s % % O O O O O O O X X X X X O O O % ; - O = / &./ / / L L Z t O O o                                         ",
"                                X % D : X O % w u s e : O X % u % O % a s p p a j n G K n ; o O f / _ ` ( N 9 = O O O o                                         ",
"                          O o o X z } = X : w : % O O O O X s %.e O % p p u w 5 4 : : : = O O O 8 , = > % O O o X O O                                           ",
"                        o O % e m @.D O O w D G D n s e % X p ~ : O O % % % % % ; # O O o O O = O O o ; w w x a 5 # o o                                         ",
"                      O O o % H { e % O O X X % % % % % O O O O O O 4 p s s s p 9 % O = O = = = O O ; } ..: 6 K G ; o O O                                       ",
"                      O O : O O O O X O % 7 = = O = = O O % p w O X O O O O O O X O = = = = = O o o e $.b o X O = o % O o                                       ",
"                      O O a n a - o o o > 0 , , 8 8 , - o < ..K - o O = = = - = > > , 7 7 , O O : % O - o O e e u v ~ w O O                                     ",
"                      O O O - 5 % o O O % # # = = = , = o O ; ; O O = 7 8 0 7 8 0 7 8 8 9 > O - { G 6 5 p K %.>.7.7.7.D O o                                     ",
"                      O o ; 6 < w a % & 3 1 & & % % + O O O O o O O O > = > > > - > = = - O O - G G +.9.q.8.7.7.7.7.8.G O o                                     ",
"                      O O ; K >.r.o.# # * * * * * * * * & & & & & @ % @ % # + @ # @ % % + + O o w #.a.e.u.8.7.8.7.8.#.u o O                                     ",
"                        O o % e b j O O q < % + + & & & * * * * * * * * * * * * @ & 1 * @ + O O K 7.J ..u...%.7.8.@.s O O                                       ",
"                          O o o o O o = 5.g.] Z g r < & % % + + @ @ @ % @ $ $ $ @ + @ @ + O O O 5 w Q r.H K 7.%.W e O o o                                       ",
"                                  O o 5 k.Z.d.6.3.;.;.] 5.] A N k g y t t q q t t y y q y f r O X p o.z 5 K S 6 O O O                                           ",
"                                  O o d l.C.d.s.3.3.3.6.d.s.6.6.3.s.6.<.1.<.<.<.1.1.-.Y Y Y L q O o % o O = O o o O                                             ",
"                                    O ; :.f.;.) E *.1.1.3.1.3.1.1.4.3.1.3.1.1.3.4.4.&.Y P P R P l < - - - - O O                                                 ",
"                                    O o : < % % # ; l ( ( U N d l ( -.;.3.1.-.] P k k N Z P A l r - - < t < O O                                                 ",
"                                      O o o X O n c ; - % o X o o # q B U N q - o 4 4 ; - < ; O o O X X O o O                                                   ",
"                                      o o O O o h K b 5 # o o o O o X O O o o o O z W v : o o o O O O                                                           ",
"                                    O O # & % O o o O O o O + o O     O O O # # o O O # O O O o o O O                                                           ",
"                                    O o O & & & & % + + o O O O O     O O + * & $ # # # + O + + O O O                                                           ",
"                                    O O o O O O o O O o O O O O O     O O O O # O + + O O O o O o O O                                                           ",
"                                          O O O o o O O o o O O       O O O O O O O O O O O O O O o                                                             "
};
