/* XPM */
static char *w_3_left_resized[] = {
/* columns rows colors chars-per-pixel */
"80 80 154 2 ",
"   c None",
".  c #151513",
"X  c #181715",
"o  c #1A1917",
"O  c #1C1B18",
"+  c #211A17",
"@  c #281C17",
"#  c #221E1B",
"$  c #291F19",
"%  c #1F201F",
"&  c #23211E",
"*  c #2C211B",
"=  c #34241D",
"-  c #1D1F20",
";  c #1F2122",
":  c #252422",
">  c #292622",
",  c #2C2925",
"<  c #232729",
"1  c #262A2D",
"2  c #2C2C2B",
"3  c #352721",
"4  c #382720",
"5  c #312C27",
"6  c #3A2922",
"7  c #322E29",
"8  c #35322C",
"9  c #3A342D",
"0  c #272D30",
"q  c #292F32",
"w  c #2F3032",
"e  c #333334",
"r  c #3A3630",
"t  c #3E3A33",
"y  c #353739",
"u  c #32393D",
"i  c #3A3C3D",
"p  c #413D36",
"a  c #433F38",
"s  c #46413A",
"d  c #4A453D",
"f  c #4E483F",
"g  c #3D3F42",
"h  c #3E4146",
"j  c #414347",
"k  c #494742",
"l  c #4E4941",
"z  c #44494E",
"x  c #494B4D",
"c  c #524C43",
"v  c #504D48",
"b  c #565047",
"n  c #565149",
"m  c #5B544A",
"M  c #5F584D",
"N  c #474B51",
"B  c #4B4E53",
"V  c #4F5256",
"C  c #4F555C",
"Z  c #51555A",
"A  c #54585E",
"S  c #615A4F",
"D  c #645D52",
"F  c #625F58",
"G  c #676054",
"H  c #696155",
"J  c #67635C",
"K  c #6D6559",
"L  c #70675B",
"P  c #736A5D",
"I  c #545A62",
"U  c #5A5E65",
"Y  c #5D636B",
"T  c #626365",
"R  c #6F6A62",
"E  c #666769",
"W  c #64686F",
"Q  c #766E62",
"!  c #786F61",
"~  c #7C7364",
"^  c #767169",
"/  c #7B766E",
"(  c #606770",
")  c #646A73",
"_  c #686F78",
"`  c #6C727B",
"'  c #707376",
"]  c #807667",
"[  c #817768",
"{  c #847A6A",
"}  c #897E6E",
"|  c #827D74",
" . c #8A7F70",
".. c #8A806F",
"X. c #8D8272",
"o. c #868078",
"O. c #8B857C",
"+. c #918675",
"@. c #948877",
"#. c #968A79",
"$. c #998D7B",
"%. c #9D917E",
"&. c #6F7680",
"*. c #747A84",
"=. c #787F89",
"-. c #7C828D",
";. c #7F8591",
":. c #848689",
">. c #938C82",
",. c #9F9280",
"<. c #9D978C",
"1. c #808792",
"2. c #838A96",
"3. c #8C8E92",
"4. c #868D99",
"5. c #888F9A",
"6. c #89909B",
"7. c #A29683",
"8. c #A69986",
"9. c #A89B87",
"0. c #AB9E8A",
"q. c #A59E93",
"w. c #AEA18C",
"e. c #B1A38E",
"r. c #AFA596",
"t. c #ADA69B",
"y. c #B4A691",
"u. c #B7A893",
"i. c #BAAB96",
"p. c #BDAE99",
"a. c #BFB09A",
"s. c #9297A1",
"d. c #9399A4",
"f. c #979EA8",
"g. c #9CA1AB",
"h. c #A1A4A8",
"j. c #BAB2A5",
"k. c #BDB5A8",
"l. c #B4B7BD",
"z. c #C0B19B",
"x. c #C4B6A1",
"c. c #C7BAA7",
"v. c #C1B9AD",
"b. c #CABDAA",
"n. c #CCC0AF",
"m. c #CDC3B4",
"M. c #D1C6B5",
"N. c #D2C8B7",
"B. c #D4CABB",
"V. c #C1C5CC",
"C. c #D7CEC0",
"Z. c #D8CEC0",
"A. c #DAD1C3",
"S. c #C6CAD1",
/* pixels */
"                                                                                                                                                                ",
"                                                              O O O O o O o O O O O O O O O o o O                                                               ",
"                                                    O o O O o o o o o o O O O O O O O o o o o o o o o O O o O                                                   ",
"                                            O O O o X o O : 2 t s l m S H K L L K K G S m c d p 9 , : O o o o o O O O o                                         ",
"                                      O O o X O # 8 x Q X.,.0.y.u.e.w.7.7.%.$.$.%.%.$.%.%.$.$.@.+...~ P D f r , O o o o O O o                                   ",
"                                O o o o o : k Q <.j.c.x.a.a.a.a.z.z.z.a.p.u.e.7.%.%.#.$.$.$.$.$.$.$.$.$.$.$.+.} P m p > O o o O O                               ",
"                            O O O o & k / t.m.N.b.x.a.a.a.a.a.a.z.a.a.a.a.a.z.a.i.e.w.%.$.$.$.$.$.$.$.$.$.$.$.$.%.%.@.} H s : O o o O                           ",
"                        O o o o 2 J q.m.Z.B.c.z.a.a.a.a.a.y.8.0.p.a.a.a.a.a.a.a.z.z.p.p.y.9.%.%.$.$.$.$.$.$.$.$.$.$.$.$.$.@.{ m 7 O o O O                       ",
"                    O o o O t / j.B.A.N.b.z.z.z.i.z.z.z.i.%.$.$.e.a.a.a.a.a.p.a.a.a.a.a.a.a.p.e.9.%.$.$.$.$.$.$.$.$.$.$.$.$.$.$...m , O O O                     ",
"                  O o o e | v.A.A.B.n.z.z.z.z.z.z.z.z.z.p.8.$.7.p.a.a.a.a.a.a.a.a.a.a.a.a.a.p.a.z.p.e.%.%.$.#.$.$.$.$.$.$.+.#.$.$.$.[ s O o O O                 ",
"              O O o O F k.A.A.Z.b.z.z.z.z.z.e.@.%.i.z.z.z.z.i.i.a.a.a.a.a.a.a.a.a.a.a.a.a.a.a.a.z.z.z.p.y.w.%.$.$.$.$.$.@.~ [ #.$.$.%.+.m & o O O               ",
"            O O o : | B.A.A.B.c.z.p.z.z.%.K f m b b L H L X.e.z.a.a.a.a.a.a.a.a.a.a.a.a.a.a.a.a.z.p.z.p.z.z.i.w.%.$.$.$.@.[ } #.$.$.#.$.#.S O O O               ",
"            O O : O.C.A.A.B.z.a.z.z.y.} D ~ 8.%.d 9 9 6 9 p f $.a.a.a.a.a.a.a.a.a.a.a.a.a.a.a.a.z.p.z.p.z.p.z.z.p.w.%.#.$.#...{ X.%.$.$.$.#.c o O o             ",
"          O o # | C.A.A.M.z.a.z.p.z.y.8.e.z.z.+.p 6 9 9 9 9 6 b u.a.a.a.a.a.a.a.a.u.7.w.p.a.a.a.p.z.z.z.p.z.z.p.p.z.p.9.%.@.] ! [ #.$.$.$.%.X.s o O O           ",
"        O O O J B.A.A.m.z.a.a.a.z.z.e.$.8.z.z.y.{ f 9 9 9 9 9 D i.a.a.a.a.a.a.a.a.e.%.7.p.a.a.a.z.z.p.z.z.p.p.z.z.p.z.p.w.#.{ ~ } $.$.$.$.$.$.{ , o O o         ",
"      O O X a v.A.A.N.z.a.a.a.a.z.z.i.0.e.@.} e.y.#.S d p f P 0.a.a.a.a.a.a.a.a.a.p.u.p.a.a.a.a.p.p.z.p.z.p.z.p.z.z.p.z.p.w.#.@.$...+.$.$.$.$.%.K & o O         ",
"      O o & >.A.A.B.z.a.a.a.a.a.a.a.a.z.i.m t ~ 7.$.0.e.0.e.p.z.a.a.a.a.a.a.a.a.a.a.a.a.a.a.a.a.z.p.z.p.z.z.p.z.p.z.p.z.z.p.%.$.$.~ P $.$.$.$.$.+.d % X O       ",
"    o O o l m.A.B.x.a.a.a.a.a.a.p.u.y.7.$.Q m P L H !  .+.$.7.9.e.i.a.a.z.a.a.a.a.a.a.a.a.a.a.a.p.z.z.z.p.z.z.p.p.z.z.p.p.z.w.$.$...c +.$.$.$.$.$.~ & X O       ",
"    O o O O.A.C.c.p.a.a.a.a.a.y.$.} ~ Q P ! P P P L K H D S m b n M G ~ +.8.e.a.a.a.a.a.a.a.a.a.z.p.p.z.z.i.p.z.z.p.z.z.z.z.y.$.$.+.s ~ $.$.$.$.$.$.b o O O     ",
"    O o e k.A.m.a.a.a.a.a.a.a.p.p.p.p.p.z.z.z.z.z.z.z.z.z.p.i.u.w.8.$...~ Q Q ..%.u.a.a.a.a.a.a.p.z.z.p.z.e.#.z.p.z.z.p.z.z.y.$.$.$.d S %.$.$.$.$.%.~ & O O     ",
"    o o n B.B.j.a.a.a.a.a.a.a.a.z.z.p.z.z.z.z.z.z.p.z.p.z.z.p.z.a.a.a.z.a.a.u.e.w.w.p.a.a.a.a.a.z.p.z.z.e.i.] @.z.z.z.p.z.z.9.#.$.$.b f $.$.$.$.$.$.@.p X o O   ",
"  O o o Q A.b.z.a.a.a.a.a.a.a.a.p.p.z.p.z.z.z.p.z.p.p.z.p.p.z.z.a.a.a.a.a.a.a.a.a.a.a.p.a.a.a.a.z.z.z.%.%.%.%.f $.z.p.z.z.i.%.$.$.$.n p @.$.$.$.$.$.%.D o % O   ",
"  O O O o.B.z.z.a.a.a.a.a.a.a.a.z.p.z.z.z.z.p.z.p.z.z.p.z.p.z.p.a.a.a.a.a.a.a.a.a.a.a.a.a.a.a.a.p.z.i.%.$.%.z.~ d w.z.z.z.9.$.$.$.$.f 9 +.$.$.$.$.$.$.~ & % X   ",
"  o O O O.M.z.a.a.a.a.a.a.a.a.a.p.z.p.z.p.p.z.p.z.p.z.z.p.z.z.p.a.a.a.a.a.a.a.a.a.a.a.a.a.a.a.a.z.p.z.y.w.y.z.i.f ! z.p.w.$.$.$...G > p @.$.@.$.$.$.$...5 X o   ",
"  o O O | m.p.a.a.a.a.a.a.a.a.a.z.z.z.p.z.z.z.z.z.p.z.p.p.z.p.z.a.a.a.a.a.a.a.a.a.a.a.a.a.a.a.a.a.a.a.a.a.a.a.p.G ..z.w.$.$...b = O & K %.$.$.$.$.$.$.@.r o O   ",
"  O o o ^ m.a.a.a.z.a.a.a.a.a.a.z.e.7.7.e.z.z.p.p.z.z.z.z.z.z.p.a.a.a.a.a.a.a.a.a.a.a.a.a.a.a.a.a.a.a.a.a.a.z.e.{ p.e.%.$.] 8 X O t ~ #.$.$.$.$.$.$.$.@.s o O o ",
"  o O X M b.y.0.w.e.u.p.a.a.a.a.z.8.$.$.0.z.z.z.p.z.p.z.z.p.z.p.a.a.a.a.a.a.a.a.a.a.a.a.a.p.p.a.a.a.z.a.a.a.z.w.w.y.%.$.+.t X O s ..@.] ..$.$.$.$.$.$.$.s o O O ",
"    o o k t.,.#.$.$.$.7.w.p.a.a.z.e.%.$.e.z.z.z.z.z.z.p.p.z.z.z.z.z.z.z.a.a.a.a.a.p.e.w.9.7.%.%.7.w.i.a.a.a.a.u.y.%.$.$.~ & O * { %...~ { $.$.$.$.$.$.@.s o o O ",
"    O o 2 #.,.$.$.$.$.$.$.7.e.p.z.p.i.7.} [ } $.7.w.e.i.u.u.u.0.7.%.@.$.e.p.y.w.8.%.%.$.$.$.$.#.$.$.%.i.a.a.a.p.7.$.#.%.~ & O > { %.#.@.#.@...+.$.$.$.@.r O O   ",
"    O o O / 7.@.X.X.@.$.$.$.$.7.e.z.z.z.i.%.{ H S b b b b b m m H ~ +.7.w.%.%.%.%.$.$.+...+.#.%.$.$.$.9.p.a.a.e.%.$.$.$...8 X % K %.$.$.#.{ ! [ @.$.$.X.7 o O   ",
"    O o . l J t 7 7 t b P X.%.$.$.w.z.z.z.z.z.p.i.e.0.8.9.9.e.u.i.w.%.%.$.%.$.+.~ G d 9 7 8 d P #.$.$.%.y.z.p.%.#.$.$.$.#.b o o p +.%.#.#.} ~ [ @.$.$.{ > O O   ",
"      X . O O O o o o o & 8 D X.$.$.7.i.z.z.z.z.z.z.z.z.z.z.z.u.,.$.$.%.@.~ n 9 & O X X o X X & m @.$.$.w.a.u.%.$.$.$.#.%...8 X # G #.%.#.@.X.@.$.$.%.K O o O   ",
"      X X X o # > > & + X X % 9 L #.%.%.i.a.a.a.a.a.a.a.a.z.y.%.%.$.+.K s & O X + O & & > & % X % K $.$.e.z.e.$.$.$.$.$.$.$.~ 7 X , ~ %.$.$.$.$.$.$.$.c o O O   ",
"      . X O O , 9 9 9 9 > % o o % f ..$.%.i.z.a.a.a.a.a.z.i.%.$.+.G 9 % X o % & , 7 9 9 9 9 * o X r @.$.%.a.e.#.$.$.$.$.$.$.#...t o l $.$.$.$.$.$.$.X.8 o o     ",
"      . O O O , 9 9 9 9 9 7 & + % X 7 ! %.9.a.a.a.a.a.a.a.w.$.P 9 % X O % * 5 8 9 9 9 9 9 9 7 + O & ..#.e.z.w.$.$.$.$.$.$.$.#.$.~ & , X.$.$.$.$.$.%.P & o O     ",
"        X O # 7 9 9 9 9 9 9 9 3 % o % = ! %.y.a.a.a.a.z.p.%.G & X O % & 7 9 9 9 9 9 9 9 9 9 9 & O % P #.%.p.e.$.$.$.#.$.$.#.+.#..., 8 ..$.$.$.$.$.$.d O O O     ",
"        o O + 5 9 9 9 9 9 9 9 p 7 & X X 8 ..w.z.a.a.a.a.p.+., o % & 7 9 9 9 9 9 9 9 9 9 9 9 8 % o # P %.e.a.i.$.$.$.$.$.#...P ..~ & f $.$.$.$.$.$.! & O O       ",
"        X O O & 9 9 9 9 9 9 9 9 9 8 & % O G w.p.a.i.i.a.a...% o % * 7 9 9 9 9 9 9 9 9 9 9 9 5 + X > ..%.i.a.p.%.#.$.$.$.$...! P f 7 { %.$.$.$.$.X.s o O O       ",
"        X o O # , 7 9 9 9 9 9 9 9 9 & X o m e.z.a.e.y.z.z.$.& o % & , 7 7 9 9 9 9 9 9 9 9 9 & o O p @.%.p.a.a.w.$.$.$.$.$.@...S 9 Q $.$.$.$.$.$.M O O O         ",
"        X o O o & > , 3 7 7 7 7 , * % X % ~ z.z.z.z.z.z.z.i.f o X % > * 5 = 5 8 9 6 9 9 9 5 % % O H $.e.a.p.a.i.%.$.$.$.$.$.H d ~ $.$.$.$.$.$.K & O O           ",
"        % X o o X % % & > * & & % X X % f %...{ #.$.$.e.z.z.%.s X X % & * * 5 5 , 7 7 , * % X X p @.%.a.a.a.a.a.%.%.#.$...D S +.$.$.$.$.$.$.H : o o O           ",
"        X X % 7 % X X o % % O O X X 7 L X.s % & & & & s $.a.a.w.b & X X o % & & & * & & % X X 5 ] %.a.a.a.a.a.a.i.%.+...L ..#.$.$.$.$.%.X.m & o O O             ",
"        % X 9 ..G t * % O . % 5 s P %.u.s . * 7 & 5 * . s w.a.z.u...s & o X X O X % % X X % 9 ~ %.i.a.a.a.a.a.a.a.%.....#.$.$.$.$.$.@.L t O O O o               ",
"        X X 7 8.i.w.%.......@.%.i.z.z.%.& % 9 9 8 9 8 & & #.z.a.a.z.y.+.S s 5 & % % & & t D +.w.p.a.a.a.a.a.a.a.a.%.%.%.$.$.$.$.+.L a O o o o                   ",
"        X o % ~ x.z.z.a.a.z.a.a.a.a.z.%.* X 8 9 7 9 8 % > %.z.a.a.a.a.z.i.w.$...~ ! ] X.%.e.i.a.a.a.a.a.a.a.a.a.a.e.$.$.$.$...M 9 O O O O O                     ",
"        % X X 9 %.a.z.e.y.a.a.a.a.a.a.i.m % & & % , & X b u.a.a.a.a.a.a.z.z.a.a.p.p.i.p.z.z.z.z.a.a.a.a.a.a.a.a.i.%.$.+.! f , o o O O O                         ",
"          % % X d w.a.p.a.a.a.a.a.a.a.a.w.H t 9 9 , 2 m w.p.a.a.a.a.a.a.a.a.a.a.a.z.a.a.a.w.w.i.a.a.a.a.a.i.y.w.$.] m 9 % X o o O                               ",
"            o o X d w.z.i.w.p.u.w.p.a.a.a.a.y.y.e.9.w.p.a.p.a.a.a.a.a.a.a.a.a.a.a.a.a.a.i.%.%.u.a.p.e.w.%.@...S p & o o O o %                                   ",
"              O O o t $.p.u.p.a.p.a.a.a.a.a.a.a.a.a.a.a.a.a.a.a.a.a.a.a.a.a.a.a.a.a.a.a.a.y.e.a.i.%.$...S t & o o o % O                                         ",
"                O O X s e.z.a.a.a.a.a.a.a.a.a.a.a.a.a.a.a.a.a.a.a.a.a.a.a.a.a.a.a.a.a.a.a.a.a.a.w.+.f & X . % X % o                                             ",
"                  o o : %.z.a.a.a.a.a.a.a.a.a.a.a.a.a.a.a.a.a.a.a.a.a.a.a.a.a.a.a.a.a.p.a.a.a.a.%.D % o . % %                                                   ",
"                  O O O } z.a.a.a.w.p.a.a.a.a.a.a.w.9.a.a.a.a.a.a.a.u.a.a.a.a.a.a.a.a.+.w.a.a.a.%.p X O % . % .                                                 ",
"                  O o o M a.a.a.u.G w.a.z.p.p.z.z...G a.a.a.a.a.a.z.+.#.z.a.a.a.a.a.a.n H e.u.e.~ & % . X o % .                                                 ",
"                    O o > X.p.a.%., ~ a.z.z.z.z.a.M t w.a.a.a.p.a.z.[ l w.p.a.a.a.p.w.t 9 +.%.{ 9 O % % 2 , % % O                                               ",
"                    O O O , D S 9 O 8 D %.p.p.e.%.9 2 ~ 9.i.p.a.a.w.G 7 [ 8.u.u.%.G t & % 9 d 7 O X , h I Y A e O O                                             ",
"                      O O o o o X O O O 7 P ~ c , O % & s ~ 7.%.H 9 & O & s K H r O X O X X X o O % Z &._ I C B 2 o O                                           ",
"                          O O o O O O O o O % X o O X % X & 9 7 % X O % o o o o o O o % r t > & o 1 ( ( ( ( Y Y I : O O                                         ",
"                                    O O O O O O o o X o o % X o X O < 1 % o o O O O O 9 f t > % o < Y &.*.` Y C I h O O                                         ",
"                                      X % > O O f ~ S 9 % o X o O O % % % o o o o o o O O % & & o 2 _ ) ( ( W Y Y U 2 O O                                       ",
"                                    % X & & O O t m D m s > % o % , % X % r t 9 r t s b D L m > o < U _ &.&.) B w < O O O O                                     ",
"                                    % % s & X % & % X X % % X X s #.t X & f b f s p t 9 8 8 ; O O O w 2 1 2 : O o o o O O                                       ",
"                                X % X p L % X t L G M f a 8 % X d +.7 X O O o % O & & O o o o O O O o o o : 7 e s , # o O                                       ",
"                            O o o 9 ! ..f O X % > 7 8 8 , , % % & * % X 5 s f f c s e : o o O ; ; - O o t +.D 7 M { l O o O                                     ",
"                            o O X 5 m p o O % % % X % X . % . % 7 * % o o % & & % O o O O ; ; ; - O O O L %.8 . O 7 : o O O O                                   ",
"                          O o & r : O o O o : g < 0 1 1 1 ; O : } ! > O O - - % ; : ; < 1 0 0 ; O % > O > > X : 7 , 7 c l O O                                   ",
"                          o o & s M l & o O O : ; ; < 1 0 : O O r r # O - 0 0 0 0 0 q q q q 0 O O l { p > 2 d ! @.+.@.7.X., o o                                 ",
"                          O O O O O O o O # 3 * # # # + O O O O o X X O - < < < < < < < < : % O o l Q ! $.%.7.8.8.7.7.7.@.7 O O                                 ",
"                            o o 8 b b M & # 6 6 3 3 = * 3 * * * # $ # $ # + O # + # O # # # + O O & D u.i.u.w.7.7.7.7.8.~ # O                                   ",
"                            O o & m +.X.: o : & # $ $ $ * = = 3 = = = = = = = = 3 = $ $ = = $ + X p 9.X.P w.7.$.7.8.7.{ 7 o O                                   ",
"                              O o o & : O o T 3.U g e , : # + + + $ $ $ $ * $ * $ $ $ $ $ $ + O o , p c 8.$.S $.8.@.G , o O                                     ",
"                                  o O o o O 3.S.h.2.1.*._ ) ' E x g y e e 7 2 2 2 q w e y e y y O o ,  .! 8 D ! b 8 O o O                                       ",
"                                        o , h.V.f.d.4.4.4.5.f.g.5.2.1.4.4.-.-.-.-.-.:.1.=.Y U Y j % O : # O , # o o O                                           ",
"                                        X : :.l.d.-.&.-.4.2.2.2.4.4.4.6.4.4.4.4.2.4.4.4.=.Y U U Y B y % O : : : O O                                             ",
"                                        O O 7 B i w 2 w Z ' =.` Y V V ` -.1.2.4.;.=.) Z B B A U U B y % O : y q O O                                             ",
"                                          O X X X X p a % , 2 % O o o & y A ) U j 2 O , 7 : : 2 2 O o o o o O O O                                               ",
"                                          O O O O O 7 c 7 O X O o O o o O O # O X X o r b a # X o o O O O                                                       ",
"                                        O O O = $ + O o O O O O + O O O   O O O $ # O O o O O O O + o O O                                                       ",
"                                        O O O # $ $ # # # + + O O o O     O O O * = $ # $ $ O O o + + X O                                                       ",
"                                        O O O O O O O O O O O o O O O     O O O O O + O O O O O O O O O O                                                       ",
"                                                O O o O o O O O               O O O O O O o O O O O O                                                           "
};
