/* XPM */
static char *w_13_left_resized[] = {
/* columns rows colors chars-per-pixel */
"80 80 154 2 ",
"   c None",
".  c #151413",
"X  c #181716",
"o  c #1A1917",
"O  c #1B1A18",
"+  c #221A16",
"@  c #281D17",
"#  c #221E1B",
"$  c #2A1F19",
"%  c #1F201F",
"&  c #23211E",
"*  c #2E221C",
"=  c #32231D",
"-  c #1F2121",
";  c #252422",
":  c #292623",
">  c #2D2A25",
",  c #242729",
"<  c #252A2D",
"1  c #2C2B2A",
"2  c #312C27",
"3  c #3D2B23",
"4  c #322E29",
"5  c #35312C",
"6  c #3A342D",
"7  c #272D30",
"8  c #292E32",
"9  c #293034",
"0  c #313233",
"q  c #3A3630",
"w  c #3D3A33",
"e  c #35383C",
"r  c #3B3C3E",
"t  c #423D36",
"y  c #433F38",
"u  c #464037",
"i  c #46413A",
"p  c #4B453D",
"a  c #4D483F",
"s  c #3C3E41",
"d  c #404245",
"f  c #484540",
"g  c #4E4941",
"h  c #41454A",
"j  c #45484D",
"k  c #484A4D",
"l  c #534D44",
"z  c #514E49",
"x  c #565047",
"c  c #575148",
"v  c #5B544B",
"b  c #5F584E",
"n  c #474C52",
"m  c #4A4E53",
"M  c #4E5359",
"N  c #515252",
"B  c #5C5852",
"V  c #52565B",
"C  c #53585E",
"Z  c #61594F",
"A  c #645D51",
"S  c #685F52",
"D  c #676054",
"F  c #6A6256",
"G  c #65615A",
"H  c #6D6559",
"J  c #70675B",
"K  c #736A5D",
"L  c #545A62",
"P  c #5A5E66",
"I  c #5D636B",
"U  c #5F6770",
"Y  c #6E6860",
"T  c #61666E",
"R  c #66686A",
"E  c #766D60",
"W  c #786F61",
"Q  c #7C7364",
"!  c #7C756A",
"~  c #616770",
"^  c #646A73",
"/  c #696D76",
"(  c #686F79",
")  c #6F7173",
"_  c #6C727B",
"`  c #72777F",
"'  c #807667",
"]  c #807768",
"[  c #857A6B",
"{  c #897E6F",
"}  c #837E75",
"|  c #897F70",
" . c #8A806F",
".. c #8D8272",
"X. c #89847B",
"o. c #918675",
"O. c #948877",
"+. c #968A79",
"@. c #998D7B",
"#. c #9D917F",
"$. c #707781",
"%. c #737A84",
"&. c #767D88",
"*. c #787F89",
"=. c #7C828D",
"-. c #7F8691",
";. c #80858F",
":. c #918B81",
">. c #9E9281",
",. c #9B948A",
"<. c #9F998E",
"1. c #838A96",
"2. c #8C8F92",
"3. c #868D9A",
"4. c #888F9B",
"5. c #8A919D",
"6. c #A29583",
"7. c #A69985",
"8. c #A89B87",
"9. c #A29889",
"0. c #AB9D8A",
"q. c #AEA18D",
"w. c #B1A38E",
"e. c #B4A691",
"r. c #B7A893",
"t. c #BAAB96",
"y. c #BDAF99",
"u. c #BFB09A",
"i. c #8D94A0",
"p. c #949AA4",
"a. c #9A9DA1",
"s. c #989EA9",
"d. c #9FA4AC",
"f. c #A3A6AA",
"g. c #B5ADA0",
"h. c #BEB6AA",
"j. c #C0B19B",
"k. c #C4B6A1",
"l. c #C6B9A5",
"z. c #C8BAA6",
"x. c #C1B8AB",
"c. c #CABDAA",
"v. c #C7BFB2",
"b. c #C8BFB3",
"n. c #CDC1AF",
"m. c #CDC3B2",
"M. c #D1C6B5",
"N. c #D5CBBC",
"B. c #B9BDC3",
"V. c #C2C6CC",
"C. c #C4C8CE",
"Z. c #D7CEC0",
"A. c #D8CFC1",
"S. c #DAD1C3",
/* pixels */
"                                                                        O o O o                                                                                 ",
"                                                      o o o o O o o o o o o o o o o o O O O o o O                                                               ",
"                                            O o O O o o X X O % ; ; : : > 4 5 1 > * & & O o o X o O O o o O o                                                   ",
"                                      o o o o o o O 1 y B Y ] ..+.#.#.+.O..... .{ { ' W K D c p q > & O o o o o O O O                                           ",
"                                O O o o o O 5 x ! ,.g.x.l.k.j.j.j.j.j.u.t.e.0.6.#.+.#.#.#.#.@.+.O...! H x t > & o o o O O O                                     ",
"                          o O o o o & r Y ,.h.M.M.m.l.j.u.u.u.j.j.u.u.u.u.j.u.t.e.8.#.#.+.+.@.#.+.#.@.#.@.O. .K b t : O o o o O                                 ",
"                      O O o o O 0 G <.m.Z.A.n.z.j.u.u.u.u.u.y.q.q.t.u.u.u.u.u.j.j.j.y.w.8.#.+.+.@.+.#.@.+.#.+.#.@.O.] D u ; o o O O                             ",
"                    o o o # f X.h.Z.S.N.m.k.j.j.u.u.u.u.u.u.0.+.+.0.u.u.u.u.u.u.y.j.j.j.j.t.w.#.#.+.+.@.#.+.+.#.@.@.@.#.+.] v 5 O o O O                         ",
"                  O o o r :.m.S.N.N.M.j.j.j.j.j.j.j.j.j.j.j.0.@.#.q.u.u.j.y.j.j.y.j.y.j.j.y.j.y.e.#.#.@.+.@.@.@.+.#.@.@.@.#.+...S 4 o % o o                     ",
"              o o o - G x.S.S.S.n.j.j.j.j.j.r.#.Q { q.j.t.j.j.w.e.y.u.u.y.j.j.y.j.y.j.y.y.j.y.j.j.j.e.7.#.@.@.@.@.+.+.#.@.@.+.#.@. .c & o o o                   ",
"            o O o : X.N.S.S.N.c.j.j.j.j.q.Q x x H x p F S K @.t.u.u.u.u.j.y.j.y.j.y.y.j.j.y.y.j.j.j.j.y.t.q.#.+.@.@.@.+.@.@.O.+.@.@.@.W 6 X X O                 ",
"          O O o : :.Z.S.S.M.k.j.j.j.j.r...{ #.t.O.u 6 5 3 t t Z 8.u.u.u.y.j.y.j.y.j.y.j.j.y.j.y.j.j.j.y.j.y.t.q.#.@.@.@.@.o.' ! +.@.@.@. .t O O O               ",
"          O o ; X.S.S.S.m.j.u.u.j.j.j.w.#.w.j.j...t 6 3 6 6 6 6 D y.y.j.y.j.j.y.j.y.j.y.y.y.y.j.y.y.j.y.j.y.j.y.t.7.#.@.@.O.[ [ +.@.@.@.@. .q o O o             ",
"        O o O Y N.S.N.m.j.j.u.u.j.j.j.0.#.8.j.j.t.[ p 6 6 6 6 6 H t.j.j.j.y.y.j.y.j.w.#.q.j.j.y.j.j.y.j.j.y.y.j.j.j.e.#.+.#.+. .[ +.@.@.+.#.! > o O O           ",
"      O o X p v.S.Z.m.u.u.u.u.u.j.j.j.j.j.#.S K q.q. .Z u t a J q.j.y.y.y.j.y.y.j.y.q.#.q.j.y.j.j.y.j.y.y.j.y.j.j.j.j.t.7.@...Q Q  .@.@.#.+.+.D % O O           ",
"      o X ; <.S.S.n.j.u.u.u.u.u.j.j.j.j.j.#.a a +.#.#.w.0.7.w.u.y.j.y.j.j.y.j.j.y.j.y.t.y.y.j.y.y.j.y.j.j.y.j.y.j.y.j.j.y.7.O.' Q  .@.@.@.@.#.O.u o o O         ",
"    O O o v N.S.m.j.u.u.u.u.u.y.q.#...! W J b b Z b D ! o.#.8.w.u.u.j.u.u.u.u.u.u.u.u.u.u.u.u.u.j.y.j.j.j.y.j.y.j.y.y.j.j.t.#.+.o.+...@.@.@.@.@.Q = % X         ",
"    o o & ,.S.M.j.u.u.u.u.u.u.y.q.7.7.6.#.#.@.O...[ Q H A v c c b J  .#.e.u.u.u.u.u.u.u.u.u.u.u.y.j.j.y.y.j.y.j.j.j.j.y.y.j.q.@.@.+.H +.@.@.@.@.@.a X % o       ",
"    O o r m.Z.k.y.u.u.u.u.u.u.u.u.j.j.j.j.j.j.j.j.j.j.u.u.t.r.8.@. .K D A K o.q.y.u.u.u.u.u.u.u.y.j.y.j.j.y.y.j.y.j.y.j.j.j.t.#.@.+.x [ @.@.@.@.@.' & % o       ",
"  O o o A A.x.u.u.u.u.u.u.u.u.u.u.u.u.u.u.u.u.u.u.u.u.u.u.j.u.j.u.u.u.y.e.#. .[  .q.t.u.u.u.u.u.j.y.j.y.j.e.q.j.j.y.j.y.y.j.y.#.@.#.a H @.@.@.@.@.+.p X o %     ",
"  O O o } N.k.u.u.u.u.u.u.u.u.u.u.u.u.u.u.u.u.u.u.u.u.u.u.u.u.u.u.u.u.u.u.u.u.u.t.e.y.u.u.u.u.u.y.j.j.y.t.t.[ q.j.y.y.j.j.y.r.#.@.#.x c @.@.@.@.@.@.J & X %     ",
"  O O O :.m.u.u.u.u.u.u.u.u.u.u.u.u.u.u.u.u.u.u.u.u.u.u.u.u.u.u.u.u.u.u.u.u.u.u.u.u.u.u.u.u.u.u.j.y.t.q.#.q...H t.j.j.y.y.j.q.+.+.@.x p @.@.@.@.@.@. .4 X X     ",
"  o o O ,.c.u.u.u.u.u.u.u.u.u.u.u.u.u.u.u.u.u.u.u.u.u.u.u.u.u.u.u.u.u.u.u.u.u.u.u.u.u.u.u.u.u.u.j.y.t.#.@.#.t.a ' j.j.j.j.t.#.@.@.#.x u +.@.@.@.@.@.+.p X o o   ",
"  O o o ,.l.u.u.u.j.u.u.u.u.u.u.u.t.w.r.u.u.u.u.u.u.u.u.u.u.u.u.u.u.u.u.u.u.u.u.u.u.u.u.u.u.u.u.y.j.y.q.#.w.j. .u q.j.j.t.#.@.@.+.+.u p +.@.@.@.@.@.@.Z % o o   ",
"  o O O :.y.8.7.0.e.t.u.j.u.u.u.t.6.@.#.r.j.y.j.y.j.j.y.u.u.u.u.u.u.u.u.u.u.u.u.u.u.u.u.u.u.u.u.u.u.u.y.y.u.j.e.u +.j.y.#.@.#.+. .D & x @.@.@.+.@.@.#.H O o O   ",
"  O O O ! 9.+.@.+.@.#.8.r.u.u.u.t.#.@.#.t.j.j.y.j.y.y.j.u.u.u.u.u.u.u.u.u.u.u.u.u.u.u.u.u.u.u.u.u.u.u.u.u.u.j.#.H e.t.#.#.+.E u & o > ' @.@.@.@.@.@.@.K & O o   ",
"  o O o B 9.@.@.@.#.@.+.#.q.y.u.y.r.6.@.q.r.j.j.j.j.j.j.u.u.u.u.u.u.u.u.u.u.u.u.u.u.u.u.u.u.u.u.u.u.u.u.u.u.u.@.q.t.#.@.O.x & X & p ' +.@.@.@.@.+.@.@.Q & o O   ",
"    O . p 9...[ [ ..+.#.@.@.6.r.u.u.y.7.! H K [ @.8.w.e.t.t.t.t.e.q.q.e.u.u.u.u.r.w.q.8.#.#.6.8.q.t.u.u.u.u.t.q.e.#.@.@.Z % O & H +. . .+.@.@.@.@.@.#.E & o o   ",
"    o . : z 4 ; : 5 a K O.#.@.#.w.y.u.j.y.q.O.K Z c c c c v b Z F W o.6.q.q.>.>.#.@.@.+.@.@.@.@.@.#.t.j.u.u.y.t.#.@.@.O.6 X % Z #.o.Q Q O.@.@.@.@.@.@.H O O O   ",
"    X . o o o o o o o # q H O.@.#.q.y.u.u.j.j.j.y.r.q.8.6.7.8.q.q.q.6.#.@.@.@.#.+.O. . . .+.@.@.@.@.#.u.u.u.y.#.@.@.@. .5 X % J #.+.o.o.+.O.+.@.@.@.#.b O O O   ",
"    . o o o & > : ; O O o & p [ @.#.0.y.u.u.u.u.y.j.j.j.j.j.t.0.#.@.#.#.@. .W D a 6 2 & 4 i W +.@.@.#.t.j.u.q.@.@.@.@.O.u X o Z #.+.+.#. .Q [ +.@.@.O.p o o o   ",
"    . o O O > 6 q 6 5 : O o o 5 J @.#.q.u.u.u.u.j.y.y.j.u.r.6.@.#.+. .J a 4 % X X X X % X X & S +.@.@.w.j.t.#.@.@.@.@.@.b o . u O.+.#.+.[ W Q O.@.@...5 o O     ",
"    . o o # 4 6 6 6 6 6 2 & o X & A +.#.r.j.u.u.u.u.u.u.r.#.@.+.W x 5 % . X o & & & 2 2 & O o & ' #.@.q.u.w.@.@.@.@.@.@. .4 X % K @.@.@...[  .@.@.#.W & O O     ",
"    . O o # 6 6 6 6 6 6 6 5 * o o % Z @.#.y.u.u.u.u.u.y.#.+.K u & X X o & & = 2 6 6 6 6 6 & o o a #.@.q.u.q.@.@.@.@.@.@.@.K : X w o.@.@.@.+.@.@.@.@.c o o O     ",
"    . o o # 5 6 6 6 6 6 6 6 6 : o o & K #.j.u.u.u.u.u.r.@.c & o X % & > 5 6 6 q 6 6 6 6 6 : o o u O.@.w.u.#.@.@.@.@.@.@.@.@.K > O J @.@.@.@.+.@.#. .5 O O       ",
"    . o O O > 6 6 6 6 6 6 6 6 6 : O o i @.y.u.u.u.u.u.r.A % o O & 5 5 6 6 6 6 6 6 6 6 6 6 2 O o 6 O.@.e.u.#.@.@.@.@.@.@.@.@.#.a o c @.@.@.@.@.@.@.F # O o       ",
"    % % O O & 2 6 6 6 6 6 6 6 6 2 O o 2 @.y.j.t.e.y.u.e.t X o & 4 5 6 6 6 6 6 6 6 6 6 6 6 * % X w O.@.t.u.#.@.@.@.@.@.@.O...@.Z O v #.@.@.@.@.@.o.w o o O       ",
"    . . o O # & : 2 2 2 4 4 6 2 & o o w #.u.j.t.e.y.u.r.u X o & > 4 6 6 6 6 6 6 6 6 6 6 6 & X X a @.q.u.u.q.@.@.@.@.@.o.' Q  .p & ! @.@.@.@.@.@.Z O O O         ",
"    X X o o o o # : : : > : & O o o & Q y.y.j.j.k.k.u.u.H o o # & > > 4 5 6 6 6 6 6 6 6 2 % % & ' @.e.u.u.w.@.@.@.+.@.o.Q Q A : Z +.@.@.@.@.@.' > o O           ",
"    % X & i & o o o o + O O o o o 5 Q ' v a H Q ' #.u.j.w.i o O % & = > = 2 2 5 3 5 5 2 % X X a @.q.u.u.u.t.@.@.@.@.@.@...F 6 Z +.@.@.@.@.@...w O O o           ",
"    X X 6 @.! a 4 & O o O & 5 p W #.J & o & o O % 4 ..u.j.#.a & X % % & * = > > > = & % X X 4  .#.t.u.u.u.u.#.@.@.@.@.o.F a W @.@.@.@.@.@...i O O O             ",
"    X X 4 q.u.e.#.o.' Q ' o.#.r.k.#.> O 2 6 > 5 > o t e.j.k.#.F = o X X % % % & & & X % % 4 W #.t.u.u.u.u.u.e.@.@.+. .A F ..@.@.@.@.@.@.[ t O o o               ",
"    % % % [ j.u.j.j.u.j.j.j.j.j.k. .o & 6 6 6 6 5 O 4 #.j.j.j.y.@.b 4 % X X X X % X X & u Q #.r.u.u.u.u.u.u.t.@. .Q W  .@.@.@.@.@.@.+.J 5 o O O                 ",
"    o o X u q.j.k.#.r.u.j.j.u.u.j.@.& O 4 2 2 6 > o w w.j.j.y.j.j.t.#.Q c u 5 2 2 w a E @.q.y.u.u.u.u.u.u.u.t.@. .+.@.@.@.@.@.@.O.Q p & o o o                   ",
"      O X X b t.u.y.u.u.j.k.u.u.j.r.A & # o O : % & ' j.u.u.u.u.y.j.j.y.r.q.#.#.+.#.q.w.t.u.u.u.u.u.u.u.u.u.u.q.@.@.@.@.@.@. .F t & o o o O                     ",
"        X % % F t.j.e.e.j.#.e.j.u.j.r...H S a t a  .y.u.u.j.y.u.j.y.u.u.y.y.j.y.u.j.y.y.u.u.u.u.u.u.u.u.u.u.t.#.@.@.@. .K a > O o o o O                         ",
"          o o & F t.r.t.j.y.t.u.u.u.u.j.j.j.y.r.y.j.j.u.u.u.u.u.y.j.y.j.j.y.j.j.u.u.r.q.r.y.y.u.u.u.u.u.t.e.#.+. .H a 2 % X O O O O                             ",
"            o o & O.j.u.u.u.j.u.u.u.u.u.u.u.u.j.y.j.y.j.y.u.u.u.j.y.j.y.y.j.y.j.u.u.q.+.q.y.u.t.e.w.q.#.@.' S u : % o o o X %                                   ",
"            O O O ] j.u.u.u.u.u.u.u.u.u.u.u.j.y.j.y.j.u.u.u.u.u.u.u.u.u.y.u.u.u.u.u.t.e.t.u.w.#.O. .D a 6 & O X O o O o                                         ",
"            O o o E j.u.u.u.t.u.u.u.u.u.u.u.u.y.y.j.u.u.u.u.u.u.u.u.u.u.u.u.u.u.u.u.u.u.u.e.+.F w : % X o O o O O                                               ",
"            O o o v u.u.u.t.Q q.j.u.j.j.u.j.#.@.j.y.u.y.u.u.j.y.u.u.u.u.u.u.u.u.t.y.u.u.u.q.K & o o o o o                                                       ",
"              O o 4 +.u.j.#.q #.j.j.u.j.u.j.W D y.j.u.j.u.y.j.+.q.u.u.u.u.u.y.y.! 6.u.u.t.#.u X o O o o O                                                       ",
"              O O o w K E i O b #.u.j.j.j.e.w a w.j.j.j.u.u.j.K K y.u.u.u.u.u.r.u H w.r.q.J % X O O % % . X                                                     ",
"                O O o O O X o O > E #.w.o.F % w [ #.j.j.u.u.t.a p >.t.u.u.t.q.[ & a o.+.E > X % 9 z M d % % %                                                   ",
"                  o O o O O O O o & p t & o o o & p ..#.+.D u & & a ! #.+.A 4 & % % 6 u : o o d ^ I L I k - % X                                                 ",
"                              o o o X o o O o o o % > w > o X o % % & w = % X X X o X X o o % M U ( ^ I I m % % O                                               ",
"                              O o % 4 o o o X X o O o o . % ; < & % o o o o o o 4 w % o % X ; U %.( U L C C e % O                                               ",
"                              o o : p o o 6 c u : o O O X % ; : % % o % o o o % ; - o o o o ; C U ^ _ ( I U U 0 o O                                             ",
"                              O X 5 q o % p W ' D t & O % X % o o % & & & * & > 4 w g g 4 X & I =.$._ ^ L h e : o o O                                           ",
"                            O o % D 4 o o o o % & : % % X 4 K q X & a S v b a a c v v w % X % r h h m j 9 % o o O O                                             ",
"                        o O o O a ..; X 5 A a p w 4 : % o p #.t o O % % % % O % O O O X O X X % O O X O & > & o o O                                             ",
"                      O O O l !  .a % o ; w a p p t 6 % o > a & O : w t u u u 6 : O O O % % % O O O g G w b K c & o O                                           ",
"                    O o o o w v 4 X X % % X % . o o o O % o o o O & > 4 4 2 : % - O O - - - % O X i w.J o & a i % X o o                                         ",
"                    o o 5 5 & O o o o - e < , , ; ; % o & K D * X O % o O % X % - - - 9 - % O O X 4 v 1 o O o o : w & O                                         ",
"                    O O : c b q o O o % : , < 7 7 9 , o & v c & O % , < < < < 7 7 7 8 8 , X & b q o O # t E K E ..@.t o O                                       ",
"                    O o o o O O O O & * * # O O O - # O o o O O O - < 7 7 7 7 7 7 7 < 7 % O 4 o.E A J ] >.6.7.6.6.6.c o O                                       ",
"                    O o & g v Z H : # 3 3 = = * * * & # # # # O + O O O O O O # # + O O O O % y W r.t.r.7.6.6.6.6.6.p o O                                       ",
"                      O O q ! #.O.& O # & * * = * = = = = = = = * = > * * = : @ $ = : @ + O O H r.>.+.r.>.6.6.7.6.H # o o                                       ",
"                        O o O : 2 O o N R d > & # + @ # $ * * = = = = = = = = $ $ > = @ + o # A b Z 0.O.W 8.7.@.A & O O                                         ",
"                            O o o O O 2.V.p.&._ I V k k y 1 ; ; # + # # # # # # & $ & & , % O O l 8.' y | | S q O O O                                           ",
"                                  o 1 f.V.d.i.5.3.3.4.f.d.;.%.$.` ` ^ T T T T ^ / ^ V L L j # o 4 f - 4 t : + o O                                               ",
"                                  o : d.B.p.3.=.1.3.1.3.3.3.4.3.i.5.4.3.4.4.4.4.4.*.I P I I k 1 # O O O o o O O                                                 ",
"                                  O o f ) V h r n ( =.1.=.%.( _ =.1.;.3.1.-.1.=.$.~ P P P I P k 1 ; 8 e 8 O O                                                   ",
"                                    O o o o X 4 : ; r s 0 ; # ; e P ` =.%.P k 9 ; ; 1 e h s 1 + o O # ; - o                                                     ",
"                                    O O O O o c ] l : o X O o o o o 1 0 ; O o o p F p ; O o o O O o                                                             ",
"                                    O O # + o # > > & O O O O o o   o o O + O o ; q 5 ; o O o o O O                                                             ",
"                                  o O O = * # + O O O O O + o O     O O @ = * # O + O O O + + + o O                                                             ",
"                                  O O O O # # # # + + O O O O o     O o O # # & # # @ + O O o O O O                                                             ",
"                                    O O O o o O O O O O O O O o     o O o O O o o o o o O O O O o O                                                             ",
"                                                                                                                                                                "
};
