/* XPM */
static char *w_2_left_resized[] = {
/* columns rows colors chars-per-pixel */
"80 80 156 2 ",
"   c None",
".  c #151413",
"X  c #181715",
"o  c #1A1917",
"O  c #1B1A18",
"+  c #211A16",
"@  c #291C17",
"#  c #221E1B",
"$  c #281F1A",
"%  c #23211E",
"&  c #2C211C",
"*  c #33241D",
"=  c #1E2122",
"-  c #242422",
";  c #292622",
":  c #2D2A25",
">  c #222628",
",  c #262A2D",
"<  c #2D2C2A",
"1  c #372720",
"2  c #322C26",
"3  c #392922",
"4  c #322E29",
"5  c #35312C",
"6  c #3A342D",
"7  c #272D31",
"8  c #292F32",
"9  c #313234",
"0  c #3A3731",
"q  c #3D3933",
"w  c #30363A",
"e  c #36393C",
"r  c #3A3B3D",
"t  c #423D36",
"y  c #433F39",
"u  c #46413A",
"i  c #4B453D",
"p  c #4D483F",
"a  c #50483F",
"s  c #3C3E40",
"d  c #3E4145",
"f  c #444342",
"g  c #494641",
"h  c #4E4940",
"j  c #434549",
"k  c #46494E",
"l  c #484A4E",
"z  c #524D44",
"x  c #534E48",
"c  c #565047",
"v  c #585147",
"b  c #5B544A",
"n  c #5F584D",
"m  c #4B4E53",
"M  c #4E5156",
"N  c #4F565D",
"B  c #5F5B54",
"V  c #51565D",
"C  c #54585F",
"Z  c #615A4F",
"A  c #655D52",
"S  c #625E58",
"D  c #6A6256",
"F  c #656059",
"G  c #6D655A",
"H  c #70675B",
"J  c #736A5D",
"K  c #555B63",
"L  c #595F67",
"P  c #595F68",
"I  c #5C6067",
"U  c #5D636C",
"Y  c #5F6770",
"T  c #6F6B63",
"R  c #606368",
"E  c #766E61",
"W  c #786F61",
"Q  c #7B7264",
"!  c #747068",
"~  c #7A756D",
"^  c #636A73",
"/  c #686E76",
"(  c #6B727C",
")  c #7F7A72",
"_  c #72767D",
"`  c #807667",
"'  c #807668",
"]  c #847A6B",
"[  c #897F6F",
"{  c #817C73",
"}  c #8A7F70",
"|  c #8A806F",
" . c #8D8271",
".. c #868178",
"X. c #89847A",
"o. c #918675",
"O. c #948877",
"+. c #968A79",
"@. c #998D7B",
"#. c #9D917F",
"$. c #707781",
"%. c #737A84",
"&. c #787E89",
"*. c #7B818B",
"=. c #7F8591",
"-. c #808285",
";. c #8F8980",
":. c #828589",
">. c #948D82",
",. c #9F9380",
"<. c #838A95",
"1. c #868D99",
"2. c #888F9B",
"3. c #8E9094",
"4. c #89909B",
"5. c #93969A",
"6. c #A29683",
"7. c #A69986",
"8. c #A89B87",
"9. c #A0998F",
"0. c #AB9D8A",
"q. c #AEA18C",
"w. c #B1A38E",
"e. c #A7A096",
"r. c #AAA192",
"t. c #B4A691",
"y. c #B7A893",
"u. c #BAAB96",
"i. c #B4AC9F",
"p. c #BDAE99",
"a. c #BFB09A",
"s. c #9197A2",
"d. c #949AA5",
"f. c #A7AAAE",
"g. c #B7B0A4",
"h. c #BAB2A6",
"j. c #BEB6AA",
"k. c #AAADB3",
"l. c #B3B6BC",
"z. c #C0B19B",
"x. c #C4B6A3",
"c. c #C6B9A6",
"v. c #C3B9AA",
"b. c #C9BCAA",
"n. c #CDC1AF",
"m. c #CBC2B4",
"M. c #D1C6B5",
"N. c #D2C8B7",
"B. c #D0C7BA",
"V. c #D4CBBC",
"C. c #D8CDBE",
"Z. c #BBC0C6",
"A. c #C2C6CD",
"S. c #D7CEC0",
"D. c #D8CFC0",
"F. c #DAD1C3",
/* pixels */
"                                                                                                                                                                ",
"                                                                O O O O O o O O o O O O o O O                                                                   ",
"                                                    O O O O O O O X O o o O o O O o o o o o o o O O O O O o                                                     ",
"                                            O O O o X X O O ; 5 q u h x b Z Z A Z n v z p y 0 4 ; % O o o o o o O O O                                           ",
"                                      O O o X X O < g F ' +.7.q.w.q.8.7.,.#.@.@.@.@.#.@.@.+.O. .[ Q H Z h 0 : % o o O O O O                                     ",
"                                o O O X X - t T >.i.x.x.x.z.z.a.z.z.z.p.u.t.0.6.#.@.@.@.@.@.@.@.@.@.@.@.@.O.[ E Z u < O o o o O O                               ",
"                            O O o X = y ! e.m.B.m.z.z.z.a.a.a.a.a.a.a.a.a.z.z.a.y.w.8.#.@.@.@.@.@.@.@.@.@.@.@.@.@.+. .H h 4 O O o O O                           ",
"                        O o o o 4 S 9.m.D.V.b.z.z.z.z.z.a.t.7.q.p.a.a.a.a.a.a.a.z.a.a.u.w.7.#.@.@.@.@.@.@.@.@.@.@.@.@.@.@. .D t % o o o O                       ",
"                    o O o O 0 ~ a.D.F.V.b.z.p.z.z.u.z.z.z.#.@.@.w.z.a.a.a.a.a.a.a.a.a.a.z.p.u.q.#.@.@.+.@.@.@.@.@.@.@.@.@.@.#.O.E u o o o o                     ",
"                  O o o 5 ) j.F.F.C.b.z.z.p.z.z.z.z.z.z.p.7.@.#.y.z.a.a.a.a.a.a.a.a.a.a.a.a.a.a.z.t.q.#.@.@.@.@.@.@.@.@.@.O.@.@.@.O.D : o o O                   ",
"              o O o O B g.F.F.F.b.z.z.z.z.z.w.+.#.t.z.z.z.p.y.p.a.a.a.a.a.a.a.a.a.a.a.a.a.a.a.a.z.z.p.p.w.7.@.+.@.@.@.@.O.' ] +.@.@.@.) q o o O                 ",
"            O O o - ) B.F.F.V.b.z.z.z.z.6.G z v v v H D J o.t.z.a.a.a.a.a.a.a.a.a.a.a.a.a.a.a.a.z.z.z.z.z.z.y.7.#.@.+.@.o.Q ] @.@.@.@.@.| u o o O               ",
"            O O - ..C.F.F.N.x.a.z.z.y. .D ` #.#.a 6 6 5 5 t a +.a.a.a.a.a.a.a.a.a.a.a.a.a.a.a.a.z.z.p.z.z.z.p.z.y.8.#.@.@.O.| | O.@.@.@.@.| 6 o O o             ",
"          O o # ) S.F.D.m.x.a.a.u.z.u.#.w.z.z.+.t 3 6 6 6 6 3 c t.a.a.a.a.a.p.a.z.y.8.q.p.a.a.a.z.z.z.p.p.z.z.p.z.z.t.#.@.O.` Q ] @.@.@.@.#.Q ; o O O           ",
"        O O O F B.F.F.M.z.p.a.a.z.z.w.#.#.z.z.z.] a 6 5 6 6 6 Z y.a.a.a.a.a.a.a.a.w.@.7.p.a.a.a.z.p.p.z.z.p.p.z.z.z.z.y.7.O.` Q | @.@.@.@.@.@.D % O O           ",
"      O O O q j.F.F.M.z.z.a.a.a.z.z.z.q.w.+.] 0.t.+.D i t a H 0.z.a.a.a.a.a.a.a.a.p.t.u.a.a.a.a.p.z.p.z.p.z.z.p.z.p.z.z.p.7.O.| O.o.+.@.@.+.#.+.i o O o         ",
"      O o O >.F.F.M.z.a.a.a.a.a.a.a.z.z.u.Z 0 W 6.@.8.w.8.t.z.z.z.z.z.z.a.a.a.a.a.a.a.a.a.a.a.a.z.z.p.z.p.z.p.z.z.p.p.z.z.t.#.@.#.W ] @.@.@.@.@.] : O O         ",
"    O O o g m.F.V.x.z.a.a.a.a.a.u.y.0.6.@.E b H G D E [ o.@.6.0.t.u.z.z.z.a.a.a.a.a.a.a.a.a.a.a.p.z.z.p.z.z.z.p.p.z.z.p.p.z.8.+.@.W b @.@.@.@.@.@.Z O O O       ",
"    O o O X.F.S.c.p.a.a.a.a.a.t.#. .Q Q Q Q Q W W J H D A n v x v n D ~ +.q.y.a.a.a.a.a.a.a.a.a.z.p.p.z.z.p.z.z.z.p.z.z.z.z.w.@.@.| u o.@.@.@.@.#.| 4 O o       ",
"    O o 4 h.F.m.a.a.a.a.a.a.a.p.u.p.z.z.z.z.z.z.z.z.z.z.z.p.u.y.q.#.O.] W H E | 7.y.a.a.a.a.a.a.p.z.p.z.z.q.#.z.p.z.z.p.z.z.w.@.@.o.6 Q @.@.@.@.@.@.n O O O     ",
"    o X x V.B.z.a.a.a.a.a.a.a.a.p.z.z.p.z.p.z.p.p.z.p.z.p.z.z.p.z.z.z.z.a.p.t.q.8.q.a.a.a.a.a.a.z.p.z.u.t.t.J 8.z.u.z.z.z.z.#.#.@.O.u A @.@.@.@.@.@.] % O O     ",
"  O o o T F.b.z.a.a.a.a.a.a.a.a.z.p.z.z.z.z.z.z.z.z.z.p.z.z.p.z.a.a.z.z.a.a.a.a.a.a.a.a.a.a.a.a.z.z.z.#.@.q.O.b w.z.z.z.z.t.#.@.@.@.u a @.@.@.@.@.@.O.u o O O   ",
"  O O o { C.x.a.a.a.a.a.a.a.a.a.p.z.z.p.p.z.p.z.z.p.z.p.p.z.p.z.a.a.a.a.a.a.a.a.a.a.a.a.a.a.a.a.p.z.y.#.@.#.z.Z A u.z.z.z.#.@.@.@.O.q a @.@.@.+.@.@.@.n O O o   ",
"  O O o ..M.a.a.a.a.a.a.a.a.a.a.z.p.p.z.z.p.z.p.p.z.p.z.z.p.z.p.a.a.a.a.a.a.a.a.a.a.a.a.a.a.a.a.z.p.z.q.8.y.z.#.t O.z.z.q.@.@.@.o.G % a @.@.@.@.@.@.@.E % o O   ",
"  o O o ) m.a.a.a.a.a.a.a.a.a.a.z.z.p.p.z.p.z.z.p.z.p.z.z.z.p.z.a.a.a.a.a.a.a.a.a.a.a.a.a.a.a.a.a.a.a.a.a.a.z.t.v @.z.q.@.@.| b 5 O % E @.@.@.@.@.@.#.' - o O   ",
"  O o o E n.a.a.a.a.a.a.a.a.a.a.p.w.6.6.t.z.z.p.z.p.p.z.p.z.z.p.a.a.a.a.a.a.a.a.a.a.a.a.a.a.a.a.a.a.a.a.a.a.z.8.] p.q.#.@.Q 6 o O q Q @.@.@.@.@.@.+.#.| < o O   ",
"    O X B v.q.7.8.0.t.u.z.z.a.a.z.6.+.+.0.z.z.z.z.p.z.p.z.p.z.z.a.z.a.a.a.a.a.a.a.a.a.a.a.a.p.a.a.a.a.a.a.a.a.7.q.w.#.@.| 6 X O i | | | o.@.@.@.@.@.+.| 2 o O   ",
"    o o u e.@.@.@.@.@.,.8.u.a.a.z.w.6.@.w.z.z.z.z.z.z.z.p.z.z.z.z.z.z.z.a.a.a.a.a.u.t.q.8.6.#.6.8.w.a.a.a.a.a.t.w.#.@.@.D O o 5 | @.| Q | @.@.@.@.+.#.| : o O   ",
"    o o : >.,.@.@.#.@.@.@.#.q.u.z.p.u.6.[ Q ] o.#.0.w.t.t.t.w.8.#.#.O.#.t.p.t.q.6.#.#.#.@.@.@.+.@.#.8.p.a.a.a.u.#.@.+.#.Z X X t O.@.O.o.O.O.o.+.@.@.#.' - o O   ",
"    O o X ~ ,. .] ]  .@.@.@.@.6.w.p.z.z.u.6.[ H Z v v x v v v n G Q O.7.8.#.#.@.#.#.+.O.o.O.@.@.@.+.+.q.a.a.a.q.#.@.+.@.E % o : | @.@.@.O.` Q | @.@.#.W % o O   ",
"    O o . u x : - - 4 u D [ @.@.@.0.z.z.z.z.z.z.p.t.w.0.8.0.t.u.u.q.#.#.@.@.+.O.Q Z u 6 4 0 v ] @.@.@.#.p.a.u.#.@.@.@.#.| 6 X O A @.@.@.O.Q W ] #.+.@.D O O O   ",
"      X . o O X o o o o O 4 b [ @.@.7.u.z.z.z.p.z.p.z.z.z.z.z.t.#.+.@.+.O.E c 4 % o o o o X o : H @.@.#.t.z.w.@.+.@.+.#.#.D % o 2 | @.@.@.o.| +.+.@.@.p o O o   ",
"      X X O o # 2 2 % % O X O 4 D o.#.,.u.a.a.a.a.a.a.a.a.a.w.#.#.@.| D 0 % o X O O % & : % O o : | +.@.w.a.q.@.@.@.@.@.@.+.b % o p O.@.@.@.+.@.@.+.o.6 o O     ",
"      . o O O 2 6 6 6 5 : % O X % i | @.7.p.a.a.a.a.a.a.a.w.#.@.] b 4 O X o # % : * 6 6 6 5 % O O v @.@.w.p.#.@.@.@.@.@.+.@.+.Z % % J #.#.+.#.+.@.#.Q - o O     ",
"      . o O # 4 6 6 6 6 6 5 & % X o 5 Q @.q.p.a.a.a.a.a.p.7.o.Z : o o O % & 4 6 6 t 6 6 6 6 * O O 0 o.@.q.p.,.@.@.@.@.@.@.@.@.@.c o z @.+.@.@.@.+.#.b o O o     ",
"        o O O 5 6 6 6 6 6 6 6 4 % O X : W #.u.a.a.a.a.p.u.@.c O o o % : 6 6 6 6 6 6 6 6 6 6 4 O X 4 | @.t.p.q.+.@.+.@.@.@.+.o.@.H O h @.@.@.@.@.#.| 5 o O       ",
"        O O O 4 6 6 6 6 6 6 6 6 4 % O X q | t.a.a.a.a.a.p.Q % O O & 5 6 6 6 6 6 6 6 6 6 6 6 4 O O : | #.u.a.q.@.@.@.@.@.+.| W | A O G @.@.@.@.@.+.Z O O o       ",
"        X O O % 5 6 6 6 6 6 6 6 6 4 O O % E t.a.p.t.p.a.a.D X o % : 4 6 6 6 6 6 6 6 6 6 6 6 : O O q +.,.p.a.y.#.@.@.@.@.+.Q W W 6 t  .#.+.@.@.@.] < o O         ",
"        X O O # 2 4 6 6 6 6 6 6 6 4 % O O E p.a.a.w.p.p.a.Q O O O & : < 5 6 6 6 6 6 6 6 6 6 % o O b @.q.a.a.p.#.@.@.@.@.@. .` p q [ @.@.@.@.#.o.u o O O         ",
"        X X O o % % : * 4 : 2 : * % O X : #.a.z.a.z.a.a.a.q.q X O % ; * : : 4 4 4 6 6 5 5 : o o ; ] #.u.a.a.a.q.@.+.@.@.@.o.n a | @.@.@.@.@.+.v O O o           ",
"        o X o o X O % % % * % % O O O > W @.E E | | o.w.z.z.@.5 o o O % ; : : : : < : : & o o # b +.w.a.a.a.a.u.#.@.@.@.| b D +.@.@.@.@.#.o.b O O O             ",
"        o o < q % X X O O O X X O % i  .H % O O % % % u 8.z.a.#.i # o o o # % % & ; % % O O o u  .q.a.a.a.a.a.a.q.@.o.W H | @.@.@.@.@.@.[ i O o o               ",
"        o o i #.W i 5 : % > 4 u D +.y.#.% % 4 4 % 5 % X v p.a.a.t.Q y % o o o O o o O X X % a | q.y.a.a.a.a.a.a.t.o.`  .@.@.@.@.@.@. .D 5 o O O                 ",
"        o o 0 t.a.t.q.#.#.#.q.t.u.a.a.Q O % 6 6 6 6 4 O 6 t.a.a.a.a.q.| n q < % % % % 2 i W #.q.p.a.a.a.a.a.a.a.u.#.@.@.@.@.@.@. .D 0 O o o o                   ",
"        o o % | a.a.a.y.a.z.a.a.a.a.a.| % % 5 5 4 6 : X u y.a.a.a.a.a.a.p.q.@.| ~ ` ] O.8.w.p.z.a.a.a.a.a.a.a.a.a.#.@.#.@.+.Q b 4 O O O O                       ",
"        o O o q q.a.p.q.y.a.a.a.a.a.a.w.u O % # % & O % ~ a.a.a.a.a.a.a.a.a.a.a.p.p.p.p.z.z.z.z.a.a.a.a.a.a.a.a.t.#.@.| G u % O o O O o                         ",
"          O o o i q.a.a.a.a.a.p.y.a.a.a.q.G i p u 6 u ] u.z.a.a.a.a.a.a.a.a.a.a.z.p.z.z.p.q.w.z.a.p.a.a.a.u.q.q.o.E a 4 O O O O O                               ",
"            o O o u q.z.t.q.a.t.w.a.a.a.a.a.u.p.y.w.y.z.z.a.a.a.a.a.a.a.a.a.a.a.p.z.z.p.q.+.#.z.a.y.q.q.#.o.E c 5 % o O O O O                                   ",
"              O O o 0 #.a.u.a.a.a.a.a.a.a.a.a.a.a.a.a.a.a.a.a.a.a.a.a.a.a.a.a.a.a.a.a.a.u.t.y.a.w.#.o.E z 5 % X O O O o                                         ",
"                O o X c u.a.a.a.a.a.a.a.a.a.a.a.a.a.a.a.a.a.a.a.a.a.a.a.a.a.a.a.a.a.a.a.a.a.a.u.#.Q 0 % O X O O O                                               ",
"                  O o 0 t.a.a.a.a.a.a.a.a.a.a.a.a.a.a.a.a.a.a.a.a.a.a.a.a.a.a.a.a.a.p.p.a.a.a.y.o.q X o O O O                                                   ",
"                  O o < 6.a.a.a.t.7.a.a.a.a.a.a.a.@.w.a.a.a.a.a.a.p.t.a.a.a.a.a.a.a.w.| p.a.a.u.W % o o O O O o                                                 ",
"                  O o # Q a.a.z.#.b u.a.a.a.a.a.u.b | a.a.a.a.a.a.y.W q.a.a.a.a.a.a.#.q +.t.t.#.i o o o o o X O                                                 ",
"                  o O o 6 o.y.t.B : +.p.z.a.a.z.q.: D y.a.a.a.a.a.u.p W y.p.a.a.a.u.| % A @.+.Z % o o , 9 < % O O                                               ",
"                    O o o < i q % O 5 n ,.p.t.,.D O i ) q.u.a.a.t.+.6 i | q.y.q.Q i ; O % y q % o = d N I U M , o O                                             ",
"                      o o o o o o O X o 6 D b 4 O O O % u ] @.Q t % O O > i D p % X O O X X O O o < ^ _ ^ K N d - o O                                           ",
"                          O O o   O O O o o o o O O O o O % : = o o O % X X O X o O O : i 4 % O = d ( Y U U U Y j O O                                           ",
"                                    o O O # O o O O o o O o o O O % 8 , O O O O O O % q q ; % O o d Y $.$./ I N C 9 o o                                         ",
"                                    O O # % o - D ` A 5 O O O O O O O O O X X X X X O O % : : O o M $.Y Y Y U I I k = o O                                       ",
"                                    O O % O O O t z n a q % O O : 5 O O : i u u u i c n G G u O O w U / ( / C e = = o o o                                       ",
"                                    O % q O O % % O O O O O O O G | > O : i u q 0 5 : : : = O O O = 7 = = > # O o o o o                                         ",
"                                O X O u c O O p H D n z y 5 O O A H % O % % % % ; ; > % o O O O O O o O % 6 6 i u : O o O                                       ",
"                              O O q E | q X o O - < : : : % O o % % O O 0 u p h i q < O O O = = = O O - Q o.5 6 E H < o O o                                     ",
"                            O o X 4 n q o o = - = O O O O O O % q : O X O O % O O o O O = = = = O o o 6 O.n o o % % o # O O                                     ",
"                          O o % 6 - O o o o 8 w , , , , , = o q O.A O O O > - = = > > , 7 7 , O O 0 - o % O O 0 6 6 g D 4 o o                                   ",
"                          O o % i n h % o O # = % - > > , % o % < ; O O > 7 8 8 8 8 8 8 8 8 = O ; [ G 0 6 u H @.@.#.6.6.x o O                                   ",
"                          O O o o = # o o & 3 & % % % + O O o o O O O O O ; > > - > = = - = O o - n D ,.0.8.8.7.6.6.6.7.b O O                                   ",
"                            o O < h b h O % 3 3 * * * * * * & & & $ $ + % + # + # $ + % $ $ + O O h 8.u.q.y.7.6.6.6.7.o.6 o o                                   ",
"                            O o # c  .J O O & ; # $ $ $ & * * * * * * * * * * * * & $ * 1 * @ X O ]  .S @.q. .6.7.6.o.u O O                                     ",
"                              O o o % % O % *.5.R j e < : % % # O @ $ $ & + @ $ $ + + + # @ O O O : u +.7.n ] 6.+.G 5 O O                                       ",
"                                  O o O O < f.A.d.1.<.*.%._ :._ V l j f s r r r r s f j j s j 9 O O b Q 5 u H c 5 O o O                                         ",
"                                      o X e l.Z.d.s.1.1.1.4.d.s.1.1.<.d.1.<.<.<.<.<.<.1.$.U U K 9 O O O O # O O o O o                                           ",
"                                        X ; 3.k.<._ ( &.<.<.1.1.1.<.<.1.1.<.1.<.<.1.1.<.( P L P U m < O O > 9 ; O O                                             ",
"                                        O O 5 r < ; - , m / / I m s j ^ &.<.<.<.%./ M s s j m K M r > O O ; 9 % O                                               ",
"                                          O o X O O z q O - % O X o X # 9 m C f < # O 5 0 - + - # o O O o o o o                                                 ",
"                                          O O # O O : 4 % o o o O O O O X X O O O O O 4 t : O O O O O O O                                                       ",
"                                        O O # * * % O O O O O + O O O     O O # * $ O O O O O O O + O O O                                                       ",
"                                        o O O + # + + # # O O O O O O     o O # $ $ $ $ + # + O + O O O O                                                       ",
"                                        O O O O o o O O O O O O O O O     O O O O o O O O O O O X O O O O                                                       ",
"                                                                                  O O O O O O                                                                   "
};
