/* XPM */
static char *w_4_left_resized[] = {
/* columns rows colors chars-per-pixel */
"80 80 153 2 ",
"   c None",
".  c #161614",
"X  c #181715",
"o  c #1A1917",
"O  c #1C1A18",
"+  c #201A16",
"@  c #291C17",
"#  c #221E1B",
"$  c #2A1F19",
"%  c #1F201F",
"&  c #23211E",
"*  c #2B211C",
"=  c #33241D",
"-  c #1F2122",
";  c #252423",
":  c #292623",
">  c #2D2925",
",  c #222629",
"<  c #262A2C",
"1  c #2D2C2A",
"2  c #312C27",
"3  c #382821",
"4  c #322E29",
"5  c #35312C",
"6  c #3A342D",
"7  c #262C30",
"8  c #292F32",
"9  c #2F3031",
"0  c #323334",
"q  c #3A3631",
"w  c #3D3933",
"e  c #343739",
"r  c #36383B",
"t  c #3A3B3C",
"y  c #413D36",
"u  c #433F38",
"i  c #46413A",
"p  c #4A453D",
"a  c #4D483F",
"s  c #3D3F41",
"d  c #3F4145",
"f  c #404246",
"g  c #4A4742",
"h  c #4E4941",
"j  c #424549",
"k  c #45484D",
"l  c #524C43",
"z  c #565047",
"x  c #575249",
"c  c #5B544A",
"v  c #5F584D",
"b  c #4A4D52",
"n  c #4D5257",
"m  c #4D5359",
"M  c #52575F",
"N  c #56595F",
"B  c #595B5D",
"V  c #61594E",
"C  c #645D52",
"Z  c #676054",
"A  c #696156",
"S  c #65615A",
"D  c #6D6559",
"F  c #70675B",
"G  c #736A5D",
"H  c #555A62",
"J  c #595E66",
"K  c #595F68",
"L  c #5D636B",
"P  c #5F6670",
"I  c #6E6962",
"U  c #61666E",
"Y  c #68696B",
"T  c #766E60",
"R  c #786F61",
"E  c #7C7364",
"W  c #7A756D",
"Q  c #656B74",
"!  c #6B727C",
"~  c #70767F",
"^  c #75787D",
"/  c #7A7C7E",
"(  c #807667",
")  c #807768",
"_  c #857B6B",
"`  c #897E6E",
"'  c #8A806F",
"]  c #8D8272",
"[  c #898379",
"{  c #8E887F",
"}  c #918675",
"|  c #948877",
" . c #968A79",
".. c #998D7B",
"X. c #9D917E",
"o. c #707782",
"O. c #757B85",
"+. c #7D8085",
"@. c #7D838E",
"#. c #7F8691",
"$. c #948D83",
"%. c #979187",
"&. c #9F9380",
"*. c #9A948A",
"=. c #808792",
"-. c #838A96",
";. c #868D99",
":. c #888F9B",
">. c #8C929D",
",. c #909396",
"<. c #91969E",
"1. c #A29683",
"2. c #A69986",
"3. c #A89B87",
"4. c #A09789",
"5. c #A49A89",
"6. c #AA9D89",
"7. c #A49D92",
"8. c #AEA08C",
"9. c #B1A38F",
"0. c #ABA499",
"q. c #B4A691",
"w. c #B7A893",
"e. c #BAAB96",
"r. c #B1A99C",
"t. c #BDAE99",
"y. c #BFB09A",
"u. c #9298A3",
"i. c #989EA9",
"p. c #A0A3A7",
"a. c #A0A6AF",
"s. c #B6AEA2",
"d. c #B9B1A5",
"f. c #BFB7AB",
"g. c #A5ABB4",
"h. c #AEB1B6",
"j. c #C0B19B",
"k. c #C3B5A0",
"l. c #C6B9A5",
"z. c #C8BBA7",
"x. c #C6BCAE",
"c. c #C9BDAA",
"v. c #C5BDB0",
"b. c #C8BFB2",
"n. c #CCC0AE",
"m. c #CEC3B1",
"M. c #D0C5B4",
"N. c #D6CCBD",
"B. c #C2C6CD",
"V. c #D7CEC0",
"C. c #D8CFC1",
"Z. c #DAD1C3",
"A. c #C6CBD1",
/* pixels */
"                                                                                                                                                                ",
"                                                            O o O O O O O o o O o O O O o O O o O                                                               ",
"                                                  O O O o o X O o o O O # O # O O % O o o o o o o O O o O O o                                                   ",
"                                          O O O o X o O ; 5 t h z v C D F T G E G G D C v z p y 5 > & O o o o o O O O                                           ",
"                                    O O O X O + 1 g I [ &.8.w.e.e.w.9.6.3.&.X...X...X...X.....| ] ] E D v p 5 ; O O o O O O                                     ",
"                              O O O O X & t D *.d.c.z.k.j.y.y.y.j.j.y.y.e.w.9.3.X.X....................... .} ) D g 5 & o o o O o                               ",
"                          O O o O O r T 7.b.N.M.l.j.y.y.y.y.e.t.y.y.y.y.y.y.y.y.e.w.6.1............... .........X...} E c q # o o O O                           ",
"                      O O o o : x $.x.Z.N.c.j.j.y.y.y.y.y.8.1.6.y.y.y.y.y.y.y.y.y.y.y.e.q.3.&.............................} F p ; o o o O                       ",
"                  O O O o 1 S 0.N.Z.N.m.j.j.j.j.j.j.j.j.w.X.....w.y.y.y.y.y.y.y.y.y.y.y.y.y.e.9.2.X...........................| E i & X o O                     ",
"                o O o ; S s.Z.Z.C.m.j.j.j.j.j.j.j.j.j.j.j.1.X.1.e.y.y.y.y.y.y.y.y.y.y.y.y.y.y.y.j.e.9.X...................| ......| F 5 o o O                   ",
"              o O o q *.C.Z.Z.M.j.j.j.j.j.w.| G ` 9.j.q.j.j.j.j.y.y.y.y.y.y.y.y.y.y.y.y.y.y.y.y.j.j.j.e.q.2.X...........} ) _ ......X._ y o O O                 ",
"            O O o g s.Z.Z.C.m.k.j.j.j.8.( z z F a p V a V ( 8.j.y.y.y.y.y.y.y.y.y.y.y.y.y.y.y.y.j.t.j.t.j.j.e.2.X... ...} E _ ..........] i o O O               ",
"          o O o g f.Z.Z.N.c.y.y.w.j.8._ ( ..j._ y 6 3 6 6 6 a ..j.y.y.y.y.y.y.y.y.y.y.y.y.y.y.y.t.j.t.j.j.j.t.j.e.2.X.X...| ' ' | ........' 6 o O o             ",
"        O O o t d.Z.Z.N.z.y.y.y.j.j.q.X.q.j.j.( y 3 6 6 6 6 5 V e.y.y.y.y.y.y.y.y.9.1.8.y.y.y.y.j.t.j.t.t.j.j.t.j.t.q.X...} E R _ ........X.E 1 o O o           ",
"        O O 1 7.Z.Z.C.l.y.y.y.y.j.j.6. .2.j.j.j.] a 6 6 5 5 w ) y.y.y.y.y.y.y.y.y.8...6.y.y.y.y.j.t.t.j.j.t.j.t.j.j.j.e.2...( E ' ............Z & o O           ",
"      O O O W C.Z.C.z.y.y.y.y.y.j.j.j.q.8.G G 6.8. .F z l C ] e.j.y.y.y.y.y.y.y.y.y.w.y.y.y.y.y.t.j.j.t.t.j.t.j.j.t.t.j.t.X.} } ..] | ........| p O o O         ",
"      O o u v.Z.C.c.y.y.y.y.y.y.y.y.j.k.8.l p ] ..&.q.e.w.t.j.j.y.y.y.y.y.y.y.y.y.y.y.y.y.y.y.y.j.t.j.t.t.j.j.t.j.t.t.j.j.w.X.....T ' ..........( > % X         ",
"    O o O [ Z.C.m.y.y.y.y.y.y.e.q.3...] W C V V c c Z T E _ } &.8.q.t.y.y.y.y.y.y.y.y.y.y.y.y.y.t.j.j.j.j.j.t.j.t.j.j.t.t.t.2.....T v ............v % o O       ",
"    O o 0 f.Z.m.j.y.y.y.y.y.t.8...] ] ] ' } } ' ] ` _ E T D C v x c Z T ] 1.q.y.y.y.y.y.y.y.y.y.j.j.t.j.j.t.t.t.j.j.t.j.j.t.8.....( i | ..........' 2 X O       ",
"  O O X S C.N.l.y.y.y.y.y.y.y.y.y.y.j.j.j.j.j.j.j.j.j.j.j.j.t.e.9.8.&.} _ R R ' 1.e.y.y.y.y.y.y.t.t.j.t.j.X.2.j.t.j.j.t.t.j.6.....' q E .... .......c o O %     ",
"  O O O { Z.c.j.y.y.y.y.y.y.y.y.t.j.j.t.j.t.j.j.y.y.t.y.y.y.y.y.y.y.y.y.y.y.t.9.8.q.y.y.y.y.y.y.j.t.j.w.q.9.G 8.j.j.j.t.j.t.X.X...} q F ............E * % %     ",
"  O o ; 0.N.j.y.y.y.y.y.y.y.y.y.j.t.j.j.j.j.j.t.y.y.j.y.y.y.y.y.y.y.y.y.y.y.t.y.y.y.y.y.y.y.y.y.t.j.e.X...8._ V 9.j.t.j.j.9.X.....| w v .. .........| 6 . .     ",
"  O o > s.m.j.j.y.y.y.y.y.y.y.y.t.j.j.t.t.j.t.j.y.y.y.y.y.y.y.y.y.y.y.y.y.y.y.y.y.y.y.y.y.y.y.y.j.j.q.....8.w.a F j.j.j.t.X.......} 5 c ..............c % . %   ",
"  O o > d.c.t.y.y.y.y.y.y.y.y.y.j.t.t.j.j.t.j.t.y.y.y.y.y.y.y.y.y.y.y.y.y.y.y.y.y.y.y.y.y.y.y.y.t.j.t.8.8.w.j...y X.j.t.2.......' V % v ...... .......F % . .   ",
"  o o > r.l.y.y.y.y.y.y.y.y.y.y.j.t.w.t.j.t.j.t.j.t.j.t.y.y.y.y.y.y.y.y.y.y.y.y.y.y.y.y.y.y.y.y.y.y.y.y.y.y.j.8.z 2.t.2....._ a = % : E X...........X.E & o O   ",
"  O o ; 7.l.t.e.y.y.y.y.y.y.y.y.t.2...1.e.j.t.j.t.j.j.j.y.y.y.y.y.y.y.y.y.y.y.y.y.y.y.y.y.y.y.y.y.y.y.y.y.y.j.X.} j.6.....F > o o i E X...............) ; o O   ",
"  o o O $.e.1.1.1.3.q.e.y.y.y.y.w.X.....w.j.j.j.j.t.t.j.y.y.y.t.y.y.y.y.y.y.y.y.y.y.t.t.y.t.t.y.y.y.y.y.y.y.t.X.q.8.....) * o & c } } _ | ..........X._ : o O   ",
"  O O O I 5...........X.6.e.y.y.j.9.X.X.9.t.j.j.j.j.j.j.j.j.j.y.j.j.j.y.y.y.y.y.t.w.9.8.2.X.X.X.2.q.y.y.y.y.t.q.9.......c X X y | ..( R } ............_ ; O O   ",
"    O X g *...............X.8.e.j.j.w.X.) G E _ | 1.3.6.6.6.3.X.| ] ] X.e.e.9.8.X.X.X.X....... .X...8.t.y.y.y.w.X.......z O X a ....| } ..} } ........E & O O   ",
"    O . 2 $.] E F E `  .......1.9.t.j.j.e.6.} G C c z z l c v Z R } X.2.&.X.........| ' ' } ........X.8.y.y.t.2..... .X.C O o 6 | ......} ( R ' ......D O O o   ",
"    O . O p 4 O O & > u C ] ....X.9.j.j.j.j.j.j.t.e.w.9.q.q.e.t.q.3.X.......| ' A l w 2 2 q c ' .... .2.t.y.q..........._ : o % G ......} R R ' ......c o O O   ",
"    o . o o O O O O O X O 4 v ] ....3.t.j.j.t.j.j.j.j.j.j.j.t.6....... .' Z y ; % o o o o X o 5 E ....X.w.t.8... .........c % X q } ......' ' | ......i o O o   ",
"      . O O O : 4 2 : # O X O 6 G X.X.X.t.j.j.t.t.j.t.j.j.e.X...X.| E a > O o o + % & * > & o X q ] ....w.t.X.............} a O O c ................' 1 o O     ",
"      . o X & 6 6 6 6 6 > % O X & a ]  .8.t.t.j.j.t.j.t.t.8.X.} G i & X o O % * 2 3 6 6 6 4 % X % D ..X.w.t.X............... .a O : ) X.............G # o O     ",
"      % O O & 6 6 6 6 6 6 4 * % % o i ' ..9.j.t.y.t.y.j.w.X.' i % X X % & 2 5 6 6 y 6 6 6 6 * X o a ....e.e.X...............X. .i o C ..............a o O o     ",
"      X O o & 6 6 6 6 6 6 6 6 > % o X i ] X.t.y.j.j.y.t.8.' 4 . o % & 4 6 6 6 6 6 6 6 6 6 6 > % o i  .X.e.y.X.X........... .} ..v o V X..... ...X.) : o O       ",
"      X O O % 6 6 6 6 6 6 6 6 6 2 + o + z X.e.y.t.j.t.j.q.a % % % > 6 6 6 6 6 6 6 6 6 6 6 q * o o i } X.y.y.X.X.........} ' T ' a & E .......... .z o O O       ",
"      X O O + > 6 6 6 6 6 6 6 6 6 > % o 5  .t.y.e.q.t.j.q.i . X & > 6 6 6 6 6 6 6 6 6 6 6 q & o + a ..8.y.j.9.X. .......} E E G > l | ..........E & o O         ",
"      . X + O & > 2 6 6 6 6 6 6 5 > X X 5 X.j.j.e.9.t.j.t.a . % & = 2 4 6 6 6 6 6 6 6 6 6 5 % o & T X.w.y.y.e.X...........] E i p ] ..........] q o O O         ",
"      X X O o O & : > = > 2 > > & % o X a e.j.j.j.j.j.j.y.] & % o % & : = 2 2 6 5 5 6 6 5 & o o y } X.j.y.y.y.X...........} a a } ..........} a O O o           ",
"      o o o o o o O & & * & % X + o o p } E V F E E | w.y.t.E & o X % & * : > > 2 4 > > & o o & T X.w.y.y.y.y.q....... .( a E ............} a O O O             ",
"      o o O p 6 % X X o o X % . % 6 G  .i % o % % % & V w.y.t.] q % X X o % & & * & & & o % % v ..8.y.y.y.y.y.y.X. .] T G ] ............) y O o o               ",
"      O O O W X.G a q 5 2 5 i v ' 8.e.C X * 5 > = 5 % % ' y.y.y.8.D 6 % X % o o o % o o o * C ..8.t.y.y.y.y.y.y.9.' ' ] ............] C 1 o O O                 ",
"      O O O G j.t.e.9.X.X.9.w.t.e.y.w.i o 2 6 6 6 q & X C y.y.y.t.t.8.E x w * & % & & 5 c ' X.q.y.y.y.y.y.y.y.y.w... ...........` V 5 O O O O                   ",
"        O o w 8.j.j.t.e.y.y.y.y.y.y.y.a X : 6 > 5 6 & X R y.y.y.t.t.j.y.w.8...' ( ( ' X.8.q.t.t.y.y.y.y.y.y.y.y.e.X.......} E a 1 O o o O                       ",
"        O O O V e.y.e.8.y.y.y.y.y.j.j.} 2 % & O & & X y 8.y.y.y.y.t.y.y.t.t.j.t.t.t.t.t.y.j.j.y.y.y.y.y.y.y.y.t.8... .' Z i : + o O O                           ",
"          O O & F e.y.t.t.y.y.w.t.y.y.y.X.Z a a i w V 2.t.t.y.y.y.y.y.y.y.y.y.y.j.j.y.y.q.8.w.j.y.y.y.y.t.e.w.X.' F a > % X o O O                               ",
"            O o & D w.t.8.w.y.8.e.y.y.y.j.j.j.j.w.w.t.y.y.t.t.y.y.y.y.y.y.y.y.y.y.y.y.t.X.X.8.j.y.e.9.X.X.} G a 2 % o X o X %                                   ",
"            O O o O c w.e.y.y.y.y.y.y.y.y.y.y.y.j.y.y.y.y.y.y.y.y.y.y.y.y.y.y.y.y.y.y.y.e.8.t.t.8.X.' F a 2 % . % . O O                                         ",
"                O O & ] j.y.y.y.y.j.y.y.y.y.y.y.y.y.y.y.y.y.y.y.y.y.y.y.y.y.y.y.y.y.y.t.y.y.t.q...Z 2 O o X % . %                                               ",
"                O O o T j.y.y.y.j.j.y.y.y.y.y.y.y.t.y.y.y.y.y.y.y.y.y.y.y.y.y.y.y.y.t.t.y.y.y.8.( & X O % . %                                                   ",
"                o O o c y.y.y.y.X.9.y.y.y.y.y.y.q.| y.y.y.y.y.y.j.w.w.y.y.y.y.y.y.j.X.X.j.y.t.8.a O O O X . %                                                   ",
"                  O o 6 6.y.y.y.C ' y.y.y.y.y.y.X.a 9.y.y.y.y.y.j.X.E y.y.y.y.y.y.j.G h 8.q.q.] 5 % % . . % % .                                                 ",
"                  O o O c 3.q...> z 8.y.y.y.y.y.G : ..t.y.y.y.y.j.X.i X.t.y.y.j.t.q.c : ) X.' i O X % 1 9 % . % O                                               ",
"                    O O O 0 i > X & w R 8.e.8.} y % C } q.t.y.e.2.G & D  .8.q.2.A y & % 4 p 5 O X : k H L J d % o O                                             ",
"                      O O O X X % o o & a C i & % X % * V } | C 6 % O % 6 c C q % X o X X X O O O f ! ! L M m r O O                                             ",
"                        O O o O   % o o X O o o o X o o % > * + X O % o o o O o O o O q i > & X - J Q P P L L L 0 O O                                           ",
"                                  % O O % O X % & % o % . . % X % , 8 & o o o O o O 2 i w ; % O O m ! o.o.P H H n , o O                                         ",
"                                    o % 2 O X i ' G a > % . X % X % O o X X o o o o O O & : & O - L ! P P P L J L r O O                                         ",
"                                  O o 2 5 O O : i a a i > % X & 5 & o % w i y i i p z C F V 5 O O b P ! o.Q n 0 ; O O o O                                       ",
"                                X O O c 5 X % : & % o o X % . 4 X.a X % i a i i q 5 5 1 1 ; O O O < < , , ; O o o o O o                                         ",
"                            o O % & a ' : X 2 C F C a p i & X 4 ' i o % % o % & ; ; % o o O O O O O O o & 5 6 l y : O o o                                       ",
"                          O O o w ] ' y % X % % * > 4 > & % . % & % o * i p a a p 6 ; O O O O - - o o > ` ) 1 y E Z ; o O                                       ",
"                        o O O o % q : X X % ; % % o % % % o o 2 6 & o o o & o % O O O O - - , - o o o p X.l o o & & O O o O                                     ",
"                        O o ; g q : O o O ; e 8 7 < < < , O O E ` 5 o O - ; O ; - , , < 7 8 , O O 1 O O : O # q 5 5 h Z 1 o o                                   ",
"                        O O O 6 l p & o O O O - - , , < , O O > 4 & o O 7 8 8 8 8 8 8 8 8 7 ; o 1 ` v 4 4 i F ......1.1.g o O                                   ",
"                        o O o O O O O O O 3 = * & @ # # O O O o o o O O - , , , , ; , - ; - O o 4 D D  .2.3.2.1.1.3.1.1.z o O                                   ",
"                          O o q F E ` 6 O 3 3 = = = = * = * * * $ & & @ # # + # + # # # $ # + o O p 2.t.8.q.2.1.1.1.3.] 5 O o                                   ",
"                          O O O i T ) 1 o ; > # # @ $ * = = = = = = = = = = = = = $ @ = = = + O # ] ..D ..q.] 1.3.1.} i O O                                     ",
"                              O X o O O o B p.^ b t 0 > & # # # + @ @ $ $ $ $ $ $ # # @ @ + O X O 5 u ` 6.C ) 2...F 6 O o                                       ",
"                                  O O O O / A.g.>.-.@.O.! +.^ B k f t r e e 0 0 0 e r t e r s 1 O O C ] y u R v 5 # o O                                         ",
"                                      o & ,.B.a.u.:.;.;.:.u.i.>.;.-.:.<.=.=.=.@.=.=.-.=.U U L N < O O # o ; O X o O o                                           ",
"                                      O O Y h.<.O.! o.-.-.-.;.:.;.-.;.;.-.;.;.-.;.:.;.@.U J J L J f < # & ; < # o o                                             ",
"                                        o ; t 0 ; ; ; j U o.Q H k j U O.#.-.;.@.O.U b j k M H H b r ; O ; 0 8 O O                                               ",
"                                        O o o o o w c > & ; # X O o O 1 b L N t 1 O : 6 : ; : 1 O o O o o o o O                                                 ",
"                                        O O # O O > l i ; O o O O O O o o O O o O o 4 c l : X O O o O O                                                         ",
"                                        O O * * O O X o o O O + O O o   O O O $ # + O O O O O O + + O O                                                         ",
"                                      O O O @ # * @ @ # O O o + O O O   O O O $ * $ $ # @ + O O + O o O                                                         ",
"                                      O O O O O O O + O O o O O O O     O O O O O O O O O O o O O O O O                                                         ",
"                                              O O O o O O O O o             O O O O O O o O O O O o                                                             "
};
