/* XPM */
static char *w_17_left_resized[] = {
/* columns rows colors chars-per-pixel */
"80 80 151 2 ",
"   c None",
".  c #171614",
"X  c #181715",
"o  c #1A1917",
"O  c #1B1A18",
"+  c #211A16",
"@  c #281C17",
"#  c #211E1B",
"$  c #291F1A",
"%  c #1F201F",
"&  c #23211E",
"*  c #2C211B",
"=  c #33241E",
"-  c #1E2122",
";  c #252422",
":  c #292622",
">  c #2D2925",
",  c #232628",
"<  c #25292C",
"1  c #2C2B2A",
"2  c #302C26",
"3  c #3D2B24",
"4  c #322E29",
"5  c #35312C",
"6  c #3A342D",
"7  c #272D30",
"8  c #292E32",
"9  c #2D3032",
"0  c #323334",
"q  c #3A3630",
"w  c #3D3933",
"e  c #33373A",
"r  c #3C3C3C",
"t  c #413D36",
"y  c #403D39",
"u  c #46413A",
"i  c #4A453D",
"p  c #4F483E",
"a  c #50483F",
"s  c #3C3E41",
"d  c #3F4144",
"f  c #474747",
"g  c #4E4941",
"h  c #434549",
"j  c #4A4C4F",
"k  c #524D44",
"l  c #575047",
"z  c #595147",
"x  c #555149",
"c  c #5B554B",
"v  c #5F584D",
"b  c #444A50",
"n  c #484D54",
"m  c #4D5156",
"M  c #4F545B",
"N  c #535455",
"B  c #5A5650",
"V  c #5B5852",
"C  c #52565D",
"Z  c #575A5F",
"A  c #60594F",
"S  c #645D52",
"D  c #676054",
"F  c #6A6256",
"G  c #6D6559",
"H  c #70675B",
"J  c #736A5D",
"K  c #565B62",
"L  c #595E65",
"P  c #5D636C",
"I  c #616364",
"U  c #62666E",
"Y  c #67686A",
"T  c #766D60",
"R  c #786F61",
"E  c #7C7264",
"W  c #777269",
"Q  c #7A756D",
"!  c #606771",
"~  c #636A74",
"^  c #696E76",
"/  c #6F7073",
"(  c #6C727C",
")  c #7F7971",
"_  c #807667",
"`  c #817768",
"'  c #847A6B",
"]  c #897E6E",
"[  c #827D74",
"{  c #8A7F70",
"}  c #8A806F",
"|  c #858077",
" . c #8D8272",
".. c #868078",
"X. c #918675",
"o. c #948877",
"O. c #968A79",
"+. c #998D7B",
"@. c #9D907E",
"#. c #6E7680",
"$. c #707782",
"%. c #757B85",
"&. c #787E89",
"*. c #7C828D",
"=. c #7E8590",
"-. c #958E84",
";. c #9F9280",
":. c #9C958A",
">. c #808691",
",. c #848A95",
"<. c #868D99",
"1. c #888F9B",
"2. c #8A919C",
"3. c #A29583",
"4. c #A69985",
"5. c #A89B87",
"6. c #A19789",
"7. c #A0998E",
"8. c #AB9D8A",
"9. c #A69F94",
"0. c #AEA08C",
"q. c #B1A38E",
"w. c #ABA294",
"e. c #ACA59A",
"r. c #B4A691",
"t. c #B7A893",
"y. c #BAAB96",
"u. c #BDAE99",
"i. c #BFB09A",
"p. c #949AA4",
"a. c #9EA1A6",
"s. c #9DA3AC",
"d. c #B6AEA3",
"f. c #BBB3A7",
"g. c #BDB5A9",
"h. c #AEB2B7",
"j. c #C0B19B",
"k. c #C4B6A1",
"l. c #C7B9A5",
"z. c #C2BAAD",
"x. c #CABDAA",
"c. c #C5BDB0",
"v. c #CDC1AF",
"b. c #CEC3B2",
"n. c #D0C4B2",
"m. c #D5CBBC",
"M. c #B7BBC1",
"N. c #BFC4CA",
"B. c #C3C8CE",
"V. c #D8CFC0",
"C. c #DAD1C3",
/* pixels */
"                                                                                                                                                                ",
"                                                          O O O O O O O O O X O O X O O O O O O O                                                               ",
"                                                O O O O O X X X X O O O & ; & & & O + O X X X X X X O X O O O                                                   ",
"                                        O O O X X X O # 1 w g v F H J T E E E E E E J G S c k t 6 > ; O O X X X O O O                                           ",
"                                  O O O O X O ; w B ) :.w.y.u.u.j.i.y.r.8.4.@.@.+.@.+.@.+.+.+.O.o. .E H c i 5 ; O X X O O O                                     ",
"                              O O O X O > k ) e.c.b.x.k.j.i.i.i.i.j.j.j.i.u.y.q.8.@.+.+.+.+.+.+.+.+.+.+.+.+.o.E F g 5 & X O X O O                               ",
"                          O O X X ; j ..d.m.m.n.l.i.i.i.i.i.u.y.u.i.i.i.i.i.i.i.j.t.q.8.@.+.+.+.+.+.+.+.+.+.+.+.@.+. .E c 6 & X O O O                           ",
"                      O O X O q T w.m.C.m.x.j.j.u.u.i.i.i.y.3.@.8.u.i.i.i.i.i.i.j.j.j.j.y.q.4.+.+.+.+.+.+.+.+.+.+.+.+.@.+.X.J i ; X O X O                       ",
"                  O O X O y ..z.C.C.m.v.j.j.j.j.j.j.j.j.j.0.+.O.3.y.j.i.j.i.i.i.i.u.j.i.j.y.j.t.q.@.+.@.O.+.+.+.+.+.+.+.O.+.+.O.E p & X O O                     ",
"                X O O 1 Q c.C.C.m.n.j.j.j.j.j.y.j.j.j.j.j.y.4.3.q.i.i.i.u.i.i.i.i.i.i.i.j.j.j.j.j.y.q.4.@.+.+.+.+.+.+.+.+.+.+.+.@.O.E w O O O O                 ",
"              O O O u e.V.C.C.n.j.j.j.j.j.0.] A A _ 5.8.8.t.j.j.i.i.i.i.i.i.i.j.i.i.i.i.y.j.j.y.u.j.j.u.t.0.@.@.+.+.+.+.+.X.]  .+.+.@.} l & X O O               ",
"            O O O x g.C.C.V.b.k.j.j.j.r.E z A ' G t t t t z ` q.j.i.i.i.i.i.i.u.i.i.i.i.j.j.j.j.u.j.u.j.u.u.y.0.;.+.+.+.+.] E ] O.+.+.@.o.c & X O               ",
"          O O o x c.C.C.m.x.i.i.j.y.j.@.o.8.j.q.p 3 3 6 6 6 6 z 8.j.i.i.i.i.i.i.i.i.i.y.j.j.j.j.j.u.j.u.i.i.j.u.t.0.@.+.+.o. . .O.+.+.+.+.O.z X X O             ",
"        O O X u f.C.C.m.l.i.i.i.j.j.t.@.@.y.j.t.F t 6 6 6 6 6 6 X.j.j.u.i.i.i.i.j.y.8.4.t.j.j.y.u.j.j.j.i.i.u.j.j.j.t.4.+.+.X.E E X.+.+.+.+.X.u O O O           ",
"        O o 1 9.C.C.m.l.i.i.i.i.y.j.j.@.4.r.q.j.t.] u 6 6 6 6 c 8.j.i.i.i.j.i.i.j.y.3.@.r.j.y.j.u.j.u.j.i.i.u.i.j.i.i.u.8.@.} E R  .+.+.+.+.+.' 1 X O X         ",
"      O O O W V.V.V.l.u.i.i.i.i.j.j.j.j.y._ i R 8.@.O.J S S ] r.j.j.i.i.i.u.i.i.j.u.y.t.j.j.j.j.j.u.j.u.i.i.j.i.i.i.i.u.u.0.O.' } O.O.+.+.+.+.@.F & O O         ",
"      O X r z.C.m.l.j.j.u.j.u.j.j.j.j.u.y.` a J O.X.3.y.u.u.j.k.i.i.i.i.i.i.i.i.i.i.i.i.i.i.i.u.u.u.j.u.i.i.i.j.i.i.i.i.j.u.4.+.+.X.E +.@.O.+.+.X.u o O O       ",
"    O O O [ C.m.x.j.j.u.j.u.j.y.4.X.' J G S c c k k k v S G R { +.4.r.i.i.i.i.i.i.i.i.i.i.i.i.i.j.j.u.j.i.j.i.u.i.i.i.i.u.j.q.@.+.O.v } +.+.+.+.@.E & o O       ",
"    O O 5 f.C.n.j.j.j.j.u.y.j.t.0.8.8.8.8.8.8.8.5.6.;.+. .' E F V c c F E +.0.u.j.i.i.i.i.i.i.i.u.j.j.u.u.u.u.j.i.i.i.j.j.j.y.@.+.+.l H @.+.+.+.+.O.p O O O     ",
"  O O X B m.m.k.j.y.j.y.j.j.j.j.j.j.j.j.j.j.j.j.j.j.j.j.j.j.j.j.u.y.0.;. .E R ` +.r.u.i.i.i.i.i.j.u.j.j.j.t.4.u.i.i.i.u.j.j.u.@.O.@.c l +.+.+.O.+.@.E & X O     ",
"  O O O [ C.x.u.j.y.j.j.j.y.u.j.u.j.u.j.j.u.j.u.i.i.i.i.i.i.i.i.i.i.i.i.i.j.u.r.0.0.u.u.i.i.i.i.u.j.j.u.t.u.} @.j.u.u.j.u.j.t.@.+.@.D u o.+.+.+.O.@.X.w o % O   ",
"  O X # :.m.j.i.j.j.j.j.j.j.j.u.j.u.j.j.u.j.j.j.i.i.i.i.i.i.i.i.i.i.i.i.i.i.i.i.i.i.i.u.i.i.i.i.j.u.j.0.@.8.@.z 0.j.j.u.j.u.0.@.O.+.G 6 } +.+.+.+.O.@.A o o %   ",
"  O X ; 9.b.i.i.y.j.y.j.j.y.j.j.u.j.u.u.u.j.u.j.i.i.i.i.i.i.i.i.i.i.i.i.i.i.i.i.u.i.i.i.i.i.i.i.u.u.u.@.+.@.t.F c t.j.j.j.t.@.O.+.@.F 4 } @.+.+.+.+.@.E & o o   ",
"  O O & 9.x.i.i.j.j.j.j.j.j.j.y.u.j.j.j.j.u.j.u.i.i.i.i.i.i.i.i.i.i.i.i.i.i.i.i.i.i.i.i.i.i.i.i.j.j.j.q.@.q.j.0.u } j.j.t.@.+.+.@.+.a 4 } +.+.O.+.+.O.} 2 o o   ",
"  O X & 7.l.j.j.j.j.i.i.j.y.j.j.j.y.q.r.u.u.j.j.u.j.u.j.i.i.i.i.i.i.i.i.i.i.i.i.i.i.i.i.i.i.i.i.i.i.i.i.i.i.i.i.A J j.t.4.O.@.} F u & u X.+.+.+.+.+.+.o.w X O   ",
"  O O O -.k.r.q.q.t.y.j.j.u.j.j.y.3.+.+.r.j.u.j.j.u.j.u.i.i.i.i.i.i.i.i.i.i.i.i.i.i.i.i.i.i.i.u.i.i.i.i.i.i.i.r.J 0.u.@.@.O.D 4 O O 6 E +.+.+.+.+.+.+.O.u X O O ",
"  O O O ) w.+.+.+.+.3.0.y.j.j.j.y.3.+.@.r.j.j.j.j.j.j.u.i.i.i.u.i.i.i.i.i.i.i.i.i.i.i.i.i.u.u.u.i.i.i.i.i.i.i.0.@.u.3.+.+.v % . & c X.o.O.+.+.+.+.+.+.+.i X O X ",
"  O O O c 6.+.+.+.+.+.+.@.q.y.j.u.t.5.+.3.q.y.j.j.j.j.j.j.j.j.j.j.j.j.i.i.i.i.i.u.u.t.0.0.4.4.4.0.t.i.i.i.i.i.0.t.4.@.+.E * . & D +.} E } O.+.+.+.+.+.+.i X O O ",
"    O X w 7.+.O.O.O.+.+.+.+.3.r.j.j.u.0. .H S H E { O.+.;.;.;.o. .} } @.t.u.r.0.4.@.@.+.+.+.+.+.+.+.0.i.i.i.i.u.4.+.+.@.G O o 5 X.+.} ` } @.+.+.O.+.+.o.w X O   ",
"    X . ; W v t t i A _ O.+.+.@.8.y.j.j.j.y.5.X.E F A v c v S G E X.@.3.3.@.+.+.+.@.O.o.X.+.+.+.+.+.+.q.i.i.i.0.+.+.+.+.J % o 4 } +.+.+.+.} ' X.+.+.+. .5 X O   ",
"    X . X & O X X X O & t G o.+.+.5.y.j.u.j.j.j.j.j.u.y.y.u.u.u.r.5.@.+.+.@.O.} R v i w w u F  .@.+.+.3.u.i.u.@.+.+.+.+.} > o % T @.+.+.O.E R ` O.+.+.' ; O O   ",
"    X X X O O & & & O O X O t R +.+.3.y.j.u.j.u.j.j.u.j.u.i.y.5.+.+.+.+.} F i 4 % o X o o o O w } +.+.@.u.i.0.+.+.+.+.+.o.p o o i o.+.+.+.` E ] +.+.@.H O O O   ",
"      . O + % 6 6 6 4 * % % % & z X.@.@.y.j.j.j.j.u.j.u.j.t.@.@.+.O.R a 4 O o o O % & & * % o o t X.+.+.t.u.0.O.+.+.+.+.+.} 4 . & H +.+.+.o. .+.+.+.+.k O O X   ",
"      . O X & 6 6 6 6 6 2 & . o O u ' @.8.u.u.u.j.j.u.j.u.4.@.X.G y & . O O & & = 5 5 6 6 2 % o % J @.+.r.u.@.+.+.+.+.+.+.+.E 5 X 6  .+.+.+.+.+.+.+. .6 X O     ",
"      % O O 2 6 6 6 6 6 6 5 = % O o 5 ` @.q.u.j.u.j.u.j.t.+.R t % . O % & > 5 6 6 6 6 6 6 6 & o % z +.+.t.y.@.+.+.+.+.+.+.+.+.} 5 O F @.+.+.+.+.+.@.R % X O     ",
"      X O X * 6 6 6 6 6 6 6 6 4 % O o w } 5.j.u.j.u.j.u.0.J > . X % & 4 6 6 6 6 6 6 6 6 6 6 * % . i O.@.y.u.@.+.+.+.+.O.+.+.O.O.c X z +.+.+.+.+.+.+.p X O O     ",
"      % X % & 4 6 6 6 6 6 6 6 6 4 % o O A 4.u.j.u.u.j.j.5.w . O % 2 6 6 6 6 6 6 6 6 6 6 6 q * O . u O.@.u.u.@.+.+.+.+.+.O.} } o.c O D +.+.+.+.+.+.E : O O       ",
"      o + X % 2 4 6 6 6 6 6 6 6 6 * o o u 4.u.j.t.r.u.j.4.> O O & 4 5 6 6 6 6 6 6 6 6 6 6 6 & O % z +.0.u.j.0.+.+.+.+.+.o.R R ` w 5 } +.+.+.+.+.O.u X O O       ",
"      . X % X % > 2 4 4 6 5 5 5 4 & O o a t.j.j.t.t.j.j.q.q . O & > 4 4 6 6 6 6 6 6 6 6 6 4 O O % R +.t.j.j.r.+.+.+.+.+.o.E E c > J +.+.+.+.+.+.D % O O         ",
"      X X X X % % : * = > > & * % O O & } u.y.j.j.j.j.u.j.J % O O & * > = 2 4 6 6 6 6 6 5 & O O w o.@.j.j.u.y.@.+.+.+.+.+.o.D q H O.+.+.+.+.+.E > X O X         ",
"      O X & & X % o % % % o % . . o 4 E ' a p S F H +.u.j.t.A O O O % & * > > 4 > > > > & O X & R @.r.i.i.i.u.0.+.+.+.+.X.S a } +.+.+.+.+.+.E 5 X O O           ",
"      O X q E p & % . . . . o & 6 F 4.H % O & O O O & E u.j.t.J = o O O % & & * : : & & O O & c +.0.i.i.i.i.i.t.+.+.o.} S J o.+.+.+.+.+.+.J 1 O O O             ",
"      O X w 0.0.O.T A l a S R O.r.j.4.& O 4 5 > 5 2 O 5 0.j.u.u.O.l & % . . O O O O O O X : A +.0.i.i.i.i.i.i.i.@. .E E X.+.+.+.+.+.@. .v ; X O O               ",
"      O O > ;.j.i.i.u.u.j.j.j.j.u.j.X.% & 5 6 6 6 5 % & +.j.j.u.j.t.O.D u > & O O O & > p ` @.q.i.i.i.i.i.i.i.i.0. .o.+.+.+.+.+.+. .D 5 O O O X                 ",
"      O O o v y.i.u.q.t.i.i.i.i.i.i.;.* O 4 4 = 6 > O 4 0.i.i.i.u.j.j.u.0.@.' J G H E X.4.q.y.j.i.i.i.i.i.i.i.i.r.+.+.+.+.+.O.} v 2 O O O O                     ",
"        O o ; E i.u.r.u.i.i.i.i.i.i.u.H & % o % & O & R u.i.i.i.j.u.u.j.u.u.u.u.y.t.y.u.j.j.u.j.i.i.i.i.i.i.i.i.0.+.+.O.} G u & O X O O X                       ",
"        O O X ; } u.i.y.t.i.t.t.i.i.j.y.X.H D v i x } u.u.i.i.i.u.j.j.u.j.u.j.j.j.j.j.u.t.t.j.j.u.i.i.i.j.i.t.0.+. .J p 2 % X X O O                             ",
"          O O O > E u.t.q.i.t.t.i.i.j.u.j.j.j.u.y.u.i.i.i.i.i.i.j.u.u.j.u.j.u.j.j.j.u.t.@.@.t.j.i.u.t.0.0.@. .J a 4 & X X X % X                                 ",
"            O X O & ` j.i.i.i.j.i.i.i.i.i.i.i.i.i.i.i.i.i.i.i.i.u.j.u.j.u.j.u.j.j.u.j.t.8.0.u.u.0.@.O.} D u 2 % o o O O O                                       ",
"              O O X x i.i.i.i.i.i.i.i.i.i.i.i.i.i.i.i.i.i.i.i.i.j.u.j.j.j.u.j.u.u.j.j.j.u.u.u.0.o.D t & % o o o o o                                             ",
"                O X i t.i.i.i.i.i.i.i.i.i.i.i.i.i.i.i.i.i.i.i.i.u.j.j.u.j.u.j.j.j.u.u.j.u.j.u.@.v % X X O O %                                                   ",
"                O X 6 8.j.i.i.4.+.i.i.i.i.i.i.i. .0.i.i.i.i.i.i.u.t.u.j.u.j.u.j.j.t.@.u.j.u.t.X.4 X X % o O o                                                   ",
"                O X % E i.j.j.J v i.i.i.i.i.i.r.i o.i.i.i.i.i.i.t.R r.u.u.j.u.u.j.8.i @.u.u.q.D + X % . % . X                                                   ",
"                O O X 5 Q 3. .6 6  .t.i.j.j.j. .; T y.i.i.i.u.i.t.i ' u.j.u.j.j.j.X.& J @.4.` > X O % 1 & % . %                                                 ",
"                  O O O & > & X O : l @.r.4.} l O g ` 0.i.i.i.r.o.4 z @.r.u.t.O.D w O q A A 4 O % q n P P M 8 % O                                               ",
"                    X O O X O O o o . 6 l u & O O O ; k  .+.T y & O % 5 A E c > O O O . O O X O % L ( ~ K M b & O O                                             ",
"                        O O     O O O . O . X O . % o . * > % o O % O O O % X O O X & > % O O X s ~ P ! ! P ! m % O O                                           ",
"                                  O O % % O O O o . o % % o o o ; 9 , O O O X O O % w u & O O O 8 ! $.$.^ L C M e O O                                           ",
"                                  O o & & O & c F a * % o o o % % % O O o o X O O X O O & & % X d #.! P ! ! P ! Z ; O O                                         ",
"                                  . % % O O & a F H c 6 % % o % : O O & q 6 6 q w u x D H l & . 9 ! ( #.#.! h 9 , O O X                                         ",
"                                  % o & % X % % % % % % % o o l } 4 o > x x p u w w 6 6 5 % O O - 9 < 8 9 ; O O O O O                                           ",
"                              O . % & u X X i G c a u 6 2 o o S } & O O O O O % % % O O X O O O O O O X ; > q w & O X O                                         ",
"                            O X & p E u X X % 5 6 6 6 4 > % o : > O O 5 u p g g u 6 ; O O O - - O X O c o.i q T E 6 O O O                                       ",
"                          O O X 6 } S & X % % . % % . % o o % : & O o % & & & % O X O O - - - O O X > +.` & X ; 6 & X O X                                       ",
"                          O O & O O O O X 1 e 7 < < , < - X 5 X.F % O O - O - O ; - < < 7 < O X > % O 2 ; X ; : & 2 p 5 O O                                     ",
"                          X & k l u ; O O - , - < < 7 9 - X & u w O O ; 7 8 7 8 8 8 8 8 8 , O % R F 2 ; 2 k '  .] O.3.S O O                                     ",
"                          O O O 5 5 O O $ * & # O O % O O O O X X O X - , < < < , < < - ; - O & H H ] O.+.3.6.4.4.3.4.J O X                                     ",
"                          O O & > > > O * 3 3 = = = * * * & $ & # @ # @ O # O + # O # # # + O O q { u.t.y.5.3.3.3.3.3.c O O                                     ",
"                          O O & S +.E O O # $ * * * * = = = = = = = = = = = = = $ @ * = = @ O O E 5.E  .t.O.3.3.4.3.G ; O O                                     ",
"                            O O O 5 q O O I / h 0 : & O + @ @ $ $ $ * * $ $ = $ $ $ $ $ $ @ O O q t T q.E R 4.3. .c & X O                                       ",
"                                O O X O ; a.B.p.*.%./ P Z P N r 0 9 1 1 > 1 > 1 > 9 0 0 9 0 > X X v ;.x w ' R k 2 O X O                                         ",
"                                    O X 0 h.N.p.p.<.<.<.2.s.s.,.>.&.,.>.%.%.%.%.&.&.*.%.P P C 1 O # : X : > + o X O                                             ",
"                                      X 1 a.h.p.>.*.,.<.,.,.<.<.1.1.2.2.<.<.<.,.<.1.1.&.U L P K s 1 O X O ; < O O O                                             ",
"                                      O O f / n r 0 d U %.=.%.^ K P %.*.>.,.<.*.*.( K m m C K L n e # O ; e 9 O O                                               ",
"                                        O O X X X q > ; 0 0 , # X O 1 h I ( ~ j 0 # ; > ; ; 1 1 - O O O O O X O                                                 ",
"                                        O O O O O 5 q O X X O O O O X X O , # X X O 4 i 5 O O X X X O O                                                         ",
"                                      O O # = $ # X O O O O O + O O O   O O + * # O O O O O O o + + O O                                                         ",
"                                      O O O $ $ $ # $ + O O + O O O     O O # $ * $ $ # $ + O + + O O O                                                         ",
"                                      O O O X O X O O O O X O O O O     O X O O O O + O O O X O X O O O                                                         ",
"                                              O O O O O O O O               O O O O O O O O O O O                                                               "
};
