/* XPM */
static char *w_9_left_resized[] = {
/* columns rows colors chars-per-pixel */
"80 80 151 2 ",
"   c None",
".  c #171614",
"X  c #181715",
"o  c #1A1917",
"O  c #1C1A18",
"+  c #231A16",
"@  c #221E1B",
"#  c #291F1A",
"$  c #23211E",
"%  c #2D211B",
"&  c #32241D",
"*  c #1F2122",
"=  c #252422",
"-  c #292622",
";  c #2C2925",
":  c #242728",
">  c #252A2D",
",  c #2D2C2A",
"<  c #342620",
"1  c #382720",
"2  c #302C26",
"3  c #392922",
"4  c #322E29",
"5  c #35312C",
"6  c #3A342D",
"7  c #272D30",
"8  c #292E32",
"9  c #2D3032",
"0  c #333333",
"q  c #3A3630",
"w  c #3E3A33",
"e  c #353638",
"r  c #35393C",
"t  c #3E3C39",
"y  c #423D36",
"u  c #433F39",
"i  c #46413A",
"p  c #4A453D",
"a  c #4D483F",
"s  c #50483F",
"d  c #3B3E41",
"f  c #3E4145",
"g  c #414245",
"h  c #4E4941",
"j  c #42464A",
"k  c #44484E",
"l  c #534D44",
"z  c #514E48",
"x  c #565047",
"c  c #575148",
"v  c #5B544A",
"b  c #5F584D",
"n  c #4A4D51",
"m  c #4D5054",
"M  c #4E5359",
"N  c #5E5A55",
"B  c #51565D",
"V  c #615A4F",
"C  c #645D52",
"Z  c #645F59",
"A  c #676054",
"S  c #6A6256",
"D  c #646059",
"F  c #6D6559",
"G  c #70675B",
"H  c #726A5D",
"J  c #555B62",
"K  c #5A5E65",
"L  c #5B6067",
"P  c #5C626B",
"I  c #6D6861",
"U  c #61666D",
"Y  c #766E61",
"T  c #786F61",
"R  c #7C7264",
"E  c #76726A",
"W  c #79746C",
"Q  c #606771",
"!  c #646A73",
"~  c #686F79",
"^  c #6C727B",
"/  c #707274",
"(  c #7D7870",
")  c #70767F",
"_  c #807667",
"`  c #807768",
"'  c #847A6B",
"]  c #897E6E",
"[  c #8B806F",
"{  c #8D8272",
"}  c #878179",
"|  c #8C867C",
" . c #8E897F",
".. c #918675",
"X. c #948877",
"o. c #968A79",
"O. c #998D7B",
"+. c #9D917E",
"@. c #717780",
"#. c #737983",
"$. c #767D88",
"%. c #7C838D",
"&. c #7E8590",
"*. c #8F8980",
"=. c #85878B",
"-. c #968F84",
";. c #9F9281",
":. c #9D968C",
">. c #808692",
",. c #848A95",
"<. c #868D99",
"1. c #888F9B",
"2. c #8A919D",
"3. c #999B9F",
"4. c #A39683",
"5. c #A69986",
"6. c #A89B87",
"7. c #A69D8E",
"8. c #AB9D89",
"9. c #A49D92",
"0. c #AEA18C",
"q. c #B1A38F",
"w. c #A9A297",
"e. c #B4A691",
"r. c #B7A893",
"t. c #BAAB96",
"y. c #B1A799",
"u. c #BDAE99",
"i. c #BFB09A",
"p. c #949AA5",
"a. c #999BA0",
"s. c #989EA9",
"d. c #9AA0AA",
"f. c #B5AEA2",
"g. c #ABAEB3",
"h. c #C0B19B",
"j. c #C4B6A2",
"k. c #C6B9A5",
"l. c #C3BAAC",
"z. c #CABEAB",
"x. c #C7BFB2",
"c. c #C8BFB1",
"v. c #CDC1AF",
"b. c #CCC2B3",
"n. c #D1C6B5",
"m. c #D5CCBD",
"M. c #BEC2C8",
"N. c #C5C9CF",
"B. c #D7CEC0",
"V. c #D8CFC0",
"C. c #DAD1C3",
/* pixels */
"                                                                                                                                                                ",
"                                                              O O O O O O o O O O O O O O                                                                       ",
"                                                  O O O O O X O X . o o o o o o X X X . o o o O O O O o                                                         ",
"                                          O O O o o . o O : 5 w p l l c v v v v x l p y 6 , - @ O o o o o o O o                                                 ",
"                                    O O O O o O - u N ( -.7.e.e.t.u.t.e.8.4.+.O.O.O.O.o.X.{ ' T S v i 5 - O o o o O O o                                         ",
"                              O O O o o @ w D o.f.x.b.z.j.h.h.u.i.i.i.h.i.u.r.q.5.O.O.O.O.O.O.O.O.O.o...' H v w ; O o o O O O                                   ",
"                          O O o X * t Y 9.x.m.m.z.j.i.i.i.i.i.u.t.i.i.i.i.i.h.i.h.r.q.+.O.O.O.O.O.O.O.O.O.+.O.o.] F l 4 O O o O o                               ",
"                      o O o o , N :.b.C.C.n.k.h.i.i.i.i.i.h.r.4.4.q.i.i.i.i.i.i.h.h.h.h.r.8.+.O.O.O.O.O.O.O.O.O.O.O.O.{ H p - o o O O                           ",
"                    O O O 5 E f.m.C.C.n.h.h.h.h.h.h.h.h.h.h.8.O.o.5.i.i.u.h.h.u.h.u.h.h.h.u.r.q.+.+.O.O.O.O.O.O.O.O.O.O.O.o.' v ; X o O O                       ",
"                o O O O N f.C.C.m.n.k.h.h.h.h.h.q.q.h.h.h.h.r.+.4.r.i.i.h.u.u.h.u.h.h.u.h.u.h.h.u.q.5.+.O.o.O.O.O.O.O.O.O.O.O.O.[ c - X O O                     ",
"              O O O ; } m.C.C.B.k.h.h.h.h.e...C s V H +.+.6.r.h.u.i.i.i.u.h.h.u.u.h.u.h.u.h.u.h.h.h.u.t.8.+.O.O.O.O.O.O.O.O.O.O.O.O.R w O o O                   ",
"            O o o 4 :.B.C.C.n.j.r.h.h.h.+.S C ' O.V y y y y V { t.h.i.i.h.u.h.h.h.u.h.u.h.u.h.h.u.h.h.u.u.t.0.+.O.O.O.O.O...' { O.O.+.{ l O o O                 ",
"          o O o , :.C.C.B.b.i.i.t.h.h.t.+.0.h.h.O.y y & 6 6 4 y R u.u.h.u.h.h.u.h.u.h.h.h.h.h.u.h.u.h.h.u.h.h.t.8.+.O.o.O.[ R ' O.O.O.O.X.x @ o O               ",
"          O o = *.C.C.V.z.i.i.i.h.h.h.0.+.+.h.h.q.C y 3 6 6 6 6 x r.h.h.h.u.u.h.u.h.r.8.r.h.u.h.u.h.h.u.h.u.u.h.u.r.5.+.O.O...[ ..O.O.O.O...p o O o             ",
"        O O O E m.C.B.z.i.i.i.i.h.h.h.h.0.q.+.+.h.r.R y 6 6 6 p ] u.u.u.u.h.h.u.h.u.6.o.8.h.h.u.h.h.u.h.u.h.h.u.h.u.u.0.+.O.{ R R X.O.O.O.O.' 2 o O O           ",
"        O O t f.C.B.z.i.i.i.i.i.h.h.h.h.h.q.s y [ +.+.O._ H ' 5.h.h.h.h.h.u.u.h.u.h.r.q.t.h.u.h.u.u.h.u.h.u.h.h.u.h.u.u.q.+.[ T R ..O.O.O.O.+.G $ o O           ",
"      O O O | C.C.z.i.i.i.i.i.i.t.r.0.6.4.O.S C ' ' ' 5.r.u.h.h.h.h.i.i.i.i.i.i.i.i.i.i.i.i.i.i.h.u.h.u.i.i.i.i.i.i.i.i.i.0.O.[ [ o.o.O.O.O.O.X.p @ o o         ",
"      o o u b.C.v.i.i.i.i.i.i.u.8.O.{ R R G G A V c l l l v C H [ +.0.u.h.h.h.h.i.i.i.i.i.i.i.i.u.h.u.h.i.i.i.i.i.i.i.u.i.u.4.O.O.[ R +.O.O.O.O.R $ o O         ",
"    O O O W C.n.h.i.i.i.i.i.i.i.i.i.i.i.i.i.i.i.u.t.r.q.8.;...` F b v C R X.0.t.i.i.i.i.i.i.i.u.u.h.h.h.i.i.i.i.i.i.i.i.u.h.q.+.O.[ b o.O.O.O.O.O.x o O o       ",
"    O o = w.B.j.i.i.i.i.i.i.i.i.i.i.i.i.i.i.i.i.i.i.h.h.h.h.h.h.i.u.r.+...R Y ( +.e.i.i.i.i.i.i.h.u.h.u.u.t.t.u.i.i.i.i.h.u.e.O.+.[ p [ O.O.O.O.O.R $ O O       ",
"    O O 0 x.b.u.i.i.i.i.i.i.i.i.i.i.i.i.i.i.i.i.i.i.i.i.i.i.u.i.i.i.i.h.i.i.t.e.6.0.r.i.i.i.i.i.u.h.h.u.h.q...u.u.h.h.u.u.h.e.+.O...y R O.O.O.o.O.X.i X o o     ",
"    O X p b.k.i.i.i.i.i.i.i.i.i.i.i.i.i.i.i.i.i.h.u.i.i.i.i.h.i.i.i.i.i.i.i.i.h.i.i.i.i.i.i.i.i.u.h.h.e.8.e.R { h.u.h.h.h.u.8.o.O.X.w F +.O.O.O.O.+.C O O O     ",
"    O X h b.i.i.i.i.i.i.i.i.i.i.i.i.i.i.i.i.i.i.i.i.i.i.i.i.i.i.i.i.i.i.i.i.i.i.i.i.i.i.i.i.i.i.h.h.t.+.O.5.+.s 6.h.h.u.h.r.+.O.O...w C O.O.O.O.O.O.R $ o O     ",
"    O X z b.i.i.i.i.i.i.i.i.i.i.i.i.t.t.i.i.i.i.i.i.i.h.u.i.i.i.i.i.i.i.i.i.i.i.i.i.i.i.i.i.i.i.u.h.t.+.+.0.u.V b u.u.h.t.+.O.O.+.[ 5 C O.O.O.O.O.O...5 o O     ",
"    O X z l.r.e.e.t.u.i.h.i.i.i.i.e.;.;.r.i.i.i.i.i.i.i.h.i.i.i.i.i.i.i.i.i.i.i.i.i.i.i.i.i.i.i.i.i.i.t.r.i.i.+.y 5.h.t.4.O.+.o...C $ F +.O.O.O.O.O.X.i o o     ",
"    O o i y.+.O.O.+.4.0.t.i.i.i.i.4.O.O.0.i.i.i.i.i.i.i.u.h.u.h.i.i.i.i.i.i.i.i.i.i.i.i.i.i.i.i.i.i.i.i.i.i.i.+.A r.t.4.+.o.R x 5 @ 4 [ O.O.O.O.O.O.O.a o O O   ",
"    O X 4 -.O.O.O.O.O.O.4.0.i.i.i.e.;.+.e.i.h.i.i.i.i.i.h.h.h.h.i.i.i.i.i.i.i.i.i.h.i.i.i.t.i.t.i.i.i.i.i.i.u...6.t.4.O.X.v $ o @ i R O.O.O.O.o.O.O.O.l o O o   ",
"    O o @ | 4.o.o.O.+.O.O.O.5.r.i.i.t.;.' R { 4.0.t.i.i.h.h.h.h.i.u.u.r.i.i.i.i.t.r.e.0.0.0.0.0.r.i.i.i.i.i.r.0.r.+.+.o.b @ o - S ......O.O.O.O.O.O.O.l o O O   ",
"    O X X Z Z i y p C ' o.O.O.+.q.i.i.i.r.+.R C v v V S G H H H H T [ 5.r.e.0.5.+.+.+.+.o.O.o.O.+.6.t.i.i.i.t.e.+.o.+.[ , o $ S O.[ R _ O.O.O.O.O.O.o.p o O     ",
"    o . o O O X X o O - p T O.O.+.0.i.i.i.h.h.t.w.4.o.[ ' ] ] o.+.4.5.+.+.+.O.O.O.O.o.X.o.O.+.O.O.O.0.i.i.i.u.5.+.O.O.' $ o $ ' +.X.[ ..o.X.O.O.O.O.X.w o O     ",
"      . o o O @ $ $ O O o $ s ] O.O.8.i.i.i.i.i.h.h.h.h.h.h.h.r.6.+.O.O.+.O.[ R A a y q i v [ o.+.o.+.r.i.i.0.O.O.O.O.[ 2 o $ R +.o.o.+.' R [ O.O.+.] ; o O     ",
"      . O O @ 5 6 6 4 $ O o o 5 H O.O.0.i.i.i.i.h.h.h.u.h.u.8.+.O.O.X.[ A i 2 @ o X X X X X 2 H O.O.O.e.i.t.+.O.O.O.O.o.p o o v +.o.+.o.R R ` O.O.+.H @ o O     ",
"      o O X - 6 6 6 6 6 2 @ o o = V o.+.q.i.i.i.i.i.i.i.t.0.O.O.{ H a ; O X X O O $ % % $ O X 2 [ O.O.0.i.0.O.O.O.O.O.O.H $ X 5 ] O.O.O.' ` { O.O.O.v o O o     ",
"      O O O ; 6 6 6 6 6 6 5 - O O O c ..+.u.i.i.i.i.i.i.0.O.{ V 5 @ X o O $ - 2 5 6 6 6 5 $ O O v O.O.0.i.0.O.O.O.O.O.O.O.v @ X x O.O.O.O.O.O.O.O...w o O       ",
"      O O O 2 6 6 6 6 6 6 6 6 - O O O A +.r.i.i.i.i.i.u.+.T 5 O X X @ $ 2 6 6 6 6 6 6 6 6 ; o X i X.O.q.i.+.O.O.O.O.O.O.O.o.v $ - ' O.O.O.O.O.o.+.T $ o O       ",
"      X o O $ 5 6 6 6 6 6 6 6 6 - O O , [ q.i.i.i.i.i.u.] ; o O $ ; 5 6 6 6 6 6 6 6 6 6 6 2 O X q ..+.r.t.+.O.O.O.O.O.O.O.O...y O F O.O.O.O.O.O.o.l o O O       ",
"      O o O @ 2 6 6 6 6 6 6 6 6 q $ o $ Y e.i.u.r.u.i.i.C X O O 2 6 6 6 6 6 6 6 6 6 6 6 q ; O o w X.+.t.u.+.o.O.O.O.O.O.....O.a o G +.O.O.O.O.O.` - o O         ",
"      o o o O $ & 2 2 5 5 6 6 5 ; O o O ` t.i.u.0.t.i.i.b O O $ & 2 5 6 6 6 6 6 6 6 6 6 6 - O X l O.0.i.u.0.O.O.O.O.O...R R [ q , ] O.O.O.O.O.o.a o O o         ",
"      O X o o O @ - - - - - - $ O X X i 0.h.h.h.h.h.i.h.] O O O $ 2 ; 4 5 6 6 6 6 6 6 6 2 O O $ H O.e.i.i.0.O.O.O.O.O.[ R R b $ F O.O.O.O.O.+.F $ o o           ",
"    O O X 4 - X X O + @ $ O o o X $ p { ` A T ....5.i.h.r.s O O @ $ ; ; & 2 4 5 5 5 6 6 $ o X p X.0.t.i.i.r.+.O.o.O.O.o.[ A q S o.O.O.O.O.O.R ; o o o           ",
"    o O o A [ a ; O o X o o $ ; p ' o.u O $ O $ $ 4 ` h.h.0.a O o O $ $ ; ; ; ; ; 2 & $ O X ; R +.t.i.i.i.u.+.O.O.O.o...A a R O.O.O.O.O.O.' 5 O O O             ",
"    O o o F i.q.+.` F C A H { +.t.i.c X - 5 - - 4 O ; +.h.h.q.F ; X o O O $ $ $ $ $ O o X - H +.r.i.i.i.i.i.q.O.O.o.[ C S ..O.O.O.O.O.O.R 5 o o o               ",
"      O X p r.i.h.h.i.i.h.h.h.h.h.q.q O 4 6 6 6 q $ O ] h.i.h.i.O.b 2 @ X X X X o X o @ q H +.r.u.i.i.i.i.i.r.O.[ R Y { O.O.O.O.O.+.X.C - o O O                 ",
"      O o $ ' i.i.r.0.i.i.i.i.i.i.e.y X 2 5 2 6 5 O $ o.h.h.i.i.i.t.;.T c w , ; ; , p F ..0.t.i.i.i.i.i.i.i.t.o.[ X.O.O.O.O.O.O...H w O X o O                   ",
"      O O X 5 ;.j.i.u.i.i.i.i.i.i.i.' - O @ O - $ O s r.i.i.i.i.i.i.i.i.r.0.O.X.X.+.6.0.t.i.i.i.i.i.i.i.i.i.u.0.O.O.O.O.O.o.[ V q @ o O O                       ",
"        O o X i +.j.u.q.u.t.0.u.i.i.u.o.A v s q w S q.h.i.i.i.i.i.i.i.i.i.i.i.i.i.i.i.t.i.i.i.i.i.i.i.i.i.i.t.+.O.O.O.[ F p $ O o O O O                         ",
"          O O o i +.u.q.u.u.r.i.i.i.i.h.h.i.u.q.e.i.i.i.i.i.i.i.i.i.i.i.i.i.i.i.i.i.t.0.r.i.i.i.u.u.i.u.u.r.+.o.[ A i 2 O O O O O                               ",
"            O O o s t.i.i.i.i.i.i.i.i.i.i.i.i.h.h.i.i.i.i.i.i.i.i.i.i.i.i.i.i.i.i.i.0.O.6.i.i.t.r.0.0.5.O.R V i $ O o O O O O                                   ",
"              O o w e.i.i.i.i.i.i.i.i.i.i.i.i.i.i.i.i.i.i.i.i.i.i.i.i.i.i.i.i.i.i.i.t.r.t.u.r.+.X.[ S a 5 $ X X O O O o                                         ",
"              O o 5 0.i.i.i.i.t.i.i.i.i.i.i.h.i.i.i.i.i.i.i.i.i.i.i.i.i.i.i.i.i.i.i.i.i.i.r.O.G q $ O o O O O O o                                               ",
"              O o - +.i.i.i.+.{ h.i.i.i.i.i.t...t.i.i.i.i.i.h.i.i.i.i.i.i.i.i.i.t.u.i.i.i.0.T $ o o O o O                                                       ",
"              O O o C r.i.i.C b i.i.i.i.i.h.+.a 0.h.i.i.i.i.h.5.+.i.i.i.i.i.i.i.[ o.i.i.i.+.p o O O o O O                                                       ",
"                O o $ b ( A % q [ e.h.i.h.h.H ; o.i.i.i.i.i.h...v e.i.i.i.i.i.t.x v 0.q.q.Y $ o o O O o o o                                                     ",
"                o O O O O o X O $ a +.0.+.R q $ A O.t.i.h.i.t.Y 5 X.e.i.i.t.0.[ 4 q [ X.T 4 o O 9 n M f = O O                                                   ",
"                    O O o O O O O o q p 4 O O o O 5 Y +.+.H i - O y F O.O.S 5 $ O O ; q $ O O f Q P J J f * O O                                                 ",
"                              O o O . X O O O O O o $ q 4 O o O O . * 4 ; O X O O O O o o o * m Q ~ ! P P B : o O                                               ",
"                              O o $ q $ O o O X o o O o o O O 7 > O O O o o O O 4 i , O O O $ P #.~ Q J B J f O O                                               ",
"                              o X q S O o q G C w @ o O O O = * = O O O O O o O $ $ O O O O * M P ! ~ ~ P P P e o O                                             ",
"                              O O Y v o o 4 v S C p , @ O O @ O O O $ $ $ $ $ , 4 w a a ; o O L %.@.) ~ L f 9 : O O o                                           ",
"                        O o X o a 0.t o O * O X O @ O O o 4 ' y O $ v C b x x s x v v w $ o O e f f k f 8 O X X o O                                             ",
"                      O o $ a A o.{ - o , S A v a y 4 * O u +.w o O O O O O O O O O X X O O O O * O X O $ q ; @ O O                                             ",
"                    O O o - F G 4 = O O O = 4 q q 4 4 $ O $ q = o , u u p p i q : O O O * * * O O O u E y a T F ; o O o                                         ",
"                    X $ 5 $ o O o o O O : O O O O O o o O $ O O O @ : 4 4 4 $ $ * O O * * * * O X ; +.} $ o , q @ X o o                                         ",
"                  O O $ p b i @ O O O * r 8 > > > > * o - ' H = O O O O O O O * * * * 7 7 * O O O $ p 5 o $ $ $ q v q o O                                       ",
"                  O O O o $ = o O O O O * * = : > > : O O u u @ o * > 7 > 7 7 7 8 8 8 8 7 O O u v % O $ y T ] ] O.5.F O o                                       ",
"                  O o O u a u v T , @ 3 % # @ @ @ O O O O O X O o * : > > > > > > > > > : O O Z ] Z T ] O.5.6.6.4.5._ $ O                                       ",
"                    O o q ' 6.t.0.4 @ & 3 1 & & % % % % # # @ @ + @ @ @ @ O O @ O O O O O O o 2 c 6.h.t.0.4.4.4.4.4.V O o                                       ",
"                      O o @ 5 l v $ O - - @ # # % & & & 1 & & & % < % & & & # # & & & # + + o 5 5.8.' 8.6.O.4.4.4.Y - o O                                       ",
"                          o o o O O o / 3.U j e ; $ @ @ + + # % # % % # % & # # # & % + + o O 9 C i { 8.C o.4.o.C - O O                                         ",
"                                O X = p.N.d.<.=.$.~ ! / K g e 9 , : ; - - = - : - : : : , , O o = ` ;.i V ] V q O o O                                           ",
"                                  o 5 g.M.p.p.<.<.<.2.d.s.<.>.%.<.=.#.@.) ) @.@.#.Q J K K J d O O 5 , O 4 - o o O                                               ",
"                                  O = =.g.,.) ^ %.,.,.<.<.<.<.1.1.1.<.<.<.,.<.<.<.@.K K P K K k , $ @ O o o O                                                   ",
"                                  O o , r , : = 0 B ^ #.~ K m K $.&.>.<.>.&.&.^ U J J J P K B d 0 e d d = o O                                                   ",
"                                      o o o o u u $ : - O O O O , n ! ^ K j , $ - = : 0 d 0 @ O o O $ * O O                                                     ",
"                                    O O O O O A 4.` l = o o O O o o = = O X o $ H R v - O X X O O                                                               ",
"                                    o o @ + O $ 4 6 ; O O O O O O   . o O O O O 5 u q = O O + o O O                                                             ",
"                                  O o O & % # O O o O O O + X o     O O @ % % O O o O X O + + O O O                                                             ",
"                                  O O O O @ @ + @ + O O o + O o     O o @ # @ # # # + O O O X o O O                                                             ",
"                                    O O O O o O O O O O O O O o     O O O O O O O O O O O O O O O                                                               ",
"                                                                                                                                                                "
};
