/* XPM */
static char *fin_1_resized[] = {
/* columns rows colors chars-per-pixel */
"60 81 243 2 ",
"   c None",
".  c #000E1B",
"X  c #000A16",
"o  c #02111D",
"O  c #0C171D",
"+  c #10191E",
"@  c #061622",
"#  c #0C1A24",
"$  c #0F1D29",
"%  c #091626",
"&  c #111D25",
"*  c #101E29",
"=  c #181E27",
"-  c #0F202D",
";  c #14222B",
":  c #1A242C",
">  c #182A2A",
",  c #1B3627",
"<  c #0E2234",
"1  c #182630",
"2  c #162E3D",
"3  c #192834",
"4  c #1D3237",
"5  c #232A2D",
"6  c #252B31",
"7  c #292D32",
"8  c #222F3A",
"9  c #25333B",
"0  c #29343E",
"q  c #243935",
"w  c #393637",
"e  c #203C28",
"r  c #1A3019",
"t  c #473B3B",
"y  c #513E3D",
"u  c #234B19",
"i  c #275B1F",
"p  c #356C17",
"a  c #3B7C1F",
"s  c #244627",
"d  c #2A5724",
"f  c #324D38",
"g  c #356625",
"h  c #3C7922",
"j  c #34692C",
"k  c #1C432F",
"l  c #4B423E",
"z  c #56503E",
"x  c #45722F",
"c  c #0D2E53",
"v  c #033651",
"b  c #083455",
"n  c #153758",
"m  c #103149",
"M  c #293640",
"N  c #2C3946",
"B  c #353D47",
"V  c #0B3D78",
"C  c #0E3969",
"Z  c #184953",
"A  c #3A454E",
"S  c #36414B",
"D  c #3B5743",
"F  c #3B4753",
"G  c #2A4B4E",
"H  c #306F55",
"J  c #00517A",
"K  c #065475",
"L  c #115071",
"P  c #284A72",
"I  c #28696B",
"U  c #4C4342",
"Y  c #574943",
"T  c #434D56",
"R  c #48535A",
"E  c #545358",
"W  c #68544A",
"Q  c #76594C",
"!  c #6A524A",
"~  c #4D7150",
"^  c #796355",
"/  c #535D65",
"(  c #4A5768",
")  c #566169",
"_  c #5B646C",
"`  c #50677D",
"'  c #636C73",
"]  c #6C747C",
"[  c #6C7876",
"{  c #71757B",
"}  c #70787F",
"|  c #716E6E",
" . c #625C63",
".. c #83564B",
"X. c #885F51",
"o. c #886755",
"O. c #936C57",
"+. c #9B735B",
"@. c #A6785E",
"#. c #B16D5A",
"$. c #8E776D",
"%. c #AA7C61",
"&. c #B67D62",
"*. c #CB7A63",
"=. c #C3735E",
"-. c #3D8935",
";. c #43881C",
":. c #458824",
">. c #489436",
",. c #359656",
"<. c #339168",
"1. c #5D8458",
"2. c #529043",
"3. c #659157",
"4. c #6DAA56",
"5. c #699465",
"6. c #76B06D",
"7. c #53A167",
"8. c #79C177",
"9. c #B98566",
"0. c #B78C75",
"q. c #86BA71",
"w. c #82B36E",
"e. c #9E806E",
"r. c #C28A69",
"t. c #C98B69",
"y. c #CD916D",
"u. c #D6946E",
"i. c #D99971",
"p. c #D48A6D",
"a. c #E6946D",
"s. c #E39E75",
"d. c #EB9C72",
"f. c #E28969",
"g. c #EDA376",
"h. c #EDA57A",
"j. c #EEA97F",
"k. c #E6A177",
"l. c #F1A576",
"z. c #F1A779",
"x. c #F3A97B",
"c. c #FDAC7C",
"v. c #FFB37E",
"b. c #95CC7A",
"n. c #0B498E",
"m. c #156F92",
"M. c #267490",
"N. c #094FA3",
"B. c #0852AB",
"V. c #0558BA",
"C. c #115BB3",
"Z. c #0372A5",
"A. c #0D6FB1",
"S. c #3265A7",
"D. c #2D5993",
"F. c #737B82",
"G. c #69768B",
"H. c #5C6C8D",
"J. c #055DC6",
"K. c #0966C8",
"L. c #066BD2",
"P. c #0578D6",
"I. c #0A79C8",
"U. c #0A3E80",
"Y. c #1F928E",
"T. c #229688",
"R. c #2D8C8E",
"E. c #0B87BB",
"W. c #1797B9",
"Q. c #128FAE",
"!. c #2E90B7",
"~. c #39A8A5",
"^. c #2EA195",
"/. c #7C8489",
"(. c #608B9B",
"). c #55B08C",
"_. c #60A4A0",
"`. c #058AC8",
"'. c #0591CB",
"]. c #018ED2",
"[. c #0382D4",
"{. c #0191D3",
"}. c #1493C2",
"|. c #389BC3",
" X c #858C92",
".X c #8D949A",
"XX c #93999C",
"oX c #8B8889",
"OX c #ACA598",
"+X c #989DA2",
"@X c #9DA2A5",
"#X c #A5AAAE",
"$X c #A8ABAD",
"%X c #AAAEB3",
"&X c #A7ACB0",
"*X c #ACB1B6",
"=X c #B4B9BC",
"-X c #BF9983",
";X c #CCA68E",
":X c #EEAB82",
">X c #EAAE88",
",X c #F4B48C",
"<X c #EFB694",
"1X c #E6B394",
"2X c #F1B591",
"3X c #F1BC9B",
"4X c #F2B995",
"5X c #EFAF87",
"6X c #DABBA9",
"7X c #F5C6A9",
"8X c #F2CBB3",
"9X c #F8CCB1",
"0X c #F3CFB9",
"qX c #F5D1BC",
"wX c #E8C4AD",
"eX c #FCC19D",
"rX c #BABEC1",
"tX c #BFC2C5",
"yX c #C5C8CA",
"uX c #CACED1",
"iX c #CED1D3",
"pX c #DADCDD",
"aX c #D2D4D6",
"sX c #F7DAC8",
"dX c #F5DFD2",
"fX c #EAD5C9",
"gX c #F5E2D5",
"hX c #FCE3D3",
"jX c #F7E6DC",
"kX c #F2E2D9",
"lX c #DDDFE0",
"zX c #DFE0E2",
"xX c #EBECEC",
"cX c #E3E5E6",
"vX c #F5ECE6",
"bX c #F9EEE6",
"nX c #F7F0EC",
"mX c #FEF1E9",
"MX c #F5F5F5",
"NX c #F8F6F5",
"BX c #FCFCFC",
"VX c #FBF9F6",
"CX c #EFEFF0",
/* pixels */
"                                  o o o o o o o o o                           o o o o o o o o                           ",
"                                  $ $ * * * ; # $ $                           * * * * * * * *                           ",
"                                  0 0 0 0 0 M 0 0 0                         9 M M M M M 0 0 0                           ",
"                                A R / / ) ) _ ) / R A                       T / / ) ) ) ) / R T                         ",
"                              M ( ] /..XXXXX.X.X/.' T 9                 4 F _ F..X.XXXXX.X XF.) S 1                     ",
"                          o ; N /  X%XyXuXaXuXtX#X/./ 0 *             # 8 T ] #XrXyXiXiXyX=X.X' S 1 @                   ",
"                          o ; M _ XXyXxXVXBXVXcXtX.X/ 9 * o         . # 3 R F.=XlXMXBXBXxXaX@X] A 1 @                   ",
"                          o * M _ XXiXVXBXBXBXMXuX.X/ 9 # . X       . % 3 T oX=XxXBXBXBXBXpX&X] A ; o                   ",
"                          X # 0 ) XXaXMXBXBXBXMXyX.X/ 8 o X X . o X X o 1 T /.tXxXBXBXBXBXcX#X] B $ .                   ",
"                          . # 0 _ XXiXMXBXBXBXMXyX.X/ 9 # . o @ @ o . o 1 R /.=XxXBXBXBXMXlX#X' S ; o                   ",
"                          # 3 S ' +XuXMXBXBXBXxXyX+X_ B 1 ; ; : 1 ; * ; 0 R  XtXxXBXBXBXVXlX%XF.F 9 $ #                 ",
"                        0 B F ) /.%XaXCXBXBXBXMXaX#XF./ A S A F F A S A ( ' +XyXxXBXBXBXMXzX=X X_ T B 0                 ",
"                      N R _ }  X@XyXzXMXBXBXBXMXpXtX+X XF.] ] ] } } ] F./.XX=XaXxXVXBXBXVXxXuX%X.XF._ R M               ",
"                    1 S _ /.@X=XuXlXxXMXBXBXBXMXxXpXyX=X*X%X&X*X%X%X&X*X=XtXaXcXMXVXBXBXMXCXcXiXtX#X X' S ; .           ",
"                  @ 1 A ' +XyXzXCXMXMXMXVXBXBXMXMXCXcXzXzXlXlXzXpXlXlXzXzXcXxXCXMXBXBXBXMXMXMXCXcXuX&XF.R 8 *           ",
"                  # 1 A } &XpXMXBXBXBXBXMXVXMXMXMXVXMXMXMXBXMXVXVXVXMXMXMXMXMXBXMXMXMXMXBXBXBXBXVXxXyX.X' T M 8         ",
"                o o 1 F { %XzXBXBXBXBXVXMXMXMXBXMXBXBXBXBXBXBXBXBXBXBXBXBXBXBXBXBXBXMXBXBXBXBXBXBXMXaX*X X] ) R S       ",
"                  o 1 A { %XzXBXBXBXBXMXMXBXBXMXBXBXBXBXBXBXBXBXBXBXBXBXBXBXBXBXBXBXBXBXBXBXBXBXBXBXcXiXrX@X/.] R M $ o ",
"                  # 1 A ] #XpXMXBXBXBXVXBXMXMXBXMXBXBXBXBXBXVXVXBXBXBXVXBXVXMXMXMXMXMXMXMXBXVXVXBXMXMXxXzXiX*X/./ M $ o ",
"                  @ 1 F ] #XpXMXBXBXBXVXMXBXMXMXMXMXnXnXnXnXnXnXnXnXnXnXnXnXnXnXMXCXnXnXnXnXnXnXnXnXMXVXMXxXtX.X/ 0 $ o ",
"                  @ 1 A ] &XpXMXBXBXBXMXBXBXBXMXNXbXjXkXdXdXdXdXdXdXdXdXdXdXdXdXgXdXdXdXdXdXdXdXdXkXmXVXVXNXuX.X) M * o ",
"                  @ : A ] &XpXMXBXBXBXBXMXBXBXMXnXkXsX0X8X7X8X8X8X8X8X8X8X8X8X8X8X8X8X8X8X8X8XwX8X0XsXmXVXNXuX.X) 0 * o ",
"                  @ 1 A ] #XpXMXBXBXMXMXBXBXBXMXvXdX8X3X<X1X2X<X<X<X<X<X<X<X<X<X<X<X<X<X<X<X2X2X<X3X9XhXmXCXuX.X) M $ o ",
"                  @ 1 A ] #XpXMXBXBXBXBXMXMXMXnXgX0X7X>Xj.z.z.z.:Xj.j.j.j.:Xj.j.j.j.j.j.j.j.h.l.j.>X7XqXhXkXyX.X/ M $ o ",
"                  @ : A ] #XpXMXBXBXBXVXMXnXvXgXsXwX4X:Xg.g.g.l.l.g.g.g.g.g.g.g.g.g.g.g.g.g.g.g.l.h.eX9XsXfXrX/./ 0 $ o ",
"                  @ 1 A ] #XpXMXBXBXVXNXnXjXsX0X7X<X>Xj.g.g.l.l.z.l.l.l.g.g.g.g.g.g.g.g.g.g.g.g.l.c.,XeX9X8XOXe.E 7 $ @ ",
"                  @ 1 A ] #XlXMXBXBXBXMXjXsX0X3X<X5Xj.h.h.g.z.h.z.l.z.g.g.g.g.g.g.g.g.g.g.g.g.g.z.x.5X,XeX1Xy.$.Y 8 # @ ",
"                  @ 1 A ] &XpXMXBXBXBXnXgXfX3X5X:Xh.h.h.h.h.k.k.k.k.g.h.h.h.h.h.h.h.h.h.g.h.g.h.k.h.j.j.5Xk.0.o.Y 9 ; @ ",
"                  @ 1 A ] #XpXMXBXBXBXnXgX8X<X:Xg.g.g.h.k.i.u.y.r.y.i.k.g.h.h.h.h.h.h.h.h.k.s.y.y.y.u.s.g.s.9.o.Y 6 $ @ ",
"                  @ 1 A ] #XpXMXBXBXVXNXgX8X2Xj.d.l.g.h.k.y.9.+.+.9.9.i.k.h.z.z.h.h.z.z.h.s.y.9.+.+.9.r.i.i.r.o.U 6 - @ ",
"                  # : A ] #XpXMXBXBXBXnXgX8X<X:Xl.l.l.h.u.9.o.Q W o.@.y.k.h.x.z.h.z.x.h.h.i.9.O.Q W ^ @.y.i.9.o.Y 6 - @ ",
"                  @ 1 A ] #XpXMXBXBXBXnXgX8X<X>Xg.l.l.g.y.+.W l w W O.r.k.x.x.z.h.z.x.z.h.y.@.Q l l z O.r.u.r.O.Y 7 $ @ ",
"                  @ 1 A ] &XpXMXBXBXBXnXdX0X<X:Xl.z.z.d.*.O.y w 7 U o.9.k.x.x.z.h.z.x.x.h.u.+.W w 7 l Q 9.p.9.o.z 7 $ @ ",
"                  @ 1 A ] &XpXMXBXBXBXnXdX0X<X:Xd.d.d.f.*.X.y 7 > l ^ 9.i.z.x.x.h.h.x.x.h.y.+.Y q : t Q #.*.&.X.y 5 $ % ",
"                  @ 1 A ] #XpXMXBXBXBXnXdXfX<X:Xd.d.a.f.#...t = 6 t ^ 9.k.x.x.x.h.z.x.x.g.y.+.Y 7 = w ! O.=.#...y 5 = % ",
"                  # < A ] #XpXMXBXBXBXnXdX9X<X:Xd.a.a.*.#...y 5 7 l o.9.k.x.x.z.h.z.x.x.h.y.+.W w 5 t ! #.=.#...y 5 * % ",
"                  @ 1 A ] #XpXMXBXBXBXNXdXsX<X:Xd.a.f.*.=...y t f Y O.9.k.z.x.z.z.z.h.x.h.y.@.W t w y ..#.#.#.Q t 6 < % ",
"                  @ 1 A ] #XpXMXBXBXBXnXdX9X<X:Xd.a.a.*.=.O...! ! ^ @.y.k.g.x.z.z.h.z.x.h.i.9.o.! Y Q O.=.=.#...y 5 - @ ",
"                  o 1 A ] #XlXMXBXBXVXnXdX0X2X:Xd.d.a.f.p.&.@.O.O.@.9.i.g.z.z.h.h.h.x.h.h.i.y.9.+.O.+.&.*.*.#...t 6 $ @ ",
"                  # 1 A ] &XpXMXBXBXBXnXdX8X4X:Xd.d.d.d.i.p.t.r.9.t.u.s.h.h.h.h.h.h.h.h.h.k.i.y.t.t.t.p.f.f.9.X.l 7 $ @ ",
"                  @ 1 A ] &XpXMXBXBXVXMXgX0X3X>Xj.h.k.h.k.k.k.s.k.k.k.h.g.h.h.h.h.h.h.h.g.g.k.k.k.k.g.x.j.s.9.o.Y 7 $ @ ",
"                  @ : A ] #XpXMXBXBXVXNXjXsX8X3X5X>Xj.h.g.l.l.l.z.z.h.g.g.g.g.g.g.h.g.g.g.l.g.l.g.c.5X,X<X1X-X$.Y 7 # @ ",
"                  @ 1 A ] #XpXMXBXBXBXNXvXgXsX8X7X<X5Xj.l.l.l.l.z.l.l.g.g.g.g.g.g.g.g.g.g.g.g.l.l.x.,XeX7XwX;X$.E 7 * @ ",
"                  % 1 A ] #XpXMXBXBXBXNXMXnXkXdXqX7X2X:Xg.g.l.l.l.l.g.g.g.g.g.g.g.g.g.g.g.g.g.g.g.x.4X9XqXfX=XoX/ 9 * @ ",
"                  % 1 F ] #XpXMXBXBXBXVXNXMXMXnXgXqX3X5Xj.h.h.h.j.h.j.j.h.j.h.j.h.h.h.j.h.j.j.h.h.5XeXqXhXkXyX.X/ 0 $ @ ",
"                . % 1 B ] #XlXNXBXBXBXBXVXBXBXNXbXsX9X3X2X<X5X,X2X2X2X2X2X2X2X2X2X2X2X<X2X2X5X,X2X3X9XhXbXxXyX.X) 0 $ o ",
"              o . o - A ] %XcXBXBXBXBXBXBXBXBXBXVXjXsXqX9X9X8X9X9X9X9X9X9X9X9X9X9X9X9X9X9X9X9X7X9XqXhXbXBXNXuXXX) M $ o ",
"            % @ . o ; A ] *XcXBXBXBXBXBXBXBXBXBXVXmXmXhXhXhXhXhXhXhXhXhXhXhXhXhXhXhXhXhXhXhXhXhXhXhXmXmXBXMXuX.X) M $ o ",
"          ; ; - O # 3 F } %XpXMXBXBXVXNXNXNXVXNXNXnXnXvXvXvXvXvXvXvXvXvXvXvXbXjXvXvXvXvXvXvXvXvXbXbXmXVXMXxXyX.X) 0 # o ",
"        4 4 4 , 4 , q T { @XyXpXcXzXpXpXlXlXpXpXpXpXlXpXpXpXpXpXpXpXpXpXpXpXpXpXpXpXpXpXpXpXpXpXpXpXlXcXzXaX=X X/ 0 ; o ",
"      q f f z T D D R ~ 5.oX+X$X%X%X&X$X&X$X$X$X$X$X&X%X%X%X%X*X*X*X*X*X%X%X*X*X%X%X%X%X%X%X*X*X*X*X*X*X*X#XXX} R 0 - o ",
"% $ q f ~ ~ 1.1.3.3.3.5.5.[ [ [ { { { ] { { { { { ] ] G.] } { { { [ { } { { { { } ] ] ] ] G.] F.F.} } /.F.} ' ) F       ",
"% $ 4 f ~ 5.w.w.q.q.w.5.[ ~ R A B A A U A A A A B F A A A A F F A A A A A F A F A F A A A A A A A F A A F A A S         ",
"% $ 4 D ~ 6.b.b.b.b.q.6.1.D G 2 < m 2 m 2 2 2 m m 8 q q 9 4 4 4 4 2 2 2 2 2 2 2 2 2 4 9 4 6 4 3 1 > 1 1 1 1 1 1         ",
"@ $ 8 D 3.w.b.b.b.q.6.5.1.G Z v v v v v v v Z v m m G G G M m v v v b v v v v v v b n f G f q , - @ @ @ @ @ @ @         ",
"@ $ 6 D 1.q.b.b.q.5.1.H I L K J J J J J J J J K I I H ~ ~ H I K K J J J K J J K K L I H ~ ~ f f > @ @ o o o o o         ",
"@ # q D 2.w.q.w.4.~ T D L K Z.Z.A.A.Z.Z.Z.Z.Z.Z.M.<.).7.5.7.T.Q.Z.Z.Z.Z.Z.Z.Z.Z.Q.Y.Y.).5.5.~ f q * % % % # @ @         ",
"# ; 4 D ^ w.q.w.1.Y q m Z m.Q.E.}.{.`.`.`.A.E.E.!._.).8.).).~.W.`.E.`.`.`.A.`.`.W.W.~.).q.6.3.~ q = & * = : : :         ",
"% * 6 f >.4.w.4.~ f 4 m Z D.!.!.|.|.|.!.!.`.A.A.Q.).6.8.b.).~.W.'.].{.{.{.{.].].'.|.~.).8.6.3.U q 1 : 6 w w f t         ",
"% * 6 f x 3.4.3.x s : 2 F ` (._._.+X_._.(.M.M.m.I I 7.4.8.).~.W.'.{.{.{.{.{.{.{.{.W.~.).6.4.>.x q > 7 t Y W W Y l 6     ",
"% * : f j >.2.>.j s : 9 T | oXOXOXOXOXXXoX` I Z I H >.2.7.7.^.'.'.{.{.{.{.{.{.{.'.W.^.7.4.2.x d e 5 w ! o.@.O.Q U 6 - @ ",
"$ * > s g :.>.x d e > w E +.r.;X>X>X;Xy.e. .U 4 k d h >.>.<.T.W.'.].].].'.].].].'.Q.T.,.>.:.h s , 6 t Q e.r.9.X.Y 6 $ @ ",
"# # > s g a :.a d s > w ! @.u.h.c.c.l.i.@.Q t 5 r u p :.>.<.Y.Q.'.].].'.'.].{.].'.Q.T.,.>.:.p u , 6 U o.9.i.r.O.Y 6 $ @ ",
"% # > s g a ;.a i , : w ! @.i.c.v.v.c.d.9.X.t 5 r u p ;.>.,.Y.Q.'.{.{.].'.{.{.{.{.Q.<.,.>.;.p u > 6 Y O.r.s.y.O.Y 7 - @ ",
"$ $ > s i ;.;.a i , > w ! #.i.c.v.v.v.d.&...t 5 r u p ;.>.,.Y.W.'.{.{.].'.{.].{.'.Q.T.,.:.;.p u , > Y O.t.s.y.O.Y 7 * @ ",
"$ * > s g a :.h i e > w W @.y.g.c.c.l.i.&.Q t 6 , u p :.>.,.Y.Q.'.].].'.'.'.].].`.Q.T.,.-.;.p u , 4 U O.9.u.r.o.Y 7 * @ ",
"% * : s d h a h i s e t W O.9.u.i.i.u.r.@.! A N 4 k j -.,.<.Y.E.`.].[.'.[.`.].].`.Q.Y.<.,.-.j s > 4 t Q %.9.9.o.Y 6 $ @ ",
"% - 1 e d d g g i d s f z ^ +.e.9.@.9.e.| E F n Z Z I <.I T.Q.'.[.[.[.[.[.[.[.[.`.A.Q.T.<.H D k > > w Y ^ O.O.W U 8 $ @ ",
"      , s s d d d p g g z z W W W Q Q W R P P n.L m.M.M.Y.A.A.[.P.P.P.P.P.P.P.P.P.I.A.M.M.M.L Z 3 : 7 t Y W Y Y t       ",
"        > , , s d g h x p x f w w w w B B P n.B.B.C.C.A.A.A.K.I.L.L.L.L.L.L.L.L.L.K.I.K.A.m.L C 2 ; : 5 w w w w         ",
"        & * > , d h a h g s , > r + : 3 n U.N.J.J.K.J.K.C.K.C.K.C.J.K.J.K.K.J.V.K.K.K.K.K.V.n.C m - ; & : : : :         ",
"          @ > , d g g g d e - O X O & - C U.B.J.L.J.V.B.B.N.N.N.N.N.N.N.N.N.N.N.N.B.J.J.J.J.N.C c - # # # % #           ",
"            * , s d d s s > - - @ % % < c U.B.J.J.J.N.U.U.U.V V V V V L V V V V U.n.N.J.J.J.N.V m - % o @ @             ",
"                , e e , , ; # # % % % < C U.B.J.V.N.U.C c c c c c c c c c c c c c C n.B.J.V.N.C m % & #                 ",
"                  > > ; ; ; * * = # $ < c U.C.J.B.n.n m < < = < < < < < < < * = < c V N.B.C.N.C m ; & +                 ",
"                  * * # $ * * * = # = 8 n U.S.S.S.U.n 8 = + + $ & & & * = = % # = m C D.S.S.D.P m ; #                   ",
"                      $ % * * * # # & 1 N ( H.G.H.( B 1 % O O & + + + + + O O # = M F H.G.G.H.B 8 ; #                   ",
"                                % @ $ 6 B  ./.oXoX .A 6 = o O               O % = M U | oXoX| E M : $                   ",
"                                  % $ 1 U ^ %.r.&.| U 6 * @                 % % = w ! $.0.0.+.W w ; %                   ",
"                                  @ $ 6 U o.0.u.r.O.Y 7 * %                   % 1 B ! #.y.y.+.Q w : %                   ",
"                                  @ $ 6 l o.t.a.t.O.z 7 & o                   # : w Q 9.y.u.@.Q w : #                   "
};
