/* XPM */
static char *skeleton_00_idle_06_resized[] = {
/* columns rows colors chars-per-pixel */
"80 80 233 2 ",
"   c None",
".  c #010101",
"X  c #0B0305",
"o  c #0D0A06",
"O  c #040A0A",
"+  c #0A0C0D",
"@  c #0A0508",
"#  c #13050C",
"$  c #160708",
"%  c #19140C",
"&  c #0A0F10",
"*  c #1C0913",
"=  c #001412",
"-  c #0C1214",
";  c #001C1A",
":  c #051818",
">  c #121619",
",  c #141A1D",
"<  c #141514",
"1  c #240206",
"2  c #290307",
"3  c #340108",
"4  c #240512",
"5  c #280A17",
"6  c #350B1C",
"7  c #261816",
"8  c #2C1A09",
"9  c #00211E",
"0  c #37291B",
"q  c #332611",
"w  c #191E21",
"e  c #151E21",
"r  c #0F1E20",
"t  c #361324",
"y  c #3A0F21",
"u  c #012D2C",
"i  c #012724",
"p  c #1B2125",
"a  c #1B262A",
"s  c #1A272B",
"d  c #00322D",
"f  c #1F2B31",
"g  c #013533",
"h  c #013C3B",
"j  c #013A35",
"k  c #153436",
"l  c #212E33",
"z  c #233036",
"x  c #25343A",
"c  c #2A363D",
"v  c #342E25",
"b  c #4A030C",
"n  c #51030D",
"m  c #4B1F0C",
"M  c #442E16",
"N  c #483212",
"B  c #410C21",
"V  c #47162E",
"C  c #491931",
"Z  c #571A36",
"A  c #55102C",
"S  c #620F30",
"D  c #641233",
"F  c #69173A",
"G  c #6B1437",
"H  c #483929",
"J  c #553332",
"K  c #693011",
"L  c #00443D",
"P  c #745219",
"I  c #554533",
"U  c #6A553C",
"Y  c #614D36",
"T  c #635013",
"R  c #2D3B42",
"E  c #243F42",
"W  c #313E44",
"Q  c #741C43",
"!  c #7A1D45",
"~  c #6D1E42",
"^  c #7B234A",
"/  c #73284E",
"(  c #5F2040",
")  c #014444",
"_  c #014C4B",
"`  c #014A45",
"'  c #00524C",
"]  c #015453",
"[  c #015C5B",
"{  c #015A55",
"}  c #1A4D4F",
"|  c #35444B",
" . c #36444C",
".. c #3C4B52",
"X. c #26494C",
"o. c #00625D",
"O. c #016363",
"+. c #006C6C",
"@. c #036966",
"#. c #007373",
"$. c #007B7B",
"%. c #037777",
"&. c #097071",
"*. c #355C61",
"=. c #404E55",
"-. c #45545C",
";. c #735E45",
":. c #6A5742",
">. c #7A634A",
",. c #7D6851",
"<. c #4C5B63",
"1. c #43787E",
"2. c #896A1C",
"3. c #9E6422",
"4. c #83244E",
"5. c #8A2A56",
"6. c #8C2E5B",
"7. c #842753",
"8. c #962C5B",
"9. c #93315D",
"0. c #8B305C",
"q. c #A22C5E",
"w. c #963364",
"e. c #993366",
"r. c #9B3669",
"t. c #9D3A6B",
"y. c #9B3966",
"u. c #982F61",
"i. c #A52E60",
"p. c #A53969",
"a. c #A23D70",
"s. c #831E48",
"d. c #887158",
"f. c #AA4577",
"g. c #B34C7D",
"h. c #A6406F",
"j. c #927B62",
"k. c #9A416E",
"l. c #A55C21",
"z. c #00827C",
"x. c #B09421",
"c. c #D2B51E",
"v. c #C8942A",
"b. c #D6AE2A",
"n. c #E2BE24",
"m. c #E4C620",
"M. c #9A846C",
"N. c #A99178",
"B. c #B59D48",
"V. c #DCB75C",
"C. c #017E80",
"Z. c #B95485",
"A. c #B44E81",
"S. c #C25C8F",
"D. c #CA6396",
"F. c #D0719B",
"G. c #DB74A7",
"H. c #D56FA2",
"J. c #E37BAE",
"K. c #E57EB1",
"L. c #018384",
"P. c #008A8C",
"I. c #078A86",
"U. c #138E88",
"Y. c #0A928D",
"T. c #18918C",
"R. c #008E90",
"E. c #009394",
"W. c #009699",
"Q. c #009A9D",
"!. c #0A9997",
"~. c #189996",
"^. c #2A9593",
"/. c #009EA1",
"(. c #0C9FA2",
"). c #00A2A5",
"_. c #01A6A9",
"`. c #04A9AC",
"'. c #0AABAE",
"]. c #0BA3A4",
"[. c #17A7A9",
"{. c #0DACB0",
"}. c #14AEB2",
"|. c #1AAFB3",
" X c #1CB0B5",
".X c #12B0B4",
"XX c #27A6A8",
"oX c #22B2B6",
"OX c #25B3B9",
"+X c #2CB5BB",
"@X c #2AB1B5",
"#X c #35B8BE",
"$X c #35B7BC",
"%X c #31ACAE",
"&X c #1EA09F",
"*X c #4EAFB4",
"=X c #4E969D",
"-X c #3CBAC1",
";X c #44BCC3",
":X c #4BBEC6",
">X c #59BCC4",
",X c #66BDC4",
"<X c #4CC0C6",
"1X c #53C1C9",
"2X c #5BC4CC",
"3X c #53C3C7",
"4X c #62C5CE",
"5X c #6AC8D1",
"6X c #74CBD5",
"7X c #7BCED7",
"8X c #7CD0DA",
"9X c #B69E85",
"0X c #D0839D",
"qX c #CF8EA4",
"wX c #EA85B6",
"eX c #EB8BB5",
"rX c #FD99C9",
"tX c #F58EC1",
"yX c #FFA7CB",
"uX c #FFB4CC",
"iX c #FFBCCC",
"pX c #81CFD9",
"aX c #87D2DB",
"sX c #94D8DE",
"dX c #A5DEE3",
"fX c #B4E4E7",
"gX c #FFC4CC",
"hX c #CCEDEF",
"jX c #FFFFFF",
"kX c #F7FCF9",
"lX c #ECF8F9",
"zX c #FCF4D2",
"xX c #EAD487",
/* pixels */
"                                                                                                                                                                ",
"                                                                                                                                                                ",
"                                                                                                                                                                ",
"                                                                                                                                                                ",
"                                                                                                                                                                ",
"                                                                                                                                                                ",
"                                                                                                                                                                ",
"                                                                                                                                                                ",
"                                                                                                                                                                ",
"                                                                                                                                                                ",
"                                                                                                                                                                ",
"                                                                                                                                                                ",
"                                                                                                                                                                ",
"                                                        . X . O O = - i s k k z k k k f s s , % + . . . .                                                       ",
"                                              . . . = 9 j ` o.o.&.U.XX%X@X*X-X%X*X*X2X>X3X>X*X*X=X=X1.*.c p $ $ .                                               ",
"                                        . . O 9 L [ #.z.z.I.T.~.&X@X@X&XXX%X%XXX&X%X*X3X2X5X7X7XpX8X8X7XpX6X=XC.X., . .                                         ",
"                                    . . = j o.#.$.z.I.R.Y.Y.(.oXOXOX$X&X&X^.XX%X=X%X%X*X*X,X6X6X7XpXpXpX7X6X7X6X5X*X^.E @ .                                     ",
"                                  . = L +.%.z.z.$.C.I./.'.}.|. XOXOX$X$X$X*X:X<X3X>X4X4X5X5X6X7XpXaXaXpXpXdXhXhXfXaX5X>X=X} + .                                 ",
"                              . . . ' #.P.P.E.Q.W.P.P.C.Y.].|. XOX@X+X$X#X;X;X<X<X2X2X5X5X6X6X7XpXaXaXaXaXlXjXjXjXkXhXaX2X:X^.k O                               ",
"                            . . . h #.L.P.E.E.Q././.(.Q.!.'.|.&X~.XX$X#X#X;X;X<X3X3X2X4X5X5X6X7XpXpXaXpXpXhXjXjXjXjXjXkXhX6X:X%X} . .                           ",
"                          . . . g $.L.L.P.R.E.Q./.)._.`.'.}.}.[.[.@X+X#X-X-X-X:X<X2X2X4X5X5X5X6X7X7X7X7X6XsXlXjXjXjXjXjXjXlXsX;X#X&.# .                         ",
"                        . . . . u $.C.L.P.P.E.W./.)._.`.'.}.}. XoXOXOX#X-X-X;X;X<X1X2X2X4X5X5X6X6X6X6X6X6X6XdXjXjXjXjXjXjXjXjXfX<X+X*.O                         ",
"                      . . . . . ; #.C.L.P.R.E.W.Q.)._.`.'.{.}.|. XOX+X#X+X-X;X;X:X1X3X2X2X4X5X5X5X5X6X6X5X5X5XdXkXjXjXjXjXjXjXjXhX;XoX} .                       ",
"                      . u ) ) _ u ] C.C.L.R.R.W.Q./._._.`.'.}.|. XOXOX+X-X-X-X;X;X<X<X1X2X2X4X4X4X5X5X4X4X4X4X>XsXlXjXjXjXjXjXjXjXfX-XXXu .                     ",
"                    . ; ) _ O.#.+.+.C.C.W.C.Q.R.Q./.)._.`.'.{.}. XoXOX+X+X#X-X-X<X;X<X<X1X2X2X4X2X4X2X4X4X2X2X2X1X7XhXjXjXjXjXjXjXjXdXOX$.o                     ",
"                    . u ) _ [ +.#.%.C.C.C.C.W.W.W././._.`.'.{.}. X XOXOX+X#X#X#X#X<X;X<X<X1X1X1X2X2X2X2X2X1X1X1X1X:X2XdXlXjXjXjXjXjXlX2X|.h .                   ",
"                  . . u ) _ ] +.&.#.#.C.C.R.C.W.W.Q./.)._.`.'.{.}. X XOXOX+X#X@X^.%X;X:X:X<X<X<X1X1X1X1X1X<X<X<X:X;X;X-X4XfXlXjXjXjXjXaX}.%.O                   ",
"                  . O g ) ) _ O.&.+.#.C.C.C.R.R.W.Q.Q.)._._.'.{.}..X X XOX@X%X&XT.^.%X:X;X;X:X:X:X:X<X:X:X:X;X<X;X-X-X-X#X#X3XaXhXhXhX<X}.(.9 .                 ",
"                . . O h ) ) _ ] +.&.+.C.C.C.C.W.C.Q.Q./.)._.`.'.{.}.|.|.oX~.~.T.T.T.^.%X-X-X;X;X;X;X;X;X<X-X;X;X-X#X#X#X$X+XOX@XOX+XOX}.{.{._ .                 ",
"                . . . u h ) ) _ [ +.+.C.C.C.C.C.C.W.W././._._.`.'.!.Y.T.U.U.U.T.T.T.T.&X#X#X-X-X-X-X-X;X-X-X#X#X#X#X#X#XOXOXOX X X.X}.{.`.`.%..                 ",
"                . . . = h ) ) _ _ O.+.C.C.C.C.C.W.W.W.Q.Q.Q.W.R.I.z.z.I.I.U.U.U.U.T.T.T.@X#X#X#X#X#X#X-X#X#X#X#X#X+XOXOX@XoX X X X}.{.{.`._.@..                 ",
"                . . O = i ) ) ) _ ] O.+.C.C.C.C.C.W.C.Q.W.W.W.W.E.!.Y.I.I.I.U.U.U.T.T.T.~.&XXXXX%X@X+X+X+X#XOX$XOXOXOXOX X X}.[.!.(.(.).`.@.. . .               ",
"                . O u h h ) ) ) _ _ _ [ +.C.C.C.L.P.R.R.E.Q././._._.`.].].Y.I.I.U.U.U.U.U.T.T.~.~.~.&X&XXXXXoXOXOXoX X[.~.!.U.I.I.z.I.Q._._ . . .               ",
"              . . = u g g h h ) _ _ _ ] ] O.#.C.C.L.P.R.E.E.Q./.)._._._.`.'.].~.I.U.Y.~.[.|.|.|.oXXXoXoXoX X X X X X X[.!.Y.!.Y.E.E.)._.E.d O . .               ",
"              . . ; i u g h h ) ) _ _ _ ] ] O.+.C.C.L.R.R.R.E.Q.Q.)._._._.`.`.'.].].[.{.}..X X X X X|. X X X X.X}.}.}.{.{.'.`.`._._.).Q.+.+.$.) .               ",
"              . O ; i i u h h h ) ) _ _ ] ] ] [ O.+.$.C.P.R.E.W.W.Q.Q.)._._._.`.`.'.].!.!.[.}.}.}.}.|.}.}.}.}.}.}.{.{.'.'.`._._._././.Q.Q.W.E.[ .               ",
"              . O ; ; 9 i d h h h ) ) _ _ ] ] ] [ [ O.O.+.$.P.R.E.Q.Q./.)._._._._._.`.].!.(.'.'.'.{.'.'.}.'.'.'.'.`.`.`._._._.)././.Q.W.E.E.L.u .               ",
"              . O ; ; ; 9 i u j h ) ) ) _ _ _ ] ] [ [ O.O.@.+.+.$.L.I.R.E.Q.Q.)._._._.`._.`.`.`.'.'.'.`.'.`.`.`.`.`._._._.).).Q.Q.Q.E.P.L.$.] . .               ",
"              . O = ; ; 9 9 9 i u g h ) ) _ _ ] ] ] [ [ O.O.@.@.@.+.#.#.$.z.I.P.E.E.Q./.).)._._._._._._._._._.).).)./.Q.Q.E.P.P.L.$.%.+.+.+.[ = .               ",
"              . O = ; ; 9 9 9 i i u u g h ) _ _ ] ] ] [ [ [ O.O.@.+.+.+.#.#.#.%.%.%.z.z.L.z.L.I.I.I.P.P.P.P.I.I.L.L.z.$.$.%.%.#.#.+.+.+.@.O.o.9 .               ",
"              . O = ; = 9 9 9 9 i i i u u d j j L L ` _ ] { [ o.O.O.@.+.@.+.#.#.#.#.%.%.z.%.%.z.%.$.z.z.%.%.$.%.%.#.#.#.+.+.@.@.@.o.o.[ { { ' j .               ",
"              . O = = ; ; ; 9 9 i i i i 9 9 u d d j j L L L L ` ` ' ' ' { { { o.[ o.o.o.o.o.o.o.o.o.o.o.o.o.o.o.{ { { ' ' ' ' ' ` L L ` L L L j .               ",
"              . . = = = = = ; ; : = = O . = i i u u u d u d d j j j j j L L L L L L L L L L L L L L L L L L L L L L L L L L L L L j j j j j j i .               ",
"            . . . . . . . . . . . . . . . . . . . O . . . O O . . . . O . . . O . . O . O O O . O O O . O . . O . O . O . . O . O . O . . . . . . .             ",
"        . . @ + + O . . & & - - - - - - . . . . . . . . . . @ < p w w p p p p p p p l a p p 7 p w w w , e , , , > - > > > < > - - - - - - + & + + + . .         ",
"        . + , , w < + , a s f f z x x x - . . . . . . + > w R ....=.-.-.-.-.<.<.<.<.<.<.<.<.-.-...-....... . .| | | | R E c c x z z l f f a a p p , + .         ",
"        . < , , , p p a a s f z z x x w . . O + , p l |  .....=.-.-.-.-.-.<.<.<.<.<.<.<.<.-.-.<.=. .R W  ...| | | | R R c c x x x z z f a a a p w w , .         ",
"        . , w , w w p p a l f f z k , . + p x R R | |  . .....=...-.-.-.-.<.<.<.<.<.<.<.<.-.=.c f z | .... .| | | R R X.c X.c x x z l f f a p p p w < O .       ",
"        . - , < , , w w w p a s s - + r f z R z R R R R R W W W | .. ...........=.=.=...W f < w c  .| W W R R c c c x x x z l f s s s s e e e e e w - X .       ",
"        . + < - > > > , r e w e > r s s s s f f s f l l x x c c c c c R c | c c x z p & @ < z c c c c c c x l a w s f f s s s s s s s r e e r > - - & .         ",
"        . @ < > < > > , r r e e e s s s f f f f l z z z c x x R c c x a a p @ . X . + w z c R c c c v s w - @ X , l f f s s s s s e w r e e r > > - @ .         ",
"        . . O @ @ O O O + + O & & & & & & - & - - - - - - - > - < < + . . . . . . . + < , , < < > & . . . . . . - - - - - - & - & + + + + + @ + O @ .           ",
"            . . . . . 4 4 4 4 4 4 . . o o o o @ # + o o o o @ o . * t y y y y y 6 y 6 6 6 6 6 6 6 5 5 3 5 5 5 4 4 4 4 4 4 4 * 4 1 4 4 4 4 . . . . .             ",
"                    X A S S S S D # o 8 7 7 q q q 0 0 0 0 0 q q @ V e.e.i.i.q.q.q.8.q.8.8.8.s.5.4.4.s.! s.G G G D S S S S S S S S S S S A # .                   ",
"                  . # A S S S D D # . o % 7 0 0 0 0 M M 0 M M 0 @ V e.i.i.i.i.i.i.i.q.q.^ A t 6 6 5 6 6 6 5 4 4 4 5 2 4 4 5 6 A S S S S S $ .                   ",
"                  . # S S S S G G # o q 0 0 H M H H J H H I J H o V e.e.i.i.i.i.i.i.8.A o X o N N N q X 8 M N M 8 X q N M 8 . X 6 S S S S * .                   ",
"                  . * S S S G G ~ # + q 7 7 q 0 H Y Y U U Y U I o V e.y.i.i.i.p.i.i.Z X 2 3 1 3.b.b.3.$ N v.c.v.K o 3.c.b.K $ 1 . B S S S 5 .                   ",
"                  . t 5.7.6.w.p.t.* . o 0 H Y U ;.;.;.;.;.U U Y o V y.S.eXeXqXeXeXF.7 $ n n 2 N c.c.q 2 $ 2.m.x.$ 2 N m.x.% b b # 4 7.7.6.y .                   ",
"                  . 6 0.e.t.f.g.f.7 . H U U >.,.>.;.;.>.U >.>.I o C e.0XuXuXuXuXuXqX+ 3 n n n 1 P T 1 b b 8 2.q 3 n 1 P N 3 n n 1 # 0.r.r.Z .                   ",
"                  . . C r.a.f.A.A.7 7 Y Y >.>.v q q 0 I ,.,.,.U + V e.F.iXuXuXuXuXqX# 2 n n n b 1 1 b n b 3 $ 3 n n b $ 1 b n n 4 # 5.e.r.Z .                   ",
"                  . # / r.a.f.A.A.w 0 :.>.:.7 N x.B.2.q v M.d.,.% V y.0XiXiXiXuXiXqXo 3 n n n n b n n n n n b n n n n b n n n n 1 # 6.e.r.( .                   ",
"                  . t r.t.r.a.Z.A.7 7 >.,.v N v.xXlXzXB.7 :.M.d.% V e.0XgXgXiXiXiXqX@ 3 n n n n n n n n n n n n n n n n n n n n 1 # 6.e.r.F .                   ",
"                  # / r.t.t.r.A.A.7 0 d.,.% l.v.n.xXxXB.K v M.j.% V 9.0XgXgXgXiXiXqXo 3 n n n n n n n n n n n n n n n n n n n n 1 # 6.e.0.F X                   ",
"                . # 5.e.t.a.f.Z.Z.* v d.d.% K v.v.v.v.3.M v N.M.< V 9.0XgXgXgXgXgXqX% 3 n n n n n n 3 1 $ 3 n 3 1 2 b n n n n n 4 # 6.e.9.( X                   ",
"                . . C e.t.a.f.Z.A.p v j.j.v % P l.l.l.K $ ;.9XM.< V e.0XgXgXgXiXiXqX+ 3 n n n n b $ . . . $ b $ . . X 3 b n n n 1 # 7.6.7.~ @                   ",
"                . . Z r.e.e.y.A.Z.t % ,.M.,.0 % m n 8 % Y N.9Xd.@ ( e.F.gXgXiXuXuXqXo 3 n n n b X . . . . 3 3 1 . . . . 1 b n n 2 # ^ 4.4.~ @                   ",
"                . X / w.7.5.e.g.S./ . H ,.j.,.Y J H J d.M.9Xd.v + / w.F.gXiXiXuXiXqX+ 3 n n b $ q 8 . . . o N % . . . N 8 2 n n 1 # 7.7.4.~ #                   ",
"                . . ( 5.4.0.h.A.Z.A.t o H :.,.>.U d.d.d.j.>.H X C w.r.qXuXuXuXuXuXqX* 1 n n 2 % c.x.% . . T m.P . . 8 v.2.X b n $ 4 9.0.4.Q #                   ",
"                . . # / 5.0.a.f.Z.Z.k.t + 7 v I I J I J H < # Z w.w.A.yXuXuXuXyXyXeX( . 2 b $ 2.n.n.P . 8 v.n.v.q X 2.n.b.M 2 2 . ( e.w.7.~ #                   ",
"                . . Z w.w.w.a.e.g.Z.Z.k./ t 5 * - * < * 5 C / w.w.f.wXuXyXyXyXyXyXtXk.C @ X 7 P 2.2.P o N 2.2.2.N @ P 2.2.N X # Z w.e.e.5.~ #                   ",
"                . 5 w.e.w.e.e.6.w.f.Z.S.g.r.0.w.w.6.w.6.w.r.r.t.Z.tXyXyXyXyXyXyXyXrXZ.t./ C t t t t t t t t 6 t t t t t 6 t C / w.w.e.e.w.~ X                   ",
"                . 5 w.e.w.e.u.5.0.y.A.S.D.D.Z.Z.Z.Z.S.D.D.D.G.wXrXrXrXyXrXrXrXrXrXyXJ.f.a.a.a.a.t.t.r.r.r.r.w.w.w.w.w.w.w.w.e.e.e.e.e.e.e./ .                   ",
"                . * 6.e.e.w.^ 7.5.9.y.f.A.D.F.H.J.K.wXwXtXtXtXwXJ.eXrXrXrXrXrXrXrXrXeXJ.Z.f.f.h.a.a.a.a.t.r.t.r.r.e.e.e.e.e.e.w.e.e.e.e.6.t .                   ",
"                  X / e.e.w.6.5.5.5.9.w.a.A.D.D.H.G.G.K.J.H.D.D.D.F.J.eXtXwXeXtXtXtXwXwXK.H.H.D.D.Z.Z.Z.A.g.f.a.r.e.e.e.e.e.e.e.e.e.w.0.V . .                   ",
"                  . 5 ^ 6.w.w.e.y.w.w.t.f.Z.Z.D.D.H.H.H.J.J.G.J.G.J.wXwXJ.J.J.K.J.J.J.G.G.H.F.D.D.Z.Z.Z.g.f.h.t.e.w.w.e.e.e.e.e.w.w./ 5 . .                     ",
"                    @ y ! ! ! ! ^ 7.5.9.y.y.h.h.a.f.f.g.f.g.A.A.Z.Z.g.g.A.S.g.g.g.g.g.f.f.f.h.h.a.t.r.r.6.6.7.4.^ 7.7.^ 4.^ 4.4.^ ^ ! * . .                     ",
"                      X y F Q Q Q Q Q ! 4.4.7.5.5.9.y.9.i.p.p.p.h.h.h.h.h.h.p.h.p.e.0.9.p.y.9.9.0.6.7.4.4.! Q Q ! Q Q Q Q Q Q F Q Q ~ * .                       ",
"                        . # 6 A Z D D G G G F ^ F F ^ ^ 4.5.5.5.9.9.8.9.9.5.9.5.7.y X 7 Z 4.4.^ ^ ^ ! Q F G G G D ~ G D G D D D S A 4 X                         ",
"                          . . X * 4 6 6 B B B 5 o . X # 5 V A A A A A 5 * 4 4 * X . . . . # $ 5 B B B B B B B B B B B y y B B 6 * @ .                           ",
"                                . . . . . X . . . . . . . . . . . . . . . . . . . . . . . . . . . . X . . . . X . . . X . . . . .                               "
};
