/* XPM */
static char *skeleton_00_idle_08_resized[] = {
/* columns rows colors chars-per-pixel */
"80 80 230 2 ",
"   c None",
".  c #020102",
"X  c #0B0204",
"o  c #010B0A",
"O  c #0B0909",
"+  c #14050C",
"@  c #140808",
"#  c #18130D",
"$  c #1B0911",
"%  c #011513",
"&  c #0E1213",
"*  c #001C1A",
"=  c #001916",
"-  c #141A1D",
";  c #141717",
":  c #070F10",
">  c #260206",
",  c #370109",
"<  c #25150B",
"1  c #260916",
"2  c #360B1C",
"3  c #231B12",
"4  c #281318",
"5  c #311D11",
"6  c #331A0A",
"7  c #00211E",
"8  c #37291B",
"9  c #312611",
"0  c #151E21",
"q  c #181E21",
"w  c #381325",
"e  c #2B1420",
"r  c #002522",
"t  c #002925",
"y  c #022D2B",
"u  c #162125",
"i  c #1B262A",
"p  c #1D292E",
"a  c #192225",
"s  c #1F2C31",
"d  c #013533",
"f  c #013C3B",
"g  c #003A35",
"h  c #073331",
"j  c #212E33",
"k  c #243136",
"l  c #2A353B",
"z  c #28363C",
"x  c #2B2C29",
"c  c #48020C",
"v  c #51030D",
"b  c #4E3312",
"n  c #490C24",
"m  c #440B22",
"M  c #560D2B",
"N  c #47152D",
"B  c #481831",
"V  c #591936",
"C  c #57112E",
"Z  c #630F30",
"A  c #681638",
"S  c #6B1539",
"D  c #453423",
"F  c #4F3131",
"G  c #6E3916",
"H  c #00423D",
"J  c #6E5219",
"K  c #594834",
"L  c #524230",
"P  c #68543C",
"I  c #614D37",
"U  c #5E4D11",
"Y  c #2E3C42",
"T  c #323D44",
"R  c #741C43",
"E  c #791E46",
"W  c #6D1E43",
"Q  c #672346",
"!  c #782349",
"~  c #7C2B55",
"^  c #014443",
"/  c #014C4B",
"(  c #014A44",
")  c #00544C",
"_  c #00544B",
"`  c #015453",
"'  c #015B5B",
"]  c #015852",
"[  c #0F4D4F",
"{  c #35434A",
"}  c #37434A",
"|  c #3C4A52",
" . c #27484B",
".. c #00625E",
"X. c #016363",
"o. c #006C6B",
"O. c #016966",
"+. c #007473",
"@. c #007B7C",
"#. c #017977",
"$. c #036F6E",
"%. c #307075",
"&. c #195F62",
"*. c #45545C",
"=. c #414F57",
"-. c #725D44",
";. c #6B5741",
":. c #7A634A",
">. c #7E6952",
",. c #4C5A63",
"<. c #495760",
"1. c #515F68",
"2. c #8A5921",
"3. c #9B6F24",
"4. c #B36C25",
"5. c #92671A",
"6. c #83244E",
"7. c #892A56",
"8. c #8C2D5B",
"9. c #852955",
"0. c #94315E",
"q. c #902E5C",
"w. c #A32E5E",
"e. c #953263",
"r. c #993366",
"t. c #9E3A6B",
"y. c #9B3668",
"u. c #903160",
"i. c #A52E60",
"p. c #A33C6C",
"a. c #A43E71",
"s. c #897259",
"d. c #A8406F",
"f. c #AA4577",
"g. c #B24C7D",
"h. c #BC517D",
"j. c #917B63",
"k. c #91446B",
"l. c #873B16",
"z. c #02817E",
"x. c #B2971C",
"c. c #B38B24",
"v. c #C5962A",
"b. c #D3AC29",
"n. c #D9BB1F",
"m. c #E4C620",
"M. c #98826A",
"N. c #A78F76",
"B. c #DEC86B",
"V. c #D2A94F",
"C. c #017E80",
"Z. c #1A7D81",
"A. c #337E82",
"S. c #B95486",
"D. c #B44E81",
"F. c #C25A8B",
"G. c #C35D90",
"H. c #CA6597",
"J. c #D1729C",
"K. c #DC75A7",
"L. c #D66EA1",
"P. c #E37CAF",
"I. c #018384",
"U. c #008B8C",
"Y. c #078A85",
"T. c #128E88",
"R. c #08928E",
"E. c #19918C",
"W. c #018F91",
"Q. c #009394",
"!. c #009699",
"~. c #009A9C",
"^. c #0B9A98",
"/. c #179A98",
"(. c #2C9595",
"). c #009EA1",
"_. c #01A2A5",
"`. c #01A6A9",
"'. c #03A9AC",
"]. c #0AABAE",
"[. c #0BA3A5",
"{. c #17A6A8",
"}. c #0DACB0",
"|. c #13AEB2",
" X c #19AFB3",
".X c #1CB1B5",
"XX c #25A7A8",
"oX c #2CB5BB",
"OX c #24B3B7",
"+X c #35B8BE",
"@X c #35B7BD",
"#X c #2FACAD",
"$X c #239F9F",
"%X c #4DB6BB",
"&X c #58A0A7",
"*X c #3CBAC1",
"=X c #43BCC3",
"-X c #4ABEC5",
";X c #5CBDC2",
":X c #6CB9C1",
">X c #4FC0C8",
",X c #54C1C9",
"<X c #5BC4CC",
"1X c #63C5CE",
"2X c #66C9CE",
"3X c #69C8D1",
"4X c #73CBD4",
"5X c #7BCED7",
"6X c #7ACFD5",
"7X c #B8A087",
"8X c #D0829D",
"9X c #CB8DA2",
"0X c #D487A6",
"qX c #EA85B6",
"wX c #F08DBB",
"eX c #FC98C8",
"rX c #F58EC1",
"tX c #FEA7CB",
"yX c #FFB4CC",
"uX c #FFBBCC",
"iX c #86D1DB",
"pX c #88D2DB",
"aX c #B3E4E7",
"sX c #FFC4CC",
"dX c #D0EEF0",
"fX c #FFFFFF",
"gX c #F4FBFC",
"hX c #E8F7F8",
"jX c #F9F2D7",
"kX c #F0E4A2",
/* pixels */
"                                                                                                                                                                ",
"                                                                                                                                                                ",
"                                                                                                                                                                ",
"                                                                                                                                                                ",
"                                                                                                                                                                ",
"                                                                                                                                                                ",
"                                                                                                                                                                ",
"                                                                                                                                                                ",
"                                                                                                                                                                ",
"                                                                                                                                                                ",
"                                                                                                                                                                ",
"                                                                                                                                                                ",
"                                                                                                                                                                ",
"                                                              . . . . . . . . X o . . . . . . . .                                                               ",
"                                                  . . . O % 7 h d H [ &.%.%.E.%.A.A.A.%.%.%.*.&. .j u : . . .                                                   ",
"                                            . . o 7 H ] &.$.z.z.E.{.+X@XoX*X=X#X#X%X1X1X3X4X3X4X4X4X:X&X&X%. .u o . .                                           ",
"                                      . . o y _ O.z.z.Y.Y.Y.^.{. XoX#X$X(.(.$X(.(.(.#X%X%X1X4X4X4X4XiX5X5X4X3X:X&X&.i X .                                       ",
"                                  . . % f ..+.#.@.z.Y.~.^.[.{..XOXoXoX#XXX#X@X%X%X%X%X;X:X1X4X5XiXiXiXiX5XiXpXpX5X3X%X(.Y o .                                   ",
"                                . . d ..z.I.U.U.C.@.I.!.[.{..X.XOXoXoX@X*X=X=X>X<X<X1X1X3X4X4X5X5XiXiXiXiXdXgXgXhXaXpX<X;X(.z o .                               ",
"                              . . % ' +.U.Q.Q.~.).).Q.C.R.[. X XXX.X@X@X+X=X=X>X>X<X<X1X3X3X4X5X5XiXiXiXiXhXfXfXfXfXfXdX6X>X@X%.& .                             ",
"                          . . . * X.C.I.U.U.Q.~.)._.'.`.[.|.|././.OXoX@X*X=X=X>X>X,X<X1X2X3X4X5X5XiX5XiX5XaXfXfXfXfXfXfXgXaX,X*X(.y .                           ",
"                        . . . . d C.C.I.U.U.Q.~.)._.`.'.].|. X XXXOXoX@X+X=X=X>X-X<X<X1X1X3X3X4X4X4X5X5X4X5XdXfXfXfXfXfXfXfXdX2X*X$Xy .                         ",
"                        . . . . t @.C.I.U.U.Q.~.).).`.'.].}.|..X.XOXoX@X+X*X*X>X-X,X,X<X1X1X2X4X4X4X4X4X3X4XiXdXfXfXfXfXfXfXfXhX6X*X(.* .                       ",
"                      . : * * = % X.@.I.U.U.Q.Q.).).`.'.].}.|..X.XOXoXoX+X+X*X%X-X-X>X<X<X1X1X2X3X3X3X3X3X1X;X5XdXfXfXfXfXfXfXfXhX4X*XZ.o                       ",
"                    . o f / X.X.` ` C.C.!.C.!.!.!.).`.`.'.}.|.|..XOXoXoXoX+X*X>X>X>X>X>X,X<X<X<X1X1X1X1X1X<X<X<X3XdXfXfXfXfXfXfXfXhX2X.X[ .                     ",
"                    . r ^ / X.o.$.+.C.C.C.C.!.!.!.)._.`.'.].}.|..X.X.XoXoX+X+X+X+X>X=X>X>X,X,X,X<X<X1X<X<X<X<X<X>X>XpXhXfXfXfXfXfXfXdX+X/.= .                   ",
"                  . . y ^ / ' o.$.+.C.C.C.!.C.!.!.).).`.'.'.}.|. X.X.XoXoXoX+X@X#X%X=X>X>X>X>X>X,X<X<X,X,X,X>X>X-X-X=X2XaXgXfXfXfXfXfX4X|.` X                   ",
"                  . . d ^ ^ ` o.$.$.+.C.C.C.W.W.!.!.)._.'.'.'.}.|. X.XOXoXoX@XXX(.$X+X%X>X>X>X>X-X>X>X>X>X>X-X>X-X=X*X*X+X1XaXhXfXfXfX6X|.R.:                   ",
"                  . o d f ^ / ' o.+.C.C.C.C.!.!.C.).).).`.'.'.}.}.|. X.XOXXXXX/.E.E.$X@X=X=X=X-X-X-X=X-X-X=X=X=X=X=X+X+X+XoX@X>X3XiX4XoX}.[.d .                 ",
"                . . o d ^ ^ ^ ` X.$.$.C.C.C.C.C.!.!.!.).).`.'.].}.].{.{./.^.E.E.E.E.(.#X+X+X=X=X=X=X=X=X=X=X=X+X+X+X+X+XoXoXOX.X X X|.}.}.].X..                 ",
"                . . . r f ^ ^ / ' X.C.$.C.C.C.C.C.!.!.!.)._._.`.^.R.T.T.z.E.T.T.E.E.E.$X@X@X+X+X*X*X+X+X+X+X+X+X+X+XoXoXoXOX.X.X X|.}.}.].'.@.o                 ",
"                . . . o y ^ ^ / / ' X.C.$.C.C.C.C.!.!.!.!.!.C.W.z.z.z.z.T.E.z.T.T.T.E.E.XX#XoX@X@X+X+X+X+X+X+XoXoXoXoXOXOX.X.X X|.}.}.].'.W.d . .               ",
"                . o r t d f ^ ^ / ` ` X.$.C.C.C.I.U.W.Q.!.~.).).`._.^.^.R.z.T.T.T.T.T.T.E.E././.$XXXXXXXOX#XoXoXoXOXOXOX X{./.^.R.R.R.~.`.` . . .               ",
"                . o d d g f ^ ^ ^ / ` ` X.$.C.C.I.U.U.W.Q.!.).)._.'.'.'.'.^.^.z.Y.T.T.T./././.$X$X$XXX{.XX.X.XOX.X.X X{.T.Y.T.z.Y.Y.Q._._.^ . . .               ",
"              . . % y d d f f ^ ^ / / ` ` ' o.C.C.I.U.U.W.Q.!.~._._._.'.'.'.}.[.R.^.^.{. X.X.X.X.X.X.XOX.X.X.X.X.X X|.|.[.[.[._.).).`.).#.d d * .               ",
"              . o * t y d d f H ^ ^ / / ` ` ` X.o.C.C.U.W.W.Q.!.~.)._._.'.'.'.}.].}.|.[.{.|.|. X.X X X X X X X X|.|.}.}.].].'.'.`.`.).Q.C.W.!.' .               ",
"              . o * * r y g f f ^ ^ ^ / ` ` ` ` ' X.o.+.C.U.W.Q.!.~.~.)._._.`.'.'.].[.R.R.[.}.}.}.|.|.|.}.|.}.}.}.].].'.'.'.`.`.).).).).!.Q.Q./ .               ",
"              . o % * 7 7 d d f f ^ ^ / / / ` ` ' ' ' X.o.o.#.C.Y.Q.!.~._._._._.`.`.`.'.`.[.].].}.}.}.].].].].'.'.'.'.'.`._._.).).).!.Q.W.U.o.% .               ",
"              . o = * 7 7 7 7 d f f ^ ^ / / / ` ` ' ' X.X.X.O.o.$.#.z.z.R.z.~.~._._.`.`.'.'.'.'.'.'.'.'.'.'.'.'.'.`.`._.`.).~.!.Q.U.I.@.+.$.` o .               ",
"              . o = * * 7 7 7 t y y f f ^ / / ` ` ` ` ' ' X.X.O.O.o.$.$.+.z.z.z.z.Y.Y.W.Q.Q.Q.~.~.~.).).~.~.~.~.!.Q.Q.Y.U.z.z.z.#.+.$.o.o.o...= .               ",
"              . o % * * 7 7 7 7 r r y y d g f ^ ( _ ` ' ' ' ..X.O.O.o.o.$.$.+.#.#.#.#.@.z.z.z.z.z.z.z.z.z.z.z.z.z.#.#.#.+.+.+.$.$.o.o.O.X.....y .               ",
"              . o % % = = * 7 7 r r t t y y d d d H H ^ ( ( ) ) ] ......X.O.O.o.o.o.o.+.+.+.$.$.+.+.+.+.+.o.o.o.o.O.O.O.......] ] ) _ _ ( ( H d .               ",
"              . o % % % = 7 7 7 r r 7 * % = y y d d g g f H H H H ( ( ( ( _ _ _ _ ] ] ] ] ] ] ] ] _ ] _ _ ] ] _ _ _ _ _ _ _ H _ ( ( ( H H H H d o               ",
"              . . o o o o o o o o o o . . . % * = = = * 7 * * 7 7 7 7 7 t 7 7 t t 7 t 7 t 7 t t t t t t t t t t 7 t 7 t 7 t 7 7 r 7 7 7 7 7 * = .               ",
"          . . . . . . . . . . o . . . . . . . . . . . . . . . . . . . . . . X . . . X . . . . . . . . . . . . . . . . . . . . . . . . . . . . . . . .           ",
"        . . & ; ; : . : - 0 u u i i p p o . . . . . . . . . - l l { { { } } } } } | } } } } } } { l T T z z z k k k k s j s s p p i u u 0 q - - - ; . .         ",
"        . ; - q q - - a i p s j k k z j O . . . . o & i k Y | | *.*.*.*.*.,.,.1.1.1.1.,.,.,.*.*.*.=.| { | | { { } { l { Y Y z z z k j j p i i a q q ; .         ",
"        . ; - - q q a i i p s j k k s : . o - i k z T | } | | | =.=.*.*.*.,.,.,.1.1.*.1.*.,.*.*.} l l { | | { { { T  . .z z z z k k j j p i i a q q ; o .       ",
"        . & - - - q 0 i i i s s j p : O 0 k Y Y Y { { { T | | | | | =.*.*.*.*.*.<.<.<.<.*.=.l a i } } | | } } } { Y Y Y z z z k s k s s i i 0 0 0 q - X .       ",
"        . & ; ; ; ; - - - 0 u 0 - & * i s s s s k k Y k l Y Y l T T T T } } } } } } T k ; : ; j l T T l l l z k k s k j s s p p i i i u u 0 0 - - ; & .         ",
"        . : ; & ; - ; - - 0 0 0 - u i i p p s s s s s s k l k Y Y l Y l l l i - q - O o ; j Y T l l l l k s u & & p s s p p i i i 0 0 0 0 0 - 0 - ; O .         ",
"        . . & & & & & - & - - 0 0 0 0 u 0 i i i p p p s p j j j j k i & & O . . . . & x k l k k l p - & : . . . u i i a u u u u 0 0 0 0 * - & & & & . .         ",
"          . . . . . . X . X . o . X o . o X o . o X X . O O . O O O X . . . X X . . O O O O O O O X . . . X . . X X O X o o X . O X X . . . . . . . .           ",
"                  . X m n n n n n + X # # # 3 < 3 ; 3 < 3 3 3 < . w Q ! E E E R R R R R S S S W A A Z V C C M M n n n n n n n n n n n n m X .                   ",
"                    X M Z Z Z S Z + X 3 < 3 9 8 8 8 8 8 8 8 8 9 X B y.i.i.i.i.i.w.w.w.w.w.6.! S W S S A A Z C C M M M n M M C Z Z Z Z Z Z + .                   ",
"                  . + M Z Z Z S A + . O < 8 8 D D D D D D D D 8 . B y.y.i.i.i.w.w.w.w.6.m @ @ @ @ O @ X O @ @ O O . O X X X X 2 M Z Z Z M + .                   ",
"                  . $ M Z Z S S A + # 8 8 8 9 8 D L L U K K I L O B r.0.i.i.i.w.w.w.6.1 X @ < 2.3.3.2.@ b 3.3.3.b $ 2.3.3.U X X + M Z Z Z $ .                   ",
"                  . 1 S R S R 6.! $ O O # 9 8 L P P P -.P I P K O B r.f.h.h.h.h.h.g.w X c v > J m.n.U @ 6 x.m.x.6 @ 2.m.b.9 , c X 1 R S R 1 .                   ",
"                  . w r.r.p.p.f.f.4 . 3 L P :.:.:.-.-.-.-.:.;.K O N r.J.tXtXyXtXtX0X; > v v c < x.x.> c , U n.U > c < x.J @ v v $ $ 8.r.r.N .                   ",
"                  . + Q y.a.a.D.g.4 O K P P :.:.I K P :.-.:.>.K O B r.J.uXuXyXyXyX9X+ , v v v , 9 6 , v c @ b @ c v > 9 6 c v v > $ ~ r.r.V .                   ",
"                  . . V y.a.f.D.D.q 3 P P :.L 4 9 b 9 9 ;.s.s.-.O B 0.8XuXuXyXyXyX9XO , v v v v , , v v v c , c v v c , c v v v > + u.r.t.V .                   ",
"                  . $ u.y.p.a.D.D.4 8 ;.:.K ; 3.B.kXB.J ; >.M.s.# B i.8XsXsXuXuXuX9XO , v v v v v v v v v v v v v v v v v v v v > + 8.r.y.Q .                   ",
"                  X Q y.t.y.y.S.D.4 8 >.>.3 J b.B.jXjXV.b F M.s.# B 0.8XsXsXsXuXuX9XO , v v v v v v v v v v v v v v v v v v v v > + 8.r.u.A .                   ",
"                  + 8.y.t.t.a.S.D.4 x s.>.# 2.v.b.b.V.v.U x N.M.# B 0.8XsXsXsXuXuX9XO , v v v v v v v v v v v v v v v v v v v v > + 9.r.u.Q X                   ",
"                . O Q r.t.a.f.S.D.4 x j.s.4 b 4.4.4.4.5., L N.N.; N r.9XsXsXsXuXuX9XO , v v v v v v c c , c v c , c v v v v v v > + 8.e.8.W O                   ",
"                . . N r.t.t.a.D.S.e 9 s.j.K $ b l.l.l.6 3 j.7Xj.# B r.J.sXsXuXuXuX9XO , v v v v v , @ . . @ v @ . X > c v c v v > + ! 6.! W X                   ",
"                . . Q r.8.8.e.g.S.F O ;.j.s.I x < < 4 F s.7X7XK . Q e.J.sXuXuXyXyX9XO , v v v c > . . . . > c > . . . O , v v v > + ! 6.~ R +                   ",
"                . O Q 8.6.8.t.D.S.k.O 3 ;.s.s.-.P ;.-.j.N.j.-.; ; u.e.9XuXyXyXyXyX9X: , v v v > @ @ . . X > < @ . . . O @ c v v > $ 7.8.6.W +                   ",
"                . . 1 ! 9.u.a.D.S.S.Q O 4 L ;.-.-.:.>.s.>.K ; + ! r.a.wXyXyXyXtXyX0X& > v v , @ 5.5.. . . 9 x.b . . O 3.U @ v v $ $ u.r.9.R +                   ",
"                . . w 8.q.u.a.y.D.G.D.Q 1 O # ; ; 3 ; ; + + w ~ r.e.H.tXtXtXtXtXyXqXw . c v > b m.n.b . O 3.m.x.@ . U m.x.< , , X w e.e.6.R +                   ",
"                . + 8.r.r.r.y.q.y.D.S.D.y.~ V B V V V V Q ~ r.r.t.H.eXtXtXtXtXtXtXwXu.$ X > < 3.x.v.5.+ b c.x.v.G O 3.v.v.G + X 1 8.r.r.r.W X                   ",
"                . e e.r.r.r.e.8.u.y.S.G.S.D.f.a.a.a.a.a.a.a.f.S.P.eXeXtXtXtXtXeXeXrXD.8.B $ # 5 9 9 5 + 5 6 9 6 < + 5 5 5 3 $ B 8.r.r.r.y.Q X                   ",
"                . $ u.y.r.e.6.6.8.0.t.g.F.H.H.J.L.L.K.P.qXqXwXwXwXwXeXeXeXeXeXeXeXeXH.a.a.u.8.~ ~ ~ ~ ~ ~ ~ ~ ~ ~ ~ ~ ~ ~ ~ 8.r.e.r.r.r.e.B .                   ",
"                  O ~ y.r.e.7.9.7.8.0.e.p.S.H.H.L.K.K.qXqXK.L.H.H.L.qXrXeXrXrXeXrXrXqXG.f.a.t.t.t.t.t.a.y.y.y.y.r.r.r.e.r.r.r.r.e.r.r.e.V X .                   ",
"                  . w 9.e.e.r.e.e.0.0.t.f.S.F.H.H.L.L.K.P.L.L.K.K.P.qXwXP.P.qXP.qXqXqXK.J.S.F.h.D.D.D.f.f.a.p.t.r.r.r.r.r.r.r.y.e.e.8.e X . .                   ",
"                    . M E E 6.9.9.8.u.r.p.a.f.g.D.D.S.S.F.F.F.F.F.F.F.F.F.F.F.F.F.S.S.D.D.g.f.f.f.a.t.y.e.0.8.7.9.8.9.9.7.9.9.6.6.~ E $ . .                     ",
"                    . O n R R R R ! R ! 6.9.7.q.0.0.0.y.r.i.p.d.d.d.d.d.f.d.d.d.p.p.0.p.p.0.0.0.8.9.7.6.6.! ! ! R R R R R R R R R R W 1 .                       ",
"                      . . 1 n C A Z A A S R S ! R ! 6.6.7.q.q.q.0.0.0.0.0.r.0.0.7.B # 2 Q 9.7.7.6.! 6.S S S S A S W A A S S A A Z Z 2 X .                       ",
"                          . . + > 2 2 m m n n 2 @ @ + $ 4 C V Z A V C w 2 2 2 1 $ . . . X 1 1 2 N n N n M n n n n n n n n n m 2 1 + .                           ",
"                                . . . X X X . . . . . . . X . X . X X . . . . . . . . . . . . . X X X X . X . X X . X . X . . . .                               "
};
