/* XPM */
static char *skeleton_00_idle_02_resized[] = {
/* columns rows colors chars-per-pixel */
"80 80 238 2 ",
"   c None",
".  c #010101",
"X  c #0A0305",
"o  c #040A0A",
"O  c #0A0C0D",
"+  c #0B0707",
"@  c #14050C",
"#  c #120C0A",
"$  c #180606",
"%  c #18130C",
"&  c #0A0F10",
"*  c #0D1214",
"=  c #001D1A",
"-  c #031615",
";  c #141A1D",
":  c #121617",
">  c #100D11",
",  c #260306",
"<  c #330108",
"1  c #380109",
"2  c #2B0615",
"3  c #260916",
"4  c #32091A",
"5  c #3A0B1E",
"6  c #281516",
"7  c #2B1A09",
"8  c #00211E",
"9  c #37291C",
"0  c #302311",
"q  c #151E21",
"w  c #191E21",
"e  c #3D0E21",
"r  c #381426",
"t  c #2F1222",
"y  c #012522",
"u  c #002D2B",
"i  c #002925",
"p  c #1A2125",
"a  c #1B252A",
"s  c #1B272B",
"d  c #00322D",
"f  c #1F2B31",
"g  c #013533",
"h  c #003B35",
"j  c #013D3B",
"k  c #093233",
"l  c #123335",
"z  c #22292D",
"x  c #212E33",
"c  c #25343A",
"v  c #2A353B",
"b  c #263339",
"n  c #392F23",
"m  c #4A020C",
"M  c #52030D",
"N  c #463215",
"B  c #4D3312",
"V  c #47142B",
"C  c #491831",
"Z  c #591A37",
"A  c #550F2B",
"S  c #630F30",
"D  c #641233",
"F  c #6A183A",
"G  c #71193E",
"H  c #600F2F",
"J  c #463828",
"K  c #503530",
"L  c #743A15",
"P  c #00413B",
"I  c #6B5416",
"U  c #584632",
"Y  c #6A543C",
"T  c #624D35",
"R  c #594711",
"E  c #133E40",
"W  c #2D3B42",
"Q  c #313E44",
"!  c #731C43",
"~  c #791E46",
"^  c #6A1E42",
"/  c #78244A",
"(  c #6E284B",
")  c #5F2040",
"_  c #014443",
"`  c #014B4B",
"'  c #004B45",
"]  c #00524D",
"[  c #015453",
"{  c #015C5B",
"}  c #005B54",
"|  c #1A484B",
" . c #35444B",
".. c #3C4B52",
"X. c #295659",
"o. c #00615B",
"O. c #016463",
"+. c #016C6C",
"@. c #026766",
"#. c #02716F",
"$. c #007474",
"%. c #007B7B",
"&. c #007876",
"*. c #087272",
"=. c #16686B",
"-. c #45535C",
";. c #404E56",
":. c #735D43",
">. c #6B5741",
",. c #78624A",
"<. c #7A6651",
"1. c #4C5A63",
"2. c #495760",
"3. c #505E67",
"4. c #406E74",
"5. c #976824",
"6. c #9D6820",
"7. c #83244D",
"8. c #8C2D5B",
"9. c #862955",
"0. c #942C5C",
"q. c #92315D",
"w. c #89305C",
"e. c #A32C5E",
"r. c #943263",
"t. c #993366",
"y. c #9B3568",
"u. c #9E3A6B",
"i. c #9A3A67",
"p. c #903061",
"a. c #A52E60",
"s. c #A33D6C",
"d. c #A63463",
"f. c #A33E71",
"g. c #831E48",
"h. c #877158",
"j. c #AA4576",
"k. c #AE4879",
"l. c #917B62",
"z. c #C0752A",
"x. c #00827C",
"c. c #AD8926",
"v. c #A58C20",
"b. c #C68D2B",
"n. c #D3AB28",
"m. c #D1B61D",
"M. c #E4C71F",
"N. c #A99178",
"B. c #9A846C",
"V. c #C7A54E",
"C. c #E1C46A",
"Z. c #027E80",
"A. c #B44F81",
"S. c #B85486",
"D. c #C35E91",
"F. c #C15B8E",
"G. c #CA6497",
"H. c #D36B9D",
"J. c #CC7399",
"K. c #DA74A6",
"L. c #D66FA1",
"P. c #E27AAD",
"I. c #E47EB1",
"U. c #018384",
"Y. c #008A8C",
"T. c #078A86",
"R. c #128D88",
"E. c #18918C",
"W. c #008E90",
"Q. c #009395",
"!. c #009A9C",
"~. c #069797",
"^. c #199996",
"/. c #0A928D",
"(. c #259A97",
"). c #39999F",
"_. c #009EA1",
"`. c #00A2A5",
"'. c #01A6A9",
"]. c #04A9AC",
"[. c #0AABAE",
"{. c #0AA3A4",
"}. c #17A7A9",
"|. c #0DACB0",
" X c #05ADB0",
".X c #13AEB2",
"XX c #1AAFB3",
"oX c #1CB0B5",
"OX c #12B0B4",
"+X c #26A7A8",
"@X c #22B1B6",
"#X c #25B3B8",
"$X c #2CB5BB",
"%X c #2CB1B5",
"&X c #35B8BE",
"*X c #35B7BD",
"=X c #33ACAD",
"-X c #24A09E",
";X c #49AFB2",
":X c #569EA5",
">X c #3CBAC1",
",X c #44BDC3",
"<X c #4BBFC6",
"1X c #55BBC3",
"2X c #63BEC6",
"3X c #53C1C9",
"4X c #5BC4CC",
"5X c #57C1C7",
"6X c #4DC0C7",
"7X c #62C5CE",
"8X c #6BC4CD",
"9X c #6CC9D2",
"0X c #67C7D0",
"qX c #77CCD6",
"wX c #7CD0D8",
"eX c #D0829D",
"rX c #CD8FA3",
"tX c #EA86B5",
"yX c #F28BBE",
"uX c #EA94B5",
"iX c #FD98C9",
"pX c #F58FC2",
"aX c #FFA4CB",
"sX c #FEABCA",
"dX c #FFB4CC",
"fX c #FFBBCC",
"gX c #81CFD9",
"hX c #88D2DB",
"jX c #94D9DE",
"kX c #B3E4E7",
"lX c #9EDCE0",
"zX c #FFC4CC",
"xX c #CFEEF0",
"cX c #FFFFFF",
"vX c #F6FCF9",
"bX c #E5F6F7",
"nX c #FDF7DB",
"mX c #C9B285",
/* pixels */
"                                                                                                                                                                ",
"                                                                                                                                                                ",
"                                                                                                                                                                ",
"                                                                                                                                                                ",
"                                                                                                                                                                ",
"                                                                                                                                                                ",
"                                                                                                                                                                ",
"                                                                                                                                                                ",
"                                                                                                                                                                ",
"                                                                                                                                                                ",
"                                                                                                                                                                ",
"                                                                        . . . . . . . . .                                                                       ",
"                                                      . . . X o - = y l l | P  .| | | P v x q ; : # X . .                                                       ",
"                                              . . o - u P [ @.*.*.E.+X%X*X&X,X=X=X1X4X4X7X8X2X2X;X:X:X4.X.f : . .                                               ",
"                                        . . - i ] o.&.x.T.T./.^.+X#X%X(.+X=X=X).).).;X;X5X8X9XqXqXqXqXqXqX8X:X).X.s X .                                         ",
"                                    . . = _ o.&.x.x.T.~.~./.}.oX#X$X$X+X(.(.).=X=X;X;X;X;X8XqXqXgXgXgXgXgXwXhXqX9X1X).X.* .                                     ",
"                                . . = ` +.%.x.U.Z.Z.Y._.}..XXXoX#X$X$X$X>X>X,X6X3X3X4X0X0X9XqXqXgXhXhXhXgXkXbXxXxXhX9X4X;XX.- .                                 ",
"                              . . . ] $.Y.W.Q.!.!.Z.Y.U./._..XXX#X#X$X>X>X,X,X6X3X4X7X7X9X9XqXwXgXgXhXgXgXbXcXcXcXcXxXjX2X<X).E .                               ",
"                            . . o _ $.U.Y.W.Q.!._.`.`.!.~..XXX^.^.+X$X>X>X>X,X6X3X3X4X7X0X9XqXqXgXgXgXgXgXxXcXcXcXcXcXcXxXwX<X*X=.* .                           ",
"                          . . . g %.Z.U.Y.Q.Q.!._.`.].]..X.XXX}.}.#X$X*X>X>X,X,X3X3X4X7X0X9X9XqXqXqXqXgXqXhXbXcXcXcXcXcXcXcXlX<X,X=.o .                         ",
"                        . . . . u %.Z.U.Y.Y.Q.!._._.'. X[..X.XoX#X#X$X*X>X>X>X6X6X3X4X4X0X0X9X9XqXqXqXqXqX9XlXvXcXcXcXcXcXcXcXxX3X*X=.o .                       ",
"                      . . o o . = $.Z.U.Y.Y.Q.Q._._.'.'.[.|..XoXoX#X$X$X$X>X>X,X6X6X3X4X4X7X0X0X8X8X9X9X9X0X0XlXvXcXcXcXcXcXcXcXxX6X$X=..                       ",
"                      . d _ [ [ g [ Z.Z.U.Y.W.!._._.`.'. X|..X.XoX#X$X$X>X>X>X,X,X6X6X3X4X4X7X7X0X0X0X0X0X0X7X7XhXbXcXcXcXcXcXcXcXxX,X}.k .                     ",
"                    . = _ ` O.+.+.+.%.Z.Y.Y.W.Q.!._.`.'.].[.|..XXXoX#X$X$X>X>X>X>X6X6X6X3X3X4X4X2X7X7X4X4X4X4X<X3X9XxXcXcXcXcXcXcXcXkX#XR.o                     ",
"                    . u _ ` { +.$.Z.Z.Z.Z.Q.Q.Q._._._.`.'.[.|..X.XoX#X#X$X*X>X*X*X;X6X6X6X3X6X4X4X4X4X3X4X4X3X6X6X<X3XjXbXcXcXcXcXcXvX4X.XP .                   ",
"                  . . d _ ` [ +.+.$.$.Z.Z.Q.Z._.Q._._.`.'. X[.|..XoXXX#X#X$X*X%X(.=X6X&X6X6X6X6X6X3X6X6X6X6X6X6X<X,X,X>X3XlXbXcXcXcXcXhXoX%.X                   ",
"                  . o g _ _ ` O.+.+.$.Z.Z.Z.Z.Q.Q.Q._._.'.]. X[..X.XoX#X#X@X+X+XE.(.=X,X&X6X;X6X6X6X6X6X6X6X6X,X,X,X>X&X*X*X,XwXkXxXkX6X.X{.i .                 ",
"                . . o g E E ` { +.+.$.$.Z.Z.Z.Q.Z.Q.!._._.'.]. X|..X.X}.}.^.E.R.E.E.^.=X&X6X>X,X6X>X6X>X6X>X,X>X>X&X&X*X$X$X#X@X@X@XoX.X|.[.[ .                 ",
"                . . . u E _ _ ` { +.+.Z.Z.Z.Z.Z.!.Q.!.!._.`.].].}.{././.R.R.R.R.E.E.E.-X&X&X&X>X>X>X>X>X&X;X>X&X&X&X$X*X$X#X#XoXoX.X.X|.|. X%..                 ",
"                . . . - g _ _ ` [ { +.Z.Z.Z.Z.Z.Q.Z.Q.!.!.!.!.Z.x.x.x.x.R.R.R.R.R.E.E.E.%X*X&X&X>X>X$X>X&X*X&X&X*X$X$X#X#X#XoXoXXX.X[.[.].`.{ .                 ",
"                . . - - i E _ _ E [ O.+.+.Z.Z.Z.Z.Z._.!.Q.Q.!.!.!.~././.T.T.T.R.R.R.E.R.^.(.-X+X+X%X#X$X*X$X$X$X$X#X#X#X@XXX}.{.~.{.~._.].{ . . .               ",
"                . o u g j j E _ [ E [ { O.Z.Z.Z.Z.!.Z._.!.!._._.'.].].{.{.~.R.T.T.R.R.R.R.E.E.^.^.^.(.}.}.+X@X#X#X#XoX}.^./.R.T.T.T.T._.'.` . . .               ",
"              . . - u g g E j _ _ ` ` [ [ O.+.Z.Z.Y.Y.Y.W.Q.!._.`.`.'.].].[.{.~./.R./.^.}.oXXX@X@X@X@X@XoX@XoXoXoXoXoX}.~./.~.~.Q.Q.`.`.Q.u - . .               ",
"              . . = y g g g j _ E _ ` [ [ [ { @.$.Z.Z.Y.W.W.Q.!.!._.`.'.'.].[.[.{.{..X.X.XXXoXoXXXoXXXXXoXoXoXXXXX.X.X|.|.[.[.[.].'.`.!.#.&.Z.` .               ",
"              . o = 8 y g g j j E ` ` ` [ [ { { O.@.$.Z.Y.W.W.Q.!.!._.`.`.'.].].[. X{.~.~.|..X.X.X.X.X.XXX.X.X|.|.|. X[.[.[.'.'.'._.!.!.!.!.Q.{ .               ",
"              . o = 8 8 y g g j E E _ _ ` [ [ [ { { O.@.+.&.U.Y.Q.Q.!.!._.`.`.'.'.'.{.{.~.{.[.[.|.|.|.|.[.|. X[.[.].[.].'.'.`.`._.!.!.!.Q.W.Z.y .               ",
"              . o = = = 8 y i g E E _ _ ` ] ] [ [ { O.O.O.O.+.#.&.x.Y.Y.~.!._._.`.'.'.'.].].].].[.].].].].[.[.].'.'.'.`.'.`.`.!.!.!.W.Y.Z.&.[ . .               ",
"              . o - = = 8 8 i i u g E _ _ _ ` [ [ [ { [ o.O.O.+.+.+.#.$.&.x.x.T.Y.Q.!.!._._.`.'.`.`.'.'.'.`.`.`.`.`.!.!.Q.Q.Y.U.x.%.$.+.+.+.o.- .               ",
"              . o - - = = 8 8 i i i u g j _ _ ` [ [ [ { { { O.O.O.+.+.#.#.$.&.&.&.&.%.x.x.x.U.U.T.T.T.T.Y.U.U.U.U.x.x.%.&.&.&.$.$.+.+.+.O.O.o.y .               ",
"              . o - - - = 8 8 8 y i i i u u g g j _ _ ` [ [ } { { O.@.@.+.+.#.#.$.&.&.&.&.&.&.&.&.%.%.&.&.&.&.&.$.$.#.#.#.@.@.O.o.o.{ } [ [ ] h .               ",
"              . o - - - = 8 8 8 y y y y = 8 d d g h h h P P P ' ' ` ] ] ] } } } o.} o.o.o.o.o.o.o.o.o.o.o.} o.} } ] ] ] ] ' ' ' ' ' ' P P P P d .               ",
"              . . - - o - - - = - o - . . o 8 y i i i i i d d d g d g g h h h h h P h P P P P P P P P P P P P P P P P P P P P P h h g g h g d i .               ",
"            . . . . . . . . . . . . . . . . . . . . . . . . . . . . . . . . . . . . . . . . . . . . . o . . . . . . . . . . . . . . . . . . . . . . .           ",
"        . . O O O X . X O * * * : ; : ; . . . . . . . . . . o p a a a z z z z z x z z z z z z z a a p p p p p p w w p ; ; ; ; ; ; : : * * * * * * O . .         ",
"        . O ; ; w ; & w s f f x x c c c * . . . . . . * ; z v ..-.-.-.-.-.-.3.3.3.3.3.1.-.-.-.-.-.;.;....... . . . .| W  .| v b c x l f z s s p p p # .         ",
"        . : ; ; w w p p f s f f x c c q . . O * q s v  .....;.;.;.;.-.-.-.3.-.3.3.3.3.3.-.3.-.-.;. .v v  ... . . .Q Q W c v v b c c b f f f p p w ; ; .         ",
"        . ; w ; w w p a s s s f c x : . & a b W  . . . . .....;.;.;.-.-.-.-.1.-.1.1.1.-.3.-.;.b z x ..;... . . .W  . .W W v v c c x x f s s p p p p ; X .       ",
"        . % : ; ; ; ; q w p s s s - O q f b b b v v v W v W Q Q  . . . .....;.;...;... .v p % p v  . .Q W W W v b b c c x c f f f s s p p p q ; ; ; * .         ",
"        . O : : * : : ; ; q p q ; ; s s s s f f f x x b b b v v W v v W W Q v x x z w O + ; b W v v v v b b z p ; a f f s f s a a q p q q q ; : : : & .         ",
"        . o : > : : ; : ; ; q q q p s s s s f f f x x x x b v v v v v p w ; + . . . O p b W W W v v z z ; & o . q x f f s s a a a w q q q q ; : ; * o .         ",
"        . . X + o X o X o O o o O O O O - & & & & & * > * * * * : * o . . . . . . . . * * * : * * O . . . . . . O & & & & & o o O o o + o o o o o X .           ",
"            . . . . . 3 2 2 2 3 2 X . + + X # # # % # # # # # O . 3 V V V V V A V V V V e V m V e 5 5 5 5 4 4 4 2 2 2 2 2 2 2 2 2 2 2 2 3 . . . . .             ",
"                    X A S S S S S @ + 7 6 6 0 0 0 9 0 9 9 0 9 0 . C t.t.d.a.a.a.e.e.0.e.0.0.0.g.7.7.g.g.~ G F S D S S S S H S S S S S S H @ .                   ",
"                  . @ H S S S F D @ X # % 6 9 9 N n N N 9 J N 9 X C t.a.a.a.a.a.e.e.e.e./ A 5 2 4 4 2 2 2 2 3 3 3 , 3 3 3 3 2 A S S S S H @ .                   ",
"                  . @ H S S S F F @ o 0 n N n N J J J U K U K B + C t.t.d.d.a.a.a.a.0.A + . + N N B N X 7 B N B 7 X B B B 0 . X 4 H S S H $ .                   ",
"                  . , S S S F G F # # 0 6 % 0 J K T Y Y Y T Y U + C t.d.d.d.d.d.d.d.Z . , m , 6.n.n.5.X B b.n.n.B $ 6.n.n.B , , . V S S S 2 .                   ",
"                  . r 8.9.0.t.u.i.3 . # n U Y Y ,.:.:.:.:.:.Y U + C y.G.uXuXuXtXyXJ.6 $ M M < N m.m.0 < + 5.M.6., , N M.v.7 m m @ 3 7.8.8.r .                   ",
"                  . t 8.y.s.j.A.A.6 o J Y :.,.<.,.>.:.,.Y ,.,.U # V i.J.fXdXdXdXsXrX> < M M M $ I I , M 1 % v.0 1 M , I 9 < M M , > w.t.y.C .                   ",
"                  . . C t.f.j.A.A.6 7 T T :.>.n 7 0 p U ,.h.h.>.+ V r.J.fXdXdXdXdXrX> < M M M m , , m M M < , , M M m $ , M M M , @ w.t.y.) .                   ",
"                  . X ( y.f.j.A.k.6 z Y ,.Y % R c.V.v.0 n h.l.<.% C i.eXfXfXfXdXdXrX+ < M M M M m m M M M M M M M M M M m M M M , @ w.t.y.^ .                   ",
"                  . r r.u.y.f.A.A.6 z ,.h.6 B n.C.vXnXV.0 >.B.l.% C i.eXzXzXzXfXfXrX+ < M M M M M M m 1 , m m 1 < 1 M M M M M M , @ w.t.y.) .                   ",
"                  O / y.u.u.u.A.A.6 9 h.<.3 5.b.C.C.C.n.B n B.l.% V t.eXzXzXzXfXfXrX# < M M m M m , + . . $ m $ . . $ 1 M M M M , @ w.t.r.Z X                   ",
"                  > w.t.f.f.j.A.S.; 9 h.h.% L z.z.z.z.z.N J N.B.% C q.eXzXzXzXfXfXrX# < M M m m $ . . . . < 1 , . . . . < M M M , > w.t.0.F X                   ",
"                . X Z t.y.f.k.S.A.3 n l.l.J , L 6.6.5.B : <.N.B.% C q.eXzXzXzXfXfXrX# < M M m $ 7 7 . . X , 0 $ . . . 7 % 1 M M , @ 9.0.9.^ X                   ",
"                . . C t.t.u.u.A.S.C ; <.B.h.n % 7 m 7 ; >.N.mX,.O Z t.K.zXzXfXfXfXrX% , M M < $ v.v.# . . B m.R . . % v.I $ M M $ 3 7.7.7.^ @                   ",
"                . . ( t.9.9.r.A.S.( + J ,.l.h.Y U U >.<.N.N.h.z > / t.eXzXfXfXdXdXuXC X 1 M $ I M.m.R . % c.M.v.7 X I M.m.0 1 < . C 9.7./ ~ @                   ",
"                . X ( 8.7.8.u.A.S.S.r + J Y ,.,.:.<.h.l.l.:.9 X Z y.r.uXfXdXdXdXdXuXi.t X X % 5.z.v.5.# B 6.c.z.R @ 5.6.6.R $ . r p.r.8.7.( @                   ",
"                . . 3 ( 9.t.j.k.S.F.j.V X : 9 n n n J J n > @ ) r.i.k.sXdXsXdXsXsXsXA.i.) t 6 t 6 6 3 @ 6 6 6 7 6 : 6 t 7 t e ) r.t.t.r.7.! @                   ",
"                . . t w.0.p.f.u.k.S.F.j.( C t 3 t 3 3 3 t Z 9.t.r.k.uXsXsXsXsXsXsXaXK.j.f.u.y.p.r.p.r.i.i.p.p.p.p.p.w.w.w.8.r.t.t.t.t.t.9.! O                   ",
"                . + 9.t.t.t.y.8.i.S.F.D.A.f.t.r.p.r.r.r.t.t.u.f.D.yXsXsXsXsXaXaXaXaXaXK.A.j.f.f.f.f.f.f.u.u.u.i.y.y.y.t.t.t.t.t.t.t.t.t.8.! X                   ",
"                . 4 r.t.t.t.t.8.p.s.S.F.G.G.G.D.S.H.G.L.L.K.P.pXaXaXaXaXaXaXaXaXiXaXiXiXpXP.L.L.J.G.D.S.S.A.k.k.f.f.t.t.t.t.t.t.r.t.t.t.y.( X                   ",
"                . 3 r.t.t.r.9.9.w.q.j.S.D.G.J.K.K.pXI.pXpXpXiXiXiXiXiXiXiXiXiXaXiXiXiXpXpXtXI.I.K.L.H.G.D.S.A.k.f.u.t.t.t.t.t.t.t.t.t.t.t.) .                   ",
"                  @ 9.y.t.p.9.7.9.8.q.i.j.F.G.H.L.K.P.tXI.I.P.L.H.P.yXyXyXiXyXyXiXyXyXtXtXtXtXK.L.G.G.S.S.S.k.j.f.y.t.t.t.t.t.t.t.t.t.y.( @ .                   ",
"                  . Z r.t.t.r.0.q.8.q.q.s.S.D.G.H.L.K.P.P.L.G.H.H.L.P.yXtXtXyXyXyXyXtXtXK.K.L.L.H.G.G.S.S.k.j.f.y.t.t.t.t.t.t.t.t.t.p.) 3 . .                   ",
"                  . @ ^ 7.9.8.8.q.t.t.j.k.k.S.F.S.G.G.H.H.H.L.L.L.L.K.L.H.L.K.L.H.H.G.G.G.G.D.S.S.A.A.A.j.u.u.r.r.p.p.r.p.r.p.0.8.8./ @ . .                     ",
"                    . 3 F ~ ~ ~ ~ / 7.9.9.q.q.q.u.u.u.u.s.f.j.j.j.j.j.j.j.j.j.j.j.s.s.j.s.i.d.q.r.p.p./ 7.7.~ ~ ~ ~ ~ ~ ~ ~ ~ ~ ~ ~ ! 3 . .                     ",
"                      . 3 A F G G G G ! / / 7.9.9.8.q.r.y.d.i.s.s.s.s.j.s.s.s.s.d.9.Z / t.q.q.q.8.9.7.7./ ~ ! ! ! ! ! ! G ! G G ! ! D @ .                       ",
"                        . . 3 5 A A H Z D D F D A V Z D G / 7.7.7.7.9.7.! / / / F % . # r F ^ G ! ! F F D D D D S H S Z H H Z H A e @ .                         ",
"                            . . X @ , 3 4 4 4 @ . . . . + 5 e e e e e $ + X + X . . . . . . X @ 2 4 4 4 4 4 4 4 4 4 2 4 4 4 2 $ X . .                           ",
"                                  . . . . . . . . . . . . . . . . . . . . . . . . . . . . . . . . . . . . . . . . . . . . . . .                                 "
};
