/* XPM */
static char *skeleton_00_idle_07_resized[] = {
/* columns rows colors chars-per-pixel */
"80 80 238 2 ",
"   c None",
".  c #010101",
"X  c #0B0305",
"o  c #030A0A",
"O  c #0B0C0D",
"+  c #080807",
"@  c #12040A",
"#  c #170709",
"$  c #00110F",
"%  c #1B130A",
"&  c #0C0E10",
"*  c #1B0912",
"=  c #001412",
"-  c #0C1314",
";  c #001C1A",
":  c #071918",
">  c #141A1D",
",  c #121516",
"<  c #240106",
"1  c #280406",
"2  c #360108",
"3  c #261509",
"4  c #270A17",
"5  c #390A1D",
"6  c #271717",
"7  c #361C0B",
"8  c #00211E",
"9  c #2D2318",
"0  c #382A1C",
"q  c #37280C",
"w  c #151E21",
"e  c #181E21",
"r  c #351223",
"t  c #012B2A",
"y  c #012623",
"u  c #1A2225",
"i  c #1B262A",
"p  c #1D292E",
"a  c #162225",
"s  c #00312D",
"d  c #1F2C31",
"f  c #013432",
"g  c #013C3A",
"h  c #023A35",
"j  c #0B3031",
"k  c #212E33",
"l  c #25343A",
"z  c #28353A",
"x  c #332D25",
"c  c #4C030C",
"v  c #45020B",
"b  c #51030D",
"n  c #543914",
"m  c #4B3012",
"M  c #440C22",
"N  c #4B0D26",
"B  c #5B0E2D",
"V  c #520D28",
"C  c #47152D",
"Z  c #4A1831",
"A  c #581B39",
"S  c #54132E",
"D  c #630F30",
"F  c #681537",
"G  c #661234",
"H  c #473827",
"J  c #5A203F",
"K  c #673213",
"L  c #00433D",
"P  c #654F14",
"I  c #5A4835",
"U  c #57442D",
"Y  c #69543C",
"T  c #624E37",
"R  c #685615",
"E  c #2D3B42",
"W  c #313D44",
"Q  c #741C43",
"!  c #7A1E46",
"~  c #6B1E42",
"^  c #692345",
"/  c #78244C",
"(  c #762C51",
")  c #5E2843",
"_  c #014443",
"`  c #004B44",
"'  c #014C4B",
"]  c #084946",
"[  c #00524A",
"{  c #005047",
"}  c #015453",
"|  c #015C5B",
" . c #025A55",
".. c #134649",
"X. c #35444B",
"o. c #36444B",
"O. c #3D4B52",
"+. c #284C4F",
"@. c #00635E",
"#. c #016463",
"$. c #006C6B",
"%. c #016966",
"&. c #00706E",
"*. c #007373",
"=. c #017C7B",
"-. c #007878",
";. c #0C6A6B",
":. c #226569",
">. c #45535B",
",. c #48565E",
"<. c #454F54",
"1. c #725C44",
"2. c #6C5945",
"3. c #7A634A",
"4. c #7E6952",
"5. c #4C5A63",
"6. c #505E67",
"7. c #40757A",
"8. c #986C27",
"9. c #98621D",
"0. c #83244E",
"q. c #8B2E5B",
"w. c #872854",
"e. c #912B59",
"r. c #94315D",
"t. c #8A325E",
"y. c #A32E5E",
"u. c #963264",
"i. c #993366",
"p. c #9B3569",
"a. c #9E396B",
"s. c #9B3866",
"d. c #913060",
"f. c #A52E60",
"g. c #A23C6E",
"h. c #A53867",
"j. c #A23D70",
"k. c #821F49",
"l. c #8B755C",
"z. c #816B51",
"x. c #AA4677",
"c. c #B24C7D",
"v. c #AD4573",
"b. c #907A62",
"n. c #00837C",
"m. c #BB8E27",
"M. c #A98E1C",
"N. c #CB942D",
"B. c #D9B126",
"V. c #D2B61D",
"C. c #E5C91E",
"Z. c #9B846C",
"A. c #A48D73",
"S. c #DAB552",
"D. c #017E80",
"F. c #1D7F81",
"G. c #BA5486",
"H. c #B44D81",
"J. c #C25C8F",
"K. c #CB6497",
"L. c #D26C98",
"P. c #CD7699",
"I. c #DA75A6",
"U. c #D46EA1",
"Y. c #E47CAF",
"T. c #018384",
"R. c #018B8C",
"E. c #088B87",
"W. c #138F89",
"Q. c #18918C",
"!. c #008E91",
"~. c #009294",
"^. c #009699",
"/. c #009A9C",
"(. c #0C9A98",
"). c #189997",
"_. c #06928E",
"`. c #279C99",
"'. c #2F9899",
"]. c #009EA1",
"[. c #01A2A5",
"{. c #01A6A9",
"}. c #03A9AC",
"|. c #0AABAE",
" X c #0CA5A7",
".X c #18A7A9",
"XX c #0EACB0",
"oX c #13AEB2",
"OX c #19AFB3",
"+X c #1CB1B5",
"@X c #13B0B4",
"#X c #25A7A9",
"$X c #25B3B8",
"%X c #2CB5BB",
"&X c #24B2B6",
"*X c #35B8BE",
"=X c #35B6BC",
"-X c #30AAAD",
";X c #2BA0A1",
":X c #4AADB2",
">X c #50979E",
",X c #3CBAC1",
"<X c #44BDC3",
"1X c #4CBFC6",
"2X c #53BEC5",
"3X c #61BFC6",
"4X c #53C1C9",
"5X c #5CC4CC",
"6X c #55C1C7",
"7X c #4EC0C7",
"8X c #64C6CE",
"9X c #6BC9D2",
"0X c #67C7D0",
"qX c #73CBD4",
"wX c #7BCED8",
"eX c #78CAD1",
"rX c #B69E85",
"tX c #D0829D",
"yX c #CC8DA2",
"uX c #D38CA6",
"iX c #EA85B6",
"pX c #F191BD",
"aX c #EFE0A1",
"sX c #FD98C9",
"dX c #F58EC1",
"fX c #FFA7CB",
"gX c #FFB3CC",
"hX c #FFBBCC",
"jX c #86D2DA",
"kX c #8DD4DC",
"lX c #B4E4E8",
"zX c #9FDCE1",
"xX c #FFC4CC",
"cX c #D4EFF1",
"vX c #FEFFFF",
"bX c #F5FCFC",
"nX c #E9F7F8",
"mX c #FEF9D5",
/* pixels */
"                                                                                                                                                                ",
"                                                                                                                                                                ",
"                                                                                                                                                                ",
"                                                                                                                                                                ",
"                                                                                                                                                                ",
"                                                                                                                                                                ",
"                                                                                                                                                                ",
"                                                                                                                                                                ",
"                                                                                                                                                                ",
"                                                                                                                                                                ",
"                                                                                                                                                                ",
"                                                                                                                                                                ",
"                                                                                                                                                                ",
"                                                          . . . . . . + & = $ - : : - o O o X . . . .                                                           ",
"                                                . . . o : y L {  .;.W.'.'.'.-X:X>X:X:X:X>X>X>X'.7.>.+.p , + . .                                                 ",
"                                          . . o y L | &.n.n.W.W.).#X-X-X%X=X:X;X#X:X:X5X0X9X9XqXqXwXeX9X3X>X7.+.a + .                                           ",
"                                      . . y _ #.-.n.E.E.E.E.)..X&X%X&X`.Q.`.;X`.;X'.;X:X:X8XqXqXwXwXwXwXwXqXqX9X3X>X+.w . .                                     ",
"                                  . o t  .&.-.n.=.D.T.]. XXXOXOX&X%X%X=X-X=X*X7X2X2X3X5X8X9XqXwXwXjXjXjXjXzXlXzXjX0X3X:X7.y .                                   ",
"                              . . . L $.n.R.!.~.R.D.D.!.(.XXOX&X&X$X=X*X<X1X7X7X6X5X8X8X9X9XqXwXjXjXkXjXjXcXvXvXbXnXzX9X2X:X:.: .                               ",
"                            . . . y #.=.R.~.~./.].].].!._. XOX.X.X#X=X=X*X,X,X7X6X5X5X8X9X9XqXwXwXwXjXjXjXcXvXvXbXvXvXnXzX5X<X'.j .                             ",
"                          . . . t *.D.T.R.~.~./.].[.{.}.|.@XOX).).&X=X=X,X,X7X7X6X6X5X5X0X9X9XqXwXwXwXwXwXzXbXvXvXvXvXvXvXcXqX,X-X...                           ",
"                        . . . . t D.D.T.R.R.~.^.].[.{.|.|.XXOXOX&X$X%X=X*X,X,X7X7X6X5X5X8X9X9XqXqXqXwXqXqXqXlXbXvXvXvXvXvXvXnXkX,X&X...                         ",
"                      . . . . . y -.D.T.T.!.~.^./.[.{.}.|.XX@XOX&X$X%X%X*X,X,X7X7X7X5X5X5X0X0X9X9XqX9XqXqX0XqXcXvXvXvXvXvXvXvXvXzX,X#Xj .                       ",
"                      . ; t f f ; | D.D.R.!.~.^.].].{.{.}.XXoXOX+X&X%X%X*X*X,X,X7X7X6X4X5X5X8X0X9X0X9X0X0X0X8X0XlXvXvXvXvXvXvXvXbXzX,X).: .                     ",
"                    . = _ ' #.$.#.| D.D.!.!.^.^./.].[.{.}.XX@XoX+X+X$X%X%X*X,X,X<X7X7X7X4X4X5X8X8X8X8X5X8X5X5X4X5XzXnXvXvXvXvXvXvXvXwX+X;..                     ",
"                    . t _ ' #.$.*.-.D.D.D.D.!.^.^.].[.{.}.|.XX@X+X+X&X%X%X*X*X,X:X1X7X7X4X4X4X4X5X5X5X5X5X4X4X7X7X1X9XcXvXvXvXvXvXvXnX7X.Xt .                   ",
"                  . . t _ ' | $.$.*.D.D.D.^.D.^.^./.].{.{.}.|.@XoX+X+X$X%X%X*X=X;X=X7X7X7X7X7X7X4X4X4X4X4X4X7X7X1X<X<X1XkXcXvXvXvXvXvXwXoX;..                   ",
"                  . . f _ _ ' #.$.$.*.D.D.D.!.!.^.^./.[.{.}.|.|.oXOX+X&X$X$X%X;XQ.`.%X:X<X7X<X7X7X7X7X7X7X7X7X7X<X<X,X,X=X7XjXlXnXbXnX0X|.(.= .                 ",
"                  . o g _ _ ' } $.D.D.D.D.D.^.!.D.]./.].[.}.}.|.XXoXOX+X&X.X).).Q.Q.`.=X,X<X,X7X7X7X,X7X7X,X,X7X7X,X*X*X=X%X$X%X,X4X<X+XXX|._ .                 ",
"                . . . f _ _ ' ' | $.$.D.D.D.D.D.!.^.^.].[.[.}.|.|. X).(.Q.W.Q.Q.Q.Q.Q.-X*X,X*X<X,X,X,X,X7X,X*X,X*X*X*X%X%X$X$X$X+XoXoXXXXX}.$..                 ",
"                . . . ; g _ _ ' } #.D.$.D.D.D.D.D.^.^.].].].]./._.E.n.W.W.W.W.W.Q.Q.Q.).=X*X*X*X*X*X*X,X*X*X*X*X%X%X%X%X$X&X+X+X+XoXoXXX}.}.-.+                 ",
"                . . . o t _ _ _ ' } | D.;.D.D.D.!.!.!.^.^.!.!.!.E._.E.W.n.W.n.W.W.W.Q.Q.`.#X#X%X=X%X*X*X*X%X=X%X%X%X$X$X&X&XOXoX X X X}.}.=.= . .               ",
"                . o y f f _ _ ' ' ' } #.*.D.D.D.T.R.!.~.^.^.].[.{.{.[. X_.E.n.Q.W.W.W.W.W.W.Q.).`.).;X#X#X&X%X&X&X&X+XOX.X).(.E.E.E.R./.{.[ . . .               ",
"                . o f f h g g _ _ ' ' } | #.D.D.D.T.R.!.^.^.].].[.{.}.}.|. X(._.W.W.E.Q.)..X.X.X.X#X#X.X.X&X&X&X&X+XOX.XW.E.E.E.E.R./.[.].g . . .               ",
"              . . ; t f f g g _ _ ' ' } ' | #.*.D.D.R.R.!.~.^.^./.[.{.{.}.|.XX X(.(. XoX+X+X+X+X+X+X+X+X+X+X+XOXoXoXoXoX X X|.}.[.{.[.].$.' | f .               ",
"              . o ; 8 t f g g L _ _ ' ' ' } | | #.-.D.T.R.!.~.^././.].[.{.{.}.|.|.|. X(. XoXoXoX+X@X@X+XOXoXoXoXoXoXXXXX|.|.}.}.{.[.].^.!.^.^.| .               ",
"              . + ; ; y t f h g _ _ _ ' } } } } | | #.*.-.T.R.~.^.^./.].{.{.{.{.}.}.{.(._. XXXXXXXoXXXXXXXXXoX|.|.}.|.}.}.{.{.{.].].].^.^.~.R._ .               ",
"              . o ; ; ; 8 t s g g _ _ _ ' ' } } | | | | #.$.*.-.T.R.~.^././.[.{.{.{.}.}.}.}.}.|.|.}.|.|.|.|.}.}.}.}.}.{.{.{.].].]./.^.~.R.T.| + .               ",
"              . o = ; ; 8 8 8 s f g _ _ _ ' ' } } | | #.#.#.#.$.$.&.*.n.n.T._._.^./.[.[.[.{.{.{.}.}.}.}.}.}.}.{.{.{.[.]./././.~.R.T.D.*.&.$. .o .               ",
"              . o ; ; ; 8 8 8 8 t t j g _ _ ' ' } } | | | | #.#.%.$.&.&.*.*.*.n.=.n.T.T.R.R.R.~.~.~.~.~.~.~.~.~.!.R.R.T.n.=.n.*.*.&.$.$.$.#.#.; .               ",
"              . o = ; ; ; ; 8 8 y t t t s f h L ` ` [ } | | @.#.#.%.$.$.$.*.*.*.*.-.-.-.=.=.n.n.=.n.n.n.=.n.=.=.=.*.*.*.*.&.&.&.$.%.#.#.@.|  .h .               ",
"              . o = = ; ; ; 8 8 8 y y t y y s s f h g L L _ ` ` [  . .| @.| @.#.%.%.%.%.%.$.%.%.%.%.%.%.%.%.@.@.@.@.@.@. . .[ [ [ ' ` ` ` L L s .               ",
"              . o ; = ; = ; 8 8 ; ; ; = o = t s s s f h h h h L L L L L L ` ` ` ` { { { { [ [ [ [ [ [ [ { { { { { { { L L L L L L L L L L L h s .               ",
"              . . . . . o . . o o . . . . . o o $ o $ o $ $ = $ $ o = = = $ = = = = = = = = = = = = = = = = = = = = = = 8 = = 8 = = = = o $ $ o . .             ",
"          . . + X . . . . + + + o o o + . . . . . . . . . . . + O O - & & & & & & & O & & O O & & O O O + o O o O + o + + o + + o o + + + + . + . + .           ",
"        . + > > > - + - a i i d k d k l O . . . . . . . + - p X.O.O.O.O.<.>.>.>.,.,.,.>.>.<.<.O.O.O.O.o.X.X.X.X.E E E l z l l l k k d i u i u e a > + .         ",
"        . , > > e e e u p d d k l l z p . . . . O - u l W o.O.O.<.>.>.>.5.5.5.5.6.6.6.5.5.,.,.>.>.<.X.W o.O.X.X.X.X.E E E l l l l k k p p i i u u e , .         ",
"        X > > > e u u u p i d d d l i o . , p l z X.X.o.O.O.O.<.O.>.>.>.>.5.5.5.5.6.5.5.5.,.>.O.z k z O.O.o.X.X.X.X.+.E E E E l l k k k p p i u e w > + .       ",
"        . - > , > e w w a i i d d w o - i l E E E E E W X.X.X.o.o.O.O.O.<.>.>.>.>.>.>.>.<.W i > k O.O.o.X.X.W E E E E z z l k k d d d p i a w w w > , + .       ",
"        . & , , , , > > w w w w > - w i p d d d p d d E z z z z z E W W E W W W W W k e O # u z z z z z z z z k i p d d d d p p i i a a w w > > > , & .         ",
"        . O , - , , > > w w w w w i i i p d d d d d d E z z z z E E z z l k , O O O + , i z W z z z z z p u , o , d d d p p i i a a u > w w > > , - o .         ",
"        . . O O & & & & & - : , : > : > > > > w w w w w u u i u e i > + . . . . . . O i p p i i p > O + . . . . > w w > w > > : > , - - - & & & & & . .         ",
"          . . . . . . X @ @ X @ @ . . + + + + . + + X . X + . X . + * # < * * # * # # * < # * # # # # # @ @ @ @ @ @ @ @ + @ + @ X @ @ @ X . . . . . .           ",
"                  . X N B B V B S @ X 3 3 6 3 6 6 6 9 9 9 9 9 3 X C d.q.e.e.e.e.w.e.e.k.w.w.0.k.k.k.! F F F G D B B B B B B B B B B V B V X .                   ",
"                  . @ B D D D G G @ . % % 9 0 0 0 0 m 0 0 m 0 9 X Z i.f.f.f.f.f.f.y.y.y.w.F F S S S V S V N M M M 5 5 5 5 5 N B D D D D D @ .                   ",
"                  . @ B D D G G F # . % 9 0 x m H H H H H H H H + C i.i.f.f.f.f.f.f.f.F 4 X + % % 3 % . % % % 3 # X % % 3 # X * N D D D D * .                   ",
"                  . * D D D G F F @ # 0 9 9 9 0 H U U I T T Y U + C s.f.y.y.y.y.y.f.Q X # 2 3 9.m.m.9.# n m.m.m.K % 9.m.m.P # X X N D D D 4 .                   ",
"                  . 4 / ! 0.w.q.q.* + O 3 0 U T 1.1.1.3.Y Y Y I + Z s.G.L.L.L.L.L.J.6 # c b < P C.V.n < % M.C.M.3 # P C.m.3 v c X 4 ! ! ! r .                   ",
"                  . r u.i.g.j.c.H.> . 0 T 1.3.3.3.1.2.2.1.3.1.I O C s.P.gXgXgXgXgXuX# 1 b b c < M.9.1 c 2 q m.n 1 c < M.P < c b < * q.p.u.Z .                   ",
"                  . X A p.j.x.H.H.6 % I T 1.3.I U 0 U 2.3.3.4.T + Z i.P.hXgXgXgXgXyXO 2 b b b 2 % % 2 b b 1 3 1 c b 2 3 < c b b < O w.p.p.A .                   ",
"                  . + J p.j.x.H.H.e 9 Y Y 3.0 9 R R P % I l.b.3.# Z r.tXhXhXgXhXhXyXO 2 b b b c 2 v b b b c v c b b c v v b b b < * q.p.p.J .                   ",
"                  . r u.g.p.j.H.H.6 9 1.z.x 9 m.aXmXaXM., 3.Z.4.% C p.tXxXxXhXhXhXyX@ 2 b b b b b b b b b b b b b b b b b b b b < @ q.u.i.~ .                   ",
"                  X / p.a.a.a.G.H.6 x z.4.% 9.N.S.aXaXS.m H Z.b., C r.uXxXxXxXhXhXyXO 2 b b b b b b b b c b b b b b b b b b b b < * q.i.d.F .                   ",
"                  @ q.i.a.g.x.H.H.6 x l.4.% Y N.N.N.N.m.n x A.Z.% C r.tXxXxXxXhXxXyX# 2 b b b b b b b c c b b c c b b b b b b b < O t.i.q.~ X                   ",
"                . X A i.a.x.c.H.G.> x b.l.9 7 9.9.9.9.9.< T rXZ., Z i.tXxXxXxXhXhXyX# 1 b b b b b v < X X < c < X # 2 c b b b b < # w.d.w.^ X                   ",
"                . . Z i.i.p.a.H.G.r 6 z.Z.2.> 7 K K m < C Z.rXl.# Z i.tXxXxXhXhXhXyX# 2 b b b b 2 X . . . < c # . . . < c b b b 1 @ / 0./ Q @                   ",
"                . . ^ u.w.q.u.c.J.) + I l.b.3.H V 7 H 2.Z.rXA.H + ^ s.tXhXhXhXgXhXyXO 2 b b b 1 X . . . + < < < . . . . # c b b 1 @ / 0.0.Q @                   ",
"                . X ^ w./ d.g.H.G.x.* % I 3.4.1.z.Y z.l.Z.b.I O r u.u.uXhXgXgXgXgXyX# 1 b b v X P P . . . % 9.3 . . . R q < b b < # q.d.w.^ @                   ",
"                . . # ( w.d.x.x.G.J.( > % x I 2.2.2.2.3.2.x o r q.u.x.pXgXgXgXfXfXiX> # c b < q V.V.q . . R C.M.. . q C.M.# v v X r u.u.w.Q @                   ",
"                . . Z d.d.d.g.p.x.G.G.t.Z * @ @ @ @ & @ @ 4 A q.u.p.I.fXfXfXfXfXgXpX( o < 2 1 8.B.B.9.X m N.V.N.n X 8.B.N.n # @ @ / p.u.w.~ @                   ",
"                . * q.i.i.i.p.e.s.c.G.G.x.d.( / / ( / / ( d.i.i.x.I.fXfXfXfXfXfXfXdXx.( 4 . % n m n m + q n n n q O m n n m + 4 ^ p.i.i.u.^ +                   ",
"                . r p.i.i.i.d.w.t.s.H.J.J.G.H.c.x.H.H.H.G.G.G.I.dXfXsXfXsXfXsXsXsXsXG.j.u.( J J J J J J J J A A A A A A A A ( d.p.p.i.i.p.^ X                   ",
"                . * d.i.i.d.w.w.e.t.s.x.G.K.L.U.I.I.Y.iXiXdXdXdXY.pXsXsXsXsXsXsXsXsXiXH.j.j.j.j.a.a.a.a.a.a.a.p.p.p.p.p.p.p.i.i.u.u.p.u.u.C .                   ",
"                  X ( p.i.u.q.w.w.e.r.s.j.H.K.K.U.I.I.Y.Y.I.U.K.K.L.Y.pXdXpXpXpXdXpXpXY.K.H.c.x.x.x.x.j.j.a.a.p.p.p.u.u.i.u.u.i.p.u.p.d.Z . .                   ",
"                  . 4 w.d.u.u.u.u.u.u.a.x.G.G.K.K.U.U.I.Y.I.I.I.Y.Y.iXiXY.Y.Y.iXY.Y.Y.Y.I.I.L.K.K.J.G.G.H.x.x.h.i.i.i.i.p.u.i.i.i.u.w.r X .                     ",
"                    X C ! ! / 0.w.w.t.t.s.j.v.v.x.H.H.H.c.H.H.J.G.G.G.J.J.H.J.H.J.H.c.c.x.x.v.v.j.a.p.p.r.q.w.w.w.0.w.w.0.w.w./ / / Q * . .                     ",
"                    . X 5 Q Q Q ^ F / 0.w.w.w.e.e.r.r.s.h.h.h.h.v.h.v.h.h.v.g.v.h.h.t.s.s.r.s.r.t.w.w.0.0./ ! Q Q Q Q Q Q Q Q Q Q Q F 4 .                       ",
"                        . * M B G G G G F F F 0.~ / / / w.e.q.e.r.r.r.r.e.r.r.e.w.5 @ r ^ 0.0.0./ / / Q F F F F G ~ F F F F G G G B 5 . .                       ",
"                          . . X < 4 5 M M M M 5 # X @ # 4 S S S A S S 5 4 4 4 4 @ . . . . * 4 4 N N N M N M M M M M M M M M 5 5 4 @ .                           ",
"                                . . . . . . . . . . . . . . X . . . . . . . . . . . . . . . . . . . . X X . . X . . X . X . . . .                               "
};
