/* XPM */
static char *skeleton_00_idle_03_resized[] = {
/* columns rows colors chars-per-pixel */
"80 80 237 2 ",
"   c None",
".  c #010101",
"X  c #0A0405",
"o  c #010C0B",
"O  c #0A0C0D",
"+  c #090707",
"@  c #14040B",
"#  c #170709",
"$  c #1A130B",
"%  c #0B0F10",
"&  c #1B0911",
"*  c #0C1214",
"=  c #011D1B",
"-  c #061717",
";  c #111416",
":  c #141A1D",
">  c #141718",
",  c #00100F",
"<  c #2A0106",
"1  c #230406",
"2  c #350108",
"3  c #241508",
"4  c #230915",
"5  c #280B18",
"6  c #33091A",
"7  c #3A091D",
"8  c #261717",
"9  c #00211E",
"0  c #2D2218",
"q  c #37291C",
"w  c #32250B",
"e  c #171E21",
"r  c #0D1F21",
"t  c #391427",
"y  c #3B0D21",
"u  c #012C2B",
"i  c #012623",
"p  c #192125",
"a  c #1B262A",
"s  c #1D292E",
"d  c #162226",
"f  c #00322D",
"g  c #1E2C31",
"h  c #013433",
"j  c #013C3B",
"k  c #003A35",
"l  c #143234",
"z  c #212E33",
"x  c #25343A",
"c  c #28353B",
"v  c #352E26",
"b  c #49020C",
"n  c #51030D",
"m  c #481E0B",
"M  c #4D3312",
"N  c #440D23",
"B  c #5E0E2E",
"V  c #540E29",
"C  c #43172D",
"Z  c #47142B",
"A  c #591937",
"S  c #50152F",
"D  c #620F30",
"F  c #671537",
"G  c #681235",
"H  c #483826",
"J  c #4F3036",
"K  c #6D2D21",
"L  c #00433C",
"P  c #6F5019",
"I  c #574634",
"U  c #58452F",
"Y  c #655138",
"T  c #675414",
"R  c #2D3B42",
"E  c #243F42",
"W  c #313E44",
"Q  c #113E40",
"!  c #731C42",
"~  c #7A1E47",
"^  c #6D1E41",
"/  c #662344",
"(  c #7A244B",
")  c #7A2A52",
"_  c #5E2140",
"`  c #014443",
"'  c #004C44",
"]  c #014B4B",
"[  c #00524C",
"{  c #015453",
"}  c #015C5B",
"|  c #015955",
" . c #165355",
".. c #35434A",
"X. c #37454C",
"o. c #3D4B53",
"O. c #32595E",
"+. c #02625D",
"@. c #016463",
"#. c #016C6B",
"$. c #006965",
"%. c #007374",
"&. c #007B7B",
"*. c #017877",
"=. c #047070",
"-. c #346D72",
";. c #414F57",
":. c #44525B",
">. c #48565F",
",. c #6A5743",
"<. c #735D44",
"1. c #7A644B",
"2. c #7E6952",
"3. c #4C5A62",
"4. c #505E67",
"5. c #936C24",
"6. c #97641D",
"7. c #83244E",
"8. c #8C2D5A",
"9. c #872954",
"0. c #942B5A",
"q. c #92315D",
"w. c #8A325B",
"e. c #A32E5F",
"r. c #953263",
"t. c #993366",
"y. c #9B3569",
"u. c #9E396C",
"i. c #9B3866",
"p. c #913261",
"a. c #A52E60",
"s. c #A33D6D",
"d. c #A43464",
"f. c #A33E71",
"g. c #811E47",
"h. c #877158",
"j. c #AA4576",
"k. c #B1497A",
"l. c #A7406E",
"z. c #927B62",
"x. c #C37E2B",
"c. c #01837C",
"v. c #B88B2E",
"b. c #B1951D",
"n. c #C6942A",
"m. c #D6B422",
"M. c #E3C51F",
"N. c #99836A",
"B. c #A38B73",
"V. c #D8B14B",
"C. c #017E80",
"Z. c #367E83",
"A. c #B95486",
"S. c #B34E81",
"D. c #C15B8E",
"F. c #C45E91",
"G. c #CB6597",
"H. c #D36A9D",
"J. c #D4779C",
"K. c #C5668D",
"L. c #DB74A7",
"P. c #D46EA1",
"I. c #E37BAE",
"U. c #018384",
"Y. c #018B8C",
"T. c #088B86",
"R. c #128F88",
"E. c #08918D",
"W. c #17918C",
"Q. c #008E91",
"!. c #009394",
"~. c #009699",
"^. c #009A9D",
"/. c #0C9B9A",
"(. c #199997",
"). c #269997",
"_. c #009EA1",
"`. c #01A2A5",
"'. c #01A6A9",
"]. c #04A9AC",
"[. c #0AABAE",
"{. c #0BA4A5",
"}. c #17A6A8",
"|. c #0EACB0",
" X c #06ADB0",
".X c #14AEB2",
"XX c #19AFB3",
"oX c #1CB1B5",
"OX c #13B0B4",
"+X c #24A8A9",
"@X c #24AEB1",
"#X c #25B3B8",
"$X c #2CB5BB",
"%X c #25B2B6",
"&X c #35B8BE",
"*X c #35B6BC",
"=X c #37A8AA",
"-X c #2AA0A0",
";X c #4EAEB4",
":X c #4D9197",
">X c #3DBAC1",
",X c #44BDC3",
"<X c #4BBFC6",
"1X c #50BDC3",
"2X c #65BEC5",
"3X c #53C1C9",
"4X c #5BC3CC",
"5X c #55C0C7",
"6X c #4CC0C6",
"7X c #62C6CE",
"8X c #64C9CD",
"9X c #6CC9D2",
"0X c #67C7D0",
"qX c #74CBD5",
"wX c #7BCED8",
"eX c #7CD1D5",
"rX c #B59D84",
"tX c #D0829D",
"yX c #D28CA5",
"uX c #EA84B6",
"iX c #F08EBD",
"pX c #F3A3BF",
"aX c #EFDF9D",
"sX c #FD98C9",
"dX c #F48DC0",
"fX c #FFA7CB",
"gX c #FFB3CC",
"hX c #FFBBCC",
"jX c #87D2DB",
"kX c #85D1DA",
"lX c #B3E4E7",
"zX c #9BDAE1",
"xX c #FFC5CC",
"cX c #FFFFFF",
"vX c #F6FCFC",
"bX c #EAF7F5",
"nX c #D5F0F2",
/* pixels */
"                                                                                                                                                                ",
"                                                                                                                                                                ",
"                                                                                                                                                                ",
"                                                                                                                                                                ",
"                                                                                                                                                                ",
"                                                                                                                                                                ",
"                                                                                                                                                                ",
"                                                                                                                                                                ",
"                                                                                                                                                                ",
"                                                                                                                                                                ",
"                                                                                                                                                                ",
"                                                                                                                                                                ",
"                                                          . . . . o + * - - - i d : r 9 > % % + . . . .                                                         ",
"                                                . . o , 9 h `  .+.=.W.-X=X=X;X=X=X;X;X;X;X;X:X:X:X-.O.E a & X .                                                 ",
"                                          . . - f [ @.*.U.T.E.W.).%X$X+X@X*X;X-X-X;X;X5X8X9XqXqXwXwXwXqX2X;X:XO.l O . .                                         ",
"                                      . o u [ $.*.c.c.T.T.E.(.XX#X$X$X).).).-X-X=X-X=X;X;X2XqXqXwXwXwXkXwXqX9X9X7X:X-.d + .                                     ",
"                                  . o h } %.c.c.C.C.U._.|.}..XoX%X$X$X$X*X*X,X<X1X3X4X7X0X9XqXwXwXkXkXkXkXzXlXlXzXwX7X;X).l . .                                 ",
"                              . . . ' #.U.Y.!.!.Q.C.U.Y./.}.XXoX%X$X$X>X*X,X<X<X3X3X4X0X0X9XqXwXkXkXjXkXjXnXcXcXcXbXlXwX2X;X-.r .                               ",
"                            . . . u #.C.Y.Q.!.^._._._.!.!.}..X}.(.@X$X>X,X,X,X<X3X4X4X7X0X9XqXqXwXkXkXkXkXnXcXcXcXcXcXbXlX0X,X=XQ .                             ",
"                          . . . u *.C.U.Y.Q.!.^.^.'.].].[..XXX(.(.%X$X*X*X>X,X,X3X3X4X7X0X9XqXqXqXkXwXwXwXzXvXcXcXcXcXcXcXnXwX>X=X .o                           ",
"                        . . . . u C.C.U.Y.Q.Q.^._.'.'.].|.|.XXoX%X$X$X>X>X>X>X,X<X3X4X7X0X0X9XqXqXqXqXqXqXqXlXcXcXcXcXcXcXcXvXzX>X%X ..                         ",
"                      . . . . . 9 C.C.U.Y.Y.Q.^.^.`.'.'.[.|.|.oXoX$X$X$X>X>X>X>X<X3X3X4X4X0X0X9X9XqX9XqX9X9X9XlXcXcXcXcXcXcXcXcXlX>X@XQ .                       ",
"                      . i h j j 9 } C.C.U.Q.Q.^.^.`.'.].].|.|.oXoX#X#X$X$X>X>X,X<X<X<X4X4X4X7X0X0X0X0X0X0X0X7X7XlXvXcXcXcXcXcXcXcXlX>X).= .                     ",
"                    . - ` ] @.=.@.@.C.C.U.Y.Q.!.~.^.'.].].[.|.XXoXoX#X$X>X>X>X,X,X<X<X<X3X4X4X4X7X7X7X7X2X2X4X4X4XjXbXcXcXcXcXcXcXcXjX%X=.o                     ",
"                    . u ` ] @.#.%.C.C.C.C.~.~.~.^._.`.'.].[.|.OXXXoX#X$X$X>X>X>X;X,X6X6X6X3X3X4X4X4X4X4X4X4X5X5X6X<X0XlXcXcXcXcXcXcXbX6X}.u .                   ",
"                  . . u ` ] { #.=.%.%.C.C.~.C.^.~.^._.`.'.].[.|..XoXoX#X$X$X$X@X-X=X,X,X6X6X6X6X3X3X3X5X6X3X3X6X<X,X,X<XeXnXvXcXcXcXcXkXXX=..                   ",
"                  . o h ` ` ] @.#.=.%.C.C.C.~.C.C.~._.`.'.].].|..XXXoX%X$X%X$X-X).).*X;X,X6X6X6X6X<X6X<X6X<X6X,X,X,X>X&X&X>X9XlXnXbXbX7XOX/.= .                 ",
"                  . o h ` ` ] } #.=.=.C.C.C.C.~.^.~.^._.'.].].[.|..XOXXX@X}.(.W.W.W.(.*X>X,X>X,X<X,X<X,X,X,X,X,X,X>X&X&X&X$X%X%X&X,X$X.X|.[.] .                 ",
"                . . . h ` ` ` ] @.#.C.C.C.C.C.C.C.`.~._._.'.].].[.{.W.E.R.R.R.R.W.W.W.-X&X>X*X,X>X>X>X>X,X>X&X>X&X&X&X&X$X#X#X#XoX.X.X|. X X=..                 ",
"                . . . - j ` ` ] { @.#.=.C.C.C.C.C.~.~.^.^._.~.~.Y.T.T.R.T.R.R.R.R.R.W.).$X&X>X*X>X>X>X>X&X&X&X&X&X$X$X#X%X#XoXoXXX.X.X[.[.'.=.o                 ",
"                . . o o i j ` ] ] { @.C.#.C.C.C.C.~.~.^.~.~.C.~.Q.E.T.T.T.T.R.R.R.R.W.W.).+X@X$X$X&X$X&X&X$X&X$X$X#X%X#X#XoXoX}.{.{.{.'.].=., . .               ",
"                . o u f h ` ` ` ] ] { } #.C.C.C.C.^.C.^.~.^.].'.'.'.'.{./.R.T.T.R.R.R.R.R.R.W.W.W.(.).}.+X@X%X#X%X%X%XXX}.(.E.T.T.T.T.^.'.] . . .               ",
"              . . , h h j j L ` ] ] ] { } #.*.C.C.Q.Y.Q.Q.~.~._.`.'.].].[.[./.E.T.T.R.W.}.}.XX+X@XXX+X@X@XoX%XoXoXoXoX}.E.E.E.E.Q.Y.^.'.^.k . . .               ",
"              . . - u h h j j ` ` ] ] ] { { @.=.C.C.C.Q.Q.!.~._._._.`.'.].].[.[./.{.}..XoXoXoXoXoXoXoXoXoXoXXXoXoXXX.X|.|.{.[.{.'.'.'.^.#.} @.j .               ",
"              . o = 9 i h j j j ` ` ] ] ] { { } @.=.C.C.Y.Q.!.~.~.^.`.`.'.'.].].[. X{././.|.OX.X.XoX.XoXXX.X.X|.|.|.|.|.[.].].'.`._._.^.Q.^.!.} .               ",
"              . o = 9 9 i h j j ` ` ] ] ] { { } } } @.#.*.C.Y.Q.~.~.^._.`.`.'.'.].[.{.^././.[.|.[.|.|.[.|.|.|.|.[.[.].].].'.'.'._._._.^.^.Q.Y.j .               ",
"              . o = = = 9 i f k j j ` ] ] ] { { } } @.@.@.#.#.%.c.T.Q.~.^._.`.`.'.].].].].].].].[.[.].[.].[. X].].].].'.'.`.`._._.~.!.Q.Y.C.| o .               ",
"              . o , = = 9 9 9 u h j j ` ] ] ] { { { } } +.@.$.#.#.=.%.*.c.U.Y.!.!.^.^.`.`.`.].].].].].].].].'.'.'.`.`._.^.^.!.Q.Q.C.&.%.#.#.} o .               ",
"              . + = = = 9 9 9 i i u h j j ` ] ] { { { } } +.@.$.$.#.#.#.%.%.%.*.*.c.c.U.U.Y.T.Y.Q.Q.Q.Q.Q.Q.Q.Q.T.U.c.U.&.c.*.*.=.=.#.#.$.$.+.= .               ",
"              . o , - - 9 9 9 9 i i i u u h j j ` ] ] { | } } +.@.$.#.#.#.=.%.%.*.*.*.*.&.*.c.c.&.c.&.&.c.*.*.*.&.*.*.%.%.%.$.#.$.$.@.+.} | | k .               ",
"              . o , - = = = 9 9 i i i u i i u f f k k k L ` ` [ [ [ | | +.} +.+.$.+.$.$.$.$.$.$.$.$.$.+.$.+.+.+.+.+.+.| [ | | [ [ ' ' L L L L f o               ",
"              . o , , - - - = 9 = - = , . , u f f f f k k k k k k L L L L ` L L ' ' ' ' ' L [ ' L [ L [ ' ' ' ' ' L ' L L L L L L L L L k L k u .               ",
"              . . . o . . . + . . . . . . . . o o + o o o o o o o o o o o o o o , , , , , , o o = , o o , , , , , , , , , , , , o o o o o + o o . .             ",
"          . o + + . . . + o o o O O O O . . . . . . . . . . . O * ; ; * ; ; ; ; ; ; ; ; ; ; > ; ; ; * * * * % % % % O O O O O O O O O O O O + + o + .           ",
"        . O : : : > + > d s g g g g x x % . . . . . . + O > v ..o.;.;.:.:.:.>.>.>.>.>.>.>.:.;.;.o.o.o.X.X.X.....R E R R c c c x z z z g s p p p : : % .         ",
"        . ; : : e e p a a s g g x x c a o . . + * - a c ..X.o.;.;.;.:.>.>.3.3.4.4.4.4.>.3.>.>.>.:.o.W W X.X.X.X.......R E R x c x x z g z s p p e e > .         ",
"        X > : : : p p a s s g g x x d . o : g c ........X.o.;.;.;.:.:.:.>.>.3.3.4.4.>.4.>.>.;.X.v z W o...............R c E E x z z z z s a a p e e : + .       ",
"        . $ : : : e e e e a d s s : + * s x c R c R R R ......X.X.X.o.o.o.;.;.:.:.:.:.;.;.c : > x ..X.X.........c c c c c x z z z z s s p p a e : : > . .       ",
"        . O ; * > > : : r r e e - ; d a s s g g g g x z x x c c c W W W W W W c c c z > O ; s c E c R c c c z s p s z g s s a a a d e e r e : ; ; r * .         ",
"        . O ; ; ; > ; : : e e e d a s a s s g g x x z x x c c c c c c z z s ; + O + + > s c W c R c c z a : * + > z g g g s a a a e d e e e : : ; ; + .         ",
"        . . O O O O % O % % * * ; ; ; * - ; r ; : : e e e e e e p p * . . . . . . . O p p p e p p ; + + . . . . ; : : ; : ; - ; ; * * % % * O % O O . .         ",
"          . . . . . . @ @ @ @ @ @ . . + + X X X X X X X + X X X . @ 5 4 4 4 4 4 4 4 4 4 4 4 4 4 & 4 # # & & # # @ @ @ @ @ @ @ @ @ @ @ @ @ . . . . . .           ",
"                    X V B B B D B @ + $ $ 0 8 w 8 0 0 w 0 0 8 8 X C r.q.0.e.0.e.0.0.0.0.0.7.7.7.7.g.~ F F g.F G D D B B B B B B B B B B V @ .                   ",
"                  . X B D D D G G @ X $ $ 8 w q q q q H H q M q + C t.a.a.a.a.a.a.e.e.e.0.F D B S V S Z V N N 7 N 7 7 7 7 7 N B D D D D B @ .                   ",
"                  . @ B D D D G F # X $ q q q H H H H M H H H H O C t.t.a.a.a.a.a.a.e.G 1 X $ 3 3 3 3 X $ 1 3 3 $ X 3 3 3 $ X @ V D D D B & .                   ",
"                  . @ D D G G G F # $ 0 0 0 0 q H U Y Y Y U Y U + C t.a.a.a.a.a.a.a.F X # 2 3 5.n.b.6.# M n.n.v.M $ 5.n.v.K # @ X N D D B < .                   ",
"                  . 6 ) ( 7.8.q.8.& o X 8 H U Y <.Y Y 1.Y Y ,.I # C t.A.J.J.J.J.J.K.5 # n n < M M.M.M 1 # b.M.b.3 1 T M.b.3 b b X 5 ~ ( 7.t .                   ",
"                  . t r.y.s.f.S.S.5 . v Y Y 1.1.1.1.1.1.1.1.<.I O C r.J.hXgXgXfXgXyX& < n n b 1 5.5.# b 2 w b.M 2 b 3 5.T 1 n b 1 @ 8.y.y.S .                   ",
"                  . X A y.f.j.S.S.e $ Y Y <.1.I v q v ,.1.2.2.Y $ Z i.J.gXgXgXgXgXyXO 2 n n n 2 $ $ b n b < 3 1 b n 2 3 1 b n n < @ w.t.y.A .                   ",
"                  . . _ y.f.j.S.S.8 0 Y <.1.0 w T b.T $ I h.z.2.O C i.J.hXhXhXgXhXyX# < n n n n b b n n n b b n n n n b b n n n & @ w.t.y._ .                   ",
"                  . 5 p.u.y.s.A.S.e 0 ,.1.q m n.aXbXaXv.$ <.N.h.; Z t.tXxXxXhXhXhXyX+ 2 n n n n b n n n b n n n n n n n n n n n < @ w.t.t./ .                   ",
"                  + ) t.u.u.u.S.A.5 q h.2.$ 6.n.V.aXaXV.M H B.z.$ Z t.tXxXxXxXhXxXyXO 2 n n n n n b 2 # # 2 n < # 1 b n n n n n < % 8.t.r.A X                   ",
"                  @ 8.t.u.f.f.S.S.8 v h.2.$ 6.x.n.n.n.x.M v B.N.> Z i.tXxXxXxXhXhXyX@ 2 n n n n b # . . . # b # . . X < b n n n < @ 8.y.p.F X                   ",
"                . + / t.u.f.k.A.A.8 v z.h.q b g.x.6.6.P $ <.B.B.> Z q.tXxXxXxXhXhXyXO 2 n n n 2 . . . . X < 1 < . . . . 1 b n n < % 9.r.9.^ X                   ",
"                . . C t.u.u.f.S.A.v : h.N.1.0 $ m K m $ H B.rXh.+ S u.tXxXxXhXhXhXyX; 2 n n b X M M . . . $ T $ . . . M 3 1 n n 1 # ( 9.7.^ X                   ",
"                . . / y.8.8.r.k.A./ X J 2.N.1.I q 0 H ,.B.rXN.H X ) t.J.hXhXhXgXgXyX4 # b n < 3 m.b.$ . . T M.T . . w m.b.# b n X 5 9.) 7.! @                   ",
"                . X ( p.7.8.u.S.A.k.8 $ I 1.2.2.1.1.2.z.z.h.I o t r.t.yXhXgXgXgXhXiX/ . < b & 5.M.M.5.. w n.M.m.q . 5.M.b.M < # X / r.9.9.! @                   ",
"                . . 6 ) 9.r.f.S.A.D.p.& O 0 J I I Y Y ,.,.0 O t p.r.j.fXgXgXgXgXgXiXj.J @ . $ P T P K + m P P P M $ K P P M X @ F t.t.r.9.^ @                   ",
"                . . 5 ) p.8.f.s.S.D.A.u.A : @ @ * & @ @ @ t _ p.t.d.L.gXgXgXfXfXfXfXA.l.w._ t C C t C t C C t C t C t t t t _ 9.t.t.t.p.9.! X                   ",
"                . @ ) t.r.r.u.0.f.A.K.A.j.t.8.) 9.) ) 9.9.p.t.y.k.yXfXfXfXfXfXfXfXsXuXk.f.f.f.u.f.f.f.u.s.d.u.u.y.y.y.y.y.t.t.t.t.t.t.t.8.^ X                   ",
"                . 5 r.t.t.t.r.8.w.l.A.D.G.F.A.S.S.A.A.A.F.A.G.L.sXfXfXfXfXfXfXsXsXfXsXuXG.S.j.j.S.f.j.f.f.f.u.u.u.t.t.t.y.t.r.t.t.t.t.t.t.( +                   ",
"                . 5 r.t.t.r.8.9.w.r.j.A.F.G.H.L.L.uXuXdXdXsXsXsXsXsXsXsXsXsXsXsXsXsXsXsXdXuXI.L.P.H.G.F.A.S.S.S.f.u.t.t.t.t.t.t.r.t.t.t.y./ .                   ",
"                . @ w.t.t.r.7.9.9.q.p.s.k.D.H.H.L.L.I.I.dXI.I.I.H.I.iXsXsXsXiXsXsXdXiXiXuXuXI.L.P.H.G.A.A.A.k.j.s.y.t.t.t.t.t.t.t.t.t.y.) & .                   ",
"                  . A r.t.t.r.8.w.w.q.p.s.S.K.G.P.P.L.I.L.P.H.H.H.H.I.iXuXI.iXiXiXiXuXuXI.L.L.P.H.G.G.A.A.k.j.f.y.t.t.t.t.t.t.t.t.t.p./ 5 . .                   ",
"                  . & ! 9.8.0.r.r.r.t.s.k.S.A.D.F.G.G.P.P.L.P.L.L.I.L.I.L.P.L.L.L.P.H.H.H.G.K.D.A.A.A.S.j.f.s.t.r.r.r.r.t.r.r.r.p.8.) @ . .                     ",
"                    . 5 F ~ ~ ~ ~ 7.7.9.8.p.q.i.y.u.f.f.f.f.k.f.l.k.k.k.k.k.k.k.f.f.l.l.s.u.d.i.t.p.8.9.9.7.( ( ~ ~ ~ ~ ~ ~ ~ ( ~ ~ ! 5 . .                     ",
"                      . 5 A F ! F ! ! ! ( 7.7.8.w.q.q.i.d.d.i.d.s.s.l.l.l.l.s.s.s.q./ w.i.q.q.q.8.8.8.7.7.~ ! ! ~ ! ! ! ! ! ! F ! ! F & .                       ",
"                        . X 4 N B B B D D F F F S S F F ( 7.7.9.9.9.7.7.7.( 7.( F 5 . # C ^ F ( ! ! F F G D F D F D D D F D B B V 7 & .                         ",
"                            . . @ # 5 5 6 6 6 & X . . . # y N N N N 7 & X # @ X . . . . . X X # 6 6 6 6 6 6 6 6 6 6 6 6 6 6 5 4 @ . .                           ",
"                                  . . . . . . . . . . . . . . . . . . . . . . . . . . . . . . . . . . . . . . . . . . . . . . .                                 "
};
