/* XPM */
static char *skeleton_00_idle_15_resized[] = {
/* columns rows colors chars-per-pixel */
"80 80 227 2 ",
"   c None",
".  c #010101",
"X  c #0A0204",
"o  c #010B0A",
"O  c #0A0B0B",
"+  c #0B0807",
"@  c #13050B",
"#  c #160609",
"$  c #1A130C",
"%  c #011514",
"&  c #0E1214",
"*  c #001C1A",
"=  c #051918",
"-  c #111516",
";  c #141A1D",
":  c #151718",
">  c #140C12",
",  c #2A0106",
"<  c #240506",
"1  c #380109",
"2  c #25170C",
"3  c #270814",
"4  c #360B1C",
"5  c #241816",
"6  c #331612",
"7  c #00221E",
"8  c #382718",
"9  c #302511",
"0  c #161E21",
"q  c #361325",
"w  c #002522",
"e  c #002A26",
"r  c #002D2A",
"t  c #0A2324",
"y  c #1A2225",
"u  c #1B252A",
"i  c #1D292E",
"p  c #162226",
"a  c #00312D",
"s  c #1F2C31",
"d  c #013534",
"f  c #013C3B",
"g  c #013A36",
"h  c #1A383A",
"j  c #212D33",
"k  c #243136",
"l  c #2A353B",
"z  c #28363C",
"x  c #2B2C2A",
"c  c #48020B",
"v  c #52030D",
"b  c #4B3211",
"n  c #470B23",
"m  c #5C0E2D",
"M  c #46162D",
"N  c #59112E",
"B  c #491831",
"V  c #591935",
"C  c #630F31",
"Z  c #681638",
"A  c #6C1639",
"S  c #473325",
"D  c #6B203F",
"F  c #00433D",
"G  c #71511A",
"H  c #594834",
"J  c #53422F",
"K  c #69543C",
"L  c #634F36",
"P  c #635212",
"I  c #2D3B42",
"U  c #323D44",
"Y  c #741C43",
"T  c #791D46",
"R  c #6E1E42",
"E  c #6B2346",
"W  c #76244B",
"Q  c #782A52",
"!  c #5E2642",
"~  c #014444",
"^  c #014B4B",
"/  c #014B44",
"(  c #00534C",
")  c #015453",
"_  c #005952",
"`  c #015C5B",
"'  c #095253",
"]  c #145455",
"[  c #35434A",
"{  c #37434A",
"}  c #3C4B52",
"|  c #2A5155",
" . c #01625E",
".. c #016463",
"X. c #006C6B",
"o. c #016867",
"O. c #007473",
"+. c #007B7C",
"@. c #007977",
"#. c #067170",
"$. c #2E6E72",
"%. c #45545C",
"&. c #404E56",
"*. c #6B5742",
"=. c #735D44",
"-. c #796349",
";. c #7E6952",
":. c #4C5A63",
">. c #515F68",
",. c #883C16",
"<. c #8A701A",
"1. c #B46F25",
"2. c #985E21",
"3. c #82244D",
"4. c #8D2D5B",
"5. c #862A56",
"6. c #922D5C",
"7. c #93315E",
"8. c #85325C",
"9. c #A42E5F",
"0. c #953263",
"q. c #993366",
"w. c #9B3569",
"e. c #9E3A6C",
"r. c #9C3966",
"t. c #913060",
"y. c #A62E60",
"u. c #A23C6D",
"i. c #A33868",
"p. c #A33D71",
"a. c #821F49",
"s. c #887159",
"d. c #AA4576",
"f. c #B24A7A",
"g. c #AC4472",
"h. c #917B63",
"j. c #8E4369",
"k. c #02827D",
"l. c #AD921C",
"z. c #C8942D",
"x. c #D2A72B",
"c. c #D6B720",
"v. c #E4C61F",
"b. c #A89076",
"n. c #99836B",
"m. c #D1B059",
"M. c #E0C967",
"N. c #017E80",
"B. c #B44F81",
"V. c #B95587",
"C. c #C25C8F",
"Z. c #C45E90",
"A. c #CA6597",
"S. c #D36B9D",
"D. c #CF7A9C",
"F. c #D56EA1",
"G. c #DB74A7",
"H. c #E37CAF",
"J. c #018383",
"K. c #008A8C",
"L. c #088A85",
"P. c #128E88",
"I. c #07928E",
"U. c #19918C",
"Y. c #008F91",
"T. c #009395",
"R. c #009799",
"E. c #019B9D",
"W. c #0B9997",
"Q. c #189997",
"!. c #2A9494",
"~. c #009EA1",
"^. c #01A2A5",
"/. c #00A6A9",
"(. c #04A9AC",
"). c #0AABAE",
"_. c #0BA4A5",
"`. c #17A7A8",
"'. c #0CACB0",
"]. c #13AEB2",
"[. c #19AFB3",
"{. c #1CB1B5",
"}. c #27A7A7",
"|. c #2CB5BB",
" X c #24B2B7",
".X c #32B6BC",
"XX c #35B8BE",
"oX c #3AB9BF",
"OX c #31ACAE",
"+X c #1AA09F",
"@X c #4EB4B9",
"#X c #5698A0",
"$X c #3CBAC1",
"%X c #43BCC3",
"&X c #4BBEC5",
"*X c #5ABBC0",
"=X c #6EBFC8",
"-X c #4EC0C7",
";X c #54C1C9",
":X c #5BC4CC",
">X c #63C6CE",
",X c #68C7CE",
"<X c #6CC9D2",
"1X c #65C8D1",
"2X c #73CCD4",
"3X c #7CCED8",
"4X c #7BCED6",
"5X c #CF8CA3",
"6X c #EB84B7",
"7X c #EF90BB",
"8X c #D0839D",
"9X c #FC98C8",
"0X c #F58EC1",
"qX c #FFA3CB",
"wX c #FCA8C8",
"eX c #FFB3CC",
"rX c #FFBBCC",
"tX c #86D2DA",
"yX c #81CFD9",
"uX c #B1E3E6",
"iX c #FFC4CC",
"pX c #CFEEF0",
"aX c #FFFFFF",
"sX c #F4FBFC",
"dX c #E8F7F8",
"fX c #FAF5DD",
"gX c #C9B58C",
/* pixels */
"                                                                                                                                                                ",
"                                                                                                                                                                ",
"                                                                                                                                                                ",
"                                                                                                                                                                ",
"                                                                                                                                                                ",
"                                                                                                                                                                ",
"                                                                                                                                                                ",
"                                                                                                                                                                ",
"                                                                                                                                                                ",
"                                                                                                                                                                ",
"                                                                                                                                                                ",
"                                                                . . . . . . . . . . . . . . . . .                                                               ",
"                                                    . . + o * * r f ] ] $.$.$.$.$.$.$.$.$.$.| | h u - o X . .                                                   ",
"                                            . . o * d ^ ..#.k.P.P.}.|..X.X.X@XOXOX;X;X:X,X<X,X2X2X=X=X#X!.%.z ; + .                                             ",
"                                        . o 7 F  .k.k.L.L.L.W.`.}. X XQ.Q.!.}.!.!.}.#X@X@X=X2X2X4X3X3XtXyX4X<X@X#X| ; X .                                       ",
"                                    . % g  .X.k.k.k.L.E.W.W.`.{. X|..XOX}.OX@X@X&X@X%X*X*X,X2X4X3XyXyXtXyXtXtXtX2X:X@X!.h o .                                   ",
"                                . . r ..@.J.K.K.N.N.N.T._.].[.{. X|. X$X$X%X&X&X&X:X:X>X<X2X2X4X3XtXtXtXtXpXsXsXdXuX3X:X&X!.s . .                               ",
"                              . . o ` @.K.Y.T.E.E.T.T.K.L.`.[.[.[.{.|.$X$X$X&X&X;X:X:X>X<X<X2X4XyXtXtXtXtXdXaXaXaXaXdXpX4X&XoX$.% .                             ",
"                          . . . * ` +.J.K.Y.T.E.~./.(.^._.].].Q.U. X$X|.$X$X%X&X&X:X:X>X>X<X2X4X3X3XyX3X3XuXaXaXaXaXaXaXdXuX*X$X!.t .                           ",
"                          . . . d +.N.J.K.Y.T.R.~.^./.(.).].[.`.}. X|.$X$X$X%X&X&X;X:X>X>X<X<X2X3X3X3X3X2XyXpXaXaXaXaXaXsXaXpX>X$X!.t .                         ",
"                        . . . . e N.N.J.K.K.T.R.~.^./.(.).'.[.[.{. X|.$X|.$X$X&X&X;X:X:X>X,X,X<X<X<X2X2X2X1XyXdXaXaXaXaXaXaXaXdX2XXX!.0 .                       ",
"                      . o * % % % o.N.N.K.K.T.R.R.^./.(.).).].[.{.|.|.|.$X$X$X%X&X;X;X;X:X:X1X1X<X<X<X<X<X1X1XyXpXaXaXaXaXaXaXaXdX<X X#.o                       ",
"                    . o f ^ ` o.^ ) N.N.K.K.T.T.R.^.^.(.(.'.].[.{. X X|.|.$X$X%X&X&X&X;X:X:X:X:X>X1X1X1X>X1X:X:X2XpXsXaXaXaXaXaXaXdX>X{.^ .                     ",
"                    . w ~ ^ ..X.O.O.N.N.J.K.K.T.R.~.^.(.(.).'.].{.{.{.|.|.$X$X$X$X&X&X;X;X;X:X:X*X>X:X:X*X:X&X:X-X:XuXdXaXaXaXaXaXaXpX.XQ.= .                   ",
"                  . . r ~ ^ ` o.#.O.N.N.N.N.E.R.R.~.~./.(.(.'.].[.{. X|.|.|.$X.XOX@X&X-X-X-X-X-X:X;X;X;X;X-X-X-X&X&X%X<XuXsXaXaXaXaXaX2X].' .                   ",
"                  . . d ~ ~ ' o.#.O.O.N.N.R.N.~.R.R.~.^./.(.).'.].[.{. X X|.$X}.U.}.@X$X$X-X-X-X-X-X-X-X-X-X-X-X%X%X%X$X%X2XuXdXaXaXaX4X'.P.o                   ",
"                  . o d ~ ^ ^ ` X.X.O.N.N.N.N.R.N.R.~.~./.(.(.).'.].{.{. X}.`.Q.U.!.}.oX$X-X$X-X-X-X-X-X-X-X%X%X%X$X$XXXXX|.XX-X2XtX4X|.'.).d .                 ",
"                . . o d f ~ ^ ) o.X.X.N.N.N.N.N.R.R.R.~.^./.(.).'.'._.+X+XU.U.U.U.U.U.OX$X$X$X%X$X$X$X%X$X$X@XoXoXoXXX.X|.|. X X{.{.].].).'.` .                 ",
"                . . . w f ~ ~ ^ ' X.N.X.N.N.N.N.N.~.R.R.~././.^._.I.L.P.L.P.P.P.U.U.U.Q..XoXoXoX$X$X$X$XoXoXoXXXXX.X.X|.|. X X{.{.].].).).(.J..                 ",
"                . . . o a ~ ~ ^ ^ ` o.N.N.N.N.N.R.N.R.R.R.T.R.N.k.L.k.L.L.P.P.P.P.P.U.U.}.|.|.XX.X.X.X$XXX.X.X.X|.|.|. X X{.{.{.].].).).(.T.g . .               ",
"                . . w w r f ~ ~ ^ ^ ` X.X.N.N.N.N.N.R.R.R.R.~.~.^.~.E.I.K.P.L.P.P.P.P.P.U.U.!.Q.}.}.}. X|.|. X|.|. X X{.[.`.+XW.I.I.T.E.(.) . . .               ",
"                . o d d f f ~ ~ ^ ^ ^ ) ` N.N.N.N.R.N.~.R.R.~.~.^./.(.).).W.I.L.L.P.P.P.Q.Q.+XQ.Q.+X+X`.`.}. X X X{.{.`.P.L.L.L.k.L.I.~./.~ . . .               ",
"              . o % r d g f f ~ ~ ^ ^ ^ ) ` X.@.N.N.K.K.T.T.E.E.^.^././.(.(.)._.I.U.W.`.[.{.{. X{.{.{. X{.{.{.{.{.[.].]._.W._.~.~.~.^.^.+.d r = .               ",
"              . o * w r d g f ~ ~ ^ ^ ' ) ) ` ` O.N.N.K.K.Y.T.R.E.~.^.^.(.(.(.).).'.]._.`.].].].{.{.[.[.[.[.{.].].].].'.).).).(././.^.R.N.K.R.) .               ",
"              . o % 7 w r g g f f ~ ~ ^ ^ ) _ ` ` ..X.@.J.K.Y.T.R.E.E.~.^./.^.(.(.(._.I.I._.].].].].].].].'.].'.'.'.).(.(.(././.^.~.E.E.R.T.T.) .               ",
"              . o % * 7 w e d f f ~ ~ ^ ^ ) ) _ ` `  ...o.X.+.J.K.T.R.E.~.^.^.^./.(./.(._.^.).).).).).).).).).(.(.(.(.(./.^.^.^.~.E.R.R.T.K.X.% .               ",
"              . o * * * 7 7 w a f f ~ ^ ^ ^ ^ ) ) ` ` ` ....o.X.O.@.k.J.K.T.E.E.^.^././.(.(.(.(.(.(.(.(.(.(.(.(./.^.^.^.^.^.E.E.T.T.K.k.@.X.) o .               ",
"              . o % * * 7 7 w w e a d f ~ / ^ ) ) ) ` ` ` ......X.X.X.O.O.@.+.k.k.K.K.T.T.R.E.R.~.^.~.^.~.~.E.E.E.R.R.T.K.J.J.+.@.O.X.X.X.o.` % .               ",
"              . o % % * * 7 7 w w e e a a f ~ ~ ^ ) ) ) ` `  .....o.X.X.X.O.O.O.O.@.@.@.+.+.k.k.k.k.k.k.k.k.k.k.k.@.k.O.O.O.O.O.X.X.X.o..... .r .               ",
"              . o % % * * 7 7 7 w w e r r r a d g f f ~ ^ ^ ) _ _  . . .o.o.X.X.X.O.O.O.O.O.O.@.O.O.O.O.O.O.X.X.X.X.o.o. . . ._ _ _ ( ( ^ / / d .               ",
"              . o % % * * * * 7 w w w * % % a a a d d g g F F F F / / / ( ( ( ( _ ( _ _ _ _ _ _ _ _ _ _ _ _ ( _ ( ( ( ( ( ( F ( / / ~ F F F F r .               ",
"              . . o o o o o o % o o o . . . % * * * 7 7 7 7 7 7 w w w w w e 7 e e e e e e e e r e a e a e e e r e e e e 7 e e 7 e w w 7 w 7 7 * .               ",
"          . . . . . . . . . . . . . . . . . . . . . . . . . . . . X . . X . . X X . . . . . . . . . . . . . . . . . . . . . . . . . . . . . . . . . .           ",
"        . + & - - O . > ; p 0 p u u u u o . . . . . . . . . - k l l l [ l U [ { { { { { { U U U U l l l l l k z k k j s s i i i u p p p p ; ; ; ; - + .         ",
"        . & ; ; 5 0 ; 0 u i j h k k z k + . . . . . & p j l } &.%.%.%.%.%.:.>.:.>.>.>.%.>.%.%.%.%.%.} { } } [ [ [ [ I [ I I z z h k k s x u u y p y - .         ",
"        . - ; ; 0 0 0 u u i i s k h s & . + - p s l [ [ } } } &.} %.%.%.%.%.:.:.:.:.>.>.:.%.%.%.{ l l { } [ [ [ [ [ I I I z z h k k s s i u u y 0 ; : . .       ",
"        . - ; 5 0 0 0 0 u j s s h i O o 0 k I I [ [ [ [ { } } } } %.&.&.%.%.:.:.%.%.>.%.%.&.l y u U } } } [ [ [ [ I I I I z z z k k j s i u u y 0 0 ; + .       ",
"        . & - ; - ; 0 ; 0 0 0 0 0 & - u s s j k k k k l l l l I [ l [ [ { { { { } { { k y $ : j l U U l z z z z s i j h s s i u u u p p 0 0 ; ; : - & .         ",
"        . O & - - - ; ; ; t 0 0 ; p u u i i j j j j j l k l l l I l I l I l x ; 0 0 & + - i l I l z l z k j p & - i s s i i i u u p p 0 0 0 0 - ; - O .         ",
"        . + & & & & - - - ; 0 0 0 p p p p u u i u i u j j k j j k k i & & O . . . . O j l l l l l x 0 : & . . . 0 i u y u p u 0 0 0 t 0 ; & - - & & o .         ",
"          . . + . . . X . . . o . + o . o + . o o + + + o + o + + + + . . . # . . . . O + + + O + + . . . . . X + o X o X . o o X X X X o X . . . . .           ",
"                  . + 4 n n n n n X X $ > $ $ $ 2 $ 5 $ 2 $ 2 $ . q E Y D W A a.E A R R Z Z Z A V N V N N N N n n n n n n n n n 4 n n n 4 X .                   ",
"                    X m C C C C C @ + 2 5 5 8 8 8 8 8 8 8 8 8 9 . B w.y.y.y.y.y.y.y.9.9.6.6.a.3.a.T T A T A A C C m m m m m C C C C C C m @ .                   ",
"                  . @ m C C C A Z # . # 2 8 8 8 8 S S S S S b 8 + M q.w.y.y.y.y.y.y.9.6.Z 3 < # # # @ @ # # @ # @ @ @ @ X @ 3 4 m m C C C # .                   ",
"                  . @ m C C C A Z # O 8 8 8 8 8 S J J J H H L J + M q.y.y.y.y.y.y.y.3.4 X X # G G 2.G # b G G G b # G G G b . X 3 m C m m 3 .                   ",
"                  . 3 A A A Y T Y $ O $ - 9 8 J L K K -.K L K H + B w.u.f.g.f.g.f.u.M X 1 c < 2.v.x.G @ 6 z.v.x.b X 2.v.x.b , 1 X 4 A A A 3 .                   ",
"                  . q q.0.w.p.d.d.0 . 5 J K =.-.-.=.K =.=.=.*.H O M q.D.wXwX7XwX9X5X$ < v v 1 9 c.l.2 1 < P v.G # 1 9 c.<.< c v @ > 4.0.0.M .                   ",
"                  . 3 Q w.u.d.f.B.3 + H K K -.-.K H *.-.=.-.;.H + B q.D.eXeXeXeXeX5X> 1 v v v , b b , v v 2 P < c v < b 9 1 v v , @ 4.q.q.V .                   ",
"                  . . B w.p.d.B.B.: 6 K K -.J 5 9 b 2 x *.s.s.=.O M r.D.rXrXeXeXeX5XO , v v v c < , v v v c , 1 v v c , 1 v v v , > 8.q.q.V o                   ",
"                  . @ Q e.e.d.B.B.5 8 K -.H $ <.M.M.M.P : s.h.s.$ M q.8XrXrXrXrXrX5XO 1 v v v v v v c c c c v c 1 v v v v v v v < @ 4.q.w.! .                   ",
"                  o B w.e.w.e.V.B.5 x -.;.5 ,.x.M.fXfXm.8 S b.h.$ M r.8XiXiXiXrXrX5XO 1 v v v v v c # X . # v # . X , c v v v v , > 8.q.0.E .                   ",
"                  @ Q w.e.e.e.B.V.5 x s.;.2 2.z.x.m.m.z.G x b.h.$ M 0.8XiXiXiXrXiX5XO 1 v v v v < + . . . , c < . . . # 1 v v v , @ 5.w.6.V X                   ",
"                . @ Q w.e.p.d.V.V.3 8 s.s.$ b 1.1.1.1.1.2 S b.n.: M r.8XiXiXiXrXrX5XO 1 v v v < $ + . . X < < # X . . + # c v v , @ 4.q.t.R X                   ",
"                . . B q.e.d.d.B.V.5 x h.h.H , b ,.,.,.6 : s.gXn.$ M 7.8XiXiXiXrXiX5X$ , v v 1 $ G G . . . 2 l.9 . . + <.b # v v < @ 5.4.Q R X                   ",
"                . . V w.q.q.w.B.V.B & *.h.h.H 5 5 2 $ x s.gXb.K + ! q.8XiXrXrXrXeX7X9 X c v < b c.c.b . X <.v.l.$ . b v.l.$ c c . q 4.T 3.E @                   ",
"                . . E 0.5.5.t.B.V.j.O 9 *.s.s.=.K K -.h.b.n.=.$ 3 8.q.G.rXrXrXeXeX7XQ > X < < 1.x.x.<.+ b z.x.z.b # 1.x.z.P # X 3 5.4.3.3.Y @                   ",
"                . X E 4.3.4.g.B.V.V.! + 5 H *.-.-.-.s.s.s.H : > E w.j.7XrXeXeXeXeX9Xf.Q q & > 6 9 9 8 + 2 8 9 9 5 + 6 8 9 2 # q Q w.0.t.5.Y @                   ",
"                . . > W 5.0.d.d.V.V.B.E 3 + : ; : 5 2 5 - @ 4 Q q.q.A.wXeXeXwXeXwXwXD.d.p.t.Q Q Q E Q Q Q W W W Q E Q E E W 8.q.w.q.0.0.5.R @                   ",
"                . . M 8.t.6.p.w.B.V.A.B.t.E V B B B B V V Q 0.q.w.V.wXeXwXeXeXwXwXwX9XA.p.p.p.p.p.p.e.e.r.e.e.e.w.w.w.w.q.q.q.0.0.q.q.q.3.E @                   ",
"                . @ 5.q.q.0.w.6.w.B.V.A.V.B.p.e.p.p.p.p.p.p.p.V.H.9XqXqXqXqXqXqXqXqXqX9XH.S.A.Z.V.V.V.B.f.f.d.d.p.e.w.q.q.q.q.q.q.q.q.q.t.R X                   ",
"                . q q.q.q.q.0.5.t.e.B.V.S.S.S.S.F.G.H.H.6X6X0X9XqXqXqXqXqXqXqX9XqX9X9X9X9X0X0XH.H.G.F.S.A.V.B.B.d.p.w.q.q.0.q.q.q.q.q.q.w.W X                   ",
"                . 3 t.q.q.t.5.5.8.7.g.f.V.S.S.G.H.H.H.7X0X0X9X9X0X9X9X9XqX9X9X9X9X9X9X0X0X6XH.G.G.F.S.A.V.V.B.d.p.e.q.q.q.q.q.q.0.q.q.q.q.V .                   ",
"                  @ Q w.q.0.5.3.5.4.7.r.g.V.A.S.F.G.H.H.6XH.G.S.S.F.7X7X9X0X9X0X0X7X7X6X6X6XH.G.F.A.A.V.V.B.f.d.e.w.q.q.0.w.q.q.q.q.q.w.E @ .                   ",
"                  . B t.q.q.0.0.7.7.7.r.g.V.A.A.S.F.G.G.H.S.S.S.F.G.H.7XH.H.6X7X7X6X6X6XG.G.F.F.S.A.A.V.B.f.d.p.w.q.q.q.q.w.q.q.q.q.t.B > . .                   ",
"                  . @ Z 3.3.4.4.6.0.q.i.d.f.f.V.V.Z.A.A.S.S.S.S.S.F.F.F.F.S.S.S.S.A.C.Z.Z.C.V.V.B.B.B.p.p.u.q.0.6.t.t.6.t.4.t.4.4.5.W > . .                     ",
"                    . 3 Z T Y Y T W W Q 5.5.6.7.q.w.r.e.i.u.g.g.g.g.g.g.p.f.p.g.g.u.g.g.i.r.r.7.t.6.5.5.3.W W T Y T T T T T T T T T Y 3 . .                     ",
"                      . # N A Y A A T Y W W 3.5.5.4.7.7.7.i.7.g.i.i.g.i.u.u.u.g.i.5.V W 0.7.7.4.4.5.3.3.W T Y Y Y Y Y Y A Y Y A R R V @ .                       ",
"                        . . # 4 n N N m C C Z C M n M N A W T 3.W 3.3.W D D E A V # . + 4 V Z D R A Z Z C C C C V m C m m m m m n 4 X .                         ",
"                            . . X @ # 3 3 3 3 @ . . . . @ 3 6 4 4 4 3 @ X X X . . . . . . . X X 3 3 3 3 3 3 3 3 3 3 3 3 3 3 3 # @ . .                           ",
"                                    . . . . . . . . . . . . . . . . . . . . . . . . . . . . . . . . . . . . . . . . . . . . . .                                 "
};
