/* XPM */
static char *skeleton_00_idle_16_resized[] = {
/* columns rows colors chars-per-pixel */
"80 80 236 2 ",
"   c None",
".  c #010101",
"X  c #0C0306",
"o  c #020A0A",
"O  c #0A0B0C",
"+  c #0A0607",
"@  c #13050B",
"#  c #140707",
"$  c #19130C",
"%  c #1A0A12",
"&  c #011513",
"*  c #0D1214",
"=  c #001916",
"-  c #001D1A",
";  c #0E181A",
":  c #141A1D",
">  c #131617",
",  c #090F10",
"<  c #260206",
"1  c #370109",
"2  c #251709",
"3  c #240612",
"4  c #2A0B18",
"5  c #271916",
"6  c #340F15",
"7  c #00211E",
"8  c #37291B",
"9  c #312411",
"0  c #151E21",
"q  c #181E21",
"w  c #361324",
"e  c #002B2A",
"r  c #022724",
"t  c #1A2225",
"y  c #1B262A",
"u  c #1D292E",
"i  c #172225",
"p  c #1F2C31",
"a  c #013432",
"s  c #013C3B",
"d  c #023935",
"f  c #00322D",
"g  c #212E33",
"h  c #25343A",
"j  c #29353B",
"k  c #27343A",
"l  c #342E26",
"z  c #49020C",
"x  c #52030D",
"c  c #503412",
"v  c #4A0C25",
"b  c #570E2B",
"n  c #46162D",
"m  c #5B112E",
"M  c #4B1933",
"N  c #591835",
"B  c #630F30",
"V  c #671738",
"C  c #691437",
"Z  c #463625",
"A  c #433A30",
"S  c #6A3715",
"D  c #01433D",
"F  c #6A4E17",
"G  c #5B4A36",
"H  c #534230",
"J  c #68543C",
"K  c #614D36",
"L  c #625212",
"P  c #2D3B42",
"I  c #233E41",
"U  c #323E45",
"Y  c #123F41",
"T  c #751C44",
"R  c #7A1E46",
"E  c #6E1E43",
"W  c #6A2447",
"Q  c #7A234A",
"!  c #7C2C54",
"~  c #5C2541",
"^  c #014443",
"/  c #004B44",
"(  c #014C4B",
")  c #00524A",
"_  c #055049",
"`  c #015453",
"'  c #015C5B",
"]  c #015956",
"[  c #114143",
"{  c #35434A",
"}  c #37454C",
"|  c #3D4B52",
" . c #274A4E",
".. c #03625E",
"X. c #016464",
"o. c #006C6B",
"O. c #026966",
"+. c #007374",
"@. c #007C7C",
"#. c #017877",
"$. c #066F6F",
"%. c #276467",
"&. c #414E56",
"*. c #45535B",
"=. c #48575F",
"-. c #725C44",
";. c #6A5642",
":. c #79634B",
">. c #7E6951",
",. c #4C5A63",
"<. c #505E67",
"1. c #41787D",
"2. c #906825",
"3. c #A97224",
"4. c #8C581D",
"5. c #82234C",
"6. c #8C2D5B",
"7. c #872955",
"8. c #912C5B",
"9. c #93315E",
"0. c #85315B",
"q. c #A32E5E",
"w. c #953263",
"e. c #993366",
"r. c #9B3569",
"t. c #9E396B",
"y. c #9D3966",
"u. c #8E3361",
"i. c #A52E60",
"p. c #A33C6C",
"a. c #A43767",
"s. c #A33E71",
"d. c #897259",
"f. c #AA4576",
"g. c #B14C7E",
"h. c #A8406F",
"j. c #907A62",
"k. c #03847D",
"l. c #AC8E1D",
"z. c #CA932D",
"x. c #D5AE27",
"c. c #D1B31E",
"v. c #E5C620",
"b. c #9A836B",
"n. c #A68F75",
"m. c #E0C262",
"M. c #017E80",
"N. c #B44E81",
"B. c #B95587",
"V. c #AF5080",
"C. c #C35C8C",
"Z. c #C45E90",
"A. c #CB6497",
"S. c #D1699B",
"D. c #CF779A",
"F. c #D56EA1",
"G. c #DA74A6",
"H. c #E17AAD",
"J. c #E67FB2",
"K. c #018384",
"L. c #008B8C",
"P. c #078B86",
"I. c #128F88",
"U. c #18918C",
"Y. c #008F91",
"T. c #009394",
"R. c #009699",
"E. c #009A9C",
"W. c #0A9A99",
"Q. c #189A97",
"!. c #0A908D",
"~. c #2B9898",
"^. c #009EA1",
"/. c #01A2A5",
"(. c #01A6A9",
"). c #03A9AC",
"_. c #0AABAE",
"`. c #0CA5A7",
"'. c #18A6A8",
"]. c #0EACB0",
"[. c #13AEB2",
"{. c #1AAFB3",
"}. c #1CB1B5",
"|. c #13B0B4",
" X c #25A7A9",
".X c #25B3B8",
"XX c #2CB5BB",
"oX c #24B2B6",
"OX c #35B8BE",
"+X c #35B7BC",
"@X c #2EABAE",
"#X c #369E9F",
"$X c #498D93",
"%X c #49AFB3",
"&X c #4EA1A8",
"*X c #3CBAC1",
"=X c #37BAC0",
"-X c #44BDC3",
";X c #4BBEC6",
":X c #55BEC4",
">X c #70BFC8",
",X c #4DC0C6",
"<X c #54C1C9",
"1X c #5CC4CC",
"2X c #56C0C7",
"3X c #63C5CE",
"4X c #6CC9D2",
"5X c #67C7D0",
"6X c #74CBD5",
"7X c #7CCED8",
"8X c #7BD1D5",
"9X c #D0839D",
"0X c #D18EA5",
"qX c #EB84B7",
"wX c #F18ABD",
"eX c #EF95BB",
"rX c #EFA1BC",
"tX c #F0E3AF",
"yX c #FF9CCB",
"uX c #F993C5",
"iX c #F58EC1",
"pX c #FFA3CB",
"aX c #FFACCB",
"sX c #FFB3CC",
"dX c #FFBBCC",
"fX c #86D1DB",
"gX c #91D8DC",
"hX c #A5DEE3",
"jX c #BEE7EB",
"kX c #FFC4CC",
"lX c #D1EEF1",
"zX c #FFFFFF",
"xX c #F5FBFC",
"cX c #E5F6F7",
"vX c #FCF6CC",
"bX c #B8A188",
/* pixels */
"                                                                                                                                                                ",
"                                                                                                                                                                ",
"                                                                                                                                                                ",
"                                                                                                                                                                ",
"                                                                                                                                                                ",
"                                                                                                                                                                ",
"                                                                                                                                                                ",
"                                                                                                                                                                ",
"                                                                                                                                                                ",
"                                                                                                                                                                ",
"                                                                                                                                                                ",
"                                                            . . . . . o o O , O * & & O O . . . . . .                                                           ",
"                                                  . . o & r a D _ ..$.~.~.~.#X#X#X&X&X&X$X$X$X1.%.|  .i , . . .                                                 ",
"                                          . . o - d ` O.$.P.I.I.Q.@XXXoX+X%XOX@X#X%X2X2X5X5X6X6X7X7X6X3X>X$X1.h : . .                                           ",
"                                      . o - D ..+.k.P.P.I.P.Q.{.oXXXoX~.~.~.#X~.~.#X#X%X%X3X4X6X6X7XfX7X7X6X6X3X%X$X .- . .                                     ",
"                                  . . r ) o.#.#.k.k.P.^.^.`.[.}.oXXX+X@X@X@X%X-X,X,X2X3X3X4X6X8XfXfXfXfXfXgXhXhXgX4X1X&X%.i .                                   ",
"                                . . s o.K.L.Y.T.M.M.K.Y.^.'.[.}..X.XXX=X=X-X;X;X,X1X1X3X4X6X6X7XfXfXfXfXfXcXzXzXxXlXhX5X<X%X%.o .                               ",
"                            . . . - X.M.L.Y.T.E.^.^.^.Y.!.'.{.'.'.@XXX+X*X-X-X;X<X1X1X3X4X4X6X7X7XfXfXfXfXlXzXzXzXzXzXcXgX1X-X~.y .                             ",
"                          . . . r o.M.K.L.Y.T.E.^./.).)._.[.[.Q.Q.@XXX=X=X-X-X;X,X1X1X3X5X4X6X6X6XfX6X7X6XhXxXzXzXzXzXzXxXlX5X-X@XY .                           ",
"                        . . . . f M.M.K.L.Y.T.E.^./.).)._.[.{.{.oX.XXX+X=X*X-X;X,X<X1X1X3X5X4X4X6X7X6X6X6X4XlXxXzXzXzXzXzXzXcXfX-X@X[ .                         ",
"                      . . . . . r @.M.M.K.Y.Y.E.^././.)._.].[.}.}..XXX=X=X*X-X-X,X<X<X1X3X3X5X4X4X4X6X6X4X5X6XlXzXzXzXzXzXzXzXxXgXOX Xa .                       ",
"                      . - e e e = X.M.M.L.L.Y.T.E././.).).].[.}.}..X.XXX+X=X*X-X-X,X<X<X1X1X3X5X5X>X4X5X5X5X5X4XjXzXzXzXzXzXzXzXzXgX+XU.& .                     ",
"                    . o ^ ( X.$.' ' M.M.K.L.Y.R.E.^./.(.).].].|.}.oX.XXXXX=X*X*X-X;X,X<X<X1X1X1X3X5X5X5X5X1X1X1X1XhXxXzXzXzXzXzXzXxX7XoX..X                     ",
"                    . e ^ ( ' $.$.M.M.M.K.L.Y.T.R.^./.(.)._.].[.{.}.oXXXXX=X=X*X-X-X;X,X<X<X1X<X:X3X:X1X:X1X1X;X,X,X8XlXzXzXzXzXzXzXcX-X'.r .                   ",
"                  . . e ^ ( ' $.$.+.M.M.M.M.R.R.^.R./.(.).)._.[.|.}.}..XXX=X=X@X@X+X-X,X,X,X,X,X<X<X<X,X<X,X,X,X;X;X-X,XgXcXzXzXzXzXzX8X[....                   ",
"                  . . a ^ ^ ( X.$.$.+.M.M.R.R.M.R.R.^./.(.)._.].[.{.}.oX.X.XXX XU.#X+X%X,X,X,X,X,X,X,X,X,X,X,X,X-X-X-XOXOX,XfXlXxXxXxX4X].Q.& .                 ",
"                  . o s ^ ^ ^ ' o.$.+.M.M.M.M.R.M.R.R././.(.)._.].{.|.}.oX'.Q.~.U.U.~.%X=X-X,X,X-X;X,X,X,X*X,X*X*X-XOXOX+XXXoXXX-X1X,X{.]._.^ .                 ",
"                . . . a ^ ^ ( ` X.o.$.M.M.M.M.M.R.R.R.^./.(.)._._.`.W.Q.Q.I.I.U.U.U.U. XOX*XOXOX*X-X*X-X*X*X*X*XOXOXOX+XXXXX.X}.}.[.].[._._.O..                 ",
"                . . . - s ^ ^ ( ( X.$.M.M.M.M.M.M.R.R.R.^.^.^.E.T.P.P.P.P.I.I.I.I.U.U.Q.+XOX=X*X=XOX=XOXOXOXOXOX+X+XXXXX.X.X}.}.{.[.[.]._.).@..                 ",
"                . . . o e ^ ^ ^ ( ` X.M.$.M.M.M.M.R.R.R.R.R.Y.Y.P.P.P.P.P.I.P.I.I.I.I.U. X XXX@X+X+XOXOX+X+X+XXXXXXX.XoXoX}.}.{.[.`.`.(.).M.- . .               ",
"                . o r f a s ^ ^ ( ( ` X.$.M.M.M.M.M.R.^.R.R.^./.(././.W.W.P.P.I.I.I.I.I.I.I.U.Q.Q.~. X X XoXXX.XoXoXoX{.'.'.W.I.P.P.K.E.).( . . .               ",
"                . o a a s s ^ ^ ( ( ( ` ' $.M.M.M.R.R.M.R.R.R.^./.(.).`._.`.!.P.P.I.!.U.Q.Q.'. X'.'. X'. X{.oXoX}.}.{.'.!.P.P.P.L.P.E.).^.s . . .               ",
"              . . & r a d s s ^ ^ ^ ( ` ` ' X.+.M.K.K.L.Y.T.R.E.^././.(.(._._.`.W.W.`.{.}.}.}.}.}.oX}.}.}.}.}.}.}.[.[.[.`.`.).(././.(.E.$.( ` e .               ",
"              . o - r e a d s ^ ^ ^ ( ( ` ` ] ' X.+.M.L.L.Y.T.R.E.E././.(.(.)._._._.`.W.`.[.[.{.}.[.[.}.|.[.[.[.[.[.]._._._.).).(././.E.Y.T.E.' .               ",
"              . o - - r e a d s ^ ^ ( ( ( ` ` ] ' X.X.$.@.K.L.Y.T.E.E.^././.(.).)._.(.W.!.`.]._.].].[.].].].]._._._._._.).(.(././.^.E.E.T.T.Y.^ .               ",
"              . o = - - r r a d s ^ ^ ^ ( ( ` ` ` ' ' X.X.o.+.@.K.L.T.E.E./././.(.(.(.).).(.`._._._._._._._._._.).).).(.(././.^.E.E.R.T.Y.K.' o .               ",
"              . o - - - 7 7 r e a s ^ ^ / ( ( ` ` ' ' ' X.X.X.O.o.+.#.@.K.L.L.E.E.E././.(.(.(.(.).).).).).).(.(.(././.^.^.E.E.T.L.K.K.#.o.o.] o .               ",
"              . o & = - 7 7 7 r r e a s ^ ^ ( ` ` ` ' ' ' X.X.X.O.o.o.o.+.+.#.#.k.k.K.K.L.L.T.T.T.R.T.T.R.T.R.L.T.L.L.P.K.k.@.+.+.+.o.o.o.X.X.- .               ",
"              . o = & - - 7 7 7 r r e e f d s D / ( ( ` ] ' ' ..X.O.o.o.o.+.+.+.#.#.#.#.@.@.k.@.k.k.@.k.k.@.@.k.k.#.+.+.#.o.o.o.o.O.X.X.X.' ] a .               ",
"              . o & & = = 7 7 7 r r r r r r f a a s s s ^ / ( ) ` ] ] ........O.O.O.o.o.o.o.o.o.o.o.o.O.O.O.O...........] ] ] ] ) ) / / / D D a .               ",
"              . o = & = = - - 7 7 - - & o & e f f a a a d d d D D D D D / / / / ) / ) ) ) ) ) ) ) ) ) ) ) ) ) ) ) D ) D ) D D ) / D D D D D d f .               ",
"              . . . o . . o o o o . . . . . o & & o & & & & & & & & = = & & & & = = = = = = = = = = = = = = = = = 7 = = = = = = & = = & & & & & . .             ",
"          . . + . . . . . o + . . o o + . . . . . . . . . . . + O O O O O O O O O O + O O O O O O O + + + o o o + o + o o + + o o . o . . + . . . . .           ",
"        . O > > : , + * t y y u p p g g O . . . . . . . . , t { } } | | &.&.&.*.*.*.*.&.&.&.| | | } { { { { P { P j j j h h g g p p u u t t t i q 0 O .         ",
"        . * : q : q q y y u p p g h h p o . . . o , q k P } | | &.*.*.*.=.,.,.,.<.<.<.,.,.=.=.*.*.&.} { } | } { { I { j P P h h h g g p u u t t t t > .         ",
"        . > : : q q q y y p p p g h y + . * y k j { } } | | | | &.&.*.*.*.,.,.,.<.<.,.,.,.=.*.| j g j } | } } { { { { { P h I h h h g p u u t t q : : . .       ",
"        . > : : : q q 0 y y u u p i o , y k j P P P P U { { | | | | &.&.&.&.*.*.*.=.*.=.&.{ y : g { | } { { { { j { I j h h h g g p u u t t t t : : : . .       ",
"        . @ > > ; > : : 0 0 0 0 0 = 0 y u p p p g g k k k k j j j P P U { U { U { j j t O O 5 j j U j j h h g g y y g p p u u y y t t t t : : : : > * .         ",
"        . O > > * > : : : 0 0 0 i y y y u p p p p g g h j j j j j j j k j g : O * O + % 5 j U j j j j k u t > O ; p g g u y y y y 0 i 0 0 0 : > > > O .         ",
"        . . O , , * , , * * ; ; > : ; 0 0 : 0 0 i i t t t t t y p u : + + . . . . . * t g u g u g q , + + . . . > i 0 0 0 0 : ; : > ; ; ; * * * * , . .         ",
"          . . . . . . X @ X X X X . . . . + . + o . + . . o + + X + @ # @ @ 2 # @ @ @ % @ @ @ @ # # # X # X # + + X X X X X + + X X X X X . . . . . .           ",
"                  . X v b b b b b @ + 2 $ 5 5 5 5 9 5 9 9 5 5 2 . n 7.8.7.8.5.q.5.7.7.5.5.5.5.5.5.5.V C V V B m m m m b m b b b b b b b v X .                   ",
"                  . # b B B B C C @ X $ $ 5 8 9 8 8 Z 8 8 Z 8 8 . n y.a.i.i.i.i.i.q.q.q.8.5.C C C C V N m m m b b v v v v v m B B B B B b @ .                   ",
"                  . @ b B B B C C # . $ 9 8 8 Z Z Z Z c Z Z Z 8 + n e.e.i.i.i.i.i.q.i.5.w # # # # # # X # # O , + X + X @ X @ 3 b B m B B % .                   ",
"                  . @ B B B B C C @ # 8 8 8 9 8 Z K K K K K K F + n e.i.i.q.q.q.q.q.5.% X < 2 2.3.3.4.+ c 3.3.3.S O 4.l.3.S X X @ b B B B < .                   ",
"                  . 4 T T R 5.7.7.% . O $ 8 Z K J J J -.J J J K # n e.g.C.C.C.C.C.B.w X z x < F v.v.L @ 2 l.v.z.2 # F v.c.9 1 z X 4 T R R 4 .                   ",
"                  . w r.r.t.s.N.V.4 . 8 K -.:.:.>.-.-.-.J :.-.H O n e.D.sXaXaXaXaX0X> < x x z $ l.l.2 z < c c.L < z 2 l.L < x x < % 6.w.r.M .                   ",
"                  . @ W r.p.f.N.N.q $ G K -.:.J A A H -.:.:.d.G O n e.D.dXsXsXsXaX0X@ 1 x x x 1 2 2 1 x x < 9 < x x 1 9 2 z x x < @ 0.r.r.M .                   ",
"                  . . M t.s.f.N.V.4 9 J J :.l 2 L L c 2 G d.j.:.$ n w.D.dXdXdXsXdX0X@ < x x x x 1 z x z x z 1 z x x x 1 z x x x < @ 0.r.r.N .                   ",
"                  . % 6.t.t.s.N.V.% 8 ;.>.A 9 l.m.vXtX2.$ :.b.d.$ n e.9XkXdXdXdXdX0X@ 1 x x x x x z 1 # + < x < X < 1 x x x x x < @ 0.e.r.W .                   ",
"                  + N e.t.r.t.N.V.5 l >.d.$ 4.z.m.tXvXm.c A n.d.$ n e.9XkXkXkXdXdX0XO 1 x x x x 1 X . . . # z # . . . < z x x x < @ 0.e.e.~ .                   ",
"                  X 0.r.t.s.t.B.B.4 l d.>.# 4.z.x.x.z.3.c l n.b.$ n w.9XkXkXkXdXkX0XO 1 x x x 1 X . . . + 1 < < . . . . # x x x < @ 6.r.8.V .                   ",
"                . @ ! e.t.s.f.B.B.q 8 j.d.5 z 3.3.3.3.4.# K bXb.> n e.9XkXkXkXdXdX0X# 1 x x z X c c . . + $ F $ . . . L 9 < x x < % 6.e.8.E X                   ",
"                . . n e.t.f.f.N.B.5 5 d.b.;.2 x x S S < l b.bXj.* M y.9XkXkXdXdXdX0X5 # x x # 9 c.c.2 . O L v.2.. . 9 c.l.# z z X 4 6.7.5.E X                   ",
"                . . N r.w.w.e.g.B.~ , G d.j.-.Z 5 5 8 G b.bXn.A . W r.G.kXkXdXdXsXeXW . @ z # 2.x.v.4.. 9 z.c.x.8 X 2.v.z.c < @ @ W 6.Q 5.T +                   ",
"                . . Q w.7.0.e.N.B.f.> $ G d.d.-.-.:.:.j.n.d.J # w u.r.9XdXdXsXsXsXrXf.W % . $ S F F S @ 8 F F F c @ c F F c . % W e.6.5.7.E @                   ",
"                . . ~ 6.Q 9.s.N.B.C.! % % l G ;.;.-.-.:.;.l O 4 0.w.h.rXsXsXsXsXaXaXC.t.u.W ~ M M M M M M M n M M M M M n M E 6.e.e.e.6.7.E X                   ",
"                . . @ W 6.9.s.f.B.C.B.0.w % X % % * @ * % % N u.r.y.F.sXsXaXsXsXaXaXrXV.s.s.s.s.t.p.s.t.s.s.r.r.r.r.e.r.e.e.r.e.e.e.e.w.7.E @                   ",
"                . . M w.w.u.s.e.f.B.Z.B.f.0.W W W E W W ! 6.w.w.p.D.pXaXaXaXaXaXaXpXpXeXF.B.N.V.g.g.g.f.s.s.s.t.t.r.r.e.r.w.r.w.w.r.e.w.7.E X                   ",
"                . % 6.r.w.w.r.6.e.V.B.A.A.B.N.V.N.N.N.N.N.N.B.S.eXpXpXaXpXpXpXpXpXyXyXyXuXuXqXqXH.G.F.S.A.Z.B.N.N.s.t.e.w.r.w.e.r.w.e.e.e.E +                   ",
"                . w w.w.e.e.6.7.9.y.V.C.A.S.F.G.G.J.qXiXuXuXyXpXyXpXpXpXpXyXpXyXyXyXyXyXuXiXqXqXH.G.F.A.A.B.B.g.s.s.r.w.r.w.e.e.w.r.e.e.r.Q +                   ",
"                . % w.e.e.w.7.7.6.9.t.g.B.A.S.G.H.H.J.qXwXuXuXuXwXuXyXyXyXyXyXyXuXyXiXiXiXqXJ.G.G.F.A.Z.Z.B.N.f.s.t.r.r.w.r.e.w.r.w.e.r.w.M .                   ",
"                  X ! r.e.w.7.7.7.0.9.e.h.B.A.S.F.G.G.qXJ.H.G.S.S.F.qXwXuXwXwXuXeXwXwXqXqXqXH.G.F.A.A.B.B.N.g.f.t.r.w.r.e.e.w.e.w.w.e.r.~ X .                   ",
"                  . n 6.w.w.e.w.9.9.9.y.f.B.Z.A.A.F.G.G.G.G.S.F.F.H.J.wXqXJ.wXwXwXqXqXqXG.G.G.F.A.A.Z.B.N.g.f.t.r.e.e.e.e.r.r.e.r.r.u.w @ . .                   ",
"                  . X V R 7.7.6.9.9.e.t.f.f.g.g.B.B.Z.A.A.S.S.S.S.S.S.S.S.S.S.S.A.Z.C.C.C.B.B.g.N.f.f.s.p.y.w.9.6.6.6.6.6.6.8.8.6.7.Q % . .                     ",
"                    . % C T T R T R Q Q 7.7.6.9.e.e.t.a.a.p.p.p.h.f.h.h.a.h.h.h.h.p.h.p.a.y.9.9.6.6.6.6.5.Q R T T R R T R T R R T T T 3 . .                     ",
"                      . @ v C V V V T T R Q 5.7.7.8.8.9.9.9.a.a.a.p.p.a.p.h.p.p.a.Q M W 9.9.9.8.6.7.7.Q R T T T T T T T V T V V E C m @ .                       ",
"                        . . @ 6 v b b m m B V m v w v n V Q Q Q Q 5.5.W V E E V N X . + 4 N N V C E V C B B B m B m m m m m m b b 4 X .                         ",
"                            . . X X # 3 3 3 3 @ . . . . X 4 6 4 4 6 4 X . . . . . . . . . . . X 3 3 3 3 3 3 3 3 3 3 3 3 3 3 3 @ X .                             ",
"                                    . . . . . . . . . . . . . . . . . . . . . . . . . . . . . . . . . . . . . . . . . . . . . .                                 "
};
