/* XPM */
static char *skeleton_00_idle_11_resized[] = {
/* columns rows colors chars-per-pixel */
"80 80 235 2 ",
"   c None",
".  c #010101",
"X  c #0A0204",
"o  c #030A0A",
"O  c #0A0B0C",
"+  c #0A0807",
"@  c #14050B",
"#  c #170708",
"$  c #1A130B",
"%  c #1C0911",
"&  c #001413",
"*  c #0E1213",
"=  c #001D1A",
"-  c #041817",
";  c #111416",
":  c #141A1C",
">  c #141718",
",  c #070F10",
"<  c #270206",
"1  c #360109",
"2  c #260A16",
"3  c #3C0A1D",
"4  c #340A1B",
"5  c #271516",
"6  c #2A180A",
"7  c #00211E",
"8  c #2B2319",
"9  c #36291C",
"0  c #32250B",
"q  c #151E21",
"w  c #191E21",
"e  c #391326",
"r  c #3A0D21",
"t  c #002421",
"y  c #012D2A",
"u  c #012926",
"i  c #1A2225",
"p  c #1B252A",
"a  c #1D292E",
"s  c #162226",
"d  c #00322D",
"f  c #1F2B31",
"g  c #003533",
"h  c #013C3C",
"j  c #023A35",
"k  c #1D3538",
"l  c #222E33",
"z  c #25343A",
"x  c #2B353B",
"c  c #273439",
"v  c #2B2E2E",
"b  c #48020C",
"n  c #51030D",
"m  c #471F0A",
"M  c #4C3313",
"N  c #460D24",
"B  c #5D0E2E",
"V  c #48152C",
"C  c #481830",
"Z  c #591B38",
"A  c #57122E",
"S  c #630F30",
"D  c #641334",
"F  c #671739",
"G  c #6E173B",
"H  c #463523",
"J  c #4D2F31",
"K  c #623313",
"L  c #00433C",
"P  c #6B4E18",
"I  c #5B4936",
"U  c #56432E",
"Y  c #6B563D",
"T  c #665138",
"R  c #5D4B13",
"E  c #2D3B42",
"W  c #313E45",
"Q  c #013F40",
"!  c #741C43",
"~  c #7A1E46",
"^  c #6D1E43",
"/  c #7D224B",
"(  c #752549",
")  c #6F254A",
"_  c #5F1F40",
"`  c #014444",
"'  c #014B4B",
"]  c #024A45",
"[  c #00534D",
"{  c #015453",
"}  c #005B54",
"|  c #015B5B",
" . c #1A5356",
".. c #36444B",
"X. c #3C4A52",
"o. c #274D50",
"O. c #00615E",
"+. c #016463",
"@. c #016C6C",
"#. c #026867",
"$. c #007474",
"%. c #017B7C",
"&. c #017876",
"*. c #03706F",
"=. c #2E6B70",
"-. c #195F62",
";. c #45545C",
":. c #404F57",
">. c #725C44",
",. c #6B5844",
"<. c #78624A",
"1. c #7D6851",
"2. c #4C5A63",
"3. c #495760",
"4. c #515F68",
"5. c #406F74",
"6. c #946623",
"7. c #B87426",
"8. c #935C1B",
"9. c #84234D",
"0. c #8B2D5A",
"q. c #862A56",
"w. c #942B5A",
"e. c #93315E",
"r. c #8A315F",
"t. c #A42E5F",
"y. c #953263",
"u. c #993366",
"i. c #9B3569",
"p. c #9E396B",
"a. c #9A3A66",
"s. c #8E3361",
"d. c #A52E60",
"f. c #A23C6C",
"g. c #A83C6C",
"h. c #A33E71",
"j. c #8A745B",
"k. c #836D55",
"l. c #AA4577",
"z. c #B44C7D",
"x. c #B14777",
"c. c #AD416E",
"v. c #947D64",
"b. c #02827D",
"n. c #B68B26",
"m. c #A98E1C",
"M. c #D4AD27",
"N. c #CFA627",
"B. c #E4C71F",
"V. c #9A846C",
"C. c #AB946E",
"Z. c #D2B252",
"A. c #E5D37B",
"S. c #017F81",
"D. c #277B80",
"F. c #B95486",
"G. c #B34F81",
"H. c #C35D90",
"J. c #CB6597",
"K. c #D26A9D",
"L. c #D07C9D",
"P. c #DB74A7",
"I. c #D56EA1",
"U. c #E27AAD",
"Y. c #E57EB1",
"T. c #018384",
"R. c #008A8C",
"E. c #078A86",
"W. c #128E88",
"Q. c #19928C",
"!. c #008E91",
"~. c #009395",
"^. c #009799",
"/. c #019A9C",
"(. c #0A9996",
"). c #189A98",
"_. c #09918E",
"`. c #259796",
"'. c #009EA1",
"]. c #01A2A4",
"[. c #01A6A9",
"{. c #04A9AC",
"}. c #0AABAE",
"|. c #0BA5A7",
" X c #16A7A9",
".X c #0CACB0",
"XX c #13AEB2",
"oX c #1AAFB3",
"OX c #1CB0B5",
"+X c #28A8A9",
"@X c #21B2B6",
"#X c #2CB5BB",
"$X c #27B3B8",
"%X c #35B8BE",
"&X c #35B7BC",
"*X c #32ACAE",
"=X c #2BA09E",
"-X c #4EAFB3",
";X c #5DA0A8",
":X c #3CBAC1",
">X c #43BCC3",
",X c #4ABEC6",
"<X c #59BBC1",
"1X c #6ABEC7",
"2X c #4EC0C8",
"3X c #53C1C9",
"4X c #5BC4CC",
"5X c #50C3C7",
"6X c #5FC7D0",
"7X c #63C6CE",
"8X c #67C8CD",
"9X c #6AC8D1",
"0X c #77CCD6",
"qX c #7CD0D9",
"wX c #B49C83",
"eX c #D0839D",
"rX c #CE8CA3",
"tX c #EE8CBA",
"yX c #F5A0BF",
"uX c #FF9CCB",
"iX c #F997C5",
"pX c #F58EC1",
"aX c #FEA7CA",
"sX c #FFB4CC",
"dX c #FFBBCC",
"fX c #80CFD9",
"gX c #86D2DA",
"hX c #94D9DD",
"jX c #B5E5E8",
"kX c #A7DFE4",
"lX c #FFC4CC",
"zX c #D1EEF1",
"xX c #FFFFFF",
"cX c #F5FCFC",
"vX c #EAF6F4",
/* pixels */
"                                                                                                                                                                ",
"                                                                                                                                                                ",
"                                                                                                                                                                ",
"                                                                                                                                                                ",
"                                                                                                                                                                ",
"                                                                                                                                                                ",
"                                                                                                                                                                ",
"                                                                                                                                                                ",
"                                                                                                                                                                ",
"                                                                                                                                                                ",
"                                                                                                                                                                ",
"                                                                                                                                                                ",
"                                                                  . . . . . X . . . . . . . .                                                                   ",
"                                                    . . . + & - t y k '  .-.-.-.-.=.=.-.o.o.o.k p : O o . .                                                     ",
"                                            . . . & u L } #.*.b.W.).#X#X&X-X>X*X-X-X7X6X9X9X9X9X1X1X;X;X=.X.f * . .                                             ",
"                                        . o 7 j O.$.b.T.E.W.Q.).+X$X*X`.=X+X+X=X`.=X-X-X<X7X9X0X0X0X0X0X0X0X7X;X=.o.* . .                                       ",
"                                    . o y { @.&.%.b.R.(.(.(. XOX$X$X%X+X=X+X*X-X&X-X-X-X-X1X0X0XfXfXfXfX0XqXfXqX0X6X-X=.p . .                                   ",
"                                . . u } &.b.T.R.S.S.b./.|.XXoXOX@X#X#X&X%X:X>X,X5X4X6X7X9X9X0XqXfXfXgXgXqXzXvXvXzXkX0X3X-XD.s .                                 ",
"                              . . o { $.R.!.^./.'.~.!.S._.|.oXoX@X$X%X&X%X>X,X,X5X4X4X7X9X0X0X0XfXgXgXgXgXvXxXxXxXxXvXjX9X,X*X-.& .                             ",
"                            . . & { %.T.R.!.~./.'.'.{.].|.}.oX).).+X&X&X%X>X>X,X3X3X6X7X9X9X0X0XfXfXfXfXfXjXxXxXxXxXxXxXvXhX,X>X=.- .                           ",
"                          . . . g %.T.T.R.!.~.^.'.].{.{..XXXXX X X$X#X&X%X:X>X,X3X3X4X6X7X9X9X0X0X0X0X0X0XgXvXcXxXxXxXxXxXxXjX4X:XQ.= .                         ",
"                        . . . . y %.S.T.R.R.~.^.'.].[.{.}..XoXOX@X$X#X%X:X:X>X>X2X3X3X4X7X7X9X9X9X0X9X0X0X9XhXvXxXxXxXxXxXxXxXzX6X:XQ.* .                       ",
"                      . o & o o - @.S.T.R.R.~.^./.].[.{.}..XXXOXOX$X$X%X:X:X>X>X,X2X3X4X4X7X7X8X1X9X9X9X9X9X7XgXvXxXxXxXxXxXxXxXvX7X#X-.o                       ",
"                    . o g ' | +.Q { %.T.T.R.~.^./.'.].{.{.}.XXXXOX@X$X#X#X:X:X>X>X,X3X3X4X4X7X7X9X9X9X9X1X7X6X<X0XzXxXxXxXxXxXxXxXzX5X$XQ .                     ",
"                    . t ` ' +.*.$.$.S.S.S.~.~.^.'.'.'.[.{.}.XXXXOXOX$X#X#X:X:X:X2X>X2X2X3X3X4X4X4X4X7X4X6X6X4X5X3X7XjXcXxXxXxXxXxXxXzX#XW.& .                   ",
"                  . . y ` ' | @.*.$.$.S.S.~.S.'.^.'.'.[.{.{.}.XXOXOX@X$X#X#X%X&X*X,X>X2X2X3X3X3X4X4X3X3X5X3X5X2X2X2X,XqXzXcXxXxXxXxXcX8XXX' .                   ",
"                  . . d ` ` { #.@.$.S.S.S.S.S.~.^.^.'.].[.{.}..XXXOXOX$X$X$X#X*X`.=X>X>X>X,X2X2X3X2X2X2X2X2X2X2X>X>X>X:X2XfXzXcXxXxXxXgXXXE.o                   ",
"                  . o j ` ` ' +.@.$.$.$.S.~.S.~.~.^.'.].[.{.{..X.XXXOXOX$X$X+X).Q.Q.+X%X>X>X>X,X,X,X2X>X2X2X>X2X>X:X:X%X#X#X&X4XgXkXhX%XXX|.y .                 ",
"                . . o g ` ` ` { #.*.@.S.S.S.S.^.S.'.^.'.].[.{.}.}..X X X X).W.Q.Q.Q.Q.*X:X:X>X:X>X>X>X>X2X-X:X:X%X%X%X&X#X#X$X@XOXoXXXXX.X}.| .                 ",
"                . . . y Q ` ` ' | @.@.S.S.S.S.S.S.^.~.'.'.].[.[.|.(.E.W.W.W.W.W.Q.Q.Q.=X%X:X:X:X:X:X:X:X%X%X:X%X%X&X&X#X#X$X@XOXoXXXXX}.}.{.%.o                 ",
"                . . . o d Q ` ' ' | @.S.S.S.S.S.~.~.^.'.'.^.S.!.b.b.b.E.E.W.W.W.W.Q.Q.Q.+X#X:X#X:X:X:X%X%X&X%X#X&X#X#X$X@X@XOXOXoXXX}.}.{./.` . .               ",
"                . . - = y Q ` ' ' ' | @.@.S.S.S.S.~.S.'.^.^.].'.'./.(._.W.E.E.W.W.W.W.W.Q.).`.). X+X+X$X$X#X#X#X#X$X@X@XOXoX X(.(.(.~./.{.| . . .               ",
"                . o g g h h ` ` ' ' ' | @.$.S.S.S.R.!.!.^.^./.].[.{.{.{.|.(._.W.W.W.W.W.Q.).).).).).=X X+XoX@X$X$XOXOX XW.W.E.b.E.b.!.].[.] . . .               ",
"              . . & y g j h h ` ` ' ' { { | @.S.S.T.R.!.!.^.^./.].].[.[.{.}.}.(._._.(.).XXoXOXOX$X@X@X@XOX@XOXOXOXoXOXXX|.(.|.(.^./.].].T.g 7 & .               ",
"              . o = t g g h h h ` ' ' ' { { | +.$.S.T.R.R.~.^.^./.'.].].[.{.{.}.}.|.}. X.XoXoXXXXXoXoXOXOXXXOXXXXXXXXX.X.X.X{.{.{.[.].^.%.T.R.{ .               ",
"              . o = 7 t y g h h Q ` ' ' ' { { | | +.@.&.R.R.!.~.^./.'.].].[.[.{.{.|.|.(._. X.XXXXXXXXXXXXXXX.X.X.X}.}.|.{.{.[.[.].].'./.^.^.~.{ .               ",
"              . o = = 7 t y j h Q Q ` ' ' { { { | | +.+.@.$.%.R.R.^.^./.].].].].[.{.{.[.|.].}.}..X}..X.X.X}.}.}.}.}.{.[.[.[.].].'./.^.^.!.!.$.= .               ",
"              . o - = = 7 7 u g h Q ` ` ' ' ' { { | | | +.+.#.@.$.&.T.R.!././.].].].[.{.[.{.{.{.{.{.{.{.{.{.{.{.[.[.[.[.].].'./.^.~.R.T.%.$.{ . .               ",
"              . o - = = 7 7 t u u g h Q ` ' ' { { { | | +.+.+.#.@.@.*.$.$.%.b.b.R.R.!.^.^./.'.'.].].].].].].].].'./.^.~.!.R.R.b.%.&.$.@.@.#.O.- .               ",
"              . o - - - 7 7 7 t u u y y g Q Q ' ' { { | | | +.+.#.#.@.@.*.*.$.&.&.&.&.%.%.b.b.b.b.T.T.T.b.T.b.b.%.b.%.&.&.&.$.*.@.@.@.@.+.+.+.u .               ",
"              . o & & = = = 7 7 t u u y d d d g j L ` ] [ [ { | O.O.+.#.#.@.@.@.$.*.$.$.$.&.&.&.&.&.&.&.&.*.$.$.*.@.@.#.#.#.O.O.O.} } } [ ] ] g o               ",
"              . o - & = - = = 7 t t t t & - d d d g j j j L L L L ] ] [ [ [ [ } } } } } O.} } } } } } } } } } [ } [ [ [ [ L [ L ] L L L L L L d .               ",
"              . o o o o & & & & , o o . . o = = 7 7 t t t u u u y y y y d y d d d d d d d g g d d j j g d d g g d g d g d d L u d y y y y y u 7 .               ",
"          . . . . . . . . . . . . . . . . . . . . . . . . . . . . . . . . . X X . . . . . . . . . . . . . . . . . . . . . . . . . . . . . . . . . . .           ",
"        . . * * ; + . o ; : : q q s s q o . . . . . . . . . * f l c c x x x x x x x x x x x x x c c v v k f f a a s p s p s s s q q q q : > > ; * ; . .         ",
"        . * : : w : > q p a a z z z z z O . . . . . o : p c ..:.:.;.;.;.;.2.2.2.4.4.4.2.2.2.;.;.;.:.X.X...X.X.............z E z z z f f f a i i s w ; .         ",
"        . ; : : w w w p p a l f f z l ; . o * : p l W ..X.X.X.X.:.;.;.;.;.2.2.2.4.4.2.4.2.;.;.;.X.x x ....X.........x x E E z z z l l f a p p i i w > .         ",
"        . > s 5 w w s p p a a f k f , o ; l E E ............X.X.:.:.:.;.;.2.;.2.4.2.;.2.;.;...v p x X.X...........E o.E E E z z z l f f a a p i w : > o .       ",
"        . ; ; ; ; > : q q q w p s * * s f f z z z z c c x E E E W W W W ....X.X...X...W a ; * v x ..x E E x x x z l z l f f f a a p p p q q q q ; q * .         ",
"        . O ; ; * > ; : : q q q : q p p a f a f a l c c z x x x x x W W W x f p p i ; o O p x x ..c x c x l p : > a l a f a a p p p q q q q ; q ; ; O .         ",
"        . o ; ; ; ; > : : q q q q s s s p p a a a l l l l l l c x x f > > ; . . . . O a x x x x x l p : * o . . q a a a p p p q q q q q : ; ; ; ; ; + .         ",
"          . . o . o . o . o . o X o o o o o o o o o o + + O O O O O o . . . . . . . + O * O O O + o . . . . . . o O o + o o o o o o . + o o o o o . .           ",
"                  . . 4 3 3 3 3 3 X X $ $ $ $ $ % $ $ $ $ 6 $ # . 4 Z Z F F Z F F Z B Z B A A A A V V N N N N N 3 3 3 3 3 3 3 3 3 3 3 3 4 X .                   ",
"                    X B S S S D D # + 5 $ 5 0 9 9 9 9 9 9 9 9 8 . C i.f.d.d.d.d.t.t.w.t.w.w.q.9.9.9.~ ~ G G G D S B B B B B S S S S S S B @ .                   ",
"                  . @ B S S S G D # . # $ 9 9 9 H H H M H H H H X C i.d.d.d.d.d.d.t.d.w.D 4 2 @ # % # % < % @ % @ @ @ @ @ @ 2 3 B S S S B # .                   ",
"                  . @ S S S S D F # + 8 H 9 H 9 H H H J U U U H + C u.u.d.t.t.t.t.t.w.3 X X # P P P K # M P P P M # P P P M X X 2 B B S B < .                   ",
"                  . 2 D F F G ! ^ % + $ $ 5 8 H I T Y ,.T T Y U + C u.f.c.c.c.c.c.g.C . 1 n # 6.B.M.8.X 0 N.B.N.m X 6.B.M.M < 1 . 4 F D G 2 .                   ",
"                  . e y.e.u.f.l.l.2 . ; H T Y <.<.<.>.>.>.<.Y I + C a.J.yXyXyXyXiXrX5 < n n 1 0 N.N.6 b < P B.P # 1 0 M.m.X b b @ % q.y.y.V .                   ",
"                  . 2 / i.h.h.G.l.5 + U Y Y 1.<.Y Y ,.<.>.<.<.I + C y.L.sXsXsXsXsXrXO < n n n < 0 M < n b # P 6 b n < M 0 1 n n < @ r.u.i.Z .                   ",
"                  . . C i.h.l.G.G.5 8 T T <.T 8 0 0 0 9 <.k.j.,.$ V y.L.dXdXsXsXsXrX# 1 n n n n < 6 n n n 1 < 1 n n b < 1 n n n < @ r.u.u.Z .                   ",
"                  . % / i.f.h.F.G.2 8 Y >.T 2 8.Z.A.Z.M 8 1.V.1.$ C y.eXlXdXdXsXdXrX+ 1 n n n n n n n n n n n n n n n n n n n n < @ r.u.p._ .                   ",
"                  o Z u.p.i.p.G.F.2 v <.k.5 R N.A.vXvXZ.0 I V.v.$ C u.eXlXlXlXdXdXrXO 1 n n n n n n n n n n n n n n n n n n n n < % r.y.y.F .                   ",
"                  @ r.u.p.f.f.G.F.w 9 j.1.$ 8.N.M.Z.Z.N.K v V.V.* C y.eXlXlXlXdXdXrX+ 1 n n n n n n b 1 1 b n b 1 b n n n n n n < @ q.i.e.F X                   ",
"                . @ / i.p.h.l.F.F.5 9 j.k.> K 7.7.7.7.6.5 U C.V.$ V a.eXlXlXlXdXlXrXO 1 n n n n n < # . . # b X . . # b n n n n < @ q.i.s._ X                   ",
"                . . C u.p.h.l.F.G.i 9 j.v.J $ K 8.8.8.b $ k.wXV.* C u.L.lXlXdXdXdXrXO 1 n n n n # . . . . < b < . . . X 1 n n n < # / 0.q.^ X                   ",
"                . . Z i.y.y.u.l.F.C * >.V.j.U > < 1 5 9 <.wXwX,.o _ u.L.lXdXdXdXdXrX+ 1 n n n # $ $ . . . < 6 # . . . $ # 1 n n < # ( 9./ ^ @                   ",
"                . + ) u.9.q.a.G.H.s.X 9 >.j.j.,.T I >.j.wXV.1.5 % q.i.rXdXdXsXsXdXrX$ < n n 1 # m.6.+ . o 0 N.M . . # m.R # b n # % q.9./ ! @                   ",
"                . . Z q./ y.l.z.F.F.Z + 9 I >.<.>.<.k.j.k.,.5 O ^ i.f.rXsXsXsXsXsXtXC . b n # R B.M.R . $ m.B.m.$ . P B.N.6 1 1 X C u.y.q.^ @                   ",
"                . . @ ( 0.y.h.h.G.F.G.Z * O 5 8 8 9 v 9 : O 2 ) u.y.H.aXsXaXsXsXaXtXs.5 X # 6 6.n.n.6.+ M n.n.7.K ; 6.n.n.K X + 4 0.i.y.q.! @                   ",
"                . + _ i.y.w.h.y.l.F.F.l.r._ V e e e e e C ) e.u.a.F.yXaXaXaXaXaXaXiXG.s.Z 2 > 5 5 5 5 $ 6 6 5 5 2 ; 5 5 5 5 2 Z r.u.u.y.q.^ X                   ",
"                . 2 s.u.u.u.i.0.s.l.F.J.F.l.f.i.i.i.p.i.i.p.f.z.I.iXaXaXuXaXuXuXaXuXI.l.h.p.s.r.e.s.r.r.r.r.r.r./ s./ q.r.r.s.u.u.u.i.u.y.) +                   ",
"                . 2 y.u.u.u.0.0.r.a.z.F.J.J.J.J.K.I.I.P.U.U.tXiXuXuXuXuXuXuXuXuXuXuXiXK.l.h.h.h.f.f.p.p.i.p.i.a.i.p.p.u.u.u.u.u.u.u.y.i.i.) .                   ",
"                . % r.y.u.y.9.9.q.e.e.l.G.H.K.I.P.U.Y.tXtXpXpXU.U.tXtXuXuXiXiXiXiXpXpXtXY.I.J.H.H.F.F.G.z.l.l.h.p.i.u.u.y.u.u.y.u.u.u.u.q.e .                   ",
"                  X _ u.u.u.r.0.0.0.e.e.f.z.J.J.I.I.P.Y.U.I.J.J.J.K.Y.tXtXY.pXtXpXpXY.tXY.eXP.P.K.J.H.H.F.G.l.h.p.u.u.u.u.u.u.u.u.u.i./ e . .                   ",
"                  . 2 / q.w.y.u.y.a.a.f.z.F.F.H.J.K.K.I.P.P.P.P.U.U.U.tXU.U.Y.Y.U.U.P.P.I.I.J.H.H.H.F.G.x.l.h.i.u.u.y.u.u.u.u.y.y.y./ > . .                     ",
"                    . r ! ~ ~ ~ / 9.q.r.e.s.a.c.h.h.l.l.x.z.z.z.z.z.x.x.z.z.z.z.x.x.x.l.l.g.c.f.y.u.y.e.0.q.9.9./ / / / 9.9.~ ~ ~ / ! 2 . .                     ",
"                      X 4 F ! ! ! ! ! ( / 9.q.0.0.e.e.y.d.f.d.f.g.g.c.c.c.c.g.g.g.y.( a.a.e.e.w.w.q.q.9./ ~ ! ! ! ! ! ! ! ! ! ! ! ! ^ % .                       ",
"                        . @ 4 V B B D D F G G G F F ^ ( / q.q.q.0.0.0.q.q.0.q.q./ 4 o % Z ( / / / ( ~ G G F F F F F D F D D D D S N 2 .                         ",
"                            . X @ 2 4 4 3 3 3 2 X . X X 2 N V N V A N 2 # # % @ X . . . . @ @ 2 3 N 3 3 3 3 3 3 3 3 3 3 3 3 4 2 % + .                           ",
"                                . . . . . . . . . . . . . . . X . . . . . . . . . . . . . . . . . . . . . . . . . . . . . . . . .                               "
};
