/* XPM */
static char *skeleton_00_idle_12_resized[] = {
/* columns rows colors chars-per-pixel */
"80 80 234 2 ",
"   c None",
".  c #010101",
"X  c #0A0305",
"o  c #020A0A",
"O  c #0B090A",
"+  c #13050B",
"@  c #150708",
"#  c #19130E",
"$  c #0B0F10",
"%  c #1B0911",
"&  c #001514",
"*  c #001D1A",
"=  c #071616",
"-  c #141A1D",
";  c #121617",
":  c #260306",
">  c #340108",
",  c #25160A",
"<  c #280A17",
"1  c #360A1B",
"2  c #251816",
"3  c #331D0D",
"4  c #00211D",
"5  c #38291A",
"6  c #302512",
"7  c #151E21",
"8  c #181E21",
"9  c #051F20",
"0  c #361223",
"q  c #002422",
"w  c #002D2B",
"e  c #012926",
"r  c #192225",
"t  c #1B252A",
"y  c #1D292E",
"u  c #172125",
"i  c #1E2C30",
"p  c #013433",
"a  c #013C3C",
"s  c #033935",
"d  c #043430",
"f  c #222E33",
"g  c #25343A",
"h  c #28353B",
"j  c #292B29",
"k  c #47020B",
"l  c #52030D",
"z  c #411B0A",
"x  c #442D11",
"c  c #4A3311",
"v  c #4A0C25",
"b  c #540D29",
"n  c #45152C",
"m  c #5A1734",
"M  c #4E152F",
"N  c #630F30",
"B  c #641334",
"V  c #69183A",
"C  c #691537",
"Z  c #463625",
"A  c #4C3635",
"S  c #6B3815",
"D  c #01433D",
"F  c #725618",
"G  c #5A4834",
"H  c #52422E",
"J  c #69543C",
"K  c #634E37",
"L  c #695815",
"P  c #2D3B42",
"I  c #313E45",
"U  c #003F40",
"Y  c #661F41",
"T  c #731B42",
"R  c #791E46",
"E  c #672447",
"W  c #79224A",
"Q  c #7C2A53",
"!  c #7A3356",
"~  c #014443",
"^  c #004B44",
"/  c #014B4B",
"(  c #00544C",
")  c #07504B",
"_  c #015453",
"`  c #015B5B",
"'  c #045956",
"]  c #1C4A4D",
"[  c #35434A",
"{  c #37444B",
"}  c #3C4A52",
"|  c #294F52",
" . c #01615D",
".. c #016463",
"X. c #006C6B",
"o. c #016866",
"O. c #00716E",
"+. c #007474",
"@. c #007C7C",
"#. c #017877",
"$. c #0E6E6F",
"%. c #386C71",
"&. c #44535B",
"*. c #48565E",
"=. c #404D55",
"-. c #725C44",
";. c #6A5742",
":. c #7A644B",
">. c #7D6851",
",. c #4C5A63",
"<. c #505F68",
"1. c #8B5A21",
"2. c #9D7224",
"3. c #A46B20",
"4. c #82244D",
"5. c #8D2D5B",
"6. c #872954",
"7. c #93315E",
"8. c #8E2E5B",
"9. c #A32D5E",
"0. c #953263",
"q. c #993366",
"w. c #9B3569",
"e. c #9D396B",
"r. c #9C3966",
"t. c #922F60",
"y. c #A62E60",
"u. c #A23D6D",
"i. c #A63B6B",
"p. c #A33E71",
"a. c #897259",
"s. c #AA4576",
"d. c #B24B7C",
"f. c #B04777",
"g. c #AF4874",
"h. c #927B64",
"j. c #994870",
"k. c #883C15",
"l. c #01817D",
"z. c #AE921D",
"x. c #CB952D",
"c. c #D3AA29",
"v. c #D4B81D",
"b. c #E4C61F",
"n. c #A68E75",
"m. c #998269",
"M. c #DFC263",
"N. c #017E80",
"B. c #357D82",
"V. c #467D83",
"C. c #B55284",
"Z. c #BC5689",
"A. c #B44E81",
"S. c #C15A88",
"D. c #C35E91",
"F. c #CA6496",
"G. c #D26A9D",
"H. c #CF799C",
"J. c #DB74A7",
"K. c #D56EA1",
"L. c #E27AAD",
"P. c #E57EB1",
"I. c #018384",
"U. c #0C8C85",
"Y. c #018B8C",
"T. c #028887",
"R. c #138E89",
"E. c #19928C",
"W. c #008F91",
"Q. c #009395",
"!. c #009699",
"~. c #009A9C",
"^. c #0A9795",
"/. c #179A98",
"(. c #09928D",
"). c #2E9495",
"_. c #009EA1",
"`. c #01A2A5",
"'. c #01A6A9",
"]. c #03A9AC",
"[. c #0AABAE",
"{. c #0CA3A3",
"}. c #18A7A8",
"|. c #0EACB0",
" X c #13AEB2",
".X c #19AFB4",
"XX c #1DB1B6",
"oX c #25A7A8",
"OX c #2CB5BB",
"+X c #24B2B7",
"@X c #35B8BE",
"#X c #35B7BC",
"$X c #2CABAC",
"%X c #289DA0",
"&X c #4BB2B7",
"*X c #4E979E",
"=X c #3CBAC1",
"-X c #34BAC0",
";X c #43BCC3",
":X c #4ABEC5",
">X c #59BDC4",
",X c #65BEC7",
"<X c #4FC0C7",
"1X c #54C1C9",
"2X c #5BC4CC",
"3X c #5FC8CB",
"4X c #62C6CE",
"5X c #68C5CC",
"6X c #6BC9D2",
"7X c #66C8D1",
"8X c #73CBD4",
"9X c #7BCED8",
"0X c #78CDD4",
"qX c #B8A188",
"wX c #D0839D",
"eX c #CE8DA3",
"rX c #EC85B7",
"tX c #EF91BB",
"yX c #FD99C9",
"uX c #F48DC0",
"iX c #FFA7CB",
"pX c #FFB3CC",
"aX c #FFBBCC",
"sX c #86D1DA",
"dX c #91D7DD",
"fX c #B0E2E6",
"gX c #9DDAE1",
"hX c #FFC4CC",
"jX c #D4EFF2",
"kX c #FEFFFF",
"lX c #F4FBFC",
"zX c #EAF7F8",
"xX c #F6EDCA",
"cX c #ECDF9E",
/* pixels */
"                                                                                                                                                                ",
"                                                                                                                                                                ",
"                                                                                                                                                                ",
"                                                                                                                                                                ",
"                                                                                                                                                                ",
"                                                                                                                                                                ",
"                                                                                                                                                                ",
"                                                                                                                                                                ",
"                                                                                                                                                                ",
"                                                                                                                                                                ",
"                                                                                                                                                                ",
"                                                                                                                                                                ",
"                                                              . . . X X . . X . o o . . . . . . . .                                                             ",
"                                                  . . . o = e s D ) $.$.%.).).).*X).*X).*X%.%.%.| ] y - O . .                                                   ",
"                                            . . & e ^ ` O.l.U.R.E.oXOX+XOX;X&X$X).&X3X1X4X6X6X8X0X5X5X,X*X*X| y $ . .                                           ",
"                                      . . & d ' O.l.T.T.U.U.^.}.+XOX+X)./.%XoX).).%X&X&X&X5X8X8X9X0XsXsX9X9X8X,X&X%.g o .                                       ",
"                                  . . * ~ o.+.@.N.N.T.~.{.{.}.XX+XOX-X$X$X$X&X:X:X:X>X>X,X5X8X9XsXsXsX9XsXsXgXdXsX7X>X*X] ; .                                   ",
"                                . . s o.I.T.Y.W.N.N.I.Q.{.}.XXXX+X+X#X-X;X=X;X:X>X2X2X4X6X6X8X9XsXsXsXsXsXjXkXkXzXjXdX4X<X$X] o .                               ",
"                            . . . &  .@.Y.W.!.~._.~.~.N.(.{..X}.}.$X#X-X=X;X;X:X:X>X4X4X7X6X8X9X9XsXsXsXsXjXkXkXkXkXkXjXdX1X;XB.7 .                             ",
"                          . . . 4 o.N.I.Y.W.Q.~._.'.].'.[. X.X/./.+XOX-X=X=X;X:X:X2X>X4X6X6X8X8X9X9XsX9X8XfXkXkXkXkXkXkXlXfX3X=X%Xd .                           ",
"                        . . . . p N.N.I.T.W.Q.~._.`.'.].[. X X.X.X+X#X-X=X=X;X:X<X2X2X2X4X6X6X8X8X8X9X8X8X9XjXlXkXkXkXkXkXkXjX9X=XoXd .                         ",
"                        . . . . q @.N.I.T.W.Q.!._.`.'.].[. X XXX+X+X+X#X-X=X;X;X:X1X2X2X3X7X6X6X5X8X8X8X8X6X9XjXkXkXkXkXkXkXkXlXsX@X%Xu .                       ",
"                      . & q 9 9 & ..N.I.T.W.Q.!._._.'.].].|. X.X.X+XOXOX-X=X=X:X:X1X:X2X3X4X7X7X6X6X6X6X5X7X,X8XjXkXkXkXkXkXkXkXlXsXOXE.o .                     ",
"                    . o a / ..X._ ` N.N.I.Y.W.Q.!._.`.].].|.|..XXX+XOXOX-X-X=X=X:X:X:X:X1X1X3X3X,X7X4X4X4X,X2X>X4XfXkXkXkXkXkXkXkXlX6X+X' .                     ",
"                    . e / / ..X.+.+.N.N.N.Q.Q.!.~._.`.'.].[.|. X.XXX+X-XOX-X-X=X;X<X<X<X<X<X1X1X2X3X2X2X2X2X1X<X<X1XsXzXkXkXkXkXkXkXjX@X/.q .                   ",
"                  . . w ~ ~ ' X.+.+.N.N.N.!.N.~.!._._.`.].].[. X XXXXX+X+X-X=X$X$X&X=X<X<X<X<X<X1X1X1X1X1X1X1X<X:X:X;X2XgXzXkXkXkXkXkX0XXX' .                   ",
"                  . . p ~ / _ o.X.+.+.N.N.N.N.Q.!.~._.`.'.].[.|. X.XXX+X+XOX-XoXE.%X#X<X<X<X<X<X<X<X<X<X<X<X<X;X:X;X=X=X@X2XgXjXlXkXkX0X X^.& .                 ",
"                  . o s U ~ / ` X.+.+.+.N.N.W.!.N.!.~._.'.].].[.|. X.X+X+X}.%X/.E.E.%X&X-X;X=X<X:X:X<X;X<X;X<X;X=X=X=X@X#X#XOX@X2X6X3X+X X[.a .                 ",
"                . . o p U ~ ~ _ ..+.+.N.N.N.N.N.!.!.!._.`.'.].[.[.[.{././.E.R.R.E.E.E.$X=X=X=X;X=X=X;X;X;X=X=X;X@X@X#X#XOXOX+XXXXX X|.|.[.[.o..                 ",
"                . . . q a ~ ~ / _ ..+.$.N.N.N.N.N.!.!.!._.`.'.'.^.U.U.U.U.R.R.R.R.E.E./.#X@X@X@X=X=X=X=X=X@X@X@X@X#XOXOXOX+X+XXXXX X X[.[.].N..                 ",
"                . . . . w U ~ / / _ X.N.X.N.N.N.N.~.!.!.!.Q.N.N.T.T.U.U.U.U.R.R.R.E.R.E.oX$X#X#X#X#X#X@X@XOX@XOXOXOX+X+XXXXXXX.X X}.[.[.].Y.e . .               ",
"                . . e w p a ~ ~ / / _ X.N.N.N.N.Q.N.Q.!.!.!.'.'.`.`._.~.(.U.U.U.R.R.R.R.R.R.E.E./.}.oXoX$X+XOXOX+X+X+X+X.X}./.(.(.Y.T.~.]./ . . .               ",
"                . o p p s a U ~ / / / _ ..+.N.N.N.Y.Y.W.Q.!._._.`.'.'.[.[.{.^.(.U.U.R.R././.}.}.%X}.oX}.oXXX+X+XXXXXXX}.(.U.U.T.T.T.^.`.`.U . . .               ",
"              . . & w p s a a ~ U / / _ _ ` o.+.N.N.Y.Y.W.Q.!.~._.`.'.'.'.[.[.{.^.^.{.}.XXXXXXXXXXXXXX+XXXXXXXXX.XXX X X{.{.{.{.`.`.'._.+.U U q .               ",
"              . o * 4 w p a a D U / / / / _ ` ` X.+.N.Y.W.W.Q.!.~._.`.`.'.].].[.[.[.}.{.}. X X.X.X.X.X.XXX X X X X X|.|.[.].].].'.`.`.!.T.Q.!.` .               ",
"              . o * 4 q w p s a U ~ / / / _ _ ` ` ..o.+.N.T.W.Q.!.!.~._.`.'.'.'.].].{.Q.(.{.|.|.|.|. X X|. X|.|.[.[.].[.].].'.].`._._.!.!.Q.W./ .               ",
"              . o * 4 4 e e p a U U ~ / / / _ _ ' ` ....o.X.+.N.T.Q.Q.!.~._.`.'.].].].].].`.].[.[.[.[.[.[.[.[.[.'.[.'.'.].'.`._._.~.!.Q.W.Y.o.o .               ",
"              . o & * * 4 4 e e p U U ~ / / / _ _ ` ` ` ..o.o.o.X.+.@.I.T.W.Q.~.~.`.'.'.'.].].].].].].].].].'.'.'.'.'.'.`.~.~.Q.W.Y.I.@.+.X._ o .               ",
"              . o & * * 4 4 4 e e w p U U / / _ _ ' ' ` ` ....o.o.X.X.O.+.+.#.@.l.I.T.Y.W.W.Q.!.!.!.~.~.~.!.!.!.!.Q.W.T.T.l.l.#.+.+.O.X.o.o. .* .               ",
"              . o & * & 4 4 4 4 e e e w p p a U / / _ _ ` `  ...o.o.X.X.X.+.+.+.+.#.#.#.@.l.l.l.l.l.l.l.l.l.l.@.@.#.#.+.+.+.+.+.X.X.o..... .` d .               ",
"              . o & & & * 4 4 4 q e e e w e d p d s D D ^ ( / ( ' ` `  ...o.o.o.o.O.O.O.O.O.O.+.O.O.O.O.X.O.X.X.o.o. . . . .' ( ( ( ( ^ ^ ^ D p .               ",
"              . o & & & & * 4 4 4 * 4 * o & e d p p d s s s D D D D ^ ^ ^ ^ ^ ( ( ( ( ( ( ( ( ( ( ( ( ( ( ( ( ( ( ( ( ) ^ ^ ^ ^ D ^ ^ D D D D d .               ",
"              . . o o o o o o o o . . . . . & & & & & & * & & * & * * * * 4 * * 4 4 4 4 4 4 4 4 4 4 4 4 4 4 4 4 4 4 4 4 4 4 4 4 4 * * 4 * & * & .               ",
"          . . . . . . . . . . o . X o . . . . . . . . . . . . . o o . X X o X X X o X . o X . O o o o X . o . o . . . . . . . . X . . . . . . . . . .           ",
"        . O ; ; - $ . $ u u u u t i i i o . . . . . . . . X r h [ [ { { } } } =.=.=.=.} } { { { { [ I I [ g h h h g h f h g i i y y t u r u - - 7 ; O .         ",
"        . $ - - 2 - u t y i i g g g g f O . . . . o - y h [ } =.=.&.&.*.*.*.,.<.<.<.<.<.,.*.*.&.&.=.{ [ [ } } [ [ [ [ ] P h g g g g f i i t j r r u ; .         ",
"        X ; - 8 r r r t t y i i i g y O . $ 7 f g P [ { } } } =.=.&.&.*.*.*.,.,.,.<.*.,.*.*.&.&.[ j h =.} } { [ [ P [ g P P P g g f f i y t t r r r - . .       ",
"        . ; - - - - u r r t t i g u o $ u g h P P [ [ [ { { } =.} =.=.=.&.&.*.*.*.*.*.*.&.=.j - j I =.{ { { [ [ [ h P P g g g g f f f i t t r r - - - . .       ",
"        . $ ; ; ; ; - - - 7 7 u - $ - t i i f f f g g g h h h h P P I I I I [ I { I h i ; $ - h h h h h h h h h y y f i i y y t t t 7 t 7 7 - ; ; ; $ .         ",
"        . $ ; $ ; ; - 7 - 7 7 7 7 r t t y i i i f f f f g h h h h h P P h h r ; ; ; $ O 8 j I h h [ h h f y 8 $ ; y f f y y y t t 7 7 7 7 7 - 7 ; ; $ .         ",
"        . X $ $ $ $ ; $ ; ; - - - u - u u u u t t t t y y y i i f f u o O O . . . . $ i f f f f f r - $ o . . . 8 r r r u u 7 7 7 9 - ; ; ; = ; ; $ . .         ",
"          . . . . . . X . X . X X . . . . . o . . . . O X . X o X X + X X X X X X X + O + + X + O X X X X . X X X O O . X X . X X X X X X . . . . . .           ",
"                  . X v b b v b b + X # # 2 , 2 2 2 2 2 6 2 2 # . 0 6.Q 4.4.4.4.4.4.R R V R V R V V V V B B N b b b v b b v b b b b v b v X .                   ",
"                  . + b N N N C C + X # # 2 6 5 5 5 5 x 5 5 5 5 . M w.y.y.y.y.y.9.9.9.9.9.4.4.V R V V V B m m b b b b v v b b N N N N N b + .                   ",
"                  . + b N N N C B + . # 6 5 Z 5 Z c Z Z Z c Z x X n w.q.y.y.y.y.y.y.9.4.v + @ @ @ @ @ . O @ @ O X X O @ @ X + < b N N N N % .                   ",
"                  . + N N N B C B @ # 5 5 6 6 5 Z H H G K G K H O M q.q.9.9.9.y.y.y.4.: @ @ , 1.2.2.1.@ c 3.2.2.S # 1.2.2.S X X + b N N N : .                   ",
"                  . < T T T W 4.Q % X O # 6 5 G J J -.-.J K J G O n q.g.S.d.S.S.S.d.0 X k l : F b.v.L @ 3 z.b.z., X F b.v.6 > k X < T T T 1 .                   ",
"                  . 0 w.w.e.p.d.s.< . 6 G ;.:.:.:.-.-.-.J :.-.G O n q.H.pXiXpXpXiXeX# > l l > , z.z.: k > c v.L : k 3 z.F : l l + % 5.q.w.n .                   ",
"                  . @ E w.p.s.A.A.8 @ G J ;.:.;.G H K :.:.:.>.G # n r.H.pXpXpXpXpXeX$ > l l l > 3 3 > l l : x @ k l : 3 , k l l : + 5.q.w.M .                   ",
"                  . . M w.p.s.A.A.2 6 J J :.Z 2 6 L 6 2 ;.a.h.-.O n q.wXaXaXpXpXpXeXO > l l l l > > l l l k > k l l l > k l l l : $ 5.q.q.Y .                   ",
"                  . % 5.e.e.p.C.C.2 j ;.:.A 3 3.M.xXM.2.# >.m.>.# n r.wXhXaXaXaXaXeXO > l l k l l l l l l l l l l l l l k l l l : + 5.q.0.E .                   ",
"                  . E q.e.e.e.C.C.< 5 :.a.2 F c.M.xXxXM.c H n.h.# n r.wXhXhXhXaXaXeXO > l l l l l l l k k l l k k l l l l l l l : + 5.q.0.V .                   ",
"                  + 5.q.u.p.u.C.C.8 5 a.:.# 1.x.x.c.c.x.c 5 n.m.# n 7.wXhXhXhXaXaXeXO > l l l l l k : X . : l : X X : l l l l l : % 5.q.5.V X                   ",
"                . + W q.e.p.s.C.C.2 5 h.a.2 b 3.3.3.3.1.# G n.n.; n 7.wXhXhXhXaXhXeXO > l l l l > . . . . : k @ . . . @ k l l l : $ 6.q.5.Y X                   ",
"                . . n 0.e.p.s.A.C.0 2 a.h.K # z S k.S , 5 h.qXh.$ M q.wXhXhXhXaXaXeXO > l l l > X . . . . : : @ . . . O @ k l l : @ Q 6.4.Y +                   ",
"                . . Y w.5.5.0.d.Z.A o ;.h.h.;.5 2 2 2 A h.qXn.G o E q.wXaXaXaXpXpXeX$ > l l k . F L . . . , 2.6 . . . F c : l l : + W 4.4.T +                   ",
"                . X Q t.6.6.w.A.Z.j.+ - ;.>.a.:.-.-.:.h.n.h.;.% < t.0.eXaXaXpXpXpXtX2 @ l l : 5 v.v.6 . . 2.b.z.@ . c b.z.# k k X 0 t.6.Q T +                   ",
"                . . 0 4.4.0.s.d.Z.D.E @ # Z K ;.-.-.:.a.-.A $ % Q w.p.tXpXpXpXpXpXtX! + X > , 2.c.c.3.X x z.v.x.c X 2.c.c.c @ @ + Q q.0.6.T @                   ",
"                . . % Q 5.t.p.p.C.Z.C.Q 1 $ O # # $ # $ @ % n 5.q.q.G.iXiXpXiXiXiXtXs.Q 0 X % x x c 5 X 3 x x x 2 O x 5 x 3 + 0 Q q.q.0.4.T +                   ",
"                . O E w.q.q.e.t.s.Z.D.C.e.Q E Y Y Y Y Y E 5.0.0.p.F.iXiXiXiXiXiXiXiXF.p.e.! E E E E E E E E E E E E Y Y E Y Q 0.q.q.q.0.5.Y +                   ",
"                . < t.q.q.q.w.5.8.s.Z.D.D.C.s.s.s.s.s.s.s.s.A.F.rXiXyXiXiXiXyXiXyXiXtXS.p.p.p.p.u.p.e.p.w.w.q.w.w.w.w.q.q.q.q.q.q.0.q.q.w.E X                   ",
"                . < t.q.q.q.5.6.5.7.s.Z.F.F.G.K.J.J.P.rXtXuXuXyXyXiXyXiXyXyXyXyXyXyXyXuXJ.Z.Z.Z.C.A.A.s.s.s.s.e.e.w.q.q.q.q.0.q.q.q.q.q.w.E .                   ",
"                . % 5.q.q.t.4.4.6.8.7.u.d.D.G.G.K.L.rXrXrXtXrXL.J.P.tXyXyXyXyXyXyXuXtXrXrXrXL.L.K.G.F.D.S.C.A.s.p.w.q.q.q.q.q.q.q.0.w.w.Q < .                   ",
"                  . Y q.q.q.t.5.8.5.7.7.u.C.D.F.G.K.J.J.J.K.F.F.G.G.P.tXrXP.uXtXtXtXrXrXL.L.J.K.G.F.F.Z.C.d.p.p.w.w.q.q.q.w.q.q.q.q.0.W 0 . .                   ",
"                  . % T 6.5.t.q.0.q.0.s.d.C.S.D.F.F.G.G.K.K.J.L.L.L.L.L.L.L.L.L.L.J.G.G.G.F.F.S.Z.Z.C.d.s.s.u.e.0.0.0.0.0.0.0.0.t.t.Q % . .                     ",
"                    . 0 T R R R W Q 6.6.8.0.7.i.e.p.s.s.f.g.f.f.f.f.g.g.f.f.f.f.f.i.g.s.s.s.s.7.r.0.8.5.6.6.W 4.W 4.W W R 4.R R R R R % . .                     ",
"                      . < V V T V V W R W 4.6.5.8.7.7.r.r.y.e.u.s.i.s.g.i.s.s.i.i.7.W 8.r.7.7.8.8.6.6.4.W R T T R T T T T T T T T T V % .                       ",
"                        . X 1 v N N N B B C V V m m V V W 4.4.6.6.6.4.6.4.6.4.4.W < . # M W W W T W R V C C B C C N B B B B B b b v % .                         ",
"                            . . + % < 1 1 1 1 < X . . X % 0 v n v v 1 < @ @ + + . . . . . X + % 1 1 1 1 1 1 1 1 1 1 1 1 1 1 1 < + X .                           ",
"                                  . . . . . . . . . . . . . . . . . . . . . . . . . . . . . . . . . . . . . . . . . . . . . . . .                               "
};
