/* XPM */
static char *Tile_04_128x128_resized[] = {
/* columns rows colors chars-per-pixel */
"80 80 125 2 ",
"   c #12110F",
".  c #141312",
"X  c #191715",
"o  c #1E1C1A",
"O  c #211E1C",
"+  c #23211E",
"@  c #252321",
"#  c #282624",
"$  c #2A2927",
"%  c #2D2B29",
"&  c #312E2B",
"*  c #36322E",
"=  c #38342F",
"-  c #3B3632",
";  c #3E3934",
":  c #403C37",
">  c #433E39",
",  c #46413C",
"<  c #49443E",
"1  c #4C4641",
"2  c #4E4943",
"3  c #4E4C4A",
"4  c #524C46",
"5  c #554F48",
"6  c #57504A",
"7  c #5A534D",
"8  c #575450",
"9  c #5D5750",
"0  c #5F5852",
"q  c #625C55",
"w  c #665F58",
"e  c #676059",
"r  c #6A635B",
"t  c #6F6760",
"y  c #6D6963",
"u  c #706760",
"i  c #726A62",
"p  c #7B726A",
"a  c #7B7773",
"s  c #7B7875",
"d  c #80776E",
"f  c #847E75",
"g  c #897E72",
"h  c #847E78",
"j  c #878077",
"k  c #8C8176",
"l  c #86817B",
"z  c #8B847C",
"x  c #91877C",
"c  c #94897E",
"v  c #8C8781",
"b  c #8F8983",
"n  c #938C83",
"m  c #998E82",
"M  c #938E89",
"N  c #9D9286",
"B  c #96918C",
"V  c #9B948C",
"C  c #9B9691",
"Z  c #9E9993",
"A  c #A09487",
"S  c #A29689",
"D  c #A5998D",
"F  c #A89C8F",
"G  c #A39D94",
"H  c #AA9E91",
"J  c #A29E99",
"K  c #AEA194",
"L  c #A6A19A",
"P  c #ACA49B",
"I  c #AFA89F",
"U  c #B1A496",
"Y  c #B3A699",
"T  c #B6A99C",
"R  c #B9AC9E",
"E  c #A5A3A1",
"W  c #ABA7A1",
"Q  c #ADA9A2",
"!  c #B4ACA2",
"~  c #BBAEA1",
"^  c #B4AEA8",
"/  c #BEB1A3",
"(  c #B6B2AB",
")  c #BCB4AA",
"_  c #B8B6B0",
"`  c #BEB9B3",
"'  c #C2B4A6",
"]  c #C3B6A9",
"[  c #C5B9AC",
"{  c #CABCAD",
"}  c #C6BCB1",
"|  c #CBBEB1",
" . c #CDC1B4",
".. c #CEC5B9",
"X. c #D2C4B5",
"o. c #D2C7B8",
"O. c #D5CABB",
"+. c #DACCBD",
"@. c #D5CEC1",
"#. c #D9CFC1",
"$. c #D6D0C3",
"%. c #DDD2C4",
"&. c #DED6C9",
"*. c #DED9CD",
"=. c #E1D5C5",
"-. c #E6D8C7",
";. c #E9D9C7",
":. c #E1D7C9",
">. c #E4DACC",
",. c #EADDCC",
"<. c #F0DFCD",
"1. c #E6DFD1",
"2. c #E8DFD1",
"3. c #E6E0D4",
"4. c #ECE3D4",
"5. c #ECE6D9",
"6. c #F2E5D5",
"7. c #F1E8D7",
"8. c #F0E7D9",
"9. c #F3EADB",
"0. c #FDEFDE",
"q. c #F5EFE2",
"w. c #F8EEE0",
"e. c #FCF1E3",
"r. c #FFFAEC",
/* pixels */
"L ) L Q Y H H J T ^ P ! L J G G n N G 0 1 5 4 4 5 4 5 4 4 7 4 4 4 4 2 7 q 0 9 & a D C N D L L T Q Q x L ! R G ) I C / r 2 e 5 0 w < 9 r r q 0 0 0 6 0 0 7 < 9 & ",
"Y X.{ R ' ' U { { H U ] H ~ ' R H ~ ~ : 1 0 4 4 5 5 2 4 7 5 2 4 5 4 4 4 7 5 6 @ x R T ' ] X.[ [ /  .~ F R X.~ X.{ R X.< : 0 5 5 0 7 q 0 q q < 6 < 7 6 < 5 < 7 O ",
"V H S T ' F A X.O.H K H H O.) Y H Y T - 5 w 7 2 4 5 4 7 7 5 4 7 7 5 q 7 4 2 6 @ j T m K T T U Y S K ] / F c F K ~ ~ [ 5 ; 5 7 4 6 r q 0 0 q q 0 < 6 < 7 6 5 9 + ",
"! ' ' ] ' R ' F U ' ~ ..'  .+.+.] S X.4 < 7 0 7 4 5 0 0 q 4 4 7 7 6 2 4 0 q q O Z +.&.[  .Y K [ ..[ H T ' { A ~ R  ./ < , 5 4 5 7 w r q 0 9 6 < 7 q 7 < 5 6 q + ",
"} R N [ H { X.A H T ) [ Y | ~  .{ ~ { = - 5 4 5 5 w r w r 0 7 7 4 5 4 1 4 q r # J +. .o. .@. .}  ./ F S R Y ' Y T U U , : 6 5 9 7 < r r q 0 9 < 7 6 6 6 5 < 7 + ",
"J U X.R ' { / A / Y Y { T ] R V >.{ ..1 > 0 5 5 q r w w w q 0 7 0 5 5 5 7 q q @ b +.O.| [  . .%.o.T m K [ ] Y Y / F { < , 7 5 7 7 < 0 r 9 9 9 7 < 5 7 < 6 < 7 + ",
"P T U m ~ [ F U +.~ Y U Y / ~ U { Y  .4 2 0 7 0 r 0 4 q w 7 0 2 0 7 r r q w w O V %.)  . .&.9.4.$.$.K R D X.c K F Y ~ : , 7 6 5 9 9 r q 6 0 0 < 5 6 7 7 7 7 7 O ",
"n +.T R K T D R @./ { ~ [ |  .R T ) 4.w 4 r 0 5 q 5 q q q 7 4 4 5 5 r r r q r # C &.) [  .O...] &.+.K ~ T H c R A / ~ , , 9 4 7 0 6 0 w w < < 9 < 0 q 6 7 < 7 + ",
"! ' K R Y U U ' K [ Y H ' R F H ] o.4.8 1 t q 7 q w w q 0 5 5 6 7 7 7 w w r u $ V =.%.] +. .~  .{  .K D { H ' [ H Y { > , 7 < 5 6 7 < 7 6 6 7 < 4 6 6 9 6 4 7 + ",
"G ' F S S R U U H U K U U Y { { ) @.:.2 4 q r 0 7 q 0 5 7 7 5 5 0 w 9 5 6 6 w & x S } ] ) ] ) o.]  .K N S T U N Y Y X.4 , 6 5 6 6 < < 7 6 q 9 < 6 6 4 4 < 6 q o ",
"L ' D / T U R o./ D H | R T R ' | } 1.1 3 r q q q q 0 9 0 4 4 6 q q 7 7 5 2 q % M ~ @.}  .....] .. . .] / F A S c T T = : 6 6 9 < 9 0 7 < 6 < 6 6 6 4 7 7 5 5 + ",
"H Y / [ Y H ' ~ U H Y [ ] ] A A *.@.5.5 4 w q r t 7 7 q w w 7 0 w q q r 0 6 w $ M O...O.@.| ] @.O.) +.$.4.T /  .' U R = , 6 5 9 7 7 9 5 < 9 6 7 6 4 6 9 7 4 7 + ",
"C A | X.Y Y K m D R '  .] o.@.U ]  .#.5 7 w w w 7 5 w 8 w r e q w r q q w q u $ V P } =.#.| | 1.%.[ =. .q./ P U A A ' : , 6 5 7 7 6 7 6 < 9 6 6 6 6 9 9 6 4 7 + ",
"W T ] U U | S ' Y S U ~ T ] ..| H ~ 9.0 4 t w q q 0 7 q w w w r q q 4 q 7 w w @ V K U X.] | o.} +.$.+.O.,. .N Y ~ ~ X.< > 5 5 6 9 6 7 6 5 5 < < 6 5 9 6 2 6 0 + ",
"L ' { Y { ..c F ' ' Y N ~ S F F U A } q 4 q q w q 6 1 5 6 q r r 7 7 q q q w w o S O.S H U ] { +.[ o...4.=.[ Y F X.F / < : 5 6 < 6 9 5 6 9 5 < < 6 5 6 6 0 7 7 + ",
"I U F H ' ~ { Y ~ { K / %. .] ' A S Y 1 - 0 9 q q 7 7 2 5 w w w 5 6 q q w q r O L =.U U S K H o.3.O.o. .O.,.+.F { ' H < > 7 6 6 < 9 6 9 9 5 6 5 < 6 < 5 0 5 7 o ",
") { T H { ,.| ] K T ' ] o.] R S H H R > > w 7 6 w 6 0 0 w q e q 4 0 e 0 6 0 e @ n '  .' ~ T K ' ,.T ) +.1.%.) N R ' =.: < q < 7 5 5 7 7 6 6 7 5 4 7 4 5 6 0 q o ",
"P H R ) O.#.} ' T S R | ~ H F H U A S - 7 w q q w 0 0 w 0 q q r 0 6 2 4 0 0 0 + x U N F K K ' ~ T T X.$.) O.[ A D F X.< : < 5 9 6 4 5 7 4 5 6 7 4 5 4 6 2 4 5 o ",
"H ~ | O.,.[ 9.+.' O.<.+.' R X.O.A ~ #.1 > q w u r r r t r r i r i r y r r e 0 $ n H ] / Y +.+.'  .T / T +.+.T  . .U [ 5 < 9 < 0 0 0 7 6 6 0 7 q 0 4 5 q 5 0 0 o ",
"w 1 w 3 > > 0 > > 7 7 < & < > > > : 7 # $ @ $ # # # % # # $ # $ # % $ $ @ @ + o 3 ; 6 2 2 1 0 , 4 ; : - 5 , 2 6 < < < $ & + + + + # + + o + + + + + + + @ @ @   ",
"> > > 2 < 2 > < < < > > : > > > 1 > 5 % s G C ^ J J v S J Z W C ( Z J B J ( Q e , , < 2 < , : < ; , < 1 , : , : , : < # c n z j m b z z D N V F c b z N B Z I 9 ",
"w w w 5 6 7 q q w w w 7 4 6 5 7 w 0 i # Q w.%.[ #.R ' Y | #.=.' { X.{ { @. .<.< 2 e r 9 < 5 7 9 7 7 7 7 0 6 6 6 7 6 q + c K R ] A K [ Y R / ' '  .~ K R S K X.< ",
"r w q 5 4 6 w q q w q 0 q 6 4 4 w w t @ J 5.&.| o.H T A U | ..] / ! ]  .F m %.> 2 q 0 0 7 6 q 7 7 7 0 4 7 7 6 4 5 7 5 + n D K K ' ] ] T  .' K c O. .N U K K R - ",
"w q 7 7 4 6 6 5 7 u w r 9 4 5 q w w q # n 1.:.| =.R N U m R ' O. .T F / T Y ' 1 4 9 7 4 < 4 7 7 6 5 7 6 4 6 4 4 5 4 5 + n R Y U / T F ] ~ T Y F K  .] [ ] K +.7 ",
"4 2 4 4 6 4 4 4 4 q 7 6 4 7 w w w 0 7 # b ~ @.S D T S G A { T m R Y T /  .[ +.; 4 7 4 4 4 6 q 9 5 5 4 4 q 6 7 4 < 7 q + B K N N ' X.N [ T H F F K / o. .9.O.-.< ",
"2 2 4 4 6 4 4 6 2 6 4 6 9 0 q q q 0 8 # M S =.[ m ~ [ ~ F { ~ x N K / / [ T >.: < 7 7 4 4 4 5 4 5 5 7 5 4 0 4 4 4 4 9 + m R F S ' =.T ~ T U / c F 1.&.*.&.%.-.; ",
"6 5 2 6 6 4 6 q 7 6 q 7 q 4 q r q 7 6 @ J -.+.O.' D D | ' c / F T K O.+. .K  .; , 9 6 5 7 5 4 4 4 5 7 5 7 5 2 4 4 2 5 + c +.] ] c ' ) K F V ' T K 2.O.O.2.[ ] , ",
"4 5 6 4 7 7 4 7 q 4 6 4 4 4 q r q 7 6 O V ] H H A A R | { K R T R / o.+./ D X.< , 6 5 6 4 7 7 5 0 9 6 6 4 4 2 6 4 4 7 + n o.O.U S T H R -.1.~ X./  .[ o.o.&.' < ",
"6 7 4 6 4 6 4 2 4 4 4 6 4 4 7 q 0 q 7 @ n T ' H { c F { +.R A U F  .$.T /  .' : 4 7 6 < 4 4 4 7 5 5 5 6 2 4 4 7 q 0 0 + n ]  .T ~ ~ [ R [ $.$.+.>.] +.F ' ;.X.7 ",
"7 7 5 4 4 7 5 6 7 6 7 6 4 4 4 4 5 5 5 @ n S ' ] { U F [ +.U K | K ) %.+. . .+., : 7 7 7 4 5 5 4 5 5 4 6 4 4 7 0 0 e e @ B K ) O. .N O.&.] $.1.%.,. .T ] ~ ' Y : ",
"6 4 6 6 5 q 6 6 7 6 7 6 4 4 4 6 5 2 7 # z T | T S [ H K R R K R / +.,.8.O.Y  .< : 9 0 7 7 5 6 7 4 4 5 4 4 5 e 0 0 q r & B T [ >.[ +.o.%. .%.[ / X.X.T / S S X.< ",
"4 4 4 4 6 7 7 4 6 4 7 0 0 6 5 4 5 2 6 @ J | T ' { H A ' Y [ ' A T ] K R R { { < , q 9 q 4 6 9 e 0 7 4 4 2 7 w 0 q q y % L [ K U / ) R  .%.,.o.T T T T A R ~ ' : ",
"7 4 4 7 q 6 4 4 4 7 7 7 5 2 7 5 2 2 7 O x ] { H ' { Y | S H D H T / F m / 4.O., , 5 0 9 < 9 r e 7 7 6 0 7 e w q r e u + ! q.O./ X. .-.+.+.[ O.[ N U K N U X.' : ",
"7 4 4 4 6 4 4 4 4 6 7 5 4 2 2 5 6 6 7 O S O.} ~ ' +.| X.[ K T { / m F [ K / / * < 7 < 0 q 5 0 0 < 5 5 7 0 7 q 7 9 e i & L r...R ) [ >.%.3.O./ T K [ F [  .R +.5 ",
"7 7 0 4 4 4 4 6 6 7 7 6 2 4 5 4 6 7 7 O D #.~ ] +.' { ' R ' 4.Y K S T R F ~ / : : 5 < e e 5 6 7 7 < < q 0 0 e 9 q r r + V / ..,. . .o.) 7.&. . .N K F  .=.~ R , ",
"7 7 7 4 < 4 4 4 4 6 q 6 4 4 2 7 6 7 q O b Y m H U ' ' Y X.2.X.[ K K S U F A =.4 ; 9 e 0 5 9 5 < 5 < 5 9 9 e q 7 0 q r + L +.>.+./  .3...+.4.+. .~ F ~ +.X.R U < ",
"0 6 4 < 4 4 4 4 4 4 4 4 4 6 7 6 7 6 7 # V ~ H ' ' R ' N R T =.{ R A x X.K F O.; : 7 0 7 2 7 q 7 7 7 0 r 0 5 0 q e 9 q $ L >.T $.O.F ' >.7.+.T F c T F ' [ D X.5 ",
"6 4 4 < 4 6 < 4 4 6 4 6 6 7 7 5 7 4 7 @ V T ~ ' o.A K K H Y [ K +.] F [ F N Y : : 5 0 0 q 7 e e 9 q q r 9 7 q q q e r # B +.$.o. .[ / / U c Y U H c F Y U K Y : ",
"7 7 7 6 7 6 4 6 7 7 7 q q 7 7 7 9 7 q @ W ;.Y X.X.F U X./ Y / =.-.+.+. .D K X.5 , 7 5 q e e e r r u t i e r r r e r i $ Q 0. .%.q.r.{ { 9.O.'  .[ ' Y ' R ' 0.: ",
"* O + O O O # O # @ O # # O @ # @ O @ O 9 6 > 6 4 = < 4 : : : > 2 , 4 , , : < + % # @ % # # # # & + $ + $ $ + + $ @ $ o y 6 < 7 e 9 2 4 < > : < : < < - : : 7 O ",
"h S x v H n l l x H B n g C z b n A m 2 > 1 1 : > < < > > > > > , < < < , : > # a B V b B C L Q z Z Z B B Z Q E Z L L w , 5 2 1 < 6 < : : < < , , : , < < < < + ",
"D U O.W H m S H R [ [ S ' ] Y H m X.{ * 1 q 7 7 7 0 7 7 9 7 5 7 6 7 7 0 7 4 9 % x K / N T { ,.7.%.%.4./ &.8.o.R ..3.7.5 1 e 5 e r r u q 7 r r q q q 0 9 e e i $ ",
"` @.4.1.R { A Y T ' Y D Y m ] F ~ { +.- > 4 4 5 6 < 5 6 < 7 6 6 4 4 4 4 6 4 0 $ Z T N / [ [ =.$.+.$.O./ +.O.T U 1.o. .< 2 6 5 2 7 0 r r q q q r 0 7 9 e q q u + ",
"} O...| [ Y m =.] T S T { ' { K [ K ' : : 2 5 4 7 6 < 5 7 5 5 < 4 4 4 2 4 6 q + P { O.%./ ) $.o.&...O.%. .$.o.U I [ O., < e 2 5 7 0 5 q w r q 7 q q 9 9 e e u + ",
"T ] O.{ F F { &.#.T ~ ' -.[ H { ' | { : > 4 2 7 6 4 0 7 6 7 4 4 5 5 4 7 5 0 0 # Z 1.9.~  .+.+.) / >.*.[  .o.2. .) %.7.3 < r q e q 0 q 0 9 0 r 6 q r q q r e q + ",
"(  .P T [ F [ { | { ~ | ~ ~ A m | T X.6 : 7 1 5 7 < 0 0 7 6 < 4 4 5 5 0 7 7 q # b $.o. .,.@.' ]  .4.*.O.&.4.&.7.[ +.+.5 1 r e e 7 r q 7 6 0 w q 0 r q q r q q + ",
"I w.o.{ >.) ~ ] | { ~ #.| ~ T D H T ' 1 > 7 4 2 5 6 < 6 4 5 4 6 4 6 7 4 0 0 r + ! / ..$.| ..} %. .$.>.+.~ ) +.4.>.X.{ , < e e 0 6 r r 6 6 9 9 r 0 9 r q e e r + ",
"H ]  .%.{ o. .| Y | 4.{ | ' ' ' H U | : : 7 5 5 6 7 7 7 9 6 7 5 0 5 5 5 5 5 r # c { [ / O.>.+... .O.[ [ o.%.) 1. .m ' 4 2 0 7 0 7 0 q 7 6 < < 0 0 7 q r q 9 u + ",
"G  .6.:./ 9. .K T / [ K / O.T U K S { 4 > 6 4 6 7 6 6 7 6 4 4 4 2 6 7 5 7 7 e + n ~ | ,.%.-.+. .] O.O.%.] +.>.+.K c X.7 5 r 0 e e r 4 7 7 4 4 6 7 7 w 0 e r r + ",
"P @. .K R %.T j U / { / T A D U ' U ] < < 6 4 4 7 7 4 4 4 4 6 4 4 4 4 0 r 6 r # J ,.| X. .+.' O./ [ +.&.+. .) =.R H +.6 1 r e e r 7 4 0 7 4 4 4 w r q 0 q e e + ",
"( 1.[ 2. .+.%.Y T ' { K S Y T ' R U X.6 < 6 4 4 6 7 4 4 4 4 6 4 4 4 6 4 7 6 e $ V [ ..$.O.K T ! ..O./ 1.O.]  . .~ T  .< < e e e q 4 4 7 6 4 6 4 e q q w r q q O ",
"U +.| 4.O.[ @.@.T ) N H c R R Y R D [ 5 < q 4 6 6 6 4 4 6 9 7 6 4 4 7 7 5 4 4 $ b | [ T ] &.K  .&. .T o.[ Y K A U X. ., , 6 7 7 4 6 5 5 7 5 7 7 0 6 q w e r u + ",
"T ..) +.O.~ O.] ~ N F F S T R A R R X.> : 7 q 7 4 4 6 4 6 7 0 7 7 7 5 7 0 6 6 @ J T ..[ ) 4.O.[ o.+.+.' [  .K o.-.~ O.5 = 5 4 4 7 7 4 5 4 7 4 4 q w q q e e u + ",
"( @.&. .[ O.%.H K F K ' ' U ' F U T -.> < 5 6 4 4 6 4 9 6 7 6 9 7 7 7 4 6 4 0 @ G / O./ H / ' ,. .) %. .U Y +.>.+./  ., , 0 4 < 4 7 4 4 4 7 w 0 7 4 6 w w q u + ",
"W } o.! $.[ ..K R U T K K K ' A T X.{ q : 6 5 4 2 5 7 6 4 7 6 6 7 7 6 6 4 2 7 % n  . .O.T U { +.~ Y ] T  .)  .o. .~ ~ , ; 6 7 5 4 7 5 6 7 4 7 7 5 5 q e e w u # ",
"} ..I { 5./ } H ' F R T T D ' X.[ [ +.4 : 7 4 6 6 4 4 4 4 7 6 6 7 7 q 0 6 4 0 # W | [ X.X./ -.] ~ ~ H ~ ,.' Y ] Y N X.< ; 6 2 4 4 4 5 4 4 4 6 7 7 6 q r e q u # ",
"Q / ..o.8.7.3./ T Y U ] { H Y %.[ R +.> < 7 4 6 7 2 4 4 6 6 4 q 6 7 4 4 4 4 7 + C X.] 4.+. .$.K  .4.U ~ -.]  .'  .Y / < , 6 < 0 0 5 4 4 4 6 7 7 q w q q e q t # ",
") $.o.$.o.X.)  .K K ~ X.] ' A T ~ S R 1 > 7 7 6 7 4 4 4 q q 6 7 6 5 4 4 4 6 6 O L  .K  .)  ./ /  .] T / ) P +.~ c c R , < q 7 0 q 0 7 5 7 e 0 w w q 0 e r 0 e @ ",
"( +.r.9.>.o.+.-.+.R K X.X.X.+.R R R +.4 < w 6 7 q 4 7 q q q q 6 7 7 7 9 6 4 7 O ` +.;.=.] ! Y  .+.) o.&.+.+. .X.' X.<.< 6 r 9 7 7 7 e r r r r r r r q r r e p # ",
"8 > 0 3 0 6 9 q , = ; > < < < : > 1 4 # $ @ O O @ O @ # O O O @ + + + $ @ + O   7 < < 5 5 , ; 1 2 , 2 8 6 2 , : 5 4 < O * + + + + o + $ % $ # # @ @ $ # $ @ # X ",
"0 2 2 3 < < 5 < < , : : , , : < 1 > < # v V n m z H C Z G G V M j f c f N V G e ; < , , , : : , 2 < = < 4 , : , ; ; , # a N n j N L n S z b L I ( Q B C J P ( 8 ",
"e e y r r w r r r q q q 5 5 6 0 4 4 7 o ) X.] X.X.R / ] ' H  .[ Y m U Y / S X.1 < r q 9 e 0 7 e e 0 6 r q 5 5 4 5 4 7 # z / ~ R R X.T R A U +.O.%.+.] ,.2.} O.> ",
"2 0 0 q w q r u q 0 0 q 9 5 5 5 7 5 7 o Q %.] Y ~ ] ' ' | U / X.{ ' S H ' R ' > , q r e q q e r 5 0 7 5 4 4 5 < 4 5 5 O m ] S T K F T T { T ] ~ Y K N / } O./ 2 ",
"w w 6 e q q r q r e r q < 5 0 7 7 4 0 O H { ~ R m K ~ { S U F T K D K U X.Y +.2 ; r e 0 e q 0 q 7 7 2 2 4 < 7 2 5 4 7 @ n K H R / T ' T T T F ] / T K K S | 3.4 ",
"7 q q w q w e w r r r 0 < 6 5 7 5 7 q + N U K / ' T ' X./ F F K H S H X.[ D { > : < w w 0 w 7 7 6 0 6 < 5 5 7 < 5 4 9 # V Y Y K X.A R O.R D m U K [ { O. .K 8.0 ",
"w r q e r q w q q q r 6 < 7 5 5 7 5 7 O N [ T K K ~ O.~ R F F D ~ U H ' { U X.> : 7 9 9 7 u 0 < 6 7 7 5 6 5 5 6 7 4 5 @ f Y H F R F R [ [ { A U K T { P ]  .&.< ",
"7 q r q q w q r 7 5 q 7 5 5 < 6 5 7 r # c Y S Y T ~ ' A / T ~ Y D ~ k F ' c ' > > q 6 6 q 0 6 < 7 6 < 9 5 0 < < 4 4 6 O H ~ R ' H X.T F | F A [ T / H S / =.4.< ",
"< 6 r w w r w q 7 5 < < 6 < 7 7 7 5 0 # x T F R ' [ T K [ R F F / A ~ R { F { 6 : w 0 < 6 6 6 6 < 5 6 6 7 6 5 7 6 6 7 @ Z ~ ~ ] | @.' Y N R A ] K / D ] ~ @.+., ",
"7 w r w 5 6 7 7 0 < 6 5 6 6 < 0 6 5 7 @ x { [ F D F ' S D T F F U H ' A U X.U : : 7 7 6 0 < 6 < 6 < < 7 7 6 5 7 7 4 6 # n Y K T S [ | Y T K K { 5.&.T / T X.&.5 ",
"i r 7 0 6 6 0 5 7 < < 6 < < 5 < 7 7 7 + c R +.{ / R D S H { R [ ' D U Y K ' / < < 6 0 7 0 0 0 6 4 5 5 5 5 5 5 7 q 7 q # V ' m ' o.{  .Y H ' K K [ @.&.5.] *.1.4 ",
"w q 7 7 7 7 q 4 7 7 6 < 6 7 7 6 6 9 0 # c Y Y F F R R Y ~ =.[ T R R U U ~ ' { 6 : 7 7 0 q 0 0 7 4 5 < 7 < 0 7 < 6 7 q @ M Y R | } | { R U ' D ' ]  .{ >. .} 6.4 ",
"4 4 4 4 6 r 4 1 < 5 6 < 6 0 9 < < 6 0 # A X.U F Y S K { U ' R Y D Y R c H ~ X.< : < 6 0 q r q q q 5 5 0 6 < 5 5 6 4 6 O L X.H { ' } K A K D R { V / ] / ' ..] > ",
"5 6 4 1 9 7 < 5 4 5 9 4 < 6 6 < 1 4 5 O H o.[ [ R A U Y { U S ' U { Y ' | K F > : 5 9 q 9 w r q 0 6 5 6 9 5 5 9 7 5 6 & n X.' A [ ] +.] S N F H ' T [ [ S ~ X.2 ",
"4 5 4 4 6 5 5 4 9 9 6 9 6 6 9 0 2 6 6 @ J Y R R Y F D R T / U Y F x ~ { U ' ' > < q 7 9 q 7 w w q r 7 4 < 6 4 6 7 6 6 + x F ' T ] 5.+.R F Y D c Y F ' X.A F +.< ",
"4 6 1 4 4 < 9 6 q 7 < q w 6 6 7 4 6 7 @ Z S F { R T T Y D ' ' ' K U ' | ~ H X.< 2 6 7 w w 7 r w 7 w w 7 6 5 6 4 7 7 0 & k { ' S ..] T ~ R H S n m ] | +.P A T > ",
"4 6 7 5 4 5 5 7 4 < 6 9 0 q < 6 6 4 6 O d Y Y Y R U ' Y U { R T ~ R A F F H { > : 7 6 q q w r 5 7 0 q 7 4 4 6 < 4 6 9 # m H U ' D G ~ ~ R [ { K X./ [ X.T H A - ",
"4 6 9 q 6 6 5 4 < 6 < 6 6 6 < 6 6 7 7 @ n { X.O.U T ] R R X.A m K A K D Y m Y > : 7 4 4 5 w 7 4 5 7 9 9 6 6 6 9 6 4 6 + c ' K g T ..=.| T Y :.] +.$.X.Y T ] U - ",
"4 7 7 6 4 4 6 5 6 6 6 < < < 6 6 6 6 6 O n ' S ] R U S Y ] R m [ U F Y R R U X.4 > 7 4 7 7 4 5 < 5 0 6 7 4 6 6 6 6 < 5 # k Y ~ R O.+.T X.%.~ ! H  .@.@.Y S m R - ",
"6 9 7 7 5 7 q q 9 9 7 7 w 0 6 6 7 w r @ N X.{ ' ' ' D +.o.' U +.[ / K K R ' { 4 > w q 7 5 7 7 4 0 q w 9 7 7 7 9 9 6 9 # S +.+.+.U ~ ] @.9.#.>.#.e.$.=.{ R { X.> ",
"& + + + O O O + O O + + + + O O O @ + . 4 = : 4 > < : > : > < < 4 : * : < > = O # O + O O + O O O + # O O o O O o O O   0 0 < < : = : 1 2 > 8 1 6 > < 1 - 4 6   "
};
