/* XPM */
static char *__resized[] = {
/* columns rows colors chars-per-pixel */
"80 80 35 1 ",
"  c #2B2A27",
". c #2D2C29",
"X c #302F2C",
"o c #33312E",
"O c #363431",
"+ c #393733",
"@ c #3B3936",
"# c #3E3C39",
"$ c #413E3B",
"% c #44413E",
"& c #464441",
"* c #494643",
"= c #4D4947",
"- c #4E4A48",
"; c #504C47",
": c #524E4A",
"> c #57524D",
", c #58534E",
"< c #575451",
"1 c #5B5652",
"2 c #5D5955",
"3 c #5F5C58",
"4 c #605C57",
"5 c #625E5B",
"6 c #64615E",
"7 c #68635F",
"8 c #676360",
"9 c #696662",
"0 c #6D6A66",
"q c #6F6B68",
"w c #716D6A",
"e c #75716E",
"r c #78736F",
"t c #777370",
"y c #787470",
/* pixels */
">,>,,,,49999999977979989978977979997979977q77077099792@@+:9969999799999999997999",
">>26555799weeweeeeeeeeeeeeeeeeeeeeweeewewe077eeeq7999621$*222699779qweweewwee079",
">>49999999rwerrrryrrwerryyrryyyryyyyyyyyyyewerryeqqwqweq1<22*30qwwweyyyyyewyyeq9",
">>49998999w00w9wryyr0erryrrryyrrweeweeeyrrryrryyyyeyyyeyw096=3wyyrryyyyyyeqyyew9",
",>499899996571$5errryyyyyyrrrrr00909900yyyyreeyyyy0eyeyyeeq999eeyyyyyyyyrrrrew97",
">>49998995&:1;$5eyrryyyyyrrryyrreeeeeeeyeeyq27eyyyyyyyyyeeeeeeeyryyryyyyw9999997",
">>4989951<$,545wryry0eyyr00eyyyryytyyyye:162,7eeyyyyyyyyyyyyyqeeryyyyyyyr7=,1249",
">>49999<=4:5090rwwww7eew0<30wwwwwwwwwww9#>2267qeyywqqwwweeyyyeeewwwwwwwww7>1;%:9",
">>46556:*5555570755550763$<6553355656654#16666670066666666000007555555455554*$*5",
">>>,,,,,>,>>,,,,>>,,,,,,<<<<<<<<<>>>>>,:#;,>>>>>,,>>>>>>,,,,,,,,>>,,,,>;,,,>,>,>",
">>>:,,>:>>>>>>>>>>>>>>>>>><:<:<<>>>>>>>>::>>>>>>>>>>>>>>,>>>:,,,;>>;,;;=,,=;>>-:",
"++++++++++++++++++++++O++O@O@O@@+++++++@+++++++++++++o++++++++++X$$$$$$$$$$X$$$o",
"           X    ................. ..............  ...... ...  ..  X             ",
"+@@$$%$##$@X X X.X..................X................X..X ..X .X X ...$$$$$$$$O$",
",5999w00885$ X X......................X.................. ..X..     .$59we0794,,",
"78qrrtewrr9$   X..X.XXX.X.X.X.....X......X.XX.X.X..X X.X XX ...XX.X  X0eryre0777",
"999wyyyyte9# +::::::::::-<&##&&&%%%%*%O$%%%%%%%%%%%%$&&*$@OOO$$%%%%$ Oqyyytq4149",
"334477eyte9# #336866666666<&&&--:--->-$$%%=-----;;;;;-:::*$$@$*:---# Oqyyye91,19",
">>>>>,0ree9# +<589000000003<-&&-----:-%%$+%-------;;--;:::;&$$%-*-*$ O9eyye91,16",
">,>>>,qye88# O-<6qyyttttye06<=&&-----*%**%=--------;----:::=%%**#&*$ O5eyyt91,,,",
">>>>>,qrq16$.O=$<wyytytyyteq3<=&*------::>:-----------------:>:*%$$X O3eyye92>>>",
",>,>>,0e616#.o%&<6wyttwwtqeeq3<=%*-----:->:-----------------:;:>:-&$ O5eyye91>>>",
">>>,>,0q648# O&&-<6wyy6<eqeyeq3<=**------:--------------------->,:-# O5weew91>>>",
",>>>>,qw908# O-&&-<8ey5<ee0qytq3>-%*----------------------------:--@ O59we092>>>",
">>>,>,0qqe7$ O--&&-3eyte0e-<tttq5>-%*-----------------------------:$ X470rr92>,>",
">,>>>,60re,+ +---&&:wyyteteqqtye05:=%*---------=------------------=$ o4->qr91>>>",
",>,>>,6wre%o O-;--&&<wyyyyyteyyeeq5<=**----------=$*----$$$-----=-*$ O447ee92>,>",
">>,>,,6qr7>+ O-;---&&<8qyyttytweyeq5:=**----------%-::::*$@$----===$ O5qee092>>>",
">,>,>,6qe00% o=;--:=&&-<qeeete30tw805<*&*----------:>:>>:&$$=------$ X4eye09,,>>",
">>>,>,6qrre%.o=>:---=&&:<68qtw&3w8*wq5<=&*--------------:;=--------$ $5eyye92>,>",
",>>>>,4qrrr%.+;:<:=---&&-<6qttw0wtwtte9<=%*-------------;---------*$ o5eyye91>>>",
">,,>>,6qyr4@.o=%-<:=--=&&=<8wtyeetytttw5>=*%-----------------------$ o5eyye92>>>",
":,>>>,5006,O O-%$=:---==*&-<6wtyytytyytq3<=&&----------------------$ o5wyye92>>>",
"<>,,>>364,1@ O--%%-----:-**-<6wtyyyyyyttq3<=&&-----------=---------$ o5eyye02>>>",
">>>>,>:><16# O--:------=--&&-<6wyyyyttttyq3<-%&------------<<:<----$ O5eyye91>>>",
">>,>>>%:888$ O------------:&$-10yyyttte9eew3<=&&---------&&&&&*<:--+ o5eyyy92>>,",
">>>,>>15888$ O------:>>>:<<&@%:1qyttte6-<0e03<=&&--------&@@@@%->>>$ o5eyye92>>>",
",>>>>,699w8$ O---:::>=%&&&&%%**-39wey8-%<wye83<=&&-------&$&$@@#*--$.o5eyye02>>,",
">>>,>,69we9# O---=;;:$#$#$$&--&*-<6wt8-<wyte993<-%&----------&##+#$+.o5eyw6<,>>>",
",,>>>,5wye9# O---$@$=-=-==-=---%&-<8wtw9tytte003<-&------------&@@$o.O5wy9$$->>>",
">>>>>,5wyt8# O---$$*------------&&-<6wytyyyyttwq3<*&*-----------=*=+ O5ew74$=>>>",
">,>>>,9rye9$ O--;=*--------------&&-<8wyyyyyyyyyw9<=&&-------------$ o5ew09$=>>>",
">>,>>,wryt8# O--------------------&&-<6wqtyyytyyyt3<-&&-----------=$ O5eewe>>,>>",
",>>>>,9ryt8@ O---------------------&&-<68wyyyyytyyq3<-&*----------=+ O5ette74>>>",
",>,>>,5wyt9$ O--------------*=------&&-<8wyyyyyyyytq3<-&-----------$ O5etyt94>>>",
">>>>,>5wye9$ O--------%$---$@#=------&&-<8qyyyyyyyyeq3<*%*------==-$ O5wyye01>>>",
">>>>,,5wtw-O O--------$$=--==;--------&&-<6qyyyyyyyytq3<-&&----&$$$O O50we07<>>>",
">,,>,,7ee8$X.O-------;**::::::---------&&-<8wyyyyyyyte83<*&&----%$%O O59weww4>,,",
">>>>,,0ye7%O +;=------:::::----=-------=&&-<8wttyyeeye003<&&&------# O69qeyy4>>>",
">,,>,,0re77$ +=;--------:----------------&&-<8wtye0wyttt03<=&=-----# O366qtt4>,>",
">>>>,,0yye7$ O==--------------------------&&-<8wtt9eyytt083<&&&----# O3-1yyt4>>>",
",>,>,,0yye7$ O=;--------------------------=&&-<8wtwtyytteeq6<-&&---# O3%<ytt4>,,",
",>>,>,wyttw$ O:=----------------------------&&-<6wtyyytwtttq3<-&*--# O3%<yyt4>>>",
"%>>>>,7rttt$ O=---::------------=-----------=&&-<6wtyytqetttq3<=&*-# O6<5yte4>>>",
"$;,,>,5wyte$.O---:<:--------------------=--=-=&&-<6wtttttttttq3<*%-# O0eeee91>>>",
"$%,,>,0rtt9$ O=--:-#=------------------=#&&#&#@#&-<89qttttttttq3<-&O.O0-<qe91>>>",
"+;,,,,0yyt9# +--:<-*---------------=$###@&&@#@&==&-<3qtt<8yytytq5>=@ O0=;0e01>>>",
"+%;,>,9wwt9# O--:-*-----------------&&&&&=&&&&:<=&&-<8wt8<8yyyyw74<% O0*;ee71>>>",
"$+%,>>460w9# O--<&&------------------:<:<--<<<--==&&-<6wy8<0tyye006% Oq<4ye02>,>",
">%%>>>>4898# O-:<---------------------------==-----&&-<8wy8-wyyyyy7* Oq0wye01>>>",
">>%%>>>,199# O-#&----------------------------------=&&-<6qteyyyyye9% ow0wye01,,,",
">,%%>,42<18# +-*&-----------------------------------==&-<6qyyyyyyy7* $0eeye91>,>",
">,;%*,663,6# O------------------------------<<--------&&-<6qqeyyyy9% o7eeee02;;>",
">,,;@-495<6# O-----------------------------<<----------&&-<68eeeyw7%.o4wwwe5,;$>",
",>,%%$,7614@.+------;=----------=---------:>$==$*=%*=*==$$;,7w09e95& O59wyw2,>>,",
",>,>%%$:74@. O---====;=-=-----=-===--====-:=$$$$$$$$$$===$*;,441543% O580w991>>>",
",,,,,%o+$@X .XO+O+OO+OO+OOO+O+OO+OOOO$oOo$OOXX   ..XXX$X$  $$$O$@$@o X@#$-991>,,",
"$$$$%%o.    ..                                    ..                .    o**%$$$",
"+++++++++++++++++++++++++++@++++$O++++$O$ .o$$$$o$$$$$o$$$$$$$$$++++@O@+$$$$O$O$",
">>>>,>>>>>>>>>>>>>>>>:>>>>>,>>:>,,>>>>:>>$$$;;>,;;;>;>;;>,$>=;=>>>>>>>:>4755,>:,",
">>>,>>>>>,,,>>>,,,,,,>>,>,,,>1,,,,>,>>,,>>$$>,,,,>>,>>>>,,,,;>,,>>,,,,,,,5w1>>,,",
">>>>>>>2575475571:,,5755555555555555556551$*45555575575555555555655655690we1%:55",
">>>>>>,,,7wwwww7541*:5999wwwwwwwwwwwwwq741><99990wwwwwwww09wwwwwwwwwwwwtye6,$-99",
">>>>>,>%>0ryrrrq005%$1779rreerrreetttte9::4999990rrryeeeewwyyyyytyttttttt921-<99",
">>>>>>,40errrrrrttw81,490rrwwryywqtytyyw$;499999wrrrye90eyyyyyyyyyyytttt09999999",
">>>>>,,470rywwrrtte95440errrryryttytyye6$1999eetryrryyeeeyyyyyyytytytt0944ettew9",
">,%4,,,47000qerrtyte959ryyrrrrryyyyytyw98wew70etrrrrryyyyyyyyyye0tttyte979t0ette",
">>,>,,,,2>7qerrryytrwwryyyyrrryyytyyytewyytewwetrrrryyyyyyyyyyyewtttyytwqet0eew0",
",,>>,,,,>%7weeertteeeweweeeeyrryttreeeweeeeweettrreeeeeeeyyyeyyeeeeeeeeeeeeee099",
">>>,,,,47707779etw779999999wyyyytte99999999979etyr077977eyyyyyye9977997999799997"
};
