/* XPM */
static char *box_obstacle_resized[] = {
/* columns rows colors chars-per-pixel */
"60 83 51 1 ",
"  c None",
". c #4A1D39",
"X c #4F203C",
"o c #51223E",
"O c #2F2343",
"+ c #342545",
"@ c #392746",
"# c #3C2847",
"$ c #3D2948",
"% c #422644",
"& c #4C2542",
"* c #482947",
"= c #472D4C",
"- c #4D2F4D",
"; c #552641",
": c #522844",
"> c #5B2A45",
", c #5E2D49",
"< c #4F304E",
"1 c #55304E",
"2 c #5C324F",
"3 c #543250",
"4 c #5A3452",
"5 c #602D47",
"6 c #602E4A",
"7 c #64324D",
"8 c #68344D",
"9 c #663451",
"0 c #693652",
"q c #6D3A55",
"w c #6F3C58",
"e c #753E55",
"r c #723D59",
"t c #774057",
"y c #784057",
"u c #76405C",
"i c #7A445E",
"p c #7D4660",
"a c #7F4861",
"s c #81475D",
"d c #83495E",
"f c #834A63",
"g c #8A4F65",
"h c #8C5066",
"j c #8D5268",
"k c #93566B",
"l c #97586C",
"z c #9A5B6E",
"x c #9D5D70",
"c c #A05F72",
"v c #A36173",
/* pixels */
"   ............................X..X..X...................   ",
"  Xoooo;ooooo>oo;;;o;oooo;oo;ooooooooooo;;;;oo;ooooo;;;ooo  ",
" o;,7eeuteeeeeteeeeeeeeeeeeeeeeeeeeeeeeeeeeeeeeeeeeeee07,;o ",
".o,qihlllllllllllkxxlllllllzlllzzllllllllllxlllllllzlkjp0,o.",
".o7igklxvvvvvvvvvvvvvvvvvvvvvvvvvvvvvvvvvvvvvvvvvvvvvzkgi7o.",
".;egjgfkvvvvvvvvvcvvvvvcvvvvvvvcvvvvvvvvccvvvvvcvvvclggkgeo.",
".;ellgpgzcczzcvcxxxxccxxccxxcxxzccxxxxvvxxxxccxxcxzlgpflle;.",
".oezxkgpysdhjjjjjjjjjjjgjjhjkjhkjkjjjjhkjjjjkkjjkdsesgkxze;.",
".;elvvle55eippupppipppppippiipipiiiisiiiipipiiipir57yzvvleo.",
".;elvvleo;7rq00wrq00www0999qwrq0890088900099000rr8ooevvvleo.",
".otlvvleo;0r9>,0r9,50r9>;;>9w07;;;;;o>oo;;;;;;;8e7ooezvvleo.",
"Xotcvvzr>>qr9>,wr7;>qr9;.;>0rw>.o;;;>o>o;.;;oo58rq>>tlvvle>.",
".oyzvvxp80ifieyffr70igdeeqesfy>o>8eeeee5;.>8eeedgi08slvvzto.",
".oelvvxgyijzzllzkfrihzzzkllzzd5;qhlxklks5;qhlllczjirgzvvlyo.",
"Xoelvvxgpflvvvvvxgpfkvvvvvcvcg0,yzvvvvvh05izvvvvckfphzvvleoX",
".oelvvxgpfzvvvvvxgpfkvvvvvvvckyqfxvvvvvkerfzvvvvvkfphcvvleo.",
".oylvvchppkxvvvvxgipkxvvcvcvckpigzvccvckppfxvcvvckfpjxvvlr;.",
"Xoelvvxhppkvvvcvxgifkvvvcvcvckfphzvvvcclfpgxvvvvckpigxvvzro.",
".oylvvxgppkxvcvvxgpfkvvcvccvvkfpgzcvcvclapgxvvxvxkfpjxvvle;.",
".oylvvzgpfkvvcvvlfwujxvvccvvckpigxvvvvcjurfxvcvvckfujvvvle;.",
"Xoelvvvjipkcvcvvzy58gcvvccvvckpigzvvcvcg05ilvvvvckfpgxvvleo.",
".oelvvcgpfkcvvvvzy58gcvvvccvvlfpjxvcvvcg7>tlvvvvckpugxvvlto.",
".oezvvzgipkvvcvvzdeikcvcvccvczkgkxvcvvcge7slvvvvckapgxvvle;.",
"Xoezvvzgifkxvvcvvzllzccvccvcvxzzxcvcvvckyrgzvvxvvkfpglvvzeo.",
".oyzvvvgiflzvvccvvvvvcccvvccvcvvvvcvcvckfpglvvvvckpijvvvleoX",
".oelvvchiflvvccvcvvvvccvcccvcvvvvccvvvckppgxvvxvckfihvvvleo.",
"Xoelvvxgifkxvccvvccvvccvvccvccxxxvvccvckfpjxcvcvckfigzvvleo.",
".oelvvzgiplcvvccccvvcvcccccvczkjlxvcvvczjjkxvcvvckfigcvvleoo",
".oelvvxhifkxvvcvcvcvccvccvcvclgfjxvvccvxxxxxvccvckfigzvvlyo.",
"Xoelvvchppkvvvccczzzzvcvcccvclffjxcvcvvxxlxxcvcvckppgxvvlyo.",
".oslvvvdpfkcvvcvckghzcvccvcvvzllzxvccvczjgkxvvvvxkfigxvvleoX",
".oelvvchipkxvcvvzgiflcvcvccvcczcxcccvvxlfpgxvccvvkpphvvvleo.",
".;elvccgpfzcvccczguazccccccccckkzcvvvvvkppgxccvvvlfpgxcvze;.",
".;elvczgiakcvcccxjiflcccccccckgfjxvvvvckppgxvcccclapgxvvle;.",
".;yzvvzfruhlcczlkfipjzzzczzzljpufkzlllljppfkxzlxzgurfxvvle;.",
".;ycvvzs66uffffffiuuaffffffffauupffffgfpuupffffffr76fcvvle;.",
".;elcclr65quiiiiiuuppiipppiuiiuuppppppprupuprpisuq>>elcvleo.",
".oelcljiqesfgffgfgfgfffffffffgggafaffggfgfffgfgffpeeijlcle;.",
".;elzgagjzllczzzzzzzzzzczzczzzzczlzzlzllxzzxzlzzzzkjfigzle;.",
".oekkgajcccccccccvvcccccccccccccvvvvvvvvcccvccvvcvcckffkkeo.",
".o8djjlcccvcvvccvvccvcvvccvcvvccvvvvvvvvvvvvvvvvvvvcxkjgs8;.",
".X6eajlcccccccccxxzzccccczccccczxxxxzzcccccczzcxccczxxkfr5o.",
".X;50esgjhaaghhdpiisssdssiafkhdsispfssifghddssiissssgjjpe,o.",
".Xoo;>6qir7,qiy8,>>5>>>5>>6qie85>>>>>>>7eie5>>>>5;560upuq,o.",
".Xoo;o>7r0,>7w06oo;oooo;oo>9ww,ooo;;&o;,qr9;;oo;o;;;9rppi6..",
".X>6767qrq970rw7776767676690ww9757776579erq9767766670rpgg0;.",
".o,wruruururuuuuururrrrrurwuuuuwrrrrrrrrrrurrrrurrrrruflke;.",
".o6ruuuuuuuuuuuuuuuuuiuuuuuuuuuuiiuuprpurupruuuupurpurflze;.",
".o6wuuuuuuuuuuuuuuuuuuuuuuuuuuuuuuuuuuuuuuuuuuuuuuuuuufkku;.",
".o6wuuuuuuuuuuuuuuuuuuuuuuuuuuuuuuuuuuuuuuuuuuuuuuuruufkkro.",
".o6ruuuuuuuuuuuuuuuuuuuuuuuuuuuuuuuuuuuuuuuuuiiuuuuuuuaff9;.",
".o6wuuuuuuurururrurrrruuurruwuuururururrururrrrrrururruuw6o.",
".X>600779999779797994444444929999779997744444444447979776;o.",
".Xo;ooo>o;o;;;;;;;o&%$$$$$%*o;oo;:;;;;;&%#@###$$#*&;;;;;;oX.",
"..X.XoooooooX.Xo;;o&%++OO+@%o;o;o:oXXXo&#@@@+OOO@#&;oooX..X.",
"X...o,676976;Xo>669,4<$O+=32277676>oX;624333=+O#<46676,oX...",
".X.X;0ruruuq,o;9rururw-+=4wuwurwrr9;o,wrurrr4$+-wrrrrr0;...X",
"....>0uuuuur,o;0uuuuuw1%*9uiuuuuuu0;o,ruuuiu9*%1wiiupr0;o..X",
"X..X>0uuuuiw,o;0uuuuuw,&:9uuuuuuuu0;o,wuuuuu9:&2wuuuur0>....",
"X.XX;0uuuuur7;,0uuuuur6o:9uuuuuuuuq,>7ruuuuu0>o,ruuuufq>X..X",
"...X;0uuuuurq90wuuuuuw6o>0uuuuuuurw97qruuruu9>o6ruuuggi5....",
"X...>0uuuuuurrrrruuuuw6o:9uuururuuuurruuuuuu9;o,rurpjlf7X.XX",
"...X;0uuuuurq0qruuuuur6o;0ruuuuruuuuuuuuuuuu9>o,ruuugjs5..X.",
"XX..>0ruuuur9,,0uuuuuw6o;0uuuuuuuuuuuuuuuuuu9;o,ruuurfq>X...",
"...X;0uuuuur6o;0uuuuur9;>0uuuuuruurwwruuuuuuq>;6ruuuppw:..XX",
".X..;0uuuuur5o;0uuuuurq90wuuuuuuuuw779uuuruuw09qruuufgi6....",
"XX.X>0uuuuur6o;0uuuuurrrrrruuuuuuu9>;6wuuuuurrwruurihlf6X...",
"....>0uuuuuw6o;0uuuuuuw0wwuuuuuuiu9;o,wiuuuuww0wuuuihks6X..X",
".X.X;0uuuuuw6o>8uuuuur9>,quuuuuuuu0>o6eeuuuuq,>9ruuuppr5X...",
"..Xo>0wwwwrq5X;7wrwrrq>o;9wwwwwwwq7;o50ewwwq7;X,0wwqwq9>oXX.",
".X;62,,>5,,,o.X;,,>,,>o.X;,,,>>6,,;..o>5,,,,;X.o,6,,>,,65;..",
".o,w0>ooooXoXXXXooooooXXXoooooooo;oXooXXooooooXXoooooo>0q5o.",
".o6ru07,>>6788888877>>67777878587778888888887896777777qsi8;.",
".o,raffiqwsghhgggggaeqifhhggggggggggggggdhdgghhghggghgjlhq;.",
".o,rakkjiajzzzzzlxzjpifzxxzzzzzzzzzzzxzzxxxxxlzzzxzzzzccle;.",
".o,wafjfiigjjjjjhhjfiiajjjjjjjhhjjjjhhjjhhjjhjjjhjhhjjlcle;.",
".o6wupuuuuuiiiuisiiuuuuiiiiisiiipuppupppspprpuppiiiiiifzle;.",
".o6wuuuuuuuuuuuuuuuuuuuururuttuuuuruuurreeuruuruieirrrajge;.",
".o6wuuuuuuuuuuuuuuuuuuuuuuuuuuuuruuruuruuruuruuruuuuuupai7;.",
".o,wrwrwwwrwwwwwrqqewrwwwrwrqrwqwrrwwrrrrrrrwwrrwwwwrwwrq5X.",
" o,,6,6,66,66,6,6,66666,66,,6,66,6,6,6,66,66,6,666656,,,,;; ",
"  XooooooooooooooXooooXoooooooooooooooooooooooooooo&;.;;o;  ",
"   XX....................................................   "
};
