/* XPM */
static char *L1_resized[] = {
/* columns rows colors chars-per-pixel */
"80 80 114 2 ",
"   c #010101",
".  c #070708",
"X  c #070808",
"o  c #0B0B0C",
"O  c #0E0F11",
"+  c #0F1011",
"@  c #121314",
"#  c #151619",
"$  c #16181B",
"%  c #1A1B1D",
"&  c #20201F",
"*  c #1D1E21",
"=  c #1F2124",
"-  c #222325",
";  c #282727",
":  c #232629",
">  c #26292D",
",  c #2D2D2D",
"<  c #272A30",
"1  c #2C2E32",
"2  c #2E3034",
"3  c #2E3339",
"4  c #353535",
"5  c #383737",
"6  c #383837",
"7  c #33363A",
"8  c #36393D",
"9  c #3C3C3C",
"0  c #363A41",
"q  c #3A3D43",
"w  c #3D3F48",
"e  c #3E4045",
"r  c #3E4249",
"t  c #424242",
"y  c #484747",
"u  c #42464B",
"i  c #46494D",
"p  c #4A4A4B",
"a  c #424750",
"s  c #464A52",
"d  c #4A4D53",
"f  c #4A4F58",
"g  c #4D5055",
"h  c #4D525B",
"j  c #525355",
"k  c #52565C",
"l  c #55595D",
"z  c #5A5B5E",
"x  c #4F5660",
"c  c #515660",
"v  c #545A64",
"b  c #5A5D63",
"n  c #565D69",
"m  c #595F69",
"M  c #5D6065",
"N  c #5C626C",
"B  c #5D6571",
"V  c #5F6875",
"C  c #616365",
"Z  c #62666B",
"A  c #66686D",
"S  c #6A6B6D",
"D  c #606771",
"F  c #636A75",
"G  c #6A6E73",
"H  c #656D7A",
"J  c #686E79",
"K  c #6D7175",
"L  c #67707E",
"P  c #6C727C",
"I  c #727375",
"U  c #73767B",
"Y  c #75787D",
"T  c #7A7B7D",
"R  c #6E7582",
"E  c #717781",
"W  c #747A84",
"Q  c #7A7E83",
"!  c #757D89",
"~  c #797F8A",
"^  c #7E8185",
"/  c #77808B",
"(  c #7D838B",
")  c #7E8691",
"_  c #818285",
"`  c #82868C",
"'  c #85898D",
"]  c #8A8B8D",
"[  c #808690",
"{  c #848A93",
"}  c #8A8D93",
"|  c #878F99",
" . c #898E98",
".. c #908F90",
"X. c #8E9196",
"o. c #8D929B",
"O. c #919295",
"+. c #92959C",
"@. c #95989D",
"#. c #999A9C",
"$. c #9297A0",
"%. c #969AA1",
"&. c #9A9DA3",
"*. c #999EAA",
"=. c #9DA1A9",
"-. c #A1A2A6",
";. c #A3A5AB",
":. c #A6A9AD",
">. c #ABACAE",
",. c #A7ABB1",
"<. c #ACAEB2",
"1. c #AEB1B7",
"2. c #ACB2BB",
"3. c #BABBBC",
/* pixels */
"5 5 5 5 5 5 4 t p y y t y t y y y t t t t 9 9 5 5 , , , 5 5 5 5 5 4 9 y p y y y y y t y t t t t 9 9 9 5 , , , 5 6 6 6 5 5 5 t p y y y y t y t 9 t t 9 9 4 4 , , ",
"5 5 5 5 4 5 4 t p p y y y y p t y t 9 t t t 9 5 5 , , 5 5 5 5 4 5 4 5 y p p t y y y y y y t 9 t t t 5 5 4 , , 6 6 4 4 5 4 4 t p y y y y y t t t 9 t 9 6 4 4 , , ",
"5 5 9 9 t t t t p y y t t t t t t t t 9 9 9 9 9 9 , , , 5 5 t t t t t y y y y y t t t t t t 9 t 9 9 9 6 4 , , 4 6 9 t t t 9 t y y y y y t t t 9 9 t 9 9 9 4 , , ",
"5 5 t p p p t y y t y y t 9 t t 9 t t t 9 9 9 9 9 , , 4 5 9 y p y t t y y y y t t 9 t t 9 t t 9 9 9 9 9 4 , , 4 4 t p p y y y y y t y t t 9 t t t 9 9 9 9 4 , , ",
"9 5 t p p p y t t t y t t t t t t t 9 9 t 9 9 9 9 , , 4 5 6 y p y y y y t t y t t t 9 t 9 t t 9 9 9 9 9 5 , , 6 6 t p y y t y t y y y t 9 t t t 9 9 9 9 9 4 , , ",
"t t t y p t y t t t t t t t t 9 9 t t t 9 9 9 9 9 , , 6 y t y y t y t t t t t t 9 t t 9 t 9 9 9 9 9 9 9 4 , 4 t t y y y y y t t 9 t 9 t t t 9 9 9 9 9 9 9 4 , , ",
"t p t y t p y t t t t 9 t t t t t t 9 t 9 9 9 9 9 , , 9 y t y y y y t 9 t 9 9 9 9 t 9 9 9 9 9 9 9 9 9 9 4 , , t y y y y t y t t t t 9 t t t t t t 9 9 9 9 4 , , ",
"p t y t t t t t 9 t t 9 t 9 9 9 9 t 9 t 9 9 9 6 6 , , 9 y y t t t t t t 9 t 9 t 9 9 9 9 9 6 6 6 9 9 9 9 4 , , t y t t t t t t t 9 t t t 9 9 9 t 9 9 9 9 9 4 , , ",
"y y t 9 9 t t t t t t t 9 9 9 9 9 9 9 9 9 9 9 5 4 , , 9 y t t t t 9 t t t t t t 9 t 9 9 9 , 5 9 5 5 5 5 , , , t y t 9 t t t 9 t t t 9 9 9 9 9 9 9 9 9 6 4 4 , , ",
"t t t t t 9 t 9 t 9 t t 9 9 9 9 9 9 9 9 9 9 6 5 6 , , 6 y t 9 9 t 9 t 9 9 6 6 6 4 4 6 6 9 , 2 , 4 5 5 5 4 , 4 t y t t t 9 t 9 t t t t 9 9 9 9 9 9 9 9 4 6 4 , , ",
"t t 9 t t t 9 t 9 9 9 9 9 9 9 9 9 9 5 5 6 6 6 5 4 , , 4 t t t t 9 t 9 4 # X X X X o # - , ; , , , 4 5 5 2 , , t t 9 t 9 9 t 9 9 9 9 9 9 9 9 9 6 9 4 9 4 6 4 , , ",
"t t t t t 9 t t 9 9 9 9 9 9 t 9 9 6 5 5 6 6 5 5 6 , ; 4 t t t % % , 4 4 o         X % 4 2 & O o % , 5 9 , , , t t t t t t t t 9 9 9 9 9 9 9 6 6 4 4 4 4 9 , , , ",
"t t 9 9 9 9 9 9 6 9 6 9 6 9 6 9 6 6 5 5 4 5 5 4 5 , , 6 6 & & . @ , 4 7 +         o , t w * X   X % % , 4 ; , 9 t 9 9 9 9 9 9 6 9 9 6 9 9 9 9 6 9 4 9 4 6 , , , ",
"9 t 9 4 4 6 6 4 6 4 6 6 6 6 4 4 5 4 5 5 5 5 4 5 4 , 4 , &       @ 1 q t @         O q C b ; X         ; 9 4 , t t 9 4 5 5 5 5 5 6 6 4 4 4 4 4 4 4 4 6 4 6 5 , , ",
"t t 9 4 4 6 4 6 6 4 6 4 6 6 6 6 5 5 5 4 5 4 5 5 5 , 9 - X X X X % 9 d j - o + @ @ - z .._ 9 # O o o o 4 j p 5 t 9 9 4 5 5 4 4 5 6 4 6 6 4 4 6 6 6 6 4 6 6 , , , ",
"4 6 6 4 6 6 6 6 6 6 6 6 4 6 4 6 5 5 4 4 5 5 5 , 4 t 4 , , 4 5 9 i z S I A S T T Q T _ } ] S C C A S C G T I C 9 6 6 5 5 5 5 5 5 6 6 4 6 4 6 6 4 6 4 4 4 4 , , , ",
"4 6 5 5 5 6 6 5 6 6 6 4 6 6 5 5 5 4 4 4 5 4 4 , 4 9 2 4 9 t p j C P ^ _ T T ' ' ] Q ( { } I T Q T _ T ^ ` ~ I z j t 4 4 6 5 5 5 5 5 5 6 6 6 5 5 5 5 5 4 4 , , , ",
"2 4 4 5 , 4 5 , , 4 4 4 4 , 4 4 4 , 4 4 4 4 , , 2 2 , 4 t d l C Z G K K S S U I Y G G R Y S I U Y Y Y K K I A z C j q 4 4 2 4 , 4 4 , 4 4 , 4 4 , 4 4 , 4 , , , ",
", , , , , , , , , , , , , , , , , , , , - & & & ; , ; ; , 6 9 e p l z C t t u i p u j Z C p p i u i i j z z z 9 9 q 4 & , , , , , , , , , , , , , , , , , , , , ",
", , , , , , , , , , , , , , , , , , , & X   X @ ; 4 & O         ; z S U -         # p G C 5 o         9 M S b o       . ; , , , , , , , , , , , , , , , , , 4 , ",
"t t t 9 t 9 t 6 4 4 , , 2 4 5 4 4 5 ; .       % u l e #         2 K ] X.,         # z O.` t +         u T } T O         X , 9 5 5 , , , 4 4 5 5 5 5 5 t t t 9 9 ",
"y y t 9 t t t 9 5 5 , , , 5 5 4 5 9 ;       . - j A i $         4 Y +.X.,         % z o.' i +         u Q O.T @           , 9 5 6 , , 4 5 5 5 5 5 5 5 y y t t t ",
"t t t t t t 9 9 9 6 , , 4 5 6 t t , @         : M W p #         2 T #.+.;         @ g { ( t o         t _ +.I o           9 p 9 9 , , , 5 5 t 9 9 9 9 t t t t t ",
"t t t t 9 9 9 9 t 9 , , , 5 6 p g ; X o o @ % e Q } z , @ # $ @ p ..>.=.t # % % % , b { ( p - % % % % z O.-.Q ; # % % $ % z j 9 9 , , 2 5 5 t y t t 9 t t 9 t 9 ",
"t t t 9 t 9 9 9 9 9 , , , 9 9 y p 4 - , 4 e j S X.@.I z j j l j I -.3.>.K z C M z A _ @.} K M z M b z T &.<.#.C M C M z z Y C t 9 , , 4 5 9 t t t t t 9 t 9 9 t ",
"t 9 t t t 9 9 9 9 9 , , 6 t t y 5 , , 4 e g M K P / K K I Y ^ T T ) X.) Y T ' ^ W W ( ( ! P K U Q Q Q W ' X._ U ^ _ Q Q T ^ P b 9 , , 6 y t t t t 9 t t t t t t ",
"t t t 9 t 9 9 9 9 9 , , 6 y y y 4 : 1 8 i k N P P E K Y ` ' X.} ( / / J K ^ ) ) ( { ` ) ~ U / {  .{ ' U E Q Y U ` ' / / / U U N 9 , , 6 y y t t t 9 9 t 9 t t 9 ",
"9 9 t 9 9 9 9 9 9 9 , , 5 y t t - # # % - , 7 p M M p u u u p t g z b z r e r e e d b M b i i i p u u d j b l 9 e t q 8 9 j z j 9 2 , 9 y t t 9 t t t t 9 t t t ",
"9 9 9 9 9 9 9 9 5 4 , , 6 y y t - o         X , l M 4 O         * i l b &         # 9 l j ; X         , p l d X           e z p t , , 6 y y t t 9 9 t t t t t 9 ",
"9 9 9 9 9 9 9 6 5 4 , , 5 y t 4 - @         O u ( | g @         > Z ( Q ;         = b { ^ 7 o         t U ` P @           l ` Y j 4 , 6 y t 9 t t t t 9 9 t 9 t ",
"9 9 9 6 6 6 6 6 5 4 , , 4 t 9 5 ; +         + i { o.i @         > D { Q -         = M o.( q o         e U  .P @           l { W j 4 , 5 t t t 9 t t t 9 t 9 9 9 ",
"9 9 9 6 6 6 5 4 5 4 , , 4 t 9 , : @         o i +.%.d +         : D { ( :         - G ;.X.9 X         t Y o.Q @           Z #.` j , , 5 t 9 t 9 t 9 t 9 9 9 9 9 ",
"6 6 6 4 5 5 5 5 6 4 , ; 5 9 t 4 2 - % - ; , e S :.>.S 7 1 , 1 , d Q @.o.u - , , , y ] 3.>.S p p y t 9 K O.-.@.p t t t t t _ -.#.I 5 ; 5 t t 9 9 9 9 9 6 6 6 9 6 ",
"6 5 5 5 5 4 5 5 6 6 , , 4 t t 7 4 7 9 g b A K _ =.-.T A G S A A U ` } o.G M A Z Z I O.<.-.] ] X.] _ Q } @.&.&._ _ ] _ _ _ ] +.@.T 4 , 4 t 9 6 5 5 4 6 6 5 5 5 5 ",
"6 5 5 5 4 5 5 4 6 5 , , 4 t 9 > : 2 u z G P P F F P G I ^ ^ E Q E H H R P Y ( ( ^ T ! W U I ^ ( W T T U P ! ~ K U ^ T Y U P H P Z 4 , 4 9 t 5 4 6 6 6 6 5 5 6 6 ",
"5 5 4 5 5 5 5 4 2 4 , ; 4 4 5 , > 7 s M D F F B B F Z G P P R R P H P H K I W / / / P L P K Y U P W ` Y ! ^ ! U T ` ` _ T K F D b , ; 2 6 6 4 5 5 4 5 6 5 5 5 6 ",
"5 6 6 6 5 5 5 4 2 4 , , , 9 4 & % % $ = - = > 8 i i 7 : - - : - 4 u d d , - - : > 7 i j g 5 , - - : ; q d z j , : , , , , p l i 9 ; ; 2 4 4 4 4 5 5 5 5 5 5 6 6 ",
"4 , , 4 4 4 , 4 , , , , , 2 2 & % o         O 2 k b , o         * s l c $         % i S C %           : g Z b X           s G l 9 , ; , 2 2 4 4 , 2 4 4 4 , , 4 ",
", , , , , , , , , , , , , , , , - +         + e R E 8 o         > N W P =         - N } ( ;           2 Z ) P +           b { U g , ; , , , , , , , , , , , , , ",
", , , , , , , , 4 , , , , 2 1 : = o         + r R W q o         1 B ! R -         = b { ^ - .         2 Z ( J O           v ( P p , , , , , , , , 4 , , , , , , ",
"6 6 4 4 5 5 4 9 p y t t t t t , - +         @ u R E 0 o         , Z ( ! -         : M  .! - .         5 G { P +           h ! F i t t t t t 9 t 9 9 9 6 5 , , , ",
"6 6 5 5 6 t y y p p t t t y u 9 2 % X X X o - b @.@.j : % % $ @ u { <.&.q @ % % % t Q :.#.t % @ % % # p } 1.#.7 ; ; : , 4 U $.' Z p t t y y t 9 t t t 6 5 4 , , ",
"6 6 9 t t y y p p p t t t t t 7 2 : : 1 3 0 u M ) { M p u r w w v ( $.{ l u s i s v Q } ( j p d p i i m _ $.{ l l b b M m Q  ./ A p y t t t 9 t t 9 9 9 6 4 , , ",
"9 9 y p p y y y t y y t t t 9 , : 2 r v B R H F F H B G U J F F F F H H P E W E ! R R F N D W W P H R H F H F F W / / ( ~ R R J N p y t t t t t 9 9 9 9 9 4 , , ",
"y p p p y y t y t t t t t t 9 > : 3 i v H E R H L P N P ` ~ E P F D F H P W ! ! { J F D D D H H D D R H F F D D P E R W E P J H M y t t t 9 9 t t 9 9 9 9 4 , , ",
"y y y y y y y t t t t 9 9 t 9 * % $ $ * : < 7 w u i 1 = : - : * 2 i s i , & = : : 1 e d p , * * * * * 2 e d u - % % % $ % q p u 9 t t t t t t t 9 9 9 9 9 4 , , ",
"y y y y y y y t 9 t t 9 9 t 9 - * +   . . . - s N N -     . .   , v D b *       . = f J Z : X         : g D b #           u A m y t t t 9 t t 9 t 9 9 9 9 4 , , ",
"y t t t t t t t t t 9 t 9 9 9 > = O         * h P H =           < B R D %         * c ! R : .         , v ! F $           d W J j t 9 9 t 9 t 9 9 9 9 9 5 4 , , ",
"y y t t t t 9 9 t t t 9 9 9 5 ; = +         = k P P -           = n H B %         * k ! P > .         : v ! J #           h Q J s t t 9 9 9 t 9 9 9 9 4 5 4 , , ",
"t y t t 9 t t t t 9 t 9 9 9 9 , : +     .   > Z { / ,           < N W F =         : Z @.( 4 o   . .   4 Z ` E * . . . . X l { Q g t t 9 9 9 9 9 9 9 9 6 5 , , , ",
"t t t 9 9 t t t 9 9 9 6 9 9 9 7 7 - # = - = r ! =.%.e $ = * = * d { %.} q @ $ $ $ 8 P *.@.d 7 2 1 , , g ` *.} q ; > > : ; Y ,.=.I y 9 9 9 9 4 6 6 6 4 6 5 4 , , ",
"t 9 t t t t 9 9 9 9 9 9 9 9 9 , > < 2 0 u s v F R P k i s s s s c F P H h s f h h v D P P M b N b v v B P E P k j b b v M P ! W Z t 9 9 t 9 4 4 6 6 4 6 5 4 , , ",
"9 t 9 9 9 9 9 9 6 9 9 4 4 9 4 : : 2 r v B F V N n v N P R R R P F n N n N F R E R P D n N Z P R W W / R H V B B P E ! ! ) P F B b 9 7 9 5 5 5 5 4 6 6 4 6 4 , , ",
"t t 9 5 5 5 4 5 6 4 4 4 5 4 4 - = > 3 s h x h h x h h v N N v m v v x v s h n n c v v v v h h h c v m v n n v h h c v N N N n v g 7 4 6 5 5 4 5 6 6 6 4 4 4 , , ",
"9 t 5 5 5 5 5 5 6 4 6 4 4 7 4 % # + X O O O * 3 u u % X X o o o = r u r % o O O o @ 4 d i : o . . . . @ 1 d i * o . X X X 7 s t 4 4 5 5 5 5 4 5 4 6 4 4 4 2 , , ",
"5 5 5 5 4 5 5 4 6 6 6 4 4 4 4 - - @         * r N n =           < v N v %         O 0 V N 2 X         @ s P D * .         u D N y 5 4 5 5 5 5 5 6 6 6 4 4 , , , ",
"5 4 6 6 5 6 5 5 6 6 5 4 4 5 4 ; : +         $ u V B =           > v V N $         o w H V 3 o         @ f W D *           d P B r 7 6 5 4 5 5 5 5 5 5 5 4 , , , ",
", 4 4 , 4 , 4 4 2 4 4 , , 4 , ; : @         $ r V B *           = x B v $         o 0 V V 2 X         @ s R M %           g ! D r 4 2 4 4 2 4 4 , 5 , , , , , , ",
", , , , , , , , , , , , , , , , : @         % h E H =           1 H / G %         o s ) ! 7 o         @ h ) J - .         b } ^ j 4 , , , , , , , , , , , , , , ",
"4 , 4 , , , , , , , , , , , , 7 2 % . . X . > M } ( 2 X X X .   r o.,.X.2 . X X o * F 2.=.d $ X o X o = Z &.{ 2 o o o o o G ;.&.A 4 ; , , , , , , , , , 4 , 4 , ",
"t t t 9 9 t 9 5 4 4 , , 4 4 4 4 1 1 1 0 r a h N E U h s s r w w v R R H k s s s f h F ! W M v x h f f x N V D h h x v h b F R L b 4 , 4 4 4 5 5 9 5 5 t t t 9 9 ",
"y y t t 9 t t 9 5 5 , , , 6 4 : : 3 u x N F B n N N v B U J R R J N B B G W ! R R P H F H G E W E R R R V B B B W ( ! / ( P H F M 5 , , 5 5 5 9 6 5 9 t y t t t ",
"t t t t 9 t t 9 5 5 , , 2 4 4 = * < 0 a f v c f f h d h n v n m k d f h h k v c h f h c x k x c c x x h h x x g b N n v z v c x j , , , 5 5 9 9 9 9 9 t y t 9 t ",
"t t 9 t t 9 9 9 9 9 , , 2 5 4 = * * * = : < 1 w f x 0 : : - = * 7 s d i : # $ $ $ $ 8 c h 0 * * * * * = 8 h h 2 - = = * = w d s y , , , 5 5 y y t t t 9 9 t t t ",
"t 9 t t 9 9 9 9 9 9 , , 4 6 4 - & +         @ 0 N V < X         < m H n %           0 R F 8 O         o w V N < X         e N D v 2 , 4 4 9 t y t t 9 9 t t t 9 ",
"t t 9 t t 9 9 9 9 9 , ; 5 y t : - +         @ w H F 2           < n H N %           7 L F 0 o         o w L V 2 X         r V F x , ; 4 t t t t t 9 t t 9 t t 9 ",
"9 t t t t 9 9 9 9 9 , , 5 y t : : @         O 0 F V < .         : n D n $           3 F B 3 o         o r H V 1 X         0 N D h , ; 6 y t t t t t 9 t t t t t ",
"9 t 9 9 9 9 9 9 9 5 2 ; 5 y t ; : @         @ s ) ) 8 .         - v H n $           0 R P 0 o         X 0 R F < .         r W Q v 2 - 4 t t t 9 9 t t t t 9 9 t ",
"9 9 9 9 9 9 9 9 6 5 , , 9 p t 1 > * O + # # < b $.o.s * # @ @ @ 8 N J m < # # # $ $ s ) W s : % * $ * = r H F 0 = $ % $ * c ( { C 2 ; 4 y y t t t t 9 t 9 t t t ",
"9 9 9 9 9 9 9 9 6 4 , , 5 t t 4 1 1 0 r s x v N J P v h c h f f m H H D v c v v v m V R R Z N B n x n B V N B v n B B N F F F V b 2 ; 6 t t t t t 9 t 9 t t 9 t ",
"9 9 6 6 5 5 6 6 6 4 , , 5 e 9 - - 3 u h B H B v v n c D U R R W J m m N J Q / ! E P F V V F P W R R W H V B B N Q ) / ! ^ P F H M 2 ; 4 t t 9 t t t t 9 9 9 9 9 ",
"t 9 6 5 5 5 5 5 6 4 , ; 4 t 9 - * : 3 w r f s s d f a s s s s f d a s s u r r r e w s h h s u u r r a r a h h r s d d s p g h d u 1 , 4 9 t 9 t 9 t t 9 9 9 9 9 ",
"6 6 6 6 5 5 5 5 5 4 , , 5 9 9 & * $ @ # $ * : w c c 3 * $ # # $ 3 f c f = O O O O O 0 N v 8 % + # @ @ * 0 v x 1 * # @ # # w h h s , , 4 t 9 9 9 9 9 9 9 5 6 6 6 ",
"6 6 6 6 4 5 5 4 5 4 , , , 5 4 & - O         + 0 F D < .         < N J m %           0 R F 8 o         o 0 H B 1 .         r D D v 2 , 6 t t 5 4 5 5 4 4 5 5 5 5 ",
"5 5 6 6 5 5 5 4 5 5 , , , 9 5 - - @         @ w H F 1 .         < n H m %           0 H F 0 O         o w H H 1 X         w D D h 4 , 4 t 9 5 5 5 5 5 5 5 4 4 5 ",
"5 5 6 6 4 5 5 4 4 , , , 2 6 4 ; : @         + 0 H F 1 .         : v D v $           3 F B 3 o         o w H V 1 X         0 D F h , , 4 5 5 5 5 4 5 4 5 5 5 5 5 ",
"5 5 6 6 6 6 5 4 , 4 , , , 9 4 ; : @         # f |  .q X         : m H m #           0 ! W 0 O         X w H F < X         u ~ ` N 4 , 4 4 4 4 5 5 5 5 5 5 5 5 5 ",
"4 , , 4 4 4 4 , , , , , , , 4 , 1 = # % * * 3 v  . .i * $ $ % $ r J ~ J q : > < > : v o.{ k : @ # @ # : k ( Q s 1 : = * - m {  .G 4 , , 2 4 4 2 4 2 , 4 , 4 4 4 ",
", , , , , , , , , , , , , , , 4 3 1 3 r s f h v F H k a a s s s m E ~ E v v m m m m P ) ~ N s a a r a f J ) ~ A M m v v c J ! ! D 4 , , , , , , , , , , , , , , ",
", , , , , , , , , , , , , , , & * 1 w c n D B v v v v N J H R J B v n v b F P P E W F n n v F R P P R H D V B n J W R R W H F F v 4 , , , , , , , , , , , , , , "
};
