/* XPM */
static char *coin_skull_resized[] = {
/* columns rows colors chars-per-pixel */
"80 80 215 2 ",
"   c None",
".  c #C50D00",
"X  c #CA0E04",
"o  c #D30E00",
"O  c #C71100",
"+  c #C91301",
"@  c #CD1B01",
"#  c #CB1209",
"$  c #CE1B08",
"%  c #D51201",
"&  c #DB1500",
"*  c #D11D01",
"=  c #DB1B01",
"-  c #D71B0A",
";  c #DA1E0A",
":  c #D4170A",
">  c #E51B01",
",  c #E81D00",
"<  c #CE2201",
"1  c #CF2901",
"2  c #D22301",
"3  c #DB2301",
"4  c #D42A01",
"5  c #DB2D01",
"6  c #D63301",
"7  c #DD3302",
"8  c #DB3C02",
"9  c #DB3809",
"0  c #E12500",
"q  c #E92203",
"w  c #E52D00",
"e  c #EA2E01",
"r  c #E5260C",
"t  c #E23502",
"y  c #E83200",
"u  c #E43C02",
"i  c #E93F02",
"p  c #E03C0A",
"a  c #E8390D",
"s  c #DB4401",
"d  c #DE4C01",
"f  c #DE5501",
"g  c #DF5B01",
"h  c #DE5B0E",
"j  c #DE5C11",
"k  c #E54403",
"l  c #EB4402",
"z  c #E54B03",
"x  c #EB4C03",
"c  c #E64E0F",
"v  c #F04E03",
"b  c #FE4E02",
"n  c #F74402",
"m  c #E55301",
"M  c #EB5403",
"N  c #E45B01",
"B  c #EC5C03",
"V  c #E4520B",
"C  c #EA5408",
"Z  c #E45B0A",
"A  c #EB5B0A",
"S  c #F25403",
"D  c #FF5302",
"F  c #F45B03",
"G  c #FE5C02",
"H  c #FF5509",
"J  c #FF5C0B",
"K  c #E56401",
"L  c #ED6303",
"P  c #E76E00",
"I  c #EC6C02",
"U  c #E2640C",
"Y  c #EE6408",
"T  c #E4690C",
"R  c #EF6909",
"E  c #F26402",
"W  c #FC6404",
"Q  c #F36B03",
"!  c #FF6C05",
"~  c #F16D09",
"^  c #EA7301",
"/  c #EC7C02",
"(  c #E77609",
")  c #F47202",
"_  c #FD7404",
"`  c #F37B01",
"'  c #FD7E01",
"]  c #F47209",
"[  c #F97508",
"{  c #F57C0A",
"}  c #FB7D09",
"|  c #FF6210",
" . c #FF7226",
".. c #FF7733",
"X. c #ED8500",
"o. c #E7820A",
"O. c #ED8906",
"+. c #F58301",
"@. c #FD8100",
"#. c #F48B01",
"$. c #FC8C01",
"%. c #F5840A",
"&. c #FE850A",
"*. c #FF880A",
"=. c #EF9709",
"-. c #F59301",
";. c #FD9401",
":. c #F59B01",
">. c #FE9A01",
",. c #FD940C",
"<. c #FE9D0A",
"1. c #F69B0D",
"2. c #F18D13",
"3. c #EFA60D",
"4. c #F6A400",
"5. c #FFA500",
"6. c #FEAA01",
"7. c #FFA30C",
"8. c #FDAB0C",
"9. c #F2AC09",
"0. c #FEB501",
"q. c #FFBB00",
"w. c #FEB30D",
"e. c #FFBD0A",
"r. c #F7B50F",
"t. c #FEA512",
"y. c #F5AE11",
"u. c #F8A91A",
"i. c #FFB612",
"p. c #FEBD11",
"a. c #FEBB19",
"s. c #FA8C22",
"d. c #F99A2C",
"f. c #FFAC2A",
"g. c #FFB029",
"h. c #FFB83F",
"j. c #FFC600",
"k. c #FFCA01",
"l. c #FEC20B",
"z. c #FFCB0D",
"x. c #F7CD0D",
"c. c #FFD007",
"v. c #FED50C",
"b. c #FEDA0E",
"n. c #FEC312",
"m. c #FECC13",
"M. c #FFC31B",
"N. c #FBC81A",
"B. c #FED413",
"V. c #FFDC14",
"C. c #FFD81A",
"Z. c #FFE40D",
"A. c #FFEB0E",
"S. c #FFE215",
"D. c #FFE41F",
"F. c #FFEA17",
"G. c #FFF010",
"H. c #FFC62C",
"J. c #FFCB2C",
"K. c #FFCA24",
"L. c #FFDF24",
"P. c #FFCC34",
"I. c #FED539",
"U. c #FFE238",
"Y. c #FFE333",
"T. c #FFE92A",
"R. c #FF8440",
"E. c #FFB645",
"W. c #FF9A66",
"Q. c #FFA77D",
"!. c #FBBD72",
"~. c #FFCC43",
"^. c #FFC94F",
"/. c #FFD345",
"(. c #FFCE56",
"). c #FFDC5C",
"_. c #FED55B",
"`. c #FFE64E",
"'. c #FFEB5C",
"]. c #FEC56A",
"[. c #FEDE64",
"{. c #FFD96D",
"}. c #FFD667",
"|. c #FFCC76",
" X c #FFDB75",
".X c #FFE764",
"XX c #FFEC67",
"oX c #FFBE9C",
"OX c #FFE48C",
"+X c #FFE98B",
"@X c #FFE580",
"#X c #FFF08E",
"$X c #FFE59A",
"%X c #FFE896",
"&X c #FFF295",
"*X c #FEDCAC",
"=X c #FFECAF",
"-X c #FFE6A6",
";X c #FFF4AB",
":X c #FFEDB3",
">X c #FFE3B3",
",X c #FFD8C4",
"<X c #FFEBC6",
"1X c #FFF4C3",
"2X c #FFF8C5",
"3X c #FFEDD1",
"4X c #FFF5D5",
"5X c #FFF4DB",
"6X c #FFFADD",
"7X c #FFEEE7",
"8X c #FFF6EB",
"9X c #FFFBED",
"0X c #FFF8E6",
"qX c #FFFDF5",
"wX c #FFFFFE",
/* pixels */
"                                                                                                                                                                ",
"                                                                                                                                                                ",
"                                                                                                                                                                ",
"                                                            V z z z z z m m m m m N B N B A                                                                     ",
"                                                    V z z m m L I ` +.+.$.$.$.#.$.;.;.;.;.@.Q B Z Z j                                                           ",
"                                                V z m L ` $.;.;.;.>.>.>.>.;.>.>.>.>.;.>.;.@.' ' ` [ / ( U j                                                     ",
"                                            z m L ` ;.>.;.>.;.>.>.;.;.>.>.>.>.>.>.>.;.$.' ' ' ' ' ' ' ,.r.3.o.U j                                               ",
"                                        m m Q $.;.>.>.;.>.>.>.>.>.>.>.>.;.>.;.>.;.$.@.' ' ' ' ' ' ' ' ' $.n.S.b.9.o.T                                           ",
"                                    V m ) ;.>.>.>.>.>.>.;.>.>.>.>.;.>.>.>.>.>.;.@.' ' ' ' ' ' ' ' ' ' ' ' @.w.S.G.A.x.3.(                                       ",
"                                  m L $.>.>.>.>.>.;.>.>.>.>.>.>.>.>.>.>.;.$.@.@.' ' ' ' ' ' ' ' ' ' ' ' ' ' @.8.V.F.G.G.b.3.o.                                  ",
"                              9 m ` >.>.>.;.>.>.>.>.>.>.>.>.>.>.>.;.;.@.@.' ' ' ' ' ' ' ' ' ' ' ' ' ' ' ' ' ' ' 8.V.T.T.A.A.V.y.                                ",
"                            9 x ) @.$.$.;.;.;.>.>.;.>.;.;.;.$.$.@.@.@.@.@.' @.@.@.' @.' ' ' ' ' ' ' ' ' ' ' @.' ' 5.I.&XXXD.Z.Z.x.u.                            ",
"                          p M ' @.' ' ' @.@.@.@.@.@.@.@.@.@.@.@.' ` Q Q E B B B E E ) ' ' ' ' ' ' ' ' ' ' ' ' ' ' $.w.`.6X2X'.S.Z.b.p.                          ",
"                        p B ' ' @.@.' @.@.@.@.` @.' @.@.' ) E m k 7 6 5 7 7 7 t u u u l S E ` ' @.' @.' ' ' ' @.$.>.>.l.XXqXwX;XU.b.V.B.                        ",
"                      p L ' ' ' @.` ' ' ' ' @.' ' @.' I z 7 2 4 5 7 t i i i i l i i i i i i l F _ ' ' @.' @.$.;.>.>.;.5.B.#XwXwX6XXXV.b.C.                      ",
"                    9 E ' @.' @.' @.@.@.@.@.' @.' F 8 4 2 4 5 u u l i i i i i i i i i i i i i i l F ` @.@.;.;.>.5.6.0.j.k.L.1XwXwXqX+XB.v.V.                    ",
"                    F @.@.@.@.@.@.' @.' @.@.' Q 8 4 * 4 t u i i i i i i i i i l i i i i i i i i l i x _ >.5.6.q.j.j.j.j.j.c.`.9XwXwXwX%XC.c.B.                  ",
"                  B ' @.@.' ' @.@.@.@.' @.` x 4 * 2 5 u i i i l i l l l l v l l l i i i i i i i i i i x ;.j.k.j.j.j.j.j.j.k.b.&XwXwXwXwX+Xm.z.m.                ",
"                C _ @.@.@.@.@.@.' @.' @.) 8 < 2 4 t i i i l S S F W W ! ! ! ! W W W F S l l i i i i i i x -.j.j.j.j.j.j.j.j.k.Y.6XwXwXwXwX[.z.z.                ",
"              V ) @.@.@.@.' @.' @.@.@.Q 7 @ 2 4 u i l S G W ! ! ! ! ! ! ! ! _ ! ! ! ! ! ! G x k i l i i u l >.k.j.j.j.j.j.j.j.b.'.4XwXwXwX4XJ.l.m.              ",
"              Q @.@.@.' @.@.@.' @.@.L 5 @ 2 5 u x F W ! ! ! ! ! ! ! ! ! ! ! ! ! ! ! ! ! ! ! ! G l l u i i i x 4.j.j.j.j.j.j.j.k.V.K.{.<XqXwX}.e.l.n.            ",
"            Y @.@.@.@.@.@.' @.@.@.Q 4 < 2 5 l F ! ! ! ! ! ! ! ! ! ! ! ! ! ! ! ! ! ! ! ! ! ! ! ! ! S l l i i i E q.k.j.j.j.j.k.k.b.n.9.a.~.}.H.e.e.p.            ",
"            d.E.>.;.$.@.@.@.' @.) 5 @ < 5 v W ! ! ! ! ! ! ! ! ! ! ! ! ! ! ! ! ! ! ! ! ! ! ! ! ! ! ! F l i i i i +.j.j.k.j.k.j.j.c.n.R R / -.7.w.w.e.i.          ",
"          s.*X3Xt.>.>.>.;.;.$.' 8 @ < 5 F ! ! ! ! ! ! ! ! ! ! ! _ &.$.>.;.;.;.;.&._ W ! ! ! ! ! ! ! ! G l i i i x :.j.k.j.j.j.k.k.V.1.R A C C B ] %.1.          ",
"          !.wX8Xf.>.>.>.>.5.>.N < @ 5 F ! ! ! ! ! ! ! ! ! ! ' ;.8.q.q.q.q.6.6.6.6.5.+.M S W ! ! ! ! ! ! W l i i i x #.j.j.j.k.j.k.v.m.8.7.,.{ Y C x V A         ",
"        d.<XwX8Xf.>.>.5.>.>.` 4 < 4 M ! ! ! ! ! ! ! ! ! ` t.(.$XOXl.q.q.q.0.6.6.6.6.5.>.m t S ! ! ! ! ! ! F l i l u k +.j.j.j.j.j.x.B.8.8.7.8.7.,.{ ~ A         ",
"        ].qXwX5Xu.5.5.5.6.4.s @ 2 l ! ! ! ! ! ! ! ! ! ;.^.1XwXwX$Xq.q.q.j.q.q.6.4.6.6.6.>.m 3 l W ! ! ! ! ! S l i u 7 k #.j.k.j.j.k.V.i.7.7.7.t.t.7.7.,.1.      ",
"        -XwXwX:Xl.j.j.j.k.#.2 2 t W ! ! ! ! ! ! ! _ 7. XqXwXwX4XH.q.q.j.q.q.X.s 6 m #.6.6.;.t 2 u W ! ! ! ! ! l i i t 4 N q.k.j.j.j.V.t.%.<.7.7.7.7.7.t.t.      ",
"      I.4XwX0XI.k.j.k.k.q.s < 7 M ! ! ! ! ! ! ! _ 5._.9XwX9X:XP.q.q.q.q.q./ + . O O 5 #.6.6.` 3 3 u ! ! ! ! ! W l i u 4 z 0.k.j.j.k.B.n.] R %.<.7.7.7.7.7.      ",
"      ).qX9X).j.j.k.k.k.#.1 5 i W ! ! ! ! ! ! _ 5.l.N.~./.J.l.j.q.j.q.q.:.< O O O O O d 5.5.>.t 3 3 v ! ! ! ! ! v i i 5 z 0.k.j.j.k.c.V.t.*.~ Y %.<.7.7.7.t.    ",
"      +XqX[.k.k.k.k.k.k.g 2 t x ! ! ! ! ! ! ! 5. X{.q.q.4.X.X.4.q.q.q.q.g O + + @ 2 2 6 4.6.5.N + * 5 W ! ! ! ! W l i t f 0.k.k.k.j.k.V.8.7.<.%.Y Y { <.t.t.    ",
"      -X[.k.k.k.k.k.k.4.6 7 u F ! ! ! ! ! ! ;.H.OXK.0.P 4 + O 8 4.j.j.9.1 + + < 5 t t u 4.q.0./ O O + x ! ! ! ! W v k t L j.k.j.k.k.k.V.i.t.t.7.,.{ A A { ,.    ",
"    K.I.k.k.k.j.k.k.k.X.5 u l ! ! ! ! ! ! ' 0.l.l.q.N + O + @ + / j.j.X.+ + * t u t u k >.q.0.:.+ O O 7 ! ! ! ! ! F i i ` j.k.j.k.j.k.S.p.<.<.7.<.t.,.[ C A     ",
"    k.k.j.k.k.k.k.k.j.g 5 u x ! ! ! ! ! ! 4.q.q.q.X.+ + + + $ 2 I q.q.K + @ 5 t u u p z 4.q.q.5.1 O O < W ! ! ! ! ! l i +.j.k.k.k.k.k.V.n.<.7.<.7.<.<.7.,.~ A   ",
"    k.k.k.k.k.k.j.k.0.s u u F ! ! ! ! ! &.q.q.q.q.s O + @ 4 7 u ` q.q.f + * 8 u u u k M 6.0.q.4.1 O O + F ! ! ! ! ! v i #.k.k.k.k.k.k.V.i.*.7.7.<.7.7.<.7.<.,.  ",
"    k.k.k.k.k.k.k.k.4.t u l W ! ! ! ! ! 5.q.q.j.4.1 + + 5 u k k #.q.0.s $ 5 u k k k k I 0.q.q.4.1 O O @ F ! ! ! ! ! F i +.k.j.k.k.k.k.V.8.! ' ,.<.<.<.<.<.<.7.  ",
"    k.k.k.k.k.k.k.k.O.8 u l ! ! ! _ } *.0.q.q.q.:.< + 2 u k k x >.q.0.s @ 7 k k l z z #.q.0.q.:.< O + + F _ ! ! ! ! G i / k.k.k.k.k.k.S.w.W W ! *.>.<.<.>.7.<.  ",
"    k.k.k.k.k.k.k.k./ u i x ! _ } *.*.<.q.q.q.j.:.< @ 7 k z l R 0.q.0.d * u z l z l M 5.q.0.q.X.+ O + @ W ! ! ! ! ! W l ` k.k.k.k.k.k.V.w.G W G W _ $.7.<.<.<.  ",
"    k.k.k.k.k.k.k.k.Q u u F } &.*.*.*.;.0.q.j.q.4.4 2 k l z x #.q.q.0.Z 2 k l z x x ` 0.0.0.q.K O + O 5 [ ! ! ! ! ! ! l X.k.k.j.k.k.k.S.w.G G W G G W _ ;.<.7.  ",
"  z.k.k.k.k.k.k.k.j.L k l ~ *.*.*.*.*.*.6.6.q.e.0.d 2 k z x R 6.0.q.q./ 4 z x C C B 4.q.0.q.4.6 O + O z *.} ! ! ! ! ! x +.k.k.k.k.k.k.S.8.G G W W G G G W _ ,.  ",
"  z.k.k.k.k.k.k.k.j.K u l ) *.*.*.*.*.[ 5.6.6.0.q.#.7 z C L 4.0.q.q.q.4.s l C C M ;.0.q.q.q.P + + O $ ] *.*.&._ ! ! ! v -.k.k.k.k.k.k.S.7.G G G G W G G G G !   ",
"  k.k.k.k.k.k.k.k.0.z k l [ *.*.*.*.*.] ` 5.5.6.0.0.-.+.-.6.q.q.:.K 6.q.-.L B Q :.0.0.0.q.#.< O + O z &.*.&.&.&._ ! ! S 4.k.k.k.k.k.C.L.<.G G G G G G W G G G   ",
"  v.k.k.k.k.k.k.k.:.7 k k [ *.*.*.*.*.} x #.6.5.6.6.0.0.q.q.0.q.f + ^ q.q.0.6.0.q.0.q.0.#.4 O + O 6 } *.*.*.*.*.*._ ! W q.k.k.k.k.k.@X;Xs.G G G G G G G G G G   ",
"    k.k.k.k.k.k.k.I 4 k k _ *.*.*.*.*.*.E u +.6.5.5.5.6.0.0.q.-.1 + 6 4.q.0.q.0.0.q.4.P 1 O + + 2 ~ *.*.*.*.*.*.*.*._ Q j.k.k.k.k.z.:XwXR.G G G G G G G G G G   ",
"    k.k.k.k.k.k.j.s 1 k l ] *.*.*.*.*.*.*.x 5 Q 5.5.5.5.5.6.6.N + 4 2 I q.0.q.0.0.0.N * + + O 2 ~ *.*.*.*.&.*.*.*.*.&.@.6.6.0.0.q.M.4X7X .G G D G G G D D G G   ",
"    k.k.k.k.k.c.0.6 @ k l Q *.*.*.*.*.*.*.%.l 3 z +.5.5.5.5.>.6 4 x 7 d 6.0.0.0.0.0.L 3 3 3 5 ] *.*.*.*.*.*.*.*.*.&.&.;.5.>.5.>.>.h.qX,X| D G G G G G G G G G   ",
"    k.k.k.k.k.k.0.m k M l Q *.*.*.*.*.*.*.*.*.C 3 3 ` 5.5.5.>.#.+.$.` ;.6.6.0.0.0.0.` 5 5 5 x *.*.*.*.*.*.*.*.*.*.*.*.>.5.5.>.5.>.|.wXoXG D G G D G D G D G H   ",
"    k.k.k.k.j.q.6.$.;.Q k F &.*.*.*.*.*.*.*.*.*.E k +.5.5.5.5.5.5.5.5.5.5.5.5.5.6.6.#.5 5 5 u &.*.*.*.*.*.*.*.&.*.*.,.5.>.>.5.5.8.>XwXW.D D D D G D G D G G J   ",
"    c.j.q.6.5.5.5.;.$.Q x M &.*.*.*.*.*.*.*.*.*.*.*.>.5.5.>.;.5.5.5.5.5.5.;.$.5.>.5.;.t 5 5 t _ *.*.*.*.*.*.*.*.*.*.>.5.5.5.5.>.g.0X8X..D D D D G G D G G D |   ",
"    w.6.>.5.5.5.5.5.;.I x x [ *.*.*.*.*.*.*.*.*.*.;.5.5.5.-.+.5.>.5.>.>.5.#.^ 5.5.>.>.k 5 w 7 Q *.*.*.*.*.*.*.*.*.*.>.5.5.>.5.5.].wX,XJ D D G D D D D D D D     ",
"      5.5.5.>.5.5.5.5.@.M x Q *.*.*.*.*.*.*.*.&.*.>.5.5.5.` I 5.5.5.>.5.>.+.g >.5.>.>.B w 7 5 A *.*.*.&.*.*.*.*.*.,.5.5.5.>.5.5.*XwXQ.D D G D D G D D D D G     ",
"      5.5.5.5.5.>.5.5.5.Q x F &.*.*.*.*.*.*.*.*.*.>.5.>.5.N P 5.>.5.5.5.5.` s ;.;.+.` s 5 5 t z &.*.*.*.*.*.*.*.;.5.5.5.5.5.5.8.`.=X..D D D D D D D D D D H     ",
"      5.5.5.5.5.5.>.5.5.>.A M [ *.*.*.*.*.*.*.*.%.s s d f 1 8 K L K N N m 8 + 6 4 < + + @ * * 7 } *.&.*.*.*.*.*.>.5.5.5.5.5.5.l.S.i.G D D D D D D D D D D J     ",
"      7.5.5.5.5.5.5.5.5.6.%.S E %.*.*.*.*.*.*.*.&.8 . . . O O O O O O O O O + + O + + + + @ 7 A &.*.*.*.*.*.*.7.5.5.>.5.5.>.6.B.V.&.b D D D D D D D D D D       ",
"        5.5.5.5.5.5.5.5.5.w.] S [ *.*.*.*.*.&.*.*.} Y z 9 5 < @ + + + + O + + @ @ 2 7 s A ] &.*.*.*.*.*.*.*.7.6.5.5.5.5.5.5.l.S.n.G b D b D b D D D D D D       ",
"        7.5.5.5.5.5.5.5.5.6.w.E W &.*.*.&.*.*.*.*.*.*.*.*.%.{ [ ] R Y Y B Y ~ ~ [ { *.*.*.*.*.*.*.*.*.*.*.7.6.5.5.5.5.>.5.6.B.S.*.b D b D b D D b D b b H       ",
"          5.5.5.5.5.5.5.5.5.w.8.Y ) *.*.*.*.*.*.*.*.*.*.*.*.*.*.*.*.*.*.*.*.*.*.*.*.*.*.*.*.*.*.*.*.*.*.8.w.5.5.5.5.5.5.5.e.S.n.G b D D b D b b D b b D         ",
"          5.5.5.5.5.5.5.5.5.5.l.8.~ } *.*.*.*.*.*.*.*.*.*.*.*.*.*.*.*.*.*.*.*.*.*.*.*.*.*.*.*.*.*.*.*.w.0.5.5.5.5.5.5.5.6.B.V.&.b b b b b b D D b D b H         ",
"            5.5.5.5.5.4.5.5.5.6.z.8.[ &.*.&.*.*.*.*.*.*.*.*.*.*.*.*.*.*.*.*.*.*.*.*.*.*.*.*.*.*.*.,.p.e.5.5.5.5.5.5.5.5.l.S.i.D b b b b b b b n n n n           ",
"            8.5.5.5.5.5.5.4.5.5.5.z.p.%.&.*.*.*.*.*.*.*.*.*.*.*.*.*.*.*.*.*.*.*.*.*.*.*.*.*.*.*.7.m.w.5.5.5.5.5.5.5.>.w.V.N.S e e w 0 0 = = = & & % -           ",
"              5.5.5.5.5.5.5.5.6.5.6.z.B.7.*.*.*.*.*.*.*.*.*.*.*.*.*.*.*.*.*.*.*.*.*.*.*.*.*.,.p.m.0.5.5.5.5.5.5.5.5.5.m.S.T o o o o o o o o o o o %             ",
"              8.6.5.5.6.5.5.5.5.5.5.5.l.V.n.7.*.*.*.&.*.*.*.*.*.*.*.*.*.*.*.*.*.*.*.*.*.,.p.B.n.6.5.5.5.5.6.4.5.4.5.l.S.=.: o o o % o % % % % & % ;             ",
"                6.5.5.5.5.6.5.6.5.6.5.5.w.v.V.m.t.,.*.&.*.*.*.*.*.*.*.*.*.*.*.*.*.*.<.p.B.B.q.5.5.5.5.5.5.5.5.5.5.0.V.p.t = = 3 3 0 0 w w w w t a               ",
"                  5.5.6.5.5.5.5.5.5.6.6.5.6.l.B.V.B.n.7.,.,.*.*.*.*.*.*.*.,.,.7.p.m.V.B.e.6.5.5.5.6.5.5.5.5.5.5.6.B.m.A w y y y y y y y e t y y                 ",
"                    6.5.6.5.5.6.5.5.5.5.5.5.6.6.e.B.V.S.V.B.m.n.n.a.n.n.m.B.C.V.V.m.0.6.5.6.5.5.5.5.5.5.6.6.5.6.m.B.R y y y y y y y y y y y t a                 ",
"                    8.5.5.5.5.5.5.6.5.6.5.6.5.5.5.6.0.e.m.B.B.V.V.V.V.V.B.m.l.q.6.6.5.5.5.5.5.6.5.6.5.6.5.5.5.l.B.] t w y y y y y y y t 0 = ;                   ",
"                      t.5.5.5.6.5.6.5.6.5.5.5.6.5.6.5.5.5.6.6.6.0.6.0.6.6.5.5.5.5.5.6.5.5.6.5.5.5.5.5.5.6.5.e.m.R y y y y t y y w 0 = % o :                     ",
"                        1.5.5.5.5.5.5.5.5.6.5.5.5.5.5.5.5.5.6.5.5.5.5.6.5.6.6.5.5.6.5.5.5.5.6.6.6.5.6.5.5.e.n.R e y e w w 0 = & % o o o -                       ",
"                          %.>.6.6.5.5.6.5.5.5.5.5.5.6.5.6.6.5.5.5.5.5.5.5.5.5.6.6.5.5.6.5.5.5.5.5.5.5.6.l.y.C 0 > = = % o o o o o o o :                         ",
"                              %.5.6.5.6.6.6.6.5.6.6.5.5.5.5.5.6.6.5.6.5.5.6.5.5.6.5.5.5.5.6.6.5.6.6.0.l.O.3 o o % o o & % & o o o o -                           ",
"                                / ;.6.6.5.6.6.6.6.5.5.6.6.5.6.6.6.5.6.5.6.6.6.5.5.5.5.6.5.6.6.6.0.q.w.A & & > > , > , , , , , > > ;                             ",
"                                  U / 4.0.6.6.6.6.6.6.5.6.6.6.5.6.5.6.6.5.6.5.6.6.6.6.6.6.0.q.q.0.+.y , , , , > , , , , , , q q                                 ",
"                                      j / :.0.q.0.6.6.6.6.6.6.6.5.6.6.6.5.6.6.6.6.0.0.0.q.q.0.+.l , , , , , , , , , , , , , r                                   ",
"                                          Z I -.6.q.q.q.q.q.0.0.0.0.0.0.0.q.q.q.q.q.j.q.5.) i , , , , , , , , , , , > = ;                                       ",
"                                                Z ^ -.9.q.j.q.j.j.q.j.e.q.j.q.q.0.4.+.S y , , , , , , , , > , > & : :                                           ",
"                                                    6 9 m P #.:.6.4.6.4.>.-.` E n e , , , , , > , > > & & % % #                                                 ",
"                                                          # $ 2 2 4 4 = = & & & & & & & & & % o o X X X #                                                       ",
"                                                                    # X # X X X X # X X X # X # #                                                               ",
"                                                                                                                                                                ",
"                                                                                                                                                                "
};
