/* XPM */
static char *dead_resized[] = {
/* columns rows colors chars-per-pixel */
"60 60 203 2 ",
"   c None",
".  c #000F1C",
"X  c #03121D",
"o  c #0E191F",
"O  c #111A1E",
"+  c #031522",
"@  c #0C1925",
"#  c #0F1C29",
"$  c #091823",
"%  c #101E29",
"&  c #141D25",
"*  c #14222C",
"=  c #18232B",
"-  c #162928",
";  c #192B2E",
":  c #162725",
">  c #1D3826",
",  c #192630",
"<  c #1D2B34",
"1  c #162938",
"2  c #162834",
"3  c #292D31",
"4  c #212E38",
"5  c #242D34",
"6  c #233437",
"7  c #2B3036",
"8  c #253638",
"9  c #3A3738",
"0  c #2D2B2C",
"q  c #473D39",
"w  c #386C1E",
"e  c #3D7D1E",
"r  c #234424",
"t  c #274B26",
"y  c #2C5823",
"u  c #284538",
"i  c #35523C",
"p  c #346822",
"a  c #3E7925",
"s  c #326D31",
"d  c #56463E",
"f  c #4A413C",
"g  c #0D2742",
"h  c #062A56",
"j  c #0C375A",
"k  c #123F5B",
"l  c #2D3943",
"z  c #2C3C48",
"x  c #313D47",
"c  c #333F48",
"v  c #083568",
"b  c #0A3A72",
"n  c #103D61",
"m  c #1D4853",
"M  c #344049",
"N  c #3A454E",
"B  c #395641",
"V  c #385742",
"C  c #3B4953",
"Z  c #2B6D5B",
"A  c #195365",
"S  c #0B4976",
"D  c #215974",
"F  c #304F70",
"G  c #15647D",
"H  c #297C73",
"J  c #424346",
"K  c #534741",
"L  c #5E4F48",
"P  c #434D56",
"I  c #444F59",
"U  c #46515A",
"Y  c #49545C",
"T  c #604F46",
"R  c #795C4B",
"E  c #675B54",
"W  c #6E5549",
"Q  c #476849",
"!  c #746052",
"~  c #515C64",
"^  c #4F5961",
"/  c #655E63",
"(  c #5B646C",
")  c #566068",
"_  c #646D74",
"`  c #6B747A",
"'  c #86634E",
"]  c #8C6852",
"[  c #9D745B",
"{  c #946A51",
"}  c #A5775C",
"|  c #B47D5D",
" . c #977560",
".. c #876F62",
"X. c #A17962",
"o. c #488E1C",
"O. c #4D991A",
"+. c #4D981B",
"@. c #448B24",
"#. c #469528",
"$. c #519238",
"%. c #5AA22E",
"&. c #34975D",
"*. c #2F8C5C",
"=. c #5E8B56",
"-. c #608959",
";. c #69945F",
":. c #75BB4C",
">. c #6BAF4D",
",. c #549860",
"<. c #6B9660",
"1. c #948079",
"2. c #B68263",
"3. c #B7937F",
"4. c #81B969",
"5. c #C78C69",
"6. c #C99677",
"7. c #DC9A72",
"8. c #D49874",
"9. c #D2936D",
"0. c #E29D72",
"q. c #EDA376",
"w. c #EDA579",
"e. c #E6A47B",
"r. c #F2A779",
"t. c #F4A97B",
"y. c #F4A879",
"u. c #8DCC69",
"i. c #8EC574",
"p. c #90C875",
"a. c #8FD06B",
"s. c #055983",
"d. c #03489A",
"f. c #0B498C",
"g. c #106C96",
"h. c #0554A7",
"j. c #115BB5",
"k. c #0679AB",
"l. c #0560BC",
"z. c #0372AA",
"x. c #2C68B7",
"c. c #48628C",
"v. c #757D83",
"b. c #707B9C",
"n. c #4075BF",
"m. c #0F5FC0",
"M. c #0865C9",
"N. c #0578DC",
"B. c #0670C9",
"V. c #4478C1",
"C. c #1B9697",
"Z. c #1A8C93",
"A. c #208C8B",
"S. c #098EBD",
"D. c #798288",
"F. c #0285C5",
"G. c #0288D8",
"H. c #0892C0",
"J. c #81898E",
"K. c #84888D",
"L. c #888E94",
"P. c #8C939A",
"I. c #91979D",
"U. c #9699A4",
"Y. c #8A8CA6",
"T. c #9CA1A6",
"R. c #A4A9AD",
"E. c #A9AEB1",
"W. c #B4B8BC",
"Q. c #C39785",
"!. c #D1A28A",
"~. c #EFB18C",
"^. c #EDB796",
"/. c #F2B38C",
"(. c #D9B9A5",
"). c #F7C6A7",
"_. c #F3CBB2",
"`. c #FACEB4",
"'. c #F5D1BB",
"]. c #BABDC0",
"[. c #BFC2C5",
"{. c #C6C9CB",
"}. c #C1C5C7",
"|. c #D3D5D7",
" X c #D3D6D8",
".X c #D6D8DA",
"XX c #D9DBDD",
"oX c #CFCECE",
"OX c #FBDBC7",
"+X c #EBD4C6",
"@X c #F6E4DA",
"#X c #F9E6DA",
"$X c #FAE3D5",
"%X c #E3E4E5",
"&X c #EAEAEB",
"*X c #E6E7E8",
"=X c #F9EDE6",
"-X c #F9F1EC",
";X c #F4F4F4",
":X c #F8F5F4",
">X c #FAFAFA",
",X c #FCF9F6",
"<X c #EFF0F0",
/* pixels */
"                                                                                                                        ",
"                                                                                                                        ",
"                                                                                                                        ",
"                                                                                                                        ",
"                                                                                                                        ",
"                                                                                                                        ",
"                                                                                                                        ",
"                                                                                                                        ",
"                                                                                                                        ",
"                                                                                                                        ",
"                                                                                                                        ",
"                                                                                                                        ",
"                                                                                                                        ",
"                                                                                                                        ",
"                                                                                                                        ",
"                                                                                                                        ",
"                                                                                                                        ",
"                                                                                                                        ",
"                                                                                                                        ",
"                                                                                                                        ",
"                                                                                                                        ",
"                                                                                                                        ",
"                                                                                                                        ",
"                                                                                                                        ",
"                                                                                                                        ",
"                                                                                                                        ",
"                                                                                                                        ",
"                                                                                                                        ",
"                                                                                                                        ",
"                                                                                                                        ",
"                                                                                                                        ",
"                                                                                                                        ",
"                                                                                                                        ",
"                                                        . X X .                           X . X .                       ",
"                                                      # % # % % #                       # # # # % %                     ",
"                                                    l x c M c x x l                   x M M M M c x                     ",
"                                                  4 Y _ v.D.D.v._ Y 4               x ) ` v.v.v.` _ C                   ",
"                            # # # # @ # % % @ + $ l _ T.W.{.{.].T.` l $ X + $ X X * C D.R.}.{.}.W.L.^ < X               ",
"                          - - - - ; < = * % % % 4 U J.}.&X>X>X<X}.J.P 4 < 4 4 4 < 8 ( U..X:X>X>XXXE.` N <               ",
"                        - > > t i i B u 6 = 4 c ^ v.R.XX>X>X>X>X.XR.v.( ~ ( ( ( ~ _ J.W.*X>X>X>X;X{.I._ ^ N             ",
"                      # > t p a $.-.-.Q 9 < x ( P.W..X&X>X>X>X>X&XoXW.E.R.R.E.R.R.E.[..X<X>X>X>X:X%X{.R.L.) 8 +         ",
"                    # - > y e $.>.4.4.-.i 6 C J.}.&X:X>X>X>X>X;X;X&X&X&X%X%X%X&X*X*X&X:X:X>X>X>X>X>X;X%XW.v.N , $       ",
"                  ; > r t w @.%.:.a.i.<.V 6 U P.XX>X>X>X>X>X:X>X>X>X>X>X>X>X>X>X>X>X>X>X>X;X>X>X>X>X>X>XoXU._ U M       ",
"                - > t y w a o.%.:.a.p.<.V 6 I U.XX>X>X>X:X>X>X>X>X>X>X>X>X>X>X>X>X>X>X>X>X>X:X>X>X>X>X>X%X[.T.J._ C , X ",
"              # - > w e o.@.o.%.:.u.4.;.B 8 P P.XX>X>X>X>X>X;X;X>X>X>X>X>X>X>X>X>X>X>X>X>X;X>X>X;X>X>X>X:X&XXXW.D.P , X ",
"              # - r w o.+.+.#.%.:.u.p.<.B 4 P P..X>X>X>X;X>X>X>X>X:X>X;X;X>X>X:X;X:X>X;X:X>X>X;X>X:X>X;X>X>X>X.XP.U < X ",
"              @ : r w o.O.O.O.%.:.u.p.<.B 8 I P..X>X>X>X>X;X:X>X;X>X;X>X;X>X>X;X>X>X>X>X;X>X>X;X>X>X>X>X>X>X>XXXI.U , X ",
"              o : r w o.O.O.O.%.:.u.p.<.B 8 I P..X>X>X>X>X;X>X>X>X>X;X>X>X:X>X>X>X;X;X>X>X:X>X>X:X>X>X>X>X>X>X XI.U , X ",
"              2 2 u s @.#.#.#.$.>.i.4.-.i 6 P P.|.>X>X>X>X>X>X;X>X;X>X>X>X;X>X>X>X>X>X;X>X>X>X>X;X>X>X>X>X>X>X XP.U = X ",
"            h h A A Z *.&.&.&.&.,.,.=.Q 8 6 I P.|.>X>X>X>X>X>X;X>X>X>X>X>X>X>X>X>X>X>X>X>X;X>X>X>X>X>X>X>X>X>X XP.U ; X ",
"        & g v f.f.g.g.Z.C.C.C.Z.*.Z B 8 - < U I..X>X>X>X>X:X>X>X>X>X>X>X>X>X>X>X>X>X>X>X>X>X>X>X>X>X>X>X>X>X>X XP.U , X ",
"      O % 1 b d.l.B.F.H.H.H.H.k.s.A 4 & @ = U I.XX>X>X>X:X>X>X:X:X:X;X:X;X;X;X;X:X:X;X:X;X>X;X;X;X;X;X;X>X>X>X XP.U , X ",
"      o % g b h.M.N.G.G.F.S.z.g.D C q 0 & = I I. X>X>X>X>X>X>X;X:X=X#X#X@X@X@X#X#X@X@X@X@X@X@X@X@X@X@X#X-X,X,XXXI.Y , + ",
"% % @ o @ g b h.M.N.G.G.B.z.s.S F E ! d 9 3 I P.|.>X>X>X>X>X>X>X=X$XOX`.'.`.`.`._._._._._._._._._._._.`.OX-X,XXXI.Y , X ",
"% % # & @ g b h.M.N.G.F.k.s.m z E X.2.] f 5 I P..X>X>X>X>X>X>X:X@X'.).~.~.~.~.~.~.~.~.~.~.~.~.~.~./.~.~.).$X=X.XI.Y , + ",
"% % = , 7 z F j.M.N.B.k.g.A z d { 5.9.} d 7 I P..X>X>X>X;X;X-X=X+X(.6.5.5.5.9.8.0.e.w.w.q.e.r.w.q.0.9.9.!.(.oXW.D.C = + ",
"# % 3 q W / c.x.M.l.h.s.D U E ] 2.7.7.} d 7 U P.|.>X>X>X:X=X$X+X(.Q.[ ! R ' { } 5.0.q.q.q.q.r.q.0.5.} ] ..1.K.D.) l * $ ",
"@ % 9 R X.1.b.x.m.h.f.m C E  .5.0.q.7.} d 7 U P.|.;X>X>X:X#X'.^.6...L q 9 9 K R 2.0.y.y.w.w.r.r.0.2.R d J J P C l < % # ",
"$ = q ] 5.Q.Y.n.m.d.h g q ' 5.0.y.r.7.[ d 3 P P..X>X>X>X<XOX).~.2.W 9 - @ # 7 T } 7.y.t.w.w.t.t.7.} T 3 * # = , * % % % ",
"$ = q { 8.!.Y.V.m.d.h 2 q { 8.t./.y.7.[ d 7 P P..X>X>X>X-XOX).e.| W 3 + . + = K [ 7.t.t.w.w.t.t.7.[ K - + X + + $ # % % "
};
