/* XPM */
static char *result[] = {
/* columns rows colors chars-per-pixel */
"66 32 2 1 ",
"  c #EEB551",
". c #E39347",
/* pixels */
"                                                                  ",
"                                                                  ",
"                                                                  ",
"                                                                  ",
"                        . ....          .                  .      ",
"       ...                ....        . .                . . .    ",
"       ... .          ... ....        . . .              . . .    ",
"       ...            ... ....                                    ",
"           ..         ...                                         ",
"        .. ..             ...                                     ",
"        ..              . ...                                     ",
"                          ...                                     ",
"                                                                  ",
"                                                                  ",
"                                                                  ",
"                                                                  ",
"                                                                  ",
"                                                                  ",
"                                                                  ",
"                                                                  ",
"        ...                .                                      ",
"        ...             ..                                        ",
"      . ... .           .. ...                                    ",
"                           ...                                    ",
"       .. ....        .... ...                                    ",
"       .. ....        ....              .                         ",
"          ....        .... .          . . .                .      ",
"          ....        ....            . . .              . . .    ",
"                                                                  ",
"                                                                  ",
"                                                                  ",
"                                                                  "
};
