/* XPM */
static char *gate_closed_resized[] = {
/* columns rows colors chars-per-pixel */
"80 80 245 2 ",
"   c None",
".  c #3B0D12",
"X  c #430C0D",
"o  c #450E04",
"O  c #441103",
"+  c #4C1403",
"@  c #481407",
"#  c #531402",
"$  c #5B1501",
"%  c #561B03",
"&  c #5C1C03",
"*  c #55170B",
"=  c #460C16",
"-  c #441214",
";  c #4B1315",
":  c #4B141C",
">  c #47171A",
",  c #52161A",
"<  c #53191D",
"1  c #571A1A",
"2  c #651602",
"3  c #6C1601",
"4  c #631D02",
"5  c #6B1C02",
"6  c #661B0A",
"7  c #741B01",
"8  c #7B1D01",
"9  c #711701",
"0  c #5E2307",
"q  c #5C271E",
"w  c #4F271A",
"e  c #642204",
"r  c #6C2203",
"t  c #632B07",
"y  c #6D2B02",
"u  c #642D08",
"i  c #63240A",
"p  c #742102",
"a  c #7C2103",
"s  c #782804",
"d  c #683306",
"f  c #773603",
"g  c #732817",
"h  c #491827",
"j  c #5B1D23",
"k  c #541B27",
"l  c #491935",
"z  c #561E34",
"x  c #470E20",
"c  c #611F21",
"v  c #601B37",
"b  c #4E252B",
"n  c #5C2225",
"m  c #572528",
"M  c #4B243B",
"N  c #492035",
"B  c #542234",
"V  c #53243C",
"C  c #5B2738",
"Z  c #573732",
"A  c #63242B",
"S  c #6B2629",
"D  c #6D292D",
"F  c #652427",
"G  c #712B2E",
"H  c #792C24",
"J  c #67342A",
"K  c #6D2B33",
"L  c #652839",
"P  c #722E34",
"I  c #742D37",
"U  c #653538",
"Y  c #75323A",
"T  c #7A353A",
"R  c #733335",
"E  c #723D2A",
"W  c #794603",
"Q  c #7D5303",
"!  c #727411",
"~  c #6C4236",
"^  c #784938",
"/  c #754937",
"(  c #4A1C47",
")  c #4C2746",
"_  c #532944",
"`  c #532C4C",
"'  c #582B48",
"]  c #5A3648",
"[  c #4D2C53",
"{  c #562A54",
"}  c #55335A",
"|  c #5A365C",
" . c #583458",
".. c #6A2B44",
"X. c #732D4C",
"o. c #742A4A",
"O. c #6B3549",
"+. c #73334D",
"@. c #763947",
"#. c #6B3C53",
"$. c #673855",
"%. c #753452",
"&. c #753B53",
"*. c #7A3C5B",
"=. c #783657",
"-. c #752E52",
";. c #5C3962",
":. c #5B376A",
">. c #5C3977",
",. c #512A64",
"<. c #623D65",
"1. c #643B7A",
"2. c #753B68",
"3. c #451B64",
"4. c #69474C",
"5. c #784748",
"6. c #684555",
"7. c #75445B",
"8. c #79435D",
"9. c #76485A",
"0. c #79575D",
"q. c #74524F",
"w. c #5F4377",
"e. c #5D5371",
"r. c #67426D",
"t. c #69446E",
"y. c #6C4364",
"u. c #7B4C63",
"i. c #784763",
"p. c #7D546A",
"a. c #775865",
"s. c #6A4572",
"d. c #674577",
"f. c #744977",
"g. c #6E5575",
"h. c #7A656A",
"j. c #776269",
"k. c #7C6B73",
"l. c #776973",
"z. c #70697B",
"x. c #5F414E",
"c. c #3A1742",
"v. c #821E01",
"b. c #842101",
"n. c #8A2101",
"m. c #8C2B01",
"M. c #83240A",
"N. c #842803",
"B. c #922D01",
"V. c #893302",
"C. c #943302",
"Z. c #9D3D01",
"A. c #983701",
"S. c #812718",
"D. c #A13E01",
"F. c #813539",
"G. c #9D4101",
"H. c #974903",
"J. c #8C5607",
"K. c #965602",
"L. c #834604",
"P. c #A24001",
"I. c #A14B01",
"U. c #A25B01",
"Y. c #947103",
"T. c #A56702",
"R. c #935C3A",
"E. c #9C623B",
"W. c #A1673F",
"Q. c #8A5649",
"!. c #9A6847",
"~. c #94655C",
"^. c #B77E4E",
"/. c #A87658",
"(. c #AA744C",
"). c #845A66",
"_. c #81717B",
"`. c #8B6D6B",
"'. c #A4796E",
"]. c #5D8A19",
"[. c #6C8D0C",
"{. c #778B07",
"}. c #799407",
"|. c #6C8D11",
" X c #849A06",
".X c #8C8D08",
"XX c #8BA206",
"oX c #96AB08",
"OX c #95AA12",
"+X c #A4A607",
"@X c #BB804F",
"#X c #BA8556",
"$X c #BC8A66",
"%X c #C48B57",
"&X c #CC945A",
"*X c #D59A5D",
"=X c #D89C5E",
"-X c #D3985A",
";X c #C0834F",
":X c #F1955B",
">X c #F08D55",
",X c #E0A15E",
"<X c #C99562",
"1X c #D49E62",
"2X c #D99F60",
"3X c #F29E64",
"4X c #D6A165",
"5X c #DBA365",
"6X c #DCA669",
"7X c #DEAA6B",
"8X c #D7A369",
"9X c #E0AD6E",
"0X c #E4A966",
"qX c #F4AB6E",
"wX c #F3A367",
"eX c #EAB16E",
"rX c #F4AE71",
"tX c #E5B172",
"yX c #EBB472",
"uX c #EEB977",
"iX c #F5B273",
"pX c #F4BC7A",
"aX c #F3BA76",
"sX c #DEA25F",
"dX c #F6C17E",
"fX c #6B3E83",
"gX c #6C3CA3",
"hX c #5F4581",
"jX c #644583",
"kX c #634A85",
"lX c #664787",
"zX c #734588",
"xX c #72518F",
"cX c #646988",
"vX c #6B759A",
"bX c #726C8F",
"nX c #6C7DA2",
"mX c #7C62AF",
"MX c #6850AA",
"NX c #6861E3",
"BX c #817282",
"VX c #7484E1",
"CX c #F6C382",
"ZX c #F8C684",
"AX c #F8C887",
/* pixels */
"                                                                                                                                                                ",
"                                                                                                                                                                ",
"                                                                                              {. XOX                                                            ",
"                                                                                            {.}. X                                                              ",
"                                                                          .XU.T.U.U.I.    ! ! .X X  OX                                                          ",
"                                                          D.D.I.U.T.Y.T.Q K.D.D.B.B.D.n.V.I.P.D.I.K.U.                                                          ",
"                                                    P.P.m.Z.P.D.P.P.D.A.v.B.B.n.n.n.n.8 N.A.D.D.P.P.P.P.P.P.                                                    ",
"                                              G.P.P.P.P.C.C.Z.Z.D.A.B.n.v.n.n.n.n.n.n.7 v.v.n.B.P.P.P.P.P.P.P.P.P.                                              ",
"                                          Z.P.P.D.D.D.B.n.v.n.n.v.n.n.n.n.v.n.n.n.n.n.9 n.n.n.n.n.B.D.D.D.D.D.D.C.J.+X                                          ",
"                                        G.P.G.P.D.B.n.n.n.v.n.n.n.n.n.n.v.v.n.n.n.n.v.v.n.n.n.n.n.n.v.B.m.B.B.m.p G.T.T.+X                      OX              ",
"                                    Z.C.m.Z.Z.B.v.n.n.n.n.v.v.v.n.n.n.n.n.v.v.n.v.v.v.9 n.n.n.n.n.n.n.n.v.v.v.9 C.P.G.Z.I.U.                }.  XX              ",
"                                G.P.Z.D.m.a b.b.n.n.n.v.v.v.v.v.n.n.n.n.v.v.v.v.n.v.v.9 v.v.n.n.n.n.v.n.n.n.8 8 m.G.G.P.D.D.I..X          |.|.{.}.              ",
"                              A.C.B.m.n.v.v.8 v.v.n.n.v.v.8 9 9 v.v.v.8 8 9 8 v.v.v.9 9 9 v.v.v.n.n.n.v.n.v.7 n.n.m.B.B.B.C.A.H.Y.oX    ].].[.{.}.  OX          ",
"          |.      OX      H.m.n.b.n.v.v.n.v.v.8 n.n.n.v.8 7 8 9 9 9 9 9 9 9 3 v.9 9 9 9 9 9 v.v.n.n.n.n.v.9 v.n.n.b.n.n.n.n.v.m.A.Y.XX}.].[.[.{.}.XX            ",
"         X X XOXoX    J.V.n.n.b.n.n.v.n.v.n.v.8 v.v.v.8 7 7 7 9 9 3 3 3 9 9 9 7 9 9 2 3 9 9 9 9 8 7 v.8 9 8 n.n.b.n.n.b.b.n.v.v.n.B.K..X}.[.[.}.}. XoXoX        ",
"        |.}.OXoXoXY.H.n.N.n.b.b.n.n.n.v.n.v.v.v.9 9 9 9 9 9 3 9 9 8 8 v.v.v.v.9 9 9 v.9 v.9 9 9 9 9 9 9 2 8 b.b.b.b.b.n.b.n.n.n.b.b.m.H.K..X{.}.}. XXX          ",
"      |. XOXXX XK.a N.b.b.b.b.n.b.b.b.b.b.b.b.b.5 9 9 9 3 3 8 8 8 8 8 M.n.v.v.8 9 8 v.v.n.v.n.v.8 7 9 3 9 8 8 v.v.n.b.b.b.b.n.b.b.b.b.C.C.f J.Y.{.}.XXoXOX      ",
"    }. XXX}.Y.H.n.8 8 b.b.b.b.b.b.b.b.b.b.n.b.8 9 8 9 5 8 v.v.8 7 8 8 b.n.M.M.M.M.S.v.v.v.M.n.v.v.v.8 2 7 7 7 8 b.n.b.b.b.b.b.b.b.b.b.8 a A.Z.G.H.! }.          ",
"        ! J.L.n.b.b.7 8 b.b.b.b.b.b.b.n.b.v.8 7 9 b.b.b.b.v.8 8 8 8 g S.F.T T T T Y F.F.F.v.v.v.v.M.v.9 3 3 9 7 7 8 b.b.b.8 8 b.b.b.7 8 N.C.Z.G.Z.G.J.|.        ",
"      J.L.m.N.N.b.b.b.7 8 b.b.b.b.b.N.v.8 8 7 9 8 b.b.b.b.M.g F.&.i.u.+.Y Y Y T Y Y Y T -.fXf.*.F.S.v.v.v.7 3 2 3 9 7 8 8 8 9 9 7 9 8 b.b.b.n.C.C.C.A.H.! ].    ",
"    ! A.n.8 b.b.b.b.b.b.7 7 8 8 8 8 7 7 9 9 7 8 b.b.b.H @.i.f.f.f.f.s.$.R &.xX2.Y Y Y I -.fXzXfXzXzXi.@.S.M.v.8 9 5 3 2 5 9 5 9 5 7 v.b.b.b.b.b.b.b.b.B.H.!     ",
"    A.N.b.a 8 b.b.b.a b.v.7 2 9 5 5 9 9 7 8 b.b.s G 7.f.g.f.s.t.r.<.|  .L %.gX2.Y Y T K _ >.fXfXzXzXzXf.f.i.Y 8 b.b.8 7 3 2 2 2 2 7 b.b.b.b.a b.b.b.v.M.C.J.!   ",
"    m.a b.b.a 8 a b.b.b.8 7 3 2 9 7 8 8 b.a a G 9.f.s.s.t.<.| ` l h l ) n R P *.+.I I c = = l ( { ,.fXfXjXs.f.i.G a 8 b.b.8 8 9 7 7 8 b.a b.b.b.a b.M.M.M.Z.!   ",
"    m.a b.8 b.8 8 7 8 8 9 9 9 7 8 8 b.b.8 g @.s.s.s.t.;.` l - . X , m V < K P X.R P P k c v , l 3.l l 3.1.1.d.s.f.#.g 8 b.b.b.8 8 2 8 b.8 b.a v.b.v.v.v.v.C.J.  ",
"    N.v.b.8 7 a 8 5 5 9 5 7 v.b.8 7 8 8 S y.s.t.t.;.` h X = < K Y T @.T < S G D G G S , Y @.@.2.gX_ = ( ( ( >.1.s.s.y.P 8 a b.8 7 5 5 v.8 b.v.b.v.v.v.M.M.m.    ",
"    N.a 8 8 7 7 9 9 3 3 7 a 8 7 7 7 5 K t.s.t.r.` h X X j R T Y Y Y Y Y n n G S S S c 1 I P K O.-.-.-.-.k = l ,.1.s.t.s.L 7 a 8 7 7 2 7 b.8 a v.v.v.M.v.v.M.    ",
"    b.a a 7 7 5 9 9 2 8 b.a 7 7 8 2 C s.t.t.<.) - X j P Y Y Y Y Y Y Y Y n 1 S S S S < n Y I K ..-.X.-.=.-.v = = ) >.1.s.s...6 b.8 7 5 2 8 b.a v.M.v.M.v.v.S.    ",
"    b.a 8 7 9 2 5 3 5 8 a 7 7 7 7 C t.t.t.| l X = A R R Y Y I I Y R I K j , 1 1 c F , J Y R I I +.-.-.=.=.-.o., = l :.<.t.s.L 5 8 7 8 2 5 8 b.a 8 M.v.v.v.M.    ",
"    a a 8 5 2 5 2 3 8 a 7 a N.8 q r.s.t.| l X X ; P I P P P P P R D F < ; . . . . . . . m S P P O.&.=.%.2.f.X.k = = l :.r.t.t.m 7 8 a 2 6 7 8 v.v.g v.v.M.M.    ",
"    a 7 9 2 2 2 5 8 a a p a 8 * $.r.t.;.M X , R 1 k D G %.+.G S j > - m ~ R.!.(.#X#XE./ m > - m K +.&.+.%.%.z k o.v = ( >.t.r.<.1 8 a 7 $ 3 6 7 8 a v.v.8 7     ",
"    6 2 2 2 2 9 8 a a 8 7 a 5 C r.r.;.) X ; P R Y j 1 D K K j . w !.#X8X7X5X4X9X6X7X9X9X6X&XQ.. - B +.+.+.B z =.=.-.k = ` 1.r.t.' 2 8 8 $ 2 3 3 3 9 6 7 3 6     ",
"    s p p 5 2 7 8 8 a 7 7 p * $.r.r.} > = D P R Y Y j j c ; . U #X9X9X7X7X9X*X1X6X4X7X9X7X7X9X&X!.J h ..L L *.*.=.=.X.: = ,.1.r.<., 7 8 2 $ 3 3 6 9 6 6 5 6     ",
"    5 a a a a 5 2 5 p 7 a 2 B 1.r.;.h X j G P R Y Y Y j 3.c.q.1X9X9X9X0X7X9X7X*X4X6X5X7X7X5X7XtX7X#Xm - V i.8.*.*.%.+.L = l 1.1.t.C 2 8 5 # 2 2 4 5 5 p S.M.    ",
"    6 2 2 7 p a a p 5 p a # ' r.r.{ = ; S D P I Y Y I > ) '.4X0X9X9X9X6X6X9X9X4X1X*X5X5X7X7X6X7X9X9X#Xb h *.i.*.*.&.+.o.k = ,.fX1. .# 8 7 $ $ 2 7 s a M.8 v.    ",
"    p 7 2 2 2 2 y f y f f * ;.<.<.B X , S S P R @.I < w #X5X7X6X9X9X9X5X0X9X9X6X5X4X4X6X4X7X7X5X9X9X7X/.h V i.i.8.&.%.+.v = ( 1.d.<.; 9 8 2 5 5 6 8 8 a g v.    ",
"    p a a p 5 7 p f d W f m cXhX;.h o , c F D %.y.A . (.8X6X6X7X9X9X9X5X6X9X9X9X5X5X4X1X7X5X7X7X5X9X9X9X/.h #.8.8.&.&.+.o., h 1.jXr.k 2 a 7 7 7 7 p a a a a     ",
"      6 5 7 p a s L.L.W W Z vXvXe.h - F S S D I Y k E 1X4X5X7X9X7X7X9X6X7X9X9X9X7X5X7X4X4X6X6X9X0X7X7X7X6XQ.V i.9.&.%.O.L k = ,.fXfXB 2 a p p 5 7 a 7 a a a     ",
"        & 5 4 2 r f L.L.d Z vXvXe.b > - ; , k A A m (.<X7X5X9X9X6X0X9X6X7X7X9X9X7X5X5X5X4X8X7X6X7X5X7XtX7X&X4.$.$...B k k : x { jXfXM $ p a p a p a a 8 8 g     ",
"    p s a s s s p f W W d Z vXvXe.b b b m < J /.#X#X#X1X0X6X9X9X6X6X9X6X7X9X9X9XtX7X5XsX6X6X8X7X5X5X7X7X7X4X<X#X/.5.B C k : x { jXjXV $ a p p 7 g 7 5 4 $       ",
"    6 5 p p a p p p W Q W Z vXnXe.Z Z a._.).5.@.!.#X@X4X6X6X7X9X6X6X9X6X6X9X9X7X7X7X5X*X6X9X6X6X7X5X6X7X9X1X/.a.).u.u.8.+.z x ` jXjXz $ p 7 2 2 5 5 e 5 r       ",
"    6 5 p p p p p p f L.W Z nXnXe.4.j.h.k.k.k.q.~ (.&X*X7X7X6X7X5X0X9X6X6X9X9X7X7X9X7X-X5X7X7X8X8XsX1X6XtX8X~.i.u.).8.8.&.+.L _ jXlXB # 2 2 5 f f V.V.V.V.V.    ",
"    6 5 5 7 p p p 7 a W W Z nXnXe.q.j.h.k.k.k.k.0.W.#X1X7X7X5X7X5X9X9X7X9X9X0X7X7X9X0X=XsX6X7X7X7X5X*X1X6X8X/.i.p.u.i.*.&.O.L { jXjXk 2 p p p p p p 7 p g p p   ",
"    6 6 2 5 p 7 r p p f W Z vXnXe.q.j.h.k.l.k.l.j.E.#X*X7X7X5X7X5X7X9X9X9X9X5X5X7XtX7X2X5X6X6X6X9X7XsX4X1X1X#Xi.p.f.).).7.O.L  .kXjXk 5 p p p 7 p 7 p p 7 7     ",
"    r 7 p p p p p p p p W w cXnXcX6.j.l.l.l.l.l.j.W.#X*X7X7X5X5X5X7X9X9X9X9X6X5X7X7X7X2X6X7X8X4X7X7X6X6X6X*X<X0.xXBXzXf.i.&...| kXjXh 5 p p p p p p p p p p     ",
"      p p p p 7 p 7 p p d w vXnXz.4.j.h.k.l.l.l.`.&X2X6X4X*X-X2X8X1X7X7X7X9X9X6X7X7X7X5X4X4X6X5X7X2X5X6X7X7X6X).BXNXmXf.i.&.L | kXkX< 4 p 7 7 p p 7 p r p 7     ",
"      5 5 r r 5 r 5 5 5 0 w cXnXcXx.0.j.j.h.j.j.`.1XsX6X4X6XeX0X1X&X6X7X7X7X7X5X7X7X7X5X1X*X5X5XeXeXyXtX8X9X7X~.).p.u.9.7.O.V ;.kXkX> 4 r r r p p p p p p 5     ",
"      2 $ $ $ # # $ $ % % . cXnXcXM C b n C C J !.4X*X2XuXdXdXdXdXuX0X1X1X5X7X5X7X7X7X5X6XyXaXdXAXdXdXuX8X6X9X'.i.y.#.] V B k :.kXd.- e 4 2 2 5 5 2 6 4 4 $     ",
"      o o + # # # % # % 0 . e.nXcX] C j n k E #X4X*X-XtXaXyXdXdXZXZXZXpXyX5X-X-X7XtXuXpXpXrXwXwXpXdXaXaXyX7X7X8X$X).] #.O.C b w.kXw.* y y r e & & # + o o       ",
"        4 y p y p p p r r + r.vXcXx.~ R Y A R.9X7X&X6XpXdXdXdXdXZXAXAXZXCXpX0XeXdXZXpXqXiX>XiXqX:XdXdXdXtX8X8X9XtX~.#.).u.7.B ;.kXw.w s s p p s y r e 0         ",
"      r r 5 5 5 r r 5 p 7 + ` cXvX] 4.U Y k ^ 9X7X4X&X,XdXdXdXdXZXCXpXiXuXpXZXZXqXrX3X>XrXqX:XiX:XZXdXpX7X*X4X9XtX/.' p.i.&.B w.kX:.* y p r r 5 2 5 4 5 4       ",
"      r 5 5 4 4 5 e r r r + _ e.cX] 4.U A > E 8X9X6X5X5X6XeXdXaXeXeXpXCXCXqXwXwX>X3XwX>XwXrXwXiXaXeX5X2X4X7X9X9X7X!.V 6.4.O.B w.kXw.* r y 5 5 4 4 4 4 4 4       ",
"      6 e 5 2 5 5 5 5 r 5 # _ ;.cX] x.] m < b E (.7X0X9XsX,X,XeXpXdXiXZXwX3XCX3XwXiX:XqXrXpXyX0X-X&X-X6X7X9X9X/.q.O.Z ] C C B w.kX;.* s p r 5 4 2 2 4 4 4       ",
"      r 5 r r r 5 5 r 5 5 + V ;.e.x.j.h.0.T Y A ^ 9X6X6X0XeXdXdXwXiX3XrXpX>XrXwXrXpXpXpXtX,X0XeXdXaXtXsX*X8X7X5.6.h.p.a.9.&.C w.kX| * y y 5 5 4 5 & 4 & 4       ",
"      5 r 5 2 4 4 4 4 2 & o M ;.| ] 0.h.k.9.Y L ^ 6X1XeXdXZXdX3XwXAXpX:XqXwXrXpXdXtX0X0XeXdXCXZXZXZXdXdXeX*X&X~ #.p.u.9.9.#._ w.kX} + y 5 e 5 r 5 5 4 5 4       ",
"      & & & $ 4 & & & 4 4 + l ;.| C 0.h.k._.5.A R.6XtXZXZXdXdXrX:XrXqXqXrXpXyX0X1X0XuXCXZXZXZXdXdXdXdXCXuX4X*X5.$.a.y.9.9.U V d.kX} + e 5 4 e 4 0 5 4 & &       ",
"        5 r r 5 r 5 r 5 5 # b ;.| b q.h.k._.k.C / =X6XtX9XdXdXZXpXiXaXaX0X1X1X1X0X9XtXuXdXZXZXZXZXdXdX0XtX7X6X/ 6.p.u.9.7.C M kXw. .% y r r p y y y r r         ",
"        r e 5 e 5 r e r 5 # h ;.| k U j.k.k.BX0.^ 4X6X6XpXpXdXdXpXeX4X*X4X7X7X7X9X6X6X6X0X0XyXdXZXAXAXpX5X5X6X5.#.p.p.i.#.B B d.hX` % s r 4 5 e 5 r 5 r         ",
"        5 5 r 5 e 5 5 r 5 + h | ;.l < a.k.k.k.j.^ 1X9X4X*X5XtX5X=X<X1X7X7X7X7X7X9X6X6X7X6X*X&X5X0X0XtXtX8X7X7X5.6.p.u.9.O.B ) kXhX_ % r 5 r r 5 e 5 e 5         ",
"        e 5 5 r 5 5 5 5 e @ h } ;.k x d.k._._.j.^ 4X9X5X&X&X*X5X5X6X6X7X7X7X9X9X9X6X7X5X5X1X*X7X6X5X*X7X6X7X8X4.$.p.u.9.7.O._ d.hXV & r e 5 r e 5 e 5 e         ",
"        4 e e 5 e r e e & % . } ;.b l C g.bXBXh./ #X9X7X8X9X9X7X=X9X7X7X9X9X9X9X7XtX7X5X*X7X7X7X9X0X5X9X7XtX<XU #.p.u.i.&.O.' kXw.B & e 5 e e 5 e 5 r e         ",
"        & & & & & & & & % O . | ;.B l L xXVXbXj.~ @X7X7X5X9X9X5X5X9X9X9X9X9X9X9X9X9X7XsX*X7X9X9X9X7XsX7X9X9X&XC #.u.i.9.7...' jXw.l & e e e 5 e e e r           ",
"          e y y y y y y y % - } ;.V X A U bXz.j.~ (.7X7X5X9X9X5X*X7X9X9X9X9X9X9X9X9XtX*X*X7X9X9X9X7X4X9X9X9X#XC #.).8.8.&.U ' jX>.b & 5 5 4 & 2 5 e e           ",
"        e y y y y y y r e e >  .;.V ; S D 4.l.j.~ (.7X7X5X9X7X5X=X7X9X9X9X9X9X9X9X9X9X=X=X7XtX7X9X7XsX7X9X9X#XB #.u.i.8.&...' jX>.h & e 4 & & & e r e           ",
"        4 4 5 e 4 r 4 4 e 0 - ` ;.C ; D I Y h.j.~ (.7X7X5X9X9X5X5X9X9X9X9X9X9X9X9X9X9X=X=X9X7X7XtX6X4X7X9X9X#XB $.i.7.*.&.L { w.>.: $ e 4 & & & e e &           ",
"        e 5 e & e 4 4 % & & - ` | _ , D P Y 0.j.~ !.8X7X5X9X9X5X2X7X9X9X9X9X9X9X9X9X9X2X2X9X7X9X9X7X2X7X9X9X^.z #.8.7.&.&.L { 1.:.> & 4 4 e & & 0 &             ",
"        & e 4 e 4 4 & & & & @ [ ;._ 1 D P I @.a.~ W.6X7X7X7X7X5X2X7X9X9X9X9X9X9X9X9X7X1X2X7X7X9X7X9X2X7X9X9X#Xk %.i.*.&.%.L { 1.,.- & 4 & & 4 & 4 &             ",
"        t e e & 4 0 & & & & @ ` | ' 1 D P R Y 6.E W.5X7X5X9X9X5X2X7X9X9X9X9X9X9X9X7X7X2X2X7X9X9X9X6X2X7X9X7X^.k O.i.*.&.%.L { >.,.o & 4 & % & 4 e 0             ",
"        d t e e 4 & & & $ & o ) | ' 1 D I Y Y Y J !.4X0X5X9X9X2X2X7X9X9X9X9X9X9X9X7X9X2X2X7X9X9X9X0X1X7X9XtX@Xh %.8.*.%.X.z { 1.} - & 0 & & & & 4 e             ",
"          u u e e & & & % 0 @ ) }  ., G G R Y K J W.1X7X7X9X9X2X2X7X9X9X9X9X9X9X9X9X7X1X2X7X9X9X9X5X=X7X9X7X@Xh O.2.*.%.o.v { :.` O & 4 & & & # & e %           ",
"          d u d e 0 & % & 0 O M }  ., G P I Y K q E.<X0X5X9X9X=X2X7X9X9X9X9X9X9X9X9X0X=X2X7X9X9X9X7X*X7X9XtX@X< +.*.=.%.o.z { ;.) . & 0 & & & % & 0 0           ",
"          u u d d 0 & % & 0 O M } ] , D P R T K q W.&X9X5X9X9X=X1X7X9X9X9X9X9X9X9X9X7X2X2X9X9X9X9X7X*X7X9X9X@Xh X.*.=.X.o.j ' } ) o % 4 & % & % % & 0           ",
"          u u u d d 0 & 0 & . N }  .: D P Y Y K q E.&X9X7X9X9X=X2X9X9X9X9X9X9X9X9X9X7X2X2X9X9X9X9X7X*X7X9X9X@X< X.=.-.o.o.: { } ) . & 4 % % & % % % 0           ",
"          0 0 t t t u u t 0 . b  .| : S K I Y K q W.&X0X6X9X7X2X1X7X9X9X9X9X9X9X9X9X0X-X1X9X9X9X9X6X=X5X9X9X@X< ..-.-.-.L ; ' } M . 0 0 % % % % % % %           ",
"            0 t t t t u u t . b } | : F K I Y K q E.%X7X7X7X7X=X2X9X9X9X9X9X9X9X9X7X7X2X2X9X9X9X9X7X=X6X9X9X@Xh X.=.-.o.A = $.} M O % & 0 % % % % % %           ",
"            0 i i i t u u 0 O M } | : A D K R I q E.%X0X6X9X7X=X2X7X9X9X9X9X9X9X9X9X7X2X2XtX9X9X9X7X=X5X9X9X@X< o.-.-.I q -  . .N O % 0 0 + 0 + % % %           ",
"          * & i 0 i i ] J t O M >.d.h j A K K K q E.%X0X7X9X7X=X2X9X9X9X9X9X9X9X9X9X7X2X1X9X9X9X9X0X=X5X9X7X@X< o.-.K S 1 ;  .[ N . % & 0 % 0 % % 0 %           ",
"          * % & 4 0 i i 0 0 + [ MXhXc.x < : : ; w E.%X0X7X9X7X=X2X7X9X9X9X9X9X9X9X9X7X2X2XtX9X9X9X7X=XsX9X7X;X* x : > = X ; |  .h . % 0 0 0 0 0 0 & %           ",
"          @ # 6 4 & 0 i 0 & O 3.NXhXl z ....O.L q R.;X5X6X9X7X=X2X7X9X9X9X9X9X9X9X9X7X2X1X9X9X9X9X7X*X5XtX7X%XJ k D D F n : |  .h O @ 0 0 % 0 0 0 % %           ",
"          @ # % * % % % * % + l >.fXz v X.=.*.%.n R.;X5X7X9X7X-X2X9X9X9X9X9X9X9X9X7X0X1X2XtX9X9X9X7X*X5X7X7X&XE K o.R D c : | [ h . @ % % 0 % 0 % + +           ",
"            # @ + # @ # + + O h 3.>.' v ..X.%.+.c R.@X4X7X7X0X=X1X9X9X9X9X9X9X9X9X7X0X1X1X9X9X9X9X7X*XsX9X7X%XE D I D A 1 h | [ h . @ % @ @ @ @ + + @           "
};
