/* XPM */
static char *gate_open_resized[] = {
/* columns rows colors chars-per-pixel */
"80 80 253 2 ",
"   c None",
".  c #3C0C0A",
"X  c #390B14",
"o  c #2D051D",
"O  c #2B062E",
"+  c #1D023D",
"@  c #430D09",
"#  c #4D1504",
"$  c #471407",
"%  c #541502",
"&  c #5B1501",
"*  c #551A03",
"=  c #5B1C03",
"-  c #55180C",
";  c #450B17",
":  c #4B1215",
">  c #4B151B",
",  c #441318",
"<  c #55191B",
"1  c #530F00",
"2  c #641601",
"3  c #6B1601",
"4  c #631D02",
"5  c #6B1C02",
"6  c #671C0B",
"7  c #731B01",
"8  c #7B1D01",
"9  c #721A03",
"0  c #5C2505",
"q  c #5F2C11",
"w  c #642204",
"e  c #6C2203",
"r  c #662A06",
"t  c #742102",
"y  c #7C2103",
"u  c #762A02",
"i  c #663207",
"p  c #783503",
"a  c #7A2716",
"s  c #632415",
"d  c #490724",
"f  c #4A1826",
"g  c #561B26",
"h  c #491A35",
"j  c #551E33",
"k  c #4C0736",
"l  c #621E26",
"z  c #5B2328",
"x  c #4A2238",
"c  c #572537",
"v  c #542F36",
"b  c #63242A",
"n  c #692529",
"m  c #702B2F",
"M  c #7D2720",
"N  c #6C2B33",
"B  c #66283B",
"V  c #722E34",
"C  c #702F39",
"Z  c #75323B",
"A  c #773338",
"S  c #69333B",
"D  c #7C4703",
"F  c #7E5204",
"G  c #747310",
"H  c #19014B",
"J  c #04005B",
"K  c #0B005C",
"L  c #0C0056",
"P  c #13005D",
"I  c #1B005E",
"U  c #120155",
"Y  c #22005E",
"T  c #270255",
"R  c #2F074C",
"E  c #030163",
"W  c #08006A",
"Q  c #170166",
"!  c #060077",
"~  c #180178",
"^  c #04107D",
"/  c #240061",
"(  c #2B0062",
")  c #29006B",
"_  c #360167",
"`  c #260078",
"'  c #380277",
"]  c #381E79",
"[  c #4A0B5A",
"{  c #4C144B",
"}  c #770347",
"|  c #4D2948",
" . c #562948",
".. c #5A3746",
"X. c #532C53",
"o. c #59365C",
"O. c #583458",
"+. c #4F3056",
"@. c #6A2C44",
"#. c #752C48",
"$. c #673448",
"%. c #74334D",
"&. c #753845",
"*. c #673B58",
"=. c #753453",
"-. c #753B54",
";. c #793959",
":. c #712D54",
">. c #480368",
",. c #56006B",
"<. c #490374",
"1. c #560076",
"2. c #481E6D",
"3. c #6C0172",
"4. c #69007C",
"5. c #740073",
"6. c #7B0074",
"7. c #76007A",
"8. c #64006E",
"9. c #5B3865",
"0. c #5C3876",
"q. c #532C69",
"w. c #633D67",
"e. c #643B79",
"r. c #743D6F",
"t. c #5A4248",
"y. c #5D4D5B",
"u. c #79445D",
"i. c #75455A",
"p. c #76555B",
"a. c #6B4750",
"s. c #5D496E",
"d. c #66416C",
"f. c #69436E",
"g. c #6F4666",
"h. c #7B4C63",
"j. c #774766",
"k. c #7C5568",
"l. c #6A4571",
"z. c #674678",
"x. c #754C76",
"c. c #6C5871",
"v. c #79656B",
"b. c #7B6B74",
"n. c #821E01",
"m. c #842102",
"M. c #8A2100",
"N. c #8C2B01",
"B. c #842808",
"V. c #922B01",
"C. c #893303",
"Z. c #933301",
"A. c #9C3D01",
"S. c #983702",
"D. c #832712",
"F. c #A13F01",
"G. c #9E4101",
"H. c #954803",
"J. c #8E5004",
"K. c #A14101",
"L. c #A24C01",
"P. c #A25501",
"I. c #936F03",
"U. c #A26B03",
"Y. c #830075",
"T. c #8C0076",
"R. c #88027B",
"E. c #9C0079",
"W. c #950177",
"Q. c #890167",
"!. c #A3007B",
"~. c #AB007C",
"^. c #B1017D",
"/. c #85025F",
"(. c #81717B",
"). c #806C75",
"_. c #815D6E",
"`. c #768B08",
"'. c #799407",
"]. c #6A8D11",
"[. c #58881A",
"{. c #839A07",
"}. c #8D9106",
"|. c #91A708",
" X c #A4A908",
".X c #060087",
"XX c #1A0085",
"oX c #070197",
"OX c #170198",
"+X c #091589",
"@X c #280088",
"#X c #350188",
"$X c #270095",
"%X c #350098",
"&X c #341283",
"*X c #0900A7",
"=X c #1301AB",
"-X c #1802A4",
";X c #0B02B6",
":X c #1600B8",
">X c #1413A4",
",X c #2801A9",
"<X c #3700A7",
"1X c #3700B8",
"2X c #2200B7",
"3X c #470089",
"4X c #58008A",
"5X c #48009A",
"6X c #530099",
"7X c #580095",
"8X c #4B158C",
"9X c #650086",
"0X c #680199",
"qX c #78019D",
"wX c #76048C",
"eX c #4602A7",
"rX c #5800A6",
"tX c #5A00B7",
"yX c #4503B9",
"uX c #6700A5",
"iX c #7600A4",
"pX c #6905B8",
"aX c #643C88",
"sX c #5D448A",
"dX c #654785",
"fX c #73498A",
"gX c #69779B",
"hX c #6F6A8B",
"jX c #6D7BA2",
"kX c #7C62B2",
"lX c #4D45BF",
"zX c #1600C9",
"xX c #1701D7",
"cX c #0E09C8",
"vX c #2B00C8",
"bX c #3901C5",
"nX c #2B02D8",
"mX c #1800E6",
"MX c #1507EC",
"NX c #2500EE",
"BX c #4600D8",
"VX c #4500C7",
"CX c #5306DF",
"ZX c #6F6ACD",
"AX c #86009A",
"SX c #980097",
"DX c #930588",
"FX c #A70097",
"GX c #B60099",
"HX c #AE0082",
"JX c #8E04A9",
"KX c #9709D1",
"LX c #9A0FE3",
/* pixels */
"                                                                                                                                                                ",
"                                                                                                                                                                ",
"                                                                                              `.{.|.                                                            ",
"                                                                                 X          ].].{.                                                              ",
"                                                                          }.U.P.L.L.L.F.  G I.I.}.}. X                                                          ",
"                                                          S.F.K.L.P.U.U.J.J.F.S.V.V.S.V.8 G.A.F.K.L.P.K.                                                        ",
"                                                    K.K.S.C.K.F.K.F.F.S.n.V.V.M.M.M.n.n.8 Z.V.F.F.F.F.K.K.K.F.                                                  ",
"                                              A.K.K.K.K.A.N.A.S.S.Z.V.M.M.n.M.M.M.M.M.8 n.n.M.M.S.F.K.K.K.F.K.K.F.                                              ",
"                                          G.F.K.F.F.S.V.M.n.M.M.M.M.M.M.M.n.M.M.M.M.M.n.n.M.M.M.M.V.S.F.F.F.F.F.Z.J. X                                          ",
"                                        S.G.K.F.F.V.M.M.M.M.n.n.M.M.M.M.M.n.n.M.M.M.M.9 n.M.M.M.M.n.M.M.M.M.V.M.8 C.L.U.U.                      |.              ",
"                                    F.A.C.C.S.Z.M.M.M.M.M.n.n.n.M.M.M.M.M.n.n.M.M.n.n.9 n.n.M.M.M.M.M.M.M.n.n.7 B.K.F.A.G.P.U.              '.'.{.              ",
"                                  A.A.F.V.N.8 M.M.M.M.M.M.n.8 n.n.M.M.M.n.n.n.M.M.n.n.9 n.n.M.M.M.M.n.M.M.M.n.n.N.S.A.K.G.H.P.U.          ].].`.{.              ",
"                              A.S.V.M.M.n.M.n.n.M.M.M.n.n.8 8 9 n.n.n.n.9 9 9 n.n.n.3 9 n.9 n.n.M.M.M.M.n.n.8 n.M.M.N.V.C.V.Z.A.I.|.    [.].].`.'.  |.          ",
"            {.    |.      J.Z.N.M.M.n.M.M.n.n.8 n.M.M.n.8 9 9 9 3 9 9 3 9 9 3 9 n.9 3 3 9 9 n.n.n.M.M.n.n.7 n.n.M.m.M.M.M.M.m.M.Z.P.}.{.[.].].'.'.{.            ",
"          {.{.{.|. X  I.H.N.n.m.M.M.n.M.n.M.n.n.8 n.n.n.9 9 7 7 3 3 3 3 3 9 9 9 3 3 3 3 3 3 3 9 8 8 n.8 3 7 M.M.m.M.M.m.M.M.m.M.M.N.H.I.{.`.].'.'.{.|.|.        ",
"          ].|.|.|.}.J.B.n.m.M.m.n.n.M.n.M.n.n.n.9 9 9 9 7 7 7 3 9 n.8 n.M.n.n.n.9 3 n.n.n.n.9 9 3 3 3 9 2 8 m.m.m.m.m.m.m.m.m.m.m.m.C.H.J.I.`.'.'.{.|.          ",
"      ].{.{.|.|.}.C.8 n.n.n.m.m.M.m.m.m.m.M.m.m.7 3 7 7 3 3 7 n.8 8 8 n.n.n.n.n.7 8 n.n.n.n.M.n.n.n.9 2 3 8 8 n.n.n.m.m.m.M.m.m.m.M.m.N.C.C.H.I.G '.{.|. X      ",
"    '.].{.{.`.I.Z.m.7 n.M.n.m.m.m.m.M.m.m.m.m.m.7 8 8 3 7 n.m.8 8 8 7 8 M.M.D.D.D.D.D.M.M.M.n.n.n.n.n.3 7 7 7 8 n.M.m.n.m.m.m.m.m.m.m.8 t S.G.G.H.I.'.          ",
"        `.G H.D.m.m.m.7 n.n.m.m.m.m.m.m.m.n.m.7 7 8 m.m.n.m.n.8 8 8 a M D._.A A Z A A &./.D.D.n.B.D.n.7 2 3 3 9 7 8 n.n.m.8 8 n.n.n.7 8 m.N.A.G.G.G.J.G [.      ",
"      G J.N.N.n.m.m.m.8 8 8 n.M.m.m.m.m.8 8 7 7 7 m.m.m.n.m.D.A -.j.x.;.C C Z Z Z Z Z Z #.x.r._._.D.D.n.m.8 9 3 2 7 7 7 8 7 7 7 7 5 8 m.M.m.m.N.N.Z.S.J.G [.    ",
"    G J.N.y 8 m.m.m.m.m.8 7 7 8 7 8 7 7 7 7 7 7 m.m.y D.A u.x.x.x.l.z.f.@.&.fXfX#.Z Z V B aXfXfXaXfXx.u.D.a m.8 8 5 2 2 2 7 3 7 3 7 n.m.m.m.m.m.m.m.n.N.H.G     ",
"    G C.n.n.8 8 y m.m.m.n.8 3 3 7 7 5 7 7 8 m.n.y a a.x.c.z.l.z.f.w.o.O.c Z r.fXZ Z Z V c o.e.e.aXr.aXfXx.x.&.a n.m.m.8 7 2 2 2 2 7 n.m.m.y m.m.m.m.n.B.D.H.G   ",
"    J.m.m.y m.8 8 m.m.m.n.8 7 2 3 7 8 8 m.m.8 a -.l.x.l.z.f.o. .x f , { f N V %.r.V Z n : X d h { q.e.fXdXx.x.j.&.a y m.m.m.8 7 7 7 8 m.m.y y m.m.m.m.m.N.S.G   ",
"    Z.m.n.m.n.m.8 8 7 8 7 3 7 7 8 8 8 y m.t N g.l.l.f.w.X.x , ; @ : z @.z n V V V V V b z n z k 2.k d { q.aXe.l.f.g.m 8 8 n.m.8 8 5 7 y n.m.m.m.y m.m.m.n.Z.H.  ",
"    C.m.m.8 7 8 y 7 3 5 5 3 8 n.8 7 7 8 s -.l.l.f.w.X.h ; @ < b Z Z Z &.n z m m M V m < N A &.;.aX:.> k { { 9.z.f.l.l.@.9 m.y 8 7 7 5 8 n.n.m.n.n.n.n.n.n.N.    ",
"    C.m.y 8 7 7 7 7 7 3 7 y 8 8 7 7 8 s *.l.f.f.o.x , @ < N Z Z Z Z Z Z N < n n n m b : V C N @.:.=.;.:.c ; d { 0.f.f.x.*.e 8 8 7 7 2 5 n.y 8 n.n.n.D.n.n.B.    ",
"    B.y m.8 8 7 3 3 3 3 y 8 8 7 7 7 < *.l.f.w.X.f @ : N Z Z Z Z Z Z Z Z N : n n n n g < Z C V C :.:.=.;.;.@.d ; h q.z.l.l.*.6 m.8 7 7 2 8 8 m.m.n.n.n.D.D.n.    ",
"    B.y y 7 7 2 2 7 2 8 y 8 7 t 8 6 *.l.f.d. ., . < V V Z V Z V Z Z V N b - < < l s < l Z V V V %.;.:.=.=.=.#.g ; d q.w.f.f.*.6 y 7 8 2 5 8 y y n.D.n.n.n.D.    ",
"      m.y 7 2 2 5 3 7 y 8 7 m.y 6 ..l.f.w.X., ; : g V V V V V V V m n z : . X X X X X @ < b N V C -.=.=.;.fX:.j ; ; f q.e.f.f.c 3 y t 5 2 7 8 8 8 n.D.n.n.D.    ",
"      t 7 5 5 3 2 7 8 y t t y 7 z w.l.w.X., @ n N < l m N r.N m b > . o O + H H H H H + O o X < b %.-.=.=.=.j g =.B ; d q.f.f.f.g 7 m.7 & 3 3 7 8 8 a 8 8 9     ",
"      6 2 2 2 2 8 y y m.7 t 8 & w.f.w.o.f @ b A A N < l m N b : X O H L K Q E P P P I I Q Y H o X g $.%.%.B l :.;.=.B ; { 0.f.f...& y 8 & 2 6 3 6 9 9 9 9 6     ",
"      u t t 5 3 7 8 8 t 7 y 5 c w.l.w.x . < V V Z Z N < l < . o H J K L W cX;XW K P P P P I / Y H o , B @.j =.#._.=.#.g ; X.e.f.d.g 7 y 3 1 3 3 3 3 3 2 6 6     ",
"      9 t y t t 5 5 7 7 7 t & O.d.w.X.; : n m V A Z Z N x 2.+ L J J J J E oXoXE K P K P P I I I / ) O X j -.u.j.;.=.%.@.: k 0.e.d. .2 t 7 & 2 2 2 6 e t D.B.    ",
"      6 2 5 7 7 8 u e 4 t t > 9.d.w.x @ < m m V C Z C z X ~ W J J ^ J J J J K L K L K P P P I Q -XnX$XR f *.j.;.;.-.%.%.l ; X.e.e.*.- 7 8 & & 2 7 y y m.n.8     ",
"      t 7 5 2 2 5 u p i C.r x s.d.O.; ; l n m V &.Z N . + J J J J ^ J E J J J J E W K W W Q Q Q ~ ,X@X&XR g ;.h.u.;.%.%.@.; h e.aXf.f 5 t 5 5 5 6 y y y a 8     ",
"      8 t 8 t 7 5 u p p D r y.hXl. .@ : s l n V g.&.> o L J J J J E E J J J J E W W W Q Q W Q Q Q I I @X%XO ..h.u.u.-.%.#.g ; 0.z.e.j 2 t 8 7 7 9 t y y y y     ",
"      6 5 2 7 8 t p J.p D 0 s.gXgX+.. < n n n m Z N X U K J J J E W E J J E ! ! ! ! ! ! ~ ! ~ ~ ~ Q / ) #X' c j.h.-.=.%.@.g ; X.z.aXc 2 t y 7 5 7 y 8 y y y     ",
"        s 6 5 4 5 u D D F 0 c.jXgX..f > : : < g g f O K J J J E ! E J J W ! ! W W W E W W ! ~ ! ~ ~ ~ ` @X@XR ..X. .j f f > d X.aXdX .& y t t t y t t 8 y 9     ",
"      t t u m.u u u p D D $ c.jXgXt.z v v z < O R H P J J J E ! ! E E ! ! ! W E J L J K K K Q ~ XXXX` ~ $X%X#X<.<.[ c B f > > { aXdX .& t t 8 7 9 5 6 6 -       ",
"      6 t t t t 7 t u F G 0 c.jXgXv v t.).).p.&.V x H K J J E ! W E .X.X! E J J J J J L K P K P ~ ~ XX@X$X%X' *.h._.h.h.-.B > x e.dX .& t 7 2 4 e e e e u       ",
"      6 5 7 t t 7 t t D F r c.jXgXt.p.v.v.b.(.v.a.z U +XE K ! ! W .X.X! J J J J J J E E P P K P I Q ~ XX$X,X#Xj._.u.u.u.i.%.B c dXdXx 1 4 2 5 p C.C.C.C.C.B.    ",
"      6 5 5 t t t t t p F i y.jXgXy.p.v.v.b.b.b.b.| P K K ^ .X! .X.X.XE J J J ! .X.XoX.X.X! Q P I Q Q ` $X<X<Xw._._.u.u.i.&.B  .dXdXc 2 t 7 t t e 7 e t t t t   ",
"      6 5 5 7 t t t t t D i y.jXgXy.p.v.v.b.b.b.v.q.XXoXcX>X.X! oXoX! J J ! oXoX*X*X*X-X*XOXoX~ I I I Y ` ,X,X9.u.h.h._.i.%.@. .dXdXc 4 t t t 7 t t t t t t     ",
"      e 5 7 t t t t t 7 p i t.jXgXy.p.v.b.v.b.b.v.2.OXcXMX;X! oXoX.XE J ! *X*X*X*X*X*X*X*X=X-X-X~ I Q / ) $X1X0._.kXfXx.j.a.@.O.dXdXf 4 t t t t t 7 t t 7 a     ",
"      6 t t t t t t t t i 0 t.jXgXy.p.v.v.b.v.b.v.] oXOX=X;XoXoXoX! J W oX;X*XoX! W .X=X=X;X=X=X-XQ / / / @X1X8X(.ZXkXx.x.-.@.O.dXdXv 4 u t t 7 t t 7 t t t     ",
"      6 5 5 5 5 5 e 5 5 0 $ t.jXgXy.a.c.v.v.c.v.c.&XOXOXzX;XcX;X*XE J .X;X*X.XE L K P ! =X:X:X:X=XXXI / / ) 1X8X_.x.k.u.i.&.c O.dXdXf 0 5 5 e 7 e t t e t 5     ",
"      = & % & % % & & & = # v jXjXy.v c z z z v c / ~ OX:XcXcXxX*XW .X;X;XoXJ L K K K P ! :XzX:X:XOXQ Y / ) <XeXr.g.a...c c f o.dXdXf % 4 & 4 5 4 5 4 4 4 &     ",
"        @ 1 # % % % % % % # v gXjXs.v z z b g O T U Q >XOX=XzXcX=XoX:XcX;XW L K ! Q P K Q =XzXzXvX@XY Y ( ) ,XbXeX3X..*.$.B c 9.dXz.> u p e w = & # # 1 @       ",
"        w e t u u e t t e 4 > hXjXy.t.S A A > T I I Q -XXX=X=XOX! *XxXxXzX! ! oXcXXXU Q P =XxXzX:X` Y Y ( ` <XbXVXeX$.k.h.i.c 9.dXz.< u p u u u t e e 4         ",
"        e 5 6 5 5 e e 7 t 4 , s.gXc.t.a.A N ; T I I XXXXXX=X=X.XQ *XMXxXmXxXzXmXcXW P Q ~ vXxXxXOXY Y Y ( @X1X1XVXeX .p.h.-.c 9.sXz.> i e e e 5 4 4 4 4 4       ",
"        e 4 4 4 4 e 5 e t 4 , o.gXs...a.b g X R T Q OX~ OX=X=XQ W :XcXxXxXmXmXmX-XP P ~ -XxXxX2X) Y ( ( ) <X<XyXVX#Xh *.a.$.c 9.sXz.: u t e 5 5 4 4 4 4 4       ",
"        5 5 5 4 5 5 4 e e 4 : o.s.c.v t.v z > f O / $X` $X=XOXI ~ :XcXxXxXxXmXxXOXQ I Q xXNXxX` Y Y ( ( $X1X1X%XX.X. .$. .c j s.dXs.- e e e 4 4 4 2 4 4 4       ",
"        5 e e 5 e 5 5 5 5 4 @ O.w.y.a.v._.a.A &.< ( XX) -X:XXXQ Q =XxXxXxXmXzXXX~ OX@XzXMXNX-X/ Y ( Y ' 1X1X1X' ..b.k.k.u.i.B d.z.s.$ t e 5 5 4 4 4 4 4 =       ",
"        e 5 5 4 4 4 4 4 4 % @ O.9.O.a.v.).v.&.A > ) @X) ,X2X~ I I Q -XzXvX:X~ Q Y ` nXNXNX2X/ ( ( ( ) 1XvXbX1X' ..k.h.p.i.a.c s.sXs.$ r e e e w 5 5 4 4 4       ",
"        4 = 4 & 4 & 4 = = & @ O.9...t.v._.).k.Z > ( ` ) ,X:X` Y I Y / ~ ~ Q I Q Q vXNXNXnX%X` ( Y ) <XvX1X1X1X'  ._.j.i.u.$.j z.dX9.# w e 4 4 4 4 w 0 4 =       ",
"          5 5 e 5 e 5 e e e $ X.9...q v.v.).(.p.> T _ ) $X,X) I / Y Y Y Y Y Y ~ vXNXNXmX%X%X%X#X' <XvXbXbX1XyX<.B _.k.i.i.v h z.sXo.* e e e e u u e e e         ",
"          e e e e 5 e w 5 4 @  .9...< a.).).(.(.c R _ _ ,X2X` / / Y Y / Y / $XvXNXnXxX@X( ' %X<XVXNXbXBXVXyXeX>...k.k.h.i.c f z.dX+.* e e e 4 e 5 e 5 e         ",
"          5 4 5 w 5 5 5 e 4 .  .o.O.; $.b.b.(.(...R _ _ %X<X@X( ( ( / / ) $XnXxXnXnX@X( ( ( ' 1XCXBXBXBXBXyX6X>.$._.h.h.$.c x dXdXX.* e 5 e e 5 w 5 w 5         ",
"          5 e 4 5 5 w e e = $ | o.O.; | v.).).(..._ ' _ %X<X$X_ ( ( ( ` ,XvXvXnXvX@X_ ( ( _ <XnXBXBXBXVXeX7X6X2...k.h.u.a.%.c z.z.| * e w e 5 e 5 e 5 w         ",
"          w 5 w w e e 4 w & $ x 9.o., j $.hX(.(.t.[ 5X_ #X<X<X#X_ _ #X1XvXbXvX1X#X_ ( ( ' <XbX1XbXBXyX5X6X6X7X[ $.k.h.j.i.&. .dXsX .* e e 4 w 4 w 4 e w         ",
"          = = 4 = 0 = = & % . x 9.o.f  .a.ZXZX(.t.R rX3X3X<X<X<X#X%X<X1X1X1X1X@X_ _ _ ' <XbX1XVXyX%X6X6X6X7X6X>.$.h.h.u.-.%.c dXdXx = e e 4 e 4 e 5 w           ",
"          0 e r r u r p r r # x o.o.> < N k.b.b.t.[ rXeX3X%X5X<X<X<X<X1X1X<X#X_ 8X_ ' <XbXbXyX%X<.>.3X6X7XrXtX>.$._.u.u.-.%.| z.0.x & 4 4 4 = 4 4 w e           ",
"          e u e u e e e r w % x o.o.> < m S k.b.t.[ rXrXrXeX5X%XeX<XeX<X%X_ _ >._ #X<X1XyXyX5X>.>.>.>.4XtXtXtX>...u.j.u.-.$. .z.s.h % e 4 = = 4 w w w           ",
"          w w w w w 4 w 4 w % f o.o.> l m m p.(.t.[ rXrXrXtXeX5X5XeX<X3X<.>._ >.3XeXeXeXeX3X>.>.8X<.1.6XpXtXpX[ $.h.i.u.-.@. .0.0.h & w 4 = = = w w =           ",
"          w 4 w 4 w 4 = % w # f o.9.f l m V &.).t.[ uXrXrXrXtXeX5X3X<.>.>.>.>.3XeXeXeX5X<.>.<.>.1.3X6X6XpXpXuX[ $.i.i.u.-.@. .e.0.f % w w 4 = = 4 =             ",
"          4 0 4 4 4 w & = = 0 f +.y.f l V V A p.$.{ pXuXuXuXtXrX4X<.>.<.>.>.3X5XeX5X6X<.,.,.,.,.4X7X7X7X0XuX0X{ @.u.u.-.=.B  .e.q.d % w 4 = 4 = 4 =             ",
"          r 4 4 4 0 4 * & = % f O.o.g b m V A i.S { uXuXuXuXuXuX4X,.,.,.1.3X6X6XrX3X,.,.,.,.1.4X7X6X7X0X1.wXiX{ @.j.u.;.=.B  .0.q., 0 w = = = w w 0             ",
"          i w w w w = = = = = X +.o.j s m V V Z v { iXuXuXuXuXuXuX1.,.,.4X7X4X6X4X,.,.,.,.1.7X7X9X9X9X0X4.9XqXk @.u.;.;.%.B  .0.O.X * w = = & = 4 w             ",
"          i i r 4 4 = = % = 0 , +.9.f b m V Z Z < { iXiXiX0XuX0XuX0X1.4X4X4X4X4X1.,.,.,.9X4X9X9X9X4.3.5.3.5.wXk B ;.;.=.#.B  .9.+.$ & 0 = = & = 0 4 =           ",
"          i i i r 0 = = = 0 * > O.o.z l m V Z A < { iXiXiXqXqXiX0XiX0X9X4.9X9X8.8.8.8.4.9X9X9X9X4.3.5.7.5.6.wXk B _.;.:.#.j  .9.+., % w = = = = % 0 0           ",
"          q q r i r 0 = * 0 * X X.o.c b m V Z Z < k qXAXiXiXqXqXiXiXiX9X4.9X8.8.8.8.4.9X9X9X4.3.5.3.iXCXwX6.R.k B ;./.=.#.l  .o.| @ % w = = * = * = 0           ",
"            r i i i r 0 = = * , +.O.c < m V Z Z < d AXAXAXAXqXiXiXiXiXqX4.3.3.3.3.3.4.7.7.7.7.5.5.6.iXJXwXY.Y.k B u.i.#.#.k  .o.+.. % 0 = * * * = & 0           ",
"            0 q r r r i 0 0 = X | 9.c < m V C Z g X DXAXAXAXAXiXAXqXAXqXwX6.5.5.5.7.7.7.7.6.5.6.6.6.Y.R.Y.Y.Y.d @./.i.%.B :  .o.| $ * 0 = = * * * * 0           ",
"            = r w q r 0 i r 0 . | o.c < n N Z Z g d W.SXJXJXAXAXAXAXAXqXAX6.6.6.7.6.6.6.6.6.6.Y.Y.Y.7.JXAXDXT.d B =.=.%.n :  .o.x . % 0 = = * * * * %           ",
"            - r 0 r 0 r q i 0 , +.9. .< m N V Z g ; T.JXLXLXJXSXAXAXAXAXAXwXY.Y.6.Y.Y.6.Y.Y.Y.R.R.R.R.KXLXJXW.d B =.#.#.l : X.O.x . % 0 0 % * * * % *           ",
"            - = 6 r 0 q ..q 0 $ 9.0.O.> l N N Z g ; W.SXKXJXSXSXSXAXSXSXDXDXY.Y.T.Y.T.Y.T.T.T.R.R.DXDXDXSXE.W.: @.#.#.n g : ..X.x . % = = = 0 % 0 = 0           ",
"            % = = 0 w w s 0 0 X sXlXO.: < d < > ; ; E.HXFXFXJXFXSXSXSXDXSXDXT.W.T.T.W.T.T.W.W.W.W.E.E.E.E.!.W.: d g > : : ; O.O.x . # 0 0 0 = 0 = 0 *           ",
"            # - = 6 = 0 0 0 * $ lXlX9.g B B @.B f } ~.FXFXFXFXFXFXFXSXSXSXSXDXW.W.W.DXDXE.W.W.E.E.E.E.!.!.!.~.n < l b b < : o.+.x $ $ 0 = 0 0 * 0 % *           ",
"            # % - = = - - - % @ 2.aX9.g #.:.#._.c /.GXGXGXFXFXFXFXFXFXFXFXKXLXFXE.E.!.FXE.!.!.!.!.~.!.~.^.^.^./.l Z Z V n : *.+.x . $ 0 * 0 0 0 * # #           ",
"            - $ # # # - % # # @ | q.w.k @.#.:.=.j /.GXGXGXGXFXGXFXFXFXFXGXKXLXDXE.E.E.E.!.!.!.!.~.!.^.~.^.HXHX/.b Z N n < : o.+.f . # # # # $ # # # #           "
};
