/* XPM */
static char *Wraith_01_Moving_Forward_000_resized[] = {
/* columns rows colors chars-per-pixel */
"80 65 175 2 ",
"   c None",
".  c #150E0E",
"X  c #171413",
"o  c #181615",
"O  c #191817",
"+  c #1B1B1A",
"@  c #161B18",
"#  c #201E1D",
"$  c #16221D",
"%  c #1A211E",
"&  c #22201E",
"*  c #1B2421",
"=  c #1A2A25",
"-  c #1C2D29",
";  c #162C24",
":  c #1D312C",
">  c #1E3530",
",  c #1E3C35",
"<  c #133D30",
"1  c #232323",
"2  c #282624",
"3  c #282827",
"4  c #262728",
"5  c #282728",
"6  c #27292B",
"7  c #2A2A2B",
"8  c #302D2A",
"9  c #2B2F31",
"0  c #243633",
"q  c #2E3234",
"w  c #213C37",
"e  c #303335",
"r  c #323538",
"t  c #333B3D",
"y  c #3C3937",
"u  c #1E4138",
"i  c #22423C",
"p  c #48433F",
"a  c #363E42",
"s  c #3B3E43",
"d  c #175B48",
"f  c #244740",
"g  c #234C44",
"h  c #2A4F48",
"j  c #3C4549",
"k  c #3E494D",
"l  c #364547",
"z  c #205847",
"x  c #24544B",
"c  c #22594C",
"v  c #245047",
"b  c #285F55",
"n  c #265B52",
"m  c #365C58",
"M  c #1B644F",
"N  c #1D6650",
"B  c #1F775E",
"V  c #266156",
"C  c #27655A",
"Z  c #286459",
"A  c #286A5D",
"S  c #256855",
"D  c #30675F",
"F  c #38665D",
"G  c #21705A",
"H  c #296C60",
"J  c #356F65",
"K  c #297365",
"L  c #257B63",
"P  c #2C7669",
"I  c #2B7A6C",
"U  c #2A7B64",
"Y  c #2D7E70",
"T  c #41444A",
"R  c #42494E",
"E  c #4C4A48",
"W  c #444C52",
"Q  c #4B4F56",
"!  c #465359",
"~  c #4E535B",
"^  c #4C595F",
"/  c #595C5E",
"(  c #4C5C62",
")  c #535B63",
"_  c #5A5E61",
"`  c #595F68",
"'  c #4F6067",
"]  c #4F6168",
"[  c #506067",
"{  c #52646B",
"}  c #546770",
"|  c #566971",
" . c #5A6C74",
".. c #487970",
"X. c #5E727B",
"o. c #60757F",
"O. c #27856A",
"+. c #2E8374",
"@. c #348879",
"#. c #2D9C7D",
"$. c #32977B",
"%. c #43897F",
"&. c #647A83",
"*. c #2F9382",
"=. c #319584",
"-. c #319C8A",
";. c #3C9585",
":. c #2DA382",
">. c #33A08E",
",. c #34AC8B",
"<. c #30A484",
"1. c #34A592",
"2. c #3BA492",
"3. c #34AA96",
"4. c #34AE99",
"5. c #39AE9A",
"6. c #36B39F",
"7. c #38B09C",
"8. c #35B894",
"9. c #37B6A1",
"0. c #3CB7A2",
"q. c #39BAA5",
"w. c #3CBEA8",
"e. c #468F87",
"r. c #44988D",
"t. c #6B828C",
"y. c #7D8488",
"u. c #6E8691",
"i. c #6F8893",
"p. c #708994",
"a. c #7A929D",
"s. c #43A897",
"d. c #43B19E",
"f. c #59B1A2",
"g. c #6BBDAF",
"h. c #3CCCA5",
"j. c #3BC2AB",
"k. c #3FD5AC",
"l. c #3DCCB4",
"z. c #3CC7B0",
"x. c #3ED1B9",
"c. c #50C3AF",
"v. c #44C7B1",
"b. c #5BC7B5",
"n. c #40D5BC",
"m. c #41D8BE",
"M. c #41DFB4",
"N. c #46EABE",
"B. c #42DCC2",
"V. c #58D9C3",
"C. c #44E0C6",
"Z. c #45E6CB",
"A. c #46E9CE",
"S. c #4AE9CE",
"D. c #55E8CF",
"F. c #46ECD0",
"G. c #53ECD3",
"H. c #5CE9D1",
"J. c #63EBD4",
"K. c #6FEFD9",
"L. c #6DECD6",
"P. c #73EDD9",
"I. c #76E6D3",
"U. c #78F0DC",
"Y. c #8E989D",
"T. c #899EA7",
"R. c #8298A2",
"E. c #929FA5",
"W. c #98A3A8",
"Q. c #98A9B1",
"!. c #A2AFB6",
"~. c #88EFDE",
"^. c #81ECDA",
"/. c #87F2E0",
"(. c #9AF2E3",
/* pixels */
"                                                                                                                                                                ",
"                                                                                                                                                                ",
"                                                                                                                                                                ",
"                                                                                                                                                                ",
"                                                                                                                                                                ",
"                                                                                                                                                                ",
"                                                      o o                                                                                                       ",
"                                                o o o * = * + + O o                                                                                             ",
"                                                  o O V 7.w.q.@.* o o                                                                                           ",
"                                                    X , 4.x.F.9.= + % * + + @ o X X X                                                                           ",
"                                                  o O x 9.x.Z.C.w.0.9.0.d.s.;.+.H v > % X X X                                                                   ",
"                                                  o f -.z.Z.Z.Z.Z.A.A.S.G.J.K.P.J.C.j.2.@.h * X X                                                               ",
"                                                  o * A 4.l.B.Z.Z.Z.n.x.B.Z.L.(.~.D.I f c.I.g.J 1 X                                                             ",
"                                                    o O v -.9.z.B.Z.Z.x.q.w.D.L.P.V.w . F ^.~.H.5.w X                                                           ",
"                                                      o o , *.4.9.B.Z.Z.B.9.7.x.S.e.@ - : v.H.J.G.=.o                                                           ",
"                                                          X , 1.4.n.Z.Z.Z.n.4.7.n.Z : %.& +.Z.Z.d.i o                                                           ",
"                                                          o * *.q.B.x.l.w.6.1.4.9.c % f.i % 7.A.I o X X                                                         ",
"                                                        o o v 9.x.j.-.V , - , c Z % g b.y % >.x.j.=.Y f O                                                       ",
"                                                      o * A 3.x.w.K - O 4 9 7 # o : 6.D...+ w : i +.B.0.+                                                       ",
"                                                    o - +.4.7.j.H + 1 W ] X.&.{ + c v.A.d.% 7 E y O A 5.*                                                       ",
"                                                  o + Y 4.4.4.Y $ 6 ( | o.p.p.t.r % C +.v +  .T.!._ + c O                                                       ",
"                                                  o + K 4.4.-.- * ( } &.p.p.p.p.X.q + O & ! i.p.T.W.7 o O                                                       ",
"                                                  o X - -.4.C O k ( | u.p.p.p.p.p.t.X.| o.p.p.p.p.Q./ X o                                                       ",
"                                                O O , I 3.1., 4 ( a X.i.p.p.p.p.p.p.p.p.p.i.p.p.i.T.y.o                                                         ",
"                                                X w -.7.4.*.= 1 a ( &.p.p.p.p.p.p.p.p.p.p.p.p.i.i.a.Y.&                                                         ",
"                                                X : *.4.4.+.@ 9 a X.i.p.p.i.i.p.p.p.p.p.p.p.i.i.p.a.E.3 o                                                       ",
"                                                  o : K -.I + W k } i.| a r a k [ &.p.p.p.p.i.t.&.t.E.7 X                                                       ",
"                                                    X @ - > @ k ( &.X.1 X $ * + @ 8 o.p.p.t.R 7 5 7 _ 5 X                                                       ",
"                                                        o X o j } X.l o < M B L z % R p.p./ o = , ; O O                                                         ",
"                                                        X = + t } } 4 $ d O.<.8.#.; e u.p.i $ G #.S o o                                                         ",
"                                                        o - % 4 { ' & ; B ,.k.C.v.u e t.i.r = #.k.$.O o                                                         ",
"                                                          o o O k ] 0 $ M :.h.M.,.* j p.p.T $ O.8.A o o                                                         ",
"                                                              o @ 7 7 o = d K U , +  .p.p. .+ - u % o o                                                         ",
"                                                                o o o o o o + + % ! p.p.p.i.! + X X o                                                           ",
"                                                                    o o X 7 ^ { ) &.p.i.&.i.X.+ o o                                                             ",
"                                                                  o O @ X # [ { ! | t.o.^ X.! X                                                                 ",
"                                                              o @ v 2.P o X 6 1 + t ( r O 5 1 o                                                                 ",
"                                                          X o o Z B.B.b + # o 7 5 o O O o X o                                                                   ",
"                                                        X # 5 # 0 6.P O 7 j s ) j # + 2 1 X o                                                                   ",
"                                                      o & R ` Q + = O 7 T ~ ~ ` E # 2 2 O o                                                                     ",
"                                                      o r W W Q 2 X 4 a e Q ) T e + y y X X                                                                     ",
"                                                      o + o O 1 O # 9 + X 5 5 X + 5 p 8 + 8 o                                                                   ",
"                                                      o o o o o O 2 O 0 w X > : # 8 E # 2 p +                                                                   ",
"                                                            o o # O 0 e.r.J 2.f 1 7 8 2 7 #                                                                     ",
"                                                          o O 2 + # l m e.J g + 7 1 X O + o                                                                     ",
"                                                        o O 6 1 X O O O * X X O 5 O o O o o                                                                     ",
"                                                    o O o O + o X O O o X   o o O X                                                                             ",
"                                                    o o o o o               o o O                                                                               ",
"                                                                            o o                                                                                 ",
"                                                                                                                                                                ",
"                                                                                                                                                                ",
"                                                                                                                                                                ",
"                                                                                                                                                                ",
"                                                                                                                                                                ",
"                                                                                                                                                                ",
"                                                                                                                                                                ",
"                                                                                                                                                                ",
"                                                                                                                                                                ",
"                                                                                                                                                                ",
"                                                                                                                                                                ",
"                                                                                                                                                                ",
"                                                                                                                                                                ",
"                                                                                                                                                                ",
"                                                                                                                                                                ",
"                                                                                                                                                                "
};
