/* XPM */
static char *key_resized[] = {
/* columns rows colors chars-per-pixel */
"80 80 138 2 ",
"   c None",
".  c #000000",
"X  c #080700",
"o  c #0C0A01",
"O  c #120D04",
"+  c #161301",
"@  c #191502",
"#  c #1F1A00",
"$  c #231E00",
"%  c #241B08",
"&  c #262000",
"*  c #2B2500",
"=  c #2F2800",
"-  c #2C210A",
";  c #332C00",
":  c #34270C",
">  c #36280D",
",  c #3A2B0E",
"<  c #3C3300",
"1  c #413700",
"2  c #433900",
"3  c #493E00",
"4  c #42320F",
"5  c #49370F",
"6  c #473510",
"7  c #493710",
"8  c #533E13",
"9  c #4D4200",
"0  c #534700",
"q  c #544800",
"w  c #594D00",
"e  c #5F5100",
"r  c #5E4715",
"t  c #625300",
"y  c #675800",
"u  c #6C5C00",
"i  c #624916",
"p  c #644B18",
"a  c #694D1A",
"s  c #6E5317",
"d  c #6C501A",
"f  c #73561A",
"g  c #785B19",
"h  c #756302",
"j  c #796602",
"k  c #7E6A03",
"l  c #836F02",
"z  c #867201",
"x  c #887400",
"c  c #8E7900",
"v  c #947D03",
"b  c #86641F",
"n  c #88651F",
"m  c #997718",
"M  c #946E22",
"N  c #977023",
"B  c #9E7624",
"V  c #A27924",
"C  c #A87D26",
"Z  c #968000",
"A  c #9F8507",
"S  c #A08603",
"D  c #A58B04",
"F  c #AB8F06",
"G  c #A38708",
"H  c #A78A08",
"J  c #AE9401",
"K  c #B19602",
"L  c #B79B01",
"P  c #BA9C04",
"I  c #BA990A",
"U  c #B0891A",
"Y  c #BA9417",
"T  c #BFA200",
"R  c #AB8026",
"E  c #AF8229",
"W  c #B38627",
"Q  c #B78A27",
"!  c #B98C26",
"~  c #B18429",
"^  c #B58828",
"/  c #BE8E2A",
"(  c #BD9024",
")  c #C29F0D",
"_  c #CAAB02",
"`  c #C4A30A",
"'  c #CAA60C",
"]  c #D2AC0D",
"[  c #CFB000",
"{  c #D3B301",
"}  c #DEBB04",
"|  c #D7B20A",
" . c #CBA412",
".. c #D4AC12",
"X. c #D8AF14",
"o. c #D6AB19",
"O. c #DBAD1D",
"+. c #DEB217",
"@. c #DEB218",
"#. c #E4BD0C",
"$. c #E0B516",
"%. c #E3B912",
"&. c #E9BD14",
"*. c #E3B31D",
"=. c #EEBF1B",
"-. c #C08F2B",
";. c #CE9D27",
":. c #C6932D",
">. c #C9972C",
",. c #CB9A2A",
"<. c #D09F27",
"1. c #D19F28",
"2. c #C39030",
"3. c #D5A425",
"4. c #D8A625",
"5. c #D7A821",
"6. c #DBAA23",
"7. c #D5A22A",
"8. c #DBA72A",
"9. c #DDAA28",
"0. c #E4B320",
"q. c #E9B721",
"w. c #E6C301",
"e. c #E8C501",
"r. c #EDC803",
"t. c #E7C108",
"y. c #EDC50B",
"u. c #F4CE04",
"i. c #F1C60F",
"p. c #F4CC08",
"a. c #FBD404",
"s. c #FBD209",
"d. c #EEC311",
"f. c #F2C613",
"g. c #F7C914",
"h. c #FACB15",
"j. c #F2C219",
"k. c #FFE607",
/* pixels */
"                                                                                                                                                                ",
"                                                                                                                                                                ",
"                                                                                                                                                                ",
"                                                                                                                                                                ",
"                                                                                                                                                                ",
"                          X X X X X X X X X                                                                                                                     ",
"                    . . ; z v c c c c c v x 9 . .                                                                                                               ",
"                  $ = * u t.s.s.s.s.s.s.s.p.z * = &                                                                                                             ",
"              . . t _ { ] 5.3.3.7.7.6.4.3.4...[ { k . . .                                                                                                       ",
"            . o q H d.h. .g a d d a d d a f Y g.g.I y @ .                                                                                                       ",
"            o 1 _ &.,.:.b + . X X X X X . o s Q >.$.} w o                                                                                                       ",
"          . u P o.9.-.p -                   % r E 8.o.` z o                                                                                                     ",
"        $ 9 H f.7.E b -                       @ f C ,.j.` w *                                                                                                   ",
"      . 3 { $.;.:.f +                           O r / ,.O.} y .                                                                                                 ",
"      . 9 r.j.~ d >                               - r V 0.a.u .                                                                                                 ",
"      . 9 w.=.B % .                                 O b 0.u.u .                                                                                                 ",
"      . 9 w.=.V % .                                 O n 0.p.u .                                                                                                 ",
"      . 9 w.j.B % .                                 O n 0.u.u .                                                                                                 ",
"      . 9 w.=.V % .                                 O n 0.u.u .                                                                                                 ",
"      . 9 w.=.B % .                                 O b 0.u.u .                                                                                                 ",
"      . 9 w.=.V % .                                 O n 0.u.u .                                                                                                 ",
"      . 9 w.=.B % .                                 O n 0.u.u .                                                                                                 ",
"      . 9 w.j.B @ .                                 o b 0.u.u .                                                                                                 ",
"      . 9 e.=.C 6 +                               O : M 0.u.u .                                                                                                 ",
"      . 9 e.&.:.C r .                           . 7 V / O.u.u .                                                                                                 ",
"        < z ) 0.7.N 8 %                       O 7 n ,.0. .v 3                                                                                                   ",
"          O x #.3.>.W 6 X                   X : V >.,.f.K ; o                                                                                                   ",
"            ; u | =.:.B p X . . . . . . . . 8 M / >.>.5...J 0 .                                                                                                 ",
"            . @ c ' O.q.U 7 : , , , , , > , m *.0.3.:.:.4.d.v 2                                                                                                 ",
"            . . o j r.a.#.( Q Q Q Q Q Q Q ! +.u.u.$.,.>.>.;.%.T ; .                                                                                             ",
"                  < u y v #.h.g.g.g.g.g.h.f.H y y H &.3.:.:.6.X.S w .                                                                                           ",
"                    . . 2 ` { { _ { [ [ { _ t . . t _ o.;.>.:.3.i.S ;                                                                                           ",
"                          = = = = = = = = = $     @ 1 P d.,.>.>.3.X.T 2 .                                                                                       ",
"                          . . . . . . . . .         X u F +.8.2.:.6.%.v 0                                                                                       ",
"                                                      . 9 { @.,.>.:.;.d.J =                                                                                     ",
"                                                        $ 9 J d.1.:.>.4...K 0 .                                                                                 ",
"                                                          . u P o.3.:.:.4.d.v 2                                                                                 ",
"                                                            X 1 _ &.,.:.>.;.%.T ; .                                                                             ",
"                                                              @ e H &.3.:.:.6.+.S w .                                                                           ",
"                                                                . e _ o.;.>.:.3.i.S ;                                                                           ",
"                                                                  @ 1 P j.,.:.>.3.+.T 2 .                                                                       ",
"                                                                    X u F @.3.:.:.6.%.v 0                                                                       ",
"                                                                      . 9 { @.;.>.:.;.d.K =                                                                     ",
"                                                                        # 9 J d.7.2.>.5...K 0 .                                                                 ",
"                                                                          . y P o.3.:.:.6.d.v 2                                                                 ",
"                                                                            o 1 _ &.,.:.>.;.%.T ; .                                                             ",
"                                                                              @ e H &.3.:.:.6.X.S w .                                                           ",
"                                                                                . e _ o.;.>.:.3.i.S ;                                                           ",
"                                                                                  @ 1 P d.,.>.>.3.X.T 2 .                                                       ",
"                                                                                    X u F +.8.2.:.6.%.v 0                                                       ",
"                                                                                      . 9 { @.,.>.:.;.d.K =                                                     ",
"                                                                                        $ 9 J d.1.:.>.6...K 0 .                                                 ",
"                                                                                          . u P o.3.:.:.4.d.v 2                                                 ",
"                                                                                            X 1 _ &.,.>.>.;.%.T ; .                                             ",
"                                                                                              + w S $.3.:.>.6.X.S w .                                           ",
"                                                                                                & l y.*.;.>.:.3.i.S ;                                           ",
"                                                                                              * J ..o.d.d.,.:.,.3.X.T 2 .                                       ",
"                                                                                            3 z ] j.O.H H +.3.:.:.6.%.v 0                                       ",
"                                                                                          # v i.6.+.{ 3 3 { +.,.>.:.;.d.K =                                     ",
"                                                                                        < D  .$.g.H 9     3 D &.;.:.>.6...K q .                                 ",
"                                                                                      < j #.=.o.P u .     9 H d.*.3.:./ 6.a.u .                                 ",
"                                                                                    @ D #.3.&._ 2 X   . 9 { +.5.y.%.,.>.O.u.y .                                 ",
"                                                                                    @ P k.d.G t @   X u H +.f...l A d.g.` h 1                                   ",
"                                                                                    @ Z { _ t .   @ 2 P f.6...J & w _ } v +                                     ",
"                                                                                      * = = &   . t _ o.*.y.z &   $ = = *                                       ",
"                                                                                        . .   & t G &.=. .v 3       . .                                         ",
"                                                                                            . = _ d.3.#.D #                                                     ",
"                                                                                            . = { k.#.k <                                                       ",
"                                                                                              * Z L D <                                                         ",
"                                                                                                @ @ @                                                           ",
"                                                                                                                                                                ",
"                                                                                                                                                                ",
"                                                                                                                                                                ",
"                                                                                                                                                                ",
"                                                                                                                                                                ",
"                                                                                                                                                                ",
"                                                                                                                                                                ",
"                                                                                                                                                                ",
"                                                                                                                                                                ",
"                                                                                                                                                                "
};
