/* XPM */
static char *key_gold_resized[] = {
/* columns rows colors chars-per-pixel */
"80 80 197 2 ",
"   c None",
".  c #B51F10",
"X  c #C32C12",
"o  c #C93811",
"O  c #E92D03",
"+  c #E82A09",
"@  c #EC3303",
"#  c #EB3905",
"$  c #E9340D",
"%  c #EC3D0A",
"&  c #F33A02",
"*  c #E93911",
"=  c #D14613",
"-  c #D85615",
";  c #DE5C16",
":  c #EE420B",
">  c #E5490D",
",  c #EE4C0B",
"<  c #ED4706",
"1  c #F04606",
"2  c #F24F07",
"3  c #FD4C02",
"4  c #FE4C0C",
"5  c #F74406",
"6  c #EE5C02",
"7  c #EE5209",
"8  c #EF5D09",
"9  c #FB5403",
"0  c #F45A06",
"q  c #FF5C02",
"w  c #FF5B0A",
"e  c #F35005",
"r  c #E14210",
"t  c #ED4911",
"y  c #EE5017",
"u  c #E75713",
"i  c #DB6C1E",
"p  c #EE6306",
"a  c #EE6409",
"s  c #EE6909",
"d  c #FF6402",
"f  c #FF6A03",
"g  c #FE6509",
"h  c #F16C0C",
"j  c #FF6B0C",
"k  c #F16608",
"l  c #EE7806",
"z  c #EF700C",
"x  c #EF7B0A",
"c  c #F37503",
"v  c #FF7403",
"b  c #F67B04",
"n  c #FF7C04",
"m  c #F1730C",
"M  c #FF750B",
"N  c #F47B0B",
"B  c #FF7B0A",
"V  c #E56818",
"C  c #E76616",
"Z  c #FF6710",
"A  c #FF6A10",
"S  c #F16511",
"D  c #EC741C",
"F  c #ED7819",
"G  c #F57312",
"H  c #F47B12",
"J  c #FF7B15",
"K  c #F37F18",
"L  c #FE8502",
"P  c #F58F07",
"I  c #FE8B02",
"U  c #F5850C",
"Y  c #FE830B",
"T  c #F68A0C",
"R  c #FD8C0C",
"E  c #F38704",
"W  c #F59105",
"Q  c #FE9303",
"!  c #F79B06",
"~  c #FF9C02",
"^  c #F5920A",
"/  c #FC940B",
"(  c #FD9B0C",
")  c #F68614",
"_  c #FF8013",
"`  c #F68917",
"'  c #FD8E14",
"]  c #F5841B",
"[  c #FD831A",
"{  c #F58A1C",
"}  c #FF8B1A",
"|  c #FD9215",
" . c #FD9B14",
".. c #FD921A",
"X. c #FD9B1C",
"o. c #F6941E",
"O. c #FFA302",
"+. c #FFAC02",
"@. c #FEA50B",
"#. c #FFA90D",
"$. c #FFB403",
"%. c #FFBE04",
"&. c #FEB30C",
"*. c #FEBE09",
"=. c #FEA413",
"-. c #FFAB13",
";. c #FEA41B",
":. c #FEAD1B",
">. c #FEB414",
",. c #FEBB14",
"<. c #FFB21D",
"1. c #FEBC1B",
"2. c #F38620",
"3. c #FF9623",
"4. c #FD9C22",
"5. c #F59225",
"6. c #FDA423",
"7. c #FEAD22",
"8. c #FCA52A",
"9. c #FDAB2A",
"0. c #FFB323",
"q. c #FEBF23",
"w. c #FFB62B",
"e. c #FFB92E",
"r. c #FFAF33",
"t. c #FFAF3C",
"y. c #FFB731",
"u. c #FFB930",
"i. c #FFB13D",
"p. c #FFBB38",
"a. c #FFC007",
"s. c #FFC10C",
"d. c #FFCA09",
"f. c #FFDA0B",
"g. c #FED50D",
"h. c #FFC313",
"j. c #FFCA14",
"k. c #FFC61C",
"l. c #FFC91E",
"z. c #FFD712",
"x. c #FFDF15",
"c. c #FFD01C",
"v. c #FEDF1B",
"b. c #FFE011",
"n. c #FEE21D",
"m. c #FFC522",
"M. c #FFC921",
"N. c #FEC62C",
"B. c #FFCA2A",
"V. c #FFD02E",
"C. c #FFC331",
"Z. c #FFCD34",
"A. c #FFDA37",
"S. c #FFD43E",
"D. c #FFE42A",
"F. c #FFE325",
"G. c #FFE633",
"H. c #FFB25A",
"J. c #FFC042",
"K. c #FFCE41",
"L. c #FFD144",
"P. c #FFD24B",
"I. c #FFCA50",
"U. c #FFD452",
"Y. c #FFDA57",
"T. c #FFD65E",
"R. c #FFC761",
"E. c #FFD563",
"W. c #FFD866",
"Q. c #FFDB6A",
"!. c #FFC57B",
"~. c #FFDB72",
"^. c #FFD57E",
"/. c #FFDE79",
"(. c #FFC784",
"). c #FFD183",
"_. c #FFDF84",
"`. c #FFE185",
"'. c #FFE18C",
"]. c #FFE495",
"[. c #FFE69B",
"{. c #FFE9A6",
"}. c #FFE9AB",
"|. c #FFECB4",
" X c #FFE2B5",
".X c #FFF0BF",
"XX c #FFEFC4",
"oX c #FFF1C4",
"OX c #FFF3CE",
"+X c #FFECD2",
"@X c #FFF7DF",
"#X c #FFF2D4",
"$X c #FFF5E3",
"%X c #FFF8E3",
"&X c #FFF7EC",
"*X c #FFFBF2",
"=X c #FFFFFE",
/* pixels */
"                                                                                                                                                                ",
"                                                                                                                                                                ",
"                                                        ( +.&.$.$.$.$.$.$.$.$.%.%.%.%.%.%.a.*.#.                                                                ",
"                                                  R R I I +.+.+.+.$.$.$.$.$.$.$.$.$.$.$.$.$.O.O.~ O.~ @.@.                                                      ",
"                                            B n n L L n L O.O.+.O.+.O.+.+.+.+.+.+.+.$.+.+.O.Q Q Q Q ~ ~ Q Q ( @.                                                ",
"                                        M M v v v v v v L Q ~ ~ ~ ~ O.~ O.O.O.O.O.O.O.+.~ I L I I Q R I Q Q Q O.$.$.&.                                          ",
"                                        g f f f f f f f v ~ Q ( 9.t.i.i.i.r.9.;.=.@.Q ~ L n n L L L L L L L I O.+.O.+.+.+.-.                                    ",
"                                        2 f f d f v Y  .:.1.k.N.U.].XX$X*X*X&X$X+X X).y.| Y Y v v v v n n n Q O.O.O.O.O.O.I L R                                 ",
"                                        # d v R -.1.m.M.B.M.M.M.M.M.Z.U./.{.oX.X].Q.L.B.M.m.q.<.=.R [ M v v I ~ ~ ~ ~ Q I v n L L Y                             ",
"                                        O 0 <.M.M.M.M.m.M.M.M.M.m.M.M.l.l.M.B.B.l.l.l.M.M.M.M.M.M.B.).(.4.R Q Q I Q ~ L v f v v v v M J                         ",
"                                        O 7 1.M.M.M.m.M.l.M.M.m.m.m.l.l.l.m.l.l.M.M.M.M.m.M.M.M.M.M.B.Z.M.m.1.-.( Q L f f f f f f f f f M                       ",
"                                        O 7 m.M.l.M.l.k.1.>.@.@.( Q / Q Q / ( ( @.-.>.k.k.m.M.M.M.M.l.m.M.l.M.M.l.1.| v f d f d f f f f f j                     ",
"                                        O S k.l.m.;.U / L L L L L L L I L L L L L L L I Q ( @.>.1.l.M.M.m.M.M.M.M.M.M.1.:.Y v d d f f f f 0                     ",
"                                        O S 1.l.l.x 6 Q Q ~ ~ O.O.O.O.~ O.O.~ ~ ~ ~ Q I I L L I I ( =.>.k.m.l.M.l.M.M.m.m.l.>.| v d d d 9 %                     ",
"                                        O h <.l.k.z c O.O.O.O.O.O.O.O.~ ~ ~ Q Q Q ~ ~ ~ ~ ~ ~ L L L L L Q @.>.1.l.m.l.l.l.l.M.M.1. .M 0 @ *                     ",
"                                        O H <.<.k.s b O.O.O.O.O.~ n v d d d d d d d v v L I ~ ~ ~ ~ ~ Q L L I / @.,.l.m.l.m.l.l.l.l.<.< O                       ",
"                                        O ) <.<.<.p E O.O.@.O.O.n q q d d d f d d d q q q d d v L Q ~ O.~ ~ L L L L ! -.k.l.l.k.l.l.-.# +                       ",
"                                        O ` <.:.:.0 I @.#.O.@.O.v v / #.>.,.,.I.).!.H.3.n f q q q d f L ~ O.O.~ ~ I L L Q ( 1.l.k.l.) O                         ",
"                                        O | >.:.:.k P #.#.@.@.O.Q j.l.l.M.M.M.P.oX*XOXY.V.T.p.Q v d q q d v I O.O.~ ~ I E p =.l.l.k.8 +                         ",
"                                        @ | :.:.-.k / -.#.#.#.@.( l.l.l.l.l.l.l.B.L.Z.M.M.L.S.l.j.&.I f q q v O.O.O.O.O.I p 1.k.l.-.# *                         ",
"                                        #  .-.:.-.c | -.-.=.#.@.@.k.k.k.k.k.k.k.l.k.l.l.m.l.l.M.M.M.c.h.O.f I O.O.O.O.O.c x k.j.k.N O                           ",
"                                        #  .>.-.>.N ( -.-.-.-.=.-.,.j.j.k.j.k.k.k.k.k.l.l.l.l.m.l.M.M.M.,.n ~ O.O.~ O.~ 6 -.j.k.,.< $                           ",
"                                        % ;.:.:.>.U  .-.-.-.-.-.-.-.>.,.j.k.h.k.h.k.k.k.k.k.l.l.l.l.l.M._ L O.O.O.O.+.b s h.j.k.T +                             ",
"                                        : 8.y.y.w.'  .>.:.:.:.-.<.-.-.-.>.,.h.j.h.h.j.j.h.k.k.k.k.k.l.>.v ( @.O.@.O.! p -.j.h.,.7                               ",
"                                        : 8.u.u.u. . .<.:.:.:.:.>.#.-.#.-.-.&.,.h.h.j.h.h.j.j.h.k.k.k./ L #.@.#.@.+.c P h.j.j.T $                               ",
"                                        t 9.u.u.C.;. .<.<.:.<.<.<.:.:.-.-.-.-.#.#.>.>.,.,.,.h.h.h.h.>.v @.#.#.@.#./ l h.h.h.,.,                                 ",
"                                        t 8.u.y.y.<.X.0.0.0.<.0.7.y.w.w.w.0.0.:.-.-.#.#.-.-.>.-.-.-.Y | -.-.=.-.@.N #.h.h.j.U $                                 ",
"                                        y 8.u.u.u.q.X.0.0.0.0.0.X.8.w.y.u.e.w.w.w.0.0.<.#.#.@.-.-./ B -.-.-.-.-.R ^ d.h.h.&.,                                   ",
"                                          8.u.u.u.B.R =.7.0.0.0.7.} } } 4.9.w.y.w.e.e.w.0.<.-.#.@.B  .<.-.-.-.=.P s.h.h.h.N                                     ",
"                                          8.e.u.y.V.>.! Q /  .7.0.w.7.6.X.} } } 3.3.4.8.9.9.w.<.Y ' <.-.:.:.:.^ ,.h.s.s.@.:                                     ",
"                                          9.w.w.y.e.C.B.q.-.Q Q Q / =.:.7.0.7.7.6.X.....} } } [ _ :.<.:.<.<. .>.j.s.s.,.h                                       ",
"                                          w.w.w.e.e.e.u.u.C.B.m.>.=.( Q Q / /  .=.:.:.7.0.7.7.:.7.0.0.0.0.;.-.j.s.s.h./                                         ",
"                                          w.w.w.w.w.w.w.u.w.u.u.C.C.N.N.q.>.-.@.! Q Q Q / /  . .=.:.;.:.;.;.l.h.s.s.&.S                                         ",
"                                              w.w.0.w.w.w.e.e.u.u.u.y.u.e.C.C.C.N.B.m.0.>.-.@.( Q Q I I / M.>.+.&.&.T                                           ",
"                                                    w.w.w.w.w.w.u.w.u.u.y.y.u.u.y.e.u.u.u.C.C.N.N.N.N.q.M.,.+.@.#./                                             ",
"                                                        u.w.e.e.e.e.u.u.e.e.y.u.u.u.y.y.u.u.u.e.e.u.u.u.w.-.@.@.@.                                              ",
"                                                                { o.4.9.w.u.u.u.p.u.u.y.u.y.u.w.e.y.u.u.u.0.@.#. .                                              ",
"                                                                E l s i C F 2.5.4.8.r.w.y.u.u.y.y.u.w.u.y.w.#.@.                                                ",
"                                                              ^ W W P E x s > > u u C D D i p.p.p.p.u.u.w.w.:.                                                  ",
"                                                              W W ! @.&.&.( G G H K K ] V .                                                                     ",
"                                                              ! $.*.a.h.s.-.' ' ) ] ] { -                                                                       ",
"                                                            &.$.a.a.s.s.,.( ' ;.;.] ] ] =                                                                       ",
"                                                            *.a.a.a.s.h.,.| | ;.<.X.{ ] o                                                                       ",
"                                                            %.a.a.s.s.s.>.| | :.<.7.{ D X                                                                       ",
"                                                          s.%.a.s.s.s.h.=.`  .:.<.0.6.V X                                                                       ",
"                                                          *.%.s.*.s.s.,.( | ;.<.<.0.7.;                                                                         ",
"                                                          %.%.%.s.s.h.,.| | ;.<.0.0.0.-                                                                         ",
"                                                        s.%.K.Q.h.h.s.-.| | :.<.<.0.6.=                                                                         ",
"                                                        %.k.OXXXh.s.s.=.'  .:.0.0.0.4.r                                                                         ",
"                                                        %.*._.E.s.s.h.| | X.<.:.0.0.} 4                                                                         ",
"                                                      s.%.l.P.s.h.h.>.| | ;.<.0.0.w.J                                                                           ",
"                                                      %.h.}.|.h.s.s.-.' ..:.<.7.0.0.A                                                                           ",
"                                                      %./.=X_.s.h.s.=.'  .:.0.0.0.7.w                                                                           ",
"                                                    s.m.$X*XP.s.h.,. .' X.:.0.0.w.;.4                                                                           ",
"                                                    %.W.=XOXl.s.h.>.' ..;.0.0.0.w.} 4                                                                           ",
"                                                    %.[.=X'.*.s.h.-.' | ;.<.0.0.0.J                                                                             ",
"                                                  %.h.OX*XL.s.s.h. .' ..:.<.0.0.w.g                                                                             ",
"                                                  %.Z.*XXXk.s.h.,.| } X.7.0.0.0.9.w                                                                             ",
"                                                  %.T.=X~.s.s.h.>.| |  .<.0.0.w.X.5                                                                             ",
"                                                %.%.'.$XB.s.s.h.-.| | ;.0.0.0.w.[ O O O O @ & 4 9 w q w g w g                                                   ",
"                                                %.*.|.].s.s.h.h. .| ..7.<.0.0.w.G @ @ @ & 5 3 3 3 9 q 9 q q 9                                                   ",
"                                              h.%.s.].Z.s.s.h.,. .| ..:.0.0.0.w.H p p Y R / Y M f d d q q 9 1                                                   ",
"                                              *.%.a.l.*.s.h.h.>.' } X.<.0.0.w.0.m p m @.#.>.j.h.h.1.<.=.| e :                                                   ",
"                                              %.%.a.*.s.s.s.h.=.| ..X.0.0.0.w.6.s p N -.-.-.>.j.k.k.l.l.q.2                                                     ",
"                                            s.%.%.a.s.s.s.h.h. .' ..;.0.0.0.w.X.p s / -.-.-.:.,.k.k.l.M.:.1                                                     ",
"                                            *.%.%.s.s.s.s.h.,.| ....7.0.0.w.w.{ p s @.-.-.-.:.<.k.k.l.M. .:                                                     ",
"                                            %.%.a.a.s.s.h.h.-.| } X.7.0.0.w.w.H p N =.-.-.<.-.:.<.k.l.M.|                                                       ",
"                                          s.%.%.a.s.s.s.s.h.=.| .. .0.0.0.w.7.s s T -.-.-.-.:.:.<.X.{                                                           ",
"                                          s.%.a.*.s.*.h.h.,. .| ..;.0.0.0.w.6.s h ( -.-.-.:.:.1.l.H +                                                           ",
"                                          %.%.%.a.s.s.s.h.,. .....6.0.0.w.w.o.p N -.-.-.-.<.1.k.k.h O O @ 0                                                     ",
"                                        s.%.%.a.s.s.h.h.h.-.' } ..7.0.0.w.w.) s T -.-.-.>.k.j.k.k.<.;.m q g                                                     ",
"                                        *.%.%.a.*.s.*.h.j.=.....X.0.0.w.0.w.H h ( -.-.-.h.k.k.l.l.M.M.| d j                                                     ",
"                                        %.%.a.a.s.s.s.h.h. .} ..X.0.0.w.w.7.h m =.-.-.>.j.j.k.k.l.M.m.B d                                                       ",
"                                      s.%.%.a.s.s.s.h.h.>. .....6.0.0.w.w.6.s T #.-.:.,.k.k.k.l.M.M.1.f g                                                       ",
"                                      f.d.%.a.a.s.s.h.h.-...} X.7.0.0.w.w.o.s ( -.-.$.s.h.k.l.l.M.M.;.d j                                                       ",
"                                        f.d.a.s.s.h.h.h.=.} ....:.0.w.w.w.] m =.-.:.H.Q.P.l.k.l.M.M.' d                                                         ",
"                                          b.f.h.s.s.h.,.......X.7.0.w.w.e.2.) -.-.R.#X=X*X[.Z.l.M.m.B g                                                         ",
"                                              x.z.j.j.,. .} } 4.0.w.w.w.C.          E.`.{.oX].B.M.<.j                                                           ",
"                                                  n.n.c.1.<.7.0.N.B.V.A.                    P.B.B.0.                                                            ",
"                                                          D.F.D.G.                                                                                              "
};
