/* XPM */
static char *Metal_Wall_Game_Background_04_resized[] = {
/* columns rows colors chars-per-pixel */
"80 80 174 2 ",
"   c #010101",
".  c #090301",
"X  c #060708",
"o  c #070809",
"O  c #0B0C0D",
"+  c #130703",
"@  c #1A0A04",
"#  c #0C0F10",
"$  c #0E1214",
"%  c #111416",
"&  c #121619",
"*  c #161A1D",
"=  c #191C1E",
"-  c #230D06",
";  c #2C1007",
":  c #2F1108",
">  c #371409",
",  c #3C160A",
"<  c #171C20",
"1  c #191E21",
"2  c #1D2225",
"3  c #1E2529",
"4  c #242525",
"5  c #21262A",
"6  c #22292E",
"7  c #2C2C2D",
"8  c #252D32",
"9  c #282F33",
"0  c #273035",
"q  c #2A3136",
"w  c #2D353A",
"e  c #2F383E",
"r  c #313333",
"t  c #30353A",
"y  c #31393E",
"u  c #3A3C3D",
"i  c #41170B",
"p  c #45190C",
"a  c #4C1B0D",
"s  c #521E0D",
"d  c #5A210F",
"f  c #5F2310",
"g  c #2F3940",
"h  c #343D42",
"j  c #3A3F42",
"k  c #374046",
"l  c #3A4246",
"z  c #374148",
"x  c #3A454B",
"c  c #3D484F",
"v  c #3E4A51",
"b  c #444545",
"n  c #454A4D",
"m  c #494B4C",
"M  c #424D54",
"N  c #494F54",
"B  c #445057",
"V  c #46525A",
"C  c #49565E",
"Z  c #535557",
"A  c #545658",
"S  c #575859",
"D  c #5A5B5C",
"F  c #4A5760",
"G  c #4D5A63",
"H  c #505E67",
"J  c #5D5F61",
"K  c #515F68",
"L  c #5C6164",
"P  c #55636C",
"I  c #58666F",
"U  c #596770",
"Y  c #5C6B74",
"T  c #5F6E78",
"R  c #656666",
"E  c #64686A",
"W  c #606D77",
"Q  c #6A6E72",
"!  c #616F78",
"~  c #6D7174",
"^  c #64727C",
"/  c #6A757D",
"(  c #717679",
")  c #777A7D",
"_  c #7A7B7B",
"`  c #813015",
"'  c #8C3617",
"]  c #913918",
"[  c #9A3E19",
"{  c #9F461A",
"}  c #A44C1C",
"|  c #A94C1D",
" . c #AF521E",
".. c #B3531E",
"X. c #BC5F20",
"o. c #BB6320",
"O. c #BE6921",
"+. c #C76C23",
"@. c #DF9E29",
"#. c #E2A52A",
"$. c #E6AC2B",
"%. c #E9B32B",
"&. c #EFC12D",
"*. c #F1C72E",
"=. c #F5D62F",
"-. c #F6DA2F",
";. c #F7DF30",
":. c #F8E530",
">. c #F9ED31",
",. c #FAF031",
"<. c #677680",
"1. c #687781",
"2. c #6C7A85",
"3. c #6F7E88",
"4. c #717D85",
"5. c #797D80",
"6. c #707F89",
"7. c #7D8286",
"8. c #74828D",
"9. c #7C858C",
"0. c #778590",
"q. c #788791",
"w. c #7B8A95",
"e. c #7F8D98",
"r. c #848585",
"t. c #828689",
"y. c #878B8D",
"u. c #88898A",
"i. c #838E96",
"p. c #8C8F91",
"a. c #808F9A",
"s. c #8F9294",
"d. c #83929D",
"f. c #8C969D",
"g. c #96999B",
"h. c #8795A1",
"j. c #8897A2",
"k. c #8B9AA5",
"l. c #8E9DA9",
"z. c #929DA5",
"x. c #909FAA",
"c. c #99A1A7",
"v. c #93A1AD",
"b. c #9CA5AC",
"n. c #96A5B1",
"m. c #98A7B3",
"M. c #9BA9B5",
"N. c #9EADB9",
"B. c #A8ABAD",
"V. c #A2ADB5",
"C. c #A1AFBA",
"Z. c #A9B1B6",
"A. c #A3B1BC",
"S. c #ABB4BC",
"D. c #B4B4B4",
"F. c #A7B5C0",
"G. c #AAB7C1",
"H. c #ADBAC3",
"J. c #B1BCC6",
"K. c #BEBFC0",
"L. c #B4BFC8",
"P. c #B9C1C8",
"I. c #C4CCD3",
"U. c #C8CED2",
"Y. c #DDDEDF",
"T. c #DEDFE0",
"R. c #DEE2E5",
"E. c #E1E2E4",
"W. c #E5E7E9",
"Q. c #E7E8EA",
"!. c #E8E9EA",
"~. c #EEEFF0",
"^. c #EFF0F1",
"/. c #F3F5F6",
/* pixels */
"                                                                                                                                                                ",
"  * b b b b b b b b b b b b b b c x b b b b b b b b b b b b b b b b b b b b b b b b b b b b b b b b b b b b b b b b b b b b b b b b b b b b b b b b b b b b %   ",
"  Z W.Q.!.!.Q.Q.Q.!.Q.Q.Q.Q.Q.Q.Q.Q.Q.Q.Q.W.Q.Q.Q.Q.Q.Q.Q.Q.!.!.Q.W.Q.!.Q.Q.Q.Q.W.Q.Q.Q.Q.W.Q.Q.Q.Q.Q.Q.Q.Q.Q.Q.Q.W.Q.!.Q.Q.Q.Q.!.Q.Q.!.Q.W.Q.Q.Q.Q.Q.Q.Q.W.b   ",
"  S /.!./.!.Y.W.~.!./.!./.!./.!.^.^.^.^.!./.!././.!./.!.~.~.~.~.!./.!././.!./.!.~.^.^.^.!./.!././.!./.!.~.~.^.~.!./.!././.!./.!.~.~.~.~.!./.!./.E.Y./.!.!.Q.b   ",
"  Z !.!.E._ 7 u B.~.!.!.Q.Q.!.!.Q.Q.Q.Q.Q.Q.~.Q.Q.Q.Q.!.!.!.!.!.!.Q.!.!.!.Q.Q.Q.W.Q.Q.Q.!.Q.Q.Q.Q.W.Q.Q.Q.W.W.W.W.W.Q.W.W.W.W.W.Q.W.W.Q.Q.Q.Q.g.u r r.E.W.T.b   ",
"  n L.P.7.X     2 V.P.J.J.J.J.J.J.J.J.J.J.H.H.F.J.G.G.G.G.G.S.A.A.A.A.C.V.V.V.V.V.V.M.m.b.b.n.n.c.c.v.v.z.z.z.k.z.z.j.k.f.f.f.f.d.d.i.d.i.i.5.&     O U 9.8.5   ",
"  l A.G.H       O i.A.C.C.C.A.C.N.N.N.M.N.N.M.M.m.m.m.v.v.x.l.l.l.l.k.k.k.h.j.h.d.d.d.a.a.a.w.w.w.w.w.q.q.q.q.q.8.8.3.3.3.3.2.2.1.<.^ ^ ^ ^ C         j Y I =   ",
"  l A.G.f.%     u C.A.A.C.C.C.C.N.N.N.N.N.N.M.M.m.m.m.x.k.a.w.w.q.0.0.8.8.8.8.6.6.3.3.3.2.2.<.<.1.<.^ ^ ^ 4.q.8.8.8.8.8.3.3.2.1.^ U P P P G Q t     * ~ U I =   ",
"  x F.C.I.B.J Q U.J.C.C.C.C.N.N.N.N.N.N.M.M.M.n.n.n.n.n.v.x.k.h.e.q.8.6.3.3.2.3.2.2.2.1.<.<.<.<.! <.<.! ! <.6.6.8.8.8.3.2.2.^ Y P P H K H F 4.D.R L D.f.I P =   ",
"  j C.F.G.R././.U.C.N.N.N.N.N.N.N.N.M.M.M.M.M.n.n.n.v.v.v.v.x.l.l.j.h.q.3.2.2.2.2.1.1.1.<.<.<.! <.! ! ! ! ! 1.3.8.4.6.2.1.Y P P P H H K P U ! Z.!.~.K.^ U P 1   ",
"  l C.C.C.F.J.H.C.C.n.d.h.l.v.m.M.M.M.M.n.M.n.n.n.v.v.v.v.x.l.l.l.l.k.a.3.3.2.2.2.1.1.<.<.<.! <.! ! ! ! W Y Y Y ! ^ T U I P P P P P P U W W W W 8.8.Y U I P =   ",
"  l C.C.C.C.C.N.C.N.M.j.e.a.a.h.x.M.m.m.n.n.n.v.v.v.v.x.l.l.l.l.k.k.j.h.w.3.1.1.1.1.<.<.<.! <.! ! ! ! T W Y Y Y U U I I P P P P P U ^ ^ ^ W T Y Y U U U P P =   ",
"  l N.C.N.N.N.N.N.N.N.n.x.n.n.n.m.m.m.n.m.m.v.k.e.e.w.e.q.q.e.h.j.j.h.j.h.w.3.1.<.<.<.<.<.<.! <.! W T T Y Y Y Y Y P I P P P K P U ^ ! ^ ! W Y Y Y U U I I K =   ",
"  j N.N.N.N.N.N.N.N.N.M.M.M.m.m.m.m.n.v.l.e.w.0.0.8.6.8.8.3.3.3.w.a.h.h.d.h.e.6.1.<.<.<.! T ! <.W T T Y Y Y U U P Y P K P I Y W ^ ^ ! ! W Y Y Y U I I I P K *   ",
"  t x.N.N.N.N.N.M.M.M.M.M.m.m.n.m.v.j.e.0.0.8.8.6.8.6.8.3.3.3.3.6.a.h.h.d.d.a.e.w.6.6.6.3.6.3.3.2.<.T U Y U U U I I P Y ^ ^ ^ ^ ^ ^ ! ! T Y Y U U I P P P G *   ",
"  t a.v.N.M.M.M.M.M.M.m.n.n.n.n.v.v.x.l.e.w.0.8.6.6.6.3.3.8.q.w.h.h.d.d.a.d.a.a.e.e.a.e.w.6.w.6.6.6.<.U U E U U I K W 1.1.^ ^ ^ ! ! ! Y T U Y U I I P P P K *   ",
"  w w.d.n.M.M.m.n.m.n.n.n.n.n.v.v.x.n.l.l.l.j.e.q.8.8.8.q.e.j.h.d.d.d.d.a.a.e.e.e.w.w.w.q.w.8.8.6.w.6.W U U U I P U ^ <.<.<.! ! T T T Y Y Y U U U P P P K G *   ",
"  q w.w.j.m.m.m.n.n.n.n.n.n.n.v.n.l.l.l.l.l.l.l.k.d.d.h.j.j.d.h.d.d.a.a.a.e.e.w.w.w.8.w.8.q.8.8.6.6.2.<.U P P P P ! <.<.! ^ ^ ! T T Y Y Y U U U P P P K P G *   ",
"  q w.w.w.l.n.n.n.n.v.n.x.v.v.v.l.l.l.l.k.k.k.k.k.j.j.j.j.h.d.d.d.d.a.a.e.w.w.w.w.w.w.8.8.8.8.8.6.6.3.2.1.W P P ! <.<.<.<.! ! ! T Y Y Y U U U P P P K K K F *   ",
"  q w.w.q.e.n.n.v.n.v.v.x.x.l.l.l.l.l.k.k.k.k.j.j.j.j.d.d.d.d.d.d.a.e.e.e.w.w.w.w.8.w.8.q.8.8.3.6.3.3.2.2.1.<.! 1.<.<.! ! ! ! W Y Y Y U U U P P P K K K G C *   ",
"  q q.q.q.w.v.n.v.v.v.x.x.x.l.l.l.k.k.k.k.j.j.j.j.d.j.d.d.d.d.e.e.e.e.w.w.w.0.q.8.w.8.8.8.8.2.8.6.3.2.2.2.1.<.<.<.<.<.! ! ! W W Y Y U U U P P P K K H G G F *   ",
"  q 0.0.h.j.x.l.x.x.x.l.l.l.k.l.k.k.k.j.j.j.j.j.d.d.d.d.d.d.e.e.e.w.w.w.w.w.q.0.8.0.8.8.8.8.8.2.3.2.2.2.1.1.<.<.! <.! ! ! W W Y Y U U U I P P P K K H G G C *   ",
"  q 0.0.k.n.x.x.x.l.l.l.k.l.k.k.k.j.h.h.h.h.h.h.d.d.d.d.e.e.e.e.w.w.w.w.w.0.8.8.8.8.8.8.8.2.8.2.2.2.<.2.1.<.<.<.! ! ! ! ! Y Y U Y U U P P P P K K H G F F C &   ",
"  % G w.l.l.l.l.l.k.j.k.k.k.j.j.j.j.h.h.h.h.h.e.d.d.e.e.e.e.w.w.w.w.w.q.q.0.0.8.8.8.8.8.8.2.2.2.2.2.<.<.1.<.<.! <.! ! ! Y W Y U U U P P P P K H H G G G V e o   ",
"    X q 4.h.q.e.k.j.q.e.j.j.j.j.j.h.h.d.d.d.d.d.d.e.e.e.e.w.w.w.w.q.q.0.0.0.8.8.8.8.3.3.3.2.2.2.1.<.<.<.<.! <.T ! ! W Y Y Y U U I I P P P K K H G F C k *       ",
"        O h ! 8.j.j.0.2.8.w.h.j.h.h.h.d.d.d.e.e.e.e.e.e.w.w.w.w.q.0.0.0.8.8.8.8.6.3.2.3.2.2.2.1.1.<.<.<.<.<.T <.! W Y Y Y U U U I P P P P G G G G M 5 X         ",
"            % C i.h.w.6.2.2.8.a.h.d.e.d.d.e.e.e.e.e.w.w.w.q.q.q.q.0.0.8.8.8.8.8.3.3.2.2.2.2.1.1.<.<.! <.T T T T W Y Y Y Y U U I P P P K K P G C w O             ",
"                5 W d.h.a.q.2.6.w.h.e.e.e.e.e.e.w.w.w.w.w.q.q.q.0.8.8.8.8.8.8./ 3.3.2.2.2.1.1.<.<.<.<.<.! ! T T Y Y Y Y U I I P P P K P G F j &                 ",
"  . . . .         X j q.d.d.a.8.3.e.e.e.e.w.w.w.w.w.w.q.q.q.8.8.8.8.8.8.8.2.8.2.2.2.2.2.<.<.<.<.! <.! ! T T T Y Y Y Y U I I P P P K K K V 2             . . .   ",
". @ p i - . .       O 4.d.d.a.a.w.w.e.e.e.w.w.w.w.q.q.q.q.8.8.8.8.8.8.1./ 8.8.1.2.2.1.1.<.<.<.^ ! ^ ! ! T T Y Y Y U I I I P P P K K K F c X         + - p a - . ",
". > ] | ` d : .     O 1.d.a.e.e.e.e.w.w.w.w.w.q.q.q.q.8.8.8.8.8.8.8.8.8.1.8./ 1.2.1.1.<.<.^ ^ ^ ^ ! ! ! T Y Y Y U U I I P P P K K K F K c X   . + ; s `  .] i . ",
". ,  .&.#...' d @ . O 1.a.e.w.e.w.w.w.w.q.q.q.q.q.8.8.8.8.8.8.8.8.1.1.8.2./ 8.1.1.<.<.<.^ ^ ^ ! ! T T T Y Y U U U I I P P P K H K K G F c X   @ s ' o.@.%...p . ",
". p  .-.,.-.#.} , . O 2.e.w.w.w.w.q.q.q.q.0.8.8.8.8.8.8.8.8.8.8.1.8.8.^ 8.8.^ ^ <.<.<.^ ^ ! ! ! ! T Y Y Y U U U U P P P P K K K G G G F c X . , } $.;.>.=...p . ",
". p  .-.>.>.-.+.a . O / w.w.w.w.q.q.q.0.0.0.8.8.8.8.8.8.<.8.<.8.8.1.1.8.^ ^ 1.1.^ ^ ^ ^ ^ ! ! T T Y Y Y Y U U U P P P P K K K G G F F F x X . a o.>.>.>.=...p . ",
"  i ..-.>.>.:...a . O / w.w.q.q.q.q.0.0.8.8.8.8.8.8.8.<.8.<.8.<.^ 8.^ 1.1.1.^ ^ ^ ^ ^ ^ ! T T T Y Y Y U U U U P P P K K K K G G F F C C x o . a O.:.>.>.=...p . ",
". i ..-.>.>.:...a . O / w.q.0.0.0.q.0.8.8.8.8.8.8.<.8.8.<.8.<.8.1.1.^ 1.1.1.^ ^ ^ ^ T ! T T Y Y Y Y U U U P P P P P K K G G G F F C V C z o . a O.:.>.>.=...p . ",
". i  .-.>.>.;.o.a . # ^ q.0.0.0.0.8.8.8.8.8.8.<.8.<.8.<.<.8.<.<.^ ^ ^ ^ ^ ^ ^ ^ ^ T T T Y Y Y Y U U U U P P P P K K H H G G F F C C B C z X . a O.:.>.>.=...p . ",
". ,  .-.>.>.;.o.a . O ! 8.8.8.8.8.8.8.8.8.8.<.8.<.8.<.8.<.8.<.<.1.8.^ ^ ^ ^ ^ ^ T T ! T Y Y Y U U U U P P P P K K K G G G G F C C C B B z . . a O.:.>.>.=...p . ",
". i  .:.>.>.;.o.s . O ! 8.8.8.8.8.8.8.8.8.<.8.<.<.8.<.<.<.<.<.<.^ ^ ^ ^ ^ ! ! ! T T Y Y Y Y U U U U P P P K K K K G G G F F C V C B B B j X . a O.:.>.>.=...p . ",
". i ..-.>.>.;.o.a . O ! 8.8.1.8.<.8.8.<.<.8.<.8.<.^ 8.<.<.<.<.^ ^ ^ ^ ^ ! ! ! Y Y Y Y Y Y U U U U P P P P K K K H G G F C C C V B B M B j X . a O.>.>.>.=...p . ",
". , ..;.>.>.:.X.a . O W 8.8.2.8.8.<.<.8.^ ^ 8.^ <.<.<.<.<.<.<.^ ^ ! ^ ! ! ! Y Y Y Y U U U U P U P P P P K H H H G G F C C C V B B M M M h X . s +.:.>.>.*...p . ",
". i  .-.>.>.;.X.a X O W 8.4.8.2.8.<.8.^ <.8.<.^ <.<.<.<.^ ^ ^ ^ ^ ^ ! ! Y ! Y Y Y Y U U U U P P P K H H H H F G F C C C V V V v M v v M h X . a O.:.>.>.=.X.p . ",
". i  .-.>.>.;.X.a X # Y 2.2.2.8.<.8.^ 8.8.<.<.<.<.^ <.^ ^ ^ ! ! ! ! Y Y Y Y Y U U U U U P P P P P H H H H F F F F C C V V V V v M n c c y X . a O.:.>.,.=.X.p . ",
". i ..-.>.>.;.X.a o O U 2.2.2./ <.<.<.<.! <.<.^ ^ ^ ^ ^ T ! ! T ! ! Y Y Y U U U U I I I P P K K K H H G H F F C C V V V v B V v M c c c y X . a O.:.:.:.=.| p . ",
". i ..-.>.>.;.X.p o # E <.8.! 8.<.<.<.<.^ <.^ ^ ^ ! ^ T T T T Y Y Y Y Y U U I I I P P P P K K K H H F G F F C C C C B B V B v v c c x c y X . a O.:.>.>.=...p . ",
". i  .-.>.>.:.X.s o O U <.<.<.<.<.<.<.<.^ ! ^ ! ^ T T T T T Y Y Y Y U U U U I P I P P P K K H H G G F F C C C V B B B B v v v v c c x z t X . a O.>.>.>.=...p . ",
". ,  .-.>.>.;.X.p o & U <.<.<.^ <.! <.! ^ ! ! ! T T T Y T Y Y Y U U U U U I I P P P K K K H G G G F F F C C C V B v B v v v v v c x z l w X . a O.>.>.>.=...p . ",
". i ..;.>.:.$.} , o $ P <.^ <.^ <.! ! ^ ! ! ! ! T T Y Y Y Y U Y U U U I P P P P K K K K H G G G F F F C C B B B B B v v v v x x x z z l w X . , | %.:.>.=...p . ",
". i  .*.$.+.[ s - . O P ^ ^ ^ ! ^ T ^ T T T Y Y Y Y Y Y Y U U U U U P P P P K K K K H H G G F C F C C B V B B V v v c c c x x x x k k k w .   - f { +.$.*...p . ",
". > [ ..' f > @ .   O L ^ ^ ^ W T T T T T Y Y Y Y Y Y U U U U P P P P P K P K K K G G G G F F C C C V B V V v v v v c c c x x l k k h h w X   . @ > f ' ..[ i . ",
". ; d a : + .       O K ^ T W W T T T Y Y Y Y Y U U U U U U P P P P K P K K G K G G G F F C C C C C B B V v v v v c c c x x l k k h h h 9         . + : s d - . ",
"  . + . .         X t W T T T T Y Y Y Y Y Y U U U U U P P P P P P K K K K K G G G F F C C C C V B B B v v v v c v c x x l k k k h h y e h 7           . . + .   ",
"                4 ( B.1.U T Y Y Y Y U Y U U U U U P P P P P P K K K K G G G G G F F C C C V V B B v v B v v c c c c x z k k h h h h y e n y.J =                 ",
"            & L b.S.c.^ Y Y Y U Y U U U U U P U P P P K P K K K K K G G G G G C F C C V V B B M B v v v c c z k h h y y y w y y y y t t x t.g.t.m O             ",
"        O m s.S.B.i.^ T Y U U U U U U U P U P P P P K K K G G F F G G G C C C B B B B B B B M M v v v z h y e e e e y y y h y y e e w w w j E p.g.) t O         ",
"      t 7.Z.Z.f./ U U U U U U U P U P P P P P K P K F V B M M v v v v v c c x c M B B B M M M M v z h y y y e e y h h h h h y y t w w q q 0 q l ~ s.s.R 4       ",
"  & Q B.Z.v.8.U U U I I I U I P P P P P P K K K G V v v v v v v v c x c c v M V B B B M M c x z h g y y y y h h h h h h y y w w t w q q q 9 8 7 9 n ) s.u.Z O   ",
"  l Z.b.9.Y P U U U I I P P P P P P P K K K G C M M v v v x v v c v V V V V V M B M M c x k h g y y h h k k k k h h y y y y y w q q q 9 9 8 8 6 5 5 q Z r.y.7   ",
"  u e.! I I U U I I P P P P P P K K K H G V M v v v v v v v v v M V V V V V M M v c x h h h h h z k x k k h h h h y y y w w w q q q 9 9 7 8 6 6 5 5 3 2 q D 4   ",
"  5 I I P P P P P P P P K P K K K G C B v v v v v B V V V C V V V V V V v V v x z h h h h k k x x z k k k h h y h y y e w w q q 9 9 9 9 6 6 6 4 5 5 2 2 2 2 O   ",
"  3 P P P P P P P P K K K K H F V M v v v B B C F C C C V V V V V M V v c z g z h k x x x x x k k k h h h y y y y w w w r q q q 9 6 9 6 5 4 5 5 5 2 2 1 2 = X   ",
"  3 P P P K K K K K K K H F V v B V F F F F F C F C V C V V V V M v x z z z x x x x x x x x k k k h h h y y y y w w w r q q 9 8 9 8 6 6 5 5 5 5 2 2 2 = = * o   ",
"  5 K P K K K K K H G F V V F F F F F F F F C C V C B B B B v c x z x x c c c x x x x x k k k h h h h y y y w e w r q q q 9 9 8 6 6 6 3 5 4 2 2 2 2 = = = * X   ",
"  2 K G K H K G G G G G G G F G F C C C C C V C B V B M v x x x x c c c x c x x x x k k k h h h h h y y y w w w q 0 q 9 9 6 6 6 6 6 5 4 3 3 2 2 = 1 = = * * o   ",
"  2 K G G G G G F F F F F F F C V F V V C B B B B v c x c c v M v c c x x x x z z k k h h h y h y y t w w w w q q q 7 q 6 3 2 2 5 3 4 3 2 2 1 1 = = * = * * o   ",
"  2 G G F G F F F F F F F F C C V V V V B B B v v v v v v v c c c x x x x x z k l k h h h h y y y t w w w w q q q q 6 6 6 5 3 3 4 3 2 2 2 2 1 1 = * * * = * X   ",
"  2 F F F C F F F V V F V F V C B B B B B v v v v v v v c c x x x x x z k l k k h h h h y y y w w w w q q q 9 9 q 6 6 5 5 5 5 3 3 2 2 1 1 1 = = * = * = * * o   ",
"  1 C C C C C C F V V V V v V v B B B v B v v v v v c c c x x x x z z z k h h h h h y y y y w w w w q q q 9 9 6 6 6 5 5 5 5 4 4 2 2 2 1 = = = * * = * * * * o   ",
"  1 C C C C V V v F v F V V v v v B v v v v v v v x c x x x z z z z z z h g g g y y e w t w w q q q 0 0 9 9 6 7 6 3 * 2 3 3 2 2 2 2 2 * = * * * * * * * * * X   ",
"  1 v B M M M M v c v v v v v x c c c x x c x z z z z z j j h h g g g g g g g g w w w q q q 0 8 9 0 6 6 6 5 6 5 3 2 * & & & 1 1 * * * * * * * * * * * * * * X   ",
"  & g g g g e e g g g g g g g g w w w w w w 0 0 0 0 0 0 8 8 0 8 8 8 8 8 8 6 3 6 6 5 3 3 3 3 3 2 2 2 2 < 2 2 1 * & % $ $ $ $ $ $ % % % % % % % % % % % % % $ X   ",
"  % g w w 6 & * 8 g w 0 w 0 0 0 0 0 0 0 0 0 0 0 8 9 8 8 8 8 8 8 6 6 6 6 3 6 3 3 3 3 3 3 3 * * 2 2 1 2 < * * % % $ $ $ # $ # # # # $ $ % % # % # o o O $ $ $ X   ",
"  % w w 6 X     # 0 w 0 8 8 0 0 0 0 0 0 0 8 8 8 8 8 8 6 6 6 6 6 6 6 3 6 3 3 3 3 3 3 2 1 & & & & * < < < * * & $ $ $ $ $ $ $ O O O # # % $ % $         $ $ $ X   ",
"  $ w w *         6 0 8 3 2 6 0 0 8 0 8 8 8 8 8 8 8 8 6 6 6 6 6 3 6 3 3 3 3 3 2 < < & & & & & & $ * < * * * & & % & % % & $ $ $ % $ $ % $ % #         o $ $ X   ",
"  $ 0 w 7       # w 0 9 6 2 3 8 0 8 8 8 8 8 8 8 6 6 6 6 6 6 3 3 3 3 3 2 3 3 1 & & & & & & & $ & $ $ * * * & & & & & % $ % $ % $ % $ $ $ $ $ = O     X = $ $ X   ",
"  $ 0 0 N l % = A h 8 8 8 8 8 8 8 8 8 8 6 6 3 8 6 6 3 6 3 3 3 3 3 2 2 2 3 1 < & & & & & $ $ $ $ $ $ $ $ & % & & % % % $ $ $ $ $ $ $ $ % % # q S = * m j # $ X   ",
"  $ 9 9 h / ) 5.L 0 8 8 8 8 8 8 6 6 6 6 6 6 3 8 6 3 3 3 3 3 3 < 1 1 < < 1 1 & & & $ & $ $ $ $ $ $ $ $ # $ # # $ $ $ $ $ $ $ $ $ $ % % $ % $ * R u.u.( 4 $ $ X   ",
"  $ 8 8 8 y N n 0 8 8 8 8 6 6 6 6 6 6 6 6 3 3 3 3 3 3 2 3 3 < & & & & & & & & & $ & $ $ $ $ $ $ $ $ # O # # O O # O O # $ $ $ $ $ $ $ $ % $ $ * u b 2 $ $ $ X   ",
"  X $ $ % # # # $ # $ # # # # # # # # # O # # # # # # # # O O o o X o X X o X X o o X X X X X X X X X X X X   X X X   X X X X X o o o o X X X X X X X X X X     ",
"                                                                                                                                                                "
};
