/* XPM */
static char *result[] = {
/* columns rows colors chars-per-pixel */
"113 36 3 1 ",
"  c #3D3964",
". c #2D2242",
"X c #1D1923",
/* pixels */
"                                                                              .                           .      ",
"                                                                                                          .      ",
"                                                                                                          .      ",
"                                                                                                          .      ",
"                                                                                                          .      ",
"                                                                                                                 ",
"                                                                                                                 ",
"                                                                                                                 ",
"                                                                                                                 ",
"                               .                                           .................                     ",
"                               X                                                  ..                             ",
"                     ........XXX..XX... . ..                                      .                              ",
"                                                                                  .                              ",
"                                                                                                                 ",
"                                                                   .                                             ",
"                                                                                                                 ",
"                                                                                                                 ",
"                                                                                                                 ",
"          .                                                                                              ......X.",
"                                                                                                                 ",
"          .                                                                                                      ",
"          .                                                                                                      ",
"          .                                                                                                      ",
"       ... ..   .....                                         ..                       .                         ",
"                                                                                       .                         ",
"                                                                                       .                         ",
"                                                .XX.                                   ..                        ",
"                                                  X                               ............                   ",
"                                                  .                                                              ",
"                                                  .                                                              ",
"       .          .                                                            .          .                      ",
"       X                                                                       X                          .      ",
"                                                                                                          .      ",
"....XX                                      ..  ...                                                       .      ",
".                                                 .                     .                                 .      ",
"..................................................X.......................................................X......"
};
