/* XPM */
static char *Rock6_1_no_shadow_resized[] = {
/* columns rows colors chars-per-pixel */
"80 80 66 1 ",
"  c None",
". c #3E2C2B",
"X c #412F2D",
"o c #44312F",
"O c #473330",
"+ c #4B3532",
"@ c #4E3834",
"# c #523A36",
"$ c #563C38",
"% c #593E3A",
"& c #574039",
"* c #5D433D",
"= c #60453E",
"- c #61493F",
"; c #634741",
": c #664942",
"> c #6A4C45",
", c #6F4F48",
"< c #6D5146",
"1 c #6F5048",
"2 c #705447",
"3 c #725449",
"4 c #78574D",
"5 c #75594A",
"6 c #7A5A4E",
"7 c #7E5D50",
"8 c #7D614F",
"9 c #7F6350",
"0 c #815F52",
"q c #856254",
"w c #896656",
"e c #8A6A56",
"r c #8E6B58",
"t c #916E5A",
"y c #95725C",
"u c #99755E",
"i c #9B7A5F",
"p c #9B7760",
"a c #9E7A61",
"s c #A27E63",
"d c #A58165",
"f c #A98467",
"g c #A78668",
"h c #AB8668",
"j c #AD8A6A",
"k c #B18D6C",
"l c #B5926E",
"z c #B8956F",
"x c #B79570",
"c c #B99671",
"v c #BD9B73",
"b c #C19E74",
"n c #C4A377",
"m c #C7A579",
"M c #C8A779",
"N c #C7A879",
"B c #CAA979",
"V c #CFB07F",
"C c #D1B17E",
"Z c #D4B581",
"A c #D7B883",
"S c #DABC85",
"D c #DEC187",
"F c #DFC188",
"G c #E1C489",
"H c #E6C98C",
/* pixels */
"                                                                                ",
"                                                                                ",
"                                                                                ",
"                                                                                ",
"                                                                                ",
"                                                  oooo                          ",
"                                               o.+qee6..                        ",
"                                           . o-528bnbg52&                       ",
"                                          &*--dvlvCCBnxb8#                      ",
"                                        @@9khhVCBBBBBNVCc5@                     ",
"                          ooo         o#yibAmnBBBBBBMVCidgqo                    ",
"                         o5r5o       <eyBNBVBBBBBMBBCBdkcnl0@                   ",
"                        O2lNf2O     .5cBABNmBBBmMBMMCBgMBBnl8&                  ",
"                       @<gACmh<+    .5cCZBNBBBBBBMBBMMBBBBBNl5#                 ",
"                      o<kNBBBmk>O   .<djACBBBBBBBBMBMBMBBBBBNl8@                ",
"                     o2lABNBBBAk2o  o@5gjZABmBBmMMBMBMBBBBBNNNlqO               ",
"                    o5kACBBBMBGbi6o X+*2sxBANBBBMBBBBBMMBMMBMBCvq+              ",
"                   @2kZCMMBmBBCzkh2+X+#*sfNGZBBBBCjbBBBBBBBBBMCCl8&             ",
"                   @dAABMBBMBBMzbnh-++$*rsvSGZNBVndzBBMBMBBMMBBBNv6#            ",
"                   *dZZBBMBBBBMMBBmk-@$$:tdcSFZZbtbBMBBMBMMBBBBBBSb7@           ",
"                  *dVVBBMBMMBMBBBBBnh2O$$:rjlSGxygnBBBBBMBMBMBMBBBSnqO          ",
"                 .-hcZCNBBBBMBMMBmBBngre*=wjhchpdbBBMBMBBMBMBMBMMMFBeO          ",
"                  -ggvCCBMMBBBBBBMBMBnvlw>4yhdyjVCBBBBMMMBBBBBMMMZBceO          ",
"                  &tggvACCBMMMMBMmbMBBBBlr>3uffNHDVBBMBBBMMMMBBCZZxs9o          ",
"              @  oo*uffzSGCBBBBBBnjmBBMBMxt>3pdbDDCMBMMBMBBBCBCFZksy3o          ",
"             *y&oo+&,uffzSGGSBMMCChnBBMBMMlt>3ujbGDCMBBMBCDDDFBjkhyw1o          ",
"            -dcte:o$:4yhjccCGABAVhynBBBMMBMxt>4tjbGDSSSDDFAvzvlgsy0w3o          ",
"           :dBNvly<$=:4rusflZGSGmdgnBMMMMMMBnt,4tfnDHSMmBBvgffiyyw0q3o          ",
"          -dVANnjgw$$=:,qusskCZZvlCCCCCCZZnnBj6;4usMCMffffdaisyw0qqw3o          ",
"         @yBABNjdy4==>24wwwuffffdzGSCGCGSSbfjfq314sjffffdduqqwidwqqw<o          ",
"         O*uBFAjtqrssssssssfffffdhjjljlkkkjhfhssssfffffftwwqwulvswq6=o          ",
"         o#:ubxyqtsjVmbbbjflbbbbbbvbCjyffMvshvbbbbbvbbbCktqquzmbswq6*X.XX       ",
"         o$#,ww00tkmCVBBbbbbBBBBBBBAndufzCMzvMBBBBBZAAAMstwsbMBbliw4::255<      ",
"         o@$=>>0rubDVMBBBMmBBBBBBBCBiillMBMBBMBMBBCCZZVjr0rkZZBBmhr>,yklleo     ",
"          X#=:,0psbABBBMMBBMBBBMBCCyavBMBMMBMBBBBBAvsjfsr0ykmBBBBj6=4kBmceo     ",
"          X@$=>,ssbDVMMMBMMBBMBBCBusvMMBMBBMBMMMCSlffjs47tkbMMmZAh<4hmSvhro     ",
"           ++%>>psbGSVMMBMBMMBBAbdlbmBBBBMBBMMMZZcjfjp6>0ycABBbjat>qkkxks5o     ",
"            +$==usbHGCMMMBMBBMMZvjBBBmBBMBBMMMZCvffat0>>7ycGBBbksu44uffpt2o     ",
"             +@@0sbBGABMMBBBBBBMBBBmmBBmMBMBCCZvffsw3:>>7tcGZBBBMh4;4yuw0>o     ",
"              oX#0ssAGAMBMBMMBMBBBBBBBBBBBBCGScssswq4:>>4tcGGCBBMj>*>>>74%o     ",
"               +#=0skCAMmBBBMBBMNBNBBBBBMBCHSxfr4ww04>>>*0cGGCMBmf<*:>>>;#o     ",
"               X#=,0sbBABBBBBMBMBBMBBBBBMCHCcfw33w004>>>%0kbGCMBmh<$=>>=#O      ",
"               X#=>>0sbmMmBBBMBBMBBMBBBBCGAvfr3:,400,>>>%,thbCCBCj:+$==@O       ",
"               ++=>>>wskZBmBMBBMBMMMBCCCHAvdt1:>>,0,>>>;%*0sfMCCDj-O$$@+        ",
"               o#=>>>:wbAZmmBmBmBBBVDGGGDzst>>>>>,0,>>;%$*0sffcASj-.+#o         ",
"               o#%%>>>wszAZbBBBmCGFFGGGDlfr3>>>>>>,>>;%$$;3rsfnGDj*. O          ",
"               o#$%>>>3wsbZDSDDDHCvcccczhe2:>>>>>>>>;%$$+%30rskBSj*             ",
"               X#$%>>>>3wsbAHGbZNvffdffdu4::>>>>>>=*$*4@X$400tsknj-.            ",
"               o@$%>>>>:,ssbSZskhshfsssaw,>>>>>>>=$:>qh>O#>00qtsdr*             ",
"               o@$*:>>>>,ssssksssssst00q01>>>>>:=$=yjlMf=+*20q0tp#              ",
"               o@%%*>>>>>,sfsssy0,4w00qq04>>>:*$%*ubmmmh-O*>0qqw0+              ",
"               o@%$$:>>>>0wttttr04,00wqww,>:*%$3tybbBBBCd-+=30qq7+              ",
"                +#$$>>>>,0w000w000>0qqq041;%%4,aMbMBBMBAv2X+=10w7+              ",
"                 +#$;:>>,00www0ww040qqq0>:>>4jujBVBBMBMMze$X@%>07+              ",
"                 X+$%;>>,00000w00w00qq00>=qjkblpsSVMBBMBBbr+oX%,7+              ",
"                  O$%;>>,00w0w0ww00wq00>=wlMmMMlkBMMBMBBSMy;+ o$:+              ",
"                  O+$$;:,30qqqqq0ww07,>=rlbBBBBbbMBBBmBAnkdt@  +@               ",
"                   o+$*;::7qqqqw0044%10wzbBBBBBBBMmBMVAGcfsq+                   ",
"                    X+$$:>40qq77>**%*wzzBBBbBmMBBZZBVCZZlsw:O                   ",
"                     o+$%::407>:%Xo#tbBmBBBZBZBBZGSBZBfjdw::+                   ",
"                      O+$%%%*>+OO #uvBBBZZFFSGSSGSljjjfs0,>:O                   ",
"                       O+OOO+@   *yBSSDSFHGHGbcbcxfffstr4>:%o                   ",
"                         X  o   o*ynMmmmBbBbbkssypuuptqq3;&+o                   ",
"                               o@*>tsfffhssppsst0000q0qq1$+o                    ",
"                               X+*:,tsssssy00w0w0w0w00w0*+X                     ",
"                               o+$%:334wrrwww0w000w00w0;+O                      ",
"                                O+$:::1000000wqqw0w073,+O                       ",
"                                 +#=:,3www0ww0ww0747:$$O                        ",
"                                  o+*:300w0000774***#XX                         ",
"                                   o@=:>0004>>::*XOO                            ",
"                                    O+$$*:,;O++OO                               ",
"                                     +O+O@@+                                    ",
"                                      X   X                                     ",
"                                                                                ",
"                                                                                ",
"                                                                                ",
"                                                                                ",
"                                                                                ",
"                                                                                ",
"                                                                                "
};
