/* XPM */
static char *run_right_2_resized[] = {
/* columns rows colors chars-per-pixel */
"60 71 236 2 ",
"   c None",
".  c #000C18",
"X  c #03121E",
"o  c #0B171E",
"O  c #10191E",
"+  c #051523",
"@  c #0C1A25",
"#  c #0E1B29",
"$  c #081727",
"%  c #101C25",
"&  c #111E29",
"*  c #081F34",
"=  c #0F222A",
"-  c #14222B",
";  c #1B242C",
":  c #17292A",
">  c #1C3926",
",  c #0E2335",
"<  c #0C273B",
"1  c #1C2A33",
"2  c #162737",
"3  c #1A3433",
"4  c #0F333B",
"5  c #26282C",
"6  c #203F26",
"7  c #252E36",
"8  c #25323C",
"9  c #273639",
"0  c #343335",
"q  c #3B3535",
"w  c #3B3839",
"e  c #322E33",
"r  c #152F1E",
"t  c #443D3B",
"y  c #463B38",
"u  c #2C571E",
"i  c #34631D",
"p  c #38751D",
"a  c #234526",
"s  c #2D5826",
"d  c #324F34",
"f  c #316224",
"g  c #386B26",
"h  c #3C7823",
"j  c #3B7330",
"k  c #1D4B2C",
"l  c #49433B",
"z  c #525337",
"x  c #43752D",
"c  c #0B2C49",
"v  c #0A3247",
"b  c #0D315B",
"n  c #063858",
"m  c #15334E",
"M  c #283742",
"N  c #333D46",
"B  c #073465",
"V  c #063872",
"C  c #134949",
"Z  c #36424B",
"A  c #374649",
"S  c #395442",
"D  c #3D4853",
"F  c #265842",
"G  c #064876",
"H  c #0A496C",
"J  c #28456B",
"K  c #24755D",
"L  c #414C54",
"P  c #48545C",
"I  c #524E47",
"U  c #664B44",
"Y  c #6A5547",
"T  c #745B4C",
"R  c #785A4B",
"E  c #6B5B57",
"W  c #774D47",
"Q  c #517450",
"!  c #796150",
"~  c #535D66",
"^  c #495565",
"/  c #56616A",
"(  c #59636B",
")  c #5A6468",
"_  c #5F6870",
"`  c #636C73",
"'  c #6D757B",
"]  c #697374",
"[  c #70787F",
"{  c #6C6D68",
"}  c #865C4C",
"|  c #846452",
" . c #8B6955",
".. c #9A725A",
"X. c #8E6552",
"o. c #AA765D",
"O. c #B06C5A",
"+. c #92766C",
"@. c #AC7E63",
"#. c #B57D62",
"$. c #CA7B62",
"%. c #C1725D",
"&. c #3F8E34",
"*. c #42851D",
"=. c #4C9A1E",
"-. c #49961E",
";. c #448722",
":. c #4A9421",
">. c #4D9925",
",. c #529C29",
"<. c #4A9334",
"1. c #5AA232",
"2. c #63AB39",
"3. c #369757",
"4. c #2E8B6C",
"5. c #5B8455",
"6. c #528447",
"7. c #638F57",
"8. c #6FB04F",
"9. c #6D9763",
"0. c #75A466",
"q. c #7CB363",
"w. c #7BC154",
"e. c #80BF5E",
"r. c #B48264",
"t. c #B98567",
"y. c #B38B76",
"u. c #87BB72",
"i. c #83B76D",
"p. c #C48C6A",
"a. c #C58867",
"s. c #D6896A",
"d. c #CD926E",
"f. c #D6956E",
"g. c #DD9B74",
"h. c #D79873",
"j. c #CB9373",
"k. c #E7936D",
"l. c #E39E75",
"z. c #EC9B71",
"x. c #E38A6A",
"c. c #E5A076",
"v. c #EDA376",
"b. c #EDA579",
"n. c #ECA77D",
"m. c #F1A476",
"M. c #F1A679",
"N. c #F3A97B",
"B. c #92CE75",
"V. c #0A448A",
"C. c #084487",
"Z. c #034695",
"A. c #0D5392",
"S. c #126F93",
"D. c #0858B5",
"F. c #0859B8",
"G. c #0B54A5",
"H. c #086FB0",
"J. c #3165A9",
"K. c #315B95",
"L. c #737B82",
"P. c #747786",
"I. c #6A7694",
"U. c #5E76A1",
"Y. c #075EC4",
"T. c #0867CD",
"R. c #0669D5",
"E. c #0576D6",
"W. c #0977C6",
"Q. c #246AC2",
"!. c #1E9390",
"~. c #0C8DB8",
"^. c #22918D",
"/. c #7C8489",
"(. c #0489CB",
"). c #0385D3",
"_. c #0194D6",
"`. c #0391CF",
"'. c #868D93",
"]. c #8B9298",
"[. c #92989D",
"{. c #8A898F",
"}. c #AF948C",
"|. c #969DA3",
" X c #999EA3",
".X c #9BA0A5",
"XX c #9BA2A9",
"oX c #96A0A8",
"OX c #A1A7AB",
"+X c #A9AEB2",
"@X c #AEB2B6",
"#X c #B2B6B9",
"$X c #B5B9BC",
"%X c #B8BBBF",
"&X c #B0ABA9",
"*X c #EEAC83",
"=X c #EFB28C",
"-X c #F0BB9B",
";X c #F3B893",
":X c #F2B38C",
">X c #E0B49A",
",X c #F5C4A6",
"<X c #F4C7AC",
"1X c #F4CCB3",
"2X c #F3D3BF",
"3X c #FBD6BF",
"4X c #E3C4B0",
"5X c #FBC09C",
"6X c #B8BDC1",
"7X c #BDC1C4",
"8X c #C5C8CB",
"9X c #D2D4D6",
"0X c #D5D7D9",
"qX c #D6D8DA",
"wX c #DADBDD",
"eX c #CCCFD1",
"rX c #F8DAC8",
"tX c #EDDACF",
"yX c #FCE0CE",
"uX c #F5E0D4",
"iX c #FAE6D9",
"pX c #E6E1DF",
"aX c #DDDFE0",
"sX c #E7E8E9",
"dX c #EBECED",
"fX c #E3E4E5",
"gX c #F6EAE3",
"hX c #F9EDE6",
"jX c #F7F2EE",
"kX c #FCF2EB",
"lX c #EEEFF0",
"zX c #F5F5F4",
"xX c #F8F7F5",
"cX c #FBFBFC",
"vX c #FAF8F6",
"bX c #EFF0F0",
/* pixels */
"                                      X X X + X X X                         X X + X X X X                               ",
"                                      - - - - - - -                       - - - - - - - -                               ",
"                                    N N Z Z Z Z Z N N                     N Z Z Z Z Z Z N                               ",
"                                  N ^ ` ' L.L.L.' ( P 8                 D ( ' L.L./.L.' ( D                             ",
"                                - N ` ].+X%X6X%X+X].) N $             2 L L..X%X7X7X%XOX/.~ 8 X                         ",
"                              X - Z ' +XwXdXxXzXwX@XL.D 1 #         X 1 L L.#XqXsXbXsX9XOX` Z 2 #                       ",
"                              X - Z [ #XdXcXcXcXbX8X[.` P N       . X - Z ` |.8XaXzXxXfX%X'.( L N                       ",
"                              X - Z L.%XzXcXcXcXzXaX6X|./.` L 1 . . . @ 7 D _ '.@X9XdXjXwX@X[.L./ Z -                   ",
"                              X - Z L.#XsXcXcXcXxXdXfXeX#X]./ 8 $ . + # - 8 N ^ /.@XaXzXxXfX8X+X/.P 1 X                 ",
"                              X - Z L.#XdXcXcXcXzXcXcXxXwX+X' D 7 1 1 7 1 7 8 Z ` OX0XxXcXcXbXeX|._ N 1 -               ",
"                              X - Z [ #XsXcXcXcXvXcXcXcXsX8X[.` ~ ~ ~ / ~ P P ( /.@XwXxXcXcXcXaX#X'._ P Z               ",
"                              X & Z [ #XsXcXcXcXcXcXcXcXzXqX7XXX[.[.[.[.|.[.[. X@XeXsXvXcXcXcXlX9X#X X/./ N #           ",
"                              X - Z L.#XdXcXcXcXvXvXcXzXzXdXaXqX9X9X9X9X9X9X9X0XaXsXlXcXcXcXzXzXdXfX9X+XL.L 2 X         ",
"                              X - Z [ #XsXcXcXcXvXcXzXcXxXcXzXvXxXxXxXcXzXvXxXcXvXvXcXzXcXzXcXzXcXcXbX8X[.( Z 7         ",
"                              X - Z [ #XsXcXcXcXzXcXcXzXcXcXcXcXcXcXcXcXcXcXcXcXcXcXcXcXcXcXzXcXcXcXcXaX#X'.` ~ L       ",
"                              X - Z [ $XsXcXcXcXcXzXzXcXcXcXcXcXcXcXcXcXcXcXcXcXcXcXcXcXcXcXcXcXcXcXcXdXqX6XOX'.( N - X ",
"                              X - Z [ #XsXcXcXcXzXcXzXcXzXcXzXxXxXxXzXzXvXvXxXxXxXxXxXxXxXxXzXvXcXcXxXzXjXdX9XOX' A - X ",
"                              X - Z [ #XsXcXcXcXzXcXcXzXzXzXhXgXgXgXgXiXgXiXgXgXgXgXiXpXgXgXgXiXgXiXgXhXvXcXdX#XL.A - X ",
"                              X - Z L.#XdXcXcXcXcXzXcXcXzXhXuXtX2X2X2X2XrX2X2X2X2X2XrX2X2X2X2X2X2X2XrXrXkXcXdX7XL.Z - X ",
"                              X - Z [ #XsXcXcXcXzXcXcXcXzXiXrX-X-X-X-X-X-X-X-X-X-X-X-X-X-X-X-X-X;X-X,X1XiXkXsX$XL.Z - + ",
"                              X - Z [ #XsXcXcXcXxXcXcXzXgXtX<X=Xb.b.n.*X*X*Xn.*X*X*Xn.*X*Xn.*X*Xn.n.*X-XrXiXaX@XL.Z - X ",
"                              X - Z [ #XsXcXcXcXxXjXdXiXrX1X-X*Xv.v.v.v.M.m.v.v.v.v.v.v.v.v.v.v.v.v.N.;X<XrXtXOX] N - X ",
"                              X - Z [ #XdXcXcXcXzXhXtXtX<X-X=Xb.v.m.m.m.m.m.v.v.v.v.v.v.v.v.v.v.v.m.M.:X5X<X,X}.{ N - + ",
"                              X - Z L.#XsXcXcXcXjXiX2X,X;X*Xb.b.v.v.m.N.b.b.v.v.v.b.v.v.v.v.v.b.v.m.M.N.:X:X*Xy.E 0 & + ",
"                              X - Z L.#XsXcXcXcXxXuX1X;X*Xb.b.b.b.c.g.g.g.l.c.b.b.b.b.b.b.b.b.b.c.g.g.c.b.n.g.@.Y q - + ",
"                              X - Z ' #XdXcXcXcXjXuX<X=Xz.m.m.b.g.d.t.r.r.d.g.b.M.b.b.b.b.N.b.g.d.r.r.t.d.l.h.o.Y 0 - + ",
"                              X - Z L.#XsXcXcXcXbXuX<X=XM.m.m.n.h.r. .R | @.d.c.N.M.b.b.N.N.b.h.r. .T | r.d.h.#.T 0 - $ ",
"                              X & Z ' #XdXcXcXcXjXuX<X=XM.m.m.n.d...I l I | p.c.N.N.M.b.N.N.c.d...I l U  .p.j.@.T 0 & $ ",
"                              X - Z L.#XsXcXcXcXjXuX<X=Xn.v.m.z.a.| y 7 w T t.l.N.*XN.M.N.N.b.p. .l 7 y T #.j.@.T 0 - + ",
"                              X - Z ' #XsXcXcXcXjXuX1X=Xb.z.z.x.#.W y ; 0 T r.l.N.N.M.M.N.N.b.p.| w ; e W O.s.O.Y 0 - + ",
"                              X - Z P.#XsXcXcXcXjXuX<X=Xb.z.k.s.O.W q ; 0 T r.c.N.N.b.b.N.N.b.p.| w ; e U O.%.O.U e = + ",
"                              X - Z L.#XsXcXcXcXjXuX1X=Xb.k.x.$.O.} y 7 t ! t.c.N.N.b.b.N.N.v.p. .I e q W O.%.X.U e - + ",
"                              X - Z [ #XdXcXcXcXzXuX<X=Xm.k.x.$.O.} U l U  .j.l.N.N.b.b.N.N.b.d...Y I I } O.%.X.U e - + ",
"                              X - Z [ #XsXcXcXcXjXuX<X=Xm.z.k.s.$.O.X.|  .@.j.n.N.N.b.b.b.N.v.h.r...} X.O.$.$.O.U e - $ ",
"                              X - Z [ #XsXcXcXcXjXuX<X=Xz.z.z.l.k.s.a.t.p.d.l.l.b.b.b.b.b.N.b.l.h.p.r.a.f.f.d...W 0 & $ ",
"                              X - Z [ #XdXcXcXcXjXuX1X;X*Xb.v.b.*Xl.l.g.l.l.n.M.b.b.b.b.b.b.b.b.c.c.l.l.n.n.g.r.Y 0 & + ",
"                            X X - Z L.$XsXcXcXcXzXiXrX,X-X=X*Xn.M.m.M.M.M.m.M.b.v.v.v.v.v.v.v.v.b.b.M.*X:X;X>Xy.E 0 - + ",
"                          $ X X & Z L.$XdXcXcXcXzXhXuXtX1X-X=Xn.m.m.m.m.m.m.b.z.v.v.v.v.v.v.v.v.m.m.N.:X5X1X4X}.{ N - + ",
"                        # @ + + & Z L.#XsXcXcXcXxXxXbXgXuX2X-X*Xv.v.M.b.b.m.b.b.v.v.b.v.v.v.v.v.v.v.M.;X3XyXtX&X' A - X ",
"                      1 3 1 - @ - Z L.$XdXcXcXcXxXzXcXxXhXrX<X;X*X*X*X*X*X=X*X*X=X*X*X*X=X*X:X*X*X*X=X-X3XhXpX#XL.A - X ",
"                    d d A F k 3 ; N L.%XdXcXcXcXcXcXcXcXcXhXrX1X,X,X,X,X<X,X,X,X,X,X,X,X<X,X,X,X,X,X<X3XiXvXdX%XL.Z & X ",
"                  : A Q Q Q I 9 1 N [ %XbXcXcXcXcXcXcXcXcXkXhXyXrXyXyXyXyXrXyXyXyXyXyXyXyXuXyXyXyXyXyXiXvXcXbX%XL.Z - X ",
"                @ 3 S { 0.0.Q d 8 Z [ $XsXcXcXcXxXcXxXvXxXzXjXhXhXgXhXhXhXhXhXgXgXgXkXhXgXgXgXgXhXiXhXkXvXvXfX#XL.Z , X ",
"                # : S 7.u.B.0.Q S D ' XX8XwXaXwXqXqXqXqXwXqX0X0X9X0XqXqX0X0X0X0XqXqXqXqXqXqXqXqXqXqX0XwXaXwX8XOX] N & + ",
"              $ # : S 7.[.B.q.9.Q ) ] /.[. XOX X.X.X X X|.|.oXoXoXoXXXXXXXXX.X.X.X.X.X.X.X.XoXXXXXXXXXXX.X.X[./.( N - X ",
"              + # 1 S 5.B.B.B.B.0.9.7.Q / ~ ~ ~ ( ~ ~ ~ ~ ~ ~ / / / ( ( ( ( / / / / / / / / / / ( ( ( ( / / ~ ~ L       ",
"              + @ ; S 5.q.B.B.B.B.0.5.P A 8 8 8 9 8 9 9 M 8 9 9 M 9 8 8 8 3 M 8 8 M M 8 8 8 9 8 9 8 8 8 8 8 8 8         ",
"                @ 2 F 6.8.B.B.B.B.q.5.Q d 7 ; & & & 7 0 w w y q 0 5 ; % # < c v v v v v 4 3 > : : = @ = $ @ # #         ",
"                & ; d Q 7.8.w.w.q.8.8.5.Q d d , # 5 y U R } ! R U y 5 % = < H H G G H H C k k k r r o X + X .           ",
"                # : a j <.1.1.2.2.2.8.8.0.5.S 3 ; q U ..r.a.p.r...Y y - < H G S.~.H.S.S.4.K p f u r = $ +               ",
"              $ # - a f ;.>.=.=.=.1.8.e.u.0.Q d 7 l ! #.f.l.l.f.r.} I 2 n G H.~.(.`.`.~.!.4.&.*.i > : @ #               ",
"              $ # : > f *.-.=.=.=.1.2.8.e.8.6.d s z ! ..r.t.a.r...E D b G S.H.`._._._.~.!.3.<.*.i a : @                 ",
"              # @ : > f h -.=.-.-.,.1.8.8.8.<.x g z z Y R ! R R E P J V.G.H.H._._._._.~.!.3.,.*.i a : $                 ",
"              # # : a f *.=.=.=.=.>.,.,.,.,.,.*.h g z d q q q q N J A.G.H.W.(._.`._._.~.^.3.&.;.i a : #                 ",
"                # : a s h *.*.=.:.:.:.=.=.-.-.*.*.j s 4 3 * , , m V G.Y.R.E.).(.).`.`.~.^.4.&.x u k = # #               ",
"                $ : > s f p x ;.:.=.=.=.=.*.*.p g k C n n B B B C.Z.F.T.R.E.E.).).).(.(.~.^.4.K d 3 : @ @               ",
"                    > > a s f h :.=.=.=.>.*.p u a C B C.Z.Z.Z.Z.G.D.Y.R.R.R.R.E.E.E.E.W.W.H.J.S.J v - % % % &           ",
"                      : : > s g ;.:.=.=.:.*.i a 3 m G G.F.F.Y.F.F.Y.Y.T.R.R.T.T.T.T.T.T.W.Q.H.G.G m , & % # & &         ",
"                        = : a f h *.*.*.*.x d d A D K.J.Q.Q.F.F.D.F.D.D.D.D.F.F.D.D.D.D.F.F.F.G.C.B c , , # & &         ",
"                          : > a f f f f f f z Y E ` I.U.U.U.J.K.V.V.V.V.V.V.V.V.V.V.V.V.V.V.V.V.C.G V B c , & %         ",
"                            > > a > 6 a a d Y  .#.y.}.}.}.P.^ B b b b b b b b b b b b b b b b B V V.Z.V.B m & &         ",
"                              : - - = = 5 l ! @.d.g.h.*Xy. .P M , * , , - , 2 , 2 , , , - , 2 c G G.D.G.V b - %         ",
"                                # # $ $ : t E ..t.p.a.$.o.} l 5 @ + @ % % % % % & % % % % O # m J K.J.J.J m - @         ",
"      cXcX                        $ + $ & 0 U T | | | } W z q ; @ o % O     O O     O O o o # 7 L I.I.P.^ M - #         ",
"cXxXcXzXcXzXzX                              w t t t t y q e ; - # @                     X @ = 0 I +.}.+.) N & %         ",
"cXzXzXcXzXcXcXcX                              ; ; 1 7 3 8 1 ; - - #                       $ - 0 Y y.j.t.! t ; +         ",
"zXvXcXzXzXcXzXcX                              $ - 8 Z ^ ^ L N 2 #                           - q T r.g.a.X.t ;           ",
"vXvXzXcXcXzXcXzXzXcX                              ^ L.].]./.(                                                           ",
"cXzXcXzXzXcXzXcXcXzXcX                              6XeXeX7X                                                            ",
"zXcXzXcXcXzXcXzXzXcXzX                              zXxXzXzX                                                            ",
"cXzXzXzXcXzXzXcXcXzXcX                              cXcXcXcX                                                            "
};
