/* XPM */
static char *run_right_3_resized[] = {
/* columns rows colors chars-per-pixel */
"60 60 233 2 ",
"   c None",
".  c #000B19",
"X  c #04131F",
"o  c #0B171D",
"O  c #101A1F",
"+  c #031523",
"@  c #0B1A26",
"#  c #0E1D29",
"$  c #061724",
"%  c #111C25",
"&  c #101E29",
"*  c #15222C",
"=  c #1C252D",
"-  c #172B2C",
";  c #1B3129",
":  c #0F253A",
">  c #1C2A34",
",  c #182A37",
"<  c #1C303D",
"1  c #1F3232",
"2  c #0F2026",
"3  c #23282C",
"4  c #232B33",
"5  c #2C2E33",
"6  c #222E39",
"7  c #24333B",
"8  c #273536",
"9  c #343436",
"0  c #3C3738",
"q  c #332E33",
"w  c #443D3C",
"e  c #443937",
"r  c #29521C",
"t  c #3E7B1A",
"y  c #2E4F32",
"u  c #367538",
"i  c #4C423E",
"p  c #46403F",
"a  c #5D493F",
"s  c #565C3F",
"d  c #0D2B4A",
"f  c #0A314A",
"g  c #043A56",
"h  c #073957",
"j  c #123051",
"k  c #2A3944",
"l  c #333D46",
"z  c #0A3B74",
"x  c #0C3767",
"c  c #154551",
"v  c #2A4C45",
"b  c #37424B",
"n  c #3A5643",
"m  c #3D4851",
"M  c #265C5B",
"N  c #154F72",
"B  c #3C516F",
"V  c #2D726F",
"C  c #3F654D",
"Z  c #464546",
"A  c #584943",
"S  c #434D56",
"D  c #46515A",
"F  c #4A555D",
"G  c #555A4C",
"H  c #685348",
"J  c #755A4C",
"K  c #71544C",
"L  c #476549",
"P  c #4B7355",
"I  c #746650",
"U  c #4D5762",
"Y  c #535C64",
"T  c #535A66",
"R  c #58636A",
"E  c #407F70",
"W  c #687171",
"Q  c #85574C",
"!  c #865E50",
"~  c #8A6855",
"^  c #956D57",
"/  c #9A725A",
"(  c #82624E",
")  c #B86D5B",
"_  c #A5785E",
"`  c #B3745D",
"'  c #8D7973",
"]  c #AA7C61",
"[  c #B77A61",
"{  c #C2775F",
"}  c #C07861",
"|  c #3D963D",
" . c #439535",
".. c #488F2F",
"X. c #359154",
"o. c #339967",
"O. c #2A9372",
"+. c #518E4E",
"@. c #658657",
"#. c #65AB58",
"$. c #528868",
"%. c #6C9863",
"&. c #729D63",
"*. c #6C8E65",
"=. c #50AB70",
"-. c #77A667",
";. c #77BC7C",
":. c #77C073",
">. c #BA8565",
",. c #B68466",
"<. c #A88269",
"1. c #86B970",
"2. c #BC835D",
"3. c #C38B6A",
"4. c #C98968",
"5. c #CD916D",
"6. c #D1946E",
"7. c #D99569",
"8. c #CC9676",
"9. c #D99A73",
"0. c #DA8568",
"q. c #E7926C",
"w. c #E39E75",
"e. c #EB9D73",
"r. c #E38D6C",
"t. c #E5A076",
"y. c #EDA376",
"u. c #EDA579",
"i. c #EEA87E",
"p. c #E5A178",
"a. c #F2A576",
"s. c #F1A77A",
"d. c #F3A97B",
"f. c #FAAD7E",
"g. c #FFB07F",
"h. c #95CD7A",
"j. c #074587",
"k. c #015684",
"l. c #0E4B92",
"z. c #03638D",
"x. c #006392",
"c. c #196F89",
"v. c #247D86",
"b. c #075ABA",
"n. c #1055A8",
"m. c #1368B8",
"M. c #077CB5",
"N. c #0870B1",
"B. c #325A92",
"V. c #4F6F94",
"C. c #757D83",
"Z. c #6579A5",
"A. c #025CC9",
"S. c #0968CA",
"D. c #056BD1",
"F. c #027AD4",
"G. c #166FC2",
"H. c #236AC3",
"J. c #16929E",
"K. c #269486",
"L. c #1785A8",
"P. c #0786BD",
"I. c #1692AF",
"U. c #2E96B0",
"Y. c #27A2B6",
"T. c #39A68F",
"R. c #7B8288",
"E. c #6E8C94",
"W. c #51AF92",
"Q. c #73B881",
"!. c #0184C1",
"~. c #058CCA",
"^. c #0591CB",
"/. c #0590C6",
"(. c #018FD2",
"). c #0187D3",
"_. c #0191D4",
"`. c #199BC0",
"'. c #83898B",
"]. c #868C91",
"[. c #8D9599",
"{. c #92999E",
"}. c #978985",
"|. c #959CA2",
" X c #9FA5A9",
".X c #9BA0A3",
"XX c #A2A6AB",
"oX c #A4A9AD",
"OX c #A3ABB1",
"+X c #B3B7BA",
"@X c #AEB2B6",
"#X c #A68A86",
"$X c #D8A788",
"%X c #EFAD85",
"&X c #EFB18B",
"*X c #FFB481",
"=X c #F6B388",
"-X c #F0BB9B",
";X c #F3B894",
":X c #F2B48E",
">X c #F1BFA0",
",X c #D4B5A2",
"<X c #F4C8AC",
"1X c #F2CCB5",
"2X c #F9CEB4",
"3X c #F3CFB9",
"4X c #F7D3BD",
"5X c #E8C0A8",
"6X c #BABEC1",
"7X c #BCC0C3",
"8X c #CED1D3",
"9X c #D6D8D9",
"0X c #C9CACB",
"qX c #F4D6C4",
"wX c #F8DBCA",
"eX c #F5DED0",
"rX c #F6E7DE",
"tX c #FBE9DD",
"yX c #F8E3D7",
"uX c #DDDFE1",
"iX c #DFE1E3",
"pX c #E3E4E4",
"aX c #EAEAEB",
"sX c #E7E8E9",
"dX c #F6EBE3",
"fX c #F7EFEA",
"gX c #FCEEE4",
"hX c #FAF2ED",
"jX c #F4F3F3",
"kX c #FAF8F7",
"lX c #FBFBFB",
"zX c #F8F6F6",
"xX c #EFEFF0",
/* pixels */
"                                            X X X X X X                     X X X . X X                                 ",
"                                            > > > > > >                     > > > > > >                                 ",
"                                            D Y U Y F F m                 m F Y Y Y U D b                               ",
"                                        > D C.{. XXX.X].R 7             7 R ]. XOXoX|.R.T >                             ",
"                                      X > Y |.8XaXxXiX6XR.m &         @ 7 R XX9XsXaX9X@XW l @                           ",
"                                      X > Y XXsXlXlXlX9X|.W S l     . X 6 F ].7XpXzXxX8X{.R m k                         ",
"                                      + > Y oXaXlXlXlXsX0XXX'.R 7 X . X * 7 F R.oX9XzXsX7X|.R.U 7                       ",
"                                      X > Y XXpXlXlXlXjXxXuX6X].S * X @ * > 6 b W 6XaXzXjXuX@XC.l #                     ",
"                                      X , Y  XpXlXlXzXlXlXlXiXXXW m l b m b b B C.+XaXlXlXlX8X{.R b 7                   ",
"                                      X > Y  XpXlXlXzXlXlXlXsX0X.X].R.].].R.R.].oX8XjXlXlXlXpX7X|.C.Y k                 ",
"                                      X > R  XpXlXlXlXlXlXlXjXsX9X8X8X8X9X8X8X8XuXsXzXlXlXlXjXsX9X@XC.l #               ",
"                                      + , Y  XpXlXlXlXlXzXzXzXzXzXlXlXlXzXlXzXzXzXlXzXzXlXlXlXlXlX9X{.R l 7             ",
"                                      + > R  XpXlXlXzXzXzXzXlXlXlXlXlXlXlXlXlXlXlXlXlXlXlXlXlXlXlXaX7X{.W R b           ",
"                                      X > Y  XpXlXlXlXlXlXzXzXlXlXlXlXlXlXlXlXlXlXlXzXlXzXlXlXlXlXjXpX8X+XR.S *         ",
"                                      X > Y XXpXlXlXzXzXlXzXzXjXhXfXfXfXhXhXxXfXfXhXxXhXfXfXfXdXhXhXzXkX9X[.S * +       ",
"                                      X > Y  XsXlXlXlXzXzXlXzXdXeXqXqXqXqXqXqXqXqXqXqXqXqXqXqXqXqXyXhXlXpX|.D * .       ",
"                                      $ > Y XXpXlXlXlXzXlXzXhXeX<X-X-X-X-X-X-X-X-X-X-X-X-X-X-X-X-X<XyXhX9X{.D * +       ",
"                                      X , R  XpXlXlXlXzXzXjXrX3X;X%Xp.u.i.i.i.i.i.i.i.i.i.i.u.y.d.;X4XtX9X[.S * X       ",
"                                      X > Y  XpXlXlXlXhXfXeX3X>X%Xy.y.a.a.a.u.y.y.y.y.y.y.y.y.y.a.=X<X4X5X'.S * X       ",
"                                      X , Y  XpXlXlXlXfXeX<X-X&Xi.y.a.a.a.a.u.y.y.y.y.y.y.y.y.d.d.f.;X-X$X' Z * +       ",
"                                      X 4 Y  XpXlXlXzXrX3X;X%Xt.u.u.p.p.w.w.w.i.y.u.i.u.u.u.u.p.w.t.i.i.6.~ p * +       ",
"                                      X > Y  XpXlXlXzXrX1X%Xy.y.u.e.6.>.[ 3.9.i.u.u.u.u.u.u.9.5.,.,.6.w.6.~ w * +       ",
"                                      $ > Y XXpXlXlXlXrX1X&Xy.a.s.9.,.I J ~ 3.w.d.a.u.a.d.u.5./ J J _ 7.5.~ w * +       ",
"                                      X > Y XXpXlXlXzXrX1X&Xy.a.u.8.^ A 0 H ] w.d.d.u.i.d.u.>.J p i ~ 3.5.^ w * +       ",
"                                      X , Y  XpXlXlXlXrX1X&Xu.a.e.{ ! e 3 A ] 9.d.d.y.d.f.p.,.H 5 5 K [ 4.~ e & +       ",
"                                      + > Y  XpXlXlXkXrX1X&Xu.q.q.{ Q q = i ] 9.d.d.u.d.d.p.,.H 4 4 H ) { Q e & +       ",
"                                      X > R  XsXlXlXlXrX3X:Xe.q.q.{ K 0 5 H ] w.d.d.u.i.f.p.,.K 9 9 K ) ) Q e & @       ",
"                                      X , Y  XpXlXlXlXrX1X:Xe.q.{ { Q A i J [ w.d.d.y.i.d.y.3.~ a i Q ) ) Q e & $       ",
"                                      X > Y XXpXlXlXzXrX1X&Xe.q.r.0.[ / ~ <.5.p.i.i.y.i.a.u.9.,.^ ^ [ { { Q e & $       ",
"                                      + > Y  XpXlXlXzXrX1X&Xu.e.t.w.7.5.6.6.w.u.y.a.u.a.u.u.w.9.6.6.w.e.4.! w & +       ",
"                                      X > Y XXpXlXlXzXdXqX-X&Xi.u.u.y.u.a.a.u.y.u.y.u.y.u.u.a.e.u.%X*X:X8.' i * +       ",
"                                      X > Y  XsXlXlXzXfXyXqX<X;X%Xa.a.a.d.a.y.y.y.y.y.y.y.e.a.a.a.=X-X2X,X' Z * +       ",
"                                      + > Y  XpXlXlXlXzXhXdXeX<X&Xu.y.y.y.a.u.y.y.y.y.u.y.y.y.y.s.=X2XwX0X}.S * +       ",
"                                      X > Y  XpXlXlXlXlXlXlXdXqX>X&X%X&X=X%X&X&X&X&X&X&X&X&X%X%X=X-XwXgX9X{.D * X       ",
"                                    . . > T oXaXlXlXlXlXlXlXkXtXqX2X2X2X2X2X2X2X2X2X2X2X2X2X2X2X2XwXgXkXpX|.D * X       ",
"                                @ @ + X = T oXaXlXlXlXlXlXlXlXhXgXtXtXtXtXtXtXtXtXtXtXtXtXtXtXtXtXgXkXlXiX|.D - X       ",
"                                > > - 2 8 R .X8XaXaXpXpXpXpXpXpXpXpXpXpXiXiXpXpXpXpXpXpXpXpXpXpXpXpXsXsX0X].m * X       ",
"                              y n L C L L *.R.|.oXoXXXXXXXXXXXXXXXXXXXoXoXoXoXoXXXoXoXoXXXXXXXXXOXOXOXoX[.R k 2 X       ",
"                          @ 6 L +.*.&.-.-.*.W R Y T Y Y Y Y Y Y T Y Y Y Y R Y Y Y Y Y Y Y Y Y T R R Y Y U k > # +       ",
"                          @ > L %.h.h.h.1.%.L v > < < < 4 6 7 7 7 7 7 < < > < < < 6 < < < 7 7 < > > 6 7 7 > > = =       ",
"                          @ 6 L &.h.h.1.%.P M c g g g g h h h v v v c c g g g g g g g c v y y > 2 2 5 e i a A i Z 9     ",
"                          @ 1 P 1.h.1.@.L M N k.x.x.x.z.x.x.c.K.$.$.$.V z.z.x.z.z.z.z.v.O.W P y - 3 i J / _ _ / J w = + ",
"                          # 1 L 1.1.&.L y c z.M.~.!.P.P.F.P.I.T.Q.;.W.U.P.!.P.!.!.!.!.U.W.1.-.L 1 9 K ,.7.y.t.5.^ i = + ",
"                          % 6 y P &.@.G Z U V.U.U.L.N.M.M.~.`.W.;.:.W.Y._._._._.(.(.^.Y.W.;.#.L 8 0 J 5.f.*Xf.9./ i = $ ",
"                          # - 8 n L I I I <.}.{.E.V.N N N.P.I.T.=.#.=.Y.^._._._._._.^.Y.=.#.+.u 1 0 ! 6.f.*X*Xw./ i = $ ",
"                          & 2 * - 8 G / 8.p.$X8.<.R k c k.M.I.K.+. .o.J.~.(._._._._./.J.o. ...r ; 9 J >.u.f.d.9.^ Z = $ ",
"                          2 # $ $ 3 A _ p.g.g.a.2.K 7 f z.P.P.O.| | o.J./.(.(.^.^._./.J.X...t r ; 5 H / >.3.3.] I i = + ",
"                          # # @ $ = H ,.i.*Xg.a.2.H 5 f N P.I.O.| | o.J./._._.^._._./.J.X...t r ; 3 l A J J J K A 0     ",
"                          & # @ @ > A _ t.f.f.p.[ H q f k.M.I.O.| | o.L./.(.(.(.(._.~.J.o. .t r > * = 5 9 9 9 5 9       ",
"                          & # @ @ = A ~ >.6.6.3.^ a 5 f k.N.P.K.X.X.O.L.~.).).).).).~.L.O.X.u y - # # @ # # # #         ",
"lX                          # # @ * 9 A J ~ ~ I H 0 3 j k.N.G.L.V v.c.M.F.F.F.F.F.F.F.G.N.K.V v , # @ $ + + +           ",
"zXzXlX                        # * * 3 5 0 0 0 0 q 3 & d j.b.D.S.N.N.G.F.D.D.D.S.D.D.S.S.m.m.l.c : 2 @                   ",
"lXzXzX                          # # * # * * # 2 # % & d z n.b.A.A.A.A.A.b.m.H.H.S.H.A.b.A.b.l.x : @ %                   ",
"zXlXzXlXlX                        # @ @ @ $ $ @ @ % # : j z l.b.A.A.b.l.l.B.V.Z.V.B.j.j.j.j.z j : % %                   ",
"zXzXlXzXzXzX                        # # # # # # # # & & : d x l.A.A.l.z j T ' #X' U x d d d d : * # %                   ",
"zXlXzXzXzXlX                          # # * # # & # & # % & d j.n.n.l.j k A [ 8.] H 4 # # # * & & &                     ",
"zXlXzXlXlX                              * @ * & # & & @ O % > D Z.V.T j 3 e / q.2.H 3 o X O % % &                       ",
"                          lXlX                          $ @ 5 Y ' }.W l = 5                                             ",
"                          zXzXlX                        + @ 9 I ,.3.^ e & &                                             ",
"                        lXzXzXzX                        + & 0 ( 5.0.) i : +                                             "
};
