/* XPM */
static char *run_right_1_resized[] = {
/* columns rows colors chars-per-pixel */
"60 80 240 2 ",
"   c None",
".  c #000C1B",
"X  c #03121E",
"o  c #0B151C",
"O  c #101A1F",
"+  c #041624",
"@  c #091524",
"#  c #0C1924",
"$  c #0C1729",
"%  c #0E1D29",
"&  c #051825",
"*  c #101B23",
"=  c #111F2A",
"-  c #020D21",
";  c #14212C",
":  c #192E2A",
">  c #182A28",
",  c #1C3629",
"<  c #0D253D",
"1  c #0D2637",
"2  c #162938",
"3  c #193339",
"4  c #0E2027",
"5  c #22262D",
"6  c #2C2D32",
"7  c #232C35",
"8  c #223634",
"9  c #2E3134",
"0  c #27333C",
"q  c #303134",
"w  c #363932",
"e  c #28392B",
"r  c #473B3A",
"t  c #533C3C",
"y  c #386E1C",
"u  c #1D4A37",
"i  c #254825",
"p  c #2A5325",
"a  c #324C35",
"s  c #366725",
"d  c #3C7823",
"f  c #2D632B",
"g  c #27481E",
"h  c #49413D",
"j  c #57453E",
"k  c #4D5734",
"l  c #664D3F",
"z  c #457832",
"x  c #0D2A42",
"c  c #083859",
"v  c #10314D",
"b  c #2F3B45",
"n  c #2A3744",
"m  c #303C46",
"M  c #0C3564",
"N  c #073669",
"B  c #0B3A71",
"V  c #203E65",
"C  c #0F4554",
"Z  c #39464C",
"A  c #3B5943",
"S  c #324B52",
"D  c #034263",
"F  c #0B4E73",
"G  c #26446D",
"H  c #2B756C",
"J  c #5C4B43",
"K  c #554845",
"L  c #405E45",
"P  c #434A58",
"I  c #4B555E",
"U  c #465059",
"Y  c #5C534C",
"T  c #624C42",
"R  c #685548",
"E  c #745A4D",
"W  c #6C5A55",
"Q  c #466548",
"!  c #526E53",
"~  c #6B6951",
"^  c #525C64",
"/  c #5D666E",
"(  c #5C656D",
")  c #5D6A73",
"_  c #636C73",
"`  c #686A75",
"'  c #667071",
"]  c #8E5A4F",
"[  c #8B6854",
"{  c #946C57",
"}  c #9D735A",
"|  c #987159",
" . c #83624F",
".. c #A4775C",
"X. c #BB735D",
"o. c #B76D5B",
"O. c #907467",
"+. c #A87B61",
"@. c #B57D62",
"#. c #CC7E63",
"$. c #43871D",
"%. c #4C9A1E",
"&. c #49961D",
"*. c #458923",
"=. c #4B9521",
"-. c #4D9922",
";. c #539C2A",
":. c #499636",
">. c #58A22E",
",. c #63AA3B",
"<. c #349659",
"1. c #31916E",
"2. c #5A8B4D",
"3. c #658D5B",
"4. c #67945B",
"5. c #79B958",
"6. c #6BAD48",
"7. c #678C62",
"8. c #79AF6A",
"9. c #509868",
"0. c #5BA15A",
"q. c #B68465",
"w. c #BE8766",
"e. c #B1897A",
"r. c #87BC72",
"t. c #80B768",
"y. c #9B8679",
"u. c #C88869",
"i. c #CE926D",
"p. c #D3956F",
"a. c #D8966B",
"s. c #DB9972",
"d. c #D49773",
"f. c #D78B6B",
"g. c #E8956E",
"h. c #E29E75",
"j. c #EA9C73",
"k. c #E48C6A",
"l. c #EDA375",
"z. c #EDA579",
"x. c #E9A379",
"c. c #F1A476",
"v. c #F2A779",
"b. c #F4A97C",
"n. c #FAAD7E",
"m. c #8DC474",
"M. c #96D277",
"N. c #82C55D",
"B. c #084488",
"V. c #084893",
"C. c #10528D",
"Z. c #016392",
"A. c #0D688E",
"S. c #095AB9",
"D. c #0758B8",
"F. c #0B54A5",
"G. c #0773B3",
"H. c #2662AD",
"J. c #2B5590",
"K. c #435C83",
"L. c #757D84",
"P. c #787F85",
"I. c #687290",
"U. c #4F73A9",
"Y. c #617AA9",
"T. c #075DC3",
"R. c #0768CC",
"E. c #0667D4",
"W. c #0576D6",
"Q. c #0F71C6",
"!. c #2369C1",
"~. c #877F8B",
"^. c #1E948E",
"/. c #299396",
"(. c #0482BA",
"). c #108FB4",
"_. c #33A7A7",
"`. c #7B8389",
"'. c #5BB48E",
"]. c #048BCC",
"[. c #0390CD",
"{. c #0286D4",
"}. c #0192D4",
"|. c #0094DA",
" X c #1599C2",
".X c #93999D",
"XX c #91979C",
"oX c #909091",
"OX c #979CA1",
"+X c #9FA5A9",
"@X c #9DA2A6",
"#X c #A1A7AC",
"$X c #A4A9AE",
"%X c #A2AAB0",
"&X c #A9AEB2",
"*X c #ACB1B4",
"=X c #B2B6B9",
"-X c #A58E91",
";X c #EEAD85",
":X c #EFAF88",
">X c #EFB08A",
",X c #F0B18B",
"<X c #FBB486",
"1X c #F4BC9A",
"2X c #F1B18A",
"3X c #F0BFA1",
"4X c #D3AA94",
"5X c #A1DC82",
"6X c #A8E586",
"7X c #F1C3A6",
"8X c #F2C5A8",
"9X c #F7C9AD",
"0X c #F4CCB3",
"qX c #F5D2BC",
"wX c #E8C0A7",
"eX c #BEC2C5",
"rX c #C3C6C9",
"tX c #D9DADC",
"yX c #D6D8DA",
"uX c #D3CFCD",
"iX c #F4DACA",
"pX c #F7D9C7",
"aX c #F5DED0",
"sX c #FCE0CF",
"dX c #FCE2D1",
"fX c #F7E5D9",
"gX c #DDDFE0",
"hX c #DEE0E2",
"jX c #EBECEC",
"kX c #E3E5E6",
"lX c #F6ECE6",
"zX c #F7EEE9",
"xX c #FBEEE6",
"cX c #FAF2EC",
"vX c #F6F6F6",
"bX c #F9F7F5",
"nX c #FBFBFB",
"mX c #F9F8F7",
"MX c #EFEFF0",
"NX c #BBBFC2",
/* pixels */
"                                X X X X X X X X                         X X X X X X X X                                 ",
"                                4 ; = = = = = =                         = = ; = = = = =                                 ",
"                                n m m m m m m n                         m m b m m m n n                                 ",
"                              P ^ / _ _ _ _ ( ^ Z                     U ( _ ` ' ' _ ( ^ Z                               ",
"                          = n ^ L..X+X$X$X+X.XL.^ 7 X             = m ( `.@X%X&X%X#XXXL.I 0 X                           ",
"                        X ; m / XXrXyXkXkXyXrX.X/ m = +         X = b / .XeXyXkXkXyXrXXX/ m ; +                         ",
"                        X 4 m _ #XyXnXnXnXnXtX*XP.I m 0         X = n ^ XX=XtXMXmXvXgX=XP.I m 3                         ",
"                        X ; b _ #XkXnXnXnXnXjXrX@XL./ I Z     . . @ 3 Z _ XX=XyXkXvXjXrX@XL./ U Z                       ",
"                        X = m _ #XtXnXnXnXnXvXtXrX*X.XL.I 7 X . . o ; 0 Z ( P.$XuXjXMXkXuX&XXXL.I 7 X                   ",
"                        X = m _ #XyXnXnXnXnXvXvXjXtXeX.X_ b ; # # = ; ; 2 b I `.=XgXvXvXMXgXeX.X/ m ; +                 ",
"                        X ; b _ +XyXnXnXnXnXnXnXnXnXtX=X`.I m 0 0 b b n 0 b I `.=XhXvXnXnXnXgX*XL.I m 7                 ",
"                        X ; n _ #XyXnXnXnXnXnXnXnXnXjXrX@XL._ / _ _ _ / ( ( L.OXeXkXnXnXnXnXjXrX@XL./ U Z               ",
"                        X = n _ #XyXvXnXnXvXnXnXnXnXvXtXrX*X#X+X+X#X#X+X@X+X&XeXyXjXnXnXnXnXMXhXrX*X.XL.I 7 +           ",
"                        X = m _ #XyXmXnXnXnXvXnXnXnXvXjXkXtXtXyXtXtXtXtXyXyXgXkXjXvXvXnXnXnXvXvXjXgXeXXX/ b = +         ",
"                        X = m _ +XyXnXnXnXnXvXnXnXvXnXnXnXnXnXnXmXnXmXnXnXnXnXnXnXmXmXvXnXmXmXnXnXmXtX*XL.I m 0         ",
"                        X = m _ #XyXnXnXnXnXnXvXvXvXnXnXnXnXnXnXnXnXnXnXnXnXnXnXnXnXnXnXnXnXnXnXnXnXjXrX@XL._ I Z       ",
"                        X = m _ #XyXnXnXnXnXnXmXvXnXnXnXnXnXnXnXnXnXnXnXnXnXnXnXnXnXnXnXnXnXnXnXnXnXvXhXrX*X.X' ( b ; X ",
"                        X ; n _ #XyXnXnXnXnXmXmXvXnXvXvXmXnXmXmXnXnXnXnXnXnXnXnXnXvXvXvXvXmXnXnXnXnXvXvXjXgXrXXX( b = X ",
"                        X = m _ #XyXbXnXnXnXmXmXvXvXvXvXvXzXlXlXzXlXlXlXzXlXlXlXzXzXlXzXzXzXlXlXlXlXzXbXnXcXyX+X_ b ; X ",
"                        X = m _ @XyXbXnXnXmXmXnXnXnXvXzXfXaXiXiXiXiXiXiXiXiXiXiXiXiXiXiXiXiXiXiXiXiXdXxXnXnXhX$X_ b = X ",
"                        X ; 0 _ #XyXnXnXnXnXnXnXnXnXvXfXiX0X8X7X7X7X7X8X7X7X8X7XwX7X8X7X7X7X7X7X7X7X0XsXcXbXgX$X) Z = X ",
"                        X ; m _ +XyXnXnXnXnXvXnXnXvXlXaX0X1X:X;X;X,X>X>X>X>X>X>X>X>X>X>X,X;X>X;X;X:X1X0XdXxXyX#X) b = X ",
"                        X ; m _ #XyXmXnXnXnXvXvXMXzXaXpX3X;Xz.l.c.z.z.z.z.z.z.z.z.z.x.z.z.z.z.z.l.z.,X9XpXfXuX#X_ n = X ",
"                        X = n _ #XyXnXnXnXnXvXzXfXiXiX7X,X;Xl.l.c.c.v.c.l.l.l.l.l.l.l.z.l.l.l.l.l.c.;X1X0XqXwX.X/ 0 = X ",
"                        X = m _ #XyXbXnXnXnXcXfXiX0X3X,X:Xz.z.c.c.v.c.v.c.z.l.l.l.l.l.z.l.l.l.c.c.c.<X<X1X7X4Xy.W 9 = + ",
"                        X ; m _ @XyXnXnXnXnXcXaX0X1X:X;Xz.z.z.z.l.z.z.z.z.z.z.z.z.z.x.z.z.z.z.x.z.z.z.;X<X>Xd.O.Y 9 = + ",
"                        X 4 n _ +XtXnXnXnXnXlXiX8X>Xx.x.z.z.x.h.s.p.p.s.s.l.z.z.z.z.z.z.z.z.x.h.s.p.s.s.x.x.p.| T 9 = + ",
"                        X ; m _ +XtXnXnXnXnXlXpX7X;Xl.l.c.x.h.i.q.+.+.q.i.h.z.v.b.z.z.z.v.z.h.i.q.....w.p.h.i.} R 9 = + ",
"                        X = m _ #XyXnXnXnXnXlXiX7X;Xz.c.c.z.s.q.{ W E { q.s.x.b.v.z.z.v.b.x.d.q.{ E E | u.p.i.} Y 9 = + ",
"                        X ; n _ #XyXnXnXnXnXlXiX7X:Xz.c.c.z.i.+.R r K R ..p.x.b.b.v.z.b.b.x.p.+.E h h E +.p.i.} T 9 = + ",
"                        X = b _ #XyXnXnXnXnXzXiX7X>Xz.v.c.j.i.{ K 9 6 J | i.z.b.b.z.z.b.b.z.i.{ J 9 9 J } u.u...T 9 = + ",
"                        X = b _ @XyXvXnXnXnXlXiX7X>Xx.j.j.g.#. .r 5 : K | i.z.b.b.z.z.b.b.z.i.{ K 5 > K { @.#.| J 9 = + ",
"                        X = m _ +XtXnXnXnXbXlXiX3X2Xv.j.k.k.o.] r 5 5 K { i.x.b.b.z.z.b.b.z.i.{ K 7 : t ] X.X.] l 6 = @ ",
"                        X 4 m _ +XyXnXnXnXnXzXiX9X2Xj.g.k.#.o.] t 6 9 K | i.z.b.b.z.z.b.b.z.i.| K 9 6 t ] o.X.] t 6 = @ ",
"                        X = m _ +XyXnXnXnXnXlXpX3X,Xj.g.k.#.o.] T r r W } p.z.b.v.z.z.b.b.x.d...R t r T ] X.o.] l 6 * $ ",
"                        X ; 0 _ #XtXnXnXnXnXlXiX3X,Xj.g.k.k.#...] E E { q.s.z.v.b.z.z.v.b.z.s.q.{ E E [ o.#.X.] t 6 = $ ",
"                        X = m _ +XyXbXnXnXnXzXiX3X:Xj.j.g.g.f.u.q.....q.p.h.z.z.v.z.z.v.v.z.h.i.q.+...@.f.f.u.[ J 6 = + ",
"                        X = m _ +XyXnXnXnXmXzXiX0X,Xz.j.j.l.h.s.a.p.p.s.h.x.z.z.z.z.z.z.z.x.l.h.s.p.a.h.j.h.u.O.J 6 = @ ",
"                        X = m _ +XtXnXnXnXnXzXaX0X1X>X;Xz.z.z.z.x.x.z.z.z.z.z.z.l.x.z.z.z.z.z.l.z.z.z.;X:X;Xd.+.T 9 = + ",
"                        X = m _ +XtXnXnXnXmXMXfXiX0X3X,X;Xv.z.c.v.b.v.c.c.z.z.z.l.l.l.l.l.z.l.c.c.v.;X<X1X7X4Xy.W n = + ",
"                        + = m _ +XyXnXnXnXnXbXzXfXiXpX7X,X;Xz.l.c.v.c.c.z.l.l.l.l.l.l.l.z.l.l.l.c.c.n.1X0XqXwX-X( 0 % X ",
"                        X = n _ #XtXnXnXnXnXmXmXvXcXfXqX3X>Xz.l.l.c.z.c.z.c.c.z.z.z.z.z.z.z.z.z.l.v.<X9XsXfXuX@X/ m ; X ",
"                        X ; b _ #XtXnXnXnXnXbXnXnXnXcXaX0X1X>X:X,X>X>X>X,X,X,X,X>X>X>X>X>X,X>X;X;X,X1XqXfXlXtX+X_ m ; X ",
"                      . . $ n _ #XtXnXnXnXnXnXnXnXnXbXxXiXqX9X9X9X9X9X9X9X9X9X9X9X9X9X9X9X9X9X9X9X9XqXdXcXbXhX$X` m ; X ",
"                  @ @ . . + n _ $XhXnXnXnXnXnXnXnXnXnXcXxXfXsXsXdXdXdXdXdXdXsXdXdXdXdXsXdXdXdXsXsXsXfXcXnXnXhX$X_ b ; X ",
"                = = $ # + 4 Z _ #XtXnXnXnXnXnXnXvXvXnXvXzXzXzXlXlXlXlXzXlXlXlXlXlXzXlXlXlXlXlXlXlXlXcXcXnXvXtX#X_ b = X ",
"                8 8 8 : , 8 A _ .XrXtXhXgXtXtXtXyXyXyXgXyXtXtXtXtXtXtXtXyXtXtXtXtXtXtXtXyXtXyXtXtXtXgXgXhXyXeXXX/ b % X ",
"              a A L L Q A Q ! ' oXOX#X%X+X+X+X+X+X+X+X+X#X+X%X%X#X$X%X$X$X#X#X$X#X$X#X#X#X#X#X%X%X$X$X$X$X+XXXL.( n ; X ",
"          = 8 A ! 2.7.7.4.7.7.7.7._ _ _ ) ) _ ) ) ) ) ) _ ) ) _ _ ) _ _ ' _ _ ) _ _ _ ) _ ) _ ` ' ' _ ' ` _ ( ^ P       ",
"        @ = 8 A ! 8.r.m.m.r.8.7.! Z m b b m m m b b b b m m m m Z n Z Z b 0 Z Z Z n Z Z m m m m Z n n S b b b b         ",
"        @ = 8 L 7.r.5X5X5X5Xr.7.L 9 = * 5 6 9 9 q q 9 9 q q 6 5 ; ; 4 1 1 < 1 x 1 1 v 3 3 0 8 : : ; = % = = ; =         ",
"        @ = 8 L 4.m.5X6X6X5Xr.4.A 5 * 5 q j J T T j J J J j t w 5 4 & 1 x D C D D D C C S A Z u : 4 + X X X X           ",
"        @ = 8 Q 4.m.6X6X6X5Xm.7.A 3 = q T  .} } } { { } } {  .l w > = x D Z.Z.Z.Z.Z.F 1.9.! 3.Q a ; # + .               ",
"        @ = 8 L 4.m.M.M.5XM.r.3.A 8 6 j  .q.i.d.p.i.p.p.a.i.q. .j 6 x c F G.G.(.(.(.G._.'.'.8.! A 8 % @                 ",
"        @ = 8 Q 3.8.m.M.M.m.t.4.Q a Z R [ q.i.s.j.x.z.c.v.l.p.} T 9 x D A.G.[.}.}.[. X_.'.m.8.2.L 8 ; @                 ",
"        @ = 3 a 2.6.N.N.N.5.5.4.2.! Q ~ ~ | q.u.s.v.<X<X<Xn.a...l 8 3 D Z.(.}.|.|.|. X_.'.8.6.2.a e = @                 ",
"        @ % , a z 2.6.,.6.,.6.6.4.4.4.~ ~ Y E | u.l.n.<X<X;Xd...l 6 1 D Z.(.[.|.|.[.)._.9.0.:.:.a , ; @                 ",
"        $ 4 : p z *.;.;.>.>.,.6.5.t.8.3.L A h E ..p.z.n.n.;Xf.{ l 9 < N Z.(.[.}.|.[.)./.<.0.:.d p : = $                 ",
"        $ = > i s $.=.%.%.-.;.,.5.N.5.4.Q a w j [ q.f.a.k.i.@.O.K n c F Z.(.[.|.}.[.).^.<.:.&.f i : ; @                 ",
"        $ = : i s $.&.&.&.&.-.,.6.5.5.4.z p a k R [ | ....} [ W S G F C.G.].[.}.}.[.).^.<.:.$.y g > ; $                 ",
"        $ ; : i s $.%.&.&.&.-.>.,.,.,.:.*.d y k k j l l T T K P G C.Z.F.G.[.[.[.}.[.).^.<.:.$.y g : 4 *                 ",
"        @ ; : i s *.&.-.%.&.-.-.;.;.;.-.:.*.d s p a 6 q 6 6 n G C.F.R.R.W.(.[.[.}.[.).^.<.:.$.d g : = $                 ",
"        $ % > i p d $.=.=.=.-.-.-.-.&.&.$.*.d f u 2 2 < < < v B V.S.R.W.W.{.[.{.[.].(.^.1.<.d f i > = #                 ",
"          % > i p s s d *.&.-.%.%.&.&.$.d y f u C c N N N N B V.D.T.W.W.W.W.{.{.W.{.].G.^.H H S u > * * #               ",
"              , , i p f d &.-.%.%.%.&.d y g u C D F V.V.V.V.V.D.S.E.E.E.W.W.W.W.W.W.Q.Q.H.G.H F C > * * * * =           ",
"                > : i p s $.&.%.%.-.$.y p e 3 c B.F.T.T.T.D.T.T.T.R.E.E.R.E.R.R.E.R.E.Q.Q.T.H.C.c 2 $ $ * $ = =         ",
"                # = : g f d $.*.*.$.d s a w b G J.H.!.Q.T.S.D.D.D.D.S.S.S.D.D.S.S.S.S.S.T.S.F.V.M v < < ; % = $         ",
"                  X O , g s s y s s s k k J W ( I.Y.U.U.H.F.V.V.V.V.V.V.V.V.V.B.V.V.V.V.V.V.V.B.F B N x x = = =         ",
"                      > , i i i i i a k E | +.-X-X-XoXI.( G B N M M M M M M M M M M M M M B B B B.V.B.N v 1 $ *         ",
"                        : : > : > , e J [ q.d.s.d.4Xe.O.I n < < < < < x x < x < x 2 < < 2 x v B V.F.F.B.M < % *         ",
"                        3 > $ & + = 9 J { q.p.a.d.i.q. .K 6 $ $ @ = = * = = = = = = = * * = x V J.H.H.C.V x = #         ",
"                        P ; @ - . # 6 K ~ | ......} [ R r 5 $ @ . o o o o O O * * * O o o * 7 V K.U.U.K.S 2 = O         ",
"nXmXmXmXvXnXnXnXnXnXMXrX              r K J R R R T j r 6 > * o X                     o o = 7 P ` ~.~.I.P 7 % @         ",
"mXmXmXmXnXvXvXnXnXnXvXkX                6 9 6 q q q 9 5 > ; = =                         + = 6 K { @.@.O.Y 6 = +         ",
"nXvXvXmXvXnXnXvXmXmXnXvX                = = = = = = = $ = = = 0                         + = 9 R +.i.i.O.R 6 = +         ",
"vXvXnXmXvXnXvXvXmXvXnXnXnX                + + + @ + @ + + $ 0 ^                           = q R ..a.f.+.R q =           ",
"nXvXnXvXvXnXvXnXvXnXvXnXnXnXnX                                  uXjXnX                                                  ",
"nXvXvXnXnXvXnXvXnXvXnXvXnXnXnXnX                                kXvXnXnX                                                ",
"vXnXvXvXvXvXnXvXvXvXvXnXmXmXmXvX                                mXvXvXmX                                                ",
"nXvXvXnXvXnXvXnXmXnXnXvXmXmXnXvX                                nXnXnXnX                                                "
};
