/* XPM */
static char *texture_resized[] = {
/* columns rows colors chars-per-pixel */
"66 79 7 1 ",
"  c #6E5967",
". c #AD707B",
"X c #B77F83",
"o c #C39490",
"O c #926475",
"+ c #D1B1A5",
"@ c #DCCABE",
/* pixels */
"  .............................. ...............................  ",
"  ...XoooooooooooooooooooooooooX XooooooooooooooooooooooooooX...  ",
"  O..ooooooooooooooooooXoXoXXo   ooooooooooooooooooooo..o.o...    ",
"    .XXoXXooooooooo+oo++o++ooooX   o.oooooooooooooo+o+++o++oo..O  ",
"  ...oo++o+ooooooooooooooooooooo oooooooooooooooooooooooooooo...  ",
"  O..Xooooooooooooooooooooooooo. .ooooooooooooooooooooooooooX..O  ",
"                                                                  ",
"oooo@@@+o++ooo.  .ooo+o++@@@+o++ooooooooooooooo.  .ooo+o+@@++o++oo",
"ooooooooooooooo  ooooooooooooooooooooooooooooooo  oooooooooooooooo",
"ooooooooooooooo  Xoooooooooooooooooooooooooooooo  oooooooooooooooo",
"ooooooooooooooX   o  o..o.oooooooooooooooooooooo  oooooooooooooooo",
"oooooo.o..o      Xoo++o+oooooooooooooooooooooooo  oooooooooooooooo",
"oooooooo+o++ooo  ooooooooooooooooooooooooooooooo  oooooooooooooooo",
"oooooooooooooo.  .ooooooooooooooooooooooooooooo.  .ooooooooooooooo",
"                                                                  ",
"  O..Xooo++o+ooo@@@++oooooooooo. .ooo+o+++@@+++oooooooooooooX..O  ",
"  ...ooooooooooooooooooooooooooo oooooooooooooooooooooooooooo...  ",
"  ...oooooooooooooooo...oo.oo    oooooooooooooooooooooooooooo...  ",
"  O..ooooooooooooooooooooo++o+oX oooooooooooooooooooooooooooo..O  ",
"    .XXoXooooooooooooooooooooooo oooooooooooooooooooooo...o.o     ",
"  ...oo+o++ooooooooooooooooooooo ooooooooooooooooooooo+o++o+o...  ",
"  O..Xooooooooooooooooooooooooo. .ooooooooooooooooooooooooooX..O  ",
"                                                                  ",
"ooo+@+ooo++ooo.  .oooo+++++oo+ooooooooooooooooo.  .oooo+@@+oo+oooo",
"ooooooooooooooo  ooooooooooooooooooooooooooooooo  oooooooooooooooo",
"ooooooooooooooo  oooooooooooooooooooo.o.....oo    oooooooooooooooo",
"ooooooooooooooo  ooooooooooooooooooooo+o+++ooooX  oooooooooooooooo",
"ooooooooooooooo  ooooooooooooooooooooooooooooooo  oooooooooooooooo",
"ooooooooooooooo  ooooooooooooooooooooooooooooooo  oooooooooooooooo",
"oooooooooooooo.  .ooooooooooooooooooooooooooooo.  .ooooooooooooooo",
"                                                                  ",
"  O..Xoo++@@@@+oo+++ooooooooooo. .ooo+o+++++ooooooooooooooooX..O  ",
"  ...ooooooooooooooooooooooooooo oooooooooooooooooooooooooooo...  ",
"  ...ooooooooooooooooooo..o.oo   ooooooooooooooooooooo.o..o...    ",
"  ...oooooooooooooooooo+o++ooooX oooooooooooooooooooooo+o++oo..O  ",
"  ...ooooooooooooooooooooooooooo oooooooooooooooooooooooooooo...  ",
"  ...ooooooooooooooooooooooooooo oooooooooooooooooooooooooooo...  ",
"  O..Xooooooooooooooooooooooooo. .ooooooooooooooooooooooooooX..O  ",
"                                                                  ",
"o++@@@@++o+ooo.  .ooo+o++@@@+o++ooooooooooooooo.  .ooo+o+@@@+o++oo",
"ooooooooooooooo  ooooooooooooooooooooooooooooooo  oooooooooooooooo",
"ooooooooooooooo  ooooooooooooooooooooooooooooooo  oooooooooooooooo",
"ooooooooooooooX  ooooooooooooooooooooooooooooooX  oooooooooooooooo",
"ooooooo.o..o     oooooooooooooooooooooo..o.o      oooooooooooooooo",
"oooooooo+o++ooo  oooooooooooooooooooooooo+o++ooo  oooooooooooooooo",
"oooooooooooooo.  .ooooooooooooooooooooooooooooo.  .ooooooooooooooo",
"                                                                  ",
"  O..Xoo+@@@+o+oooooooooooooooo. .ooo+o+++@@@++oooooooooooooX..O  ",
"  ...ooooooooooooooooooooooooooo oooooooooooooooooooooooooooo...  ",
"  ...oooooooooooooooo...oo.oo    oooooooooooooooooooo...oo..o     ",
"  ...ooooooooooooooooo+ooo++o+oX ooooooooooooooooooo+o+++o++o..O  ",
"  ...ooooooooooooooooooooooooooo oooooooooooooooooooooooooooo...  ",
"  ...ooooooooooooooooooooooooooo oooooooooooooooooooooooooooo...  ",
"  O..Xooooooooooooooooooooooooo. .ooooooooooooooooooooooooooX..O  ",
"                                                                  ",
"o+++@@@+o+oooo.  .oooo++@@+oo+ooooooooooooooooo.  .ooo+@@@+oo++ooo",
"ooooooooooooooo  ooooooooooooooooooooooooooooooo  oooooooooooooooo",
"ooooooooooooooo  oooooooooooooooooooo.o.....oo    oooooooooooooooo",
"ooooooooooooooo  ooooooooooooooooooooo+o+++ooooX  oooooooooooooooo",
"ooooooooooooooo  ooooooooooooooooooooooooooooooo  oooooooooooooooo",
"ooooooooooooooo  ooooooooooooooooooooooooooooooo  oooooooooooooooo",
"oooooooooooooo.  .ooooooooooooooooooooooooooooo.  .ooooooooooooooo",
"                                                                  ",
"  O..Xoo@@@+ooo+o++oooooooooooo. .ooo+o+@@@+ooooooooooooooooX..O  ",
"  ...ooooooooooooooooooooooooooo oooooooooooooooooooooooooooo...  ",
"  ...ooooooooooooooooooo..o.oo   oooooooooooooooooooooooooooo...  ",
"     o..o.ooooooooooooooo++ooooX Xooooooooooooooooooooooooooo...  ",
"  ...oo+++o++ooooooooooooooooooo     o..o.ooooooooooooooooooo...  ",
"  ...ooooooooooooooooooooooooooo oooooo+++o+ooooooooooooooooo...  ",
"  O..Xooooooooooooooooooooooooo. .ooooooooooooooooooooooooooX..O  ",
"                                                                  ",
"@@++o+oooooooo.  .ooo+o++@@@+o++ooooooooooooooo.  .oo+o+@@@@+o++oo",
"ooooooooooooooo  ooooooooooooooooooooooooooooooo  oooooooooooooooo",
"ooooooooooooooo  Xoooooooooooooooooooooooooooooo  oooooooooooooooo",
"ooooooooooooooX    o..o.oooooooooooooooooooooooo  oooooooooooooooo",
"oooooo.o..o      Xoo++o++ooooooooooooooooooooooo  oooooooooooooooo",
"oooooooo+o++ooo  ooooooooooooooooooooooooooooooo  oooooooooooooooo",
"oooooooooooooo.  .ooooooooooooooooooooooooooooo.  .ooooooooooooooo",
"                                                                  "
};
