/* XPM */
static char *warrior_resized[] = {
/* columns rows colors chars-per-pixel */
"80 80 151 2 ",
"   c None",
".  c #171614",
"X  c #181716",
"o  c #1A1917",
"O  c #1B1A18",
"+  c #201915",
"@  c #221E1B",
"#  c #2A1F1A",
"$  c #23211E",
"%  c #2D211C",
"&  c #33241D",
"*  c #1E1F20",
"=  c #1E2121",
"-  c #242422",
";  c #292623",
":  c #2D2925",
">  c #232729",
",  c #262B2E",
"<  c #2E2D2B",
"1  c #312C27",
"2  c #3C2B23",
"3  c #322E29",
"4  c #35312B",
"5  c #3A342D",
"6  c #272D30",
"7  c #2A2F32",
"8  c #2F3235",
"9  c #333333",
"0  c #3A3731",
"q  c #3D3933",
"w  c #37393C",
"e  c #393A3D",
"r  c #413D36",
"t  c #423F39",
"y  c #46423B",
"u  c #4B463E",
"i  c #4D483F",
"p  c #3A3D40",
"a  c #424447",
"s  c #4A4742",
"d  c #4E4941",
"f  c #44464A",
"g  c #45484D",
"h  c #4A4A4B",
"j  c #534D44",
"k  c #524F49",
"l  c #575147",
"z  c #56524B",
"x  c #5B544A",
"c  c #5E584D",
"v  c #464B51",
"b  c #494D53",
"n  c #4D5055",
"m  c #4F565E",
"M  c #5A5650",
"N  c #51555B",
"B  c #54585E",
"V  c #615A4F",
"C  c #645D52",
"Z  c #676054",
"A  c #696155",
"S  c #67635C",
"D  c #6E6559",
"F  c #71675A",
"G  c #736B5D",
"H  c #555B62",
"J  c #595D64",
"K  c #5D636B",
"L  c #5F6771",
"P  c #616264",
"I  c #62666E",
"U  c #776E60",
"Y  c #786F61",
"T  c #746F68",
"R  c #7C7364",
"E  c #7C756A",
"W  c #606770",
"Q  c #646A72",
"!  c #6A6E74",
"~  c #676F79",
"^  c #686F79",
"/  c #6C727C",
"(  c #7F7A72",
")  c #807667",
"_  c #817768",
"`  c #857A6B",
"'  c #897E6E",
"]  c #8D8272",
"[  c #8E897F",
"{  c #918675",
"}  c #948877",
"|  c #968A79",
" . c #998D7B",
".. c #9D917E",
"X. c #707781",
"o. c #747A85",
"O. c #787F89",
"+. c #7C838E",
"@. c #7F8691",
"#. c #979187",
"$. c #9F9280",
"%. c #9B948A",
"&. c #808793",
"*. c #828995",
"=. c #8A8E93",
"-. c #868D99",
";. c #888F9B",
":. c #8B919C",
">. c #92969C",
",. c #A29583",
"<. c #A69986",
"1. c #A89B87",
"2. c #A09789",
"3. c #A1988B",
"4. c #AA9D89",
"5. c #AFA18D",
"6. c #B1A38E",
"7. c #A9A297",
"8. c #ABA498",
"9. c #B4A691",
"0. c #B7A893",
"q. c #BAAB96",
"w. c #B2AA9E",
"e. c #BDAE99",
"r. c #BFB09A",
"t. c #8E95A0",
"y. c #939AA5",
"u. c #A2A6AD",
"i. c #B4ADA1",
"p. c #BAB2A6",
"a. c #ACB1B9",
"s. c #B0B5BD",
"d. c #C0B19B",
"f. c #C4B6A1",
"g. c #C7BAA6",
"h. c #C4BBAD",
"j. c #C9BCA9",
"k. c #C6BEB1",
"l. c #CCC1AF",
"z. c #CDC3B3",
"x. c #CFC6B9",
"c. c #D1C7B6",
"v. c #D3C8B7",
"b. c #D0C7B9",
"n. c #D5CBBD",
"m. c #B9BCC2",
"M. c #C2C6CC",
"N. c #C4C8CE",
"B. c #D7CEC0",
"V. c #D8CFC1",
"C. c #DAD1C3",
/* pixels */
"                                                                    O O O O O O O o O o O                                                                       ",
"                                                    O O O o O O O O X O X X X X o X o o o O O O O O O O                                                         ",
"                                          O O O O O O o X o O @ $ $ : 4 4 5 0 q q 0 5 4 : $ $ O o o o o O O O O                                                 ",
"                                    @ O * O o o O $ 4 y l c D Y E ] ] ] ] } } } } } { ] ] ] E U A c i 0 - O o o O O O o                                         ",
"                              O O O o @ + 1 y x U ] ]  . . . . . . ... ... . . . .....,.5.9.0.q.r.r.q.9.2.] S t - o o o O o                                     ",
"                          O O o o + 5 i Y ]  . . .|  . . . . . . . . . . . ...,.5.9.0.e.q.d.d.r.r.r.r.r.r.f.g.h.8.( s ; o o o O O                               ",
"                      O O O o ; i U {  . . . . . . . .|  . . . . . .....1.9.q.r.r.r.r.r.r.r.r.r.r.r.r.r.r.r.r.r.j.v.b.w.E e $ o o O O                           ",
"                    O o o $ j )  . . . . . . . . . . . . . . . ...1.9.q.r.r.r.r.r.r.r.r.r.r.r.r.q.1.$.5.r.r.r.r.r.r.g.v.V.z.%.z ; X O O O                       ",
"                  O O O q R |  . . .{ { }  . . . . .........5.9.q.r.r.r.r.r.r.r.r.r.r.r.r.r.r.r.6. .| ..q.d.e.d.r.r.r.d.g.n.C.n.7.C ; o o o o                   ",
"                O o O d ]  ...|  .] R ]  . . . . .......9.q.r.r.r.r.r.r.r.r.r.r.r.r.r.r.r.r.r.r.d.<...<.q.d.d.d.d.d.r.r.r.d.l.n.C.n.8.M = o O O                 ",
"              O O O j } .. .|  .} ] ] ]  . . .....9.q.r.r.r.r.r.r.r.r.r.r.r.r.r.r.r.r.r.r.r.r.r.d.e.e.d.e.e.d.q.<...9.d.d.r.r.f.x.C.C.n.#.q o o O               ",
"            o O O u }  .|  . .} R ] ]  . . ...9.r.d.r.r.r.r.r.r.r.r.r.r.r.r.r.r.r.r.r.r.r.r.r.r.d.e.1.` A V F l z l j E 5.d.r.r.r.z.B.C.C.p.z o O O             ",
"          O O O r ]  . . .| ..] Y Y ] ....6.e.r.r.r.r.r.r.r.r.r.r.r.r.r.r.0.q.r.r.r.r.r.r.r.r.r.0.) y 5 5 2 5 4 j ,. .Z c } q.r.r.r.j.n.C.C.k.M o O O           ",
"        O O o 3 ` .. . .| ..| { Y ] { ..q.r.r.r.r.r.r.r.r.r.r.r.r.r.r.r.9.....q.r.r.r.r.r.r.r.d...r 2 5 5 5 5 5 0  .d.r.4...q.r.r.e.r.j.n.B.C.k.d O O O         ",
"        o o $ G ..|  . . .| ` | | } ..q.d.d.r.r.r.r.r.r.r.r.r.r.r.r.r.r.q.1.5.r.r.r.r.r.r.r.r.r.6.i 5 5 5 5 5 i ` q.d.q.,...9.d.r.r.r.r.j.n.C.C.i.4 X O o       ",
"      O O O l |  . . .| ..G G .. ...e.r.r.r.r.r.r.r.r.r.r.r.r.r.r.r.r.r.r.r.q.r.r.r.r.r.r.r.r.r.d...Z u r i F ..q.6. .5.1.<.q.d.r.r.r.r.e.j.B.B.C.#.O o O       ",
"    o O o 4 '  . . . . .} i E .. ...r.r.r.r.r.r.d.d.d.r.r.r.r.r.d.e.d.d.d.e.d.d.d.d.d.d.d.d.e.d.d.d.d.9.1.6.......Z 5 F d.d.d.e.e.d.r.r.e.d.j.C.C.x.z X O O     ",
"    O O O C ..|  . . . .E r ]  ...0.d.r.r.r.r.r.d.d.r.r.r.r.r.r.e.d.e.e.e.d.e.e.d.d.d.d.d.e.9.6.1... .| { ] ) G ) G V ] 9.d.d.d.d.r.r.r.r.r.d.c.C.C.%.$ o o     ",
"    O o 4 ]  .|  . . . .V y  . . .6.r.r.r.r.r.r.r...5.d.r.r.r.r.d.d.e.d.d.d.d.d.0.4.| _ F C x l l l V V V V V V V V C V A G ) } 5.e.r.r.r.r.e.d.v.C.b.d o O O   ",
"  O O o x .. . . . . .| y x  . . .5.r.r.r.r.r.d.5.U 6.e.r.r.r.r.d.e.d.e.d.e.9. .' ) _ ] | ,.4.6.0.q.q.d.e.d.d.d.d.d.d.0.0.6.4.1.4.q.r.r.r.r.d.e.g.B.C.( o O o   ",
"  O O $ _ ..| |  . . .{ 4 C  . . ...q.r.r.r.d.5.x ] 5.....r.r.r.e.d.d.e.d.e.0.0.0.e.d.d.d.d.d.d.d.d.e.d.d.e.d.e.d.e.d.d.d.d.d.d.d.r.r.r.r.r.r.r.r.z.C.8.; O O   ",
"O O o 0 } | | .. . . .] : x .. . . .5.r.r.r.0.x C q... ...q.r.r.d.e.e.d.e.d.d.d.d.d.d.d.e.d.d.d.d.d.d.e.e.d.d.e.e.d.e.e.d.d.d.d.r.d.r.r.e.r.r.r.e.f.n.k.0 o O   ",
"O O o j | ....|  . . .] 3 < D ]  . ...6.r.d.R y 5.d.6...6.d.r.r.e.d.d.e.d.e.e.d.e.d.d.e.e.d.e.d.d.e.d.d.d.d.e.d.d.d.e.d.d.e.e.d.r.e.r.r.d.r.r.r.r.r.z.x.a o o   ",
"O o O Z ..| ..|  . . . .x O O 4 Z {  ...0.d.G D d.r.r.r.r.d.r.r.d.e.d.d.e.d.d.e.d.d.e.d.d.e.d.d.d.d.d.e.e.d.d.e.d.e.d.d.e.d.e.d.r.r.r.r.r.r.r.r.r.r.j.v.s . o   ",
"O O O G | | .. . . . .| } D & o O i {  ...r.5.Y r.r.r.r.r.r.r.r.e.d.d.d.e.e.d.e.d.e.d.d.e.d.d.e.d.d.e.d.e.d.e.d.e.d.d.d.d.d.d.d.r.r.r.r.r.r.r.r.r.r.f.z.y X O   ",
"O o @ R .. .| .. . .} _ `  .R : o O V  . ...q...9.r.r.r.r.r.r.r.d.d.d.d.d.d.e.d.e.d.e.d.d.e.e.d.e.e.d.e.d.e.d.d.d.e.d.d.5.5.9.d.r.r.r.r.r.r.r.d.r.r.d.j.q o O   ",
"O o @ R .. . . .| ..} R ) }  .x O o 0 }  . .5.0.0.d.r.r.r.r.q.9.6.9.9.0.e.d.d.d.e.d.d.d.e.d.e.d.d.e.e.d.d.e.d.e.d.q.d.6. . ...d.r.r.r.r.r.r.r.r.r.r.d.p.< X O   ",
"O O O G |  . .} ] ] | | }  ...c O o 5 }  . . .9.r.r.r.r.q.5... . . . .,.<.6.9.e.d.e.d.d.d.d.d.d.d.d.d.d.e.d.e.d.d.d.d.9. . ...d.r.r.r.e.0.5.4.2.,.1.p.%.O O O   ",
"o O O A .. . .' U Y {  . . .} y o o i .. . . ...r.r.d.r..... . . . . . .|  . .,.4.9.e.4.} } ..4.6.q.e.e.d.d.d.q.0.4... . .1.0.d.r.r.9.<... . . . . .4.T o O o   ",
"o O o c .. . .] R R {  . . .U $ o $ R  . . . . .6.r.d.9. ... . .| _ U R ` {  . . . ...1.,.} G V x x x V V V V x V A )  .0.d.d.d.9.<... . . . . . . .,.a o o O   ",
"O O o i  ... . .{ {  . . .] 5 X O l  . . . . . .5.r.r... . . .U q - O O ; 5 l U { |  . . .,.6.q.6.<. .} { |  .<.6.q.d.d.d.d.q.1... . . .{ ` R R ` $.#.O o O     ",
"  O o 5 ] |  . . . . . .} i X O i {  . . . . . ...r.0... . .A $ o O O O o X O @ 4 l ` |  . . .1.e.d.d.d.d.d.d.d.d.d.d.d.d.9... . .} Y j 0 ; - O ; d k X X O     ",
"  O O % `  . . . . . . .F O $ c {  . . . . . . ...q.9...| ' : X O $ 3 3 : $ + o X O % i R }  . .,.q.r.r.r.r.r.r.r.r.r.r.5.....} D q @ o o o O O O X O . X       ",
"  O O O V  . . . . . . .y X x  . . . . . .|  . ...e.9. ...c O O @ 4 5 5 5 5 4 : @ O o o $ u R  ...1.r.r.r.r.r.r.r.r.q.5.|  .R q @ O o O $ ; 3 3 @ O O . .       ",
"  O X X q }  . . . . .} y O R  .} |  . . . . . .<.d.9...{ q X O ; 5 5 5 5 5 5 5 5 1 $ O o o ; l ] ..9.r.r.r.r.r.r.r.5.| ] l $ o o + $ 3 5 5 5 5 ; O O o .       ",
"    O X $ G  . . . . . .x O G ] R ] |  . . . . .5.d.q...] 4 X O : 5 5 5 5 5 5 5 5 5 5 1 $ O o o r ] 5.r.r.r.r.r.r.9...` r O O O @ 1 r 5 5 5 5 5 3 O O o         ",
"    O O X y ]  . . . . .` : u R U ) |  . . . ...6.d.q...] 5 X O 3 5 5 5 5 5 5 5 5 5 5 5 5 : O O o x 5.r.r.r.r.r.r.<.] 0 o O O : 5 5 5 5 5 5 5 5 1 O o o         ",
"      O O O V  . . . . ...F : A _ {  . . . .| ..e.e.e.<.} y X O % 5 5 5 5 5 5 5 5 5 5 5 4 3 $ o o q 9.r.r.r.r.r.q...l o O @ 3 5 5 5 5 5 5 5 5 5 % O o o         ",
"      O O O $ G  . . .|  . .D y R  . . . . . .5.e.d.d.6...V O O @ 4 5 5 5 5 5 5 5 5 5 3 : % $ o o d q.r.r.5.9.r.r. .4 o O : 5 5 5 5 5 5 5 5 5 3 $ O O o         ",
"        X O O : U  . . .|  . .E i U |  . . ...e.d.e.d.q...' : X O - 4 4 4 4 5 2 1 1 : : ; $ o o $ ' r.r.r.q.r.r.r.$.4 o O % 5 4 5 5 5 5 5 3 1 ; O O O X         ",
"          O O O ; D  . . . . . .} F F ]  . .5.d.d.d.e.d.6. .c O O O $ : : : : : : ; ; $ @ O o $ D q.r.r.q.0.q.9.0.q.c O O O $ : : 3 1 1 1 ; - + O o o .         ",
"            O O O $ l ` .. . .|  . .] R ] ..q.d.e.d.d.e.e.1.{ y O O o $ $ % % - $ $ O O o O 3 R q.r.q.` i r u r 0 c ] l O o O O @ $ $ $ @ @ O X o o . o         ",
"              O O O O : c ] .. . . . . .} ..d.r.d.e.e.d.d.e.1.{ i $ o o O O o X o o o O 4 V 2.r.r.d.R $ O $ O $ $ o r $.R 0 @ o X o O o O X O - 4 o o O         ",
"                  O O O O : x ]  . . . ...9.d.r.e.d.d.e.e.d.e.6...R i : $ O $ $ ; 5 j R ,.e.d.r.r.9.q X 1 0 : 4 5 * o R r.5.` l 0 : - ; : 0 x ' G O O O         ",
"                      O O o O : i R |  . .5.d.d.d.e.d.d.d.d.e.d.e.9.1. .' E R ]  .1.9.d.d.d.r.r.d.5.1 o 4 0 4 q 0 $ o D r.d.d.r.9.<.....,.6.0.d.C o O o         ",
"                          O O O O $ y F ] ..6.e.e.d.d.e.e.e.d.e.r.r.d.e.e.e.e.d.r.r.r.r.r.d.r.r.r.q.u X % 4 % : 4 @ * ] d.r.r.r.d.d.r.q.d.d.d.4.0 o O           ",
"                              O @ O X O 3 x ) ..1.9.q.e.d.d.e.q.1.6.r.r.e.d.d.e.r.r.r.r.r.r.r.r.r.r. .5 O @ O O O $ A q.r.r.r.r.r.d.q.4.e.d.0.c o O O           ",
"                                  O O O X + $ y C ] ..,.5.e.d.5.| ,.e.r.d.e.e.d.r.r.r.r.r.r.r.r.r.r.r.<.R D R R R | q.r.r.r.0.r.r.e.r.e.d.0.A O O O             ",
"                                        O O O o O : i G | <.e.e.0.0.r.r.r.r.r.r.r.r.r.r.r.r.r.r.r.r.r.r.d.d.d.d.d.d.r.r.r.r.5.0.r.4.0.d.5.c O O O               ",
"                                            o O O o o @ l | 9.d.r.r.r.r.r.r.r.r.r.r.r.r.r.r.r.r.r.r.r.r.r.r.r.r.d.d.r.r.r.r.r.r.r.q.r.$.y O o O                 ",
"                                              O o O O o - ' 6.r.r.r.r.e.r.r.r.r.r.r.r.r.r.r.r.r.r.r.r.r.r.r.r.r.d.r.r.r.r.r.r.r.r.d.9.y X O O                   ",
"                                              O O O o O O Z 9.r.r.r.] 5.r.r.r.r.r.r.r.r.q.r.r.r.r.r.r.r.0.r.r.r.r.r.r.r.r.r.r.r.d.d.,.: o o                     ",
"                                            O o o O O O o 0 ..9.9...r ] r.r.r.r.r.r.r.} 5.q.r.r.r.r.r.e.R 5.d.r.r.r.r.r.0...r.r.d.d.' O o O                     ",
"                                          O o o @ = O o O O l }  .D $ R e.r.r.r.r.r...i 5.r.r.r.r.r.r.<.0 { d.r.r.r.r.r.} c q.r.d.0.j o O O                     ",
"                                        O O * p H H v 8 O o @ 0 q ; o 4 l { 0.0.0.<.D 4 <.r.r.r.r.r.0.` * F d.r.r.r.r.5.x : ..r.9.R $ O O                       ",
"                                      O O O w m m K ^ ^ 7 O O X X X o X o ; C ] D y : O y F 5.0.0.} Z q O q E <.9.5.D q $ O 3 l d $ o o O                       ",
"                                      O O e K K L ~ K L g O O : q u $ O O o O * $ X o X X O q Z c : o o O O O 0 l r O X O O O o o o O O                         ",
"                                    O O $ v m m K L +./ b O O 3 y x i ; O O O O O O > > $ O X O O o O O o o O o O X O X O   O O O O                             ",
"                                    O O g Q L L ~ ~ K K m O o O O o O O o O o O O O * = O O O O O o o $ 0 i : O O X O O O                                       ",
"                                  O O O 8 p g K ~ X.+.+.n O O r Z x u q 3 : ; $ $ $ O O O O O O O - y D ] ` y o O O O O                                         ",
"                                  * O O o o $ 8 a a w w 8 O O * q u i i i j l V A i O O l D * O @ - : : $ O o o O o O O                                         ",
"                                    O O o = : $ X X X * O O O O o X o O O O O O O O o o C $.: o $ - : 4 q i l ; o $ $ o O                                       ",
"                                  O o $ i U c q D z * X O = * O o O * 3 t u u y r q $ o 4 i @ o : q i l z l y - o $ l ; O O O                                   ",
"                                O o o $ l i = X D 0.i X O O = = * O O O $ ; : 4 < ; O o o o O o O o o o o o o O O O C  .x O O O                                 ",
"                                O O < @ X X O o $ l 4 o O o O > 6 > > * * O O O O O O O 0 R j o O = > = > > > 8 @ O - r < o O o O                               ",
"                              O o 5 ] E D A F y $ o o 4 D 4 o $ 7 7 6 6 6 6 , , 6 = O o q D u o O 6 7 7 , , , 7 O O O $ : q : o O                               ",
"                              O O i ,.<.1.,.1...' G D A } y o O > , , , 6 7 6 7 6 > * o O O o O O - * * + + O @ - O O y x y $ o o                               ",
"                              O o y ..,.,.,.,.,.5.q.r. .u - o O O @ O O O O O * O O O O O + + @ @ @ @ # & # % r 2 O O o O o O O O                               ",
"                              O O $ D <.,.,.,...9.1.] 9.$.< o O & & # # # % & % ; & # & & & & & & & & & & 2 % % @ O 3 Z c 3 o O                                 ",
"                                O o $ Z ..<.,.] E 0.E y Z 4 o O # & & # # & & & % 2 & & 2 # % # # # @ + + - 9 f ; o 5 R u O O O                                 ",
"                                  O o O q D ] ..x x 1.] ; o O ; - $ @ @ @ @ + @ + + @ @ O $ : 9 0 w f N I / u.m.h X O O o O                                     ",
"                                    O O o O ; y u $ 5 y $ o 9 B B Q / Q I I K K J Q ! Q ~ / ;.u.t.&.-.-.t.:.s.M.P X o O                                         ",
"                                        O O O O o o o o = w H K K X.;.;.;.-.-.;.;.:.y.;.;.;.;.:.;.-.-.*.;.>.a.M.! X O                                           ",
"                                        O O 8 e ; O O < b K K J J I X.+.-.&.&.-.*.&.*.+.o.+.*.;.*.@./ B J Q =.>.0 o O                                           ",
"                                          O O @ O O O O ; w a w < > - 3 f I o.&.O.^ b 9 - < e n B p - $ @ O - ; O O                                             ",
"                                                  O O O O o o X $ q 0 O X O ; w 9 - o o o o X X O O $ t $ X O O o O                                             ",
"                                                  O O + O O o O O O @ O O @ O o X O   O O O O O O O O O O @ # @ O O                                             ",
"                                                  O O o + + + O @ @ @ $ % & # O O     O O O + + + + @ @ # # & @ o O O                                           ",
"                                                  O o O O o O O @ + @ + @ O O O O O   O o O o O O O O O O O O O O O O                                           ",
"                                                    O O O O O o o O o O O O O o O       O O O O O O O O O O O O                                                 "
};
