/* XPM */
static char *w_0_resized[] = {
/* columns rows colors chars-per-pixel */
"80 80 154 2 ",
"   c None",
".  c #161614",
"X  c #181715",
"o  c #1A1917",
"O  c #1C1A18",
"+  c #201916",
"@  c #221E1B",
"#  c #2A1F19",
"$  c #23211E",
"%  c #2D211C",
"&  c #32241D",
"*  c #1F2122",
"=  c #252422",
"-  c #292622",
";  c #2C2925",
":  c #222629",
">  c #262A2D",
",  c #2C2C2A",
"<  c #312C27",
"1  c #3B2A23",
"2  c #322E29",
"3  c #36322C",
"4  c #3A342D",
"5  c #272D30",
"6  c #282E32",
"7  c #2D3235",
"8  c #333333",
"9  c #3A3731",
"0  c #3E3A34",
"q  c #36393C",
"w  c #3B3C3D",
"e  c #423D36",
"r  c #433F38",
"t  c #46413A",
"y  c #4A453D",
"u  c #4D483F",
"i  c #3A3D41",
"p  c #3F4043",
"a  c #3F444A",
"s  c #434445",
"d  c #4E4941",
"f  c #434549",
"g  c #484A4E",
"h  c #534D44",
"j  c #565047",
"k  c #57524A",
"l  c #5B544A",
"z  c #5F584D",
"x  c #4A4D51",
"c  c #4D5055",
"v  c #4E535A",
"b  c #515253",
"n  c #5E5B54",
"m  c #51565D",
"M  c #53585E",
"N  c #5C5D5F",
"B  c #60594F",
"V  c #645D52",
"C  c #685F53",
"Z  c #635F58",
"A  c #676054",
"S  c #6A6256",
"D  c #6D6559",
"F  c #70675B",
"G  c #736A5D",
"H  c #555B62",
"J  c #595D64",
"K  c #5D636B",
"L  c #5F6670",
"P  c #616264",
"I  c #6C6760",
"U  c #6D6861",
"Y  c #61666F",
"T  c #766D60",
"R  c #786F61",
"E  c #7C7364",
"W  c #78736B",
"Q  c #7D786F",
"!  c #616770",
"~  c #636A73",
"^  c #686D76",
"/  c #676E78",
"(  c #696F79",
")  c #6C727C",
"_  c #70767F",
"`  c #807667",
"'  c #817768",
"]  c #847A6B",
"[  c #897E6E",
"{  c #827D74",
"}  c #897F71",
"|  c #8D8272",
" . c #868178",
".. c #8B857C",
"X. c #8E887E",
"o. c #918675",
"O. c #948877",
"+. c #968A79",
"@. c #998D7B",
"#. c #9D917E",
"$. c #6F7681",
"%. c #717680",
"&. c #757B85",
"*. c #7D7F84",
"=. c #787F89",
"-. c #7E848F",
";. c #7F8692",
":. c #808284",
">. c #918A80",
",. c #9F9280",
"<. c #9B9489",
"1. c #9F998F",
"2. c #808792",
"3. c #838A95",
"4. c #868D99",
"5. c #888F9B",
"6. c #8C929C",
"7. c #A29582",
"8. c #A69986",
"9. c #A89B87",
"0. c #AB9D8A",
"q. c #AEA08C",
"w. c #B1A38E",
"e. c #ACA499",
"r. c #B4A691",
"t. c #B7A893",
"y. c #BAAB96",
"u. c #BDAE99",
"i. c #BFB09A",
"p. c #8E95A0",
"a. c #9097A2",
"s. c #9399A3",
"d. c #B6AEA3",
"f. c #BAB2A6",
"g. c #A4A9B0",
"h. c #AAAEB5",
"j. c #ADB1B9",
"k. c #B1B6BE",
"l. c #C0B19B",
"z. c #C3B5A2",
"x. c #C6B9A5",
"c. c #C3BBAE",
"v. c #CABDAA",
"b. c #C6BEB1",
"n. c #CCC0AD",
"m. c #CFC3B2",
"M. c #D0C5B4",
"N. c #D4CABB",
"B. c #BABDC3",
"V. c #BFC3C9",
"C. c #C3C7CC",
"Z. c #D7CEC0",
"A. c #D8CFC1",
"S. c #DAD1C3",
/* pixels */
"                                                                                                                                                                ",
"                                                                    o o O O O O o O O O O O o                                                                   ",
"                                                      O o o o o O O O X o o o o O o o o o o o X o o O O o o                                                     ",
"                                            O O O O O O o o O @ $ ; 3 4 e t u d u j u u t e 4 3 ; $ O o o o o O O o                                             ",
"                                      O O O o X O @ - 4 t l S T E | | O.+.#.+.#.#.@.@.#.#.8.0.q.8.@. .T k 0 = o o o O O O                                       ",
"                                O o O O X @ < t z G ] o.@.@.@.#.#.@.#.#.@.+.+.#.#.0.w.y.l.l.u.l.i.i.l.z.x.f.e...n 9 O o o o O o                                 ",
"                            o O o o @ 4 j R | +.#.#.@.@.@.@.@.@.+.@.#.+.#.7.q.t.y.l.l.l.l.l.u.l.i.i.i.i.i.l.x.M.N.b.1.U 0 O o o O O                             ",
"                        o O o O 2 u R o.@.@.@.@.+.@.@.@.@.@.@.+.+.#.7.q.t.u.i.i.l.l.u.u.l.u.u.y.q.q.y.i.i.i.i.i.f.v.N.A.m.<.n , o O O O                         ",
"                    o o o O < z | +.@.@.@.+.@.@.@.@.@.@.@.@.#.#.0.t.u.u.l.u.l.l.u.l.u.l.u.l.u.0.@.@.#.l.l.l.l.l.l.i.l.v.N.S.A.d.W 0 O O O O                     ",
"                  o o o = h [ @.@.@.@.@.@.@.@.@.@.@.@.@.#.8.w.u.u.l.i.i.u.l.l.u.l.u.u.l.l.u.l.q.#.#.w.l.l.l.l.l.l.i.i.i.l.n.N.S.S.v.Q 8 o O O                   ",
"                O O o 3 G @.@.@.+.| o.@.@.@.@.@.@.@.#.q.t.u.i.i.i.i.i.i.u.l.u.l.l.u.l.u.l.l.l.u.r.r.l.l.l.l.y.#.@.t.l.i.i.i.x.m.S.S.S.f.n O O O O               ",
"              o O o 9 ] #.@.@.@.| E ' +.@.@.+.@.#.q.y.i.i.i.i.i.u.i.i.i.l.u.l.u.l.l.u.l.u.l.u.l.l.r.O.G F F u j j h E 8.i.i.i.l.v.N.S.S.N.Q = O O o             ",
"            o O o 3 ] @.@.@.@.+.o.| | +.@.#.#.w.i.i.i.i.i.i.i.i.l.i.i.i.l.i.l.l.u.l.l.u.l.l.u.u.o.u e & 4 3 4 B 9.,.T S +.u.i.i.u.z.M.S.S.Z.>.= o O o           ",
"          o O o - E #.@.@.@.+.] E | +.@.#.q.i.i.i.i.i.i.i.i.i.i.i.i.i.u.r.w.u.u.l.u.u.l.l.u.l.9.r e 1 e 4 4 3 e 8.l.i.q.8.u.i.i.l.u.l.M.S.S.Z. .$ o O           ",
"          O O O A @.@.@.@.@.O.E R ] @.#.t.i.i.i.i.i.i.i.i.i.i.i.i.i.l.y.#.#.r.l.u.l.l.u.u.l.l.0.y 1 4 4 4 4 h | i.l.y.#.@.t.i.i.i.i.l.l.m.A.S.N.U O O o         ",
"        o O O y O.@.+.@.@.@.O.| ] O.#.y.i.i.i.i.i.i.i.i.i.i.i.i.i.i.u.u.w.q.u.u.l.u.u.l.l.u.l.u.@.l e e t A @.y.9.] #.q.q.u.i.i.i.i.i.l.f.m.A.S.b.t o O O       ",
"        O o ; [ @.@.@.@.@.| | +.O.#.t.l.u.l.u.l.i.i.i.i.i.i.i.i.i.i.i.i.i.i.i.i.i.i.i.i.i.i.i.i.l.y.#.#.q.8.@.#.G 4 C l.l.l.l.l.i.i.i.i.i.l.M.S.S.<.= O O       ",
"      O O O V @.@.@.@.@.O.z | @.@.q.i.i.l.u.i.i.i.i.i.i.i.i.i.i.i.i.i.i.i.i.i.i.i.i.i.l.l.l.i.u.r.q.q.#.O.E F G G l E @.#.w.t.y.u.i.i.i.i.i.l.N.S.N.k o O o     ",
"    o o o 3 | @.@.@.@.@.] u o.@.@.r.l.i.i.i.i.i.i.i.i.i.i.i.i.i.i.i.i.i.i.i.u.i.l.i.t.8.O.E S l l u l l B C C D G R G R R ` | @.r.i.i.i.i.i.i.z.N.S.<.O o O     ",
"    O O O V @.@.@.@.@.@.D y @.@.#.y.l.i.i.i.i.i.i.w.t.l.i.i.i.i.i.i.i.i.i.i.u.q.+.E D S F ` o.#.q.w.t.l.l.l.l.l.l.l.l.l.l.l.l.y.u.i.i.i.i.i.i.i.v.S.b.w o O     ",
"    O o ; | +.@.@.@.@.@.u j @.@.@.w.l.i.u.i.i.l.w.] t.i.i.i.i.i.i.i.i.i.i.u.9.@.@.9.r.u.l.l.l.l.l.l.l.l.y.l.l.y.l.u.u.l.l.l.u.l.i.i.i.i.i.i.i.i.l.M.A.Z o o o   ",
"  o O o y +.@.@.@.@.@.+.t l @.@.@.q.i.l.l.i.l.y.A | w.#.q.i.i.i.i.i.i.i.i.i.u.i.l.l.i.i.i.i.l.l.l.l.l.l.l.l.l.l.u.l.l.u.l.u.l.u.i.i.i.i.i.i.i.i.l.x.S.{ o o O   ",
"  o O O A #.@.@.@.@.@.O.0 l #.@.@.@.t.l.i.u.i.E j r.#.@.#.i.i.i.i.i.i.i.i.i.i.i.i.i.i.i.i.i.i.i.l.l.l.l.l.l.l.l.l.u.u.l.l.u.l.u.i.i.i.i.i.i.i.i.i.l.N.<.O O O   ",
"  O O = E #.@.+.@.@.@.O.4 t +.@.@.@.#.y.i.l.#.0 O.i.q.@.q.i.i.i.i.i.i.i.i.i.i.i.i.i.i.i.i.i.i.i.y.l.l.y.y.l.l.y.u.l.l.u.l.l.u.l.i.i.i.i.i.i.i.i.i.i.n.1.$ o o   ",
"  O o ; | @.@.@.@.@.@.+.y $ u G o.@.@.#.y.i.E j u.i.i.y.i.i.i.i.i.i.i.i.i.i.i.i.i.i.i.i.i.i.i.i.u.l.u.l.u.l.l.u.l.l.l.l.y.l.l.l.i.i.i.i.i.i.i.i.u.u.v.<.O O O   ",
"  O o 9 O.@.+.@.@.@.+.#.E 3 o O 4 F @.#.8.y.q.V r.i.i.i.i.i.i.i.i.i.i.i.i.i.i.i.i.i.i.i.i.i.i.i.l.u.l.u.l.u.l.l.l.y.l.t.8.#.q.l.i.i.i.i.i.i.l.i.u.u.v.>.O o O   ",
"  o o 0 O.@.+.@.@.+.@.+.O.| j $ o $ V @.@.8.u.@.q.i.i.i.i.i.i.i.i.i.i.i.i.i.i.i.i.i.i.i.i.i.i.i.l.u.l.l.u.l.l.u.l.l.l.w.@.@.#.y.i.i.l.i.y.r.9.8.7.9.z.Q O O O   ",
"  o o 0 +.+.#.@.@.#.+.| E | @.B O O $ ` @.O.q.r.q.i.i.i.i.i.y.r.q.q.q.r.y.u.i.i.i.l.i.l.l.l.l.i.u.l.u.l.u.l.l.l.l.l.l.t.#.#.0.l.i.l.y.q.7.@.@.@.@.@.0.n X O O   ",
"  O o 4 O.+.@.@.@.@.@.| E | #.o.4 o O S #.@.@.q.t.u.i.i.i.r.#.#.@.@.@.@.#.,.9.w.t.u.i.y.8.7.q.w.y.u.u.u.u.y.w.q.#.o.] ] #.t.y.l.u.w.7.@.@.@.@.@.@.@.<.w o o     ",
"  O O ; | #.@.@.O.] | +.+.@.@.| 3 o O F @.@.@.@.r.i.i.i.r.#.@.@.@.@.#.@.@.@.@.@.#.#.8.9.7.| G V B l B l B l j l B R +.w.l.l.l.t.8.@.@.@.@.| ] Q ] +.+.= o o     ",
"  o O $ E #.+.@.] R E +.@.@.@.E $ o $ ] @.@.@.@.#.i.i.i.8.@.@.@.O.` V j l S Q o.@.@.@.@.#.8.q.w.0.7.#.@.#.#.0.w.l.l.l.l.l.l.w.#.@.@.o.G u 3 = O = 0 d O X o     ",
"  O O O D @.@.+.| R ` +.@.@.+.u o o u @.@.@.@.@.#.r.i.y.#.@.@.| h $ O o o O $ 3 h D [ @.@.@.@.7.y.l.l.l.l.l.l.l.l.l.l.l.y.q.#.@.O.S 4 O o X o O O o o X X o     ",
"  O O o u @.@.@.+.o.O.@.@.@.F $ X < ` @.@.@.@.@.+.0.l.r.#.@.O.u O o O $ @ O O X X O < h E O.#.+.#.q.u.i.i.i.i.i.i.i.i.u.9.#.+.E e O O o O - < < % O O O .       ",
"    o o 4 o.@.@.#.@.@.@.@.| 4 X < R #.@.@.@.+.@.@.8.u.r.+.#.G * O O ; 4 3 < < $ @ O o o $ 0 D | #.#.w.i.i.i.i.i.i.i.i.q.#.O.A - o o O ; 3 4 4 4 3 O o O X       ",
"    O o $ E @.@.@.+.@.+.#.A O 3 ` #.+.@.@.@.@.@.@.#.u.w.@.@.h X O $ 4 4 4 4 4 4 3 ; $ O o X O 4 D O.7.y.i.i.i.i.i.i.r.#.o.y O O O $ 1 4 4 4 4 4 4 $ O O X       ",
"    o o o u @.@.@.@.@.@.#.d O z #.#.@.@.@.@.@.@.@.7.u.w.#.O.0 o O ; 4 4 4 4 4 4 4 4 4 1 $ $ O o @ h O.t.i.i.i.i.i.i.8.o.y O O O - 4 4 4 4 4 4 4 4 $ O o X       ",
"      O o - Q @.@.@.@.@.#.l O S o.| | +.@.@.@.@.@.8.u.y.#.O.4 X O ; 4 4 4 4 4 4 4 4 4 4 4 3 % O X O V w.i.i.i.i.i.y.7.B O o O ; 4 4 4 4 4 4 4 4 3 $ X O .       ",
"      O O o u @.@.@.@.+.#.E $ y ] R E o.@.@.@.+.@.0.u.u.7.O.t X O ; 4 4 4 4 4 4 4 4 4 4 4 4 2 $ O o t r.i.i.y.u.i.y.+.4 O O - 4 4 4 4 4 4 4 4 4 ; @ O O .       ",
"        O o $ F #.+.@.@.#.+.A ; C E E +.@.@.@.@.#.r.l.l.q.#.z O o $ 4 4 4 4 4 4 4 4 4 4 3 ; ; $ O X y y.i.i.q.y.i.i.@.; X O ; 4 4 4 4 4 4 4 2 ; $ O O O .       ",
"        O O O 2 E #.@.@.+.#.+.B 0 G O.@.@.@.@.@.#.u.l.u.y.,.] - X O & 4 4 4 4 4 4 3 < < < - $ o O O E i.i.i.i.i.l.l.r.t X o $ ; < < < < < ; ; = O O O X .       ",
"          O O O 9 ' #.#.+.@.#.+.G u G @.@.@.@.@.q.i.i.i.i.q.+.l O O @ $ 2 2 < ; ; ; ; ; - $ o o O j r.i.i.w.#.7.+.| #.| 4 X O O O $ - = % $ O O o O o X o       ",
"            O O O 4 E #.#.+.+.+.@.| V S | @.@.#.y.i.i.i.i.y.8.| 0 X X $ $ % ; & ; - $ $ O o o $ z w.i.u.] 0 ; ; $ @ $ l o.j = O X O o O O O X O ; e O o O       ",
"              O O X ; D O.#.#.#.@.@.@.| G ` o.q.i.i.i.i.i.i.y.7.] 0 O o O $ O $ @ O O X o $ e ] y.l.i.#.; O ; $ $ 3 $ o D y.#.D t ; = $ $ ; 9 l | [ $ o O       ",
"                O o o O 0 G O.+.@.@.@.@.@.| | q.i.i.i.i.i.i.i.y.0.| l < O o X o X o $ ; d E q.l.i.i.i.R O $ 4 4 3 4 ; O 9 r.i.i.y.9.#.+.+.,.q.u.l.] O O O       ",
"                  O O O o @ 0 S | @.@.@.@.@.#.y.i.i.i.i.i.i.i.i.u.r.8.o.F l u u j A ` #.t.i.i.i.i.i.l.R o $ 9 3 3 4 ; X 0 t.i.i.i.l.l.l.u.i.l.i.y.h o o O       ",
"                      O O O O O < j E O.@.@.@.r.i.i.i.i.i.i.i.i.l.u.l.y.t.r.w.w.r.y.u.l.l.i.i.i.i.i.i.7.2 o - ; @ - @ @ G i.i.i.i.i.i.i.q.r.i.i.Q @ o o         ",
"                          O O O o o $ 0 B | +.#.r.i.i.i.i.i.i.i.u.l.y.u.l.l.l.l.l.i.i.i.i.i.i.i.i.i.i.i.o.0 $ - 3 3 0 G t.i.i.i.u.i.l.i.i.u.l.O.; o O O         ",
"                                O o o o o $ t C [ #.q.q.t.y.i.i.l.w.#.8.u.u.u.l.i.i.i.i.i.i.i.i.i.i.i.i.i.r.,.#.q.q.t.i.i.i.i.y.9.u.y.9.u.i.| 2 o o O           ",
"                                    O O O O o O - e V E +.,.8.y.i.r.#.q.i.i.i.i.i.i.i.i.i.i.i.i.i.i.i.i.i.i.i.i.i.i.i.i.i.i.i.i.u.i.u.y.u.' - o O O             ",
"                                          O O O o X O = 9 l [ #.t.i.u.i.i.i.i.i.i.i.i.i.i.i.i.i.i.i.i.i.i.i.i.i.i.i.i.i.i.i.i.i.i.i.i.l.9., o O O               ",
"                                                O O O O o o 3 [ q.u.i.i.i.i.i.i.i.i.i.i.i.i.i.i.i.i.i.i.i.i.i.i.i.i.i.i.i.i.i.i.i.i.i.l.+.$ o o                 ",
"                                                  o O O o O o l q.u.i.i.t.q.i.i.i.i.i.i.i.i.i.i.i.i.i.i.i.i.q.r.i.i.i.i.i.i.i.q.i.i.i.l.' O O O                 ",
"                                                O o o o O o o 3 O.u.i.u.] F i.i.i.i.i.i.i.q.+.i.i.i.i.i.i.i.D | l.i.u.u.i.i.q.z y.i.i.y.k o O O                 ",
"                                                O o O * O O O O k #.q.#.t u u.i.i.i.i.i.y.B E i.i.i.i.i.i.q.r z i.i.i.u.i.i.] - O.u.y.[ - o o                   ",
"                                              O O , c H c 7 * o * j E V - ; F @.t.i.i.r.+.3 G i.i.i.i.i.r.| 3 4 7.t.u.u.8.S 3 o 3 j l ; o O O                   ",
"                                            O O , v H H ~ ) w o O O * O o O O - l | o.A e @ ; u ' q.q.O.j 2 O O 3 j Q E 9 o o O o o o o o O                     ",
"                                          O o - m K L / ~ K v @ O O O @ $ O O o O $ ; O X O o o @ r u 2 O o O O o o $ @ o o O O O o O O                         ",
"                                          O O i H m H ~ $.&.K * O O @ 0 u ; O O O O O O O > > O o o o o O O X X o O O O o O O                                   ",
"                                        O O 8 L L L / / L K K : o O O O O @ o o O O O O O * > @ o o O o X $ 3 t - o O $ O O                                     ",
"                                      O O O > w a m ~ ) $.-.L * o 3 B B u 0 2 ; ; $ $ $ O O O O O O @ $ t F |  .t o O O O O                                     ",
"                                        O O o o O 6 p a i q q O O O 9 y u u u u k z V h O o u G $ o O - ; ; $ O X o O O O O                                     ",
"                                        O O X O , = O o X O O O O o X X o O O @ O O @ O O o l ,.2 o $ - , 3 0 y j - o @ $ O O                                   ",
"                                      O O O e S D e B F - O O * * O O o O 2 e y u t r 0 = o , u $ o - 0 y h j l t $ o = j - O O O                               ",
"                                      O X O e l ; X r w.G O O O * * * O O O @ = ; 2 , - O O o o O O O O o o X X o O O O D O.h O o O                             ",
"                                    O O ; ; O o O O O t e o O O o = > > * * * O O O O O O o 8 R k o O * : = : = > 7 O O = 0 ; X O O O                           ",
"                                    O @ T | G S G z ; O O ; S y o * 5 6 6 6 5 5 5 > > > O o 3 C d o O 5 6 5 5 > > , O O O - 3 r = X O                           ",
"                                  O o ; o.8.8.8.8.7.o.` E D [ V o O = : 5 5 5 5 5 > > * * o o o o o O * * @ O O O @ @ O $ y h 0 O O O                           ",
"                                    o = ] 8.7.7.7.8.9.u.u.9.z ; o o @ o O O O @ O * O * @ O + o + @ @ # # # & - 1 1 1 O O O O O O O O                           ",
"                                    O o t +.7.7.7.7.9.r.[ 7.r.d o O & 1 & # # & - & & & & & 1 & & 1 & & - & - & & % @ o 9 T z ; o O                             ",
"                                      O O e [ 7.8.#.F 8.#.h h 0 o O # # & # # & & & & & & # & # # # # # # + @ ; w b ; X 9 D 9 O O                               ",
"                                        O o - h E +.G t | 7.0 O o = : ; = = @ @ @ @ @ @ @ $ = - 2 w p s c J ^ &.h.B.f X O X O O                                 ",
"                                          O o o O 2 t = $ 0 = o , M J Y &._ ) ^ ^ ^ ^ ^ &.) %.&.p.g.a.4.4.4.a.a.k.C.N X O                                       ",
"                                            O O O = O O O O = q M K J ^ 4.5.5.4.4.4.4.5.s.5.5.5.4.4.4.4.4.3.4.p.j.V.P o O                                       ",
"                                            o o = w , O O : f H K J J J ! _ 2.3.2.4.3.2.3.&.^ &.-.4.2.=.! g x H *.:., o                                         ",
"                                              O O O O O O O O , q 8 , = = = 8 c ^ =.&.Y f ; O = 8 w g 8 $ ; @ o O @ o o                                         ",
"                                                        O O O O o X @ 4 e O O o @ , 6 O X o O O o o o o $ 0 $ O @ O o O                                         ",
"                                                        O O o + O O O O O O O # @ X O O   O O O + o o o O o O @ & @ O O                                         ",
"                                                      O O O + + + + + @ # @ % & # O O     O o O + + o @ @ # # # # @ O O O                                       ",
"                                                      O O O O O O O O O O O O O O O O o   O O O O O O O o O o o o O O O                                         ",
"                                                            O o O O O O O O O O o O             O o o O O O O O o                                               "
};
