/* XPM */
static char *w_1_resized[] = {
/* columns rows colors chars-per-pixel */
"80 80 155 2 ",
"   c None",
".  c #161513",
"X  c #181715",
"o  c #1A1917",
"O  c #1B1A18",
"+  c #201916",
"@  c #281C17",
"#  c #221E1B",
"$  c #2A1F1A",
"%  c #23211E",
"&  c #2C211C",
"*  c #33241D",
"=  c #1E2122",
"-  c #252422",
";  c #292623",
":  c #2C2925",
">  c #232729",
",  c #25292B",
"<  c #2B2B2A",
"1  c #312C26",
"2  c #3C2A22",
"3  c #322E29",
"4  c #35312C",
"5  c #3A342D",
"6  c #272D30",
"7  c #292E32",
"8  c #2F3031",
"9  c #333333",
"0  c #3A3631",
"q  c #3D3933",
"w  c #353638",
"e  c #34383B",
"r  c #393A3C",
"t  c #413D36",
"y  c #423E38",
"u  c #46413A",
"i  c #4A453D",
"p  c #4D483F",
"a  c #3E4348",
"s  c #444443",
"d  c #484540",
"f  c #4E4941",
"g  c #434649",
"h  c #464A4F",
"j  c #534D44",
"k  c #575147",
"l  c #585046",
"z  c #57544E",
"x  c #5B544A",
"c  c #5F584D",
"v  c #4B4F54",
"b  c #4E535A",
"n  c #595650",
"m  c #5D5953",
"M  c #52565C",
"N  c #56595D",
"B  c #5A5B5D",
"V  c #615A4F",
"C  c #645D52",
"Z  c #685F53",
"A  c #676054",
"S  c #696156",
"D  c #65615A",
"F  c #6D665A",
"G  c #70675B",
"H  c #736A5D",
"J  c #555A61",
"K  c #5A5E65",
"L  c #595F68",
"P  c #5D6066",
"I  c #5D636B",
"U  c #5F6770",
"Y  c #6D6961",
"T  c #62666E",
"R  c #696A6C",
"E  c #776E60",
"W  c #786F61",
"Q  c #746F68",
"!  c #7C7364",
"~  c #7E766A",
"^  c #7D786F",
"/  c #606771",
"(  c #656B74",
")  c #696E77",
"_  c #676F79",
"`  c #6D737D",
"'  c #737476",
"]  c #757779",
"[  c #807667",
"{  c #817768",
"}  c #847A6B",
"|  c #887E6E",
" . c #817C74",
".. c #8A806F",
"X. c #8D8271",
"o. c #8A8378",
"O. c #8E887F",
"+. c #918675",
"@. c #948877",
"#. c #968A79",
"$. c #998D7B",
"%. c #9D917E",
"&. c #6F7680",
"*. c #747A84",
"=. c #787E88",
"-. c #7C828D",
";. c #7E8590",
":. c #8F8A80",
">. c #968F86",
",. c #9F9280",
"<. c #999289",
"1. c #9E988D",
"2. c #818793",
"3. c #838A95",
"4. c #868D99",
"5. c #888F9A",
"6. c #8C939E",
"7. c #A29582",
"8. c #A69986",
"9. c #A89B87",
"0. c #A49A8B",
"q. c #AB9D8A",
"w. c #A39C91",
"e. c #AEA18C",
"r. c #B1A38F",
"t. c #B4A691",
"y. c #B7A893",
"u. c #BAAB96",
"i. c #B2AB9F",
"p. c #BDAF99",
"a. c #BFB09A",
"s. c #8F95A0",
"d. c #9096A2",
"f. c #9399A3",
"g. c #BAB0A1",
"h. c #BDB5A9",
"j. c #A4AAB2",
"k. c #ADB1B9",
"l. c #C0B19B",
"z. c #C3B5A1",
"x. c #C6B9A5",
"c. c #C2B9AC",
"v. c #C9BDAA",
"b. c #C9BFB1",
"n. c #CDC1AF",
"m. c #CDC3B3",
"M. c #D0C5B4",
"N. c #D1C7B8",
"B. c #D5CBBC",
"V. c #BBBFC5",
"C. c #C3C7CD",
"Z. c #C5C9CF",
"A. c #D7CEC0",
"S. c #D8CFC1",
"D. c #DAD1C3",
/* pixels */
"                                                                    O O o O o O O o O o O o O O                                                                 ",
"                                                      O O O O O O o O O o o o o o O o o o o o O o O O O O O                                                     ",
"                                            O O O O O O o O O O % ; 4 4 q u u i p i i u q q 4 : ; % O o o o O O O O                                             ",
"                                      o O O O O o # ; 4 u k A H ! ..X.X.@.#.$.#.$.$.#.%.%.,.7.7.%.+.~ D f 0 % O o o O O O                                       ",
"                                o O o o o % 3 u c E } +.$.$.%.$.%.%.%.$.#.%.#.%.%.7.e.y.p.a.a.a.a.l.l.l.z.g.w. .z 0 O O o O O O                                 ",
"                          O O O o o % q l W X.#.%.$.$.$.$.$.$.$.#.#.#.$.%.,.9.r.p.p.a.a.a.a.a.a.a.l.a.a.a.l.x.m.N.h.<.D 0 O X o O O                             ",
"                        o O o O 3 l ! @.$.$.$.$.$.$.$.$.$.$.$.$.#.%.%.q.t.p.a.a.a.a.a.a.a.a.a.p.t.e.p.p.a.a.a.a.z.v.B.S.c.>.n : X o O o                         ",
"                    O O o O 4 C ..$.$.$.$.$.$.$.#.$.$.$.$.#.$.%.8.r.p.a.a.a.a.a.a.a.a.a.a.a.a.t.%.#.7.p.a.a.a.a.a.a.z.v.B.D.B.i.Q 0 O o O O                     ",
"                  O o o ; c X.$.$.$.$.$.$.$.$.$.$.$.$.#.%.,.e.u.a.a.a.a.a.a.a.a.a.a.a.a.a.a.a.t.%.#.%.l.p.l.l.l.a.a.a.a.l.v.S.D.D.h. .0 o o O O                 ",
"                o O O q ! $.$.$.#.X.+.$.$.$.$.$.$.$.%.e.y.p.a.a.a.a.a.a.a.a.a.a.a.a.a.a.a.a.a.p.r.r.y.l.l.l.l.t.q.u.l.l.a.a.z.m.D.D.D.h.D - o O O               ",
"              O O O u X.$.$.$.$.X.W ~ $.$.$.$.$.%.e.u.a.a.a.a.a.a.a.a.a.a.a.a.a.a.a.a.a.a.a.a.p.l.l.q.+.| +.H V j z { e.a.a.a.l.x.B.D.D.B.:.< O O o             ",
"            O o o t X.$.$.$.$.$.+...X.$.$.$.%.r.p.a.a.a.a.a.a.a.a.a.a.a.a.a.a.a.a.a.a.a.a.a.a.p.r.H i t 5 5 5 p #.X.A x | u.a.a.a.z.N.D.D.D.w.4 o O O           ",
"          o O o 4 | $.$.$.$.#.{ ! X.$.%.%.e.p.a.a.a.a.a.a.a.a.a.a.a.a.p.y.t.a.a.a.a.a.a.a.a.a.p.Z 5 5 5 5 5 5 2 [ l.p.e.$.t.l.a.a.p.l.m.S.D.D.1.< o O o         ",
"          O o ; H $.$.$.$.$.+.! E ..$.%.t.a.p.a.a.a.a.a.a.a.a.a.a.a.a.p.%.%.r.a.a.a.a.a.a.a.a.y.l 5 5 5 5 5 t l 8.l.l.q.%.q.a.a.a.a.a.a.m.D.D.S.#.- o O         ",
"        O o O c $.$.#.$.$.$.#.| ~ +.7.u.a.a.a.a.a.a.a.a.a.a.a.a.a.a.a.p.e.8.p.a.a.a.a.a.a.a.a.a.$.p t 2 5 u ! r.p.8.8.e.7.r.a.a.a.a.a.a.a.m.S.D.B.F O o O       ",
"      O O o q +.$.$.$.$.$.} +.$.$.%.y.a.a.a.a.a.a.a.a.a.a.a.a.a.a.a.a.a.a.a.a.p.a.a.a.a.a.a.a.a.l.r.@.{ +.%.%.7.+.u p q.a.a.a.a.a.a.a.a.a.a.m.D.D.h.w o O       ",
"      O o % ! $.$.$.#.$.+.c @.$.$.e.a.a.a.a.a.a.a.a.a.a.a.a.a.a.l.p.l.p.l.p.l.p.a.a.a.a.a.l.l.l.l.l.y.y.r.7.| | | c A 9.u.p.l.l.a.a.a.a.a.a.l.N.D.D.o.O O o     ",
"    o O o i #.$.$.$.$.%.W k #.$.%.y.a.a.a.a.a.a.a.a.a.a.a.a.a.a.p.l.p.l.p.l.p.l.l.l.a.u.q.,.| W S V l l j j j j j c C C F H } $.e.a.a.a.a.a.a.l.N.D.h.q o o     ",
"    O o % ! $.$.$.$.$.$.x k %.#.%.p.a.a.a.a.a.a.a.t.y.a.a.a.a.a.l.p.l.p.l.p.l.u.q.o.W C C C G ! ..$.7.8.e.r.t.t.y.y.y.t.t.r.r.r.t.a.a.a.a.a.a.a.x.B.D.Y o o O   ",
"  O O o t #.$.$.$.$.$.$.u C %.$.%.y.a.a.a.a.a.a.t...u.a.a.a.a.a.p.l.l.p.l.p.q.+.X.+.,.e.y.p.l.l.l.l.l.l.l.l.l.l.l.l.l.l.l.l.l.l.a.a.a.a.a.a.a.a.a.m.D.1.% o O   ",
"  o O O C $.$.$.$.$.$...5 G %.$.%.r.a.a.a.a.a.p.G ..t.8.t.a.a.a.l.l.p.l.l.p.u.p.l.l.l.l.a.a.a.a.l.l.a.a.a.p.a.a.l.p.l.p.p.p.l.p.a.a.p.a.a.a.a.a.a.z.B.h.< o O   ",
"  O o ; } $.$.$.$.$.$...1 G $.$.$.%.u.a.a.a.a.! k r.,.$.,.a.a.a.p.l.l.p.p.l.l.p.l.p.l.l.a.a.a.a.p.l.l.p.a.l.a.l.p.l.p.l.l.l.p.l.a.a.a.a.a.a.a.a.a.a.m.m.r o O   ",
"  O o 0 +.$.$.$.$.$.$...% C %.%.$.$.8.p.a.a.%.q #.p.8.$.e.p.a.a.p.l.p.l.l.p.l.l.p.l.p.l.a.a.a.a.l.p.l.a.a.l.a.p.l.p.l.p.p.l.l.p.a.a.a.a.a.a.a.a.a.a.x.m.d o o   ",
"o O o i $.$.$.$.$.$.$...4 : V } #.$.$.e.a.a.S c p.p.p.t.u.p.a.a.l.p.l.p.p.l.p.p.l.p.l.p.a.a.a.a.p.l.a.a.a.p.a.a.p.l.l.p.l.p.l.l.a.a.a.a.a.a.a.a.a.a.l.m.d o O   ",
"O O o x $.$.$.$.$.$.$.#.C % o % p } %.$.e.p.#.S p.a.a.a.a.a.a.a.p.l.l.p.l.p.l.p.a.a.a.a.a.a.a.a.l.p.l.p.l.p.l.p.l.p.p.p.t.q.y.l.a.a.a.a.a.a.a.a.l.a.l.c.y X O   ",
"O o o V %.$.$.#.$.$.$.$.#.W q O o 3 ! $.$.e.u...r.a.a.a.a.a.a.a.l.l.l.p.p.l.p.l.a.a.a.a.a.p.a.a.l.l.p.l.p.l.p.l.l.l.l.y.%.$.%.y.a.a.a.a.a.a.p.y.t.y.l.g.9 o O   ",
"O o O C $.$.$.$.$.$.#.| [ @...u O o q +.$.$.r.r.e.a.a.a.a.a.p.y.t.y.y.p.p.l.l.l.a.a.a.a.l.a.a.a.p.l.l.l.l.l.l.l.p.l.l.p.%.$.%.y.a.a.a.p.r.8.,.$.$.%.9.w.: o O   ",
"O O o x $.$.$.$.$.$.$.{ ! @.%.! % O % ! %.$.%.t.p.a.a.a.a.y.8.%.$.$.%.%.7.9.r.y.p.a.a.u.t.u.p.l.l.l.l.l.l.l.l.l.p.y.q.%.$.8.y.l.a.p.t.7.$.$.$.$.$.#.7.^ O o O   ",
"o O o j #.$.$.#.X...@.#.@.#.$.[ % O % ! %.$.#.%.u.a.a.a.y.%.$.$.$.$.$.$.$.$.$.%.7.q.r.t.$.{ W H ! } | | | } W F C C G ..q.l.l.l.y.8.%.$.$.%.$.#.$.$.0.m X o O   ",
"o O o t #.$.$.@.! ! | $.$.$.%.S O O 4 ..$.$.$.$.e.a.a.a.8.$.$.$.$.+.[ ! ! | #.$.$.$.$.%.8.8.7.#.} H F S S F W | $.q.p.l.l.l.p.q.,.#.$.#.| G k i f C o.q . o     ",
"  O o 4 X.$.$.#.[ ! | #.$.$.@.q O O k $.$.$.$.$.%.u.a.y.%.$.$.#.S 5 % # % ; q l H X.$.$.$.$.%.r.l.l.l.l.l.l.l.l.l.l.p.l.l.p.8.$.$.#.W i : O O o o O : O . o     ",
"  O o % ! %.$.$.@...@.$.$.$.V # o 4 ..$.$.$.$.$.$.r.a.r.$.$.#.x O o o O o o X o # : j W +.$.$.$.7.y.l.l.l.l.l.l.l.l.l.l.y.8.$.$.~ u # o o O O - O O O O . X     ",
"  O O O c $.$.$.$.$.$.$.%.{ : o 3 ! %.$.#.%.%.#.#.q.a.e.$.%.E % O O ; 1 : : % O O o o % q C X.#.$.,.u.a.a.a.a.a.a.a.a.y.7.%.+.c ; X O O ; 1 4 5 1 % O O X .     ",
"  o O o u #.$.$.$.#.$.$.#.p o 0 ! $.#.#.%.#.#.%.%.8.a.e.$.#.i o o ; 5 5 5 5 5 4 : & O O o O 3 c X.$.8.p.a.a.a.a.a.a.p.8.%.{ u O O O # 1 5 5 5 5 5 ; O O o       ",
"    o o % ~ $.$.$.$.$.$.+.4 % E %.%.#.%.#.#.%.#.#.8.a.e.%.X.4 O O : 5 5 5 5 5 5 5 5 3 & O o o O 4 H $.t.a.a.a.a.a.a.r.%.! 4 o o O ; 5 5 5 5 5 5 5 1 O O o       ",
"    O O O l $.$.$.$.$.$.+.4 % } #...@.%.#.%.#.#.#.q.a.e.%...: o O 1 5 5 5 5 5 5 5 5 5 5 5 : # o o ; W r.a.a.a.a.a.p.8.| 5 o O O 1 5 5 5 5 5 5 5 5 ; O O o       ",
"      O o ; ~ %.$.$.$.$.#.k # H } ! { $.#.$.#.%.%.e.a.u.%...3 o # 1 5 5 5 5 5 5 5 5 5 5 5 5 1 # O o i r.l.a.a.a.a.p.%.l O O # 4 5 5 5 5 5 5 5 5 4 & o O o       ",
"      O O o i #.$.$.$.#.$...4 u ! ! { #.%.#.%.#.%.y.a.p.7.@.t o O % 5 5 5 5 5 5 5 5 5 5 5 3 : ; O o q r.l.a.e.y.a.a.%.0 o O ; 4 5 5 5 5 5 5 5 4 : # O O X       ",
"        O o # A $.$.$.$.%.#.! 4 l ..@.$.#.%.%.#.7.a.a.a.e.%.A O o % 5 5 5 5 5 5 5 5 5 4 1 : : O o o x p.a.a.y.p.a.l.9.t o O % 4 5 5 5 5 5 1 1 : % O O o X       ",
"        O o o % G $.$.$.#.%.%.[ i V @.$.#.%.#.%.r.a.a.a.p.%...4 X o % 2 4 4 4 4 1 1 : ; ; ; O O o < $.l.l.l.a.l.p.p.p.W O o o % & : ; ; 1 ; ; % O O O o .       ",
"          O O O ; G $.#.%.#.#.%.X.S c ..#.$.$.%.p.a.a.a.a.r.%.A % o O % ; : : 1 1 1 & ; # O O O 1 ..a.l.y.{ V A k u c ..S % o o O O % # % O O O O O o X o       ",
"            O O O % c @.#.%.%.#.$.$...G ! X.$.r.a.a.a.a.a.a.q.#.k O o O # % % % % # O O o o O i %.a.l.r.j O # O O % o : ..#.k : O o o X o o O O 0 C : o O       ",
"              O O O O q H #.%.%.$.$.$.$...} @.y.a.a.a.a.a.a.p.e.$.V ; O o o O O o o o o ; u ! t.a.a.l.| O % 4 1 1 5 : X u y.p.7.~ c i t t i c { 8.8.3 o O       ",
"                  O O O % u G X.$.%.$.$.$.$.%.u.a.a.a.a.a.a.a.a.r.7.| x q : % % ; 4 u A X.t.l.a.a.a.l.G o % 5 5 5 5 3 O 3 q.l.a.l.a.u.y.y.u.p.a.l.@.% o O       ",
"                    O O o o # 0 c ..$.%.%.$.8.p.a.a.a.a.a.a.a.a.l.p.y.e.%.@.....#.7.e.p.a.a.a.a.a.a.a.} O % 4 4 : 5 : O u t.a.a.a.a.a.l.y.y.a.a.u.x O O O       ",
"                        O O o O O ; i G ..$.%.r.a.a.a.a.a.a.a.a.p.l.l.l.l.p.p.p.a.a.a.a.a.a.a.a.a.a.a.t.f O % # o O O : X.a.a.a.a.a.a.a.y.t.a.a.! O o O         ",
"                            O O O o o # 3 l ! @.8.t.y.p.p.a.p.a.l.y.9.y.p.l.p.l.a.a.a.a.a.a.a.a.a.a.a.a.e.H f p C C G %.a.a.a.u.t.p.a.u.p.a.u.} ; o O O         ",
"                                  O O o o o % 4 k ! @.7.8.e.p.a.p.9.$.9.l.p.l.p.a.a.a.a.a.a.a.a.a.a.a.a.a.a.p.p.a.l.l.a.a.a.a.a.e.u.p.q.u.u.! ; o o O           ",
"                                        O O O O o % 4 k H X.%.r.p.u.t.u.a.a.a.a.a.a.a.a.a.a.a.a.a.a.a.a.a.a.a.a.a.a.a.a.a.a.a.a.a.a.a.p.u.G # o O O             ",
"                                              O O O o o # 4 H %.u.a.a.a.a.a.a.a.a.a.a.a.a.a.a.a.a.a.a.a.a.a.a.a.a.a.a.a.a.a.a.a.a.a.a.l.q.4 X O o               ",
"                                                  O o o O o < ..r.a.a.a.a.p.a.a.a.a.a.a.a.a.a.a.a.a.a.a.a.a.u.a.a.a.a.a.a.a.a.a.a.a.a.l.$.> O O                 ",
"                                                o O o O O O O A r.a.a.a.$.%.a.a.a.a.a.a.a.u.y.a.a.a.a.a.a.a.#.q.a.a.a.a.a.a.y.$.p.a.a.l.} O O O                 ",
"                                                O o o o o O o q $.t.t.e.p ~ a.a.a.a.a.a.a.~ %.l.a.a.a.a.a.p.j | l.a.a.a.a.a.,.f e.l.l.u.j o O O                 ",
"                                              O O O , w < O O O k @.%.! % V u.p.a.a.a.p.%.u @.l.a.a.a.l.a.,.4 x a.a.a.a.a.t.H - ! r.e.G % O o                   ",
"                                            O O > v I P M g = o O t p 3 o % u H e.u.t.$.F % F e.p.a.a.y.#.S ; 4 ..8.y.r.} u - O % 4 q % O O O                   ",
"                                          O O % a M M ( &.( e o o o o o o o o O q A V 5 % o # 3 c X.#.S 4 O O O # q c x - o o O o o o o O O                     ",
"                                          O O a U I I I U _ b O o # % q 4 # o o o o O o O = O o O ; : # o O O O o o O O O O o     O O O                         ",
"                                        O O < b J J / -.-._ a O o # % 0 u % O O o o O o = 7 > = O o o o o o o O o O O O O O O                                   ",
"                                      O O # h U I I / U I _ P O o % ; = O # o o X o o o O % O O o O O O # y A H q o O % O O                                     ",
"                                      O O O = , e M _ *._ / a O o t F F c p u t q q t 4 O O % : O O # < i A S x 4 o O O O O                                     ",
"                                        o O O o O = , < > 6 ; O O O - 3 3 4 0 t u p k t O O C ..; o O = O O o O # O O % % o o                                   ",
"                                        O O # 4 y 3 : # o O O O O O O o O % % % % O O O O o k +.; o % 0 u f z S S : o ; u o o o                                 ",
"                                      O o - F [ u 4 } ! - O O = = O O O O : t p j p i t % o % < O O % 4 4 0 q 0 : O O O G C q O o O                             ",
"                                    # O O O 3 < o o x 8.i o o O = = = = O O O O O % % # O O % : % o O o o o o O O = O o q { C % o O O                           ",
"                                  o O ; j 5 ; % : O O : % O : # O > 6 6 > > = % = = O = O o y +.C o O > > > > 6 6 e = O o O O O % O O                           ",
"                                  O o u %.$.X.X.X.A q ; ; j ..0 o % 6 7 7 7 7 7 6 6 6 > O O < y 4 O O > 7 6 > > - $ O o O 0 j z 0 O O                           ",
"                                  o o k 8.7.7.8.8.7.,.$.@.G H q o O = = > > > > > > > - O O o o o o o = O O + # + @ : O o ; 0 ; O o O                           ",
"                                  o o q #.8.7.7.7.8.t.y.u.q.k O o o # # # + # O # # # O # + # + $ $ - $ & $ * 2 * t 2 O # : ; ; O O O                           ",
"                                    o O k $.8.8.7.#.e.7.W $.,.4 o # * 2 * @ $ * ; * * 2 & * 2 * * * * * 2 * $ $ # # # o q $.{ q O O                             ",
"                                    O O O u { ,.8.X.A q.#.u q - o o @ $ $ $ $ & * $ & & & $ $ @ @ @ # + O = < w N ] q X ; u : O o                               ",
"                                      o O o ; u G ..k q X.{ ; o % 9 8 8 8 < < ; ; ; ; ; < 8 8 w g B K N / ` =.2.k.C.B X o X o O                                 ",
"                                          O o o o ; 4 O % > o # g L L ` 2.=.=.*.*.*.=.=.3.=.=.2.f.j.f.4.4.4.d.d.k.C.' o O                                       ",
"                                            O O - > O O O ; 9 v P L T ) 5.5.4.4.4.4.4.5.6.4.5.4.4.3.3.4.5.2.-.5.j.V.R o O                                       ",
"                                            o o > r < O O 7 h K K M M b K ( =.2.2.4.2.;.2.) K ( *.-.=.] M w r g P R < o                                         ",
"                                              O O O O o O o O < 9 < - ; - # < g K ] ) M 9 # O O ; 9 r 6 # 0 - X o o O o                                         ",
"                                                      O O O O o o O ; y t O o o O > - O o O O O o o o o : y # o # O o #                                         ",
"                                                      O o O + O o O O O O O O $ # o O     O O O + o o + O o o = & $ O O                                         ",
"                                                      O O o + + + + + # # $ & * # O O     O O O + o o # # $ $ $ $ # O O O                                       ",
"                                                      O O O O o O O O O # O O O O O O O   O O O o O o O O O O O o O O O O                                       ",
"                                                            O O O O O O o O O O O O             O O O O o O o O o                                               "
};
