/* XPM */
static char *w_10_resized[] = {
/* columns rows colors chars-per-pixel */
"80 80 152 2 ",
"   c None",
".  c #171614",
"X  c #181715",
"o  c #1A1917",
"O  c #1B1A18",
"+  c #241B16",
"@  c #221E1B",
"#  c #2A1F1A",
"$  c #23211E",
"%  c #2D211C",
"&  c #33241D",
"*  c #1F2121",
"=  c #252422",
"-  c #292622",
";  c #2C2925",
":  c #232729",
">  c #25292C",
",  c #2C2B2A",
"<  c #312C27",
"1  c #3C2B23",
"2  c #322E29",
"3  c #35322C",
"4  c #3A342D",
"5  c #272D31",
"6  c #292E31",
"7  c #2F3031",
"8  c #323334",
"9  c #3A3731",
"0  c #3D3933",
"q  c #353739",
"w  c #35383A",
"e  c #3A3B3B",
"r  c #413C36",
"t  c #443F38",
"y  c #46413A",
"u  c #4A453D",
"i  c #4D483F",
"p  c #3C3E41",
"a  c #3F4144",
"s  c #3E4348",
"d  c #414345",
"f  c #4E4941",
"g  c #424549",
"h  c #47484B",
"j  c #4D4E4E",
"k  c #534D44",
"l  c #565047",
"z  c #57524B",
"x  c #5B544A",
"c  c #5F584E",
"v  c #474B51",
"b  c #4A4E54",
"n  c #4D5054",
"m  c #4F5358",
"M  c #5E5A54",
"N  c #51555C",
"B  c #615A4F",
"V  c #645D52",
"C  c #676054",
"Z  c #696256",
"A  c #6D6559",
"S  c #70675B",
"D  c #736A5D",
"F  c #565C63",
"G  c #595E65",
"H  c #595F68",
"J  c #5C6067",
"K  c #5D636B",
"L  c #6E6962",
"P  c #61656D",
"I  c #67686A",
"U  c #766D61",
"Y  c #786F61",
"T  c #7C7364",
"R  c #7B766E",
"E  c #7D786F",
"W  c #606771",
"Q  c #646B74",
"!  c #6A6E75",
"~  c #6C727B",
"^  c #70757F",
"/  c #807667",
"(  c #817768",
")  c #857B6C",
"_  c #897E6E",
"`  c #807B72",
"'  c #8A806F",
"]  c #868076",
"[  c #8D8271",
"{  c #8C877E",
"}  c #918675",
"|  c #948877",
" . c #968A79",
".. c #998D7B",
"X. c #9D917E",
"o. c #707781",
"O. c #757B85",
"+. c #787E88",
"@. c #7C828D",
"#. c #7F8691",
"$. c #8F8A80",
"%. c #838588",
"&. c #938D82",
"*. c #9F9280",
"=. c #9B958A",
"-. c #808792",
";. c #838995",
":. c #868D9A",
">. c #888F9B",
",. c #8B929D",
"<. c #929598",
"1. c #A29583",
"2. c #A69986",
"3. c #A89B87",
"4. c #A79D8F",
"5. c #AB9D8A",
"6. c #A19A90",
"7. c #AEA18C",
"8. c #B1A38E",
"9. c #AEA496",
"0. c #B4A691",
"q. c #B7A893",
"w. c #BAAB96",
"e. c #B1A99E",
"r. c #BDAE99",
"t. c #BFB09A",
"y. c #8F95A1",
"u. c #949AA4",
"i. c #9DA0A4",
"p. c #9CA2AB",
"a. c #B5AEA2",
"s. c #BBB3A7",
"d. c #BFB7AA",
"f. c #C0B19B",
"g. c #C5B8A5",
"h. c #C8BAA7",
"j. c #C7BCAC",
"k. c #CBBEAC",
"l. c #C6BEB1",
"z. c #C8BEB0",
"x. c #CCC0AE",
"c. c #CEC3B2",
"v. c #CEC5B8",
"b. c #D1C6B5",
"n. c #D0C7BA",
"m. c #D4CABB",
"M. c #B8BCC3",
"N. c #C2C6CD",
"B. c #D7CEC0",
"V. c #D8CFC1",
"C. c #DAD1C3",
"Z. c #C5C9D0",
/* pixels */
"                                                                                                                                                                ",
"                                                                      o o o O O O o O O O O o o O                                                               ",
"                                                        O O o o o o o o o o o o o o o o o o o o o O o O o o o                                                   ",
"                                              O O O O O o o o O $ ; 3 9 y i l x x B x x x l l u e 3 - O o o o o o O o                                           ",
"                                        o o o o o o O ; 9 i c A T ) [ |  .......X.X.3.7.q.w.r.w.q.0.4.&.E M e ; o o o O O o                                     ",
"                                  O O O o o $ < y c D ' | ....X.X...X.......X.3.8.w.f.f.f.t.f.f.t.t.f.g.x.c.j.e.{ V q = o o O o O                               ",
"                              O O o o $ 4 l Y ' ..X............. ...X.X.3.0.w.t.t.t.t.t.f.t.t.w.t.t.t.t.t.t.g.c.m.V.x.=.L 0 $ o O O O                           ",
"                          o O o O 3 i T | .................... .X.X.7.q.t.t.t.t.t.t.t.t.t.r.5.X.2.w.t.t.t.t.t.t.f.j.n.C.V.l.=.M ; o o O O                       ",
"                      O O o O 4 C ' .......... ........... .X.X.0.r.t.t.t.t.t.t.t.t.t.t.t.w.X.....8.f.f.f.f.f.f.t.t.t.h.b.C.C.m.a.U , o O O                     ",
"                  O O o o 3 Z [ ........................X.7.w.t.t.t.t.t.t.t.t.t.t.t.t.t.t.t.8.X.3.f.f.f.f.f.8.0.f.f.t.t.t.j.n.C.C.C.e.z O o O O                 ",
"                O O o $ k [ X................... ...X.7.w.t.t.t.t.t.t.t.t.t.t.t.t.t.t.t.t.t.f.f.f.8.X.X.| Z l l A ..0.t.t.t.f.x.m.C.C.v.E : o O O               ",
"              o o o - Z  ..... .' ' ............X.8.r.t.f.t.t.t.t.t.t.t.t.t.t.t.t.t.t.t.f.f.f.0.) i r r 4 r D X.T C S 2.t.t.f.f.g.n.C.C.B.$.- O o O             ",
"            o O o - S ........} T T | ......X.7.t.f.t.t.t.t.t.t.t.t.t.t.t.t.t.t.t.t.t.t.t.t.0.B r 4 1 4 4 4 u 7.f.r.3.5.t.t.t.t.t.g.c.B.C.C.&.- o O             ",
"            o O @ Z ..........[ [ } ......7.w.t.t.t.t.t.t.t.t.t.t.t.t.0.7.t.t.t.t.t.t.t.t.t.X.r r & 4 4 4 r D f.f.w.X.X.q.t.t.t.t.t.t.c.B.C.B.E @ O O           ",
"          o o o f ..........' T ' | ..X.q.t.t.t.t.t.t.t.t.t.t.t.t.t.r.X.X.0.t.t.t.t.t.t.t.t.q.S r 1 4 4 u ' w.0...1.7.7.t.t.t.t.t.t.t.t.c.B.C.n.M o O o         ",
"        o o o 3 _ X.........) Y T | X.q.t.t.t.t.t.t.t.t.t.t.t.t.t.t.t.0.7.w.t.t.t.t.t.t.t.t.t.w.../ D ) X.X.2.T 4 B w.f.t.f.t.t.t.t.t.t.t.k.C.C.a.3 o O         ",
"        o o $ A .......... .| ' ' X.q.f.t.t.t.t.t.t.t.t.t.t.t.t.t.t.t.t.t.t.t.t.t.t.t.t.t.t.f.f.f.f.r.q.X.) ( T c D X.1.7.7.q.t.t.t.t.t.t.f.x.C.C.E O o o       ",
"      O O o y | ........ .T  .....7.t.t.t.t.t.t.t.t.t.t.t.t.t.t.t.t.t.t.t.t.t.t.t.t.t.t.w.7.X._ D V x l l l x c Z S S T T [ X.8.r.t.t.t.t.t.f.c.C.d.4 o O       ",
"      O o $ D X.........' V ....X.w.f.t.t.t.t.t.t.t.t.t.t.t.t.t.t.t.t.t.t.t.t.f.t.7.| Y B x c A T } X.7.8.q.w.t.t.t.f.f.t.t.t.t.t.t.t.t.t.t.r.f.n.C.A o O O     ",
"    O o o 0 | X.........Z x ....X.f.t.t.t.t.t.t.t.q.r.t.t.t.t.t.t.t.t.t.t.t.8. .T S T [ 2.0.t.f.f.f.t.t.t.t.t.t.t.t.t.t.t.t.t.t.t.t.t.t.t.t.t.t.h.C.=.O o O     ",
"    o o o Z X...........l B ....X.r.t.t.t.t.t.t.q.| t.t.t.t.t.t.t.t.t.t.t.q.1.2.9.w.f.f.t.t.t.t.f.t.t.t.t.t.t.t.t.t.t.t.t.t.t.t.t.t.t.t.t.t.t.t.t.n.s., o O     ",
"    o o ; ' ...... ... .y V X...X.q.t.t.t.t.t.t.Y  .0.7.w.t.t.t.t.t.t.t.t.t.t.f.t.t.f.f.t.t.t.t.t.t.t.t.t.t.t.t.t.t.t.t.t.t.t.t.t.t.t.t.t.t.t.t.t.g.l.w o O     ",
"    o o y | ..........| 0 C X. ...7.t.t.t.t.f.[ i q.X. .X.f.t.t.t.t.t.t.t.t.t.t.t.t.t.t.t.t.t.t.t.t.t.t.t.t.t.t.t.t.t.t.t.t.t.t.t.t.t.t.t.t.t.t.t.f.c.y o o     ",
"  o o o x ............| 9 x .... ...7.t.t.f.8.y ' f.X...7.f.t.t.t.t.t.t.t.t.t.t.t.t.t.t.t.t.t.t.t.t.t.t.t.t.t.t.t.t.t.t.r.w.t.t.t.t.t.t.t.t.f.f.f.f.j.y o o     ",
"  O o @ A X........... .y 4 ' X.....X.8.t.f./ i q.t.w.8.w.t.t.t.t.t.t.t.t.t.t.t.t.t.t.t.t.t.t.t.t.t.t.t.t.t.t.t.t.t.t.8.*.*.q.t.t.t.t.t.t.r.q.0.0.w.g.y X O     ",
"  O o $ Y X....... . .X.B O 3 i D  ...X.7.t. .x w.t.t.f.t.t.t.t.t.t.t.t.t.t.t.t.t.t.t.t.t.t.t.t.t.t.t.t.t.t.t.t.t.t.t.5.....3.t.t.f.t.w.7.1.X.....*.9.0 o O     ",
"  o o = T X.............[ l $ . $ y / ....7.t.' X.f.t.t.t.t.f.f.t.t.t.t.t.t.t.t.t.t.t.t.t.t.t.t.t.t.t.t.t.t.t.t.t.t.f.7.X.*.0.t.f.r.8.X...........&.&., o O     ",
"  o o $ T ........ .X. .|  .T y X X 2 ) ....7.q.7.t.t.t.t.f.t.w.7.7.7.7.q.q.r.t.t.t.t.t.r.t.t.t.f.f.f.f.t.t.w.0.1.} T ' 1.r.t.t.q.2...........| ..1.] O o o     ",
"  o O $ Y X....... ...| T T  .' 0 X X i X.....7.q.r.t.t.t.w.X.X...........X.X.2.7.9.q.q...) T T T T T Y D Z x z V T X.0.t.t.t.7.X..... .( V i r y Z M . o o     ",
"  o o O Z X..... .X...| ' '  .X.V O . y  .......7.t.t.t.f.X.........X.........X.....X.X.2.2.*.} [ T T T ( } *.7.w.t.t.t.t.t.7.X... .Y y - o o o o O O . . o     ",
"  O O o l ...... .' ) |  .......x X X u ........X.q.t.t.q... .....) B i u i B D [ | ..X.....*.7.t.f.f.f.f.f.t.t.t.t.t.t.t.3.....) i $ o o O @ = $ O O O .       ",
"    O o 0 ......| T Y )  .....| y . O B ..........7.t.t.7. .....A ; o o o o o $ - 0 x Y } ......*.0.t.t.t.t.t.t.t.t.t.r.7.X...S 3 o o O - < 3 4 3 O O O .       ",
"    O o $ ' X...| ) T ' ....X.Y $ o < ( ..........X.q.t.2.....T ; o O $ $ $ O O O X O $ 4 x ( ....X.7.t.t.t.t.t.t.t.t.8.X.| c $ o O $ < 4 4 4 4 4 % o o .       ",
"    O O O Z ...... .|  .....| y o $ Z ..............7.r.2... .u o o $ 3 4 4 3 < - $ + o o O - y S | X.0.t.t.t.t.t.t.w.1.| l O o O % 3 4 4 4 4 4 4 < O o o       ",
"    O O O y  ...............S @ $ C | ..............7.r.3...} 2 o o 2 4 4 4 4 4 4 4 3 ; $ O o o $ y ) 2.t.t.t.t.t.t.8...V O o O - 4 4 4 4 4 4 4 4 ; O O o       ",
"      O O $ T X.............i o l  .................3.t.7...( - o o 3 4 4 4 4 4 4 4 4 4 3 < - O o o 9 ..r.t.t.t.t.t.7.) ; o O ; 4 4 4 4 4 4 4 4 4 = O o o       ",
"      o O o k ........ .....u o A ..| ..............3.t.0.X.( - o O 3 4 4 4 4 4 4 4 4 4 4 4 4 ; O o O T t.t.t.w.t.t.7.A O O $ 4 4 4 4 4 4 4 4 < ; @ o O o       ",
"        O o $ T ........ .X.C o c } T ( | ..........7.t.w.X.} 9 o O ; 4 4 4 4 4 4 4 4 4 4 4 < < $ O o A t.t.q.7.t.t.w.D O O O < 4 4 4 3 4 < < ; $ O O o .       ",
"        O O o r } X.........} r 3 Y T T } ........X.0.t.t.7...c O O $ 3 4 4 4 4 4 4 4 1 < < < $ O o $ [ f.t.t.f.t.f.f.2.4 o O $ $ - - ; - - - $ O O o X X       ",
"          o O O l  ....... .X.( 0 y T ' | ........X.w.t.t.w.X.( ; o o & 4 4 4 4 4 2 < < ; - $ O o o k q.f.t.8.*.X._ Y [ _ 9 o o O O @ @ @ @ O o o $ ; o o O     ",
"            O o $ C ............' l i ' X..... ...3.t.t.t.t.7...V O O O $ < < ; ; ; ; ; $ $ O O o i 5.f.f.) 0 $ = O O $ k ..S 0 $ o o o o o o = y E Z o O O     ",
"            O O O $ c  ........... .D x D | X.....8.t.t.t.t.t.3. .i O O O $ $ % ; $ $ @ O o o $ V 7.f.f.X.; O ; = ; 4 $ X C f.8...T V x l c U | 7.t.A o o O     ",
"              o o o O l ' X..... .X...} T S ' } *.r.t.t.t.t.t.t.7. .x $ o o o o O O X X O - i } w.f.f.f.T O $ 4 4 4 4 < o 0 8.f.f.f.t.t.t.t.t.f.f.w.f o O o     ",
"                  o o O 3 Z } ..X. . .X. .[ ' ' X.t.t.t.t.t.t.t.r.0.X.T i 2 $ $ $ $ < y C | 0.f.f.f.f.f.) O $ 4 4 < 4 ; o y q.f.t.t.t.t.t.7.q.t.f.' = o O       ",
"                    O O O O 9 V ' ............ .3.t.t.t.t.t.t.t.t.t.r.8.3. .) / / ' X.7.w.f.t.t.t.t.t.f.7.r o = ; O $ O $ T t.t.t.t.t.t.t.w.w.f.5.0 o O o       ",
"                      o O O o O $ u A '  .X.X...2.t.t.t.t.t.t.t.t.t.t.f.f.t.r.r.r.t.t.t.t.t.t.t.t.t.t.t.t.1.k - ; r u k _ w.t.t.t.8.w.t.0.t.f.7.i o O O         ",
"                            O O X O O , u A ' | X.7.t.t.t.t.t.t.t.t.t.w.8.t.t.t.t.t.t.t.t.t.t.t.t.t.t.t.t.t.w.5.2.q.w.t.f.t.t.t.t.8.w.t.7.r.7.f O o o           ",
"                                O O O O O @ % y C T ..3.7.0.0.t.t.t.r.X...8.f.t.t.t.t.t.t.t.t.t.t.t.t.t.t.t.t.f.f.t.t.t.t.t.t.t.t.t.t.t.f.w.B o o O             ",
"                                      O O O o o O $ 9 l A (  .*.7.w.t.0.7.w.t.t.t.t.t.t.t.t.t.t.t.t.t.t.t.t.t.t.t.t.t.t.t.t.t.t.t.t.t.t.t.0.y o o               ",
"                                            O o O o o o * ; 0 x ) *.w.t.w.t.t.t.t.t.r.t.t.t.t.t.t.t.t.t.t.t.t.t.t.t.t.t.t.t.t.t.t.t.t.t.t.0.0 o o               ",
"                                                    o o O o o o 9 [ 8.t.t.t.r.r.t.t.t.t.t.t.r.r.t.t.t.t.t.t.t.w.X.w.t.t.t.t.t.f...*.f.t.t.2.; o o               ",
"                                                      o o o o o O V 7.t.t.t.X.X.t.t.t.t.t.t.w.7.7.t.t.t.t.t.f.7.l 5.t.t.t.t.t.f.Z Z t.t.t.D o o o               ",
"                                                    o o o o X o X 2 } q.w.8.x A t.t.t.t.t.t.w.V ..f.t.t.t.t.t...- T f.t.t.t.r...y ; Y | D , o O O               ",
"                                                  o o * q g a * O O y | X.} 9 t 7.q.t.t.t.w...3 _ f.f.f.t.t.2.T = r ..7.q.5.Z - O o o $ $ o O O                 ",
"                                                o o : h J F J F 6 O O 9 l r @ @ 3 k ' 7.7.T l * 9 V [ 7.7.' y $ o O $ 0 c u O o o O o o o o o                   ",
"                                              O O - b F J Q ~ Q s O O O X X X O X O $ t u $ O O o o $ y i ; o o O o o o o o o O O                               ",
"                                            O O O a F F F H W ~ J O O O O $ 0 $ O O O X X O @ * : O o o o o o o o o o o @ - o o o                               ",
"                                            O O w W K W ~ @.~ K v O O O X $ 3 ; O O O O O O * * 5 * O O O o o - y f - o = V - o                                 ",
"                                          O O O 6 s s K W Q ~ @.N O O 2 9 3 - $ @ O O O O O O O o o O O O - y D ( T 9 o o C f o o                               ",
"                                            O O O O : s F H F N w O O $ l A C c l k l x c k @ X r V = O O - ; - $ o o o o f } ; o o o                           ",
"                                            o o O * $ O X O * = * X o X O @ @ * $ * $ - , = O o i 2.3 o * - ; 9 y l x ; X 2 3.T 3 = o o                         ",
"                                          O o ; z L i u x ; X X o O * * X O O $ 3 9 9 9 3 3 $ o < x - o - 0 y i f i 0 @ o * y V | U $ o o O                     ",
"                                        O O o ; x y @ < X.) * O O * : * O O O @ - 3 0 r 0 3 $ O o o O o o O o o o o o * o o o o 2 - o $ O O                     ",
"                                      O O 2 3 @ X o O O l C $ X o * * > > * * * O O o o O O O o = V C @ * * * * > * > w * o o o o 4 f f $ O                     ",
"                                      O o A X.T A A x $ o X O y 3 o @ 5 6 6 5 5 > > : : > : O O : V B @ o > 6 6 > > > : @ O O o $ y 0 $ O O o                   ",
"                                      o - ' 1.2.1.2.X.) C l x [ B o O > 5 6 6 6 5 6 6 6 6 > * O O O o X O O = O O @ @ $ & O - r = o $ $ O O O                   ",
"                                      O $ T 3.1.1.1.1.7.w.q.} l r o O O O * O * O * * O @ O @ O @ O @ @ @ # @ % % & & 1 1 + 9 5.*.[ E 0 o O                     ",
"                                      O o r | 1.1.2.X.8.7.X.t.' : X @ + # # % # @ # % % # & # # & & & & & & & & & & % % O O ; [ _ V 4 O O                       ",
"                                        o O y ' 1.2.| T 8.D c ) 4 X O + + & & # # & 1 & # & & & & % # % # + @ @ = , h ! j O O $ O o o o                         ",
"                                          o o ; x ) ..l Z 7.A $ O O $ @ @ @ @ # @ + + + @ # @ @ $ = , e h h N P ~ +.u.Z.%.O O o o                               ",
"                                            O o o $ y y O i l O O 7 N N b b F H G F F F G H Q ^ ~ o.%.p.p.:.;.:.,.u.p.N.i.: o                                   ",
"                                                o o o o o o o = w N H P J P O.:.:.:.:.:.:.:.,.y.>.:.:.:.:.:.:.;.@.;.u.M.<.- o                                   ",
"                                                  O o - w 8 8 e m J K J H J ! +.#.:.-.;.:.#.#.;.^ ~ O.#.;.@.! h e d j I d o o                                   ",
"                                                    o $ 7 : @ o @ 8 g b d q , : q n P O.@.O.K a = @ : 6 p e = = : X o X o O                                     ",
"                                                      o o   o o X o O @ = t V k o o O , w 7 @ o X O o o @ 0 V ..B X O O o                                       ",
"                                                            O o O O o O 2 l M r o o o o o o   o O X + O $ r l i ; X O @ O O                                     ",
"                                                            o O + + X X o o X o O $ % O o *   o O O + o o o X X O # % % O O O                                   ",
"                                                            @ o O O o + O @ # # % % % @ O O     O O O O O + @ @ @ # # @ O O O                                   ",
"                                                            o o O O O O O O O O O O o O O o     O O O O o O O O O O O O o O O                                   ",
"                                                                    o O O O O O O O o                       o O                                                 "
};
