/* XPM */
static char *w_11_resized[] = {
/* columns rows colors chars-per-pixel */
"80 80 161 2 ",
"   c None",
".  c #171614",
"X  c #181716",
"o  c #1A1917",
"O  c #1B1A18",
"+  c #221A16",
"@  c #291C17",
"#  c #221E1B",
"$  c #281F1A",
"%  c #1F201E",
"&  c #23211E",
"*  c #2C211C",
"=  c #33241D",
"-  c #1F2121",
";  c #242422",
":  c #292622",
">  c #2D2925",
",  c #222628",
"<  c #252A2D",
"1  c #2C2B2A",
"2  c #312C26",
"3  c #3C2B23",
"4  c #322E29",
"5  c #35312C",
"6  c #3A342D",
"7  c #262C30",
"8  c #292E32",
"9  c #2F3234",
"0  c #333434",
"q  c #3A3731",
"w  c #3E3A33",
"e  c #353738",
"r  c #3B3C3C",
"t  c #423D36",
"y  c #433F38",
"u  c #46413A",
"i  c #4A453D",
"p  c #4D483F",
"a  c #50483F",
"s  c #3C3E42",
"d  c #3E4044",
"f  c #3F4348",
"g  c #414347",
"h  c #494641",
"j  c #4F4941",
"k  c #43464A",
"l  c #47494E",
"z  c #4A4C4F",
"x  c #534D44",
"c  c #575147",
"v  c #585147",
"b  c #57524A",
"n  c #5B544A",
"m  c #5F584E",
"M  c #4A4D52",
"N  c #4C5055",
"B  c #4E535A",
"V  c #555657",
"C  c #5B5751",
"Z  c #5D5953",
"A  c #52555B",
"S  c #60594E",
"D  c #645D52",
"F  c #645F59",
"G  c #676056",
"H  c #6A6256",
"J  c #6D6559",
"K  c #736A5D",
"L  c #555B64",
"P  c #595E65",
"I  c #595F68",
"U  c #5A6067",
"Y  c #5C626A",
"T  c #5E6670",
"R  c #6D6961",
"E  c #60666E",
"W  c #66696E",
"Q  c #776E60",
"!  c #786F61",
"~  c #7C7264",
"^  c #78736B",
"/  c #606771",
"(  c #646C75",
")  c #686F7A",
"_  c #6B727B",
"`  c #7F7971",
"'  c #71767D",
"]  c #807667",
"[  c #817768",
"{  c #857A6B",
"}  c #897E6E",
"|  c #8A7F70",
" . c #8A806F",
".. c #8D8272",
"X. c #89837A",
"o. c #8E887E",
"O. c #918675",
"+. c #948877",
"@. c #968A79",
"#. c #998D7B",
"$. c #9D917F",
"%. c #6F7681",
"&. c #707782",
"*. c #747B85",
"=. c #777D88",
"-. c #787E89",
";. c #7F8184",
":. c #7B818C",
">. c #7F8591",
",. c #8F8980",
"<. c #85878B",
"1. c #948C81",
"2. c #979187",
"3. c #9F9280",
"4. c #9D968C",
"5. c #808792",
"6. c #838A95",
"7. c #868D99",
"8. c #8B919C",
"9. c #94989E",
"0. c #A29582",
"q. c #A69986",
"w. c #A89B87",
"e. c #AB9D8A",
"r. c #A39A8C",
"t. c #AEA18D",
"y. c #B1A38F",
"u. c #AEA494",
"i. c #ADA69B",
"p. c #B4A691",
"a. c #B7A893",
"s. c #BAAB96",
"d. c #BDAE99",
"f. c #B2AB9F",
"g. c #BFB09A",
"h. c #8E95A0",
"j. c #9097A2",
"k. c #9A9EA4",
"l. c #989EA8",
"z. c #9CA1A8",
"x. c #B7AFA4",
"c. c #BDB5A9",
"v. c #C0B19B",
"b. c #C6B9A5",
"n. c #C8BAA7",
"m. c #C5BBAD",
"M. c #CABDAB",
"N. c #C7BFB1",
"B. c #C9BFB0",
"V. c #CCC0AE",
"C. c #CEC3B3",
"Z. c #CFC7B9",
"A. c #D0C5B4",
"S. c #D4CABB",
"D. c #D8CEBE",
"F. c #BCC0C6",
"G. c #BFC3C9",
"H. c #C3C7CE",
"J. c #D7CEC0",
"K. c #D8CFC1",
"L. c #DAD1C3",
/* pixels */
"                                                                                                                                                                ",
"                                                                      O O O O O O O O O O O O o                                                                 ",
"                                                        o O O O O o o O X o o o o o o o o o o o o O o O O O O                                                   ",
"                                              O O O O O o o o O & ; > 5 w i j x v v v x x x x y q 4 ; O o . o O O O O                                           ",
"                                        X . % % o o O : 5 u v H ~ {  .+.@.@.#.#.#.$.w.y.a.s.d.a.p.u.r.1.^ b w ; o o o O O o                                     ",
"                                  % O O X . % & w n K [ O.#.#.$.#.#.#.#.#.#.3.w.y.a.v.v.v.v.v.v.g.v.v.b.C.C.m.i.X.C 0 O o o o O O                               ",
"                              O X X X % 5 a J  .+.$.#.#.#.#.#.#.#.@.@.$.w.y.s.g.v.v.v.d.v.v.v.s.d.d.g.g.d.v.b.C.D.D.m.4.R w O o O O O                           ",
"                          o O o % 2 a K O.#.#.#.#.#.#.#.#.#.@.#.#.0.t.s.g.g.g.v.d.v.d.v.v.s.e.$.e.d.g.g.d.g.g.g.v.M.S.L.J.m.2.Z : o o O O                       ",
"                      O O o O 5 S  .#.#.#.#.#.#.#.#.#.#.#.@.$.0.y.d.g.g.g.g.g.g.g.g.g.g.v.a.#.#.$.a.v.v.v.v.v.v.g.g.v.n.S.L.L.D.x.R : o O O                     ",
"                  O o o o 4 D ..$.#.#.#.#.#.#.#.#.#.#.#.$.t.a.g.v.v.g.g.g.g.g.g.g.g.g.g.v.d.e.$.w.v.v.v.v.v.t.a.v.g.g.d.g.n.S.L.L.J.i.b O o O O                 ",
"                O o o & x } #.#.#.#.#.#.#.#.@.#.#.#.$.t.a.g.g.g.g.g.g.g.g.g.g.g.g.g.g.g.v.d.v.d.v.p.$.$.+.D S c K #.s.d.g.g.v.V.D.L.L.C.^ ; O O O               ",
"              o O o : G +.#.#.@. .O.#.#.#.#.#.#.$.t.s.g.g.g.g.g.g.g.g.g.g.g.g.g.g.g.g.g.d.v.v.y.{ a t t t t K #.! D Q r.g.g.g.g.b.S.L.L.J.,.; O o O             ",
"            O O O : K #.#.#.#...! ~ #.#.#.@.$.t.s.g.g.g.g.g.g.g.g.g.g.g.v.g.g.g.d.g.g.g.g.g.y.S t 3 6 6 6 5 a a.v.s.w.e.d.g.g.g.g.b.C.K.L.L.,.; o O             ",
"            O o & H #.#.#.#.#.O. .O.#.#.#.t.s.g.g.g.g.g.g.g.g.g.g.g.g.a.y.d.g.g.g.g.g.g.g.v.$.w 3 6 6 6 5 t K v.v.s.$.3.s.g.g.g.g.g.g.C.J.L.J.` # O O           ",
"          O O O c @.#.#.#.#.} ~  .#.#.$.y.g.g.g.g.g.g.g.g.g.g.g.g.g.s.$.$.a.g.g.g.g.g.g.g.g.y.D 6 6 6 6 p O.s.p.#.w.e.t.d.g.g.g.g.g.g.g.V.K.L.Z.Z O O o         ",
"        o O o 6  .#.#.#.#.@.] ~ ~ #.3.a.g.g.g.g.g.g.g.g.g.g.g.g.g.g.d.t.t.s.g.g.g.g.g.g.g.g.v.a.+.K J ] #.$.w.! 6 D d.v.v.g.g.g.g.g.g.g.g.V.L.L.x.5 o O         ",
"        O o & K #.#.#.@.#.#.O.]  .$.a.v.d.v.d.v.g.g.g.g.g.g.g.g.v.d.v.d.d.v.v.v.v.v.v.v.v.v.v.v.v.v.v.a.$.} } ] v K $.w.e.y.a.v.g.g.g.g.d.g.V.L.L.` O o O       ",
"      o O o u +.#.#.#.#.+.[ #.@.#.y.v.d.v.d.v.d.g.g.g.g.g.g.g.g.v.v.d.v.v.d.v.v.v.v.v.v.v.y.$...~ G S v x x v S G K K K ]  .#.y.g.g.g.g.g.g.v.C.L.c.q o O       ",
"      O O ; ~ $.#.#.@.$.] J #.#.$.s.v.v.v.d.v.d.g.g.g.g.g.g.g.g.d.v.d.v.d.v.v.v.s.y.#.~ D n n G !  .@.q.t.y.a.a.v.s.v.d.d.v.v.d.g.g.g.g.g.g.g.v.Z.K.R o O o     ",
"    O O o u +.@.#.#.#.#.D H $.@.q.v.v.d.d.v.d.v.g.s.g.g.g.g.g.g.v.d.v.d.v.d.p.#.] J K } $.y.a.v.v.v.v.v.v.v.v.v.v.v.v.v.v.d.v.v.g.g.g.g.g.g.g.g.b.L.4.% O O     ",
"    O o O K #.#.#.@.#.#.a H #.#.$.d.d.v.v.v.d.v.y.#.g.g.g.g.g.g.d.v.d.v.v.y.$.$.e.a.v.v.v.v.v.d.v.v.v.d.v.d.d.v.v.d.v.d.d.v.d.v.g.g.g.g.g.g.g.g.v.A.c.1 o O     ",
"    O o 5  .#.#.#.#.#.+.u J $.#.$.s.v.d.d.v.v.d.~ #.a.y.s.g.g.g.v.d.d.v.v.d.v.v.v.v.v.v.v.d.d.v.v.v.v.d.d.v.v.d.v.v.d.v.v.d.d.v.g.g.g.g.g.g.g.g.g.b.C.w X O     ",
"  O O o p @.#.#.#.#.$.O.5 K $.@.$.y.v.v.v.v.v...v y.$.#.t.d.g.g.v.d.v.d.v.d.d.v.d.v.v.v.d.v.d.v.d.v.d.v.v.d.v.v.d.v.v.d.d.v.v.d.g.g.g.g.g.g.g.g.g.v.V.h X O     ",
"  o o O D #.#.#.#.@.$. .5 D #.#.#.$.p.v.d.v.y.u  .s.$.+.t.g.g.g.d.v.d.v.d.v.v.d.v.d.v.d.v.d.v.d.v.d.v.d.d.v.v.d.v.d.d.v.d.d.d.v.g.g.g.g.g.g.g.g.v.v.m.h X O     ",
"  O o & K $.#.#.#.@.#.O.5 i @.#.#.#.$.s.g.g.~ p a.g.a.t.s.g.g.g.v.v.v.v.d.v.d.v.d.v.d.v.d.v.v.v.d.v.d.v.v.v.d.v.d.v.v.y.$.0.p.v.g.g.g.v.g.d.s.p.p.s.m.h o O     ",
"  O O & ] #.#.#.#.#.#.#.p & u H  .@.#.$.a.g. .m s.g.g.g.g.g.g.g.v.d.v.v.v.d.v.d.v.d.v.d.d.v.d.v.v.d.v.v.d.d.v.d.v.d.v.e.#.#.w.v.g.g.g.s.t.0.$.#.#.3.u.y o O     ",
"  O o : { $.#.#.#.#.#.#.{ w O O = v  .#.$.p.s.~ t.g.g.g.g.g.g.g.d.v.v.v.v.v.v.s.d.v.v.v.v.v.d.v.d.v.v.v.v.d.v.v.v.v.v.y.#.$.y.v.g.d.y.0.#.#.#.#.@.#.1.4 o o     ",
"  O O : { #.#.#.#.@.#.#.@.O.H 2 O o u ..#.$.p.y.0.g.g.g.g.g.g.a.y.y.y.y.a.s.d.v.v.v.v.v.s.v.v.v.v.v.v.v.v.v.d.s.w.+.{ { 0.a.v.v.a.w.#.#.#.$.#.+.#.3.X.& o o     ",
"  O o ; [ $.#.#.#.#.$.O.~ { @.] 4 o % m #.#.$.t.p.d.g.g.g.d.t.#.#.#.#.#.#.$.q.e.y.a.s.a.#.} [ { { } { [ ~ H S n S K @.y.v.v.v.y.3.#.#.@.{ G j u i F F o o o     ",
"  O o & K #.#.#.#.#.@.+.] } @.$.n o o u #.#.#.$.a.g.g.g.s.t.#.#.#.#.#.#.#.#.#.#.#.#.$.0.r.0.#.} ] K K K ! { @.w.a.v.v.d.v.v.y.#.#.#.~ p : O o o o O O . . o     ",
"  o O O G $.#.@.@. . .+.@.#.#.#.v o o p #.#.#.@.$.s.d.g.y.#.#.#.#...K n c n J ] O.@.#.#.#.#.0.t.d.v.v.v.v.v.v.v.v.v.v.v.v.t.#.#...x & O O O # & & O O O .       ",
"  O O o p #.#.#.+.~ ~  .#.@.#.+.t o o S #.#.#.#.$.t.d.g.t.@.#.#.! q O o o o O * 4 p D { @.#.#.#.0.p.d.v.v.d.v.v.d.v.d.v.t.$.#.K 6 O O O & 2 5 6 5 O O O .       ",
"    O o 5 ..$.#.+.] !  .$.@.$.~ ; O > [ #.@.#.#.#.3.s.g.w.#.$.[ > o O # # # O O o o O : t D } #.#.$.t.g.g.g.g.g.g.g.g.p.$.+.G : o O # 2 6 6 6 6 6 : O O o       ",
"    O O & Q @.@.#.O.O.@.@.#.+.i o O S #.#.#.#.#.#.#.p.g.q.@.@.j o O & 5 5 5 4 2 & $ O O o O > a ~ +.$.p.g.g.g.g.g.g.d.0.+.S & o O * 4 6 6 6 6 6 6 2 O O o       ",
"    O O O c @.$.#.#.$.@.#.$.K & & c +.#.#.#.#.#.@.#.e.g.w.@...5 o O > 6 6 6 6 6 6 6 2 * & O o O & p } w.g.g.g.g.g.g.p.$.H & o O : 5 6 6 6 6 6 6 6 > O O o       ",
"      O O >  .@.$.@.@.$.@.@.x o p +.#.#.#.#.#.#.#.#.e.g.e.#.} : o O 5 6 6 6 6 6 6 6 5 t 5 2 & O o o t +.d.g.g.v.g.g.t. .5 o o : 6 6 6 6 6 6 6 6 5 : O O o       ",
"      O O O S $.@.#.#.#.#.@.u O K $.@.@.#.#.#.@.#.#.e.g.y.$.{ : o O 4 6 6 6 6 6 6 6 6 6 6 6 6 : O O o K g.g.d.s.g.g.p.K O o & 5 6 6 6 6 6 6 6 4 2 $ O O o       ",
"        O O 4  .$.@.@.#.#.@.n O G O.] } @.#.#.#.#.@.t.g.s.3...5 o O 2 6 6 6 6 6 6 6 6 6 6 6 4 > & O o G v.v.s.e.d.g.s.~ & o O 2 6 6 6 5 5 4 4 > & O o o .       ",
"        O O O a @.#.#.#.#.$.{ 4 t ~ ! ~ +.#.#.#.#.#.y.g.g.w.#.x o O & 6 t 6 6 6 6 6 6 5 3 2 > : O o O ] v.g.g.g.g.v.v.w.6 o O # ; : > 2 > > : & O O o o o o     ",
"          O O & J #.#.#.#.@.$.Q 4 c ~ { +.#.#.#.#.$.s.g.g.s.$.] : o O = 5 6 6 6 6 5 4 > > > : O O o u y.v.v.a.w.w.+.[ +...q o o O O + # # + O O O # > o o o     ",
"          O O o : ~ $.#.@.$.@.$.] u v O.$.#.#.#.#.w.d.g.g.g.t.#.n o o O & 2 2 2 2 2 > : : & O O O q 3.v.g.@.i > : ; # & x +.J w & O . . o . O O w K K O o O     ",
"            o O o > K #.$.@.$.@.#.O.D v ] @.$.@.#.t.g.g.g.g.s.w.O.i O O O & : : & : & $ O o o # j q.g.v.t.5 O * & ; 5 & X S d.y.+.Q m x j n J ..e.d.] O O O     ",
"              O O o : D +.$.@.#.#.#.#. .K K  .@.$.s.g.g.g.g.g.s.w. .p & . o O O O O O o o & w ~ a.g.g.v. .O & 5 6 5 6 4 o 5 e.v.v.v.d.d.d.d.g.v.v.v.S o O o     ",
"                o O o % u ~ @.$.#.#.#.#.@. .{ { $.d.g.g.g.g.g.g.d.t.@.K u : # o O # ; 5 x { e.v.g.g.g.g...% & 6 6 5 6 4 O 5 t.v.g.g.g.v.g.p.p.d.v.$.1 o O       ",
"                    O o O & i Q O.#.$.#.#.#.#.@.w.d.g.g.g.g.g.g.v.d.a.y.$. .! K K ~ ..0.a.g.v.g.g.g.g.g.y.u . : 2 # & & O G d.v.g.g.g.g.g.s.s.g.p.x o O O       ",
"                      O O O O & 6 m ] +.$.#.#.#.e.g.g.g.g.g.g.g.d.v.v.d.v.d.s.s.s.s.d.v.v.g.d.g.g.g.g.g.v.$.p & & 4 t u K a.v.v.d.p.s.d.a.s.v.s.S O O o         ",
"                          O O O O O & t S ] +.@.0.y.g.g.g.g.g.g.v.v.d.d.a.d.d.d.v.g.g.g.g.g.g.g.g.g.g.g.v.v.a.$.$.t.y.a.v.v.d.d.g.p.s.d.t.s.p.D O o O           ",
"                                X O o X X & w v K ..0.t.p.a.s.d.v.d.d.w.$.t.v.v.g.g.g.g.g.g.g.g.g.g.g.g.d.v.v.v.v.v.v.v.d.d.v.v.g.g.g.g.g.g.~ O O O             ",
"                                      O O o o o % > i D ~ +.$.w.t.g.g.t.$.p.g.g.g.g.g.g.g.g.g.g.g.g.g.g.g.g.g.g.g.g.g.g.g.g.g.g.g.g.g.g.g.d.x O O O             ",
"                                            o O o o o O ; 5 j G ..$.s.g.v.g.g.g.g.g.g.g.g.g.g.g.g.g.g.g.g.g.g.g.g.g.g.g.g.g.g.g.g.g.g.g.g.s.j . O               ",
"                                                  O O o O . X O u ..y.g.v.g.g.g.g.g.g.g.g.g.g.g.g.g.g.g.g.g.g.g.3.a.g.g.g.g.g.g.w.3.v.v.v.p.w o O               ",
"                                                      O O O O O O D t.g.g.v.t.$.g.g.g.g.g.g.g.y.t.g.g.g.g.g.g.a.m q.g.g.g.g.g.v.~ n d.v.v...& O O               ",
"                                                    O O o X X O X 4 O.s.g.s.J H g.g.g.g.g.g.d.Q ..v.g.g.g.g.g.t.5 J v.v.g.g.g.t.n ; Q #.} q o O o               ",
"                                                  O O O 1 r e - X % a #.$.$.u t t.g.g.g.g.d.$.u ~ v.v.g.g.g.t. .5 6 $.t.s.p.` q O O O : & o O O                 ",
"                                                O o % g U U L B 4 X % u H a & % t m @.p.p.@.H & w K @.p.a.$.m 4 O O & u G n & o o O o O O O O                   ",
"                                              o o & f L L T %.) f O X . % o O X X % > a v 5 % . O O : j m q O X O O O X O o O O O       o                       ",
"                                              O % e U U L T T ) U % X X % % 2 & X % . X o % % % % % X X o o o o O X O O O & % X O                               ",
"                                            O O 8 I U U ) &.&.( N % X % . % 6 2 X % X o o X % > 8 & % X o o o % 1 6 & O % v & O                                 ",
"                                          O O O 9 N B U T / ( &.P % . : 4 > % % % X % % X % % o O X X % % % q H  . .u o O v w X O                               ",
"                                          O O O % % 1 l T ( T U d % X : n J H n a p i a a a % . 5 p & X % > 5 6 > & % o X u Q & O O                             ",
"                                            O O . % % . % % % % % % % . % & : : & 4 4 5 q 5 % . a 0.w X % % & > 5 t p : O 4 $.m O O O O                         ",
"                                          O O % t m a w u : % . . . % % o o O & > 4 4 > > * % . 5 J 4 o & w i v m m j : X & S { { n O O O                       ",
"                                        % % . > D n : 1 #.{ % % % % , % O % O % > q u u u w & % X % o % O % O % o o o O O O O : c y O O O O                     ",
"                                      % . % : O % . . % v ] : . . % , , ; % % O % . % X . % % X % a a % O % - - - - , 9 % O O O O & 5 t O O                     ",
"                                      O O x ..J c c p # o O o 1 4 O % 7 8 8 7 < < , , , , , O X > Q K ; X , 8 8 7 < < 9 O O O o > c x 4 O O                     ",
"                                      O O ~ w.w.q.0.0.~ x u u { Q O X < 8 8 8 8 8 8 8 7 8 < - O O O O O O - , - ; O O # * O O & O O O O O O                     ",
"                                      O O Q w.0.0.0.0.w.y.y.+.S x O O # % - - - - - - - ; - O O O O + O + + + $ * * = 3 3 # 5 } J S D 4 O O                     ",
"                                      o o w O.w.0.0.0.e.p.w.d.+.4 X O + + $ $ @ + $ $ $ $ * $ + * : = = > = = = = = = * & O 1 0.w.| x O O                       ",
"                                        O O u ..q.0.#.{ p.~ D #.j X O + @ > = $ @ = 3 = = = 3 = > = = * @ @ $ + # ; 4 N r O # 5 > O o O                         ",
"                                          o O 4 D O.$.D J y.K 4 & X # O + + $ $ + + + + + + # + + + - > 0 e g N U _ 8.G.<.O O o O o                             ",
"                                            O o O > p v ; x K > X ; l M k g M N M M l l M M A P P W ' 9.k.6.6.7.8.h.z.H.k.; o                                   ",
"                                                O o o o o o o O > l I E I E =.7.7.7.7.7.7.7.j.j.8.7.8.8.8.6.7.7.6.8.l.F.z.: o                                   ",
"                                                  O O ; 9 1 1 e A Y Y Y I Y _ 5.7.7.5.6.7.6.6.7.-.-.5.6.7.>.=.U M A W <.V O O                                   ",
"                                                  O O ; 0 , ; # , r M A M s e 0 k Y _ >.5.-._ M 9 > 0 g A M 1 O & O O O O o                                     ",
"                                                    O o o o O X o o # # # 5 j y o O ; e l r ; o o O X X O > i { n o O O o O                                     ",
"                                                            O O O O O O 4 n H u O O o o o o o O O O O O # t n n 5 O O O O O                                     ",
"                                                            O O O + O o o o o o O $ * O O O   O O O o O o o o o O # * * O O O                                   ",
"                                                            O O O + + o + # $ $ $ * * + o O     O O + O O + + $ $ $ # $ O O O                                   ",
"                                                            o O O o O o O O O O O O O O O O     o O O O O O O O O O X O O O O                                   ",
"                                                                  O O O O O O O o O O O               O O o O o O O O                                           "
};
