/* XPM */
static char *w_12_resized[] = {
/* columns rows colors chars-per-pixel */
"80 80 160 2 ",
"   c None",
".  c #151413",
"X  c #181715",
"o  c #1A1917",
"O  c #1B1A18",
"+  c #231A16",
"@  c #221E1B",
"#  c #291F1A",
"$  c #1E201F",
"%  c #23211E",
"&  c #2D211C",
"*  c #32241D",
"=  c #1F2122",
"-  c #252422",
";  c #292622",
":  c #2D2A25",
">  c #232729",
",  c #25292C",
"<  c #2B2B2A",
"1  c #312C27",
"2  c #3D2B24",
"3  c #322E29",
"4  c #36322C",
"5  c #3A342D",
"6  c #272C30",
"7  c #282E32",
"8  c #2C3032",
"9  c #343435",
"0  c #3A3631",
"q  c #3D3933",
"w  c #30363A",
"e  c #37393C",
"r  c #3A3C3D",
"t  c #423D36",
"y  c #423F38",
"u  c #45413A",
"i  c #4A453D",
"p  c #4D483F",
"a  c #3B3E41",
"s  c #3E4144",
"d  c #414347",
"f  c #4A4742",
"g  c #4E4941",
"h  c #44464A",
"j  c #46494D",
"k  c #484B4F",
"l  c #534D44",
"z  c #514E49",
"x  c #565047",
"c  c #57524A",
"v  c #5B544B",
"b  c #5F584E",
"n  c #464B51",
"m  c #4B4E53",
"M  c #4D5156",
"N  c #4D535A",
"B  c #565657",
"V  c #5A5650",
"C  c #5F5B55",
"Z  c #51555A",
"A  c #55595F",
"S  c #595B5C",
"D  c #61594F",
"F  c #645D52",
"G  c #635F58",
"H  c #676054",
"J  c #6A6256",
"K  c #646059",
"L  c #6E665A",
"P  c #70675A",
"I  c #726A5D",
"U  c #555B62",
"Y  c #595D63",
"T  c #585F68",
"R  c #5C6167",
"E  c #5D636B",
"W  c #6D6861",
"Q  c #61666D",
"!  c #776E60",
"~  c #786F61",
"^  c #7C7364",
"/  c #7D7568",
"(  c #646B74",
")  c #686C73",
"_  c #676F79",
"`  c #696F78",
"'  c #6B727C",
"]  c #70767F",
"[  c #787A7D",
"{  c #807667",
"}  c #817768",
"|  c #857A6B",
" . c #897E6F",
".. c #837D75",
"X. c #8A806F",
"o. c #8D8271",
"O. c #918675",
"+. c #948877",
"@. c #968A79",
"#. c #998D7B",
"$. c #9D917E",
"%. c #6F7681",
"&. c #747A83",
"*. c #787E87",
"=. c #767D88",
"-. c #797F89",
";. c #7B828D",
":. c #7F8590",
">. c #928B80",
",. c #9F9280",
"<. c #9D978C",
"1. c #808792",
"2. c #828995",
"3. c #868D99",
"4. c #888F9B",
"5. c #8F959E",
"6. c #939599",
"7. c #A29583",
"8. c #A69986",
"9. c #A89B87",
"0. c #AB9D8A",
"q. c #A69C8E",
"w. c #A39C91",
"e. c #AEA08C",
"r. c #B1A38F",
"t. c #ABA499",
"y. c #B4A691",
"u. c #B6A893",
"i. c #BAAB96",
"p. c #BDAF99",
"a. c #BFB09A",
"s. c #8D94A0",
"d. c #9097A2",
"f. c #949AA5",
"g. c #999EA5",
"h. c #A0A5AD",
"j. c #A5A8AD",
"k. c #B4ADA1",
"l. c #B9B1A4",
"z. c #BEB6AA",
"x. c #A9ACB1",
"c. c #C0B19B",
"v. c #C3B6A2",
"b. c #C6B9A5",
"n. c #C8BBA7",
"m. c #C0B8AB",
"M. c #CABDAA",
"N. c #C7BFB2",
"B. c #CCC0AE",
"V. c #CCC2B2",
"C. c #CFC6B8",
"Z. c #D2C7B7",
"A. c #D3C8B7",
"S. c #D0C7BA",
"D. c #D4CABB",
"F. c #B8BCC3",
"G. c #C1C5CB",
"H. c #D7CEC0",
"J. c #D8CFC1",
"K. c #DAD1C3",
/* pixels */
"                                                                                                                                                                ",
"                                                              O O O O O O o O o O O o o o O o O O O o O                                                         ",
"                                                    O O o O o o o o o O O O % - ; ; ; & - % $ O O O o o X O o o O                                               ",
"                                            O O O o o o O $ ; 4 t p v F I ^ { } | | X.X.o.@.O.| / L V u 4 % o o o o O o O                                       ",
"                                    O O $ o o o O ; 5 g F ! | o.@.#.$.#.$.#.#.$.$.r.u.i.c.c.c.c.a.v.b.m.l.w...C t % O O o O O                                   ",
"                                X $ O O o & q p P | O.#.#.$.#.$.#.#.#.#.$.7.e.u.i.c.c.c.c.c.c.c.a.a.a.a.c.M.Z.D.N.t.[ z : O o o O O                             ",
"                            O O o o % q b ^ O.#.$.#.#.#.@.#.#.@.@.#.$.0.y.p.c.c.c.c.c.c.c.i.y.r.u.a.a.a.c.a.a.v.B.D.K.S.k.o.f - X X O O                         ",
"                        O o o O 1 x ^ @.#.#.#.#.#.#.#.#.#.#.@.$.7.e.i.a.c.a.a.a.i.c.c.c.c.u.$.@.,.i.a.a.c.a.a.a.c.c.M.S.K.K.S.t.W 3 O O O O                     ",
"                    O O o O 3 F X.#.#.#.#.#.#.#.#.#.#.#.#.$.8.r.p.a.a.a.a.a.a.a.a.a.a.a.c.u.$.#.$.u.c.c.c.c.c.c.c.c.a.c.n.S.K.K.K.l.W ; o O O                   ",
"                  O o o ; v o.#.#.#.#.#.#.#.#.#.#.#.#.$.9.u.a.a.c.a.a.a.a.a.a.a.a.a.a.a.p.c.u.r.u.c.c.c.c.$.{ o.0.p.c.a.p.c.M.D.K.K.K.w.u o X O                 ",
"                O O O q ^ #.#.@.#.#.#.#.#.#.#.#.#.$.e.u.c.c.a.a.a.a.a.a.a.a.a.a.a.a.a.a.c.p.c.c.r.X.I I D i J D l F @.i.c.p.c.c.Z.D.K.K.z.V X O O               ",
"              O o O p o.$.#.#.o.} X.@.#.#.@.#.$.r.u.a.a.a.a.a.a.a.a.a.a.a.a.a.a.a.a.a.a.c.c.c.o.p 5 4 4 2 t F u.e.+.} 7.a.c.c.c.c.M.D.K.K.V.C O o O             ",
"            O o o p O.#.#.#.#.o.^ | #.#.#.$.e.u.c.a.a.a.a.a.a.a.a.a.a.a.a.a.a.a.a.a.a.a.p.c.7.u t 5 5 5 2 4 l y.c.p.9.9.i.a.a.a.p.a.n.S.K.K.V.c o O O           ",
"          o O o q X.#.#.#.#.O.X.O.@.#.#.$.u.a.a.a.a.a.a.a.a.a.a.a.a.p.0.9.i.c.a.a.a.a.a.a.c.$.t 2 5 5 5 t D $.c.a.u.7.$.i.c.a.a.a.a.p.v.S.K.K.z.y o o O         ",
"          O o ; ^ $.#.#.#.@.{ ^ | #.#.9.a.c.a.a.a.a.a.a.a.a.a.a.a.a.i.$.$.u.c.a.a.a.a.a.a.a.p.X.p u q i P $.r.#.F { y.i.a.p.a.a.a.a.a.a.v.C.J.K.<.: o O         ",
"        O O O v #.#.#.#.#.@.{ ~ | #.e.p.c.a.a.a.a.a.a.a.a.a.a.a.a.a.a.u.u.c.c.a.a.a.a.a.a.a.a.c.i.$.$.e.0.$.$.{ t J p.c.c.c.c.c.a.a.a.a.a.v.Z.K.H.K o O O       ",
"      O o O 5 o.$.@.$.@.@.@.O.X.O.9.a.a.a.a.a.a.a.a.a.a.a.a.a.a.a.a.a.a.a.a.a.a.a.a.a.a.c.c.a.p.i.e.$.O.I F D F v H I ^ | +.7.u.a.a.a.a.a.a.v.S.K.l.: O O       ",
"      O O O L $.@.#.@.$.X.^ $.#.$.u.a.a.a.a.a.a.a.a.a.a.a.a.a.a.a.a.a.a.a.a.a.a.c.c.a.y.7. .P b x x v F L ^ | o.+.#.$.$.$.9.0.u.a.a.a.a.a.a.a.v.D.D.K o O o     ",
"    O O o 0 o.$.#.#.@.$.J I $.@.8.a.a.a.a.a.a.a.a.a.a.a.a.a.a.a.a.a.a.a.a.a.a.p.0.o.P F F L | #.9.r.i.c.c.c.c.c.c.c.c.c.c.c.c.c.a.a.a.a.a.a.a.a.B.K.<.$ o O     ",
"    O o O H $.@.#.@.$.@.l ~ $.#.e.a.a.a.a.a.a.a.p.r.a.a.a.a.a.a.a.a.a.a.p.p.7. ./  .,.e.p.a.c.c.c.c.c.c.i.c.c.c.c.c.c.c.c.p.c.c.a.a.a.a.a.a.a.a.c.S.z.4 o O     ",
"    O o : X.#.#.@.$.@.o.q ^ #.#.9.c.a.a.a.a.a.a.$.$.c.a.c.a.a.a.a.p.a.a.a.u.e.u.a.c.c.a.a.a.a.a.c.c.i.c.c.c.c.c.p.c.c.p.c.p.c.p.a.a.a.a.a.a.a.a.c.n.C.f X O     ",
"  o O o p @.#.#.$.@.$.X.5 ^ $.#.$.u.a.a.a.a.c.e.H 9.e.8.u.a.a.c.a.a.a.a.a.a.c.a.a.a.a.a.a.a.a.a.c.c.c.c.i.c.c.i.c.c.p.c.p.c.p.c.a.a.a.a.a.a.a.a.a.c.C.v X O     ",
"  O O O H #.#.@.#.#.$.| 4 ^ $.@.$.e.a.a.a.a.a.J P u.#.#.9.c.a.p.a.a.a.a.a.a.a.a.a.a.a.a.a.a.a.a.i.c.c.c.c.c.i.c.p.c.c.p.c.c.c.p.a.a.a.a.a.a.a.a.a.a.B.G X O O   ",
"  O o % ^ $.#.#.#.@.$.| : P $.#.@.$.r.a.a.c.@.t $.c.$.#.e.c.a.a.a.a.a.a.a.a.a.a.a.a.a.a.a.a.a.a.c.c.i.c.c.c.c.c.c.p.c.c.r.r.i.c.a.a.a.a.a.a.a.a.a.a.B.K X O o   ",
"  O o :  .#.#.#.#.#.#. .: i X.@.$.$.$.e.c.c.F D c.c.p.u.p.c.p.c.a.a.a.a.a.a.a.a.a.a.a.a.a.a.a.a.a.a.a.a.a.a.a.a.p.c.c.e.#.#.9.c.a.a.a.a.p.y.e.8.8.8.v.G X O     ",
"  O X 4 o.#.#.#.#.#.#.@.p @ 4 p P O.#.$.e.c.O.H u.c.c.c.a.a.c.p.a.a.a.a.a.a.a.a.a.a.a.a.a.a.a.a.a.a.a.a.a.a.a.c.c.p.c.r.#.#.8.p.a.a.a.y.7.$.@.#.#.#.q.f X O     ",
"  O o 4 O.#.#.#.#.#.#.#.X.p % X $ u } $.$.e.p.o.9.c.a.a.a.a.c.c.a.p.a.a.a.a.a.a.a.a.a.a.a.a.a.a.a.a.p.a.a.c.c.c.c.c.u.9.#.9.u.c.a.i.8.$.@.#.#.$.#.#.<.4 o o     ",
"  O o 4 O.#.#.#.#.#.#.@.O.+.^ 0 X o 5 | #.#.e.u.9.a.a.a.c.c.i.r.0.8.8.9.e.y.u.p.a.a.a.p.y.r.u.i.i.p.p.p.u.r.9.#.} P P | e.p.c.c.r.,.@.#.$.+.| } / O.>.; X O     ",
"  O o 1 o.#.#.#.#.#.#.X.^ | #.X.4 X O D #.#.#.e.u.c.a.a.a.u.$.#.#.#.#.#.#.#.,.,.8.0.r.r.7.| I J F F D v x x x D ^ @.r.c.c.c.p.9.#.#.#.X.F t : % - 4 u O . X     ",
"  O O - } #.#.#.#.#.#.O.| X.#.#.p o o i #.#.#.#.r.c.a.a.p.$.#.#.#.#.@.@.o.@.#.#.#.#.#.$.,.8.0.0.8.$.$.,.7.0.u.c.c.c.c.p.c.i.8.#.$.o.b : O o o O O O O X X X     ",
"  o O O P #.#.#.@.| | @.$.#.#.#.i o O x #.#.#.#.$.u.c.c.r.#.#.#.@.^ f 0 4 0 i b ! o.@.#.#.#.#.7.r.a.c.c.c.c.c.p.c.p.p.c.p.8.#.#.! 5 O o O @ : 1 : O O O X X     ",
"  O O o c #.#.#.X.^ ~ X.#.#.#.X.4 X $ P #.#.#.#.#.9.c.c.8.#.#.@.b % X X O X X O O : t D } @.$.#.#.0.i.c.c.p.c.c.p.c.c.c.9.#.@.D - o O @ : 4 5 5 5 - X O o       ",
"    O o 0 O.#.#.@.{ ^ X.#.#.$.J O O 0 o.#.#.#.#.#.$.u.a.8.@.$.I % o O % ; & % O + o X O - t J  .#.#.9.p.a.a.a.a.a.a.c.r.#.O.l O O O % 3 5 5 5 t 2 1 O O o       ",
"    o O % ^ $.#.#.@.@.#.#.#.X.4 X & ~ #.#.#.#.#.#.#.r.a.8.#.@.u X O - 5 5 5 5 4 1 ; @ O o o O : l | #.0.a.a.a.a.a.a.p.7.@.p O o + ; 5 5 5 5 5 5 5 3 O O o       ",
"    O O O v #.#.#.#.#.#.#.#.D O ; P #.#.#.#.#.@.#.#.e.a.8.#.o.: o O 1 5 5 5 5 5 5 5 5 3 ; @ O o O : L $.p.a.a.a.a.a.y.#.F O o O : 5 5 5 5 5 5 5 5 1 O O O       ",
"      O X 3 X.$.#.#.#.#.#.@.u O b $.#.#.#.@.#.#.#.#.9.a.e.#.| - O O 3 5 5 5 5 5 5 5 5 5 5 4 : % O O % { i.a.a.a.a.c.y.o.4 o O ; 5 5 5 5 5 5 5 5 5 ; O O o       ",
"      O O O D $.#.#.#.#.#.@.q O ~ $.+.@.#.#.#.#.#.@.9.c.u.$.| : O O 1 5 5 5 5 5 5 5 5 5 5 5 5 1 @ o o v p.a.p.y.a.a.u.} % o O 4 5 5 5 5 5 5 5 3 1 @ o O o .     ",
"        O O 3 | #.#.#.#.@.#.b O J o.^ } @.#.#.#.#.#.e.c.i.7.+.q X O ; 5 5 5 5 5 5 5 5 5 5 4 1 ; % O X v p.a.p.r.i.a.a.@.: o O & 3 3 4 4 1 1 : : % O O o X X     ",
"        O O o p +.#.#.#.#.$.X.0 0 ~ ^ ^ O.#.#.#.#.$.u.a.a.e.#.F O O @ 4 5 5 5 5 5 5 5 2 1 : : ; O o O } c.a.c.c.c.c.a.i.H O X O @ % ; ; ; ; % O O O O o X o     ",
"          O o % F @.#.#.#.@.$.} q i ^ X.#.#.#.#.#.$.u.a.a.i.,.o.4 O O % 4 5 5 5 3 1 1 : : : % O o o l y.c.p.8.| ^ L l b X.L < O X X o O + O O o o ; p @ o o     ",
"          O O o % P $.$.@.#.@.$.X.x p X.$.@.$.@.@.9.a.a.a.a.r.$.P % X O % ; 1 : : ; ; 1 - @ O o $ p e.a.a.| 1 $ $ O % O ; ^ ,.I u : @ O O O - 4 v O.#.; o O     ",
"            o O O - J @.$.#.#.#.@.@.! v I O.@.$.$.r.a.a.a.a.a.e.#.D % o O O % & ; % @ @ O O o : J r.a.a.e.5 o * 1 ; 2 1 o 4 e.a.u.8.O.| / o.@.0.i.c.#.- o O     ",
"              O O o % c X.$.#.@.#.#.$.O.~ P | +.,.i.a.a.a.a.a.a.e.#.H 1 O o o O o o X o O : c @.p.a.p.a.@.% $ 4 5 5 5 4 $ $ @.a.c.c.c.c.c.c.a.a.a.a.L O O O     ",
"                o O O O 0 P O.$.$.@.@.#.$.O.X.X.$.p.a.a.a.a.a.a.a.u.8.X.D q : % - : 5 g I #.i.c.a.a.p.p.e.1 o 1 5 1 4 4 O : 8.a.a.a.c.a.c.u.e.p.c.7.3 o O       ",
"                    O O X $ q H X.@.$.$.@.#.$.@.9.a.a.a.a.a.a.a.a.a.a.u.e.$.+.X.o.@.8.y.p.a.a.a.a.a.a.a.p.P $ $ & O O $ % P a.a.a.p.a.a.a.p.p.a.y.g o O O       ",
"                      O o O o O : i P X.@.$.$.@.8.a.a.a.a.a.a.a.a.a.c.c.c.c.p.a.p.p.a.c.a.p.a.a.a.a.a.a.a.p.^ u q p F J O.u.a.a.a.y.r.c.y.y.a.y.v O O O         ",
"                          O O O X X $ * i J X.+.$.e.i.a.a.a.a.a.a.a.a.u.r.i.c.a.a.a.a.a.a.a.a.a.a.a.a.a.a.a.c.u.u.p.a.c.c.a.a.a.a.i.i.a.u.i.y.b O o o           ",
"                                X $ o o o $ % u b ^ +.8.e.y.u.u.p.a.a.8.@.0.c.a.a.a.a.a.a.a.a.a.a.a.a.a.a.a.a.a.a.a.a.a.a.a.a.a.a.a.a.a.c.c.o.O O O             ",
"                                      O O O o o O % 4 p J } +.$.$.u.a.u.$.i.a.c.a.a.a.a.a.a.a.a.a.a.a.a.p.c.p.c.c.p.p.c.c.p.c.p.a.a.a.a.a.c.^ O O O             ",
"                                            O O O o o X O - 0 l X.$.u.c.v.a.a.c.a.a.a.a.a.a.a.a.a.a.a.a.c.p.c.p.p.p.c.p.p.c.p.c.a.i.a.a.a.c.L o O o             ",
"                                                    O o O X X X 1 { r.c.c.c.v.a.a.a.a.a.a.a.a.a.a.a.a.a.p.c.p.c.#.e.p.c.p.c.c.c.e.^ p.c.c.p.l O O O             ",
"                                                      O O O O O X p $.c.c.c.$.o.a.a.a.a.a.a.c.e.$.a.a.a.c.p.c.p.D ^ c.p.c.p.c.c.@.5 $.c.a.+.: O o               ",
"                                                    o O X O X O o ; { y.i.y.I p i.c.a.a.a.a.a.^ I a.a.a.a.a.c.r.u u y.c.c.p.p.$.c O u P P 4 o O O               ",
"                                                  O O - r n h , O o 3 X.$.#.p : +.y.a.a.a.i.$.p x p.a.c.c.p.e.} 0 % P O.e.e.! : O O o o O o O O                 ",
"                                                O o - n T U R E t X X 1 p i % $ ; t I $.e.X.v : % p P #.e.O.p % $ X $ & u u % X o O O O O O O                   ",
"                                              o o - m T T ( ' ( n $ o o o o X o o X $ 0 t : o o $ X $ 1 u 1 $ X o o o X X X X $ O                               ",
"                                              $ $ w U U U E ( %.Q = o o O $ 5 ; O O O X X O O - : $ O o X o $ o o X o o o 4 % o o                               ",
"                                            o X w Q E Q ' %._ E N $ o o o O : ; O O O O O O O - , - $ o O X X % q p 3 X $ p : o O                               ",
"                                          $ $ X 6 a s T ( ( %.=.Q $ X 1 u q 3 ; % @ $ % O @ O O $ X O O O % q H X.{ p $ X u u . O                               ",
"                                            X $ X $ > r N U N m a $ o $ i H F b v v p p D v % X 4 H 1 X $ ; : : % o o o X 3 ! & o O                             ",
"                                            o o X $ ; O o $ o $ $ . $ o o O $ O $ $ % ; ; % $ o q e.i o $ & ; 4 u p v 4 X % o.J O O O O                         ",
"                                          o o % p P v t D q o o X $ $ $ o o o ; 4 q q 0 5 4 ; o - p 3 o $ 0 u p p p u % $ X i X.| D % O O                       ",
"                                        $ $ X ; p p % $ | $.4 o o $ = = $ $ O O % 1 0 q q 4 % O O O $ X X X $ $ $ o $ o $ o X % l u O O O O                     ",
"                                      O O $ 5 ; O o O X q L 3 o o o $ > > - = % $ o $ o o o O o % v J % $ $ $ = - % > 9 $ o X $ O % 4 q O o                     ",
"                                      O o p @.{ J J F 3 o o o 4 f O O > 7 7 7 6 , , > > > > % o - D F - O - 7 7 7 , , , = O O O : c x 4 o o                     ",
"                                      o O L 8.8.8.8.7.O.P v x ^  .- O - 6 7 6 7 7 7 7 7 7 6 = O O o O O O $ = $ % O O # & O O O o O O O O O                     ",
"                                      O O b 7.7.7.7.7.9.i.i.0.F y % o O O @ % % $ % $ $ % O O O O + + + + + # # & & * 2 2 % - ^ L F b : o O                     ",
"                                      O O : | 7.7.7.7.8.y.#.r.r.g o O + # # # # + # # # # # * # ; * ; * ; * 2 * * * & & # O % +.8.| i O O                       ",
"                                        O o 4 ^ 7.8.,.~ 0.@.l ^ F o O + # * * # # * 2 * # * * * * * # & # # + @ @ - 9 S M O O 3 : O o O                         ",
"                                          O o % g ^ #.! g ,.#.0 O o O - @ @ @ # + @ + + @ + @ @ + - ; 9 y s j U ( &.5.G.6.@ O o o o                             ",
"                                            O o O O 0 g : 3 b 4 X % j Z m m Y T Y U U U Y Y Q ) ( ` =.g.h.3.3.3.5.s.f.G.x.: o o                                 ",
"                                                O O X X O X O O < m T E E Q =.4.3.3.3.3.4.4.s.d.4.4.3.4.3.3.3.3.:.3.f.F.j.9 o                                   ",
"                                                  O o , 9 < < 7 m E E T T Q ` =.1.2.:.2.3.2.2.2.=.%.-.1.2.1.&.Z d m U [ B O O                                   ",
"                                                    O - < - @ O @ 9 h m a 9 < < r Z ( ;.;.=.Q h : = < e h h ; - ; X o O O o                                     ",
"                                                      O O   O O o X O @ - t b i o o @ < a 9 O O o o O X O : p | F O O o o O                                     ",
"                                                            O O O O o o ; u g 5 o O O o X o   O O O O O O : t t ; O O @ O O                                     ",
"                                                            O O + + o o o o o o @ # & O O O     O O + o O o X O @ # & & O O O                                   ",
"                                                            O O O O o + O @ # # # # & @ o O     O O O + o O @ # @ @ # @ O O O                                   ",
"                                                            o O O O o O O O O O O o o O O O     o O O O O O O O O o O O O O O                                   ",
"                                                                      O O O o O O O O                                                                           "
};
