/* XPM */
static char *w_13_resized[] = {
/* columns rows colors chars-per-pixel */
"80 80 154 2 ",
"   c None",
".  c #151413",
"X  c #181716",
"o  c #1A1917",
"O  c #1B1A18",
"+  c #221A16",
"@  c #281D17",
"#  c #221E1B",
"$  c #2A1F19",
"%  c #1F201F",
"&  c #23211E",
"*  c #2E221C",
"=  c #32231D",
"-  c #1F2121",
";  c #252422",
":  c #292623",
">  c #2D2A25",
",  c #242729",
"<  c #252A2D",
"1  c #2C2B2A",
"2  c #312C27",
"3  c #3D2B23",
"4  c #322E29",
"5  c #35312C",
"6  c #3A342D",
"7  c #272D30",
"8  c #292E32",
"9  c #293034",
"0  c #313233",
"q  c #3A3630",
"w  c #3D3A33",
"e  c #35383C",
"r  c #3B3C3E",
"t  c #423D36",
"y  c #433F38",
"u  c #464037",
"i  c #46413A",
"p  c #4B453D",
"a  c #4D483F",
"s  c #3C3E41",
"d  c #404245",
"f  c #484540",
"g  c #4E4941",
"h  c #41454A",
"j  c #45484D",
"k  c #484A4D",
"l  c #534D44",
"z  c #514E49",
"x  c #565047",
"c  c #575148",
"v  c #5B544B",
"b  c #5F584E",
"n  c #474C52",
"m  c #4A4E53",
"M  c #4E5359",
"N  c #515252",
"B  c #5C5852",
"V  c #52565B",
"C  c #53585E",
"Z  c #61594F",
"A  c #645D51",
"S  c #685F52",
"D  c #676054",
"F  c #6A6256",
"G  c #65615A",
"H  c #6D6559",
"J  c #70675B",
"K  c #736A5D",
"L  c #545A62",
"P  c #5A5E66",
"I  c #5D636B",
"U  c #5F6770",
"Y  c #6E6860",
"T  c #61666E",
"R  c #66686A",
"E  c #766D60",
"W  c #786F61",
"Q  c #7C7364",
"!  c #7C756A",
"~  c #616770",
"^  c #646A73",
"/  c #696D76",
"(  c #686F79",
")  c #6F7173",
"_  c #6C727B",
"`  c #72777F",
"'  c #807667",
"]  c #807768",
"[  c #857A6B",
"{  c #897E6F",
"}  c #837E75",
"|  c #897F70",
" . c #8A806F",
".. c #8D8272",
"X. c #89847B",
"o. c #918675",
"O. c #948877",
"+. c #968A79",
"@. c #998D7B",
"#. c #9D917F",
"$. c #707781",
"%. c #737A84",
"&. c #767D88",
"*. c #787F89",
"=. c #7C828D",
"-. c #7F8691",
";. c #80858F",
":. c #918B81",
">. c #9E9281",
",. c #9B948A",
"<. c #9F998E",
"1. c #838A96",
"2. c #8C8F92",
"3. c #868D9A",
"4. c #888F9B",
"5. c #8A919D",
"6. c #A29583",
"7. c #A69985",
"8. c #A89B87",
"9. c #A29889",
"0. c #AB9D8A",
"q. c #AEA18D",
"w. c #B1A38E",
"e. c #B4A691",
"r. c #B7A893",
"t. c #BAAB96",
"y. c #BDAF99",
"u. c #BFB09A",
"i. c #8D94A0",
"p. c #949AA4",
"a. c #9A9DA1",
"s. c #989EA9",
"d. c #9FA4AC",
"f. c #A3A6AA",
"g. c #B5ADA0",
"h. c #BEB6AA",
"j. c #C0B19B",
"k. c #C4B6A1",
"l. c #C6B9A5",
"z. c #C8BAA6",
"x. c #C1B8AB",
"c. c #CABDAA",
"v. c #C7BFB2",
"b. c #C8BFB3",
"n. c #CDC1AF",
"m. c #CDC3B2",
"M. c #D1C6B5",
"N. c #D5CBBC",
"B. c #B9BDC3",
"V. c #C2C6CC",
"C. c #C4C8CE",
"Z. c #D7CEC0",
"A. c #D8CFC1",
"S. c #DAD1C3",
/* pixels */
"                                                                                O O o O                                                                         ",
"                                                              O O O O O O O o o o o o o o o o O O O o O O                                                       ",
"                                                  O O O O O o o o o o O & ; : > 2 4 2 > > ; ; & O O o o X o O o O o                                             ",
"                                          % O O o o o o O & > q p c A J Q ] [ .. .o. .O.+.#.#.+...! Y v i 1 O X o o o O O                                       ",
"                                    % X X % % X & > t c F Q  .O.+.#.@.#.@.#.@.#.#.q.e.t.y.j.j.j.k.j.k.l.x.g.,.! k 5 O X o O O O                                 ",
"                                o X X X % & w v W  .O.#.#.#.@.@.@.@.+.@.@.#.0.e.t.j.j.j.j.j.j.y.u.u.u.u.u.l.n.N.N.h.,.H w & X X O O O                           ",
"                            O O % X & u S ' O.@.#.@.@.+.+.@.@.@.+.@.#.8.e.t.u.u.j.y.j.y.y.j.t.q.q.t.u.u.u.u.u.j.z.M.N.S.m.9.G 0 O O O O O                       ",
"                        O O o O 2 c  .+.@.@.@.@.+.@.@.@.@.@.@.@.#.q.t.u.j.u.u.u.y.j.y.j.j.y.0.@.#.0.u.u.u.u.u.u.y.j.h.m.Z.S.A.x.X.f O X O O                     ",
"                    O o o O 5 A ..@.#.@.@.@.@.@.@.@.@.@.@.#.7.w.y.j.u.u.u.u.u.u.u.u.u.u.j.y.q.#.@.q.y.j.j.j.j.j.j.j.u.u.j.m.N.S.S.m.:.w O O O                   ",
"                  O O O ; c ..@.@.@.@.@.@.@.@.@.@.@.@.#.8.r.u.u.j.u.u.u.u.u.u.u.u.u.u.u.y.j.y.w.w.y.j.y.j.w.{ Q #.e.j.u.u.u.l.M.Z.S.S.v.G - o o O               ",
"                O O o 6 Q @.@.@.@.O.@.@.@.@.@.@.@.#.q.r.y.u.u.u.u.u.u.u.u.u.u.u.u.u.u.u.j.y.j.j.t.#.K F D p c J l c Q 0.y.u.u.j.c.N.S.S.N.X.: X O o             ",
"              O O o t [ @.@.@.O.Q Q o.@.@.@.+.#.q.r.u.u.u.u.u.u.u.u.u.u.u.u.u.u.u.u.u.u.y.j.j.0.Z t 6 6 6 3 u +.t.6.{ ..t.u.u.u.u.l.M.S.S.Z.:.: o O O           ",
"            O o o w { @.+.@.@.+. .Q O.@.@.#.q.r.u.u.u.u.u.u.u.u.u.u.u.y.y.y.u.u.u.u.u.u.u.u.y.Z 5 6 6 6 6 6 w ..j.j.w.6.w.u.u.u.u.u.j.m.A.S.Z.X.& O O           ",
"          O O o > Q @.@.@.@.O.[  .@.#.@.#.w.y.u.u.u.u.u.u.u.u.u.u.u.y.q.#.w.u.u.u.u.j.y.u.u.y.F 6 5 6 6 3 p [ t.j.y.0.@.q.u.u.u.u.u.u.j.m.A.S.N.Y O O O         ",
"          O O O D @.@.@.@.@.{ Q Q ..#.7.y.u.u.u.u.u.u.u.u.u.u.u.u.u.u.q.#.q.u.u.u.y.j.u.u.u.j.q.K a t u Z ..0.q.K Z 8.t.y.u.u.u.u.u.u.u.u.m.Z.S.v.p o O O       ",
"        o O O i O.@.@.@.@.@...Q Q O.7.y.u.u.u.u.u.u.u.u.u.u.u.u.u.u.u.y.t.y.u.u.u.u.u.u.u.u.y.j.j.e.#.0.r.#.@.+.x a 6.j.j.j.j.u.u.u.u.u.y.u.m.Z.S.<.; o O       ",
"        O o ; Q #.+.@.+.@. .+.O.O.#.t.j.u.u.u.u.u.u.u.u.u.u.u.u.u.u.u.u.u.u.u.u.u.u.u.u.j.j.j.t.e.0.#.o.' S v Z Z Z J K ] ..#.q.y.y.j.y.j.y.j.n.S.N.v o O O     ",
"      O O o l @.@.@.+.#.O.J O.+.#.w.u.u.u.u.u.u.u.u.u.u.u.u.u.u.u.u.u.u.u.u.u.u.u.j.u.r.6.| J b a v v S J W [  .o.@.@.#.6.7.8.w.y.y.y.j.j.j.y.j.M.S.,.% o o     ",
"      o o : ] #.@.@.@.@.[ x +.#.#.t.u.u.u.u.u.u.u.u.u.u.u.u.u.u.u.u.u.u.u.u.u.t.0...J A A J [ #.0.w.t.j.j.j.j.j.j.j.j.j.j.j.j.j.y.j.y.j.y.j.y.j.k.Z.m.w o o     ",
"    O O o a +.@.+.#.+.@.H x @.+.#.t.u.u.u.u.u.u.u.q.r.u.u.u.u.u.u.u.u.u.u.y.0...[ ..>.e.u.j.j.j.j.j.j.j.t.j.j.j.j.j.j.j.j.j.y.j.j.y.j.y.j.y.j.y.u.c.Z.G o O O   ",
"    O o # J #.+.+.#.+.#.c x @.@.#.r.u.u.u.u.u.j.q.[ r.y.u.u.u.u.u.u.u.u.u.y.e.t.u.j.j.j.u.u.u.u.j.j.t.j.j.j.j.j.j.y.y.j.y.j.y.j.j.y.j.j.y.j.y.j.u.u.N.X.X O o   ",
"    O o 4 ..@.@.@.@.@.@.a x @.@.#.q.u.u.u.u.u.t.F o.q.#.q.y.u.u.u.u.u.u.u.u.u.u.u.u.u.u.u.u.u.u.j.j.j.j.t.j.j.t.y.j.j.y.j.y.j.y.y.j.y.j.j.y.j.y.u.u.M.:.O X O   ",
"  O O o p +.@.@.@.@.#.+.u x @.@.+.#.r.u.u.y.j.[ a r.#.+.#.r.u.u.u.u.u.u.u.u.u.u.u.u.u.u.u.u.u.u.j.j.j.j.j.t.j.j.j.y.j.j.j.j.j.y.j.y.j.y.u.u.y.j.u.u.c.:.O o O   ",
"  o o o b @.@.@.@.@.+.+.u u +.#.@.@.6.t.u.u.q.u  .j.w.#.q.u.u.u.u.u.u.u.u.u.u.u.u.u.u.u.u.u.u.u.t.j.t.j.j.j.j.j.y.j.j.j.w.w.r.j.y.j.y.j.y.j.j.y.u.u.z.,.% O O   ",
"  O o O J #.@.@.+.@.@.@.x & D  .+.#.@.#.t.j.@.u w.j.u.u.u.u.u.u.u.u.u.u.y.u.u.u.u.u.u.u.u.u.u.u.j.y.y.j.y.j.j.y.j.y.j.r.#.@.#.j.u.u.u.j.u.t.w.0.8.8.y.:.O O O   ",
"  O o & K @.@.@.@.@.@.@.Q > O : u E O.#.#.t.r.J #.j.u.u.u.u.u.u.u.u.u.u.u.u.u.u.u.u.u.u.u.u.u.y.y.j.j.y.j.y.j.j.y.j.j.r.#.@.#.r.u.u.u.r.0.#.@.+.@.@.9.! O o O   ",
"  o O & Q @.@.@.@.@.@.@.#.Q p & X & c O.@.#.r.q.@.u.u.u.u.u.u.u.u.y.y.y.u.y.u.u.u.u.u.u.u.j.j.u.j.y.j.j.y.j.j.j.j.j.r.0.@.6.r.j.j.y.q.#.+.@.@.#.@.@.9.B o O O   ",
"  o o % W @.@.@.@.@.@.+. . .O.F & X % Z @.@.#.r.q.t.u.u.u.u.t.q.8.>.6.6.8.0.e.t.y.y.u.y.w.0.w.r.r.t.t.r.r.w.8.@.[ K H ' 6.t.j.j.e.6.@.@.#.+.o.[ [ ..9.i . o     ",
"  O O O J #.@.+.@.@.@.O.Q Q O.@.Z % X 6 O.@.@.#.r.y.u.u.u.r.#.#.@.@.@.@.@.@.@.#.>.8.0.w.8.o.Q F Z b v c x l x Z K o.0.y.j.j.y.w.#.@.@.O.K a 5 : : 1 k > . o     ",
"  O o O b @.@.@.@.O.O.@.o.o.@.@.J % X 4 ..@.@.@.6.y.u.u.u.7.@.@.@.@.+...[ ..o.+.@.@.@.@.#.6.8.q.w.8.6.8.8.0.r.j.j.j.j.j.j.j.0.@.#.O.J q & o o o o o o o . X     ",
"  O O o p +.@.@.+.[ Q  .@.@.@.@.Z X X u +.@.@.@.@.q.u.u.r.#.@.@.@.K i 1 ; > q p A W ..@.@.@.@.#.0.y.j.j.j.j.j.j.j.j.y.j.j.q.@.@.[ p & o o O & 2 > # O O X .     ",
"    o o 5 ..@.@.O.Q W [ @.@.@.O.t X O Z @.@.@.@.@.#.t.u.q.@.@.+.D & X o O O o X O # 4 a H ..@.@.@.6.e.j.y.j.y.y.j.j.j.y.w.#.@.K 4 o o # & 5 6 6 6 > O o o .     ",
"    O o & Q @.@.@. .[ ..@.@.@.K & o 5 { @.+.@.@.@.@.w.u.0.@.#.Q : o O & 2 > & & # O X o O 4 l Q O.@.#.r.u.u.u.u.u.u.j.e.#.+.A & o O @ 2 6 6 6 6 6 5 # o o .     ",
"    O O o x @.@.@.@.@.@.@.@.o.w X : K @.@.@.@.@.@.@.8.u.q.@.@.c o o & 6 6 6 6 6 4 2 & # O o O & t K +.8.y.u.u.u.u.u.u.8.@.Z & o O & 5 6 6 6 6 6 6 6 # o o .     ",
"      O o 5 ..@.@.@.@.@.@.@.J O : K @.@.@.@.@.@.@.+.6.u.q.@.O.w o o > 6 6 6 6 6 6 6 6 5 > & O O o & x +.t.u.j.y.u.u.t.#.K & o O > 6 6 6 6 6 6 6 6 5 # O o .     ",
"      O O O F #.@.@.@.@.@.@.c o c #.@.@.@.@.@.@.@.@.6.y.r.#.O.6 o O > 6 6 6 6 6 6 6 6 6 6 6 5 & O O # Z e.u.u.y.u.u.t.@.i o O & 6 6 6 6 6 6 6 6 6 > O O O .     ",
"      O o o w o.@.@.@.@.@.#.v o b @...o.@.@.@.+.@.@.7.y.t.#.O.t o O > 6 6 6 6 6 6 6 6 6 6 6 6 2 & O o t r.u.u.r.t.u.t.O.4 o o 2 6 6 6 6 6 6 6 4 > & O O o .     ",
"        O O O A @.@.@.@.@.@.Q ; i  .Q Q o.@.@.@.@.+.0.u.u.0.@.x o o & 6 6 6 6 6 6 6 6 6 6 5 2 > & o o t e.u.u.w.t.u.u.8.w o O & 2 4 6 4 2 2 2 > & O O O o .     ",
"          o o > ' @.@.@.@.@.+.Z : A Q Q o.@.@.@.@.@.q.u.u.e.#.Q & O + 2 6 6 6 6 6 6 6 2 2 2 > : O O o H j.u.j.j.j.j.t.y.Q & o o # # & > > & & & # o o o X o     ",
"          O o o w  .@.@.@.@.@.+.Z 6 J  .+.@.@.@.@.#.r.u.u.y.0.O.a o o & 2 5 5 6 3 2 > > > > & O O O u q.j.u.8.] Q H l c ] Q 5 O X O O O O + O o o & i & X O     ",
"            O O o i ..#.@.@.@.@.@.E a J O.#.+.@.@.7.y.u.u.u.r.6.[ 4 o O O : > > > > * > & # O o o p 8.j.j...5 # O O # O & H 8.K i > & O O O & > a ] #.5 o O     ",
"              o O O t [ @.@.@.+.+.#. .F A [ +.@.@.w.u.u.u.u.u.r.#.Q > o O O & & & & # O o o o > F q.u.j.w.w o > 5 : 6 2 O : 6.j.t.8.o.] Q ! ..6.r.u.0.1 o O     ",
"                O o o 5 J +.@.@.@.#.+.@. .E Q  .@.t.u.u.u.u.u.u.e.6.] u & o o o o o o o O 5 b @.t.j.u.j.8.> O 5 6 6 6 6 & O [ j.u.j.j.j.j.j.y.j.u.j.] # o O     ",
"                  O o o & p Q O.#.+.@.@.#.#.O. .@.y.u.u.u.u.u.u.j.t.q.@.K l q > > 5 t x Q >.t.j.u.u.u.j.w.w o > 6 2 2 5 # & @.j.u.u.j.u.j.t.0.y.j.q.t o O o     ",
"                    O O o o & t F  .+.#.@.@.#.+.8.y.y.u.u.u.u.u.u.u.u.t.e.q.6.#.#.6.0.e.u.j.u.u.u.u.u.u.u.' & o ; O O O & A t.u.u.u.y.u.u.y.t.u.t.A O O O       ",
"                        O O O O % > a J  .+.#.@.6.t.u.u.u.u.u.u.u.u.u.j.u.u.u.u.u.u.u.u.u.u.u.u.u.u.u.u.u.y...l t l F H ..e.u.u.y.r.w.u.r.e.j.t.F O o O         ",
"                            O O X X X & 4 a H [ +.7.r.y.u.u.u.u.u.u.u.e.0.e.y.u.u.u.u.u.u.u.u.u.u.u.u.u.u.u.j.y.r.y.j.j.j.u.u.u.u.t.t.u.t.r.t.F O o O           ",
"                                  O X O O X O > i Z Q +.6.0.q.r.t.u.u.0.@.0.y.u.u.u.u.u.u.u.u.u.u.u.u.u.u.u.y.u.j.u.u.u.j.u.u.u.u.u.u.u.u.u.+.& O O             ",
"                                        O O O o o O & 5 g H ] O.#.q.y.t.e.t.u.u.u.u.u.u.u.u.u.u.u.u.u.u.u.u.u.u.u.u.u.u.u.u.u.u.u.j.u.u.u.j.Q O O O             ",
"                                              O o O O o X O ; w H @.w.u.u.j.u.u.u.u.u.u.u.u.u.u.u.u.u.u.u.u.u.u.u.u.u.u.u.u.u.u.y.t.u.u.j.j.W O O O             ",
"                                                      O O O O O & K q.y.u.u.j.y.u.u.u.u.u.u.u.u.u.u.u.u.u.u.u.u.+.8.u.u.u.u.u.u.q.Q y.j.u.y.v X O O             ",
"                                                      o O X O O X u #.u.u.u.#.' y.u.u.u.u.u.u.q.+.u.u.u.u.u.u.u.B W j.u.u.u.j.j.@.q >.j.u.@.4 o O               ",
"                                                    O O X O O O X % H q.e.q.H u r.j.j.j.u.u.y.K J u.u.u.u.u.u.q.p w e.u.j.u.t.>.v O i K K q o O o               ",
"                                                  O O ; h V m 9 % X 2 K +.o.p &  .#.y.j.y.e.#.a c e.u.u.u.u.0.Q q % F O.0.q.E > O O o o O o O O                 ",
"                                                O o ; n L C I U f O o & u 6 % % & 2 A +.#. .a & & u A +.7...a & O O o & w i & O O o O O O O O                   ",
"                                              O o ; M I I ( ( U M % O O X X X o o X % > 6 & % % o X O > q > o O O O O O O X O O O                               ",
"                                              O % e L C L U ( $.U % o o o % q 2 O o o o o o o & 7 & O X o o O O o o X O O 2 % O o                               ",
"                                            O O 9 U U U _ _ ^ I L & o o o % & & O % O o % o % & , & % X o O O & u c 6 o O p : o O                               ",
"                                          % O O , e h L U _ $.=.T % % > a a t 4 > & & & & & O o O O X % % & t F Q Q p O O q 5 X O                               ",
"                                            O X % X % 9 j m j d r % X % u b Z a v a a c Z v & o q K 4 X % & : & % o o O o 4 A % o O                             ",
"                                            X X X % 2 & % . % % % . % % X o o O % X % % % & % X w 7.p X % : 5 w i x D 5 X &  .x O o O O                         ",
"                                          o O % a W v t F a X o . % % % O o O : 6 u u u t q * X & a > X % q t i a p q & O O g [ ! g O O O                       ",
"                                        % % X % u a % o J w.u X % % % % % % O % % & 4 5 5 2 & X % X % X o o o o o o o % O O O 2 v w O o O o                     ",
"                                        X % t : O O O X > v 4 X X . % , , , % % % % % X X % % X & S E & o - < - < - < e - o O O O & 5 5 o O                     ",
"                                      O o w @...K K K t & o O 6 b ; o , 8 8 8 7 7 7 < < < < % o ; c v ; o , 7 7 < < , , O O O O q v l > o o                     ",
"                                      o o v 7.6.8.8.7.@.] J A K o.4 o % < < 7 7 7 7 7 7 7 < % o o o o o o # - O # O # @ > # O O O O O O O O                     ",
"                                      O o p >.6.6.6.7.7.e.y.r.Q t # o o O O # O O # O O O % + + # # + @ @ $ $ $ * = = 3 3 @ ; H Z v g # O O                     ",
"                                      o o & H 6.6.6.6.#.t.+.#.r.K O o # @ = = $ @ $ = : $ = = = = = : = 3 = = : = = * $ # o ; +.6.Q w O O                       ",
"                                        O o & A +.8.6.Q o.q.b v A # o + @ = = $ @ : : = = = : = : $ $ $ @ @ o # & 1 d R N O O 4 : O o O                         ",
"                                          O O O q D ....i Q 0.l O o % ; ; # ; # @ @ # # @ @ # # * : 4 s k k V T _ &.p.V.2.O O o O o                             ",
"                                              O O O : w 4 & p 5 o % j P V V ^ / ^ ~ ~ ~ ~ ^ ( %.$.%.;.d.d.3.3.3.5.p.s.V.f., o                                   ",
"                                                O O O O O O O O 1 n P I I I *.4.4.3.3.3.3.3.i.i.3.3.3.3.3.1.3.1.=.3.p.B.a.1 o                                   ",
"                                                  O O 9 r 1 : 1 j P I P P P ^ $.=.1.-.1.3.;.1.;.( / %.;.1.=.( k r h V ) k o o                                   ",
"                                                    O O ; # O O # 1 s h e 1 ; ; 0 h I %.*.` L e ; % : 0 s r ; : 1 X X o o O                                     ",
"                                                            o O o o O O & a S a o X O : 0 , O o o o o o O : l ] v o O O O o                                     ",
"                                                            o O O o O X & 5 6 ; O O + O O O   O O o o o O & > : O O + @ O O                                     ",
"                                                            O O O + + + O O O O # & = # O O     O O @ o o o O + # & = * O O O                                   ",
"                                                            O O O O o o O @ # @ @ @ @ O O O     o O O O o # # # # + # O O O O                                   ",
"                                                            O O O O O O O O O O O O O O O O     O O O O o O O O O O O O O O                                     ",
"                                                                                                                                                                "
};
