/* XPM */
static char *w_14_resized[] = {
/* columns rows colors chars-per-pixel */
"80 80 153 2 ",
"   c None",
".  c #171614",
"X  c #181715",
"o  c #1A1917",
"O  c #1C1B19",
"+  c #211915",
"@  c #221E1B",
"#  c #291F1A",
"$  c #1F201F",
"%  c #23211E",
"&  c #2C211B",
"*  c #33241D",
"=  c #1D1F20",
"-  c #1F2121",
";  c #252422",
":  c #292623",
">  c #2D2A25",
",  c #232729",
"<  c #262A2D",
"1  c #2D2C29",
"2  c #302520",
"3  c #312C27",
"4  c #3E2B24",
"5  c #322E29",
"6  c #35312C",
"7  c #3A342D",
"8  c #272D30",
"9  c #292E32",
"0  c #2B3034",
"q  c #323233",
"w  c #3A3631",
"e  c #3D3933",
"r  c #353739",
"t  c #3A3B3E",
"y  c #413D36",
"u  c #433F38",
"i  c #46413A",
"p  c #4A453D",
"a  c #4D483F",
"s  c #50493F",
"d  c #3B3E41",
"f  c #3D4044",
"g  c #434444",
"h  c #4E4941",
"j  c #44474B",
"k  c #484B4F",
"l  c #534D44",
"z  c #524E49",
"x  c #575047",
"c  c #57524A",
"v  c #5B544A",
"b  c #5F584E",
"n  c #474D52",
"m  c #4A4D52",
"M  c #4D5156",
"N  c #4F555C",
"B  c #515252",
"V  c #5D5953",
"C  c #51555B",
"Z  c #54585E",
"A  c #615A4F",
"S  c #645D52",
"D  c #676054",
"F  c #6A6256",
"G  c #66625A",
"H  c #6E6659",
"J  c #70675B",
"K  c #726A5D",
"L  c #545A61",
"P  c #595D64",
"I  c #585F68",
"U  c #5C626A",
"Y  c #5F6670",
"T  c #6C6760",
"R  c #6E6A62",
"E  c #61666D",
"W  c #766E61",
"Q  c #786F61",
"!  c #746F68",
"~  c #7C7264",
"^  c #7E7569",
"/  c #606771",
"(  c #656B74",
")  c #686F79",
"_  c #6B717B",
"`  c #72777F",
"'  c #807667",
"]  c #817768",
"[  c #847A6B",
"{  c #897E6F",
"}  c #8A7F70",
"|  c #8B806F",
" . c #8D8272",
".. c #8B857C",
"X. c #918675",
"o. c #948877",
"O. c #968A79",
"+. c #998D7B",
"@. c #9D917E",
"#. c #6F7680",
"$. c #717680",
"%. c #747A84",
"&. c #7F8184",
"*. c #7D838E",
"=. c #7F8691",
"-. c #8F8980",
";. c #82868D",
":. c #87898E",
">. c #938D83",
",. c #9E9280",
"<. c #808792",
"1. c #838A96",
"2. c #868D99",
"3. c #888F9B",
"4. c #8A919C",
"5. c #A29683",
"6. c #A69986",
"7. c #A89B87",
"8. c #A79D8F",
"9. c #AB9D8A",
"0. c #A39D92",
"q. c #AEA18C",
"w. c #B1A38E",
"e. c #A9A297",
"r. c #AFA79C",
"t. c #B4A691",
"y. c #B7A893",
"u. c #BAAB96",
"i. c #B0A99E",
"p. c #BDAE99",
"a. c #BFB09A",
"s. c #8F95A1",
"d. c #949AA5",
"f. c #9B9FA4",
"g. c #B5AEA2",
"h. c #BFB5A5",
"j. c #BDB5A9",
"k. c #A9ADB2",
"l. c #B1B6BD",
"z. c #C0B19B",
"x. c #C4B6A3",
"c. c #C6B9A5",
"v. c #C8BBA7",
"b. c #C0B8AB",
"n. c #CABEAC",
"m. c #C5BDB1",
"M. c #CEC3B1",
"N. c #CFC6B9",
"B. c #D1C7B6",
"V. c #D4CABB",
"C. c #BABEC4",
"Z. c #D8CFC0",
"A. c #DAD1C3",
/* pixels */
"                                                                                                                                                                ",
"                                                                                                                                                                ",
"                                                              o O o O O O o o o o o o o o o o O O o O o                                                         ",
"                                                  o O O O o o o o o O O $ % > > > 5 3 3 > ; % % O o o o o o O o O                                               ",
"                                          O O O O o o o O % 1 e p x S J ~ ] [ | |  . . .X.+.+. .{ ~ G x e : O o o o O o O                                       ",
"                                    O O $ O X O % 1 y v J ] | o.+.+.@.@.+.+.+.@.@.6.w.p.z.z.z.z.z.z.z.x.j.r.>.R p , O . o o o O                                 ",
"                                X $ $ X o & i v ~ | O.@.@.+.+.+.+.+.+.+.@.@.7.w.u.z.z.z.z.z.z.z.a.z.p.z.z.c.M.V.N.g.-.V 6 O o o O O                             ",
"                            O O . $ % i D | O.+.+.+.+.+.+.+.+.+.+.+.@.6.w.u.z.z.p.z.p.p.z.p.p.w.e.p.z.p.a.a.a.z.v.B.Z.Z.j.-.c > O O O O                         ",
"                        O o o O 5 v | o.+.+.+.O.+.+.+.+.+.@.+.+.@.q.y.p.z.z.p.z.p.z.p.z.p.z.q.+.+.6.z.z.a.a.z.z.a.a.x.M.V.A.V.i.! w O O O O                     ",
"                    O O o O 1 S  .+.O.+.+.+.+.+.+.+.+.+.+.@.@.w.p.z.z.p.p.z.z.p.z.p.z.p.z.z.w.@.+.6.p.z.a.z.z.z.z.a.a.z.c.B.A.A.A.j.^ < o o O                   ",
"                  o O o % l { +.+.+.+.+.+.+.+.+.+.O.+.+.q.w.p.a.z.p.z.p.z.p.z.z.z.p.z.p.z.p.z.t.w.p.z.z.p.w.X.~ ,.u.z.z.a.a.c.B.A.A.A.r.h O O O                 ",
"                O O o > H +.+.+.o. .o.+.+.+.+.+.+.@.q.u.a.a.a.a.p.z.p.z.p.z.p.p.p.z.p.z.p.z.z.z.p.+.K D H s x H z x ' 9.a.a.z.z.M.V.A.A.m.G O O O               ",
"              o o o 5 ~ +.+.+.+.| Q | O.+.+.+.@.q.u.a.a.a.a.a.a.z.z.z.z.p.z.p.z.z.p.p.z.p.z.z.9.F y 6 4 4 6 u X.u.,.[  .u.a.a.a.a.c.V.A.A.N.R O o o             ",
"              O o : ~ +.+.+.+.O.X.|  .+.+.+.q.u.a.a.a.a.a.a.a.a.z.p.p.z.u.p.z.p.p.z.z.p.z.p.z.K 6 7 7 7 7 7 7 | z.z.t.6.t.p.a.a.a.a.x.B.A.A.N.G O O O           ",
"            o o @ D +.+.+.+.O.[ ~  .+.@.@.t.p.a.a.a.a.a.a.a.a.a.p.z.z.w.@.6.p.z.z.z.p.z.p.p.z.~ 7 7 7 7 7 p { u.p.u.7.+.q.a.a.a.a.a.p.x.N.A.A.m.h o O o         ",
"          O O o p O.+.+.+.+.O.~ Q | +.@.u.a.a.a.a.a.a.a.a.a.p.a.z.p.p.y.@.q.p.z.p.z.z.p.z.z.p.w.' s i p A X.9.9.K S 7.u.p.a.a.a.a.a.a.a.z.B.A.A.e.> o O         ",
"          o o 1 [ +.+.+.+.+.O.| ' | @.p.z.a.a.a.a.a.a.a.a.a.a.a.a.a.a.a.p.p.a.a.a.a.a.z.a.a.a.z.z.t.w.w.u.@.+.o.s s 7.z.z.z.z.z.a.a.a.a.p.z.B.A.A.! o O o       ",
"        O O O A +.+.+.+.+.| | +.+.@.y.a.z.z.a.a.a.a.a.a.a.a.a.a.a.a.a.a.a.a.a.a.a.a.a.z.z.z.a.u.9.@.X.{ K A v A v A J K [ X.@.w.p.a.a.a.z.a.z.B.A.j.6 o O       ",
"        o o 7  .+.+.+.O.@.J ^ +.+.7.p.z.a.a.a.a.a.a.a.a.a.a.a.a.a.a.a.a.a.a.a.a.z.z.u.7.O.~ S x x x A H ~ [ | X.+.@.@.6.5.6.7.w.p.a.a.a.a.a.a.x.V.Z.T X O O     ",
"      O O O S @.+.+.+.+.o.s [ +.+.w.z.p.a.a.a.a.a.a.p.a.a.a.a.a.a.a.a.a.a.a.p.y.,.[ H D J ] O.6.w.p.z.z.z.z.z.z.z.z.z.z.z.z.z.z.a.a.a.a.a.a.a.a.n.A.0.; o O     ",
"      O o 1 | +.+.O.@.+.| i [ +.+.q.z.z.a.a.a.a.a.7.q.a.a.a.a.a.a.a.a.a.a.p.7.o.X.,.9.u.a.z.z.z.z.z.p.z.p.z.z.p.p.z.p.z.z.p.z.p.a.a.a.a.a.a.a.a.a.B.M.q O O     ",
"    O o o h +.+.+.O.O.@.~ w | +.+.q.p.p.a.a.p.z.q.Q w.y.u.a.a.a.a.a.a.a.a.p.u.p.z.z.z.a.a.a.z.a.z.z.z.p.z.p.p.z.z.p.z.p.p.z.a.z.a.a.a.a.a.a.a.a.a.v.B.j . O     ",
"    o O O J +.+.O.@.O.@.K 7 | @.+.@.y.a.p.z.z.u.D ^ w.+.@.u.a.a.a.a.a.a.a.a.a.a.a.a.a.a.a.a.p.a.z.p.z.z.p.z.z.p.p.z.p.z.z.p.p.z.a.a.a.a.a.a.a.a.a.z.B.V X O     ",
"    O o > [ +.+.@.O.+.@.J 5 | +.+.+.7.p.z.p.a.| p q.q.+.@.y.a.a.a.a.a.a.a.a.a.a.a.a.a.a.a.a.z.a.p.z.z.p.z.p.p.z.p.z.z.p.z.a.z.a.a.a.a.a.a.a.a.a.a.a.M.S X O     ",
"    O o 7 X.+.+.+.+.+.+.K % Q +.+.+.+.7.u.p.w.p | a.u.q.w.a.a.a.a.a.a.a.a.a.a.a.a.a.a.a.a.a.a.a.p.a.a.a.a.a.a.a.z.p.p.p.w.w.u.z.a.a.a.a.a.z.a.a.a.z.n.S . O     ",
"    O o u O.+.+.O.+.+.+.[ > > x K X.+.+.q.p.t.s +.a.a.a.a.a.a.a.a.a.a.a.a.a.a.a.a.a.a.a.a.a.a.a.z.a.a.a.a.a.a.z.p.z.z.w.+.+.6.p.a.a.a.a.p.y.q.7.6.9.b.v X O     ",
"    o o p +.+.+.+.+.+.+.+.D > o $ e Q O.+.q.p.O.| a.a.a.a.a.a.z.a.a.a.a.a.a.a.a.a.a.a.a.a.a.a.z.a.a.a.a.a.a.z.z.z.p.z.u.@.+.5.p.a.a.a.w.5.+.+.+.+.+.8.g o O     ",
"    O o p O.+.+.+.+.+.+.+.O.[ s $ o % J +.@.@.y.@.y.a.a.a.a.z.a.u.y.y.y.u.p.a.a.a.z.a.a.a.z.z.z.z.z.z.z.z.z.z.z.z.u.9.@.O.9.u.z.a.u.6.+.+.+.+.+.+.+.>.5 o o     ",
"    O o i O.+.+.+.+.+.O.[ ~  .+.s % o 6  .+.+.q.y.y.a.a.a.a.t.@.@.@.+.@.,.5.7.e.y.u.p.p.9.+.+.5.6.7.9.7.6.@.X.~ J S J X.w.z.p.p.q.@.+.+.+.o.{ ' [ O...@ o O     ",
"    O o w o.+.+.O.+.+.+.| ]  .@.| % $ % ^ +.+.+.q.a.a.a.a.t.@.+.+.+.+.+.+.+.+.+.+.,.5.7.7.+.{ K S b b x x v S ~ X.7.p.z.z.z.u.7.+.+.+.] b e : % ; w p X . o     ",
"    O o 1 { +.+.+.X.[ X.+.+.+.+.[ & X % | +.+.+.@.t.a.a.p.@.@.+.+.O.[ J D H ~ | O.+.+.+.+.,.6.t.u.u.y.y.u.p.z.z.z.z.z.p.p.u.5.+.+.[ l ; o o o o O o o . . o     ",
"    O o % ~ +.+.+.[ Q ~ O.+.+.+.F $ X 7  .+.+.+.+.@.p.a.t.@.+.+.X.l > O O O @ 3 y x W  .+.+.+.+.5.u.a.z.p.z.p.z.p.z.p.z.u.5.+.O.F > o o O % > 1 : O O O .       ",
"    O O O A +.+.+.| ~ ] O.+.+.O.y o O A +.+.+.+.+.@.w.z.w.+.+.o.p O o O @ @ o o O o @ 6 l ~ o.+.+.@.w.z.a.a.a.a.a.a.z.u.6.+.| a @ o O % 5 6 7 7 7 % O O X       ",
"      o o y O.+.+.O.o.O.+.+.+.F O o i X.+.+.+.+.+.+.7.z.q.O.@.J @ o O 3 6 5 5 > % O o o . % e A | +.@.y.a.a.a.a.a.a.z.7.@.] e o o O : 7 7 7 7 7 7 : O O X       ",
"      O o > ] +.+.+.+.+.+.+.| 7 o y { +.+.+.O.+.+.O.6.z.w.+.O.a o o : 7 7 7 7 7 7 6 5 % O o o O 6 A o.7.a.a.a.a.a.a.u.@.{ 6 o o @ 5 7 7 7 7 7 7 7 > O O o       ",
"      o o o b +.+.+.+.+.+.+.K O 6 | +.O.+.+.+.+.+.+.@.p.w.+.o.e o o > 7 7 7 7 7 7 7 7 7 6 > @ o o O a +.p.a.a.a.a.a.w.O.i o o % 7 7 7 7 7 7 7 7 7 & O O o       ",
"        O o 6 | +.+.+.O.+.+.H O a +.O.O.+.+.+.+.+.+.@.p.u.@.X.7 o O 3 7 7 7 7 7 7 7 7 7 7 7 7 : o o O K a.a.a.a.a.a.w.~ % O O 6 7 7 7 7 7 7 7 7 3 % o O o       ",
"        o O O b +.+.+.+.+.+.~ % i o.] ] o.+.+.+.+.O.6.z.p.6.O.i o O & 7 7 7 7 7 7 7 7 7 7 7 3 3 % o X b a.a.u.q.p.a.u.K O O % 6 7 7 7 7 7 7 3 3 : @ o o o       ",
"          O O : ~ @.+.+.+.+.+.l % K ~ ~ | +.+.+.+.+.9.z.p.q.@.A O O % 6 7 7 7 7 7 7 7 7 7 3 : : O O o J z.a.a.y.a.a.z.o.% o o % > 5 5 3 3 3 : : @ O O o .       ",
"          O O o y | +.+.+.+.+.| a 7 Q [ X.+.+.+.+.@.w.z.z.p.@.| 6 o O : 7 7 7 7 7 6 4 3 : 3 : % O o 6 5.z.z.a.u.u.w.7.w.F @ o O O % & ; & % % O o o O o o       ",
"            O O O h o.+.+.+.+.+.o.v p ] +.+.+.+.+.@.p.p.z.a.w.+.A O O O % 5 5 5 3 3 3 : : & O O o > { z.z.7.H a h w 5 i ~ ~ w O o o o O o o o o % p y o o O     ",
"              o O O h X.+.+.+.+.+.+.Q x K o.+.+.+.7.z.z.a.a.p.7.o.a O O O % & : : : & % O O O O 7  .a.z.w.p o % O % : O % [ w.{ v w > % % > 6 z ^ 9.D o O O     ",
"                O o O y ] @.+.+.+.+.+.o.Q J [ o.@.y.z.a.p.a.z.p.7.| a $ o o O O O O O o o o 1 A 7.a.a.z.| O % 7 6 5 7 3 o p u.z.p.t.6.@.@.5.q.u.a.a.x . O o     ",
"                  O O o 1 A | @.+.+.+.+.+.o.| [ O.p.a.a.z.a.p.z.p.q.+.H y % O o O o % : i H @.p.z.a.a.z.] O % 7 7 7 7 3 o y w.z.a.z.z.z.a.u.p.a.z.5.5 o O       ",
"                    O O O O 6 b | o.+.+.+.+.+.+.6.p.p.a.a.a.a.a.z.p.u.q.@.] H A A H ~ +.q.p.z.a.a.a.a.z.@.: O 5 5 % 5 % o A a.z.z.a.a.a.a.q.y.z.u.v O O O       ",
"                        O O O O % p J | o.+.+.+.6.p.a.a.a.a.a.a.p.z.p.z.p.p.u.y.u.u.p.z.z.p.a.z.a.a.a.a.z.~ 1 + % % % > x 9.z.a.a.u.a.a.p.a.a.p.K @ O O         ",
"                            O O O o $ 3 a J | +.@.q.p.a.z.a.a.a.z.z.p.p.u.p.p.z.z.z.a.a.p.a.a.p.a.a.a.a.z.p.@.~ Q o.+.5.u.z.a.a.u.9.u.p.7.p.u.W % o O           ",
"                                o O o o o % > a H [ @.q.w.y.u.p.z.p.p.6.@.w.z.p.p.a.a.a.z.a.a.a.a.a.a.a.z.z.z.z.z.z.z.z.a.a.a.a.a.p.a.a.u.p.W % O o O           ",
"                                      O o O o o O > e b ~  .,.6.w.a.a.q.@.y.a.a.a.a.a.a.a.a.a.a.a.a.a.a.a.a.a.a.a.a.a.a.a.a.a.a.a.a.a.a.z.q.7 o O O             ",
"                                            o O O o o o O 6 p G X.@.u.a.z.a.a.z.a.a.a.a.a.a.a.a.a.a.a.a.a.a.a.a.a.a.a.a.a.a.a.a.a.a.a.a.z.7.1 O o               ",
"                                                    o O o X o O i X.t.a.z.z.z.z.a.a.a.a.a.a.a.a.a.a.a.a.a.a.a.p.w.a.a.a.a.a.a.a.9.u.a.a.z.+.; O O               ",
"                                                      O O O O O $ F w.a.z.z.@.q.z.a.a.a.a.a.a.w.y.a.a.a.a.a.a.7.J u.a.a.a.a.a.a.F O.z.a.z.~ O O O               ",
"                                                    O O X o O O X 7 @.u.a.y.A ^ z.a.a.a.a.a.u.J 6.a.a.a.a.a.z.o.7 @.z.a.a.a.a.q.e x w.y.o.7 o o o               ",
"                                                  O O O < r q O O O x @.@.o.7 s u.p.z.a.z.u.+.w ,.z.z.a.a.a.w.~ % G u.u.a.y.| p % O w p 1 O O O                 ",
"                                                O o % j U U L n : X $ s F s % % a J @.u.w.o.S % S  .q.u.y.@.A 6 O : p J | D % X O O o o o O O                   ",
"                                              o o $ f N L E _ ) d O X O O X O O X $ w A v 3 $ X o $ e H H w O o O o o O % O o o o   o O O                       ",
"                                              O $ r U P U Y Y ) Z $ X O O % 6 $ X X X X $ . $ $ $ o o O $ o o o o O O o O O O O                                 ",
"                                            O O , L L U ) #.#.( k $ $ X X % 7 : $ X $ X O X $ 1 1 % O o o o o O ; ; O o 1 5 o O                                 ",
"                                          O O O r N Z U Y Y ( %.P $ X > 6 : $ $ $ . . $ X $ O X O o o O O % e J | Q > o % 5 O O                                 ",
"                                          O O O $ $ 8 k Y ( Y U d $ X 5 S K F s x p p a s e O $ e e O o % 6 i i w 1 O o % i % o                                 ",
"                                            o o . $ o o $ $ $ $ $ . . $ $ % % : > > 6 w e > X $ ~ | $ o O $ $ % > w 6 O O b i X o O                             ",
"                                          o O $ 5 s x e i > X X X $ $ $ O X O : > 5 > > & % $ O l D $ O 5 i s b D D a O o p | i > O O                           ",
"                                        $ $ X % A F 5 : | X.: $ $ $ $ $ O O O % 6 y p i i w $ o O O X O O $ $ $ O O X O o $ a X.H % o o O                       ",
"                                        . $ $ $ o $ X o i [ w X X X $ < $ $ $ $ X X $ X X $ o O 3 x 6 X O $ $ $ $ - < > o O O % @ O % O O                       ",
"                                      O o 6 ~ F l a l : X O o > y O O , 9 9 9 8 , , , - , , o o p { l X O 9 9 9 8 < 0 < O O O : i l e O O                       ",
"                                      o o l 5.6.5.5.5.[ v p p K } > o , 9 9 9 9 9 9 9 9 9 , O O O @ O X O , , = ; O O @ @ O o : e 5 O O O                       ",
"                                      O o h 5.5.5.5.5.6.w.t.6.F l % O O O = $ $ - - = = ; O O O O O O O + + @ # & * * 4 2 O 1 > ; > O O O                       ",
"                                      o o > ~ 6.5.5.5.6.y.5.t.w.l O O + # # # @ @ # # # # & # & : * * * 2 * * * * 2 * & @ O K 6.X.b @ O O                       ",
"                                        O o 5 ~ 5.6.5.] 6.,.b ~ K O O + * * 2 # # 2 * * * * * * * * & * & # @ @ @ ; q g O O y x e O O O                         ",
"                                          O o ; z ] @.{ l +.@.i $ o O @ + @ @ + @ # # @ # + + + + @ ; 1 q q g B U $.k.k.q o O X O O                             ",
"                                            O o o % e v w > S i o = g M m m L Z M M m M M C P P U ( :.f.3.<.1.1.s.s.C.C.j O O                                   ",
"                                                O o o o O o o O ; g I U U ( 1.3.2.2.2.2.2.3.d.3.3.3.3.4.3.3.3.1.4.s.l.C.c o O                                   ",
"                                                  O O q 0 : $ 9 m U U I I E %.=.2.1.<.1.2.<.1.<.%.;.1.1.1.*._ C Z E :.;.> O                                     ",
"                                                  o O : < @ O @ > t m m d q 1 q k E %.<.*.` P t 1 9 d m Z d % ; O O @ @ o O                                     ",
"                                                      o     O O O O O + : u x > o @ > t f < O o o o O X O > x K & O o o o                                       ",
"                                                            O O O O O O > w e @ o O O X O X   o O O O O O ; 6 > O O @ O O O                                     ",
"                                                            O O + + o o O + O @ @ * # O O     O O + + O O O O @ % & * @ o o                                     ",
"                                                            O o O O + O + @ @ @ # @ @ O o O   O o O O O O + + @ + @ @ O O O                                     ",
"                                                            O o O O O O O O O o O O O O O O     O O O O O O o O O O O O o                                       ",
"                                                                            O                                                                                   "
};
