/* XPM */
static char *w_15_resized[] = {
/* columns rows colors chars-per-pixel */
"80 80 153 2 ",
"   c None",
".  c #151513",
"X  c #181716",
"o  c #1A1917",
"O  c #1C1B19",
"+  c #221A16",
"@  c #221E1B",
"#  c #291E19",
"$  c #1F201F",
"%  c #23211E",
"&  c #2C211B",
"*  c #33241D",
"=  c #1F2121",
"-  c #252422",
";  c #292622",
":  c #2D2A25",
">  c #222628",
",  c #252A2C",
"<  c #2C2C2B",
"1  c #312C27",
"2  c #3F2C24",
"3  c #322E29",
"4  c #35322C",
"5  c #3A342D",
"6  c #272D30",
"7  c #292E31",
"8  c #2D3133",
"9  c #333334",
"0  c #3A3630",
"q  c #3D3933",
"w  c #363739",
"e  c #37383A",
"r  c #3B3B3A",
"t  c #413D36",
"y  c #433F38",
"u  c #46413A",
"i  c #4A453D",
"p  c #4E483F",
"a  c #50493F",
"s  c #3C3E41",
"d  c #3E4144",
"f  c #424343",
"g  c #4B4740",
"h  c #4E4941",
"j  c #434649",
"k  c #46494E",
"l  c #534D44",
"z  c #514E49",
"x  c #565047",
"c  c #585147",
"v  c #5A544A",
"b  c #5F584D",
"n  c #494D52",
"m  c #4E5156",
"M  c #4D5359",
"N  c #5C5852",
"B  c #51555A",
"V  c #53585F",
"C  c #615A4F",
"Z  c #645D52",
"A  c #676054",
"S  c #696155",
"D  c #6D6559",
"F  c #70675A",
"G  c #736A5D",
"H  c #565B63",
"J  c #5A5E65",
"K  c #595F68",
"L  c #5C6067",
"P  c #5C626B",
"I  c #6B6760",
"U  c #6D6861",
"Y  c #61656D",
"T  c #776E60",
"R  c #796F61",
"E  c #7C7364",
"W  c #7B756D",
"Q  c #606770",
"!  c #656B74",
"~  c #696D75",
"^  c #6C727C",
"/  c #797B7E",
"(  c #807667",
")  c #817768",
"_  c #847A6B",
"`  c #897E6E",
"'  c #827D74",
"]  c #897F70",
"[  c #8A806F",
"{  c #8D8272",
"}  c #89837B",
"|  c #918675",
" . c #948877",
".. c #968A79",
"X. c #998D7B",
"o. c #9D917E",
"O. c #6F7681",
"+. c #707781",
"@. c #747A85",
"#. c #787D85",
"$. c #757D88",
"%. c #787E89",
"&. c #7C838E",
"*. c #908A81",
"=. c #979187",
"-. c #9E9281",
";. c #9B9489",
":. c #808792",
">. c #828995",
",. c #898E96",
"<. c #868D99",
"1. c #888F9B",
"2. c #8D9094",
"3. c #8B929D",
"4. c #A29583",
"5. c #A69985",
"6. c #A89A87",
"7. c #A2998C",
"8. c #AB9D8A",
"9. c #AFA18D",
"0. c #B1A38F",
"q. c #A6A095",
"w. c #ABA294",
"e. c #AEA69A",
"r. c #B4A691",
"t. c #B7A893",
"y. c #BAAB96",
"u. c #B1A99E",
"i. c #BDAE99",
"p. c #BFB09A",
"a. c #8E95A1",
"s. c #9298A3",
"d. c #9CA0A6",
"f. c #A1A4A8",
"g. c #BAB2A6",
"h. c #BDB5A9",
"j. c #AFB3B9",
"k. c #B5B8BE",
"l. c #C0B19B",
"z. c #C4B6A1",
"x. c #C6B8A4",
"c. c #C0B8AC",
"v. c #C9BDAA",
"b. c #C8BFB1",
"n. c #CDC3B3",
"m. c #CEC6B9",
"M. c #D2C7B6",
"N. c #D4CABB",
"B. c #B6BAC0",
"V. c #BCC0C7",
"C. c #D6CEC0",
"Z. c #D9CFC0",
"A. c #DAD1C3",
/* pixels */
"                                                                                                                                                                ",
"                                                                  O O O O O X O O X O X O O O O O X O                                                           ",
"                                                      O O O O O X X O X X X O O O @ @ O O X O X X X X O O O O O                                                 ",
"                                            O O O O O X X X $ % 3 5 u p c Z S D D G G G G S S Z v h q < % X X X X O O O                                         ",
"                                      O X $ o X X % ; q h C G E [  . .X.o.X.X.o.X.o.4.8.0.y.l.l.i.y.y.w.;.' N u ; O X O O O O                                   ",
"                                X $ $ X X $ & t b G `  ...o.o.o.X.X.X.X.X.X.o.5.0.t.i.l.l.l.i.i.p.p.l.l.l.n.n.n.u.} N 9 O X X O O                               ",
"                            O O o X $ : i D [  .X.o.X.X.X.X.X.X.X.X.X.o.4.9.t.p.l.i.i.l.l.l.l.i.y.i.p.p.l.p.l.z.n.N.C.h.=.Z 4 O X O O O                         ",
"                        O O O X $ t A [ X.o.X.X.X.X...X.X.X.X...X.4.8.t.p.p.l.p.l.i.l.l.i.l.i.6.o.4.y.p.l.p.p.p.l.l.v.N.A.C.h.} g % X O O O                     ",
"                      O O X % i T  .X.X.X.X.X.X.X.X.X.X.X. .o.5.0.y.l.p.p.p.p.p.p.p.p.p.i.l.y.o...X.0.l.l.l.l.l.l.l.p.l.v.N.A.A.m.7.v = O O O                   ",
"                  O O X O 0 G ..X.X.X.X.X.X.X.X.X.X.X.o.o.9.t.i.p.p.p.p.p.p.p.p.p.p.p.p.l.i.l.0.o.6.l.l.l.l.l.0.t.l.p.p.p.l.v.N.A.A.N.=.r o O O                 ",
"                O O X % c | X.X.X. . .X.X.X.X.X...X.o.9.t.p.p.p.p.p.p.p.p.p.p.p.p.l.p.p.i.l.l.l.l.l.9.o.o...D c c R 4.y.p.p.p.z.n.A.A.A.h.N O O O               ",
"              O X O - S X.X.X.X.[ E _ X.X.X.X.X.4.9.i.p.p.p.p.p.p.p.p.p.p.p.p.p.p.i.p.p.l.l.i.l.8.( i t t t t G ..G v T 8.p.p.p.l.v.N.A.A.n.U O O O             ",
"              X X % Z X.X.X.X.X.| _ [ X...X.o.9.i.p.p.p.p.p.p.p.p.p.p.p.p.p.i.p.p.p.p.p.p.i.l.8.a * 2 5 5 5 5 a r.l.y.4.8.p.p.p.p.p.z.N.A.A.m.I O O O           ",
"            O O O c ..X.X.X.X.` _ | X.X.o.9.i.p.p.p.p.p.p.p.p.p.p.p.l.i.8.8.i.p.p.p.p.p.p.l.l...t t 5 5 5 5 t ( i.p.t.o.-.y.p.p.p.p.p.z.m.A.A.n.v O O O         ",
"          O O O t { X.X.X.X. .E T E X.o.9.p.p.p.p.p.p.p.p.p.p.p.p.p.p.t.o.o.t.p.p.i.l.p.p.p.l.0.Z t 5 5 5 a | i.r.-.8.8.8.p.p.p.p.p.p.i.z.m.Z.A.g.q X O X       ",
"          O X % E o.X.X.X.X.X.` E [ o.r.p.p.p.p.p.p.p.p.p.p.p.p.p.p.p.i.t.t.l.l.p.p.p.p.p.p.i.l.y...R G ` o.o.5.F 0 G p.p.p.p.p.p.p.p.p.p.z.N.A.A.*.O O O       ",
"        O O O c X.X.X.X.X.| [ X...X.9.p.p.p.p.p.p.p.p.p.p.p.p.p.i.l.l.i.i.l.l.i.i.l.l.l.p.l.l.z.l.l.l.y.t...` ` E c _ 8.0.0.i.l.l.l.p.p.p.i.l.N.A.N.z X O O     ",
"        O X 3 [ X.X.X.X.o.T E X.o.o.i.p.p.p.p.p.p.p.p.p.p.p.p.p.l.i.l.l.l.l.i.l.l.l.l.l.i.r.4.{ ( S C c c a l x C Z A S G E ` X.0.l.p.p.p.l.l.l.N.A.=.% O X     ",
"      O O O C X...X.X.X...x E o.X.9.p.p.p.p.p.p.p.p.p.p.p.p.p.p.i.l.l.i.i.l.l.l.i.0.X.E Z b b Z R [ ..o.8.0.0.t.t.y.i.y.i.y.y.i.i.p.p.l.p.p.p.l.v.Z.n.r X O     ",
"      O O : ` X.X.X.X.X.[ u [ X.X.9.p.p.p.p.p.p.p.t.9.p.p.p.p.p.l.i.i.l.i.l.t.4._ R E { 4.w.y.p.l.l.l.l.l.l.l.l.l.l.l.l.l.i.l.l.p.p.p.i.p.p.p.i.p.n.A.D X O O   ",
"    O O X h X.X...X.X.X.E 0 [ o.X.9.p.p.p.p.p.p.i.[ 6.p.i.i.p.p.l.i.l.i.i.i.0.6.0.y.l.l.l.l.p.p.l.l.l.l.y.l.y.l.l.l.i.l.i.i.l.i.p.p.p.p.p.p.p.l.p.z.C.*.O O O   ",
"    X O % G X.X.X.X.X.o.G 5 | X.X.o.y.p.p.p.p.l.[ D 0.4.5.i.p.p.i.l.i.l.l.i.l.l.l.l.l.l.p.p.p.p.l.l.l.y.l.l.l.l.i.i.l.i.l.l.i.l.p.p.p.p.i.p.p.i.p.p.M.q.% O O   ",
"    O X : ` X.X.X.X.X.o.D 5 [ X.X.X.9.p.p.p.l.5.u o.9.X.X.r.p.p.i.l.l.l.l.l.l.i.l.l.i.l.p.p.p.p.l.y.l.l.l.l.l.l.l.i.i.l.l.i.l.i.l.p.p.p.l.p.i.l.p.p.v.e.- O O   ",
"    O X t ..X.X.X.X.X.o.D % _ o.X.X.o.0.p.p.y.b Z i.t.o.5.t.p.p.l.i.l.i.i.l.i.l.i.i.l.i.p.p.p.p.l.l.l.l.y.l.l.y.i.l.l.l.i.i.l.l.i.p.p.p.p.p.l.l.p.p.x.e.- X O   ",
"  O O X p X.X.X.X.X.X.X.R % u G [ X.X.o.r.p.9.u X.p.p.i.i.p.p.p.i.l.i.l.i.i.l.i.p.p.p.p.p.p.p.p.i.l.l.i.l.i.l.i.l.i.l.l.8.4.0.i.p.i.l.i.l.l.l.p.y.y.x.q.- X O   ",
"  O O X v X.X.X.X.X.X.X.| i O % 4 b [ X.o.9.p.E [ p.p.p.p.p.p.p.i.l.l.i.l.l.i.l.p.p.p.p.p.p.p.p.l.l.i.l.i.l.i.l.l.l.l.t.o...X.0.l.p.p.l.i.0.8.o.4.4.r.;.% O O   ",
"  O O O b X.X.X.X.X.X.X...| A 1 o O u _ o.o.0.t. .i.p.p.p.p.p.p.l.l.i.l.l.l.l.l.p.p.p.p.p.p.p.p.i.l.l.l.l.l.i.l.i.l.l.l.5.X.4.i.l.l.i.0.o.X.X.X.X.X.4.W O O X   ",
"  O O X b X.X.X.X.X.X...[ _ .._ 5 o o i  .X.o.0.9.t.p.p.p.p.i.r.6.5.5.6.8.0.t.y.p.p.p.i.y.y.p.l.l.l.l.l.l.l.l.i.0.8...` | 8.i.l.l.t.4.o.X.X.o.X.o.X.5.N X O O   ",
"  O O X l X.X.X.X.X.o...) E | o.T % o ; [ X...o.r.i.p.p.p.i.5.X.X.X.X.X.X.X.X.4.5.8.r.y.6.{ E E E ( ) ) ( G D Z b Z E X.t.l.l.i.9.o.X.X...| E F D E =.y . O     ",
"    O O u ..X.X.X. .{ ....| ..X.E % o ; [ X.X.X.-.y.p.p.i.9.X.X.X.X.X...|  .X.X.X.X.X.-.4.5.4.X.] ( R G G E ` X.8.t.l.l.l.l.y.4.X.o. .E l 3 % O O % 9 - . X     ",
"    O X 4 { X.X. ._ R _ ..o...o.D O o 5 { X.X.X.X.9.i.p.t.o.X.X.X._ c q 5 0 i C R { X.X.X.X.o.6.t.l.l.l.l.l.l.l.l.l.l.l.l.y.4.X.X.) p % X O O O O X X X X .     ",
"    O X - ( X.X.X.) R ) ..X.X...u o O v X.X.X.X.X.o.t.p.9.o.X.X.G : O X O X X O @ 1 i Z ` X.X.X.X.8.i.l.l.i.l.l.i.l.l.l.y.4.X. .Z : X O O % : 4 4 % O O X .     ",
"    O O X A o.o...| [ | ..o.o.G % o 3 [ o.X.o...X.X.9.l.9.X.o._ : X O % ; % % @ X X X O : p G  .o.X.6.i.p.p.p.p.p.p.p.y.5.X.` i O O O % 3 5 5 5 5 : O O X .     ",
"    O X X u  ...o.o...o.o...{ 5 X : R X...X...X.X.X.6.p.9...o.v O O @ 5 5 5 5 4 3 & % O X X % 0 A { X.9.p.p.p.p.p.p.p.9.X._ 0 X O O ; 5 5 5 5 5 5 2 O O O       ",
"      O O ; _ o...o.......o.S O 3 E X.X.X.X.X.X.X...4.l.9... .r X O ; 5 5 5 5 5 5 5 5 3 ; @ X X $ 0 E o.y.p.p.p.p.p.y.4.[ 5 X O @ 3 5 5 5 5 5 5 5 4 O O X       ",
"      O O O v ......o...o...x X v o.X.X.X.X...o.X.X.4.p.0.o.{ 4 O O : 5 5 5 5 5 5 5 5 5 5 3 ; @ O X : _ y.l.p.p.p.p.t.X.h X X % 3 5 5 5 5 5 5 5 5 4 O O O       ",
"        O X 1 [ o...o...X.o.v O C ..[ | X.X.X...X...5.p.y.o.| 5 X O : 5 5 5 5 5 5 5 5 5 5 5 5 1 @ X X v y.l.p.y.p.p.t.[ : O O 3 5 5 5 5 5 5 5 5 3 & O O X       ",
"        O O O x ..o.o.....o.) ; i _ E E | ....o.X.X.9.l.p.5...i O O & 5 5 5 5 5 5 5 5 5 5 5 1 1 % O X l i.p.i.8.y.l.y.` - X O 3 5 5 5 5 5 5 3 1 ; % O O X .     ",
"          O O % G X...o...X...A & Z E E | o.o...o.o.0.l.p.0.o.D O O @ 4 5 5 5 5 5 5 5 2 3 1 ; ; O O O G l.p.p.i.p.l.l.8.0 X X % ; 1 1 1 1 ; : ; % O O O X X     ",
"          O O o 4 _ o...o...o...A 5 D | ..o...X...o.y.p.p.y.4.{ q O X & 3 5 5 5 3 3 3 : : ; ; @ O X 0 8.l.l.y.9.9.4. .4.[ 4 X X O @ @ % & % $ O X X O X X O     ",
"            O O X 0 ` o.X.X.X.X.X.R p D  ...X.X...9.p.p.p.p.r.o.G - X O % : 1 : : 1 : ; ; @ O O X q -.p.p.o.z 5 4 ; % : C { c ; X X X X O X X o O y v O O O     ",
"              X O O 0 E X.X.X.X.X.o.| D A [ ..X.o.r.p.p.p.p.p.9...b $ O O O % & - % % @ O X X % x 6.p.p.9.q X & % % 1 % X A i.o.G l 0 4 : 4 q c _ 8.` @ X O     ",
"                X O O : A  .o...X.X.X.X.{ R E { 4.p.p.p.p.p.p.p.9.o.A : O X O O O X X X O - i ` y.p.p.p.[ O % 4 5 4 5 3 X 5 0.l.l.i.0.8.5.8.r.y.p.l.R X O O     ",
"                  O O O O t F  .X.X.X.X.X.X. .{ 4.p.p.p.p.p.p.p.p.t.4.[ v q ; % % ; 3 u Z | 0.l.p.p.p.p.[ O % 5 5 4 5 3 O 4 8.l.p.p.l.l.p.y.y.p.p.r.u X O O     ",
"                      O o o $ 0 C [ X.X.X.X.X.X.9.p.p.p.p.p.p.p.p.p.p.t.9.o.{ _ ` | o.9.i.p.l.i.p.p.p.p.8.5 X ; 3 % ; % X C i.p.p.p.p.p.p.0.r.p.p.D O O O       ",
"                        O o o X $ & i D [ X.o.X.6.p.p.p.p.p.p.p.p.p.p.p.p.p.p.p.i.i.p.l.p.p.p.l.p.p.p.p.p. .q % @ : < 5 Z 0.l.p.p.t.i.p.i.p.p.i._ - O O         ",
"                              $ X $ X $ 1 i F [ ..8.y.y.p.p.p.p.p.p.p.t.9.p.p.p.l.l.i.p.p.p.p.i.p.p.p.p.p.l.0...{ 4.8.9.i.l.p.p.i.9.t.i.8.y.i._ : X O X         ",
"                                  . X X $ X $ : i A ` o.6.9.9.y.y.p.y.o.o.0.p.p.p.p.l.p.p.p.p.p.p.p.p.p.p.p.l.l.l.l.l.l.p.p.p.p.p.p.p.p.y.p._ - X O O           ",
"                                        O O O O X O ; q v R { o.o.y.i.r.0.i.p.p.p.p.p.p.p.p.p.p.p.p.p.p.p.p.p.p.p.p.p.p.p.p.p.p.p.p.p.p.p.y.u X O O             ",
"                                              O O O O o o = 4 h | o.i.p.i.p.p.p.p.p.p.p.p.p.p.p.p.p.p.p.p.p.p.p.l.p.p.p.p.p.p.p.l.p.p.p.p.9.0 X X               ",
"                                                    O O O o o o u ..t.p.p.p.y.i.p.p.p.p.p.p.p.l.p.p.p.p.p.p.p.y.9.p.p.p.p.p.p.p.8.r.p.p.l.4.< O O               ",
"                                                    O X O o O o $ R t.p.p.i.[ 9.l.p.p.p.p.p.p.o.t.p.p.p.p.p.l.4.A t.p.p.p.p.p.p.S { l.l.l._ O O O               ",
"                                                    O O X X o O O u o.t.t.o.t | l.p.p.p.p.l.9.b 9.p.p.p.p.p.p._ 3 o.l.p.p.p.p.9.q h 8.r.X.0 X O X               ",
"                                                  O O - r k w O O O a ..X.E % A 0.i.p.p.l.t.[ 4 8.p.l.l.p.p.9.G $ D r.y.p.r.E u % O 4 i 3 O O O                 ",
"                                                O O 8 V P H K M % X % u i 3 $ % 5 C X.0.o.E i $ c W 6.t.0.[ h ; O % q S ) v $ X X O O X X O O                   ",
"                                              X X < M H P ^ ^ P 9 O O O X X X O X O 3 a u $ O $ o O 0 b v : O O O O O O % O O O O   O O X                       ",
"                                            $ X > d K H K Q ! O.k o X o $ 5 4 $ $ X X X X $ $ $ % X X X o o X $ o o O O O $ o o                                 ",
"                                            o . d P K Q ^ +.! P r $ $ o O % 1 $ X X X O o X $ < ; $ $ X $ o X $ 3 : O X : : o O                                 ",
"                                          $ X $ d d M L Q ! ^ &.k X $ 5 t 4 ; % $ $ $ $ O o o O $ . $ X o % i R { T ; O % % o O                                 ",
"                                          $ o $ $ > 8 n K K V M 8 $ X 5 C D A a l a p c b 5 o $ i t X $ % 4 q q 1 % O O % 5 O O                                 ",
"                                            O O $ $ $ X $ $ X $ $ X $ X O $ @ $ $ ; 1 1 4 % $ % [ E $ . $ $ % & 4 t 0 O O x 0 X X O                             ",
"                                          O X - y C a t a : X o $ X $ $ O o @ 1 4 5 4 3 1 & X + x x o $ 4 u a b Z b t $ o p E 0 - O O                           ",
"                                        $ $ X : D a % : o.{ $ $ X $ = $ $ o o % 1 q t q q 4 $ X $ o o o O $ $ $ O O o O O $ b ..b O O X                         ",
"                                      X X $ ; O O X X $ p G ; . . $ $ > - $ $ $ . $ X $ . $ . $ 5 C 3 o O $ $ = $ $ < > O o $ ; % O O O O                       ",
"                                      O X i ` S x c l - X X O 5 u O O , 7 7 6 6 > > > > > = O O z ) t X O 6 7 6 6 , 8 , X O O : y l 5 O O                       ",
"                                      O O D 5.5.5.5.4.` Z l l _ _ - O > 6 7 7 7 7 7 7 7 7 > O O O @ O O $ > > = = @ O % @ O O 4 u 3 O X O                       ",
"                                      O O S 5.4.4.4.4.5.t.t.5.Z y O O O O O - @ $ $ $ $ $ @ O O O O O O @ + @ # & & * 2 & O ; % % - O O O                       ",
"                                      X X 4 { 4.4.4.4.5.t.o.0.9.l O O + & & # @ @ - # & # & # * * * * * * * * * * * * & @ O G X._ u O O                         ",
"                                        O O q _ 4.5.4.E 8.X.c R Z O O + * * * # & * 2 & * * * * * * * * # # + @ @ ; r f @ X i C q O X O                         ",
"                                          O X : c _ -.E l X.o.t + O O $ @ @ + @ @ + + + + + + @ @ @ - 4 9 r j B Y #.j.d.< O X X O O                             ",
"                                            O X O - q c 3 : Z 0 o $ j B n B K H V B B B V V L L Y ~ ,.s.,.:.>.1.a.s.V.k.r X O                                   ",
"                                                O X o O O O X O - k P P Y ^ 1.1.,.<.<.<.<.3.s.1.1.1.3.3.<.<.<.>.3.s.B.k.j X O                                   ",
"                                                O X > e < $ O w B P P H K ! %.&.<.:.:.<.>.:.<.&.%.&.>.<.:.&.~ B H ~ 2./ - O                                     ",
"                                                  O O : - O O O < f n j e < < w M ! %.:.&.^ B 9 > 9 f B V e % - O O % % X                                       ",
"                                                      X   O O O X O + O 1 i h + X @ < f r - O X X X X X O - c Z % O X O O                                       ",
"                                                          O O O O O O O ; 9 1 O O O X X O X O X O O O O O % : % X O # O O O                                     ",
"                                                          O O O + + o O O + O @ # : # o O     O O + O O o + O + @ & * @ O O                                     ",
"                                                          O O O O O + o + @ @ @ # @ + O O     O O O O O O + @ @ @ @ O O O O                                     ",
"                                                            O O O O O O O O O O O O O O O     O O O O O O O X O O O O O X                                       ",
"                                                                                                                                                                "
};
