/* XPM */
static char *w_16_resized[] = {
/* columns rows colors chars-per-pixel */
"80 80 152 2 ",
"   c None",
".  c #171614",
"X  c #181715",
"o  c #1A1917",
"O  c #1B1A18",
"+  c #201916",
"@  c #221E1B",
"#  c #291F1A",
"$  c #1F201F",
"%  c #23211E",
"&  c #2C211C",
"*  c #33241D",
"=  c #1F2121",
"-  c #242422",
";  c #292622",
":  c #2D2925",
">  c #252A2C",
",  c #2C2B29",
"<  c #322620",
"1  c #332A25",
"2  c #392821",
"3  c #332E29",
"4  c #35312C",
"5  c #3A342D",
"6  c #272D30",
"7  c #292E32",
"8  c #2D3235",
"9  c #323333",
"0  c #3A3630",
"q  c #3D3933",
"w  c #363739",
"e  c #37393B",
"r  c #3B3B3B",
"t  c #423D36",
"y  c #433F38",
"u  c #46413A",
"i  c #4A453D",
"p  c #4D483F",
"a  c #50493F",
"s  c #3D3F41",
"d  c #3E4144",
"f  c #414346",
"g  c #494642",
"h  c #4E4941",
"j  c #434549",
"k  c #45484C",
"l  c #494B4D",
"z  c #524C43",
"x  c #565047",
"c  c #57524A",
"v  c #5B544A",
"b  c #5F584D",
"n  c #464B51",
"m  c #494D52",
"M  c #4D5157",
"N  c #4D535B",
"B  c #5F5B55",
"V  c #51555B",
"C  c #615A4F",
"Z  c #655D52",
"A  c #635F58",
"S  c #676054",
"D  c #6A6256",
"F  c #66625B",
"G  c #6D6559",
"H  c #70675B",
"J  c #726A5D",
"K  c #555B63",
"L  c #595D63",
"P  c #5C6067",
"I  c #5C626B",
"U  c #5E6670",
"Y  c #6B6760",
"T  c #63676F",
"R  c #756E62",
"E  c #786F61",
"W  c #7C7364",
"Q  c #76726A",
"!  c #7D7569",
"~  c #636A73",
"^  c #6A6E76",
"/  c #666E78",
"(  c #6B727C",
")  c #7D7870",
"_  c #70767F",
"`  c #807667",
"'  c #817768",
"]  c #857A6B",
"[  c #897E6E",
"{  c #847F76",
"}  c #8A806F",
"|  c #8D8272",
" . c #868178",
".. c #8E887F",
"X. c #918675",
"o. c #948877",
"O. c #90877A",
"+. c #968A79",
"@. c #998D7B",
"#. c #9D917F",
"$. c #727883",
"%. c #787E87",
"&. c #787E89",
"*. c #7C828C",
"=. c #7E8590",
"-. c #8F8980",
";. c #86898C",
":. c #938D83",
">. c #9E9281",
",. c #808793",
"<. c #838A96",
"1. c #8B8F93",
"2. c #868D99",
"3. c #888F9A",
"4. c #8C939E",
"5. c #A29683",
"6. c #A69986",
"7. c #A89B87",
"8. c #AA9D89",
"9. c #AEA18C",
"0. c #B1A38F",
"q. c #ACA59A",
"w. c #B4A691",
"e. c #B7A893",
"r. c #BAAB96",
"t. c #BDAF99",
"y. c #BFB09A",
"u. c #8E95A0",
"i. c #9197A2",
"p. c #949AA5",
"a. c #9B9EA2",
"s. c #9EA2A8",
"d. c #A0A3A7",
"f. c #B4ADA0",
"g. c #B8B0A4",
"h. c #B0B5BD",
"j. c #C0B19B",
"k. c #C3B5A1",
"l. c #C7B9A6",
"z. c #C8BBA7",
"x. c #C4BAAC",
"c. c #CABDAB",
"v. c #CEC3B3",
"b. c #CFC7B9",
"n. c #D1C6B5",
"m. c #D0C7BA",
"M. c #D4CBBC",
"N. c #B6BBC3",
"B. c #BEC1C7",
"V. c #C1C5CB",
"C. c #D7CEC0",
"Z. c #DAD1C3",
/* pixels */
"                                                                                                                                                                ",
"                                                                      O O O O O O O O X O O O                                                                   ",
"                                                        O O O O O O X O X X X X X X X X X X X X X X O O O O                                                     ",
"                                              O O O O O X X O O % % : 4 q u i h z z a p i u q 4 3 - $ X X X O O O O                                             ",
"                                      O o o $ o X O $ ; 0 i v D W ] } X.o.+.@.@.@.@.#.#.6.9.0.0.8.>.o.! B u : O X X X O O                                       ",
"                                  o $ o o . $ 4 p Z E } o.@.@.#.@.@.@.@.@.@.@.#.6.9.e.t.t.j.j.j.j.j.j.k.x.x.g.:.Y u - O X X O O                                 ",
"                            O O o . o % q C W | @.@.@.@.@.@.@.@.@.@.@.@.#.6.0.r.t.j.j.t.j.t.t.t.y.y.y.y.y.y.z.n.M.b.q.) g - X X O O X                           ",
"                        O O O X $ 5 b } o.@.@.@.@.@.@.@.@.@.@.+.@.@.5.0.r.y.y.y.j.j.t.j.t.j.t.9.6.9.y.y.y.y.y.y.k.c.M.Z.b.q.Q q O X O O O                       ",
"                      O X X % t J X.@.@.@.@.@.@.+.@.@.+.+.+.#.#.8.e.y.y.y.y.y.y.y.y.y.y.y.j.r.#.@.@.w.j.j.j.j.j.y.y.j.c.M.Z.Z.x.-.h - o O O                     ",
"                  O O O O 0 G o.@.@.@.@.@.@.@.@.@.@.@.+.#.9.9.r.y.y.y.y.y.y.y.y.y.y.y.t.y.j.r.6.@.#.j.j.j.j.j.j.j.y.y.y.j.c.M.Z.Z.b.:.y o O O                   ",
"                O O X % x | @.@.@.o.+.@.@.@.@.@.@.@.#.9.w.t.y.y.y.y.y.y.y.y.y.y.y.y.y.y.y.t.t.t.r.j.j.r.e.0.X.J [ 8.t.j.y.y.k.v.C.Z.Z.x.Y = X O O               ",
"              O O X ; D @.@.@.@.} W } @.@.@.+.@.#.9.r.y.y.y.y.y.y.y.y.y.y.y.y.y.y.y.y.y.y.y.y.j.r.o.G x C a i J Z z D >.r.y.y.y.z.M.Z.Z.C.{ > . X O             ",
"              O X % D @.@.@.@.@.} W } @.+.+.#.9.r.y.y.y.y.y.y.y.y.y.y.y.j.y.y.y.y.y.y.y.y.y.y.9.Z t * 2 5 5 5 H r.9.| ] 8.y.y.y.j.j.n.Z.Z.C...> O O             ",
"            O X O b @.@.@.@.@.} } X.@.@.@.9.r.y.y.y.y.y.y.y.y.y.y.y.j.t.0.e.y.y.y.y.y.y.y.y.j.] 5 t 5 5 5 5 5 H t.j.r.6.9.y.y.y.t.j.j.n.Z.Z.M.{ % X O           ",
"          O O X i +.@.@.@.@.o.W E } @.#.0.y.y.y.y.y.y.y.y.y.y.y.y.y.y.0.@.#.t.j.y.y.y.y.y.y.y.+.t 5 5 5 5 y ` w.y.r.w.@.6.t.y.y.j.t.j.j.v.C.Z.m.F O O O         ",
"        O O O : ] @.@.@.@.@.+.` W } #.e.y.y.y.y.y.y.y.y.y.y.y.y.y.y.y.r.9.0.t.y.y.y.y.y.y.y.y.t.@.S a a Z | 6.9.W b @.r.r.y.y.y.t.j.t.t.j.n.Z.Z.x.q X O O       ",
"        O O O D #.+.+.#.+.X.| +.X.@.0.y.y.y.y.y.y.y.y.y.y.y.y.y.t.j.t.j.j.j.t.j.j.t.t.j.t.j.j.j.j.j.w.e.r.#.@.@.C i o.j.j.j.j.j.y.y.y.y.y.j.b.Z.Z.-.$ X O       ",
"      X O X q o.@.@.#.+.+.J } #.@.7.y.y.y.y.y.y.y.y.y.y.y.y.y.y.j.t.j.j.t.t.j.t.t.j.j.j.j.t.r.8.#.+.] W H v x v v C G W ' X.#.0.t.y.y.y.y.y.j.n.Z.v.g X O       ",
"      O X @ J #.#.+.@.@.X.x } +.@.0.y.y.y.y.y.y.y.y.y.y.y.y.y.y.t.j.j.t.j.t.j.j.j.t.8.@.` D v x v Z G J ] [ X.+.@.#.#.#.#.5.5.8.r.y.y.y.y.y.y.j.M.Z. .O O O     ",
"    O O X q o.@.+.@.@.@.W i X.#.#.e.y.y.y.y.y.y.y.w.e.t.y.y.y.y.j.t.t.j.t.j.t.7.| R G J ] +.6.0.t.j.j.j.j.j.j.j.j.j.j.j.j.j.j.j.y.y.y.y.y.y.y.y.z.Z.g.3 X O     ",
"    O O O S @.@.@.+.@.@.D u o.@.@.w.y.y.y.y.y.y.r.} w.t.y.y.y.y.t.j.j.t.t.t.6.@.5.8.t.j.j.j.j.j.j.j.j.t.j.t.t.j.j.j.t.j.j.j.t.j.y.y.y.y.y.y.y.y.j.n.b.g X O     ",
"    O O : [ @.@.@.@.@.#.v i +.@.+.9.y.y.y.y.y.y.W W w.9.w.y.y.y.j.t.t.j.j.t.t.j.j.j.t.j.j.t.j.j.j.t.t.j.j.j.j.t.t.t.j.t.j.j.j.t.y.y.y.y.y.y.y.y.y.l.C.F X O O   ",
"    O X t o.@.@.@.@.@.@.h p @.@.@.#.r.y.y.y.j.+.p 9.#.+.#.r.y.y.j.t.j.t.t.j.t.j.j.t.j.t.t.j.t.j.j.t.j.t.t.j.t.j.j.t.t.j.j.t.j.t.y.y.y.y.y.y.y.y.y.y.M.R X O O   ",
"  O O X v @.@.@.@.@.@.@.p 0 o.@.#.+.#.r.y.y.w.i W j.9.#.6.y.y.y.t.j.t.j.j.t.j.j.t.j.t.j.j.t.j.t.t.j.t.j.j.t.j.t.t.j.j.t.j.j.t.j.y.y.y.y.y.y.y.y.y.y.v.Q X O O   ",
"  O X O G #.@.@.@.@.@.@.v % b } X.@.@.#.e.y.X.u 9.y.t.e.r.y.y.y.j.t.j.t.j.t.j.t.t.j.j.t.j.t.t.j.j.t.t.j.t.j.j.t.j.t.j.t.0.0.j.j.y.y.y.y.y.y.y.j.y.j.c.Q X X O   ",
"  O O % J @.@.@.@.@.@.@.` 3 o & u W @.#.9.y.9.Z 9.y.y.y.y.y.y.y.t.j.t.j.t.j.t.j.j.t.t.j.t.j.j.j.t.j.j.t.j.j.t.j.t.j.j.0.@.@.6.t.y.y.y.y.j.r.w.0.9.w.x.Y X O O   ",
"  O O % W @.@.@.@.@.@.@.@.] p % o % b +.@.#.r.#.#.y.y.y.y.y.y.y.j.j.j.j.j.j.j.j.t.j.j.t.j.j.t.j.j.t.t.j.t.j.j.j.j.j.j.0.@.@.5.j.j.y.y.e.8.#.#.@.@.@.q.c X O     ",
"  O X % W @.@.@.@.@.@.o.] } o.S % o % J @.@.6.w.9.t.y.y.y.y.r.w.9.8.8.w.w.r.t.t.j.j.t.t.t.j.j.j.j.j.j.j.j.j.j.j.j.r.0.5.@.6.e.j.j.r.8.#.@.@.@.@.@.@.>.q X O     ",
"  O O @ R @.@.@.@.@.@.X.W W o.@.a $ X p +.@.@.9.w.t.y.y.y.r.9.+.@.@.@.+.@.5.5.7.w.r.r.r.5.o.+.@.5.6.6.7.6.@.o.' J D H } 0.j.j.t.w.5.@.@.#.@.+.o.+.>.O.> X O     ",
"  O O O S #.@.@.@.X.X.#.X.o.@.#.v X X u +.@.@.@.9.y.y.y.t.#.+.@.@.@.@.+.+.@.@.@.@.@.5.6.6.@.[ R Z b v v v v Z R | 6.r.j.j.j.t.6.@.@.@.| J z q 5 q b A . X O     ",
"  O O O x @.@.@.X.W W } #.@.@.+.u X X v #.@.@.@.#.w.y.y.9.+.@.@.@.] Z z a v H ] o.@.@.@.@.>.7.w.t.r.w.r.e.r.j.j.j.j.j.t.j.r.5.@.#.| Z 4 % X O X X X O . . X     ",
"    X X t o.@.@.| W E } @.@.@.` & $ % W @.@.@.+.+.9.y.y.9.+.@.+.Z : O X X o O - 0 z J | +.@.@.@.6.r.j.t.j.j.t.t.j.j.j.j.r.5.@.+.J 4 O X X @ % ; % O O O .       ",
"    O O ; ] @.@.@.} [ +.@.@.+.z O X a +.@.@.@.@.@.#.r.t.5.@.@.G @ O O % % @ X X O X % 4 x W +.@.@.5.r.y.y.y.y.y.y.y.y.r.5.@.| z % X O @ ; 4 5 5 5 + O O .       ",
"    O X $ G #.@.@.@.@.@.@.#.J % X u | @.+.@.@.@.@.#.e.t.#.#.| 4 X O ; 4 5 5 3 : % O O X X % t G o.@.6.r.y.y.y.y.y.y.r.6.#.! q X X O ; 4 5 5 5 5 5 % O O X       ",
"    O O X i +.@.@.@.@.@.@.o.u X p } @.@.@.@.+.@.@.@.0.t.5.@.W % O O 4 5 5 5 5 5 5 5 : & O X X % q W @.0.y.y.y.y.y.y.w.#.! 4 X O @ 1 5 5 5 5 5 5 0 - O O X       ",
"      O O ; ` #.@.+.@.@.@.} : - ` #.@.@.@.@.@.@.@.@.0.y.5.#.G O O @ 4 5 5 5 5 5 5 5 5 5 4 ; @ X . % G 8.y.y.y.y.y.y.7.| 5 X O % 4 5 5 5 5 5 5 5 5 & X O X       ",
"      O O X x #.@.@.@.@.@.| , : | o.} +.@.@.@.@.@.@.0.y.8.#.D X O % 5 5 5 5 5 t 5 5 5 5 5 5 3 % X X 4 #.y.y.y.y.y.t.6.C O O % 3 5 5 5 2 5 5 5 5 4 % O O X       ",
"        O X ; ` #.+.@.@.@.@.z % E ` W ] +.@.@.@.@.#.r.j.0.#.E % O + 4 5 5 5 5 5 5 5 5 5 5 5 1 ; O O % @.y.y.e.w.y.y.7.p X O & 5 5 5 5 t 5 5 4 3 : O O O .       ",
"        O O X u X.#.@.@.@.@.} 5 u W W ] @.@.@.@.@.5.t.y.r.5.| 4 X O ; 5 5 5 5 5 4 5 4 5 4 1 : - O X : 6.j.y.r.e.y.y.w.c X O % : 4 4 1 5 1 3 1 ; % O O o .       ",
"          O O O v +.@.+.@.@.@.' q a ] +.@.@.+.@.@.9.y.y.y.9.#.C O O @ 1 5 5 5 5 5 4 1 1 : ; & O O O Z r.y.j.j.y.t.r.r.@.4 O O O % ; ; ; ; ; - O X X X X X       ",
"            O X % Z @.@.@.@.@.@.} x v } @.#.+.@.#.e.y.y.y.t.5.| 5 X X % : 3 3 1 : : : ; ; @ O O O h 9.y.r.@.S C v u u J ] u O X O O O O O O O X O 3 % X O       ",
"            O O O % b o.@.@.@.@.#.+.E C W X.@.@.6.y.y.y.y.y.e.#.W ; X X O % ; ; ; & % @ O X X - b 9.y.y.} * O % X % % O v 7.` p : $ O X O O - 4 Z | 0 O O       ",
"              O O X O p ] #.@.@.@.@.#.X.W E } +.w.y.y.y.y.y.y.w.5.J 4 O X O O O O O O X X - i | r.y.y.r.u o : 4 : 5 4 + % o.j.r.7.| W H J W | 8.r.9.4 X X       ",
"                  O O X : b } @.#.+.+.@.@.+.} X.e.y.y.y.y.y.y.y.e.6.} v 4 % @ X O @ ; 0 v | 0.j.y.y.y.9.4 O 4 5 5 5 5 % O ` j.j.j.j.y.j.j.y.j.j.j.| % O O       ",
"                    O O O O : x W X.@.#.@.@.+.#.r.y.y.y.y.y.y.y.j.t.w.8.+.` H D G ! o.6.r.y.j.t.y.y.y.r.p X ; 4 : 3 3 $ - @.y.y.y.y.y.y.e.9.y.y.w.g X O O       ",
"                        O O O O % u Z ] +.#.#.#.r.y.y.y.y.y.y.y.y.y.j.j.t.r.r.r.t.t.y.j.j.t.y.j.y.y.y.j.@.4 O % O O O ; J r.y.y.y.r.y.y.r.r.y.r.S O O O         ",
"                            O O O o O : u H } @.6.e.y.y.y.j.y.y.y.y.r.w.t.y.y.y.t.j.t.j.y.y.y.t.y.y.y.y.j.5.H b G ` ' #.t.y.y.y.w.w.y.e.e.j.r.H % X O           ",
"                                O o O o o O : u S [ >.8.9.w.e.y.y.y.8.@.8.y.y.y.y.y.j.t.y.y.y.y.y.y.y.y.t.j.j.t.j.j.j.j.y.y.y.y.r.r.y.e.e.e.S @ O O             ",
"                                      O O X X O O ; t b W o.#.6.e.y.e.#.e.y.y.y.y.y.y.y.y.y.y.y.y.y.y.y.y.y.y.y.y.y.y.y.y.y.y.y.y.j.t.y.j.` O O O               ",
"                                            O O O X X O % 4 z ' #.r.j.y.y.y.y.y.y.y.y.y.y.y.y.y.y.y.y.y.y.y.y.y.y.y.y.y.y.y.y.y.y.y.j.y.y.C X O O               ",
"                                                  O O O O X X 4 } 9.y.y.y.y.y.y.y.y.y.y.y.y.y.y.y.y.y.y.y.y.y.r.y.y.y.y.y.y.y.r.r.j.y.t.t.z X O                 ",
"                                                    O O O O O O b 9.y.y.y.9.#.y.y.y.y.y.y.y.e.w.y.y.y.y.y.y.r.W 0.y.y.y.y.y.y.@.} j.y.j.9.5 X O                 ",
"                                                  O X O X O O O 3 X.r.r.e.Z H y.y.y.y.y.y.y.` @.j.y.y.y.y.j.9.t X.y.y.y.y.y.y.G g e.j.t.W O O O                 ",
"                                                O X X > 9 9 O X o p @.#.o.0 p e.y.y.y.y.y.#.u X.j.y.y.y.j.r.o.& b t.y.t.y.0.! q @ b ! S : O O X                 ",
"                                              O O - f P P K m > O O u Z i $ % p J #.r.w.#.J ; b >.w.y.r.9.! x $ , Z } 6.X.i $ O O X O O X O O                   ",
"                                              O O e N K I ( ( d O O o O X o o X $ 0 Z Z 0 $ o X - p W ] x % X O o o % 5 3 o O O X O O O O                       ",
"                                            O O 8 I U L U I / I $ o O O : 3 $ X O o o O o o $ $ . . $ % o o o o $ X . o o o $ .                                 ",
"                                          $ O - M K K / $.$./ N $ O o o : q : O O O o O O $ 6 , $ $ o X o o o $ $ X . $ & $ O                                   ",
"                                          O O 9 K L L U U U $.U $ O ; 3 ; $ o o X X o X o o O $ $ . X X $ * x W W 3 X $ - O O                                   ",
"                                        O O O $ = 7 m U ( / ~ d O O 3 Z H D a p i u u p 0 $ o 3 3 $ $ $ 4 i v a u % O $ % O O                                   ",
"                                          O O o $ $ $ $ - - - - o . X $ : : : 3 5 0 y i 5 O $ D | % $ $ $ o O $ % : O O 0 : O O                                 ",
"                                          o O ; q a 0 4 > X $ . $ $ $ X X O ; ; : % % $ $ + o a W % $ & u p v Z H b % X q C $ O O O                             ",
"                                        $ $ $ v W u ; H @.0 . $ $ $ $ $ o . ; 4 u p a i q % o $ $ $ . $ % - : - % $ O O % E ] x O O O                           ",
"                                      X $ X o $ % o o q X.x X X X O - = $ $ $ o O O O O O O o % q 1 o o O $ $ O $ % - $ O % x q O X O O                         ",
"                                      O % C v q 5 t ; X O O O q @ O - 7 6 6 > = > = = = = O o y X.C O O 6 > 6 6 > 8 8 O O O O - 4 3 O O                         ",
"                                    O X 4 @.6.#.#.#.] x t q v +.y X = 6 7 7 7 7 7 7 7 7 > O O - : - O O > > - - $ % % O O O q v h : X O                         ",
"                                    O X q #.6.5.5.5.6.8.9.6.R C 9 O O $ = - = - - - = = $ O o o o O O O @ @ O @ % & 2 < O O O O O O O O                         ",
"                                      O % J 6.5.5.5.5.0.9.0.r.G @ O + # @ # + @ % @ @ - @ # # # # & * & < # * 2 * 2 2 & O y Z b q O O O                         ",
"                                      O X , W 5.6.5.o.@.9.G E +.3 o + # * * # # < < * * * * * * * * * * # # # # % & : % O z | Z : O O                           ",
"                                        O O % v [ #.@.v | 6.b : O o O @ @ + # @ # # @ # # # # @ + @ @ - ; 7 e j L 1.a.9 X O % O X X                             ",
"                                          O X O ; u D v : Z G % X , j f f l j f s s s s s f k l V ^ ;.*.$.&.,.3.4.h.V.l X O X O                                 ",
"                                              O X X O O O O O O , M T I ^ 2.2.<.<.<.<.<.<.p.3.3.3.u.p.3.3.3.<.i.i.h.V.L X O                                     ",
"                                              O O % 9 > - O , j L I L L ~ =.2.3.2.,.2.<.<.2.2.,.2.2.2.<.,.*.^ / %.s.s.r X O                                     ",
"                                                O O , , O O O 8 k V M k s e f P _ *.<.<.%.( m r f V T ^ V 9 - - > 4 9 O O                                       ",
"                                                  O X X O O O O O - @ % 4 t O O > w M M w % X X X o + @ O 4 v ; X X O O                                         ",
"                                                          O O O O X O % 0 0 $ O + o O O X X O O O O O O @ : : O O # O O O                                       ",
"                                                          O O + + O O O O O O @ * # X X     O X + + O O O + O @ & * # O O                                       ",
"                                                          O O O + O + + @ # % & # @ O O O   O O O o O O @ + @ @ # O O O O O                                     ",
"                                                          O X O O O O o O O X O O O O O O     O O O O O O O O O X O O O O                                       ",
"                                                                      O O O O O                                                                                 "
};
