/* XPM */
static char *w_17_resized[] = {
/* columns rows colors chars-per-pixel */
"80 80 151 2 ",
"   c None",
".  c #171614",
"X  c #181715",
"o  c #1A1917",
"O  c #1B1A18",
"+  c #211A16",
"@  c #281C17",
"#  c #211E1B",
"$  c #291F1A",
"%  c #1F201F",
"&  c #23211E",
"*  c #2C211B",
"=  c #33241E",
"-  c #1E2122",
";  c #252422",
":  c #292622",
">  c #2D2925",
",  c #232628",
"<  c #25292C",
"1  c #2C2B2A",
"2  c #302C26",
"3  c #3D2B24",
"4  c #322E29",
"5  c #35312C",
"6  c #3A342D",
"7  c #272D30",
"8  c #292E32",
"9  c #2D3032",
"0  c #323334",
"q  c #3A3630",
"w  c #3D3933",
"e  c #33373A",
"r  c #3C3C3C",
"t  c #413D36",
"y  c #403D39",
"u  c #46413A",
"i  c #4A453D",
"p  c #4F483E",
"a  c #50483F",
"s  c #3C3E41",
"d  c #3F4144",
"f  c #474747",
"g  c #4E4941",
"h  c #434549",
"j  c #4A4C4F",
"k  c #524D44",
"l  c #575047",
"z  c #595147",
"x  c #555149",
"c  c #5B554B",
"v  c #5F584D",
"b  c #444A50",
"n  c #484D54",
"m  c #4D5156",
"M  c #4F545B",
"N  c #535455",
"B  c #5A5650",
"V  c #5B5852",
"C  c #52565D",
"Z  c #575A5F",
"A  c #60594F",
"S  c #645D52",
"D  c #676054",
"F  c #6A6256",
"G  c #6D6559",
"H  c #70675B",
"J  c #736A5D",
"K  c #565B62",
"L  c #595E65",
"P  c #5D636C",
"I  c #616364",
"U  c #62666E",
"Y  c #67686A",
"T  c #766D60",
"R  c #786F61",
"E  c #7C7264",
"W  c #777269",
"Q  c #7A756D",
"!  c #606771",
"~  c #636A74",
"^  c #696E76",
"/  c #6F7073",
"(  c #6C727C",
")  c #7F7971",
"_  c #807667",
"`  c #817768",
"'  c #847A6B",
"]  c #897E6E",
"[  c #827D74",
"{  c #8A7F70",
"}  c #8A806F",
"|  c #858077",
" . c #8D8272",
".. c #868078",
"X. c #918675",
"o. c #948877",
"O. c #968A79",
"+. c #998D7B",
"@. c #9D907E",
"#. c #6E7680",
"$. c #707782",
"%. c #757B85",
"&. c #787E89",
"*. c #7C828D",
"=. c #7E8590",
"-. c #958E84",
";. c #9F9280",
":. c #9C958A",
">. c #808691",
",. c #848A95",
"<. c #868D99",
"1. c #888F9B",
"2. c #8A919C",
"3. c #A29583",
"4. c #A69985",
"5. c #A89B87",
"6. c #A19789",
"7. c #A0998E",
"8. c #AB9D8A",
"9. c #A69F94",
"0. c #AEA08C",
"q. c #B1A38E",
"w. c #ABA294",
"e. c #ACA59A",
"r. c #B4A691",
"t. c #B7A893",
"y. c #BAAB96",
"u. c #BDAE99",
"i. c #BFB09A",
"p. c #949AA4",
"a. c #9EA1A6",
"s. c #9DA3AC",
"d. c #B6AEA3",
"f. c #BBB3A7",
"g. c #BDB5A9",
"h. c #AEB2B7",
"j. c #C0B19B",
"k. c #C4B6A1",
"l. c #C7B9A5",
"z. c #C2BAAD",
"x. c #CABDAA",
"c. c #C5BDB0",
"v. c #CDC1AF",
"b. c #CEC3B2",
"n. c #D0C4B2",
"m. c #D5CBBC",
"M. c #B7BBC1",
"N. c #BFC4CA",
"B. c #C3C8CE",
"V. c #D8CFC0",
"C. c #DAD1C3",
/* pixels */
"                                                                                                                                                                ",
"                                                              O O O O o O o o O o O O o O O o o O O O                                                           ",
"                                                  o O O O O o o o o o o O O & & & & & # O O o o o o o o o o O O                                                 ",
"                                          % O O O o o o O & > 5 t g c S G J R E E E E E E J G G v g w > % o X o O o O o                                         ",
"                                    % o X % X % & 5 u c G E } X.+.+.+.@.@.+.+.+.@.@.4.0.q.u.i.j.i.y.y.e.:.) V w ; O X o O o o                                   ",
"                              O o . X o % 5 a F '  .+.+.@.@.+.+.+.+.+.+.+.+.;.5.q.t.u.j.j.i.i.j.i.i.i.i.k.x.b.z.w.) f > O o o O O                               ",
"                          O O o % % 6 z R  .+.+.@.+.+.+.+.+.+.+.+.+.+.;.5.r.y.i.j.i.i.i.j.i.i.u.y.y.i.i.i.i.i.l.b.m.m.d.| f : o X O O                           ",
"                      o O o o ; i J X.+.+.+.+.+.+.+.+.+.+.+.+.+.@.3.q.y.i.i.j.i.i.i.i.i.i.i.i.5.;.;.y.i.i.i.i.i.i.k.v.m.C.m.e.T q O o O O                       ",
"                    O O o & g E O.+.+.+.+.+.+.+.+.+.+.+.+.+.@.0.t.i.i.i.i.i.i.i.i.i.i.i.i.i.u.3.+.+.0.j.j.j.j.j.i.i.i.i.v.m.C.C.g...t O O O o                   ",
"                o O O O w R +.@.+.O.+.+.+.+.+.+.+.+.+.@.4.r.u.i.i.i.i.i.i.i.i.i.i.i.i.i.i.i.u.q.@.@.j.j.j.j.j.y.i.j.i.i.i.j.b.V.C.C.c.) 1 X O O                 ",
"              o O o # k  .+.+.+. .} X.+.+.+.+.+.+.@.0.r.u.i.i.i.i.i.i.i.i.i.i.i.i.i.i.i.i.i.i.i.j.j.t.8.4.4._ A S  .0.i.i.y.i.l.m.V.C.C.w.f o o O               ",
"              O o & v o.+.+.+.+.} R } +.+.O.+.@.0.y.i.i.i.i.i.i.i.i.i.i.i.i.i.i.i.i.i.i.i.i.i.j.q.' z u t t t J ' v x E 0.i.i.i.j.b.V.C.C.g.x o o O             ",
"            O O O l o.+.+.+.+.o. . .+.+.+.@.0.y.i.i.i.i.i.i.i.i.i.i.i.i.i.i.i.i.i.i.i.i.i.i.i.8.A 6 3 6 6 6 6 a r.i.8.o.3.i.i.i.i.i.x.m.C.C.g.x o O O           ",
"          o O o u X.+.+.+.+.o.E E  .+.+.4.t.i.i.i.i.i.i.i.i.i.i.i.i.i.t.4.8.u.i.i.i.i.i.i.i.j.X.t = 6 6 6 6 6 F t.j.y.3.4.y.i.i.i.i.u.l.V.C.C.f.u O O O         ",
"        O O o > ` @.+.+.+.+. .E R } +.0.u.i.i.i.i.i.i.i.i.i.i.i.i.i.i.r.@.3.y.i.i.i.i.i.i.i.i.0.A 6 6 6 6 i ' t.y.r.r.3.3.y.i.i.i.i.i.i.z.m.C.C.w.> o o         ",
"        o o & F +.+.+.+.+.+.o.] } o.0.i.i.i.i.i.i.i.i.i.i.i.i.i.i.i.i.i.t.y.i.i.i.i.i.i.i.i.i.i.0.] F A J o.3.5.E i E i.y.i.i.i.i.i.i.i.i.l.m.C.V.W O O O       ",
"      O O o u o.O.+.+.+.O.E X.+.+.4.u.i.i.i.i.i.i.i.i.i.i.i.i.i.i.j.i.i.i.i.i.i.i.i.i.i.i.i.j.j.j.j.j.j.u.@.o.o.J a ' u.u.j.j.j.j.j.u.u.j.u.l.m.C.z.w o O       ",
"      O o ; E @.@.O.+.+.} v O.+.@.r.j.i.i.i.i.i.i.i.i.i.i.i.i.i.i.u.i.i.i.j.u.i.j.j.j.j.u.t.5.+.] R G A v z p k c c A G J ' o.4.t.i.j.i.j.j.j.x.C.C.[ O O o     ",
"    O O o i +.+.+.+.O.@.J l +.O.@.y.j.i.i.i.i.i.i.i.u.i.i.i.i.i.i.i.i.i.i.i.i.j.y.0.o.E D c c v G R ' X.@.@.@.4.5.0.0.5.0.5.5.0.t.j.i.j.u.j.u.j.b.C.g.5 o O     ",
"    O o & E +.+.+.+.+.@.l v @.+.@.u.i.i.i.i.i.i.u.4.t.i.i.i.i.i.i.i.i.i.j.u.q.+.Q R E  .;.0.t.u.j.j.j.j.j.j.j.j.j.j.j.j.i.j.j.j.j.i.i.u.j.u.j.u.j.m.m.B X O O   ",
"  O O o w o.+.+.+.O.@.O.u D +.+.@.t.i.i.i.i.i.j.@.} y.t.u.i.i.i.i.j.i.i.i.u.8.8.r.u.j.j.j.j.i.i.j.j.u.j.u.j.u.j.i.i.i.i.i.i.i.i.i.i.i.i.i.i.i.i.i.x.C.[ O O o   ",
"  o O o A +.+.+.+.+.+.} 6 H +.+.+.0.i.i.i.i.u.0.c @.0.+.0.i.i.i.i.u.i.i.i.i.j.j.j.j.i.j.i.i.i.i.j.j.j.u.u.j.j.j.i.i.i.i.i.i.i.i.i.j.i.i.i.i.i.i.i.j.m.:.O O O   ",
"  O O & E +.+.+.+.+.@.} 2 F +.+.+.@.t.j.u.i.y.c F y.@.@.@.i.i.i.i.j.i.i.i.i.i.i.i.i.i.i.i.i.i.i.j.u.j.j.j.u.j.u.i.i.i.i.i.i.i.i.i.u.i.i.i.i.i.i.i.i.b.9.; o O   ",
"  O o 2 } +.+.+.+.O.@.} 4 p +.+.+.+.@.y.i.u.} u 0.i.0.@.q.i.i.i.i.u.i.i.i.i.i.i.i.i.i.i.i.i.i.i.u.j.j.u.u.j.u.j.i.i.i.i.i.i.i.i.i.i.i.i.i.i.i.i.i.i.x.9.; o O   ",
"  o o w o.+.+.+.+.+.+.o.u & u F } @.+.@.u.j.T S i.i.i.u.i.i.i.i.i.i.i.i.i.i.i.i.i.i.i.i.i.i.i.i.i.i.i.i.i.i.i.i.i.i.i.i.q.q.y.i.i.i.i.i.i.i.j.j.i.i.l.:.& O O   ",
"O O X u o.+.+.+.+.+.+.+._ q . o 2 F O.@.@.u.0.J r.i.i.i.i.i.i.i.i.i.i.i.i.i.i.i.i.i.i.i.i.i.i.i.i.i.i.i.i.i.i.i.i.i.j.r.@.+.4.y.i.i.i.i.i.u.t.q.q.r.l.-.O o O   ",
"O o o i +.+.+.+.+.+.+.o.o.} v & o % v O.+.@.y.@.0.i.i.i.i.i.i.y.u.u.i.i.i.j.i.i.i.i.i.i.i.i.i.j.i.i.i.i.i.i.i.i.i.j.j.t.@.+.@.u.i.i.j.u.8.3.@.+.+.+.w.' O O o   ",
"o o o u o.+.+.+.+.+.+.] E } +.D & O : E @.+.4.q.0.i.i.i.i.i.t.0.4.4.4.8.q.r.u.u.j.i.i.i.u.i.j.j.j.j.j.j.j.j.j.j.i.y.0.3.+.5.t.i.j.u.0.@.+.+.+.+.+.+.6.B o O O   ",
"  O o w o.+.+.+.+.+.@.} ` } @. .5 X % D +.+.+.0.y.i.i.i.i.0.@.+.+.+.+.+.+.@.@.4.8.r.y.t.@... . .+.@.;.;.@.o. .E G D G  .0.i.i.i.r.3.+.+.+.+.+.o.o.@.7.w X o     ",
"  O o 5  .+.+.+. .' } +.+.@.+.} 4 o % H +.+.+.+.q.i.i.i.q.@.O.+.+.+.+.X.o.o.@.+.+.+.@.3.4.;. .E G S c c c A F E X.5.y.j.i.i.u.8.+.+.+.o.E A i w t c W ; . o     ",
"  O o ; ' +.+.+.' R E o.+.+.+.R % o * } +.+.+.+.@.y.i.i.@.+.+.+. .F u w w i A E  .+.+.+.+.@.4.r.i.i.y.y.y.i.j.j.j.j.i.i.j.y.4.+.+.X.G t ; O X o o O ; X . o     ",
"  O O O H @.+.+.] E ' O.+.+.o.i o o k O.+.+.+.+.@.q.i.y.@.@.@.} w O o X o o o # > i G ] +.+.+.@.5.y.i.i.j.i.i.i.i.j.i.i.y.3.+.+.E t O o O O & ; # O o o . X     ",
"  O O o l @.+.O.O.X.o.+.+.@.G & o 5 ' +.+.+.+.+.+.4.i.t.@.+.X.u o O & & * & % O o o O > k E o.+.+.4.y.i.i.i.i.i.i.i.i.y.3.+. .c & O O # * 5 5 6 5 & O O X       ",
"    O . 5  .+.@.@.+.+.+.@. .5 X 5 E +.+.+.+.+.O.+.3.u.r.+.+.J & O O 2 6 6 5 4 > & # O o o & t H X.+.4.u.i.i.i.i.i.i.i.5.@.' u O O O & 4 6 6 6 6 6 * o O o       ",
"    O O % J @.O.+.O.+.+.+.G O 5 ` @.+.+.+.O.+.+.+.@.y.t.@.+.l o O & 6 6 6 6 6 6 6 6 > * O o o O w E +.q.j.i.i.i.i.i.q.@.' 5 o o + > 6 6 6 6 6 6 q : O O o       ",
"    o O O i O.+.+.+.+.+.+.l o l +.+.+.+.+.+.+.+.+.@.y.t.@.+.u o o : 6 6 6 6 6 6 6 6 6 6 4 : O O o > J 0.i.i.i.i.i.i.5. .w o O O 4 6 6 6 6 6 6 6 6 : o O o       ",
"      O O & E @.+.+.+.+.+.D O c o.' } O.+.+.+.+.+.3.u.y.3.+.u o O = 6 6 6 6 6 6 6 6 6 6 6 6 2 # o o w 5.i.i.i.i.i.u.4.A o o % 2 6 6 6 6 6 6 6 6 5 & O O .       ",
"      O O o i O.+.+.O.+.+.} 5 w ` E E X.+.+.+.+.+.5.i.i.5.+.l o O & 6 6 6 6 6 6 6 6 6 6 6 6 2 : O o > 4.j.i.q.t.i.u.4.i o o : 6 6 6 6 6 6 6 6 4 > & O O o       ",
"        O O % D +.O.+.+.+.+.J > z E E o.+.+.+.+.@.q.j.i.r.@.J & O O 2 6 6 6 6 6 6 6 6 6 2 > > & O o w q.j.i.t.y.i.j.w.a o O & 2 6 5 6 3 4 4 2 > & O O O .       ",
"        O O . : E @.+.+.+.+.@.H w F X.@.+.+.+.+.@.y.i.i.i.4.o.u X O & 6 6 6 6 6 4 2 2 2 > > & O o O J j.i.j.j.j.u.u.i. .* . o & & : : > > : ; # O o o . o       ",
"          O O o 5 E @.+.+.+.+.+.' k D X.+.+.+.+.8.i.i.i.i.t.@.J & o O & > 2 2 > > > : > & & o o % v r.i.u.+.H D A p l ` E 5 o X o O O O & O O O o ; O X O       ",
"            O O O > J +.+.+.+.+.@.X.J D ' O.+.@.t.i.i.i.i.i.0.+.v % O O & & * : * : & O O o o : H t.i.u.R * O & O & O % G 3.G q & O o o o o O ; i E w o O       ",
"              O O o ; c  .@.+.+.+.+.@. .E E } @.u.i.i.i.i.i.u.0.@.A & O . O O % O o O o o : l +.i.i.i.0.5 o 2 4 : 6 2 O : 3.i.q.o.R v x l v R o.0.q.w o o       ",
"                O O o O 5 D  .+.@.O.O.+.@.o.} 0.i.i.i.i.i.i.i.i.r.@.E p > & O O O & > t D +.t.j.i.i.i.@.& % 5 6 6 6 6 & %  .j.i.j.j.i.i.u.i.i.i.j.@.: o O       ",
"                    O O O O 5 c ' O.+.+.+.+.+.q.i.i.i.i.i.i.i.i.u.u.r.4.X.E G G J ' +.0.y.j.i.i.i.i.i.0.2 O 2 6 > 4 2 % : @.j.j.i.i.i.i.y.0.i.i.u.v O O O       ",
"                      O O O X O & u G } +.@.+.0.i.i.i.i.i.i.i.i.i.u.j.i.u.y.y.y.y.i.j.i.i.i.i.i.i.i.i.y.T & % & O o % & H u.i.i.i.i.i.i.y.r.i.i.E & o O         ",
"                            O O o o % > p J } @.0.y.i.i.i.i.i.i.i.u.t.t.u.j.i.i.j.i.i.i.i.i.i.i.i.i.i.i.y.} z i A F G o.u.i.i.i.r.t.i.t.y.j.i.] : o O O         ",
"                                O O O o O % 2 p H  .3.0.0.r.y.i.i.y.@.@.t.i.i.i.i.i.i.i.i.i.i.i.i.i.i.i.j.j.u.y.u.j.j.j.i.i.i.i.t.t.i.r.t.y.E : o O O           ",
"                                      O O o o o O 1 i G ' o.3.0.u.y.0.0.y.i.i.i.i.i.i.i.i.i.i.i.i.i.i.i.i.i.i.i.i.i.i.i.i.i.i.i.j.j.u.j.j.' & o O O             ",
"                                            O O O o o O : t F o.0.u.u.i.j.i.i.i.i.i.i.i.i.i.i.i.i.i.i.i.i.i.i.i.i.i.i.i.i.i.i.i.u.j.j.u.u.l o o o               ",
"                                                  O o O o o O v @.y.i.i.i.i.i.i.i.i.i.i.i.i.i.i.i.i.i.i.i.i.u.u.i.i.i.i.i.i.i.i.u.u.u.j.t.i o o                 ",
"                                                  o O o O O o 5  .y.i.i.u.@.t.i.i.i.i.i.i.i.t.u.i.i.i.i.i.i.0. .i.i.i.i.i.i.i.+.4.j.j.j.8.5 o o                 ",
"                                                  O O O o O o O D q.u.y.@.i 0.j.i.i.i.i.i.r.R t.i.i.i.i.i.j.o.p t.i.i.i.i.i.i.v R i.j.j.E O O o                 ",
"                                                o o O < 1 & o o 2 E @.@.H &  .i.i.i.i.i.y.' i t.i.i.i.i.i.y.R & X.j.i.i.i.t.X.5 5  .3.Q 5 o O O                 ",
"                                              o O 1 C P L n 0 o o 4 F D 5 % w S O.t.y.r.O.z 4 +.r.u.i.u.0.} p O k  .5.q.+.k : % O O > & O O O                   ",
"                                            O o , b C K ~ #.P - o o . % . % o % : v R S 5 % % & u J +.} a & % X % & t l q o o o O O o o O O                     ",
"                                          O o & M ! P ! P P ~ e o % % % > & o o o o % % . . % X X % > : O o O O o o o o o o o o     O O                         ",
"                                          O O e M C K ^ *.$.~ e . X % & u 6 % o X % o o % : 9 & O O o o O o X O o o o % % o %                                   ",
"                                        O o ; K ! P P ! P P ( d . o * % % % o o o o o o X % % % O O O O O : g G c % o & & O o                                   ",
"                                        O O O , 8 d P ^ *.( P 1 % & a J S a i w q 6 6 w & o % & % O O & w c G F k % o O O O O                                   ",
"                                          X X % O % - 9 1 1 9 % X X % 4 5 6 q t u i a a : o : } l o O % % O O X O O O O & O O                                   ",
"                                        % X % % e w 1 & X X % % % % X X o + & % % % % % % % & } D o O > w u x v G p O O u : X O o                               ",
"                                      % % . 6 R J 6 i o.l % . % % % % X O & 5 u p a p u 5 o O 2 & O % : 5 q w w 5 & o X u R p ; O O                             ",
"                                      o X X % q : . % } O.& % . % % % % % o X % % & & & % o % & : O O O o o o o O % % O % S ' w o o O                           ",
"                                    O o 5 i > & ; ; o & 5 O & > o # 7 7 < , - - - % % % % o # S { 5 o - , , , 7 < e < o O O O o & O o                           ",
"                                    O O D 3.o. . .] k 2 & > G J # o , 8 8 8 8 8 7 7 7 < - o % t y ; o - 7 7 7 , , , % o o ; u l g & O                           ",
"                                    o O J 4.3.4.4.4.3.@.+.' G G ; o % ; , , , , , < , , % o o o + o o % O % O + # $ = & o % 5 5 & O o                           ",
"                                    O O c 3.3.3.3.3.4.t.t.i. .w o o o @ # # + # # # # O # # # # $ $ $ $ * $ = = = 3 3 * O > > > % o O                           ",
"                                    O o ; G ;.4.3.3.+.t. .E 5.E O O $ > = = @ = : = = = = = = = = > = = = = * * * $ # O O E +.S & o O                           ",
"                                      O o & c X.3.4.J E 0.R w w O o # @ @ $ @ $ * * * * * @ * * @ @ @ @ # # , 9 f / I O O q 5 O O O                             ",
"                                        o o O > k E ' w l @.v o o > e 9 0 9 1 1 > > 1 1 1 1 4 0 r N I K P ^ %.*.p.B.p.; O O o o                                 ",
"                                            O o o O > : o ; % O > C P L &.*.&.&.%.%.%.%.=.,.&.>.1.p.s.1.<.1.1.p.p.B.h.9 o O                                     ",
"                                            O O O , ; O O O 1 s Z L L U &.1.<.<.,.<.<.<.1.2.1.1.1.<.<.,.<.,.&.>.p.M.a.> o                                       ",
"                                              O O 5 0 , O # e m L L K n N K ( *.=.,.<.>.>.%.L K ^ %.=.%.! d e r j Y f o O                                       ",
"                                                O O O o O O O O 1 9 , ; > ; % 0 b U ( I h : O O # : 0 0 % > q o X o o o                                         ",
"                                                        O O O O X O O 4 i 4 o X O O , # X O O O o o o o % w 4 O o # O O                                         ",
"                                                        O O o + o O O X O O O $ * O o O   O O O + o o + o o o O $ : # O O                                       ",
"                                                        O O o o + O + $ $ $ $ * * # O O     O O o + o # # $ $ $ $ $ O O O                                       ",
"                                                        O O O o O o O O O O O O O O o O     O O o O O O o O o O o O O O O                                       ",
"                                                              O O O o O O O o O O O               O o O o O O O +                                               "
};
