/* XPM */
static char *w_2_resized[] = {
/* columns rows colors chars-per-pixel */
"80 80 156 2 ",
"   c None",
".  c #151413",
"X  c #181715",
"o  c #1A1917",
"O  c #1B1A18",
"+  c #211A16",
"@  c #291C17",
"#  c #221E1B",
"$  c #281F1A",
"%  c #23211E",
"&  c #2C211C",
"*  c #33241D",
"=  c #1E2122",
"-  c #242422",
";  c #292622",
":  c #2D2A25",
">  c #222628",
",  c #262A2D",
"<  c #2D2C2A",
"1  c #372720",
"2  c #322C26",
"3  c #392922",
"4  c #322E29",
"5  c #35312C",
"6  c #3A342D",
"7  c #272D31",
"8  c #292F32",
"9  c #313234",
"0  c #3A3731",
"q  c #3D3933",
"w  c #30363A",
"e  c #36393C",
"r  c #3A3B3D",
"t  c #423D36",
"y  c #433F39",
"u  c #46413A",
"i  c #4B453D",
"p  c #4D483F",
"a  c #50483F",
"s  c #3C3E40",
"d  c #3E4145",
"f  c #444342",
"g  c #494641",
"h  c #4E4940",
"j  c #434549",
"k  c #46494E",
"l  c #484A4E",
"z  c #524D44",
"x  c #534E48",
"c  c #565047",
"v  c #585147",
"b  c #5B544A",
"n  c #5F584D",
"m  c #4B4E53",
"M  c #4E5156",
"N  c #4F565D",
"B  c #5F5B54",
"V  c #51565D",
"C  c #54585F",
"Z  c #615A4F",
"A  c #655D52",
"S  c #625E58",
"D  c #6A6256",
"F  c #656059",
"G  c #6D655A",
"H  c #70675B",
"J  c #736A5D",
"K  c #555B63",
"L  c #595F67",
"P  c #595F68",
"I  c #5C6067",
"U  c #5D636C",
"Y  c #5F6770",
"T  c #6F6B63",
"R  c #606368",
"E  c #766E61",
"W  c #786F61",
"Q  c #7B7264",
"!  c #747068",
"~  c #7A756D",
"^  c #636A73",
"/  c #686E76",
"(  c #6B727C",
")  c #7F7A72",
"_  c #72767D",
"`  c #807667",
"'  c #807668",
"]  c #847A6B",
"[  c #897F6F",
"{  c #817C73",
"}  c #8A7F70",
"|  c #8A806F",
" . c #8D8271",
".. c #868178",
"X. c #89847A",
"o. c #918675",
"O. c #948877",
"+. c #968A79",
"@. c #998D7B",
"#. c #9D917F",
"$. c #707781",
"%. c #737A84",
"&. c #787E89",
"*. c #7B818B",
"=. c #7F8591",
"-. c #808285",
";. c #8F8980",
":. c #828589",
">. c #948D82",
",. c #9F9380",
"<. c #838A95",
"1. c #868D99",
"2. c #888F9B",
"3. c #8E9094",
"4. c #89909B",
"5. c #93969A",
"6. c #A29683",
"7. c #A69986",
"8. c #A89B87",
"9. c #A0998F",
"0. c #AB9D8A",
"q. c #AEA18C",
"w. c #B1A38E",
"e. c #A7A096",
"r. c #AAA192",
"t. c #B4A691",
"y. c #B7A893",
"u. c #BAAB96",
"i. c #B4AC9F",
"p. c #BDAE99",
"a. c #BFB09A",
"s. c #9197A2",
"d. c #949AA5",
"f. c #A7AAAE",
"g. c #B7B0A4",
"h. c #BAB2A6",
"j. c #BEB6AA",
"k. c #AAADB3",
"l. c #B3B6BC",
"z. c #C0B19B",
"x. c #C4B6A3",
"c. c #C6B9A6",
"v. c #C3B9AA",
"b. c #C9BCAA",
"n. c #CDC1AF",
"m. c #CBC2B4",
"M. c #D1C6B5",
"N. c #D2C8B7",
"B. c #D0C7BA",
"V. c #D4CBBC",
"C. c #D8CDBE",
"Z. c #BBC0C6",
"A. c #C2C6CD",
"S. c #D7CEC0",
"D. c #D8CFC0",
"F. c #DAD1C3",
/* pixels */
"                                                                                                                                                                ",
"                                                                  O O o O o O O O O O o O O o o                                                                 ",
"                                                    O O O O O O o o o o o o o o O o O o o o o o o o O o O O                                                     ",
"                                          O O O O O o O X % % ; 5 0 t p z v n A A Z Z n c p u q 5 : % O o o O O O o                                             ",
"                                    O O o o o o % ; 0 p n H Q ]  .O.+.@.@.@.@.#.@.@.#.#.7.0.q.w.q.6.@.) F g < O X o o O O                                       ",
"                              O o o O O # : u Z W | O.+.#.#.#.+.#.@.@.@.@.@.@.#.7.0.w.u.p.a.z.z.a.a.z.z.x.x.i.>.G r - o o o O O                                 ",
"                          O O o o # 4 a H | +.@.#.#.#.#.+.@.+.#.@.@.@.@.#.7.q.u.p.a.a.a.a.a.a.z.a.a.a.a.a.a.x.n.N.m.e.! y % X o o O                             ",
"                      o O o o % q G  .@.@.@.@.@.+.+.+.+.#.+.#.+.@.#.7.w.u.a.a.a.a.a.a.a.a.a.a.p.q.8.t.a.a.a.a.a.z.b.V.D.m.9.S < o o O O                         ",
"                    O o o O u J O.@.@.@.@.@.@.@.@.@.@.@.+.@.#.6.q.y.a.a.a.a.a.a.a.a.a.a.a.a.a.w.@.@.@.z.z.z.z.z.a.a.z.b.N.F.F.g.~ 0 O o O o                     ",
"                  O o o : D O.#.@.+.+.@.@.@.@.@.@.@.@.@.#.q.y.a.a.a.a.a.a.a.a.a.a.a.a.a.a.a.a.y.#.#.#.z.z.z.z.z.z.z.a.a.z.b.V.F.F.v.) 0 X O O                   ",
"                O O o q ' @.@.@.+.| ` O.@.@.@.@.@.@.7.t.u.z.a.a.a.a.a.a.a.a.a.a.a.a.a.a.a.a.a.a.z.t.z.z.z.z.t.#.+.t.a.z.a.p.x.m.C.F.F.h.B O O o O               ",
"              o O o t  .@.@.@.@.+.| Q o.@.@.@.@.7.y.a.a.a.a.a.a.a.a.a.a.a.a.a.a.a.a.a.a.a.a.a.a.z.t.o.H D D Z a b h G 6.p.z.a.z.v.V.F.F.B.~ > o O o             ",
"            O O O 6 [ @.@.@.@.O.|  .+.@.@.@.q.y.a.a.a.a.a.a.a.a.a.a.a.a.a.a.z.a.a.a.a.a.a.a.a.a.+.a t * 5 5 6 i ,.6.Q D  .u.z.p.a.x.M.F.D.S...; o O             ",
"          o O o : Q @.@.@.@.@.[ Q Q +.@.#.t.u.a.a.a.a.a.a.a.a.a.a.a.a.a.q.7.y.a.a.a.a.a.a.a.z.t.a t 3 t 6 6 6 t +.z.z.w.7.u.a.z.a.p.z.N.S.F.D.) % o O           ",
"          O O # D @.@.@.@.@.@.[ Q ` @.7.u.z.a.a.a.a.a.a.a.a.a.a.a.a.a.p.7.@.w.a.a.a.a.a.a.a.a.y.Z 6 6 6 6 6 a [ u.z.p.6.@.t.a.a.a.a.p.x.m.F.F.B.F O O o         ",
"        o O O p O.@.@.@.@.+. .O. .+.#.u.z.a.a.a.a.a.a.a.a.a.a.a.a.a.a.a.u.t.p.a.a.a.a.a.a.a.a.a.0.H a t i D +.t.0.] O.w.q.u.a.a.a.a.a.a.z.N.F.F.j.q o O O       ",
"        O o < ] @.@.@.@.@.] Q @.@.#.y.z.a.a.a.a.a.a.a.a.a.a.a.a.z.p.z.p.p.z.z.z.p.z.z.z.z.z.z.z.z.z.t.0.w.0.#.#.` t Z z.z.z.z.z.a.a.a.a.a.z.M.F.F.>.O O o       ",
"      o O O Z @.@.@.@.@.@.n Q @.+.q.a.a.a.a.a.a.a.a.a.a.a.a.a.a.z.z.p.z.z.z.p.z.z.z.z.z.z.z.p.w.0.#.@.o. .J D D H v J @.#.0.t.z.a.z.a.a.a.z.x.V.F.m.g o O O     ",
"      O o 5  .@.@.@.@.@.| u | @.@.w.a.a.a.p.a.a.z.a.u.a.a.a.a.a.p.z.z.p.p.z.z.z.p.y.0.O.` D Z z v v Z A D H H J J ` ` J J ` [ @.w.z.a.a.a.a.a.c.V.F.X.O O o     ",
"    O O o Z @.@.@.@.@.@.Q 0 | @.@.q.a.a.a.a.a.a.z.#.q.a.a.a.a.a.z.p.z.p.z.p.u.6.[ W J W ] o.6.0.t.y.z.z.z.z.z.z.z.z.z.z.z.z.z.z.p.a.a.a.a.a.a.a.n.F.j.< o O     ",
"    o o ; ] @.@.@.@.@.@.A t +.@.+.q.a.z.a.a.a.z.7.W t.y.u.z.a.a.p.z.z.p.z.p.0.6.0.t.p.z.z.z.z.z.z.z.z.z.u.z.z.z.z.z.y.z.z.z.z.z.a.a.a.a.a.a.a.p.z.V.B.l o O     ",
"  O O o u O.@.@.@.@.+.@.a u @.@.@.#.y.z.a.a.z.w.v  .q.@.#.u.a.a.z.p.p.z.p.z.z.z.z.z.z.z.p.z.z.z.z.z.z.z.z.z.z.z.z.z.z.z.z.z.y.z.a.a.a.a.a.a.a.a.z.b.F.E X O o   ",
"  O o O Z @.@.@.@.@.@.@.p q +.@.@.@.7.u.a.z.u.A n u.7.@.#.a.z.a.p.z.z.p.z.p.p.z.p.z.z.p.z.p.z.z.z.u.z.u.z.z.z.z.z.y.z.z.y.z.z.z.a.a.a.a.a.a.a.a.a.z.F.{ o O o   ",
"  o o % J @.@.@.@.@.@.#.v % G  .@.@.@.q.u.z.o.u 7.z.y.7.t.a.a.a.z.z.p.z.z.p.z.p.z.z.p.z.p.z.p.p.z.z.z.z.u.z.z.y.z.z.z.z.z.z.z.z.a.a.a.a.a.a.a.a.z.a.M...O O O   ",
"  O o ; ' #.@.@.@.@.@.@.W % % 4 b | @.@.q.a.@.v t.a.a.a.a.a.a.a.p.z.p.z.p.z.z.p.p.z.p.z.p.z.p.z.z.z.z.z.z.z.z.z.z.z.z.z.z.z.z.z.a.a.a.a.a.a.a.a.a.a.m.) o O O   ",
"  O o : | @.@.+.@.@.@.@.+.W 0 o o 5 Q @.#.q.u.| 7.z.a.a.a.a.a.a.z.p.z.z.z.p.p.z.z.z.z.p.p.z.z.p.u.z.u.z.u.z.z.z.z.z.z.y.#.#.q.z.a.a.a.a.a.a.z.a.a.a.n.E o o O   ",
"  O o < | @.+.@.@.@.@.o.] o.| p O o 5 | @.@.t.q.7.a.a.a.a.a.a.a.p.p.p.z.z.z.z.p.p.p.z.z.z.z.z.z.z.z.u.z.z.z.z.z.y.z.z.0.@.@.#.z.a.a.z.a.u.w.q.7.7.q.v.B X o     ",
"  o o : [ #.@.@.@.@.@.| Q ] #.| 5 o O D @.@.#.t.y.a.a.a.a.u.t.7.6.6.6.7.q.t.y.z.z.z.z.z.p.z.z.z.z.z.z.z.z.z.z.z.z.z.z.q.@.#.w.z.z.z.y.0.#.#.@.@.@.@.r.u o O     ",
"  O o ; ' #.@.@.+.o.O.+.o.O.+.+.q o O A #.@.@.#.u.a.a.a.u.q.@.@.@.+.@.@.@.@.6.7.w.t.p.t.@.o.@.6.8.q.t.t.w.q.0.#.o.] ` [ #.z.z.z.u.q.#.@.@.@.@.#.@.,.>.> o O     ",
"  O o % W @.@.@.[ Q ` +.@.@.#.| : o O W @.@.@.@.q.a.a.a.q.@.@.@.@.@.O.o.o.+.@.@.@.@.#.7.7.+.` D Z v v v v v v Z H [ #.y.z.z.z.t.6.@.@.@.@. .] '  .,.~ o o O     ",
"  o O O D #.+.@.] W Q o.@.@.@.A O o 5  .@.@.@.@.#.u.a.u.#.@.@.@.] v 0 4 6 i Z ` o.+.@.@.@.6.q.u.u.w.0.0.8.q.t.z.z.z.z.z.z.z.8.@.@.@.[ D i 2 ; % < z u . o o     ",
"  O O o h @.@.@.O.| o.@.@.@.[ 2 o % G @.@.@.@.@.@.q.a.y.@.@.@.H : O X X X X O # 6 v J o.@.@.@.#.w.z.z.z.z.z.z.z.z.z.z.z.z.#.@.@.| b < O o o O o o o o . X       ",
"    O o 6 o.@.@.+.#.#.@.#.O.p O % v +.@.@.@.@.@.@.8.z.w.+.@.] : X O # ; ; # O O O o # 0 F | @.@.#.q.p.z.a.a.a.a.a.a.a.u.6.#.O.D 5 o o O # ; 2 : % O O X .       ",
"    O o % Q #.@.#.+.+.+.+.J % % Z +.@.@.@.@.@.@.@.7.p.q.#.#.v O O # 6 6 6 6 4 : & O o o O < b ] @.#.w.z.a.a.a.a.a.a.u.6.#.] i O o O # : 5 6 6 6 : O O o .       ",
"    O O O v @.@.+.@.+.#.#.a o c @.@.@.@.@.+.@.+.+.7.p.w.+.o.0 X O : 6 6 6 6 6 6 6 4 ; # O o o < Z o.7.p.a.a.a.a.a.p.0.#.Q 5 o O O & 6 6 6 6 6 6 5 O o o .       ",
"      O O 5 | @.@.@.#.+.#.h O H @.o.+.@.@.@.@.@.@.7.p.t.#.| < o O 4 6 6 6 6 6 6 6 6 6 3 : % O o # z @.u.a.a.a.a.a.u.#.Q : o o % 2 6 6 6 6 6 6 6 4 O O O         ",
"      O O O n @.@.@.+.#.#.D O Z | Q ` +.@.@.@.@.@.q.p.y.#.| < o O 2 6 6 6 6 6 6 6 6 6 t 6 6 ; O o % Q p.a.a.a.a.z.w.o.q o O % 5 6 6 6 6 6 6 6 6 2 # o o         ",
"        O O < ] #.+.@.+.@.o.u 5 Q Q Q +.@.+.@.@.#.t.z.u.6.O.0 O O : 6 6 6 6 6 6 6 6 6 6 6 4 : % o X D z.a.u.y.a.z.w.J % o O 4 6 6 6 6 6 6 6 6 5 & O o o         ",
"        O O O u o.@.@.@.#.@.] 0 p ` o.@.@.@.@.@.#.u.z.a.q.@.b o O % 5 6 6 6 6 6 6 6 6 2 2 : ; O O O Q z.a.u.q.a.z.u.J O X % 4 6 6 6 6 6 6 5 2 ; % o O o         ",
"          O o O v +.@.@.+.@.#.| a n o.@.@.@.@.#.w.z.a.a.u.#.] < O O & 6 6 6 6 6 2 2 2 : : ; O O o 0 q.a.z.z.z.z.z.z.#.: X O % : : 2 2 2 2 : ; % o O o o         ",
"            O o % c O.+.#.+.@.#.+.D n ] @.@.@.#.u.a.a.a.a.q.@.b O O O & : 2 : : : : : & % O O o 5 +.z.z.t.o.| | J W @.W ; o o O O - % & ; O O O o o X X         ",
"              O O O i | +.#.+.#.@.@.| H Q o.+.q.a.a.a.a.a.a.8. .u O o O % % ; & ; % O O O O O h #.z.z.7.u % % % O # ; J  .i % o o o O O O O O O q < X O         ",
"                O o O 5 D o.#.+.@.@.@.@.| ` o.t.a.a.a.a.a.a.a.7. .h % o o o O O O O O O % q Q t.z.a.p.v X % 4 % 4 4 O % #.u.O.F t 4 ; - : 5 h E #.i X O         ",
"                  O O O O 0 D | @.@.@.@.@.@.#.u.a.a.a.a.a.a.a.a.t.#.J i < % # % % : q n [ t.z.z.a.z.w.0 O 5 6 5 6 6 & O Q z.a.p.y.0.#.#.,.0.t.a.w.q o O         ",
"                      O o o O 4 b ] +.@.@.@.#.z.a.a.a.a.a.a.a.a.a.u.t.7.+.[ Q ' } @.0.u.z.a.a.a.a.a.y.u O : 6 2 4 5 % % ] z.a.a.z.z.z.p.u.z.z.z.[ # o O         ",
"                        O O O o o % u H  .@.#.t.a.a.a.a.a.a.a.a.a.a.z.a.a.u.u.a.a.a.a.a.a.a.a.a.a.a.z.Q % O & % % % X u q.a.a.a.a.a.a.u.q.a.z.7.q o O O         ",
"                              % o o o O 2 p W O.8.t.u.a.a.a.a.a.a.t.q.u.a.a.a.a.a.a.a.a.a.a.a.a.a.a.z.p.] u 5 u p i H q.z.a.a.u.u.z.p.p.p.z.0.h o O o           ",
"                                  o o o o o % 5 c W o.,.8.q.u.a.a.6.+.q.a.a.a.a.a.a.a.a.a.a.a.a.a.a.a.a.a.u.w.y.p.u.z.z.a.a.a.q.t.a.q.y.z.7.i o O O             ",
"                                        O O O O O % 5 c J o.,.t.a.y.t.u.a.a.a.a.a.a.a.a.a.a.a.a.a.a.a.a.a.a.a.a.a.a.a.a.a.a.a.a.a.a.u.a.,.0 o O O               ",
"                                              O O O o X # 6 Q ,.u.a.a.a.a.a.a.a.a.a.a.a.a.a.a.a.a.a.a.a.a.a.a.a.a.a.a.a.a.a.a.a.a.a.a.u.z o O O                 ",
"                                                  O o O O o 0 O.y.a.a.a.a.a.a.a.a.a.a.a.a.a.a.a.a.a.a.a.a.a.a.a.a.a.a.a.a.a.a.a.a.a.a.t.0 o O                   ",
"                                                O O o o O O % W y.a.a.u.| w.a.a.a.a.a.a.a.t.p.a.a.a.a.a.a.q.@.a.a.a.a.a.a.a.6.y.a.a.a.6.: O O                   ",
"                                                O o O o o O o u 6.t.t.+.0 #.z.a.a.a.a.a.q.E y.a.a.a.a.a.z.| b u.a.a.a.a.a.u.b #.z.a.z.Q O O O                   ",
"                                              O O O < 9 , O o % Z @.@.A % ] u.a.a.a.a.u.E p u.a.a.a.a.p.y.D 2 8.z.a.a.a.a.+.< n t.y.o.6 o O o                   ",
"                                            O O > M U I N d # O % t q % O : p Q q.t.q.| p 0 +.w.a.p.u.q.] u % G 6.y.y.#.n 4 O % 0 p : o O O                     ",
"                                          O O > j V K ^ ( ^ 8 o o X X O o O o % p F p % O O % y Q #.] u % O o O 4 b D 0 o o O O o o O O O                       ",
"                                          O O d Y P P U U ( k o O % 4 u < O O O o o o O O O O o % < % o o o O O o o o o O o O   O O o                           ",
"                                        O O 9 N N P / *.$.Y d O O % : q 0 % o O O O o O , 8 = o o o O o o o % O O o O o O O                                     ",
"                                      O O % k I P U Y Y ^ *.M o O : : % O O o o o X o o O O O o o o O % 5 n Q D % o % % O O                                     ",
"                                      O O O O > w N / ( Y I r O O u G G Z a p u u u u : O % 5 ; O O % 0 c b c q % o O % O O                                     ",
"                                        O O o o O = - - = , % O O O % ; < 4 5 0 u u i : O % | D o O O O O O % % ; O O 0 % O                                     ",
"                                      O o O : u p 9 6 % O O O O O O O O # % : % % % % % O % J F O O 5 u h b D G h O o z u o o O                                 ",
"                                    o O o : H J 6 4 o.Q % O O = = = O O O : q p a p i 5 O O % % O O % ; < < : ; O O o 0 [ W 0 o O                               ",
"                                    O O O O - = o O n O.9 o O O = = = = O O O O O O O O O O < q % O O O O O O O > = O o 0 n 5 o o O                             ",
"                                  o o 4 D p 5 6 0 O O % O ; 5 O O , 7 7 , = - = = = = = O # A o.t X O 7 7 , , 7 w , O O O O - 5 % O O                           ",
"                                  O o c 6.6.@.#.@.J u 6 0 G [ : O - 8 8 8 8 8 8 8 8 8 > O O ; < # O = , , > = - - O O O % h n i O O O                           ",
"                                  O o n 6.6.6.6.7.6.0.0.@.D n ; O O = - = - > > - - = = O O o o O O O O + # # $ & 3 & O O O O O O O O                           ",
"                                  O o 6 O.7.6.6.6.7.u.0.u.8.h O O + # $ - + + # # # # # # $ $ $ $ & * * * * * 1 3 3 % O h v z 4 O O                             ",
"                                    O O u o.7.6.6. .q.@.D  .' - O + * * * @ & * 1 * * * * * * * * 1 * * $ $ # # - ; O O E  .c % o O                             ",
"                                      O o 5 G +.6.] n 6.O.u : O O O @ + @ + $ $ # @ $ $ $ $ + + O # # ; < e k R 5.-.# O % # o o O                               ",
"                                        O o O 5 x J u 0 Q b O O 9 j s j j f s e e e r s d f m V _ :._ %.&.<.1.d.A.k., o O o O                                   ",
"                                          o O O O O O O O O O 9 K U U $.1.<.<.<.<.<.<.2.s.1.1.1.d.d.2.1.1.1.d.d.Z.l.0 X O                                       ",
"                                            O O > 9 ; O O 4 l P P L I ( <.1.1.<.<.1.<.1.1.1.<.1.1.1.<.1.&./ _ <.k.3.> O                                         ",
"                                              O - 4 > O O , s M K M j s s M / &.<.1.:.%.^ k r m L ( / l , % ; 8 y 4 O O                                         ",
"                                                O o o o O O o O - O ; 6 5 O O < j K m 9 # X X X O = # # t z O X X o O                                           ",
"                                                      O O O O O O O : q 5 O O O X X O X O O O O O O O # 4 : O O # O O                                           ",
"                                                      O O o + o O O O O O O $ * # O O     O O + o O O O O + # & * + O O                                         ",
"                                                      O O O o + + O + $ $ # & # + O O     O O O o O O # # @ # # # O o O                                         ",
"                                                      O O O o o O o o O O O O o O O O     O O O O O O O o O O O O O O O                                         ",
"                                                                  O O O O O O                                                                                   "
};
