/* XPM */
static char *w_3_resized[] = {
/* columns rows colors chars-per-pixel */
"80 80 154 2 ",
"   c None",
".  c #151513",
"X  c #181715",
"o  c #1A1917",
"O  c #1C1B18",
"+  c #211A17",
"@  c #281C17",
"#  c #221E1B",
"$  c #291F19",
"%  c #1F201F",
"&  c #23211E",
"*  c #2C211B",
"=  c #34241D",
"-  c #1D1F20",
";  c #1F2122",
":  c #252422",
">  c #292622",
",  c #2C2925",
"<  c #232729",
"1  c #262A2D",
"2  c #2C2C2B",
"3  c #352721",
"4  c #382720",
"5  c #312C27",
"6  c #3A2922",
"7  c #322E29",
"8  c #35322C",
"9  c #3A342D",
"0  c #272D30",
"q  c #292F32",
"w  c #2F3032",
"e  c #333334",
"r  c #3A3630",
"t  c #3E3A33",
"y  c #353739",
"u  c #32393D",
"i  c #3A3C3D",
"p  c #413D36",
"a  c #433F38",
"s  c #46413A",
"d  c #4A453D",
"f  c #4E483F",
"g  c #3D3F42",
"h  c #3E4146",
"j  c #414347",
"k  c #494742",
"l  c #4E4941",
"z  c #44494E",
"x  c #494B4D",
"c  c #524C43",
"v  c #504D48",
"b  c #565047",
"n  c #565149",
"m  c #5B544A",
"M  c #5F584D",
"N  c #474B51",
"B  c #4B4E53",
"V  c #4F5256",
"C  c #4F555C",
"Z  c #51555A",
"A  c #54585E",
"S  c #615A4F",
"D  c #645D52",
"F  c #625F58",
"G  c #676054",
"H  c #696155",
"J  c #67635C",
"K  c #6D6559",
"L  c #70675B",
"P  c #736A5D",
"I  c #545A62",
"U  c #5A5E65",
"Y  c #5D636B",
"T  c #626365",
"R  c #6F6A62",
"E  c #666769",
"W  c #64686F",
"Q  c #766E62",
"!  c #786F61",
"~  c #7C7364",
"^  c #767169",
"/  c #7B766E",
"(  c #606770",
")  c #646A73",
"_  c #686F78",
"`  c #6C727B",
"'  c #707376",
"]  c #807667",
"[  c #817768",
"{  c #847A6A",
"}  c #897E6E",
"|  c #827D74",
" . c #8A7F70",
".. c #8A806F",
"X. c #8D8272",
"o. c #868078",
"O. c #8B857C",
"+. c #918675",
"@. c #948877",
"#. c #968A79",
"$. c #998D7B",
"%. c #9D917E",
"&. c #6F7680",
"*. c #747A84",
"=. c #787F89",
"-. c #7C828D",
";. c #7F8591",
":. c #848689",
">. c #938C82",
",. c #9F9280",
"<. c #9D978C",
"1. c #808792",
"2. c #838A96",
"3. c #8C8E92",
"4. c #868D99",
"5. c #888F9A",
"6. c #89909B",
"7. c #A29683",
"8. c #A69986",
"9. c #A89B87",
"0. c #AB9E8A",
"q. c #A59E93",
"w. c #AEA18C",
"e. c #B1A38E",
"r. c #AFA596",
"t. c #ADA69B",
"y. c #B4A691",
"u. c #B7A893",
"i. c #BAAB96",
"p. c #BDAE99",
"a. c #BFB09A",
"s. c #9297A1",
"d. c #9399A4",
"f. c #979EA8",
"g. c #9CA1AB",
"h. c #A1A4A8",
"j. c #BAB2A5",
"k. c #BDB5A8",
"l. c #B4B7BD",
"z. c #C0B19B",
"x. c #C4B6A1",
"c. c #C7BAA7",
"v. c #C1B9AD",
"b. c #CABDAA",
"n. c #CCC0AF",
"m. c #CDC3B4",
"M. c #D1C6B5",
"N. c #D2C8B7",
"B. c #D4CABB",
"V. c #C1C5CC",
"C. c #D7CEC0",
"Z. c #D8CEC0",
"A. c #DAD1C3",
"S. c #C6CAD1",
/* pixels */
"                                                                                                                                                                ",
"                                                              O o O O O O o O O O O O O O O o o O                                                               ",
"                                                  O O O o O o O o o o o o O O O O O O O o o o X o o o O o O                                                     ",
"                                        O O O O o o o O % & , 8 p d c m D H K K L L K K S m c s t 7 : O o X o o O o                                             ",
"                                  % X X o . o % , t d S P ~ ..X.#.$.$.$.$.$.%.$.$.$.%.%.8.e.e.e.y.0.,.o.Q l 8 & X X X O O                                       ",
"                              O % X X % * s m P { @.$.$.%.%.$.$.$.$.$.$.$.$.$.%.8.w.u.i.z.z.z.z.z.z.z.z.c.v.j.<.^ k : O o o o O                                 ",
"                          O O o % & s H ..@.$.$.%.$.$.$.$.$.$.$.$.$.$.$.%.0.y.i.a.z.z.z.z.i.z.a.a.a.a.a.z.z.z.b.N.m.t./ s : o o O o                             ",
"                      o O o O 7 m [ #.$.$.$.$.$.$.$.$.$.$.$.$.#.$.%.0.u.i.z.z.z.z.z.i.z.z.z.z.a.0.8.y.p.p.z.z.a.z.v.B.A.m.q.J 7 o o O O                         ",
"                    O O o , m ..$.$.$.$.$.$.$.$.$.$.$.$.$.#.$.w.e.i.z.z.a.a.a.a.a.a.a.a.a.a.a.e.$.$.%.i.z.z.z.p.z.a.z.c.N.A.C.j./ t O o O O                     ",
"                o O O O s { $.$.$.#.#.$.$.$.$.$.$.#.$.$.%.e.i.a.z.z.z.z.a.a.a.a.a.a.a.a.a.a.z.u.%.%.8.i.z.i.z.z.z.z.a.p.z.b.B.A.A.b.| y o o O                   ",
"              O O O & m @.$.$.$.@.~ ~ @.$.$.$.$.$.%.w.i.a.z.a.a.a.a.a.a.a.a.a.a.a.a.a.a.a.a.a.a.z.u.i.z.i.z.i.7.@.w.z.z.z.p.z.M.B.A.A.k.F & o O O               ",
"              O o O M #.$.$.$.$.+.....@.$.$.$.%.w.p.a.a.z.a.a.a.a.a.a.a.a.a.a.a.a.a.a.a.a.a.a.a.z.y.+.P H P m c m l K 7.p.a.a.z.v.B.A.A.B./ : o O o             ",
"            O o O c #.$.$.$.$.X.....@.#.$.%.w.p.a.a.a.a.a.a.a.a.a.a.a.a.a.i.a.a.a.a.a.a.a.a.z.a.#.b p 6 6 9 9 d $.8.~ D } i.a.a.a.x.B.A.A.C.>.: o O             ",
"          O O o s +.$.$.$.$.$.{ ! ~ @.$.w.i.a.a.a.a.a.a.a.a.p.a.a.a.a.z.w.8.u.a.a.a.a.a.a.a.z.u.f 9 9 9 9 9 9 9 +.z.z.y.7.i.a.a.a.a.z.m.A.C.C.| & o O           ",
"        o O o 5 [ $.$.$.$.$.$.} ~ ..#.w.i.a.a.a.a.a.a.a.a.a.a.a.a.a.a.i.8.%.e.a.a.a.i.z.a.a.z.i.S 9 9 9 9 9 f { i.z.p.7.$.e.a.a.a.a.a.z.m.A.A.B.J O O o         ",
"        o o & K $.$.$.$.$.+...#.+.#.w.p.a.a.a.a.a.a.a.a.a.a.a.a.a.a.a.a.i.u.a.z.a.a.z.z.a.a.i.z.w.P f p d D #.y.w.} #.e.0.i.a.a.a.a.a.z.z.m.A.A.k.p o O O       ",
"      O O o d #.$.$.$.$.$.P ~ %.$.%.p.a.a.a.a.a.a.a.a.a.a.a.a.a.z.z.z.z.z.z.z.z.z.z.z.z.z.z.z.z.z.z.y.0.e.0.%.%.] p S z.z.z.z.z.a.a.a.a.a.z.N.A.A.>.& O O       ",
"      o o > ~ $.$.#.$.$.+.f ..$.$.e.z.a.a.a.a.a.a.a.a.a.a.a.a.a.z.z.i.z.z.i.z.z.i.z.z.z.z.z.u.e.9.%.$.+.X.P H L P b P %.%.e.u.z.a.a.a.a.a.a.c.B.A.m.k X o O     ",
"    O O O c $.$.$.$.$.$.~ s @.$.%.y.z.a.a.a.a.a.a.p.p.a.a.a.a.a.i.z.i.z.z.z.z.z.z.e.8.+.P H S m b m S D D L L L P P P P P ] } $.y.a.a.a.a.a.a.c.B.A.>.O o O     ",
"    O o : ~ $.$.$.$.$.%.G d #.#.$.y.z.a.a.a.a.a.a.#.e.a.a.a.a.a.z.z.z.z.z.i.u.%.} P P ] } $.%.0.y.u.z.z.z.z.z.z.z.z.z.z.z.z.u.z.i.a.a.a.a.a.a.a.m.A.k.w o O     ",
"  o o o p #.$.$.$.$.$.#.d b %.#.$.w.a.a.a.a.a.a.@.~ i.e.i.a.a.a.z.z.z.z.z.i.w.9.e.u.z.z.z.z.z.z.z.z.z.z.z.i.z.z.z.z.z.z.z.z.z.z.a.a.a.a.a.a.a.a.z.B.B.n X O     ",
"  O O O S $.$.$.#.$.$.#.t m $.#.$.%.y.a.a.a.a.%.f %.w.@.%.p.a.a.i.z.z.i.i.z.z.z.z.z.z.z.z.i.z.z.z.z.z.i.z.z.z.z.u.z.z.u.z.z.z.u.a.a.a.a.a.a.a.a.a.n.A.^ o o O   ",
"  O o & ~ $.$.$.$.$.$.+.r f $.%.$.#.w.i.a.a.w.f ~ p.%.#.w.i.a.a.z.z.z.z.z.z.z.z.z.z.z.z.z.z.z.z.z.i.z.z.z.z.z.i.z.z.z.z.z.u.z.z.a.a.a.a.a.a.a.a.a.z.B.o.o O o   ",
"  O o 7 X.$.$.$.$.$.$.#.s & D ..#.%.$.w.a.z.! f i.z.i.w.y.p.a.a.z.z.i.z.z.i.z.z.i.z.z.i.z.z.i.z.z.z.z.z.z.i.z.z.z.z.z.z.z.z.z.z.a.a.a.a.a.a.a.a.a.z.N.O.O O O   ",
"  O o t @.$.$.$.$.$.$.$.K * O , b ..#.%.w.a.X.D p.a.a.a.a.a.a.a.i.z.z.z.z.z.i.z.z.i.z.z.i.z.z.i.z.z.z.z.z.z.z.z.z.z.z.z.z.z.z.z.a.a.a.a.a.a.a.a.a.z.m.| o O O   ",
"O o o s #.$.$.$.#.$.$.$.#.~ t o o 8 ~ $.%.e.i...e.a.a.a.a.a.a.a.z.z.z.z.z.z.z.z.z.z.z.z.z.z.z.z.z.u.z.z.z.z.z.z.u.z.z.z.%.%.u.z.a.a.a.a.a.a.a.a.z.z.b.~ o O o   ",
"o o X s $.$.$.$.$.$.#...[ +...s o o t +.$.%.y.w.w.a.a.a.a.a.z.z.u.z.z.z.z.z.z.i.i.z.z.z.z.i.z.z.z.z.z.z.z.z.z.z.z.z.z.%.$.$.%.z.a.a.a.a.a.u.w.w.0.e.v.F X O O   ",
"o o o s @.$.$.$.$.$.$.{ ] ..%.[ & % & ~ $.$.%.i.i.a.a.a.a.p.w.%.%.%.%.9.0.y.u.z.z.z.z.z.z.z.z.z.z.z.u.z.z.z.z.z.z.z.z.w.$.%.e.z.a.z.i.w.7.%.$.$.$.%.r.k o o     ",
"  O X t @.$.$.$.+...@.#.#.#.$.} * % & ~ $.$.$.%.p.a.a.a.i.%.$.#.$.$.$.$.#.%.%.9.w.u.z.e.#.+.%.9.9.e.y.u.y.e.w.%.$. .] } %.z.z.z.a.w.7.$.$.$.$.$.$.$.>.2 o O     ",
"  O o 8 X.$.$.#.~ ! [ $.%.$.$.K % X 7 X.$.$.$.$.e.a.a.p.w.$.$.$.$.#.+.X.@.#.#.%.$.%.%.8.8.+.] D S b S b S b b S L { %.u.z.z.z.u.7.$.$.$.$.#.X.X.#.7./ O O o     ",
"  O o > { $.$.$.{ ~ { #.#.$.@.p X % f #.$.$.$.$.%.p.a.y.#.$.$.#.P d 8 7 9 d D ] +.#.%.#.$.%.e.i.u.e.8.%.%.w.e.u.z.z.z.z.z.z.9.$.%.$.X.P b t 7 7 t J l . o O     ",
"  O o O K $.$.$.#...#.$.$.$.D % X 8 ..$.$.$.$.$.%.i.a.w.#.$.#.m & X X o X X O * 9 m ] @.%.%.%.%.u.z.z.z.z.z.z.z.z.z.z.z.z.%.$.$.X.D 9 # o o o o o O O . X       ",
"  o O o b $.$.$.$.$.$.$.$.{ > o 5 ~ $.$.$.$.$.$.$.w.a.0.$.$.K & o O * , : & O o o o & s K X.%.#.%.y.a.a.a.a.a.a.a.a.a.i.%.%.@.L 9 O o O O & > > & O O X .       ",
"    O o 8 X.$.$.$.$.$.$.$.f o t { $.$.$.$.$.#.$.$.w.a.8.$.@.r X o > 9 9 9 9 7 > & O O o % r G +.%.%.i.a.a.a.a.a.a.a.a.%.%...f & o O O , 8 9 9 9 > O O X .       ",
"    O o & P %.$.$.$.$.$.X., & ~ %.$.$.$.$.$.$.$.$.w.a.8.$.[ & o O 7 9 9 9 9 9 9 8 8 * # o O O 8 Q #.w.p.a.a.a.a.a.a.0.$.! 8 o o O * 9 9 9 9 9 9 7 O O O .       ",
"    O O O d #.$.$.$.$.$.X.8 , ..#...@.$.$.$.$.$.$.w.a.0.%.P & o # 8 9 9 9 9 9 9 9 9 9 8 * % O O & H %.p.a.a.a.a.a.y.%.Q , X o & 5 9 9 9 9 9 9 9 7 O O X         ",
"      O o & ~ %.$.$.#.$.#.f & ~ [ ~ ..$.$.$.$.$.%.y.z.e.%.P & O + 9 9 9 9 9 9 9 9 9 9 9 9 8 & O O , @.a.a.a.a.a.p.w...8 o o & 8 9 9 9 9 9 9 9 9 5 O O o         ",
"      O O o s X.$.$.$.$.%.[ 7 f ~ ! { $.$.$.$.#.%.a.z.u.%.[ & o O 5 9 9 9 9 9 9 9 9 9 r 9 8 > O o % ..z.a.i.i.a.z.w.D % O % 7 9 9 9 9 9 9 9 9 9 * o o o         ",
"        O O O M #.$.$.$.$.$.~ 8 S ..@.$.$.$.$.$.w.a.a.a.8.@.p o O * 9 9 9 9 p 9 9 9 9 8 5 > > O o & $.z.a.y.w.z.z.e.m X % & 9 9 p 6 9 9 9 9 7 > & o O X         ",
"          O O & H $.$.$.$.$.$.~ s K $.$.$.$.$.%.y.a.a.a.e.%.H O O % 5 9 9 8 9 6 6 7 > 5 > * O o X f u.a.a.z.z.z.z.z.! % o % & = 5 7 7 5 5 , > & o O o X         ",
"          O O o : K $.$.$.$.$.$...D G X.$.$.$.w.a.a.a.a.i.0.+.t X O % & , 5 , , , > > > & O o o s %.a.a.e.$.$.#.[ ..%.b % X % % & : > > * & O O o o X o         ",
"            o O o & m X.%.$.$.$.$.$.[ P [ #.$.y.a.a.a.a.a.u.7.[ 7 X O % & & > * > & & O o o & b w.a.a.$.s & & & & & t ..K 5 X . o O O O O O o O , & X o         ",
"              o O o O t P #.$.$.$.$.$.#...[ %.z.a.a.a.a.a.z.u.%.~ r O X O O O O O o o o & d ..u.a.a.w.p X > 3 & 5 = X s u.%.P s , & O O O : t G X.8 o O         ",
"                  O o o O p L +.$.$.$.$.$.@.w.z.a.a.a.a.a.a.a.i.w.@.D t * & O & & , s S +.e.z.a.a.z.$.& % 9 9 8 9 8 % & %.z.z.u.8.#.} { X.$.w.i.9.2 o O         ",
"                    O O O X & 8 S ..$.$.$.$.w.z.a.a.a.a.a.a.a.a.a.u.w.%...[ ! ~ ..%.w.i.z.z.a.a.a.z.%.* % 7 9 5 9 5 % * %.z.z.z.z.z.z.a.a.z.a.z.~ O O O         ",
"                        o O O o % = f P +.$.%.i.a.z.a.a.a.a.a.a.a.a.a.a.a.a.i.a.a.a.a.a.a.a.a.a.a.z.p.f o & , % & % % m i.z.z.p.a.a.z.y.w.a.z.8.r o O O         ",
"                              O X X o & 9 m [ $.w.u.i.i.a.z.z.z.a.w.w.a.a.a.z.a.a.a.a.a.a.a.a.a.a.a.a.w.M 7 5 r 9 t H e.z.z.p.p.a.a.a.a.p.z.w.d o O o           ",
"                                  % o o o o & p S [ %.8.0.e.i.z.y.%.%.i.a.a.a.a.a.a.a.a.a.a.a.a.a.a.a.a.a.w.%.e.y.u.p.z.p.p.i.w.i.i.w.i.a.0.f O o O             ",
"                                        O O o o O : t S { $.8.i.p.e.y.p.a.a.a.a.a.a.a.a.a.a.a.a.a.a.a.a.a.a.a.a.z.a.a.a.a.a.a.a.a.i.u.a.$.t o O O               ",
"                                            O O O o o O & c +.0.a.a.a.a.a.a.a.a.a.a.a.a.a.a.a.a.a.a.a.a.a.a.a.a.a.a.a.a.a.a.a.a.a.a.z.e.p o o O                 ",
"                                                  o O O o O D 8.a.a.a.a.a.a.a.a.a.a.a.a.a.a.a.a.a.a.a.a.a.a.a.a.a.a.a.a.a.p.a.a.a.a.z.%.: o O                   ",
"                                                O O O o O o t %.a.a.a.w.@.a.a.a.a.a.a.a.p.i.a.a.a.a.a.a.x.%.e.a.a.a.a.a.a.p.e.a.a.z.z.} O O O                   ",
"                                                o O O o o O & ~ e.y.e.H f z.z.a.a.a.a.a.$.X.a.a.a.a.p.a.p.H ..a.a.a.a.a.a.w.D i.z.z.a.S o O O                   ",
"                                              O o % 2 1 % o o 8 ..$.+.t t w.a.a.a.a.a.e.f ] z.a.a.a.p.p.w.t m p.a.a.a.a.a.[ 5 $.z.i.X.> o O                     ",
"                                            O O e A Y I z 1 O O 7 f 9 % % p K %.i.u.%..., G e.p.a.a.p.w.] 5 8 $.u.p.i.%.D 8 % 8 S S 2 o o O                     ",
"                                          O O 1 V C I ) ` C % o X X . X X . % 9 G H p > % & 9 H %.%.] p % % % 5 f ~ P 8 X . % X o O o O o                       ",
"                                        % O < A ( Y ( ( ( ( 1 o % , p t % o o o o % X o + o X o 7 9 & X o X X X % % % o o o O O O O o                           ",
"                                        X % h A C Y ` &.&.Y , o % > t f 8 O O O o o o % 0 , % o X X % o X X % % X X o o o o                                     ",
"                                      X o 2 Y Y Y ( ( ( ( _ 2 o % > O X o o o o X o o o % % . X o % O % r D ~ f % o > % %                                       ",
"                                    % % o % % w h ( &.&._ Y : X > m L D f s p r r t r & % % > % o o , t M D m t o X > & % %                                     ",
"                                      % o o o X ; < 1 2 1 w % X o & 8 9 r r p s f f f & % t #.s X % o % X % X % % X > s X X                                     ",
"                                      % o % , s t 7 % % o . o % % o o o % & & % o % & % . 7 +.d X % 7 s c m G K t X % L t % O O                                 ",
"                                    o o % f ] M 7 S +.r . % % ; % o o o > 9 s f f f s 5 % X , % . % * 7 8 8 8 & % o X f X.! 9 X O o                             ",
"                                  o o o X > 5 % X 8 %.P % . % % ; ; % o o O + % % % % X X % * 5 o X % % X O O % % % O O t m 7 X o O                             ",
"                                  O O l f 7 > 7 & o , : o > & O < 0 0 1 < < < - - - - O o > !  .: o - 0 < 1 0 0 u < o O o O : 9 : O o                           ",
"                                O o > X.7.$.+.#.~ d , > p { l o O 0 q q q 0 q q 0 0 0 ; O # r r # O : 0 0 < : - : O O o & l m d # o O                           ",
"                                o o 8 $.8.7.7.8.7.7.,.$.~ P l o + ; ; < < < < < < < < - O O o o o O O O O + + # * 4 # O o O O o O O o                           ",
"                                  o & ! 8.7.7.7.7.w.u.i.y.H & o o + # + + O + + + # + + + # # @ $ * > = 3 = 3 6 6 6 # & m m n 7 o O                             ",
"                                  O o 7 { 7.7.7.$.7.e.P X.0.t o + $ 4 3 $ @ = 4 3 = 4 = = = 3 = = 4 = = $ $ $ $ & # O : X.+.m & o O                             ",
"                                    O o , G #.7.$.D $.7.c t : o o + @ $ $ @ $ $ $ $ $ $ $ $ @ + + + # # < w g U 3.T o O : # o O O                               ",
"                                      O o O 8 n ~ D 8 ~ ..2 o & y y e e y w q 2 q w 7 e e y g x E ' ) _ *.1.2.g.S.3.O O O o O                                   ",
"                                          O o o # : # O : O O j U Y Y =.1.1.:.=.=.-.=.5.5.1.2.5.g.f.5.4.4.5.d.g.V.h.2 o                                         ",
"                                            O O : : : O O e V Y U U W =.5.5.4.2.2.4.4.4.5.5.4.5.4.4.2.4.:.*.=.s.l.:.& o                                         ",
"                                            O O w y : O : y B I U Z N N Z ) =.-.4.4.;.-.` V V T ` =._ Z w < q g B 7 o O                                         ",
"                                              O O o O o X O O 2 2 : > 5 > O q j U ) I y : o X O % 2 > : a p o X X O o                                           ",
"                                                      O O O O O O # p m r o o o O # O o o o X O o O O 7 c 7 o + + O O                                           ",
"                                                      O O o + o O O O o O O # * O O o   O O o + O O O O o o + > * O O O                                         ",
"                                                      O O O + + O + # # # * * * O O O     O O O + o + + # # $ $ # + O O                                         ",
"                                                      O o O o o O o + O + O O O O O O     O O O o o O O O O o o O O O O                                         ",
"                                                          O o O O O O O O O o O O               O O O O O O O O                                                 "
};
