/* XPM */
static char *w_4_resized[] = {
/* columns rows colors chars-per-pixel */
"80 80 153 2 ",
"   c None",
".  c #161614",
"X  c #181715",
"o  c #1A1917",
"O  c #1C1A18",
"+  c #201A16",
"@  c #291C17",
"#  c #221E1B",
"$  c #2A1F19",
"%  c #1F201F",
"&  c #23211E",
"*  c #2B211C",
"=  c #33241D",
"-  c #1F2122",
";  c #252423",
":  c #292623",
">  c #2D2925",
",  c #222629",
"<  c #262A2C",
"1  c #2D2C2A",
"2  c #312C27",
"3  c #382821",
"4  c #322E29",
"5  c #35312C",
"6  c #3A342D",
"7  c #262C30",
"8  c #292F32",
"9  c #2F3031",
"0  c #323334",
"q  c #3A3631",
"w  c #3D3933",
"e  c #343739",
"r  c #36383B",
"t  c #3A3B3C",
"y  c #413D36",
"u  c #433F38",
"i  c #46413A",
"p  c #4A453D",
"a  c #4D483F",
"s  c #3D3F41",
"d  c #3F4145",
"f  c #404246",
"g  c #4A4742",
"h  c #4E4941",
"j  c #424549",
"k  c #45484D",
"l  c #524C43",
"z  c #565047",
"x  c #575249",
"c  c #5B544A",
"v  c #5F584D",
"b  c #4A4D52",
"n  c #4D5257",
"m  c #4D5359",
"M  c #52575F",
"N  c #56595F",
"B  c #595B5D",
"V  c #61594E",
"C  c #645D52",
"Z  c #676054",
"A  c #696156",
"S  c #65615A",
"D  c #6D6559",
"F  c #70675B",
"G  c #736A5D",
"H  c #555A62",
"J  c #595E66",
"K  c #595F68",
"L  c #5D636B",
"P  c #5F6670",
"I  c #6E6962",
"U  c #61666E",
"Y  c #68696B",
"T  c #766E60",
"R  c #786F61",
"E  c #7C7364",
"W  c #7A756D",
"Q  c #656B74",
"!  c #6B727C",
"~  c #70767F",
"^  c #75787D",
"/  c #7A7C7E",
"(  c #807667",
")  c #807768",
"_  c #857B6B",
"`  c #897E6E",
"'  c #8A806F",
"]  c #8D8272",
"[  c #898379",
"{  c #8E887F",
"}  c #918675",
"|  c #948877",
" . c #968A79",
".. c #998D7B",
"X. c #9D917E",
"o. c #707782",
"O. c #757B85",
"+. c #7D8085",
"@. c #7D838E",
"#. c #7F8691",
"$. c #948D83",
"%. c #979187",
"&. c #9F9380",
"*. c #9A948A",
"=. c #808792",
"-. c #838A96",
";. c #868D99",
":. c #888F9B",
">. c #8C929D",
",. c #909396",
"<. c #91969E",
"1. c #A29683",
"2. c #A69986",
"3. c #A89B87",
"4. c #A09789",
"5. c #A49A89",
"6. c #AA9D89",
"7. c #A49D92",
"8. c #AEA08C",
"9. c #B1A38F",
"0. c #ABA499",
"q. c #B4A691",
"w. c #B7A893",
"e. c #BAAB96",
"r. c #B1A99C",
"t. c #BDAE99",
"y. c #BFB09A",
"u. c #9298A3",
"i. c #989EA9",
"p. c #A0A3A7",
"a. c #A0A6AF",
"s. c #B6AEA2",
"d. c #B9B1A5",
"f. c #BFB7AB",
"g. c #A5ABB4",
"h. c #AEB1B6",
"j. c #C0B19B",
"k. c #C3B5A0",
"l. c #C6B9A5",
"z. c #C8BBA7",
"x. c #C6BCAE",
"c. c #C9BDAA",
"v. c #C5BDB0",
"b. c #C8BFB2",
"n. c #CCC0AE",
"m. c #CEC3B1",
"M. c #D0C5B4",
"N. c #D6CCBD",
"B. c #C2C6CD",
"V. c #D7CEC0",
"C. c #D8CFC1",
"Z. c #DAD1C3",
"A. c #C6CBD1",
/* pixels */
"                                                                                                                                                                ",
"                                                              O o O O o O O o O O o O o O O o O O O                                                             ",
"                                                  o O O O O o o o o o o O O O # & O O & O o o o o o o o o O O                                                   ",
"                                          O O O O o o o O & : 5 y p z v Z D G G R R G F D Z v z h w 5 ; O X o o O o O                                           ",
"                                    % % % o . % ; 5 p c F E ` } |  ...X.....X.....X.X.1.6.9.q.t.t.q.8.*.[ F h 1 O X X o O o                                     ",
"                              O o o X o % 6 a D ) }  .....X...................&.3.9.w.t.y.y.y.y.y.y.j.j.k.z.x.d.%.D t % o o o O O                               ",
"                          o O o o & w a R }  ...........................1.6.q.t.y.y.j.y.y.y.y.y.y.t.y.y.y.y.j.l.M.N.m.7.I t O o o O O                           ",
"                      o O o o ; p T | ...................... ...X.X.3.q.t.y.y.y.y.y.y.y.y.y.y.t.6.1.6.t.y.y.y.y.y.k.n.N.C.v.%.c ; o o O O                       ",
"                    O O o & i E  .............................8.9.t.y.y.y.y.y.y.y.y.y.y.y.y.y.q.X.X...9.j.j.j.j.y.y.y.k.n.N.Z.N.0.S 1 O O O o                   ",
"                  O o o 4 F  .....|  ...................X.8.w.y.y.y.y.y.y.y.y.y.y.y.y.y.y.y.y.t.X.X.X.j.j.j.j.j.j.j.y.y.y.k.m.C.Z.C.s.S ; X O O                 ",
"                O O o y _ ........' E } .... .....X.8.9.t.y.y.y.y.y.y.y.y.y.y.y.y.y.y.y.y.y.y.y.j.j.j.j.q.j.8.} E | q.j.y.y.y.l.N.Z.Z.N.*.q O O O               ",
"              O O o i ] X....... .' E } ......X.8.q.y.y.y.y.y.y.y.y.y.y.y.y.y.y.y.y.y.y.y.y.y.y.j.9.` V z a p p F z z E 8.y.y.y.j.m.C.Z.Z.s.g o o O             ",
"            O o o 6 ` ........| ' ' | ....X.8.e.t.y.y.y.y.y.y.y.y.y.y.y.t.t.y.y.y.y.y.y.y.y.y.y...p 3 y 6 6 5 y _ t.X.E E q.y.y.y.y.x.C.Z.Z.f.h o O O           ",
"          O O o > E .........._ E E } ..X.q.e.y.t.y.y.y.y.y.y.y.y.y.y.y.8.1.9.y.y.y.y.y.y.y.y.t.V y y = 6 6 6 y _ y.y.w.3.q.y.y.y.y.y.z.C.Z.Z.d.u o o O         ",
"          O o & A ............' E E } 8.e.y.y.y.y.y.y.y.y.y.y.y.y.y.y.y.6.X.8.y.y.y.y.y.y.y.y.t.( y 3 6 5 5 l ] e.y.y.3...6.y.y.y.y.y.y.z.V.C.Z.7.> o O         ",
"        o O o p | ........ .] ..} | X.t.y.y.y.y.y.y.y.y.y.y.y.y.y.y.y.y.t.w.t.y.y.y.y.y.y.y.y.y.w.] C a z F | 8.6.G G 8.q.t.y.y.y.y.y.t.t.z.C.Z.C.W O O O       ",
"        O o > _ .........._ G X...X.w.j.t.y.y.y.y.y.y.y.y.y.y.y.j.t.j.t.t.j.j.t.t.t.j.j.j.j.j.j.j.j.j.w.j.9.....] p a 9.j.j.j.j.t.y.y.y.y.y.z.Z.Z.x.u X O       ",
"      O O O v .. .........V G ....2.t.y.j.y.y.y.y.y.y.y.y.y.y.y.j.j.t.j.j.j.t.j.j.j.j.j.j.e.q.6.X.} _ ( G A V c V V C ( ] X.3.q.t.y.y.y.y.y.y.n.Z.Z.[ O O o     ",
"      o o 4 ` ..........} i ( X...8.t.j.y.y.t.j.y.y.e.y.y.y.y.y.t.j.j.t.t.j.t.j.t.q.2.` G C c c V C D G ( ( _ ` ` ] ] } ] ] ] ..8.t.y.y.y.y.y.j.m.Z.f.q o o     ",
"    O O o c ............( q ' ....8.t.t.y.y.y.y.y.2.2.y.y.y.y.y.j.t.t.j.j.t.e.1.` R R ) } 1.6.9.w.j.j.j.j.j.j.j.j.j.j.j.j.j.j.j.y.t.y.y.y.y.y.t.k.N.V.S o O O   ",
"    O o ; E X....... .X.F q } ..X.X.t.j.t.y.y.j.8.D 8.q.w.t.y.y.t.j.t.j.t.j.q.6.q.e.j.j.j.j.j.j.j.j.j.j.j.j.j.j.j.e.j.e.j.j.j.j.y.y.y.y.y.y.y.y.y.x.Z.{ O O O   ",
"    o o w | ............v w | ......q.j.j.y.j.q.c ' 8...X.e.y.y.j.t.t.j.j.t.t.j.j.t.j.t.t.j.j.j.j.j.w.j.j.j.j.j.j.j.j.j.j.j.j.e.y.y.y.y.y.y.y.y.y.k.N.0.; o O   ",
"  O O o x ..............z 5 } X.....X.t.j.j.t.F a w.8...X.w.y.y.j.t.j.t.t.j.j.t.j.t.j.t.j.t.t.j.j.j.e.j.w.j.j.w.j.j.j.j.j.j.j.j.y.y.y.y.y.y.y.y.y.y.m.d.> O O   ",
"  O O O F ..............v & V ' ......3.y.j.X.w X.y.w.8.9.t.y.y.t.j.t.j.j.t.j.j.t.j.t.j.j.t.j.t.j.j.j.j.j.j.j.j.j.e.j.e.j.j.e.j.y.y.y.y.y.y.y.y.y.y.z.d.> o O   ",
"  O o & E ..............) 2 O > a _ ....8.e.8.z 8.y.y.y.y.y.y.y.j.j.t.j.t.j.j.t.t.j.t.j.t.j.t.j.j.t.j.t.t.j.j.j.j.j.j.j.e.j.j.j.y.y.y.y.y.y.y.y.y.y.l.0.> o O   ",
"  O o ; _ ................( i O O > F ....8.e.] ..y.y.y.y.y.y.y.j.t.j.t.j.t.t.j.j.t.j.t.t.j.j.t.t.j.t.j.j.t.j.j.e.j.j.e.X.X.3.e.y.y.y.y.y.y.t.t.t.t.l.7.; o O   ",
"  O o : _ ............} _ ' } c % X * E ....8.q.X.t.y.y.y.y.t.e.t.e.t.t.t.j.j.t.j.j.j.j.j.t.j.j.j.t.t.j.j.t.j.j.j.j.j.q.......e.y.y.y.y.t.9.3.1.1.1.t.$.O o o   ",
"  o o : _ .... .....X.' E ( ..} y X % c ......8.e.t.y.y.y.y.9.8.1.X.1.2.6.9.e.t.t.j.t.t.t.j.j.j.j.j.j.j.j.j.j.j.j.j.e.9.X.X.6.j.y.y.e.6.X....... ...3.I o O O   ",
"  O O & E X..... .} | ..} } ....a X . a ......X.w.y.y.y.t.8....... ..... .....2.6.9.e.w.1.] ] | ..2.3.6.6.3.X. .` G G ( X.e.j.j.t.8.X.........X.X...*.h X o     ",
"  o O O D ......' E E } ....X.} 6 o % C ........2.t.y.y.9...........} ] ]  . .........2.2.X.} R A V c x z x c C G } 3.w.j.j.j.q.1.....X. ._ E G R ] $.1 o o     ",
"  O o o c X.....' R E } ....X.G % . * ' ........X.9.t.t.2.......` c q > 4 q l F _  ..... ...3.q.t.e.q.9.9.w.t.j.j.j.j.j.j.j.8.X.....] C i > & O O 4 g o X o     ",
"  O O o i  .....| ' ' ......' w o % v ............8.t.e.X.....E 4 o o o o o O O > u C ` ........3.t.j.j.j.j.j.j.j.j.j.j.e.6.....] v 1 O X o O O O o o o . o     ",
"    O O 4 '  .X...........X.c o O p } .... .......1.t.q.X...] q O O # : : * # O o o O > l E | ....3.t.t.y.y.y.y.y.y.j.t.3.....F 6 O o o # ; 4 5 * O o o .       ",
"    o O % F X. ... .......W * & c } X.............X.t.q...X.F O O O 4 6 6 6 5 4 ; & O o X & i G | ..3.t.y.y.y.y.y.y.t.3...] z & O O # > 5 6 q 6 6 & O O X       ",
"    O O X p  .X.........X.V o i | X...............X.t.q.X. .l o O : 6 6 6 6 6 6 6 6 2 * O o o & p _ X.w.y.y.y.y.y.y.9.X._ y o o + * 4 y 6 6 6 6 6 * o O X       ",
"      O o > ) X.........X.V o c ..} } ...... ...X.X.t.e.X. .y o O : 6 6 6 6 6 6 6 6 6 6 2 ; O O o 5 _ 9.j.y.y.t.y.t.3.' w O O O : 6 6 6 6 6 6 6 6 & o O X       ",
"      O O o z  ....... .X.E & a ' E ( | ..........1.y.t.1. .i o o > 6 6 6 6 6 6 6 6 6 6 6 6 2 O o o l 9.j.y.y.y.y.e.X.c O O # 2 6 6 6 6 6 6 6 6 5 & O O .       ",
"        O O & E .......... .a 1 G E E } ..........8.j.t.3...z . O * 6 6 6 6 6 6 6 6 6 6 6 5 2 ; o o w q.j.y.9.t.y.t.| 5 o O > 6 6 6 6 6 6 6 6 4 1 O O O .       ",
"        O O o w ' ..........] p i E ' .... .....X.e.j.y.q.X.G & o O 4 6 6 6 6 6 6 6 5 5 2 2 > O o o l t.y.y.9.t.y.y.X.2 o O > 6 5 6 6 6 6 5 4 2 & O O X .       ",
"          O O O p } ........X.] z a ' ........X.1.t.y.y.t.3.| y o O * 5 5 6 6 5 4 3 2 2 : : # O o ; } j.y.j.j.j.j.j.w.z o O O & : 2 2 2 3 : : & O O O X .       ",
"            O o O h } ............F c ( ........q.y.y.y.j.q.X.G & o o & > > > > > > > : & O O O & E t.y.e. .E E F V E | i O o O O & & & & # O O o O o o O       ",
"              O O O y _ ............' G G } X.X.t.y.y.y.y.y.8...v & o O % & * : * & # O O o O q ' y.y.q.v & % O O & O i  .G 6 O o o o o O o o O 5 p o O O       ",
"                O o o 1 V ] X...........' _ ' 8.y.y.y.y.y.y.y.8. .Z > o o o O o o o o o & 6 D 6.y.y.y.' % % 5 = > 6 & o C y.8._ v y 5 1 1 q h G &._ O O o       ",
"                  O o o O 5 V ' ..............w.y.y.y.y.y.y.y.y.q.1._ z 6 & & % & > q z E 3.y.j.y.y.y.Z X * 6 6 6 6 2 o i e.y.y.y.q.6.3.3.8.w.y.j.D o O O       ",
"                      O O O O 1 z E | X.....X.w.j.y.y.y.y.y.y.y.j.y.q.8.X.' ) ) `  .6.w.y.j.y.y.y.y.j.R O & 6 5 1 6 : X h t.y.y.y.y.y.y.w.t.y.y.8.w O O         ",
"                          O O O X & w Z ' ....8.y.j.j.y.y.y.y.y.y.y.y.y.y.y.t.t.y.j.y.y.y.y.y.y.y.y.y.8.w o & & o & O 1 | y.y.y.y.y.y.y.8.w.y.t.C O o O         ",
"                              O O o X % = p F ' 1.9.e.t.y.y.y.y.y.w.8.q.y.y.y.y.y.y.y.y.y.y.y.y.y.y.y.y.1.V y i z l C X.y.y.y.t.w.y.t.t.y.j.t.F # o O           ",
"                                  O X O O X % 5 h G ] X.3.8.q.y.y.8. .3.t.y.y.y.y.y.y.y.y.y.y.y.y.y.y.y.j.t.q.w.t.t.y.y.y.y.y.e.8.t.w.8.y.w.A & O O             ",
"                                        O O O o o O 4 h F ' X.8.t.e.9.w.t.j.t.j.y.y.y.y.y.y.y.y.y.y.y.y.y.y.y.y.y.y.y.y.y.y.y.y.y.y.y.t.q.v O O O O             ",
"                                              O O o o o O 2 Z ..q.t.j.j.j.t.j.t.y.y.y.y.y.y.y.y.y.y.y.y.y.y.y.y.y.y.y.y.y.y.y.y.y.y.y.j.] O X O                 ",
"                                                  o O O o o : E 8.j.j.t.t.t.j.j.y.y.y.y.y.y.y.y.y.y.y.y.y.y.t.t.y.y.y.y.y.y.y.y.y.y.y.j.R O O O                 ",
"                                                  O O o O o o c 8.j.j.j...X.j.t.y.y.y.y.j.w.w.j.y.y.y.y.y.t.} q.y.y.y.y.y.y.q.1.y.y.y.t.v o O o                 ",
"                                                O o o o o o o 1 ' q.w.8.a T j.j.y.y.y.y.t.E X.j.y.y.y.y.y.q.a X.j.y.y.y.y.y.' Z t.y.j.6.5 o O                   ",
"                                              O O O , 9 9 O o o i ' .._ > a q.t.j.y.y.t.X.i X.j.y.y.y.y.t. .> F j.j.y.y.y.8.z > ..q.3.c O o O                   ",
"                                            O O O j L L H k < o % 6 p 4 % & y A X.w.9...A & F 8.e.y.t.q.} C % y | 8.w.8.R w % O > y q O O O                     ",
"                                            O O r m m L ! ! f o . o . o . % . % i C c 4 % X % 4 C } } v > % O O & i Z a % X O O O o o O O                       ",
"                                          O o 0 L K K P L Q B % o & 4 i 6 % X o o o o o O % % . O > > O X O O O X o O o o O o   O O o O                         ",
"                                        O O ; n H K P +.+.! m % o % & q i 4 X % o o O O % 1 - % O X O O O X O % O O o % O O O                                   ",
"                                        O O r L K K P P P Q P % o & * % % % X X . . o o % % o % X O X O : a R _ i o O 4 % O                                     ",
"                                      O O O % - 8 m Q ! ! Q d % o 4 Z G C a p i i i i 6 o o * 5 % O % 4 i z l i : O o 5 > O O                                   ",
"                                        o . % X % % % , , < > . o X & > 2 4 5 q i i a y % X a X.4 O O O O O % & > % X 5 v O O O                                 ",
"                                      O o % & y a 9 5 % . . % % % % o X o & & & & & % % O X i ' 4 X & w p x V D Z 1 O ; _ h & O O o                             ",
"                                      o o & Z E y > _ ' > % % % % % % . % & q p a a p i & % % & O O & & : > > & % o O O i ' ] w o O O                           ",
"                                    % o o % % % % X l X.i . . % % - % % % o X % o % O % o o % 6 4 O O % O % O % % : O O . > q & O O o O                         ",
"                                  o o 1 A h 6 5 q O O ; O O 4 O O , 8 7 7 , ; - - - - - O o 4 _ E O O ; 7 7 7 7 8 e O O O O : q g ; o O                         ",
"                                  O o a 1.1.......G i 1 5 v ` 4 o ; 8 8 8 8 8 8 8 8 8 , - O ; 1 1 O O , < , - ; - # O O O ; i h 6 O O o                         ",
"                                  O o z 3.1.1.1.1.1.3.3. .D D 2 o O - ; ; , ; , ; , , - O O o o O O O O O + # # = = 3 + O # O O O O O O                         ",
"                                  o o 5 ] 3.1.1.1.3.w.8.t.3.p O O O + $ # # O # # # # # @ # $ # * * * = = = = 3 = 3 : O 5 _ E T q O O                           ",
"                                    O o i } 3.1.1.] q...D ..] & O + @ = = $ @ = 3 = 3 = = = 3 = = 3 = = * $ # # & : ; o 1 ) G i O O O                           ",
"                                      O O 6 G  .1._ C 6.] w 5 O O O + $ $ # @ $ @ @ $ $ @ @ @ + + + + # > 9 s b ^ p.B o O O O o O                               ",
"                                        O o O 6 v R u w ] v O O 1 s r r s r e 0 0 0 0 0 r s f k H / +.~ O.=.;.:.g.A./ O O O O                                   ",
"                                          o O O O O & O % O O 1 N K U U @.-.=.=.#.=.=.=.>.:.;.;.>.i.u.;.;.;.:.u.a.B.,.& o                                       ",
"                                            O o O < , # O < f H L J K U @.:.:.;.-.-.;.-.;.;.-.-.:.;.-.-.-.O.! O.<.h.Y O O                                       ",
"                                              O o 0 0 ; # ; r b J H n k k b U O.@.;.-.@.O.U k k N Q ~ U f ; # > 0 t ; O                                         ",
"                                                o o o O o O O O > , & : 6 : O > s N L b 4 O o o O O ; ; 1 c w o o o o O                                         ",
"                                                        O O O O o o : l c 4 o o o O O o O O o O O o O & i l > O O O O O                                         ",
"                                                        O o + O o O O O O O O $ $ O O o   O O O + O O o o o O + $ * O O                                         ",
"                                                        O O + + o + + $ # $ * * * O O O   O O o + o O + @ # # $ $ # O O O                                       ",
"                                                        o O O o O O O O O O O O O O O o     O O O O O O O O O O O O O O O                                       ",
"                                                            O O O O O O O O O O o O             o O o O O O o O O                                               "
};
