/* XPM */
static char *w_5_resized[] = {
/* columns rows colors chars-per-pixel */
"80 80 155 2 ",
"   c None",
".  c #161513",
"X  c #181716",
"o  c #1A1917",
"O  c #1B1A18",
"+  c #211A16",
"@  c #291C17",
"#  c #221E1B",
"$  c #291F1A",
"%  c #23211E",
"&  c #2B211C",
"*  c #33241D",
"=  c #1F2122",
"-  c #242422",
";  c #292623",
":  c #2D2925",
">  c #232729",
",  c #262A2C",
"<  c #2D2C2A",
"1  c #352721",
"2  c #302C26",
"3  c #382821",
"4  c #322E2A",
"5  c #35312B",
"6  c #3A342D",
"7  c #272D30",
"8  c #292F32",
"9  c #2D3134",
"0  c #333435",
"q  c #3A3630",
"w  c #3D3933",
"e  c #353638",
"r  c #37383A",
"t  c #3A3B3D",
"y  c #413D36",
"u  c #433F38",
"i  c #46423A",
"p  c #4A453D",
"a  c #4D483F",
"s  c #3C3E41",
"d  c #3F4144",
"f  c #404142",
"g  c #4A4742",
"h  c #4E4A42",
"j  c #44464B",
"k  c #46484D",
"l  c #494A4C",
"z  c #534D44",
"x  c #514E49",
"c  c #565047",
"v  c #575148",
"b  c #5B544A",
"n  c #5F584D",
"m  c #4A4F54",
"M  c #4C5056",
"N  c #4E5259",
"B  c #5F5B55",
"V  c #51565C",
"C  c #54585E",
"Z  c #5B5C5D",
"A  c #61594F",
"S  c #645D52",
"D  c #676054",
"F  c #696256",
"G  c #66625B",
"H  c #6D6559",
"J  c #736A5D",
"K  c #555C64",
"L  c #595D64",
"P  c #585F68",
"I  c #5B6067",
"U  c #5D636B",
"Y  c #5F6670",
"T  c #686B6E",
"R  c #766E61",
"E  c #786F62",
"W  c #7C7364",
"Q  c #7C766C",
"!  c #666C75",
"~  c #696E77",
"^  c #676E78",
"/  c #6A6F78",
"(  c #6B727B",
")  c #717375",
"_  c #807667",
"`  c #817768",
"'  c #857B6B",
"]  c #897E6E",
"[  c #837D75",
"{  c #8A7F70",
"}  c #8A806F",
"|  c #858077",
" . c #8D8272",
".. c #878179",
"X. c #8C867D",
"o. c #918675",
"O. c #948877",
"+. c #968A79",
"@. c #998D7B",
"#. c #9D917E",
"$. c #6E7580",
"%. c #717781",
"&. c #737983",
"*. c #787E88",
"=. c #7D8187",
"-. c #7B818C",
";. c #7F8691",
":. c #838689",
">. c #9F9280",
",. c #9B958A",
"<. c #808792",
"1. c #838A95",
"2. c #8C8F94",
"3. c #868D99",
"4. c #888F9A",
"5. c #8C929E",
"6. c #A29683",
"7. c #A69986",
"8. c #A89B87",
"9. c #A4998A",
"0. c #AA9D89",
"q. c #A39C92",
"w. c #AFA18D",
"e. c #B1A38F",
"r. c #A9A093",
"t. c #AFA89C",
"y. c #B4A691",
"u. c #B7A893",
"i. c #BAAB96",
"p. c #BDAE99",
"a. c #BFB09A",
"s. c #8F96A1",
"d. c #9097A2",
"f. c #959BA4",
"g. c #A5A8AD",
"h. c #B5AEA2",
"j. c #BEB4A4",
"k. c #BEB6AA",
"l. c #ABB0B8",
"z. c #B2B6BF",
"x. c #C0B19B",
"c. c #C4B6A1",
"v. c #C6B8A4",
"b. c #C4BBAC",
"n. c #CBBEAB",
"m. c #CDC1AF",
"M. c #CDC2B3",
"N. c #CEC5B8",
"B. c #D0C5B4",
"V. c #D4CBBC",
"C. c #D8CEBF",
"Z. c #C3C7CD",
"A. c #D6CDC0",
"S. c #D8CFC1",
"D. c #DAD1C3",
/* pixels */
"                                                                            O o o O o O O                                                                       ",
"                                                          O O O O O O O O o o o o X o o o o o o O O o O O                                                       ",
"                                                o O O O o o o o O O O % % ; < 4 5 5 5 4 < ; % % O O o o o o O O O                                               ",
"                                        O O O O o o O # ; 4 y a n H J W ' } }  .o. . .}  . . .} ' R S h q ; O o o o O o O                                       ",
"                                  O O O o o o % 5 a S R '  .+.@.@.#.#.#.#.@.@.@.#.#.7.w.y.p.a.x.a.x.a.a.h.r.X.G u - O O o O O                                   ",
"                              O o o o # 2 p D } o.@.@.@.@.@.@.@.@.@.+.@.+.#.6.8.e.i.a.x.x.a.a.a.a.a.a.a.x.c.n.M.M.t.[ h : O X O O o                             ",
"                          O O o o ; p J } @.@.@.@.@.@.@.@.@.@.@.@.+.#.#.8.y.p.a.x.a.a.a.a.a.a.a.p.y.i.a.x.a.a.x.v.M.C.V.h.[ g - X o O O                         ",
"                      o O o O 4 v } @.@.@.@.@.@.@.@.@.@.@.@.@.@.#.8.e.p.x.a.a.a.a.a.a.a.a.a.a.u.>.@.7.i.a.a.a.a.p.a.c.m.C.D.N.q.G < o o O O                     ",
"                    O O o ; n ] @.@.@.@.@.@.@.@.@.@.@.@.@.#.6.w.i.a.a.a.a.a.a.a.a.a.a.a.a.a.a.y.@.@.@.x.x.x.x.x.a.a.a.a.c.M.C.D.C.h.R < O O O                   ",
"                  O O O u _ @.@.O.O.O.@.@.@.@.@.@.@.@.#.w.u.a.a.a.a.a.a.a.a.a.a.a.a.a.a.a.a.a.p.e.8.e.x.x.x.x.i.y.p.a.a.p.a.c.N.S.D.S.h.B O o O O               ",
"                O O O z o.@.@.@.O.} W O.@.@.@.@.@.#.w.i.p.p.a.a.a.a.a.a.a.a.a.a.a.a.a.a.a.a.a.a.x.x.x.#.@.#.] S x S  .y.x.x.p.x.n.C.D.D.V...< o O o             ",
"              o o O b +.@.@.@.@.O._ } O.@.@.@.#.y.a.a.a.p.p.a.a.a.a.a.a.a.a.a.a.a.a.a.a.a.a.a.a.x. .a y y y 6 a  .' n b ] u.x.x.x.c.B.D.D.D.,.< o O O           ",
"            O O o p o.@.@.@.@.o.} } +.@.@.#.w.p.a.a.a.a.a.a.a.a.a.a.a.a.p.i.a.a.a.a.a.a.a.a.a.a._ y 3 6 6 6 6 6 J x.p.0.+.y.x.a.a.p.x.M.S.D.D.,.: X O o         ",
"          o O o 6 } @.@.@.@.@.` W W O.@.w.i.a.a.a.a.a.a.a.a.a.a.a.a.a.a.8.#.w.a.a.a.a.a.a.a.a.p.A * 6 6 6 3 6 a #.x.x.0.#.0.p.a.a.a.x.x.M.A.D.D.X.- o O         ",
"          O o % R #.@.@.@.@.@.] E Q +.w.i.p.a.a.a.a.a.a.a.a.a.a.a.a.a.a.w.#.e.a.a.a.a.a.a.a.a.a.#.a y 5 6 y H 8.x.e.0.e.6.e.x.a.a.a.a.a.a.M.D.D.V.G O o O       ",
"        O o O b +.@.@.@.@.O. .+.o.o.w.p.a.p.a.a.a.a.a.a.a.a.a.a.a.a.a.a.a.p.a.a.a.a.a.a.a.a.a.a.x.w. .J _ +.#.6.@.a p 6.p.p.a.a.a.a.a.a.a.x.M.A.D.k.w o O       ",
"      O O O 5  .@.@.@.@.@.W E @.@.#.i.a.a.a.a.a.a.a.a.a.a.a.a.a.p.x.p.x.p.x.p.x.x.x.p.x.x.x.x.x.x.x.x.x.i.8. .o. .A A 7.i.x.x.x.x.a.a.a.a.a.x.B.D.D.| O O O     ",
"      O o O F #.@.+.@.@.@.b W #.@.w.a.a.a.a.a.a.a.a.a.a.a.a.a.a.x.p.x.p.x.p.x.x.x.x.x.x.u.0.@.] E F A v v c a a a A A S H J ' @.w.p.a.a.a.a.x.x.V.D.b.w X o     ",
"    O O O 6  .@.@.@.@.@.} i ' @.@.w.a.a.a.x.a.a.a.a.i.a.a.a.a.a.x.p.x.x.x.p.x.x.y.6.] J S A A H _ } O.#.#.w.w.w.u.y.u.e.e.e.e.w.y.p.a.a.a.a.a.p.v.A.D.R X O O   ",
"    O o O A #.@.@.@.@.@.E w } #.@.w.a.a.a.p.a.a.a.#.6.a.a.a.a.a.p.x.p.x.p.x.y.@.' ' o.#.0.u.p.x.x.x.x.x.x.x.x.x.x.x.x.x.x.x.x.x.x.a.a.a.a.a.a.a.a.b.D.q.- O O   ",
"    O o ; ' #.+.+.@.@.#.D w O.@.@.7.a.x.a.a.p.x.6.H y.w.u.p.a.a.x.x.p.x.x.p.u.y.p.x.x.x.x.x.p.x.x.x.x.x.i.x.i.x.x.x.x.x.x.x.i.x.a.a.a.a.a.a.a.a.a.x.V.k.0 o O   ",
"  o O o i O.#.+.@.@.@.@.b i O.@.@.@.y.x.a.a.x.e.c } w.@.@.i.a.a.p.x.x.p.p.x.x.x.x.p.x.x.p.x.x.p.x.x.x.x.x.x.x.x.x.i.x.x.x.x.x.x.a.a.p.a.a.a.a.a.a.a.n.N.i o O   ",
"  O O O n @.+.#.@.@.+.@.a 6 o.#.@.@.#.a.x.x.p.H c u.w.@.#.u.a.a.x.p.p.x.p.x.p.x.x.p.x.p.p.x.p.x.x.x.x.i.x.x.x.x.x.i.x.i.i.x.x.i.a.a.a.a.a.a.a.a.a.a.v.N.h o O   ",
"  O O O J #.@.+.@.@.@.#.A % A } +.@.#.#.p.x.#.y #.a.p.w.w.p.a.a.p.x.p.x.x.p.x.x.p.x.p.x.x.p.x.x.x.i.x.x.i.x.i.x.x.x.x.x.x.x.x.x.a.a.a.a.a.a.a.a.a.a.x.M.h o O   ",
"  O o % _ @.@.@.@.@.@.@._ : O : a Q @.@.6.p.w.b 6.a.a.a.a.a.a.a.x.p.x.x.p.p.x.p.x.p.x.p.x.x.x.p.x.i.x.x.x.x.x.x.x.x.x.x.y.w.e.x.a.a.a.a.a.a.p.a.x.a.x.b.i X O   ",
"  O o ; ' @.@.@.@.@.@.@.+._ i O O * F @.O.w.p.@.+.a.a.a.a.a.a.a.x.x.x.x.x.x.p.x.x.p.p.x.x.p.p.x.x.x.x.x.x.i.x.x.x.i.x.i.#.@.@.y.a.a.a.a.x.p.p.y.e.y.p.j.t o O   ",
"  o O ; ' #.+.@.@.@.@.O.} } O.b # o % E @.@.w.u.6.p.a.a.p.a.a.p.u.i.i.p.x.x.x.x.p.x.x.x.p.x.x.x.x.x.x.x.i.x.x.x.x.x.x.x.8.@.@.y.x.a.a.p.e.6.#.#.@.@.6.r.4 o O   ",
"  O O - ' @.@.@.@.@.@. .W _ +.O.p O O a +.@.+.w.u.p.a.a.a.p.y.6.#.#.#.#.6.8.e.u.p.x.p.x.u.u.p.x.x.x.x.x.x.x.x.x.i.i.0.#.O.#.y.x.a.p.y.6.@.@.@.@.@.@.>.[ % o O   ",
"  O O % W @.@.@.@.o.+.+.o.o.+.#.v o o i +.@.@.@.y.a.a.a.p.w.@.@.@.@.@.@.@.@.@.@.6.7.e.u.7.] _ J E ] ] ] ] ' _ J S A F ' 0.x.x.x.u.6.#.@.@.@.@.O.O.+.8.G X o o   ",
"  O O O H @.@.@. .W W O.+.#.@.O.y o o b @.@.@.@.#.i.a.a.u.#.@.@.@.@. .' _ ] O.@.@.@.@.#.6.7.6.@.' J J F F F J ' @.0.i.x.x.x.x.w.6.@.#.+.' F a u u z Q i . o o   ",
"  O O o v @.@.@.} E E } #.@.#._ % O % W @.@.@.@.#.w.a.a.w.+.@.+.] c 4 - % 2 y z H ] @.@.@.@.#.8.i.x.x.x.x.x.x.x.x.x.x.x.x.x.8.@.@.+.R p ; O O o X o - O . X     ",
"    o o u O.@.@.+.} } +.+.@.O.p O O a +.@.@.@.@.@.6.p.p.#.@.@.} 6 X X O O X X X # : i F ] @.@.@.#.e.x.x.x.x.x.x.x.x.x.x.i.8.@.@.` p % o o O O - % O o O X X     ",
"    O o : ' #.@.@.@.@.@.@.#.H # o y } @.@.+.@.@.@.#.i.i.#.@.@.p o O # ; 2 ; % # O O o O 4 b Q +.#.#.w.a.a.a.a.a.a.a.a.p.w.@.+.D : O O O % 4 5 6 6 % O O o .     ",
"    O O O H @.@.@.@.+.@.@.} 5 O i } @.@.@.@.@.@.@.#.y.p.#.@.Q % O O 2 6 6 6 6 5 2 & # o o o & a E @.#.u.a.a.a.a.a.a.p.w.+.} a O O O # 4 6 6 6 6 6 1 O O o       ",
"    O O O i +.@.@.@.@.@.#.R % 5 } @.@.@.@.@.@.@.@.@.u.p.#.#.F O O # 6 6 6 6 6 6 6 6 5 2 % O o o % b o.w.a.a.a.a.a.a.i.#.} y o o O ; 6 6 6 6 6 6 6 2 O O O       ",
"      O O % W #.@.@.@.+.#.J O i @.O.O.+.@.@.@.+.@.@.i.x.#.#.b O o % 6 6 6 6 6 6 6 6 6 6 5 2 % O o O c #.p.a.a.a.a.a.w.O.i o O # 2 6 6 6 6 6 6 6 6 2 O O o       ",
"      O O X p +.@.@.@.@.#.' < w } _ W o.@.@.@.@.@.#.p.a.w.+.A O O % 6 6 6 6 6 6 6 6 6 6 6 6 6 % O o & +.a.a.p.p.a.a.w.J = o O 2 6 6 6 6 6 6 6 6 6 * O O o       ",
"        O O % J @.@.+.@.@.+.A % F W E } @.@.@.@.@.7.p.x.y.#.R # o O 5 6 6 6 6 6 6 6 6 6 6 5 4 ; O O O o.a.a.y.y.a.p.w.b o o % 6 6 6 6 6 6 6 6 6 < % O O o       ",
"        O O O 4 } #.@.@.+.#.O.c 6 J } O.@.@.@.@.@.w.x.p.i.6.} 6 o O & q 6 6 6 6 6 6 6 5 2 ; ; % O o 4 7.x.a.a.i.a.a.i.F o O # : 4 5 6 5 2 2 2 ; % O O o X       ",
"          o O . i } @.@.#.+.@.+.S p _ +.@.@.@.@.#.i.x.x.a.w.#.S O o # 1 5 5 5 6 5 2 ; < ; * % O O O J a.a.x.a.a.p.u.i.#.q o O O % & ; : : 1 - % O O o o .       ",
"            O O O i } #.+.#.@.@.+.W v J O.+.@.+.w.a.a.a.a.i.7.o.w o O O % : : < ; < ; & % O O o % S u.a.p. .n c c w y H } y O o O O O O % O O O O O # X o       ",
"              o O O q W #.+.@.+.@.@.O.E J } +.#.u.a.a.a.a.a.i.#.` 5 o O O % % & & % # # O o O 5 W i.a.a.W % o # O % # o c w.W i ; O O X X O O - u R i X O O     ",
"                O O o : b } @.#.@.@.@.@. .} } #.a.a.a.a.a.a.a.u.6.' i # X o O O O O X o # 5 F 7.a.a.p.w.q X 2 6 : 6 4 # # o.x.i.>.` F b v n J  .0.u.a o O       ",
"                  O O O O 5 n ' @.@.@.@.+.+.O.w.a.a.a.a.a.a.a.a.p.w.+.J p 5 ; % ; < w b Q 7.a.a.a.a.p.w.2 O 4 q 6 6 6 % O Q a.a.x.x.a.a.a.a.x.x.x.8.4 o O       ",
"                      O o o O < a E O.@.@.+.@.w.a.a.a.a.a.a.a.a.a.a.p.e.8.#. .}  .#.w.u.a.a.a.a.a.a.a.y.u X : 5 : 4 4 # % @.a.a.a.a.a.a.p.w.a.a.p.H O O O       ",
"                          O O O o % q S } O.@.#.i.a.a.a.a.a.a.a.a.a.a.a.a.a.a.a.a.a.a.a.a.a.a.a.a.a.a.a.o.5 O # O O # % J p.a.a.a.a.a.a.p.y.a.x.' ; o O         ",
"                              O o o o o % i H } #.w.y.i.a.a.a.a.a.a.w.8.p.a.a.a.a.a.a.a.a.a.a.a.a.a.a.a.a.#.H n H W W #.p.a.a.a.y.y.a.u.u.a.a. .: o O o         ",
"                                    O O o o O & i D ' #.7.8.y.i.a.i.#.#.y.a.a.a.a.a.a.a.a.a.a.a.a.a.a.a.a.a.a.a.a.a.a.a.a.a.a.a.u.u.a.y.u.i.` ; O O O           ",
"                                        O O O O O O ; y n Q +.6.u.a.u.u.a.a.a.a.a.a.a.a.a.a.a.a.a.a.a.a.a.a.a.a.a.a.a.a.a.a.a.a.a.a.a.a.x.' - X O O             ",
"                                              O O O o o O % i ' #.i.a.a.a.a.a.a.a.a.a.a.a.a.a.a.a.a.a.a.a.a.a.a.a.a.a.a.a.a.a.a.a.a.a.a.a.b X O o               ",
"                                                    o O O o o p #.a.a.a.a.i.a.a.a.a.a.a.a.a.a.a.a.a.a.a.a.a.p.i.a.a.a.a.a.a.a.p.i.a.a.a.u.i X O                 ",
"                                                  o O o O O o ; } i.a.a.u.' u.a.a.a.a.a.a.a.w.i.a.a.a.a.a.p.w.' p.a.a.a.a.a.a.O.7.x.a.a.0.5 O O                 ",
"                                                  O o o o o O O v w.y.e.} w #.a.a.a.a.a.a.w.F u.a.a.a.a.a.a.} i u.a.a.a.a.a.p.c R x.x.p.W O O o                 ",
"                                                O O = 9 r , O O % F +.+.n % } u.a.a.a.a.u.R i u.a.a.a.a.a.u.H % o.x.a.a.a.y.} 4 5 ] #.W < o O O                 ",
"                                              O O 9 V U I C d O O % u y - O : i E w.y.#._ p < _ w.i.p.i.#.J y O p _ #.w.o.i = X o O ; # o o O                   ",
"                                            O O < m C I ! ( U , X O X X X o o X % i n p - O O O : S } J y O O O X = q p 2 X O X O O O o O O                     ",
"                                          % O % N U P P U Y ( t o O % < i : O O O X o X O O % o X O % % X O O O X O X X X O O O     O O                         ",
"                                          O O j P K Y $.&.$.Y 0 O O # : w w % O O O O O O > 8 - O O X X O X O % % O X = % O O                                   ",
"                                        O O > N K K U Y Y ^ $.s X # : : % O O X O X X O O O O o O O O O % q F } _ 4 X % y O O                                   ",
"                                        O O o O > s I ( ( Y P < o O i H H S a a i i p a 5 O O q 5 O O % 5 i p y 5 # O O a < O O                                 ",
"                                          o o o X o O - - > 7 % O o O - : : 4 4 q w u i < o = _ ' = X O O O # - 4 4 O X c F O o O                               ",
"                                        # o - q v u w 4 O O o O O O o o O O ; ; - - % % % O o n J O O 4 i z n F H b % X 6 @.b 5 # O O                           ",
"                                      o O O a _ a - a 7.a O = O > = = o O O : w p a a p q # O # # o O # % % % % O X O O O q Q } 5 O O O                         ",
"                                    O o # O O - O X ,  .R O X o O > > = = O o o O O O O O o O - u 2 X O O = O = % > , O O X # % o % O o O                       ",
"                                    O O A F i 6 u : X O % o : - O = 7 7 7 , > = = = = = = O O h o.z O O , 7 7 7 , 9 9 O O O # 0 h c % O O                       ",
"                                  O o 4 +.6.6.#.>.] b q 5 i } c O + 7 8 8 8 8 8 8 8 8 8 > O O - 2 % O O , > > = = # # O O O O w w % O O O                       ",
"                                  O o 5 @.6.6.6.6.6.7.0.6.W H a X O = - = - > - > > > = = O O O O O O O O + # # & & 1 1 O ; < # % % O O O                       ",
"                                    O # J 6.6.6.6.6.e.y.y.i.H % O O X + # # + # + # # % $ # # # $ & & * * * * * 1 1 1 & o c 7.O.Q q O O                         ",
"                                    O o ; W 6.6.6.O.#.w.J ' 6.w o O @ * * * @ $ 1 * * * * * * * * * * * * & # # @ % 5 # o q J b 5 O O                           ",
"                                      O o % b  .6.@.b O.6.c q - o O X @ # @ $ $ $ $ $ $ $ @ @ @ + + # - - < r k L 3.g.d X O X o o O                             ",
"                                        O o O ; a J n 4 R ` ; o O s s e r s r e 0 0 e e e s f j m ! :.=.&.-.1.4.5.z.Z.Z X O O                                   ",
"                                            O o o O % O O O o - j T U U / 1.1.<.<.<.<.<.3.d.3.3.3.s.f.5.3.4.1.5.s.l.Z.) o O                                     ",
"                                              O o % , - # - 0 N U U L U ! 1.3.3.1.1.3.3.1.4.3.1.3.3.3.1.<.:./ ^ &.f.g.l o o                                     ",
"                                                o - r < - = < d V L V m k k C ( *.;.3.1.-.%.C d l L ! ( L e % - > 9 e + O                                       ",
"                                                o O o o O o O O - < - - 2 5 # O 8 j P L f ; O o X O # - % q S : o X X O                                         ",
"                                                          O O O O O O u S n - o X O O O O O o O O O O # w n b - o + O O O                                       ",
"                                                        O O O X X O O O O O O O $ # o o     O o O + O O O X X O # & # O O                                       ",
"                                                        O O O + + + + + # # $ & * $ O o     O O O + + X + # # $ & & # O O O                                     ",
"                                                        O O O o O O O O + O O # O O O O O   O O O O O O O O O O O O O O O O                                     ",
"                                                            O O O O O O O O o O O O O o         X O O O O O O O O O                                             "
};
