/* XPM */
static char *w_6_resized[] = {
/* columns rows colors chars-per-pixel */
"80 80 154 2 ",
"   c None",
".  c #151412",
"X  c #181715",
"o  c #1A1917",
"O  c #1C1A18",
"+  c #211A16",
"@  c #291C17",
"#  c #221E1B",
"$  c #281F1A",
"%  c #23211E",
"&  c #2C211C",
"*  c #33241D",
"=  c #1F2021",
"-  c #242422",
";  c #292622",
":  c #2D2925",
">  c #212629",
",  c #252A2D",
"<  c #2C2B2A",
"1  c #362720",
"2  c #312D27",
"3  c #3D2B24",
"4  c #322E29",
"5  c #35312C",
"6  c #3A342D",
"7  c #272D30",
"8  c #292F32",
"9  c #2E3032",
"0  c #2F3538",
"q  c #333435",
"w  c #3A3731",
"e  c #3D3933",
"r  c #353638",
"t  c #37383A",
"y  c #3A3C3E",
"u  c #413D36",
"i  c #433F38",
"p  c #46423B",
"a  c #4A453D",
"s  c #4D483F",
"d  c #3C3D40",
"f  c #3F4145",
"g  c #414346",
"h  c #494641",
"j  c #4E4941",
"k  c #44464A",
"l  c #46484D",
"z  c #534D44",
"x  c #524E48",
"c  c #565047",
"v  c #585147",
"b  c #575148",
"n  c #5B544A",
"m  c #5F584E",
"M  c #474C51",
"N  c #4A4D52",
"B  c #4E555C",
"V  c #5A5751",
"C  c #5E5A53",
"Z  c #51555B",
"A  c #55595F",
"S  c #60594E",
"D  c #645D52",
"F  c #676055",
"G  c #6A6256",
"H  c #6E665A",
"J  c #70675B",
"K  c #736A5D",
"L  c #555B63",
"P  c #595E65",
"I  c #595F68",
"U  c #5C6067",
"Y  c #5D636B",
"T  c #6F6A63",
"R  c #61676F",
"E  c #63686F",
"W  c #766E61",
"Q  c #786F61",
"!  c #746F68",
"~  c #7C7365",
"^  c #7A756D",
"/  c #606771",
"(  c #656B74",
")  c #686D76",
"_  c #696F79",
"`  c #6B727C",
"'  c #7F7A72",
"]  c #70757E",
"[  c #807667",
"{  c #817768",
"}  c #857B6B",
"|  c #897E6E",
" . c #8A7F70",
".. c #8A806F",
"X. c #858077",
"o. c #8D8272",
"O. c #89847B",
"+. c #918675",
"@. c #948877",
"#. c #968A79",
"$. c #998D7B",
"%. c #9D917E",
"&. c #717782",
"*. c #737A84",
"=. c #797D83",
"-. c #797F89",
";. c #7F8691",
":. c #86898C",
">. c #9F9280",
",. c #9C958A",
"<. c #808792",
"1. c #838A95",
"2. c #8A8D92",
"3. c #868D99",
"4. c #888F9B",
"5. c #8D9093",
"6. c #8B919D",
"7. c #A29583",
"8. c #A69986",
"9. c #A89B87",
"0. c #A39889",
"q. c #AB9E8A",
"w. c #A49D92",
"e. c #AEA18C",
"r. c #B1A38E",
"t. c #AFA89D",
"y. c #B4A691",
"u. c #B7A893",
"i. c #BAAB96",
"p. c #BDAE99",
"a. c #BFB09A",
"s. c #9197A2",
"d. c #9399A4",
"f. c #A0A3A9",
"g. c #A6AAAF",
"h. c #B4ADA1",
"j. c #BEB6AA",
"k. c #ABAEB3",
"l. c #B5B9BE",
"z. c #C0B19B",
"x. c #C4B6A2",
"c. c #C8BBA7",
"v. c #C3BBAE",
"b. c #C9BDAB",
"n. c #CDC0AE",
"m. c #CEC3B3",
"M. c #CFC6B9",
"N. c #D2C7B6",
"B. c #D4CBBC",
"V. c #D8CEBF",
"C. c #B9BEC4",
"Z. c #C0C5CB",
"A. c #D8CFC1",
"S. c #DAD1C3",
/* pixels */
"                                                                                                                                                                ",
"                                                              O O O o O O o O o o o o O o O O O O O o O                                                         ",
"                                                  O O O o o o X o o o o O # % ; % ; : % % % # O o . o o o O o o O                                               ",
"                                          O O O o o o o # % : w p c m G W ~ ~ } ..{ ..{ } { ~ ~ W F c p 4 % o X o o O O                                         ",
"                                    O O O o o O % 5 p n K ~ ..@.#.$.$.%.%.$.$.$.%.%.7.e.y.p.a.a.a.a.a.i.t.,.' V r = o X o O O                                   ",
"                              O O O O O # 2 a G ~ +.#.$.%.%.$.$.$.$.$.$.$.$.%.8.r.u.a.a.a.a.a.a.a.a.a.a.a.x.n.M.v.e.^ a ; O o o O O                             ",
"                          O O o o O 4 s K ..#.$.%.$.$.$.$.$.$.$.$.$.$.%.8.r.i.a.a.a.a.a.a.a.a.a.i.u.a.a.a.a.a.a.c.M.B.M.h.^ p % X O O o                         ",
"                        O O O O e G ..$.$.$.$.$.$.$.$.$.$.$.#.$.%.>.e.i.a.a.a.a.a.a.a.a.a.a.a.y.>.%.9.a.a.a.a.a.p.a.j.m.A.S.m.w.D < o o O O                     ",
"                    O o o O w J @.$.$.#.$.$.$.$.$.$.$.$.$.$.%.e.y.p.a.a.a.a.a.a.a.a.a.p.a.a.a.r.$.$.%.z.z.z.z.z.z.a.a.a.x.n.V.S.V.h.! 5 o O O                   ",
"                  O O o ; S o.%.$.#.$.$.$.$.$.$.$.$.$.$.%.r.i.a.a.a.a.a.a.a.a.a.a.a.a.a.a.a.a.p.q.8.u.z.z.z.z.i.y.p.z.z.a.a.c.N.S.S.A.t.C O o O O               ",
"                O o o 5 ~ $.$.$.#.....#.$.$.$.$.$.$.e.r.a.a.a.a.a.a.a.a.a.a.a.a.a.a.a.a.a.a.a.a.z.z.y.%.%.%.| S c D o.y.z.a.a.z.b.B.S.S.B.X.; O O o             ",
"              o O o w } $.$.$.$.@.~ ~ @.$.$.#.%.e.u.a.a.a.a.a.a.a.a.a.a.a.a.a.a.a.a.a.a.a.a.a.a.u.+.S u u u 6 s @.{ m m o.i.a.a.a.x.N.S.S.S.,.< o O O           ",
"            O O o 2 { $.$.$.$.#.....@.$.$.$.e.u.p.a.a.a.a.a.a.a.a.a.a.a.p.p.a.a.a.a.a.a.a.a.a.a.[ u * 6 6 6 6 6 } z.i.q.%.y.a.a.a.p.j.m.A.S.S.,.; o O O         ",
"            O o % J %.$.$.$.$.} Q ..#.$.%.r.i.a.p.p.a.a.a.a.a.a.a.a.a.a.e.%.y.a.a.a.a.a.a.a.a.u.s u 6 6 6 6 3 z 7.z.z.q.%.e.a.a.a.a.p.z.m.A.S.A.O.- o O         ",
"          O O O b $.$.#.$.$.$.} Q ~ $.%.i.a.a.a.a.a.a.a.a.a.a.a.a.a.a.a.e.%.e.a.a.a.a.a.a.p.a.a.@.s 6 6 6 u J r.p.e.q.e.7.r.a.a.a.a.a.a.a.m.A.A.A.H O o O       ",
"        o O o w o.$.$.$.$.$.@.@...+.%.i.a.p.a.a.a.a.a.a.a.a.a.a.a.a.a.a.p.u.p.a.a.a.a.a.a.a.a.a.z.%.} K ~ @.%.%.$.a s 8.z.a.a.a.a.a.a.a.p.a.m.A.A.j.e o O       ",
"        O o % K $.$.$.$.$...~ $.$.%.y.a.a.a.a.a.a.a.a.a.a.a.a.a.p.z.p.z.z.z.p.z.a.a.z.p.z.z.z.z.z.z.z.z.z.%.+.+.o.S S 8.u.z.z.z.a.a.a.a.a.a.z.M.A.S.O.O o O     ",
"      O O o a #.$.$.$.$.$.H K $.$.7.p.a.a.a.a.a.a.a.a.a.a.a.a.a.z.p.z.p.p.p.z.p.a.z.z.z.p.r.8.+.[ K S S S s s s v S D D J K } @.e.p.a.a.a.a.z.z.N.S.v.e o O     ",
"      o o % ~ $.$.$.$.$.#.s ~ $.$.e.p.a.a.a.a.a.a.a.p.p.a.a.a.a.z.p.z.z.z.p.p.z.p.q.#.~ D m S D K } o.$.%.q.q.q.y.y.y.y.y.y.r.y.y.z.a.a.a.a.a.p.x.A.S.! o O O   ",
"    O O o p @.$.$.$.$.$...w ..$.$.e.p.p.a.a.a.a.a.r.%.a.a.a.a.a.p.z.p.z.p.z.u.7. .~ } +.7.r.u.z.z.z.z.z.z.z.z.z.z.z.z.z.z.z.z.z.z.a.a.a.a.a.a.a.a.v.S.e.% o O   ",
"    o O O G %.$.$.$.$.$.Q 6 ..$.#.e.a.a.a.a.a.a.i.W e.i.i.a.a.a.z.p.z.p.z.p.u.r.u.p.z.z.z.z.p.z.z.z.z.z.z.z.z.z.z.z.z.u.z.z.z.z.a.a.a.a.a.a.a.a.a.z.N.v.w X O   ",
"    O o : } $.$.$.#.$.$.H 6 +.$.$.%.y.a.a.a.a.p.Q K e.$.%.u.a.a.p.z.z.z.z.p.z.z.a.a.p.z.z.p.z.p.z.z.z.z.z.u.z.z.z.z.z.z.z.z.z.u.a.a.a.p.a.a.a.a.a.a.b.M.h X O   ",
"    O o u @.$.$.$.$.$.%.F 4 ..%.$.#.%.p.a.a.a.#.p %.r.@.$.r.a.a.p.z.p.z.p.z.p.z.z.p.z.p.p.z.z.p.z.z.z.u.z.z.z.z.u.z.z.z.z.u.z.z.a.a.a.a.a.a.a.a.a.a.x.M.x X O   ",
"  O o o c $.$.$.$.$.$.$.G % K $.$.$.#.e.p.a.y.s Q a.i.e.e.i.a.a.z.p.z.p.z.p.z.p.z.a.a.z.z.p.z.z.z.z.z.z.z.z.u.z.z.z.z.z.z.z.z.z.a.a.a.a.a.a.a.a.a.a.a.m.x X O   ",
"  O o O D %.#.$.$.$.$.$.[ & % p G o.%.$.e.i.r.s $.a.a.a.a.a.a.a.p.z.p.z.p.z.p.z.a.a.a.p.z.a.z.p.z.z.i.z.i.z.z.z.z.z.z.z.y.q.e.z.a.a.a.a.a.a.z.z.z.z.z.v.h X O   ",
"  O O O H %.$.$.$.$.$.$.$.G 4 o O w K $.$.e.p.@...a.a.a.a.a.a.a.p.z.z.p.z.p.p.z.z.p.a.a.a.a.p.z.i.z.z.z.z.z.z.z.u.z.z.z.%.$.$.e.a.a.a.a.a.p.y.r.q.q.y.x.i X O   ",
"  O O O J %.$.$.$.$.$.#.+.#...s O X % ~ $.$.e.i.%.p.a.a.a.a.a.a.p.i.p.p.z.z.z.z.z.a.a.a.z.z.p.z.z.z.z.z.z.z.z.z.z.z.z.z.q.$.$.r.a.a.z.i.e.7.$.$.$.$.>.w.5 O O   ",
"  O O O H %.$.#.$.$.$.@.~ ~ #.#.s O X p @.#.$.e.y.i.a.a.a.a.i.e.8.7.7.7.9.q.y.u.p.p.z.z.u.p.p.z.z.z.z.z.z.z.z.z.z.y.8.$.@.%.y.z.z.p.r.7.$.$.$.$.$.$.>.X.= O O   ",
"  O O O D %.#.%.$.$.$.#...} #.$.K O o 4 o.$.$.$.r.p.a.a.a.i.%.$.$.$.$.$.$.$.$.%.8.q.r.u.9.+.[ [ [ | | o.| } [ J D S G [ q.z.z.z.u.8.$.$.$.$.#.o.o.+.0.T X o O   ",
"  O O o c $.$.$.#.} { +.$.$.$.$.F O o e +.$.$.$.%.i.a.a.p.%.$.$.$.$.#.o.| +.#.$.$.$.$.%.%.8.%.#.} K J G G H K } $.q.u.z.z.z.z.e.>.$.$.#.~ n u 4 4 w D p . o O   ",
"    O o u @.$.$.+.~ Q ..$.$.$.$.p O o v $.$.$.$.$.e.p.a.y.$.$.$.#.K p 4 : 4 i n K | #.$.$.$.%.8.u.z.z.z.z.z.z.z.z.z.z.z.z.z.9.$.%.#.J u - O X X o O O O . X     ",
"    O o 2 o.$.$.#.} ~ ..$.$.$.Q % O % ~ $.$.$.$.$.%.i.a.e.$.$.@.b # o o O o X o + 2 a H | $.$.$.$.q.z.z.z.z.z.z.z.z.z.z.z.q.$.$.{ a % o O O - ; ; O o O o .     ",
"    O o # W %.$.$.#.@.#.$.$.+.p o O S $.$.$.$.$.$.$.y.a.8.#.%.G % O O - : ; % # O O o O : c ~ @.$.%.9.a.a.a.a.a.a.a.a.a.e.$.@.G : O O O - 2 6 6 6 : O O o .     ",
"    o O o c $.$.$.$.$.$.$.$.D O % m #.$.$.$.#.$.$.$.e.p.8.$.+.p o O & 6 6 6 6 5 : & = o o o % p K @.%.e.a.a.a.a.a.a.a.y.%.o.c # o O % 2 6 6 6 6 6 6 O O o .     ",
"      O o 5 ..$.$.$.$.$.$.+.e o S $.$.$.$.$.$.$.#.$.q.p.e.#...: o O 4 6 6 6 6 6 6 6 6 : % O o O = a } 7.p.a.a.a.a.a.p.>.+.a o o O & 6 6 6 6 6 6 6 6 # O O .     ",
"      O O O H $.$.$.$.$.%.o.4 % } $.#.$.$.$.$.$.$.$.e.p.e.%.{ % o O 5 6 6 6 6 6 6 6 6 6 6 2 & O o o e +.i.a.a.a.a.a.y.%.n O O O : 6 6 6 6 6 6 6 6 5 O O O       ",
"      O o o e +.$.$.$.$.$.@.p % [ ..{ o.$.$.$.$.$.#.r.z.y.%.{ % o O 5 6 6 6 6 6 6 6 6 6 6 6 6 ; O o o J a.a.a.a.a.a.y...< o o : 6 6 6 6 6 6 6 6 6 & O O o       ",
"        O O # D $.$.$.$.#.%.J % m ~ Q { #.$.$.$.$.%.u.a.i.%...5 o O : 6 6 6 6 6 6 6 6 6 6 6 2 : % o X F a.a.i.e.p.a.i.~ % o O 5 6 6 6 6 6 6 6 4 2 % O O o .     ",
"        o O o : ~ $.$.$.$.$.#.m : F { ..#.$.$.$.%.%.p.a.p.e.$.c o O % 6 6 6 6 6 6 6 6 6 2 2 : ; O o # } a.a.a.u.a.a.a.@.; o O & 2 4 5 5 2 2 : : % O O O X .     ",
"          o o o w ..$.$.$.$.$.@.D p Q $.$.$.$.$.$.e.a.a.z.u.%.~ ; o o & 6 5 6 6 3 2 2 ; 2 ; ; O o o p e.a.a.a.a.p.r.r.r.D O O O # % ; ; 1 ; - # O O O o . o     ",
"            O O o p ..$.$.$.$.$.$.~ s K #.$.$.$.%.u.a.a.a.a.e.#.v O O O % 2 : : : : : : & = o o O i 7.a.a.%.D s j e 5 j ..H ; o o O O O O # O o o - 4 o o O     ",
"              o O o w ~ $.$.$.$.$.$.+.K G ..$.$.q.p.a.a.a.a.p.8.+.p O o O % % & & % % O O o o % n e.a.a.%.6 o % O % & O < #.%.G e - O O o O % ; a { J O O O     ",
"                O O o : D +.$.%.$.$.$.$.o.[ [ +.y.a.a.a.a.a.a.p.q.+.z % o o o o O O o o O ; s o.i.a.a.a.H o % e 4 4 6 % o n a.a.y.>.} W J W } %.r.a.K O o O     ",
"                  o O o o w F ..$.$.$.$.$.$.@.#.u.a.a.a.a.a.a.a.p.r.%.~ s 5 % % % % 5 p G @.y.z.a.a.p.p.n X ; 6 6 5 6 2 o a p.a.z.z.z.z.z.z.z.z.z.u.j o O o     ",
"                      O O o O 5 n { @.%.$.$.$.%.p.p.p.a.a.a.a.a.p.p.i.r.q.$...} } +.%.r.p.z.z.p.a.a.a.a.~ O % 5 4 ; 5 % o H a.a.a.a.a.a.a.e.u.a.z.} % O O       ",
"                        O O O O o % u F ..$.$.%.y.a.a.a.a.a.a.a.p.z.z.p.z.p.p.p.p.a.a.z.z.a.a.z.a.a.a.a.r.b O # O O # % j e.a.a.a.a.a.a.a.u.p.z.%.5 o O O       ",
"                              O O o o O * a G ..%.e.u.p.p.a.a.a.z.z.u.e.u.p.z.z.z.a.a.a.a.z.a.p.a.a.a.a.a.u...G H ....$.i.a.a.a.u.e.p.p.y.p.z.>.w o O O         ",
"                                  O O o o X % : p G ..%.8.e.y.p.p.z.e.$.8.p.z.p.a.a.a.a.a.p.a.a.a.a.a.a.a.a.a.a.a.a.a.a.a.a.a.a.p.u.p.u.y.p.@.5 O o O           ",
"                                        O O O o o # ; i S ~ #.%.r.p.i.r.u.a.a.a.a.a.a.a.a.a.a.a.a.a.a.a.a.a.a.a.a.a.a.a.a.a.a.a.a.a.a.a.z.q.w X O O             ",
"                                              O o O o o O % w J $.u.a.a.a.a.a.a.a.a.a.a.a.a.a.a.a.a.a.a.a.a.a.a.a.a.a.a.a.a.a.a.a.a.a.a.z.#.% O O               ",
"                                                    o O o O o % ~ e.a.a.p.a.p.a.a.a.a.a.a.a.a.a.a.a.a.a.a.a.p.u.i.a.a.a.a.a.a.a.u.a.a.a.z.} O O O               ",
"                                                    O o O o O o s %.a.a.x.%.@.p.a.a.a.a.a.a.u.r.a.a.a.a.a.a.a...>.a.a.a.a.a.a.r.~ p.a.a.a.D O O O               ",
"                                                  O O o o o o o : ..u.u.r.D m p.a.a.a.a.p.a.{ ..a.a.a.a.a.a.i.j W a.a.a.a.a.z.$.w 8.z.z.>.5 o O                 ",
"                                                O o o > r q = o O u ..%.+.w e e.p.a.a.a.i.e.p ~ z.a.a.a.a.p.>.w i i.a.a.a.i.$.j O j { ~ u O o O                 ",
"                                              O o = f U U L N 7 O O 5 s e % % w m #.y.y.$.J : s #.e.p.a.r...c ; % n ~ >.%.m % O O O O O O O O                   ",
"                                            O O # y B B Y ` ] M O O O O X X X X O < b n 5 % O X % u K ~ n ; o o O o % w w O O O O O O o O o                     ",
"                                            O o 0 Y Y I I I ( Y % O O % 5 e % o O X o X O O = % O o O % O o o o o O o X X O O O                                 ",
"                                          # O , B L I _ &.;._ L % O O % 4 i 5 O O O O O O O < 8 = o O O O o o % ; % O O < % X O                                 ",
"                                        O O O t B L Y / / / ` / % o % : - O O o O o X X o O O O o o O O O ; s [ +.m O o e w X O                                 ",
"                                        O O O O = 8 f ( _ _ _ f O O : n K G n s p p p s p % O - u % O O : e a u 5 - O O 4 D % O                                 ",
"                                          O O o O O O > > > ; ; O O X % : < < 4 5 w u p u = X e %.s o O O O = % ; w : o % ..s X O O O                           ",
"                                        O O O 4 s s w w - o o O O O O o o o % ; ; ; % % % % o : ~ a X % e a v D G F w O X D @.n e # o O                         ",
"                                      O O O ; G K 5 : ..} ; O O = > = O O O % 4 i s s s p : O O % O O O # = % # # O O O o # e ~ J - o O O                       ",
"                                      O O % O % O X O b $.e X o O = > > = O O O O O O O O O O O 5 i % O o = = = = = 7 = o O O # O O ; O O                       ",
"                                    O o w Q v p e e # o % O % 4 O O , 8 7 , , > - > = - = = O - H  .< o - 7 7 7 , 7 0 ; O O O - a m p O O                       ",
"                                    o O F 8.7.%.%.%.J p 5 5 H ~ - o ; 8 8 8 7 7 7 7 7 7 8 = O O ; ; O O = > > > % = O % O O O O 5 ; O O O                       ",
"                                    O O H 8.7.7.7.7.8.e.8.@.G G - O O - = > > > - > > > - O O O O O O O O O + $ & & * 3 % # a w < 6 ; O O                       ",
"                                    O o e #.8.7.7.7.8.y.e.a.#.w O O + + # # + @ + # $ + # $ $ # & & & & * * * * * 1 * & # # o.y.%.J ; O O                       ",
"                                      O # s @.8.8.%...y...K 7.K O O + @ * 1 * @ & * * * * * * * * * * * * & $ $ @ % < q O O z b w % O O                         ",
"                                      o o O e W %.7.K J e.W w 4 O o o + + @ @ $ $ $ $ @ $ $ @ $ @ O # % - : q f Z ] g.5.- o o o O O O                           ",
"                                          O o # w m K 5 j +.p o O q g t t d y t r r r t y y g k N A =.2.-.-.;.3.6.d.Z.k.< O o                                   ",
"                                            o O X X = # O % O O t P Y Y Y *.1.1.<.<.<.<.<.6.s.2.3.3.d.d.3.3.3.1.s.d.C.l.y o O                                   ",
"                                                o o % > - - < k I Y I P R &.3.3.1.<.1.3.1.1.3.3.1.3.3.3.1.1.*.( ) -.f.:.; O                                     ",
"                                                o o < y < - - 0 l L P Z M k l P ] ;.1.3.<.-.) l y N P ) ( l ; O % ; < , O o                                     ",
"                                                  O O O o o o o O ; < - ; 4 4 O - q N U Z q O O o o O # - ; c m O O o o O                                       ",
"                                                          O o o O o o ; v K z O o o o O o o o O o O O O 5 v H a O O O O O                                       ",
"                                                          O O O O O o O O O O O # $ o o o     O O O O O O O o o O $ & # o o                                     ",
"                                                          O O O + + + + $ # $ $ & * # O O     O O + + o O + # @ $ & & O O O                                     ",
"                                                          O O O O O O o O # # O O O o O O     O O o O o O O + O O O O O O O                                     ",
"                                                            o O O o O O O o O O O O O o O       O O O O O O O O O o O                                           "
};
