/* XPM */
static char *w_7_resized[] = {
/* columns rows colors chars-per-pixel */
"80 80 153 2 ",
"   c None",
".  c #171614",
"X  c #181715",
"o  c #1A1917",
"O  c #1B1A18",
"+  c #231A16",
"@  c #221E1B",
"#  c #2A1E19",
"$  c #23211E",
"%  c #2D211C",
"&  c #32241D",
"*  c #1F2121",
"=  c #252422",
"-  c #292623",
";  c #2D2A25",
":  c #232728",
">  c #252A2D",
",  c #2D2D2C",
"<  c #312C27",
"1  c #3C2B23",
"2  c #322E29",
"3  c #35322C",
"4  c #3A342D",
"5  c #272D30",
"6  c #292E31",
"7  c #293034",
"8  c #323334",
"9  c #3A3631",
"0  c #3E3A33",
"q  c #35393C",
"w  c #3A3B3D",
"e  c #423D36",
"r  c #433F39",
"t  c #46413A",
"y  c #4A453D",
"u  c #3D3F42",
"i  c #3E4043",
"p  c #444445",
"a  c #4A4742",
"s  c #4E4941",
"d  c #42454A",
"f  c #46494E",
"g  c #48494C",
"h  c #534D44",
"j  c #514E48",
"k  c #575047",
"l  c #5A5147",
"z  c #57534C",
"x  c #5B544A",
"c  c #5F584E",
"v  c #464B51",
"b  c #4A4D52",
"n  c #4D5155",
"m  c #4F535A",
"M  c #5D5953",
"N  c #52565D",
"B  c #55595E",
"V  c #60594F",
"C  c #645D52",
"Z  c #6A6256",
"A  c #65615A",
"S  c #6E6559",
"D  c #70675B",
"F  c #736A5D",
"G  c #535A62",
"H  c #5A5E64",
"J  c #5D626B",
"K  c #616364",
"L  c #6C6760",
"P  c #6F6A63",
"I  c #61666E",
"U  c #63686F",
"Y  c #766E61",
"T  c #786F61",
"R  c #7C7264",
"E  c #77726A",
"W  c #7A756D",
"Q  c #606770",
"!  c #646B73",
"~  c #696E77",
"^  c #6F7173",
"/  c #6B717B",
"(  c #70767F",
")  c #807667",
"_  c #817768",
"`  c #847A6B",
"'  c #897E6E",
"]  c #847E74",
"[  c #8A7F70",
"{  c #8A806F",
"}  c #8D8272",
"|  c #918675",
" . c #948877",
".. c #968A79",
"X. c #998D7B",
"o. c #9D917E",
"O. c #6E7680",
"+. c #717680",
"@. c #737983",
"#. c #767D88",
"$. c #7B818C",
"%. c #918C82",
"&. c #9E9281",
"*. c #9B948B",
"=. c #808792",
"-. c #838A95",
";. c #868E9A",
":. c #888F9B",
">. c #8B929D",
",. c #999B9F",
"<. c #A29583",
"1. c #A69985",
"2. c #A89B87",
"3. c #A3998B",
"4. c #AB9D8A",
"5. c #A39C91",
"6. c #AEA18D",
"7. c #B1A38F",
"8. c #A9A297",
"9. c #AFA699",
"0. c #B4A691",
"q. c #B7A893",
"w. c #BAAB96",
"e. c #BDAE99",
"r. c #BFB09A",
"t. c #8E95A0",
"y. c #9096A1",
"u. c #949AA4",
"i. c #9FA2A6",
"p. c #9CA1A9",
"a. c #A1A6AF",
"s. c #B7AFA3",
"d. c #BAB2A6",
"f. c #BDB6A9",
"g. c #ADB0B5",
"h. c #B5B9BF",
"j. c #C0B19B",
"k. c #C4B6A2",
"l. c #C6B9A5",
"z. c #C8BBA7",
"x. c #C2BAAE",
"c. c #C9BCA9",
"v. c #C5BDB0",
"b. c #CCC0AE",
"n. c #CBC2B5",
"m. c #D0C5B4",
"M. c #D0C7BA",
"N. c #D5CBBB",
"B. c #BFC3C9",
"V. c #C3C7CE",
"C. c #D7CEC0",
"Z. c #D8CFC1",
"A. c #DAD1C3",
/* pixels */
"                                                                                                                                                                ",
"                                                              O O O O O O o O o o o O O o O o o O O o O                                                         ",
"                                                  O O O O O o o o o O O O $ = - - - - % = $ O o X X o o o o o O                                                 ",
"                                          O O O O o o O @ $ 2 0 y k C S R R ` ` ' ` { ' ` ' ' ` Y C k 0 , O o o o O O O                                         ",
"                                    O O O O X @ $ 4 y c F ` {  .X.X.X.o.X.X.X.X.o.1.4.7.w.j.j.j.r.d.r.r.9.*.E k 3 O o X o O O                                   ",
"                              O O O O O @ 3 y Z ` | ..o.o.o.o.X.X.X.X.X.X.o.1.6.q.w.j.j.j.j.j.j.j.j.r.j.j.z.n.n.f.*.L 0 $ o o O O O                             ",
"                          o O o X O 3 k T | X.X.X...o.......o.....X.o.<.6.q.r.r.r.r.r.r.r.r.j.q.7.w.j.r.r.r.r.k.b.N.A.n.5.L 9 O X O o O                         ",
"                      O O O o $ t D } X.X.X.X.X...o...o...o...o.o.4.0.r.j.r.r.r.r.r.r.r.r.j.w.o.o.<.w.j.r.r.r.r.r.j.z.M.A.Z.x.%.h $ o o O O                     ",
"                    O O o O t R  .X.X.X.X.X.X.X.X.X.X.o.X.o.1.6.w.r.j.r.r.r.r.r.r.r.r.r.r.j.0.o...o.w.j.j.j.j.j.r.r.r.r.c.M.A.A.M.5.z O O O O                   ",
"                  O O o 3 S ..X.X. .X.X.X.X.X.X.X.X.X.o.1.q.r.r.j.r.r.r.r.r.r.r.r.r.r.r.r.r.j.7.4.7.j.j.j.j.7.<.0.j.r.r.r.r.b.N.A.A.M.*.8 O o O                 ",
"                O O O t ' X.X.X.| {  .X.X.X.X.X.X.o.6.q.r.r.r.r.r.r.r.r.r.r.r.r.r.r.r.r.r.r.j.j.j.q.X.' | R x l h S &.w.r.r.r.k.m.A.A.A.d.j O o O               ",
"              O o O s | X.X.X.X.{ T { X.X.X.X.o.6.w.r.r.r.r.r.r.r.r.r.r.r.r.r.r.r.r.r.r.r.r.j.e.| l e 4 4 3 e ` <.R C T 7.r.r.r.j.c.N.A.A.x.M O o O             ",
"            O o o t | X.X.X.X. .| {  .X.o.o.6.w.r.r.r.r.r.r.r.r.r.r.r.r.w.r.r.r.r.r.r.r.r.r.j.{ e 4 4 4 4 4 1 Z r.j.w.1.7.r.r.r.r.r.z.N.A.A.v.z o O O           ",
"          O O o 3 ` X.X.X.X. .) R { X.X.1.q.r.r.r.r.r.r.r.r.r.r.r.r.j.0.o.4.e.r.r.r.r.r.r.r.j.R 1 4 4 4 4 4 x o.j.j.6.X.1.e.r.r.r.r.e.k.M.A.A.f.t X O O         ",
"          O o $ D X.X.X.X.X.| R T { o.6.w.r.r.r.r.r.r.r.r.r.r.r.r.r.r.0.o.1.r.r.r.r.r.r.r.r.r.6.Z e 4 4 e S 2.e.<.} 4.6.0.r.r.r.r.r.r.r.k.N.A.A.3.: o O         ",
"        o o o h X.X.X.X.X.X. .' ` | 6.r.r.r.r.r.r.r.r.r.r.r.r.r.r.r.r.r.e.r.r.r.r.r.r.r.r.r.r.r.w.<.} { <.<.o.o.h 0 } j.j.r.r.r.r.r.r.r.r.k.N.A.Z.P o O O       ",
"        O o 2 ' X.X.X.X.X.R { o.X.o.w.j.r.r.r.r.r.r.r.r.r.r.r.r.r.r.r.r.r.r.r.r.r.j.r.j.j.j.j.j.j.w.7.7.o.` R R S c } <.1.6.0.e.r.r.r.r.r.r.l.N.A.d.4 o O       ",
"      O O O C X.X.X.X.X. .V | X.o.7.r.r.r.r.r.r.r.r.r.r.r.r.r.r.r.r.r.r.r.r.r.r.j.j.j.w.6.X.` D V l h k l x c C S D F F R ` | <.w.r.r.r.r.r.r.l.N.A.P o O o     ",
"      o o 3 { X.X.X.X.X.` y ..X.o.q.j.r.r.r.r.r.r.r.w.r.r.r.r.r.r.r.r.r.r.r.r.e.6...R C V Z F `  .<.6.7.q.e.e.r.j.j.j.j.r.r.e.e.e.r.r.r.r.r.r.r.n.A.8.= o O     ",
"    O O o x X.X...X.X.o.Z y X.X.o.q.j.r.r.r.r.r.r.&.q.r.r.r.r.r.e.r.r.r.r.e.4.} ` ' X.4.0.e.j.j.j.j.j.j.j.r.r.r.r.r.r.r.r.r.r.r.r.r.r.r.r.r.r.r.j.M.n.t o O     ",
"    O o = R o.X.X...X.X.x y X.X.o.0.r.r.r.r.r.j.o.R w.q.w.r.r.r.r.r.r.r.r.e.0.w.e.j.j.j.r.r.r.r.j.j.r.r.r.r.r.r.r.r.r.r.r.r.r.r.r.r.r.r.r.r.r.r.r.c.N.M o O o   ",
"    O o 0  .X.X.X.X.X.X.y k X.X.X.o.r.r.r.r.j.6.k o.6.X.1.r.r.r.r.r.r.r.r.r.r.r.r.r.r.r.r.r.r.r.j.j.r.r.r.r.r.r.r.r.r.r.r.r.r.r.r.r.r.r.r.r.r.r.j.j.N.E o O O   ",
"  O O o k X.X.X.X.X.o...t y o...X.X.6.r.r.r.w.C c w.<.X.o.r.r.r.r.r.r.r.r.r.r.r.r.r.r.r.r.r.r.r.r.r.r.r.r.r.r.r.r.r.r.r.r.r.r.r.r.r.r.r.r.r.r.r.j.r.m.W o O o   ",
"  o o O S X.X.X.X.X...X.y 4 { X.X.X.o.7.r.j...t 1.r.0.1.0.r.r.r.r.r.r.r.r.r.r.r.r.r.r.r.r.r.r.r.r.r.r.r.r.r.r.r.r.r.r.r.e.e.r.r.r.r.r.r.r.r.r.j.r.r.b.W o o O   ",
"  O o $ R X.X.X.X.X.X.X.C $ 3 l R X.o.o.7.r. .k q.r.r.r.r.r.r.r.r.r.r.r.r.r.e.j.r.r.r.r.r.r.r.r.r.r.r.r.r.r.r.r.r.r.r.w.<.<.7.r.r.r.r.r.r.r.e.w.e.e.c.E o O O   ",
"  O o = _ X.X.X.X.X.X.X.| y $ . $ y { X.o.7.w.R 1.r.r.r.r.r.r.r.r.r.j.e.r.r.r.r.r.r.r.r.r.r.r.r.r.r.r.r.r.r.r.r.r.r.r.6...X.<.e.r.r.r.r.q.4.1.o.&.&.e.C X O o   ",
"  O o = ` X.X.X.X.X.X... . .T 4 o o 0 { X.o.0.7.&.r.r.r.r.r.r.w.e.w.w.e.r.j.r.j.r.r.j.j.j.j.j.j.r.r.r.r.r.r.r.r.r.j.j.0.o.o.4.r.r.r.0.4.o.X.X.X...X.3.a X O     ",
"  O O $ ) X.X.X.X.X.X.} R ` X.` 3 o o V X.X.o.0.0.r.r.r.r.r.0.1.&.o.&.<.1.4.7.q.e.e.j.e.7.7.q.e.r.j.r.r.r.e.w.0.1.| ` ` o.w.r.r.e.6.o.X.X.X.X.o.X.&.*.2 o o     ",
"  O O $ T X.X.X.X.X.o. .` { ..o.k o X y X.X...o.q.r.r.r.r.6.X.X...X.X.X.X.X.X.o.<.2.6.7.o.` F Z Z Z S Z Z c x k C T ..0.r.r.r.0.<.X.X.X.| ` S C Z ` ] O X o     ",
"  o o O Z X.X.X...` ` ......X.X.y o X k X.X.X.X.1.r.r.r.0.o.X...X.X.} _ ) ' | X.X.X.X.X.<.2.4.1.&.| } } } X.<.6.w.j.j.r.r.r.7.o.X.X.' V 0 $ O o O = 8 O X o     ",
"  O O o h X.X.X.} R T { o.X.X.{ 3 o @ S X.X.X.X.o.7.r.r.6.X.X.X.' k 2 = = - 4 h Z _  .X.X.X.o.1.q.j.r.r.j.j.r.r.r.r.r.r.r.4.o.X.| V , O o o O @ O o o X . X     ",
"    O o 9  .X.X. ._ R | ..X.o.Z @ o 3 { X.X.X.X.X.<.r.w.o.X.X.{ 4 o o O o o o X O - 0 V ` ..X.X.o.8.r.r.r.r.r.r.r.r.r.e.6.o.X.R e O o o @ - 2 4 ; O O o X       ",
"    O O $ ` o.X.X. . .X.X.X.{ 3 X $ F o.X.X.X.X.X.o.w.w.o.X...y o O @ ; ; ; $ $ O O o o - y F | X.X.6.r.r.r.r.r.r.r.r.0.o. .Z - o o O ; 3 4 4 4 4 $ O O X       ",
"    o O @ V X.X.X.X.X.X.X.X.k o ; Z X.X.X.X.X.X.X.o.q.r.&.X.` - O O < 4 4 4 4 4 2 ; $ O o . @ 9 Z | o.q.r.r.r.r.r.r.w.&.| k @ o o % 3 4 4 4 4 4 4 % O O X       ",
"    O O o 0 | X.X.X.X.X.X.} 2 @ S X.X.X...X...X.X.X.7.w.1.o.F @ o O 4 4 4 4 4 4 4 4 1 < $ $ . o O t { 6.r.r.r.r.r.r.6. .x O o O - 4 4 4 4 4 4 4 4 ; O O o       ",
"      O o @ Y o.X.X.X.X.X.` $ 2 { X. .X.X.X.X.X.X.X.0.r.1.X.Z O O $ 4 4 4 4 4 4 4 4 4 4 4 3 % @ O o t &.r.r.r.r.r.r.6.T - o O - 4 4 4 4 4 4 4 4 4 $ o O X       ",
"      O O o t  .X.X.X.X.o.} 4 ; { { R | X.X.X.X.X.o.q.r.6.o.D O O $ 4 4 4 4 4 4 4 4 4 4 4 4 3 = O o $ ..j.r.w.w.r.w.6.k o O $ 3 4 4 4 4 4 4 3 3 < @ o O .       ",
"        O O O Z X.X.X.X...o.Z $ C R T { ..X.X.X...o.w.r.q.o.` - . O < 4 4 4 4 4 4 4 4 4 4 2 < - O O * ..j.r.0.6.r.r.6.k o o $ 3 4 3 4 4 4 4 2 ; $ o O O .       ",
"        O O o 2 ` X.X.X.o.....x 3 Z R { X.X.X.X.X.1.r.r.r.1. .y O O $ 4 4 4 4 4 4 4 4 2 < ; - $ O X 0 6.j.r.j.r.r.j.r.R @ o @ $ - ; < < ; - - = O O O o X       ",
"          O o o 0 { X.......o...V t R X.X.X.X.X.o.0.r.r.r.q.o.T $ . O - 3 3 1 2 < < ; ; - % @ O o - { r.j.w.6.o.X.{ ` X.Z $ X O O @ @ $ @ # O O O O O . o       ",
"            O O O e { o...o.o...X.R k D  .X.X...&.w.r.r.r.r.6...x O O O $ ; ; ; & - - % @ O O X ; ` r.r.6.x 2 $ $ @ @ 2 R { t $ o o o o o o X O 2 C 4 X O       ",
"              O O O 9 R o.......X.X.| T Z {  .X.6.r.r.r.r.r.r.1.| y O O O O $ $ $ $ O O O o @ a X.r.r.r.Z O $ < $ 2 < O ; o.q.X.S h 0 3 4 0 h Y &.6.r X O       ",
"                O O o ; c { o.o.X.X.X.X. .) )  .0.r.r.r.r.r.r.r.6. .V ; o . . O O X O O - a ` 0.r.r.r.0.9 O < 3 3 3 4 $ O R j.j.j.e.0.6.6.0.e.r.r.4.3 o O       ",
"                  O O O O 3 V { X.X.X.X.X.X.X.X.w.r.r.r.r.r.r.r.r.0.1.{ Z y 4 3 4 e k F X.0.r.r.r.r.r.0.t X 2 4 3 3 4 $ O R j.j.r.j.j.r.e.0.e.r.r.T O O O       ",
"                      O O o O 2 y T  .X.X.X.X.o.r.r.r.r.r.r.r.r.r.r.e.q.7.4.o.o.&.6.0.r.r.r.r.r.r.r.r.r.R O @ ; $ @ $ O 0 6.r.r.e.r.r.r.w.7.e.j.X., o O         ",
"                          O o O O $ 4 x R  .o.o.6.w.r.r.r.r.r.r.r.r.j.j.j.j.r.j.r.r.r.r.r.r.r.r.r.r.r.r.q.Y 3 - 2 0 e c &.r.r.r.w.w.r.e.e.r.j.1.0 O o O         ",
"                              O O O o o $ 0 c R ..6.0.w.w.r.r.r.r.r.7.1.7.r.r.r.r.r.r.r.r.r.r.r.r.r.r.r.r.r.6.&.6.0.q.w.r.r.r.r.0.7.r.0.7.r.<.0 o O O           ",
"                                    O O O O O $ 4 k T | o.1.6.0.e.r.6...4.r.r.r.r.r.r.r.r.r.r.r.r.r.r.r.r.r.j.r.r.r.r.r.r.r.r.r.r.r.r.e.e.1.9 o o O             ",
"                                          O O O O o @ 2 y Z ` o.6.e.e.q.e.r.r.r.r.r.r.r.r.r.r.r.r.r.r.r.r.r.r.r.r.r.r.r.r.r.r.r.r.r.r.r.j.T X O O               ",
"                                                O O o o X O - x | 7.r.r.e.r.r.r.r.r.r.r.r.r.r.e.r.r.r.r.r.r.r.r.r.r.r.r.r.r.r.r.r.r.r.r.r.Z X O O               ",
"                                                    o O O O X * S 6.r.r.r.e.w.e.r.r.r.r.r.r.e.e.r.r.r.r.r.r.r.o.q.r.r.r.r.r.r.7.<.r.r.r.e.h X O O               ",
"                                                    o O o O o X r o.r.r.r.| ` r.r.r.r.r.r.r.6.o.r.r.r.r.r.r.w.c o.r.r.r.r.r.r.} c r.r.r.<.3 O O                 ",
"                                                  O o X O O O O $ D 6.6.6.y k r.r.e.r.r.r.w.V { r.r.r.r.r.r.6.3 S r.r.e.r.r.0.V - } 6.<.h O O O                 ",
"                                                O O = i n f 5 O o ; D | ) 2 2 { 6.w.r.e.0.X.4 T r.r.r.r.e.6.W < 9 o.7.w.w.{ y $ o = 4 3 O O o                   ",
"                                              O O * v G G J Q i O o $ 3 - O o $ 3 S o.o.F y * 3 x ` 6.6.} y ; O O - y S C $ X O O o o o O O                     ",
"                                            O O = n J J ~ / Q n * O o o O O o o o o , 3 @ X X o o @ 0 y < o O O O O O O O o O O     O O                         ",
"                                            O O q G G G Q ~ O.Q $ o O $ 9 y ; O o o o o o @ - : O o o o o O O o X o O O @ O O O                                 ",
"                                          O O 9 Q Q Q / / ! Q m $ o o o @ - - O o o o O O O : : * O O O o O - y c 9 O O y < O O                                 ",
"                                        O O O > q i G Q / O.#.K * o , y t 4 ; - $ * @ $ $ O o o O O O O $ e S R Y t O X t h X O                                 ",
"                                          O O O o * q n G i v q o o $ r V V x k h k x C x = o 9 F 3 O O * - $ O X X O o 3 { 2 X O O                             ",
"                                          O O o $ > $ o o O * * o o O o O O O O O * * $ $ O o 0 o.y O O ; 3 0 y x C 3 o *  .` 2 $ O O                           ",
"                                        @ o = x Y k e Z r O o O * * * O O O = 9 e r e 0 0 - O $ y 2 O $ 3 0 t t t 9 * O O 9 A  .F $ O O O                       ",
"                                      o o o $ y r O O ` o.9 o O * * * * O O O = ; 3 3 3 2 * O o O O O O O O O O o O * O O o o 3 , o O O O                       ",
"                                    O o - r - O O O o 9 V : o o o * > > : * * O O O O O O o o $ Z R $ o * > * > * > q = o O O O 2 t h O O                       ",
"                                    O o k o.} R F D 4 O o O e s O O > 6 6 6 6 > > > > > > * o $ j x $ o : 6 5 5 > : : O O O X = y t : o O                       ",
"                                    O O F 1.<.1.1.1...R Z c ) ` $ O : > 5 6 6 6 6 6 5 5 > * o o O o o o O * O O O # % % @ $ 3 @ O O @ O O O                     ",
"                                    O O c 1.1.<.<.<.1.w.e.4.C 0 O O + O O @ O O @ * O * @ + O + + + # # # # % - & & 1 1 @ - .. .` T 9 X O                       ",
"                                    O o - R <.<.<.<.<.0.| 6.6.y o O + # - & # # # # & # & - # & - & 1 % 1 & & % % $ # @ O $ ` } S 0 O O                         ",
"                                      O o ; D o.1.o.F 1.X.h S h o O + + # 1 % # % 1 % % 1 % % & % # # # + + @ = 2 p ^ A O O = O o o O                           ",
"                                        O o $ e D  .F y X...3 O O = = * @ @ @ @ @ O @ # @ # $ = - 6 i z b G ! +.$.u.V.u.= o o O                                 ",
"                                          O o o O 2 r = ; s - O - b G G N H ! ! I I I Q Q / @.+.#.=.u.a.:.;.;.;.u.u.B.g.8 o                                     ",
"                                              O O o o O O O * 8 m J J J J @.>.>.;.;.;.-.;.>.y.;.;.;.;.;.;.;.;.#.=.>.h.a., o                                     ",
"                                                O o - w 8 6 8 f H J H H H Q +.#.-.=.-.:.=.=.=./ U +.#.-.#.~ f 8 u g K a O o                                     ",
"                                                  O @ : * O O @ , w f u 6 : = 2 p H ( #.+.H w = @ $ , q q = - 2 O X X O O                                       ",
"                                                    o o   O O O O O O $ y Z x O X O = 7 , O o o o o O O 3 V | S O O O O O                                       ",
"                                                          o O O O O O = e y 3 O O O O o o   O o O O o + ; 0 9 = O O + O O                                       ",
"                                                          O O O + o o X o o O O # % @ O O     O O + O O o o o O @ % % + O O                                     ",
"                                                          O O O O O + + # @ # # % # O O O     O o O O O O + @ # # @ @ O O O                                     ",
"                                                          O o O O O O o O O O O O O O O O     O O O O O O O O O O O O O O                                       ",
"                                                                      O O O o O O                                                                               "
};
