/* XPM */
static char *w_8_resized[] = {
/* columns rows colors chars-per-pixel */
"80 80 161 2 ",
"   c None",
".  c #171614",
"X  c #181715",
"o  c #1A1917",
"O  c #1C1A18",
"+  c #211A16",
"@  c #221E1B",
"#  c #291E19",
"$  c #23211E",
"%  c #2D211C",
"&  c #32241D",
"*  c #1D1F20",
"=  c #1E2122",
"-  c #252422",
";  c #292623",
":  c #2D2925",
">  c #222729",
",  c #252A2D",
"<  c #2D2C2A",
"1  c #342721",
"2  c #312C27",
"3  c #3B2A22",
"4  c #322E29",
"5  c #35312C",
"6  c #3A342D",
"7  c #272D30",
"8  c #292E32",
"9  c #2E3032",
"0  c #323335",
"q  c #3A3631",
"w  c #3D3933",
"e  c #343739",
"r  c #393A3D",
"t  c #423D36",
"y  c #433F38",
"u  c #45413A",
"i  c #4A453D",
"p  c #4D483F",
"a  c #3A3D40",
"s  c #3E4145",
"d  c #424445",
"f  c #4E4941",
"g  c #444649",
"h  c #44494E",
"j  c #4E4F4F",
"k  c #534D44",
"l  c #514E49",
"z  c #565047",
"x  c #575249",
"c  c #5B544A",
"v  c #5F584E",
"b  c #474C53",
"n  c #494D52",
"m  c #4D5156",
"M  c #4E5359",
"N  c #555657",
"B  c #595650",
"V  c #5C5852",
"C  c #53565C",
"Z  c #585A5C",
"A  c #60594E",
"S  c #645D52",
"D  c #685F53",
"F  c #6A6256",
"G  c #6D6559",
"H  c #70675B",
"J  c #726A5D",
"K  c #545A62",
"L  c #5A5E65",
"P  c #595F68",
"I  c #5D636B",
"U  c #5F6770",
"Y  c #6E6962",
"T  c #61656D",
"R  c #696A6C",
"E  c #776E60",
"W  c #786F61",
"Q  c #7C7364",
"!  c #77726A",
"~  c #7B766E",
"^  c #646A72",
"/  c #686D76",
"(  c #686F79",
")  c #6B727C",
"_  c #7E7971",
"`  c #70767F",
"'  c #707274",
"]  c #807667",
"[  c #817768",
"{  c #847A6B",
"}  c #897E6E",
"|  c #817C73",
" . c #8A7F70",
".. c #8A806F",
"X. c #8D8272",
"o. c #868178",
"O. c #918675",
"+. c #948877",
"@. c #968A79",
"#. c #998D7B",
"$. c #9D917E",
"%. c #717780",
"&. c #747A84",
"*. c #777D88",
"=. c #797F8A",
"-. c #7B828D",
";. c #7E8590",
":. c #86888B",
">. c #848689",
",. c #908A81",
"<. c #969086",
"1. c #9F9380",
"2. c #9C958A",
"3. c #808793",
"4. c #838A96",
"5. c #868E9A",
"6. c #898F99",
"7. c #8B929D",
"8. c #A29683",
"9. c #A69985",
"0. c #A89B87",
"q. c #A2988A",
"w. c #AB9D89",
"e. c #AEA18C",
"r. c #B1A38F",
"t. c #ACA499",
"y. c #ACA394",
"u. c #B4A691",
"i. c #B7A893",
"p. c #BAAB96",
"a. c #B6AA99",
"s. c #BDAE99",
"d. c #BFB09A",
"f. c #9A9FAA",
"g. c #9298A3",
"h. c #9BA0A9",
"j. c #B7AFA3",
"k. c #B7B0A4",
"l. c #B9B1A5",
"z. c #BDB5A9",
"x. c #A2A7B0",
"c. c #A8AEB6",
"v. c #A3A9B2",
"b. c #C0B19B",
"n. c #C4B7A2",
"m. c #C6B8A4",
"M. c #C8BBA7",
"N. c #CABDAA",
"B. c #C1B9AC",
"V. c #C6BDB0",
"C. c #CCC0AE",
"Z. c #CDC3B5",
"A. c #D1C6B5",
"S. c #D5CBBD",
"D. c #D8CEBF",
"F. c #B7BAC0",
"G. c #C4C8CE",
"H. c #D7CEC0",
"J. c #D8CFC2",
"K. c #DAD1C3",
"L. c #C6CAD0",
/* pixels */
"                                                                                                                                                                ",
"                                                                  O O O O O X O O O X O O O O O O X                                                             ",
"                                                      O O O O O O X X X O X O O O O O O O O X X O X X O O O O O                                                 ",
"                                            O O X O O O X O O $ : q u f c A F H J J J J G F G S x i q < O O X O O O O O                                         ",
"                                      O O O o . O $ ; q f A J ] ..+.@.#.#.#.$.#.$.$.0.e.u.s.b.d.s.p.a.y.2._ V w - O X O O O O                                   ",
"                                O O O O O O & t v J } +.#.$.#.$.#.#.#.@.#.#.$.0.r.p.s.b.b.d.d.d.d.d.b.b.m.N.Z.V.t.| x 4 O X X O O                               ",
"                            O O O O O : p G ..+.#.$.@.#.#.#.@.#.#.#.#.$.0.r.p.d.d.d.d.d.d.d.b.s.p.s.d.d.d.d.b.m.Z.K.S.l.,.c < O o O O X                         ",
"                        O O O X $ t F ..#.#.#.#.#.#.#.#.#.#.#.#.#.8.e.p.d.d.d.d.d.d.d.d.d.b.u.8.$.0.s.d.d.d.d.d.s.n.Z.S.K.S.j.| u @ X O O                       ",
"                      O O X $ i W +.#.#.#.#.#.#.#.#.#.#.@.#.$.0.u.s.d.d.d.d.d.d.d.d.d.d.d.b.r.#.@.$.b.b.b.b.b.b.d.d.d.b.N.S.K.K.Z.<.f O O O O                   ",
"                  O O O O w J @.#.#.#.#.#.#.#.#.#.#.@.$.$.e.i.d.d.d.d.d.d.d.d.d.d.d.d.d.d.d.d.e.$.e.b.b.b.b.i.w.p.b.b.d.b.n.Z.S.K.K.Z.o.5 X X O                 ",
"                O O X $ c X.$.#.#.+.#.#.#.#.#.#.@.$.$.u.s.d.d.d.d.d.d.d.d.d.d.d.d.d.d.d.d.d.d.d.b.b.$.#.#.{ A k x Q 8.p.b.s.s.n.A.K.K.K.t.d X O O               ",
"              O X O ; F #.#.#.#...W ..#.#.#.#.#.$.e.s.d.d.d.d.d.d.d.d.d.d.d.d.d.d.d.d.d.d.d.d.s.#.D t t t 6 i X.@.J S [ u.b.s.b.l.N.H.K.K.z.x O X O             ",
"              O X $ F #.#.#.#.#.O.Q ..#.#.#.$.u.d.b.d.d.d.d.d.d.d.d.d.d.d.d.d.d.d.d.d.d.d.d.d.+.y 6 6 6 6 6 3 F b.b.i.8.u.b.d.s.d.d.M.S.K.K.V.f O O O           ",
"            O X O c #.#.#.#.@.} { O.#.#.$.e.s.d.b.d.d.d.d.d.d.d.d.d.d.p.0.e.d.d.d.d.d.d.d.d.d.Q 3 6 6 6 6 6 k $.b.b.r.#.0.s.b.b.d.d.d.M.S.J.K.k.w O O O         ",
"          O O X u O.#.#.#.#.+.Q W ..#.$.r.d.d.d.d.d.d.d.d.d.d.d.d.d.d.r.$.8.p.d.d.d.d.d.d.d.d.0.c t 6 6 t D 9.b.0.+.w.w.r.s.s.b.d.d.d.s.n.S.H.K.2.- X O         ",
"          O O ; Q $.#.#.#.#.@.{ Q ..$.i.d.d.d.d.d.d.d.d.d.d.d.d.d.d.d.d.u.p.d.d.d.d.d.d.d.d.d.d.r.+.] ] #.$.$.$.p t +.b.b.b.b.s.d.d.d.d.s.n.S.K.H.Y X O O       ",
"        O O O c #.#.#.#.#.O.O.+.+.#.r.b.b.s.b.s.d.d.d.d.d.d.d.d.s.b.s.b.b.b.b.s.s.b.s.s.s.b.b.b.b.b.b.r.w.} ] [ G A X.$.w.r.i.p.d.d.d.d.d.d.m.S.K.l.5 X O       ",
"        O X 5 X.#.#.#.@.#.J { #.#.9.s.b.s.b.b.b.d.d.d.d.d.d.d.d.b.s.b.b.s.s.b.s.b.b.b.s.p.w.#.{ H A c c z z c A D G G H ] [ O.9.p.d.d.d.d.d.s.M.D.K.Y X O O     ",
"      O O O S #.#.#.#.#.+.p ..$.#.r.b.b.s.b.s.b.d.d.d.d.d.d.d.d.b.s.b.s.b.s.b.b.p.w.X.E S v S J { +.$.w.r.i.i.i.b.p.b.b.b.s.b.p.d.d.d.d.d.d.d.b.C.K.t.- O O     ",
"      O X 4 ..#.#.#.#.#...u ..#.#.u.b.s.b.s.b.s.d.u.u.b.d.d.d.d.s.b.s.b.b.s.u.#.[ Q { #.w.u.s.b.b.b.b.b.b.b.b.b.b.b.b.b.b.b.b.b.d.d.d.d.d.d.d.s.d.S.Z.u X O     ",
"    O O O k #.#.#.#.#.#.W w O.#.#.r.b.b.b.s.b.b.p.{ e.d.s.d.d.d.b.s.b.b.s.s.r.w.i.s.n.b.b.b.b.s.b.b.b.b.b.b.b.b.p.b.b.p.s.b.s.b.d.d.d.d.d.d.d.d.d.M.S.F X o O   ",
"    O O O W $.#.#.#.#.#.F w O.#.#.$.p.b.s.b.b.s.Q W u.$.e.s.d.d.s.b.b.s.b.s.b.b.s.s.b.s.s.b.s.b.b.b.p.b.b.p.b.b.b.b.b.b.b.s.p.b.d.s.d.d.d.d.d.d.d.d.S.! o O O   ",
"    O X : X.#.@.#.#.#.#.S q O.#.#.#.e.b.b.b.b.#.u 0.e.#.#.u.d.d.b.b.s.b.b.b.b.s.b.b.s.b.b.s.s.b.b.b.p.b.b.p.b.p.b.b.b.b.b.b.b.b.d.d.d.d.d.d.d.d.d.d.Z.| o O o   ",
"    O X t @.#.#.#.#.#.$.S : ..$.#.#.$.r.b.b.p.p H d.r.$.0.p.d.d.s.s.b.s.s.b.s.b.s.s.b.s.b.s.b.s.b.b.b.b.b.b.b.b.p.b.b.b.p.p.s.b.d.d.d.d.d.d.b.b.d.d.C.| o o O   ",
"  X O X k #.#.#.#.#.#.#.J $ i W O.#.#.$.u.b.e.t 8.b.d.s.s.d.d.d.b.s.s.b.s.s.b.s.b.s.b.s.b.b.b.b.b.s.s.b.b.s.b.s.b.b.b.p.9.$.r.b.d.d.d.d.d.d.s.i.p.p.M.~ X X O   ",
"  O O O c #.#.#.#.@.#.#.O.u O $ 6 A O.#.$.u.p.E +.b.d.d.d.d.d.d.s.b.b.s.b.b.s.b.b.s.s.b.b.s.s.b.s.b.b.s.b.b.s.b.b.b.b.r.#.#.$.p.d.d.b.s.u.0.8.$.#.1.a.Y X O O   ",
"  O O X v #.#.#.#.#.#.#.#...S : o O u ..#.$.r.u.+.s.d.d.d.d.d.d.b.s.s.s.b.b.b.b.s.b.s.b.s.b.s.s.b.s.b.b.s.b.b.b.b.b.b.p.$.#.w.b.d.d.u.0.$.#.#.#.#.#.q.l O O     ",
"  O O O v #.#.#.#.#.#.@...{ @.Q 6 o o p @.#.$.u.e.i.d.d.d.d.s.r.w.8.9.9.w.r.u.p.s.b.b.s.p.i.s.s.b.b.b.b.b.s.s.u.9.+.[ [ #.i.b.b.s.r.$.#.$.#.#.#.#.$.2.q X O     ",
"  O O X k #.#.#.#.#.#.@.] Q O.$.J $ o 2 ..$.#.$.i.s.d.d.d.p.$.$.#.#.#.#.#.#.#.8.9.0.u.p.9.} W J H J J J G A A c A H O.e.b.b.b.i.9.#.#.#.O.Q A x x J o.- X X     ",
"    O O u @.#.#.#.+.O.+.+.+.#.#.W $ o : ..#.#.@.$.s.d.d.s.0.#.#.#.#.@.O.X.O.+.#.#.#.#.#.8.9.0.8.@.} { { { O.$.w.i.b.b.b.b.b.r.$.#.#...v 6 $ O X X O : X X X     ",
"    O X 5 O.#.#.@.{ Q { #.#.#.$.S o o w O.#.#.#.$.e.s.d.i.$.#.#.@.Q p 5 4 4 y x J { @.#.#.#.$.9.u.b.b.b.b.b.b.b.b.b.b.b.b.r.#.#.+.S 5 O X X O $ @ X X X X X     ",
"    O X $ Q #.#.@.[ W ] #.#.#.O.u X O A #.#.#.#.#.$.i.d.e.#.#.@.S - o o O o o o @ ; t A { +.#.#.#.w.b.b.b.s.b.s.b.b.b.b.r.$.#.{ u O X X $ : 5 5 5 $ O O X       ",
"    X O O A $.@.#.O...O.#.#.#.G $ X 6 ..#.#.#.#.@.$.r.b.e.@.#.Q - o O $ 2 ; $ @ O O X O ; u H X.$.#.0.s.d.d.d.d.d.d.d.u.1.#.J : X O O : 5 6 6 6 6 : X O X       ",
"    O O X u +.$.#.#.#.#.#.#.X.6 X 4 Q #.#.#.#.#.#.#.0.d.0.#.@.k X X $ 6 6 6 6 4 2 : @ O X O O 5 v X.$.e.d.d.d.d.d.d.s.0.@.F - X O # 2 6 6 6 6 6 6 2 O O X       ",
"      O O ; [ $.#.#.#.#.#.#.F O 4 Q #.#.@.#.#.#.#.@.9.s.e.$.O.6 O O 2 6 6 6 6 6 6 6 6 4 $ @ O X O 6 J 8.s.d.d.d.d.d.u.$.J $ O O $ 6 6 6 6 6 6 3 w 2 O O O       ",
"      O O X z @.#.#.#.#.#.#.z X v $.#.#.#.#.@.#.#.#.9.s.e.$...2 X O 2 6 6 6 6 6 6 6 6 6 6 5 1 $ O X < ..s.d.d.d.d.d.r.X.6 O O $ 6 6 6 6 6 6 6 t 6 $ O O X       ",
"        O X : { #.#.#.#.#.#.v o A @.....#.#.#.#.#.@.0.s.i.$.O.5 X O 2 6 6 6 6 6 6 6 6 6 6 6 5 : $ X X F d.d.d.i.d.b.u.J @ O * 4 6 6 6 6 6 6 6 5 2 $ O O X       ",
"        O O O k @.#.#.#.#.#.{ : u { Q Q O.@.#.#.#.#.e.b.s.9.+.u O O $ 6 6 6 3 t 6 6 6 6 6 5 2 2 $ O X F d.d.p.e.d.d.p.Q @ o O 4 5 5 6 6 5 5 2 1 % O O O X       ",
"          O O = H #.#.#.#.#.#.F : A Q Q O.$.#.@.$.$.u.b.b.r.$.H $ X @ 5 6 6 6 6 6 6 6 5 2 1 2 $ O X $ ..b.d.b.b.d.b.d.0.q X O $ ; : : 2 : : < $ O O O X X       ",
"          O O o 4 Q #.#.#.#.#.#.F q F +.#.#.#.$.@.$.s.s.b.b.$.O.w X X % 5 5 5 5 4 2 1 : : : $ O X O x u.d.d.e.$.$.} Q O...6 X X X O @ @ @ @ O O X O $ X O O     ",
"            O O O 6 Q $.@.$.@.#.$.Q p F +.#.#.#.#.e.s.s.b.b.u.$.W $ X O $ ; : 2 : 1 : ; - O O X O x e.b.s.] 6 $ $ * @ $ z #.F 5 $ X X X X X X O 5 F v O X O     ",
"              O O X 5 W $.@.#.#.#.$.O.J S { +.#.$.i.s.b.b.s.s.r.$.S $ X O O $ $ $ $ @ O O O O < J u.b.b.$.; O 2 $ ; 4 $ X F s.e.X.F k i u f A Q 8.p.G X O O     ",
"                O O X ; v X.$.@.#.#.#.#.O.Q Q ..$.b.b.b.s.b.b.s.r.$.J 6 O X O X O X X X O 5 S 1.d.b.b.b.W X $ w 6 6 6 2 X t u.b.b.b.s.i.p.p.d.b.d.p.k X O O     ",
"                  O O O O 6 F X.#.#.#.#.#.#.+.O.9.s.s.s.b.s.s.b.d.p.0.O.F u 5 : : 5 t c Q 8.p.d.d.d.b.b.Q O $ 6 6 4 6 2 X i p.b.d.d.b.b.s.r.p.d.b.@.; X O       ",
"                      O O o O 4 c Q +.#.$.#.#.#.e.s.b.b.b.s.b.s.d.d.d.p.r.0.$.@.@.1.e.i.d.d.d.d.d.d.d.b.0.w X $ : O $ O $ [ b.d.b.b.d.s.b.u.p.b.e.u X O O       ",
"                          O O o o $ u S { +.#.#.9.s.b.s.b.b.s.b.d.d.d.b.d.d.d.d.d.d.d.d.d.d.d.d.d.d.d.d.b.$.k : : t u z ..s.d.d.s.r.s.s.i.d.b.r.l O O X         ",
"                              * o o o O $ u S { +.9.u.s.s.s.b.b.d.d.d.e.e.p.d.d.d.d.d.d.d.d.d.d.d.d.d.d.d.b.p.e.0.u.p.s.b.d.d.d.s.r.s.p.e.s.e.x O O O           ",
"                                  O O O o o O $ w c Q +.8.0.e.r.p.d.p.1.$.u.d.d.d.d.d.d.d.d.d.d.d.d.d.d.d.d.s.b.b.b.d.d.b.d.d.d.s.b.d.d.s.p.c O X O             ",
"                                        * O O O O o * 4 f F { @.$.p.d.i.u.s.d.d.d.d.d.d.d.d.d.d.d.d.d.d.b.s.b.b.s.b.d.d.d.b.s.b.d.d.d.d.d.w.< X O               ",
"                                                O O O O X O - u ..$.p.d.d.d.d.d.d.d.d.d.d.s.d.d.d.d.s.d.s.b.b.s.b.s.d.b.s.b.b.s.s.s.d.d.d.9.: X O               ",
"                                                      O O O O X 6 O.i.d.d.d.p.s.d.d.d.d.d.d.s.s.d.d.d.d.b.s.b.r.$.s.b.s.s.b.s.b.@.u.d.d.b.X.- O O               ",
"                                                    X O O X O O O G u.d.d.s.[ $.d.d.d.d.d.d.s.#.u.d.d.d.s.b.b.@.v p.s.b.b.s.b.p.k X.b.d.p.S O O O               ",
"                                                    O X O O X X O 6 +.r.r.#.q ..n.d.d.d.s.d.$.z r.b.d.d.d.d.s.Q : $.b.b.b.b.p.O.4 y @.1.J - X O                 ",
"                                                  O X , d m s = O O i X.@.J = x $.i.d.d.s.r.Q 5 8.d.d.s.d.i.$.A * A $.r.u.8.c ; O O $ : O O O O                 ",
"                                                O O < M L K I I : O O 4 q $ O O ; i ..$.+.S q O t S +.e.0.J 5 * O O ; p S w O X X O O O O O O                   ",
"                                              O O 9 K I I ( ( U r X O O O O O O O O $ q 4 O O O X X ; u w $ X O O O O X O X O O O     X O                       ",
"                                            O O > s K K P U ( %.b O O O $ w y $ O O O O . O = < $ O O X o o O X X X O O * $ O O                                 ",
"                                          O O @ b U U ^ ) ) U I s o O O O $ : $ O @ O O O O = = > * O O o o * q c c $ O : v $ O                                 ",
"                                          O O O 8 a s U ( ) -.&.s O O 5 i w 4 : $ $ * @ O @ O O O O O O O 4 k J W A : O O J w X O                               ",
"                                            O O O O > a M M M s 7 O O ; p S v c p z x B D i O O z F @ O @ $ $ * X O O O o A ..$ X X O                           ",
"                                          O o o O : ; * X o * @ O o O O O O O O O O $ $ $ O O O F @.$ O $ 4 q i k F v $ X u e.H 6 ; O O                         ",
"                                        O O o q H H u p S : X O * * * O O O O 4 q u u t w q @ O 4 u @ O ; q t t t q : O O $ q S +.A O O O O                     ",
"                                      O O O o : i 4 o q e.E * o O = > * O O O @ = 4 5 q 5 : O O X * O O o o o o o o O = O O X O ; O O - O X                     ",
"                                      O O w t $ O @ O @ p p O o o * > 7 > > = * O O O O O O O O 5 Q v O * = , , = , 9 e O O O O ; u x t O O                     ",
"                                      X - [ $.} Q Q c ; X X - k 4 o $ 8 8 8 8 7 , , , , , > * o 2 c y O O , 7 7 , - - - O O o o - w < O O O                     ",
"                                    O O 5 @.0.8.0.8.8...J F F +.f o O , 7 7 7 7 8 7 7 , 7 > * o O o O O O * O @ @ @ @ % : O 6 i ; - < - O O                     ",
"                                    O X ; } 0.8.8.8.8.r.s.p.X.p < o O + O * O O @ * * O O O O O + @ + + # # # & & & & 3 1 O k u.9.@.J ; X O                     ",
"                                      O X u +.8.8.8.$.r.8.+.p.} $ O + + # % 1 # # # % & & & & & 1 & 1 1 1 1 1 # % % % $ O X w { G i ; O O                       ",
"                                        O O u } 8.0. .Q r.G x J ; o O + # & & # # & & & & & & & & # # # + + @ - < r L >.d X O O O X X O                         ",
"                                          X X ; k Q X.f F w.S O o @ ; - $ $ $ @ @ @ @ @ @ @ $ - ; < e j Z C T ` -.3.c.G.R O O X                                 ",
"                                            O O O $ 6 5 O y w O O a K K C C ^ / ^ ^ ^ ^ / / &.&.&.=.5.x.f.5.5.5.7.g.v.G.:.@ O                                   ",
"                                                O O O O O O O < g L I T P I ;.6.5.5.5.5.5.5.g.6.7.5.5.5.5.4.4.;.*.3.h.F.' O O                                   ",
"                                                  O O < a e 9 r M L I P L L ^ %.-.3.;.4.5.;.3.-.T ^ %.*.-.%.L e 8 e g N < X                                     ",
"                                                    X - - - O O @ < d g e , - - 0 h P %.*./ m < O O $ , e < @ q : o X X O                                       ",
"                                                      X     O O o o O O 2 x E i o o O - < - X X O o O o ; p Q $.y o O O X                                       ",
"                                                            O O O O O O 4 p i : o O O O X O   O O O O O $ q t 6 @ O @ + O O                                     ",
"                                                            O O + + o o o o O O + % % O O O   O O o + O o o o O + @ & $ + O                                     ",
"                                                            X O O O + + + @ # @ # $ # O X O   O O O + O O + @ @ @ @ @ + O O O                                   ",
"                                                            O O O O X O O O O O O O O O O O     o O O O O O O O O O O O O O                                     ",
"                                                                        O O O O X O                                                                             "
};
