/* XPM */
static char *w_9_resized[] = {
/* columns rows colors chars-per-pixel */
"80 80 151 2 ",
"   c None",
".  c #171614",
"X  c #181715",
"o  c #1A1917",
"O  c #1C1A18",
"+  c #231A16",
"@  c #221E1B",
"#  c #291F1A",
"$  c #23211E",
"%  c #2D211B",
"&  c #32241D",
"*  c #1F2122",
"=  c #252422",
"-  c #292622",
";  c #2C2925",
":  c #242728",
">  c #252A2D",
",  c #2D2C2A",
"<  c #342620",
"1  c #382720",
"2  c #302C26",
"3  c #392922",
"4  c #322E29",
"5  c #35312C",
"6  c #3A342D",
"7  c #272D30",
"8  c #292E32",
"9  c #2D3032",
"0  c #333333",
"q  c #3A3630",
"w  c #3E3A33",
"e  c #353638",
"r  c #35393C",
"t  c #3E3C39",
"y  c #423D36",
"u  c #433F39",
"i  c #46413A",
"p  c #4A453D",
"a  c #4D483F",
"s  c #50483F",
"d  c #3B3E41",
"f  c #3E4145",
"g  c #414245",
"h  c #4E4941",
"j  c #42464A",
"k  c #44484E",
"l  c #534D44",
"z  c #514E48",
"x  c #565047",
"c  c #575148",
"v  c #5B544A",
"b  c #5F584D",
"n  c #4A4D51",
"m  c #4D5054",
"M  c #4E5359",
"N  c #5E5A55",
"B  c #51565D",
"V  c #615A4F",
"C  c #645D52",
"Z  c #645F59",
"A  c #676054",
"S  c #6A6256",
"D  c #646059",
"F  c #6D6559",
"G  c #70675B",
"H  c #726A5D",
"J  c #555B62",
"K  c #5A5E65",
"L  c #5B6067",
"P  c #5C626B",
"I  c #6D6861",
"U  c #61666D",
"Y  c #766E61",
"T  c #786F61",
"R  c #7C7264",
"E  c #76726A",
"W  c #79746C",
"Q  c #606771",
"!  c #646A73",
"~  c #686F79",
"^  c #6C727B",
"/  c #707274",
"(  c #7D7870",
")  c #70767F",
"_  c #807667",
"`  c #807768",
"'  c #847A6B",
"]  c #897E6E",
"[  c #8B806F",
"{  c #8D8272",
"}  c #878179",
"|  c #8C867C",
" . c #8E897F",
".. c #918675",
"X. c #948877",
"o. c #968A79",
"O. c #998D7B",
"+. c #9D917E",
"@. c #717780",
"#. c #737983",
"$. c #767D88",
"%. c #7C838D",
"&. c #7E8590",
"*. c #8F8980",
"=. c #85878B",
"-. c #968F84",
";. c #9F9281",
":. c #9D968C",
">. c #808692",
",. c #848A95",
"<. c #868D99",
"1. c #888F9B",
"2. c #8A919D",
"3. c #999B9F",
"4. c #A39683",
"5. c #A69986",
"6. c #A89B87",
"7. c #A69D8E",
"8. c #AB9D89",
"9. c #A49D92",
"0. c #AEA18C",
"q. c #B1A38F",
"w. c #A9A297",
"e. c #B4A691",
"r. c #B7A893",
"t. c #BAAB96",
"y. c #B1A799",
"u. c #BDAE99",
"i. c #BFB09A",
"p. c #949AA5",
"a. c #999BA0",
"s. c #989EA9",
"d. c #9AA0AA",
"f. c #B5AEA2",
"g. c #ABAEB3",
"h. c #C0B19B",
"j. c #C4B6A2",
"k. c #C6B9A5",
"l. c #C3BAAC",
"z. c #CABEAB",
"x. c #C7BFB2",
"c. c #C8BFB1",
"v. c #CDC1AF",
"b. c #CCC2B3",
"n. c #D1C6B5",
"m. c #D5CCBD",
"M. c #BEC2C8",
"N. c #C5C9CF",
"B. c #D7CEC0",
"V. c #D8CFC0",
"C. c #DAD1C3",
/* pixels */
"                                                                                                                                                                ",
"                                                                      O O o O O O o O o O O o o O                                                               ",
"                                                        O O O O O O o O X X o o o o o o o o o o o o o O O O O                                                   ",
"                                                O O O O o X o O $ = , 6 y p l x v v v c c l l p t 5 ; O o X X O O O O                                           ",
"                                        O O O O O O O $ q i x S R ' { ..o.O.O.O.O.+.5.8.q.t.u.t.e.w.0.-.( N t ; O X o O O O                                     ",
"                                  O O O O O O % w c H ` ..O.+.O.O.O.O.O.o.O.+.5.0.r.u.h.h.h.u.h.h.h.h.h.z.b.b.y.*.Z w * o X o O o                               ",
"                              O O O O O 4 a G [ o.O.+.+.+.O.o.+.O.o.O.+.4.0.r.i.h.h.h.h.h.h.h.u.u.h.h.u.h.h.j.v.m.B.x.9.Y t @ o o O o                           ",
"                          o O o O - a G { O.O.O.+.O.o.O.o.O.+.o.+.+.6.r.i.i.i.i.u.h.u.u.h.u.q.+.+.t.h.u.i.i.i.i.i.k.n.C.C.x.:.Z , O o O O                       ",
"                      O o o O , v [ X.O.O.O.O.O.O.o.O.o.o.X.+.+.0.t.i.h.i.i.i.i.i.i.i.i.h.u.6.X.O.8.h.h.h.h.h.h.i.i.h.k.b.C.C.B.f.E 5 X O O                     ",
"                    O o o - c ] O.O.o.O.O.O.O.O.O.O.O.o.+.0.r.u.i.i.i.i.i.i.i.i.i.i.i.i.u.h.r.5.+.r.h.h.h.h.r.q.i.h.i.i.h.k.n.C.C.C.f.Z $ X O o                 ",
"                  O O O y R O.O.o.O.O.O.O.O.O.O.O.O.+.0.r.i.i.i.i.i.i.i.i.i.i.i.i.i.i.i.h.u.u.u.h.h.8.+.+.H V l S { e.i.i.i.h.z.m.C.C.m.} : o o O               ",
"                O o O l { O.O.O.[ [ ..O.O.O.O.o.+.0.t.i.i.i.i.i.i.i.i.i.i.i.i.i.i.i.i.i.u.h.h.t...V y y y 6 V O.' Z A O.u.i.i.i.j.n.C.C.V.:.5 X O o             ",
"              o o O x X.O.O.O.O.[ T [ O.O.O.O.0.t.i.i.i.i.i.i.i.i.i.i.i.h.i.i.i.i.i.i.i.i.i.u.R y 6 6 6 6 6 q O.h.u.8.5.t.i.i.i.i.h.b.m.C.C.:., o o O           ",
"            O O o p ..O.O.O.O...[ ..o.O.O.5.r.i.i.i.i.i.i.i.i.i.i.i.i.t.0.r.i.i.i.i.i.i.i.i.r.x 3 6 6 6 3 y V q.h.i.5.O.e.h.i.i.i.i.h.v.m.C.C.*.= o O           ",
"          o o o 5 ' O.O.O.O...R R [ O.O.0.u.i.i.i.i.i.i.i.i.i.i.i.i.i.6.O.6.i.i.i.i.i.i.i.i.i.[ i 6 6 3 y R q.t.4.+.0.6.t.i.i.i.i.i.i.i.v.m.C.m.I O o O         ",
"          O o $ F O.O.O.O.O.X.R R [ +.q.i.i.i.i.i.i.i.i.i.i.i.i.i.i.i.t.0.r.i.i.i.i.i.i.i.i.i.u.5.' H R O.+.4...y a q.h.h.h.i.i.i.i.i.i.i.z.m.C.l.t o O         ",
"        O O o p X.O.O.O.O.o.X...[ o.0.h.u.h.h.u.i.i.i.i.i.i.i.i.i.i.i.i.i.i.i.i.i.i.i.i.i.h.h.h.h.h.u.r.5.' ` ' V A O.4.6.q.r.u.i.i.i.i.i.i.v.m.C.| O O o       ",
"        O o - R O.O.O.O.O._ [ O.+.+.u.h.h.u.u.h.i.i.i.i.i.i.i.i.i.i.i.i.i.i.i.i.i.i.h.i.t.q.;.' H A v x x l c V S G G T ` [ o.6.i.i.i.i.i.i.i.v.C.b.u X O       ",
"      o O O l o.O.O.O.O.o.V [ O.O.q.h.u.u.h.h.u.i.i.i.i.i.i.i.i.i.i.i.i.i.i.i.i.u.0.o.R C v b F _ ..+.8.q.r.u.u.h.h.h.h.i.i.h.i.i.i.i.i.i.i.i.i.n.C.W o O O     ",
"      O o $ R +.O.o.O.O.[ p [ O.+.r.u.h.h.h.u.h.i.r.r.i.i.i.i.i.i.i.i.i.i.i.e.;.R Y R { 5.e.u.h.h.h.h.h.h.h.u.u.h.h.u.u.i.i.i.i.i.i.i.i.i.i.i.i.k.V.w.= o O     ",
"    o O o i X.O.O.O.O.+.R w ..O.O.e.h.h.u.h.u.h.t...e.u.i.i.i.i.i.i.i.i.i.t.8.6.e.u.h.h.i.i.i.i.h.h.u.h.u.h.u.h.i.i.i.i.i.i.i.i.i.i.i.i.i.i.i.i.i.b.b.0 o O     ",
"    O O O C O.O.O.o.O.O.F y X.o.O.6.u.h.h.u.h.h.{ R e.0.q.i.i.i.i.i.i.i.i.i.i.h.i.i.i.i.i.i.i.i.u.h.h.u.u.h.h.u.i.i.i.i.i.i.i.i.i.i.i.i.i.i.i.i.i.k.b.g X O     ",
"    O o $ ` O.O.O.O.O.O.A w X.+.O.+.r.h.h.u.h.5.a +.0.O.+.t.i.i.i.i.i.i.i.i.i.i.i.i.i.i.i.i.i.i.h.h.u.h.h.u.h.h.i.i.i.i.i.h.i.i.i.i.i.i.i.i.i.i.i.i.b.h X o     ",
"    O O 5 { O.O.O.O.O.+.C 4 [ +.O.o.+.t.h.h.t.V C t.0.+.+.t.i.i.i.i.i.i.i.i.i.i.i.i.i.i.i.i.i.i.u.h.h.u.u.h.u.h.i.i.i.u.u.t.i.i.i.i.i.i.i.i.i.i.i.i.v.z X O     ",
"    O o i X.O.O.O.O.O.O.F $ A [ O.O.O.+.i.h.0.y +.i.i.r.t.i.i.i.i.i.i.i.i.i.i.i.i.i.i.i.i.i.i.i.i.i.i.i.i.i.i.i.i.i.h.e.4.+.q.h.i.i.i.i.i.i.r.e.e.r.l.z X O     ",
"  O o o a o.O.O.O.O.O.O.[ 5 $ 5 x R O.+.+.u.e.C +.i.i.i.i.i.i.i.u.i.i.i.i.i.i.i.i.i.i.i.i.i.i.i.i.i.i.i.i.i.i.i.i.i.i.0.O.o.4.i.i.i.i.t.0.4.+.+.O.+.y.i X O     ",
"  O O o l O.O.O.O.O.O.O.O.R i $ X % b X.O.+.t.0...i.i.i.i.i.i.i.i.i.i.i.i.i.i.i.i.i.i.i.i.i.i.i.i.i.i.i.i.i.i.h.h.h.h.q.+.4.q.h.i.i.q.;.o.o.o.O.O.O.-.4 o O     ",
"  o O o l O.O.O.O.O.O.O.X.{ { S - o O b O.O.+.t.0.t.i.i.i.i.u.r.0.6.6.8.0.r.t.t.i.i.i.i.t.t.u.i.h.h.h.h.i.i.t.0.4.{ R ' 4.t.i.i.t.5.+.O.+.+.O.o.o.;.| $ o o     ",
"    O o p o.O.O.o.O.O.o.` R { +.S $ o 2 [ +.o.+.q.t.i.i.i.i.0.O.O.O.O.O.O.O.;.4.5.0.e.r.5.' R H H H H G A C v v C R +.r.u.i.i.q.;.o.+.o.' C a y i C D o X o     ",
"    O o w X.O.O.O.O.o.o...[ X.O.[ $ O $ ( +.O.O.4.u.i.i.u.0.O.o.O.O.O.o.X.o.O.O.O.O.O.+.4.5.4.;.o.{ ' ' { o.4.0.t.h.h.i.i.u.0.+.+.o.T i - o o o O O O X X o     ",
"    O o ; { O.o.O.[ R [ o.o.O.+.T $ X 2 [ +.o.O.O.q.i.i.r.+.O.O.O.' v y 6 t h C R [ o.+.O.O.+.5.r.h.h.h.h.h.h.h.i.i.i.i.i.8.O.O.' h $ O o O $ $ $ O O O .       ",
"    O o $ H +.O.o.' R R X.+.o.+.v o o i o.o.O.O.o.+.t.i.q.O.O.O.H 4 o o o X X O $ , p A ' o.O.O.;.8.i.h.i.i.i.i.i.i.i.i.0.O.O.H 5 o O O % 2 5 6 5 O O O X       ",
"    O o O b o.+.o...R [ o.O.+.[ 4 o $ T O.O.O.O.O.O.0.i.0.o.+.' 4 o o $ % = $ @ O O X O - p G ..O.+.5.u.i.i.i.i.i.i.i.e.+.X.V $ O O $ 2 6 6 6 6 6 = O O X       ",
"      O X 6 ..o.O.O.O.o.O.O.o.c O O b o.O.O.O.O.O.+.5.i.0.O.O.b O O $ 5 6 6 5 5 2 % $ O O O @ 5 b [ +.0.i.i.i.i.i.i.u.+.o.c @ O O % 5 6 6 6 6 6 6 < O O o       ",
"      O O $ R +.O.O.O.O.O.+.' - O b X.O.O.O.+.o.O.o.4.i.0.+.o.i X O - 6 6 6 6 6 6 6 6 4 $ @ O X O 5 T +.u.u.i.i.i.i.e.+.A O O O - 6 6 6 6 6 6 6 q - O O o       ",
"      O O O a +.O.O.O.O.O.O.S O i o.O.+.o.O.o.O.O.O.+.u.e.+.X.6 o O , 6 6 6 6 6 6 6 6 6 6 5 - $ O o - [ u.i.i.i.i.i.0.[ 2 O O - 3 y 6 6 6 6 6 6 6 $ O O o       ",
"        O O = R O.o.O.O.O.+.F O a o.....o.+.o.O.O.o.4.u.u.+.X.w X O ; 6 6 6 6 6 6 6 6 6 6 6 6 2 @ O o N i.i.u.r.i.h.q.Y @ o $ 5 6 6 6 6 6 6 6 4 - $ O o X       ",
"        O O O a X.+.O.O.o.+.[ 2 6 [ R R ..o.O.O.O.O.5.i.i.5.+.s o O % 6 6 6 6 6 6 6 6 6 6 6 2 ; @ o o b i.i.t.0.t.i.u.( @ o $ - 5 5 6 5 4 2 2 ; $ O O o X       ",
"          O o $ S +.O.o.+.o.O.F $ b R R [ +.o.+.O.O.0.i.i.r.+.T $ O + 4 6 6 6 6 6 6 6 5 2 2 , $ O O O ' h.i.h.i.h.h.i.0.i X o O $ - ; ; < - = @ O O X X X       ",
"          O O o 2 R O.+.o.O.O.o.S 6 A [ o.o.+.o.O.+.r.i.h.u.5.o.i o O $ 2 6 6 6 5 3 2 2 - - $ O O o x e.i.i.0...{ R S R [ a O o O O O O @ O O X o & 4 X O O     ",
"            O O X 5 ' +.o.O.O.O.O.R a S X.+.O.O.o.4.u.i.i.i.r.+.R ; O O $ - , ; ; 2 & - = @ O o O l 0.i.i.R 4 $ $ O @ O i o.[ i ; O O o o o O ; h ] C o O o     ",
"              o O O 5 T +.O.O.O.o.+.X.S V ` o.O.+.0.u.i.i.i.u.e.+.H = o O O $ $ $ $ @ @ O o o ; F r.i.i.+.; O 2 ; & 6 $ X c u.t.5.] H C C F ' +.e.h.A o O O     ",
"                O O O - A X.+.O.O.o.O.O.{ T R [ +.r.i.i.i.i.i.i.e.+.T 6 @ o o O o o o o O 4 b O.u.i.i.i.[ @ $ 6 6 6 6 4 O 5 q.i.h.h.h.h.i.i.h.h.h.r.i o O       ",
"                  O O O O w G ..O.+.O.O.O.O.X.[ o.u.i.i.i.i.i.i.i.r.0.X.S i 5 - ; ; w x T ;.t.i.i.i.i.i.o.$ $ 4 6 2 6 ; X i e.i.i.i.i.i.i.0.e.h.h.' $ o O       ",
"                      O O o $ w C [ o.+.O.O.O.O.5.u.i.i.i.i.i.i.i.i.i.t.q.5.+.X.X.+.0.e.u.i.i.i.i.i.i.i.r.x O $ $ O $ O $ [ u.u.i.i.i.i.h.t.t.h.4.5 o O O       ",
"                        o o o O o ; i F [ o.O.O.+.t.i.i.i.i.i.i.i.i.i.i.i.i.i.i.i.i.i.i.i.i.i.i.i.i.i.i.i.q.S w w s v S o.i.i.i.u.0.t.u.e.u.h.5.y o O O         ",
"                              O o o o O ; p S [ X.4.e.u.i.i.i.i.i.i.i.e.0.r.i.i.i.i.i.i.i.i.i.i.i.i.i.i.i.i.u.r.e.u.i.i.i.i.i.i.u.r.u.u.q.u.4.u o O o           ",
"                                  o o O o o @ $ i b R X.4.0.0.e.u.i.i.5.O.0.i.i.i.i.i.i.i.i.i.i.i.i.i.i.i.i.i.i.i.u.i.i.i.i.i.i.i.i.i.i.i.t.l o o O             ",
"                                        O O O O O o $ 5 h F ( X.+.q.i.t.e.t.i.i.i.i.i.i.i.i.i.i.i.i.i.i.i.i.i.i.i.i.i.i.i.i.i.i.h.i.i.i.h.e.w o O               ",
"                                              O O O o o o O = w G O.e.h.i.i.i.i.i.i.i.i.i.i.i.i.i.i.i.i.i.i.i.i.u.i.i.i.i.i.i.i.t.u.i.i.i.0.5 o O               ",
"                                                      O O O o o = R 0.h.i.i.u.t.i.i.i.i.i.i.i.u.u.i.i.i.i.i.i.r.{ u.i.i.i.i.i.i.{ ;.h.i.h.+.= o O               ",
"                                                      O o O o O O p +.i.i.h.o.[ h.i.i.i.i.i.h.+.5.i.i.i.i.i.i.0.a ;.i.i.i.i.i.i.v C i.h.r.C O O O               ",
"                                                    O o o O O o O * Y q.e.0.s c u.u.i.i.i.h.e.c ..i.i.i.i.i.u.o.; H i.u.i.i.r.[ 5 - A ` V $ o O                 ",
"                                                  O o = f M n 9 O X 4 Y X.[ q 5 [ 0.t.i.i.e.X.5 Y u.i.i.i.t.+.S $ q R +.q.+.h @ O o O O O o O O                 ",
"                                                O o = k J J L Q f o o = w ; O O $ 5 S O.O.F y $ ; i H +.;.Y 5 O O O O 4 p 0 O O o O O O O o                     ",
"                                              O O = M P P ! ~ Q M $ o o o O O o O O O ; 4 O o O O . O 4 q $ O O O O O O X X O O O                               ",
"                                              O * r B B J Q ~ @.P * o O O ; p ; O O O o o O O > > * O o o o o o O O O O O q O O o                               ",
"                                            O O e Q Q Q ~ ~ Q P M $ O O O O = = O O O o o o O * = * O o o o $ q V F 0 O @ F 6 O O                               ",
"                                          @ O O * 8 f J ~ ~ %.%.J O O ; p a w 5 4 - = = = = O O O $ o o $ - i A S v 4 O X v H O o                               ",
"                                            O O o O * r f f f f e O O @ w v v x s c s v C c = o y ' 5 o o $ * O O O $ O O w 0.x o o o O                         ",
"                                            O O O ; 5 = O o o O O X O o o o o O O O O O O $ o o w +.y X $ 5 w a v S S , X $ ..X.A h $ O O                       ",
"                                        $ O o ; F R p u Y i O O O * * * o O o = 5 i p p i y 2 o $ q = o * , 5 6 6 5 $ * O O = 5 G F = o o O                     ",
"                                        O O o O q 4 o $ { +.; o O * : * * O O O $ = ; , ; - O o o $ = o o O O o O O @ * O X O X O O $ 6 $ O                     ",
"                                      o o q v 5 = * $ o 5 p * O O O * > > > : * * O O * O O $ o $ G [ = O * > > > > 7 r * O O O O i b a O o O                   ",
"                                      O O F 4.O.{ [ R w $ o $ c p O O 7 8 8 8 8 7 7 7 > 7 > * o * u u * o * 7 > : = * = O O O O O = $ O O O O                   ",
"                                      o @ ' 5.4.5.4.4.+.] R A ] S O O : > > > > 7 > > > > > * o o X X o o @ @ @ @ @ @ & 3 + , Y v u p u O O O                   ",
"                                      O O V 4.5.4.4.4.8.t.i.6.c , O o + O O O @ O @ O @ @ O + + @ + @ # # % # % & & & 3 < O 4 0.u.5.' q o O                     ",
"                                      O o - Y 4.4.4.+.5.0.' 6.5.4 O + + + & < # # # & & % & & & & 1 1 & 1 & < # % # # : = O = v l 5 @ o O                       ",
"                                        O o - C o.4.O.A 6.{ p C 4 O o + + # & % # # % % % % % % # # + + + @ = ; 0 j U a./ O o o o o o                           ",
"                                          O o O 6 C ] v p +.R = o O 8 , , = = - = = = = - - ; , 0 e g K / ! ~ $.=.<.s.N.a.= o O                                 ",
"                                              O o O = 4 O , 6 O O d J K J J ! #.@.@.@.@.#.#.$.1.%.>.<.s.s.1.<.1.<.p.p.M.g.0 o                                   ",
"                                                  O O O O O * , k K P P P K ~ <.1.1.<.<.1.<.1.2.<.<.1.<.<.<.<.$.^ ) ,.g.=.= o                                   ",
"                                                  O o $ d d r 0 g B K U J J J U ^ %.&.,.<.>.&.$.K n K ~ #.@.B 8 = : , t , o O                                   ",
"                                                    O O = O O O O $ 8 d e - = - = , j K ^ Q n , + O o O = ; $ i y o o X o                                       ",
"                                                              O O o o o - c R Y @ X X O = $ o o o O O o $ l ` 4.C O O O O o                                     ",
"                                                            O O O o O O $ w u 4 O O O O o O   O O O o O O , 5 4 = O + @ O O                                     ",
"                                                            O O + + o o o o o + @ # & @ O O     O O + O O O O O O @ % & O O O                                   ",
"                                                            o O o o o + + @ @ @ @ # @ O o O     O o O O O + + @ @ @ @ + O O O                                   ",
"                                                              O O O O O o O O O O O O O O O     O O O O X O O O o O o O O O                                     ",
"                                                                                                                                                                "
};
