/* XPM */
static char *__resized[] = {
/* columns rows colors chars-per-pixel */
"50 50 114 2 ",
"   c #2D262A",
".  c #2D262B",
"X  c #2C272B",
"o  c #2D272B",
"O  c #2B292B",
"+  c #2D282B",
"@  c #2C292B",
"#  c #2D292B",
"$  c #2C2A2B",
"%  c #2D2A2B",
"&  c #2B2B2C",
"*  c #2C2A2C",
"=  c #2D2A2C",
"-  c #2C2B2C",
";  c #2B2E2C",
":  c #2B2F2C",
">  c #2B2E2D",
",  c #2B2F2D",
"<  c #2C2C2C",
"1  c #2C2D2C",
"2  c #2B302D",
"3  c #29332E",
"4  c #29362F",
"5  c #29372F",
"6  c #273B30",
"7  c #273D30",
"8  c #273E31",
"9  c #273F31",
"0  c #283930",
"q  c #1F4E35",
"w  c #1F4F35",
"e  c #1F5738",
"r  c #1F5838",
"t  c #1D5C39",
"y  c #274031",
"u  c #264232",
"i  c #244433",
"p  c #264433",
"a  c #274533",
"s  c #224934",
"d  c #264834",
"f  c #204C34",
"g  c #204C35",
"h  c #205336",
"j  c #225236",
"k  c #205437",
"l  c #205637",
"z  c #205738",
"x  c #205838",
"c  c #1C673C",
"v  c #176F3F",
"b  c #16733F",
"n  c #1C723F",
"m  c #21603A",
"M  c #167440",
"N  c #167540",
"B  c #128344",
"V  c #198544",
"C  c #118F47",
"Z  c #178E47",
"A  c #0E994A",
"S  c #169448",
"D  c #169548",
"F  c #169549",
"G  c #169648",
"H  c #169649",
"J  c #169749",
"K  c #129C4A",
"L  c #149F4B",
"P  c #0DA14B",
"I  c #0DA14C",
"U  c #0CA24C",
"Y  c #0DA24C",
"T  c #0CA34C",
"R  c #0DA34C",
"E  c #10A24C",
"W  c #10AB4F",
"Q  c #0CB752",
"!  c #0DB852",
"~  c #0DB952",
"^  c #0CBA52",
"/  c #0CBD53",
"(  c #0CC355",
")  c #0CC455",
"_  c #06CD58",
"`  c #02DF5C",
"'  c #05DD5C",
"]  c #05DE5C",
"[  c #05DF5D",
"{  c #05E05D",
"}  c #05E15D",
"|  c #04E45E",
" . c #05E55E",
".. c #05E65E",
"X. c #05E85F",
"o. c #01EC60",
"O. c #00EE60",
"+. c #01EE60",
"@. c #01EF61",
"#. c #03EE61",
"$. c #01F061",
"%. c #01F161",
"&. c #01F261",
"*. c #01F262",
"=. c #00F462",
"-. c #01F462",
";. c #01F863",
":. c #01F963",
">. c #00FD64",
",. c #01FC65",
"<. c #00FE65",
"1. c #00FF65",
"2. c #00FF66",
"3. c #00FF67",
/* pixels */
"< < < < < < < < < < < < < < < < < < < < < < < < < < < < < < < < < < < < < < < < < < < < < < < < < < ",
"< < < < < < < < < < < < < < < < - % @ @ @ @ @ @ @ @ @ @ @ @ @ @ @ - < < < < < < < < < < < < < < < < ",
"< < < < < < < < < < < < < < < - 6 z z e e e e e e e e e e e e e x u - < < < < < < < < < < < < < < < ",
"< < < < < < < < < < < < < < < # v @.%.%.%.%.%.%.%.%.%.%.%.%.%.%.-.Z # < < < < < < < < < < < < < < < ",
"< < < < < < < < < < < < < < < # M <.1.1.1.1.1.1.1.1.1.1.1.1.1.1.2.H # < < < < < < < < < < < < < < < ",
"< < < < < < < < < < < < < < < # M >.1.1.1.1.1.1.1.1.1.1.1.1.1.1.2.G # < < < < < < < < < < < < < < < ",
"< < < < < < < < < < < < < < < # M >.1.1.1.1.1.1.1.1.1.1.1.1.1.1.2.G # < < < < < < < < < < < < < < < ",
"< < < < < < < < < < < & & & & X M 1.2.2.2.2.2.2.2.2.2.2.2.2.2.2.3.H X & & & & < < < < < < < < < < < ",
"< < < < < < < < < - 5 C T I I U R J F G G G G G G G G G G G G F H I U I I U A i * < < < < < < < < < ",
"< < < < < < < < < - y { 3.2.2.3.) 1 # # # # # # # # # # # # # # X U 3.2.2.2.=.r @ < < < < < < < < < ",
"< < < < < < < < < - y ] 2.1.1.2.( 2 < < < < < < < < < < < < < < & Y 2.1.1.1.%.e @ < < < < < < < < < ",
"< < < < < < < < < - y ] 2.1.1.2.( 2 < < < < < < < < < < < < < < & Y 2.1.1.1.%.e @ < < < < < < < < < ",
"< < < < < - - - - @ 9 ' 2.1.1.2.( 2 < < < < < < < < < < < < < < & Y 2.1.1.1.%.l + - - - - < < < < < ",
"< < < < < 4 y y y 9 j } 2.1.1.2.( 2 < < < < < < < < < < < < < < & Y 2.1.1.1.*.c 8 y y y 0 < < < < < ",
"< < < < @ V { ] ] ] } :.1.1.1.2.( 2 < < < < < < < < < < < < < < & Y 2.1.1.1.,.| ' ] ] { E > < < < < ",
"< < < < # J 3.2.2.2.2.1.1.1.1.2.( 2 < < < < < < < < < < < < < < & Y 2.1.1.1.1.1.2.2.2.3.~ ; < < < < ",
"< < < < # G 2.1.1.1.1.1.1.1.1.2.( 2 < < < < < < < < < < < < < < & Y 2.1.1.1.1.1.1.1.1.2.! : < < < < ",
"< < < < # G 2.1.1.1.1.1.1.1.1.2.( 2 < < < < < < < < < < < < < < & Y 2.1.1.1.1.1.1.1.1.2.! : < < < < ",
"< < < < # G 2.1.1.1.1.1.1.1.1.2.( 2 < < < < < < < < < < < < < < & Y 2.1.1.1.1.1.1.1.1.2.! : < < < < ",
"< < < < # G 2.1.1.1.1.1.1.1.1.2.( 2 < < < < < < < < < < < < < < & Y 2.1.1.1.1.1.1.1.1.2.! : < < < < ",
"< < < < # G 2.1.1.1.1.1.1.1.1.2.( 2 < < < < < < < < < < < < < < & Y 2.1.1.1.1.1.1.1.1.2.! : < < < < ",
"< < < < # G 2.1.1.1.1.1.1.1.1.2.( 2 < < < < < < < < < < < < < < & Y 2.1.1.1.1.1.1.1.1.2.! : < < < < ",
"< < < < # G 2.1.1.1.1.1.1.1.1.2.( 2 < < < < < < < < < < < < < < & Y 2.1.1.1.1.1.1.1.1.2.! : < < < < ",
"< < < < # G 2.1.1.1.1.1.1.1.1.2.( 2 < < < < < < < < < < < < < < & Y 2.1.1.1.1.1.1.1.1.2.! : < < < < ",
"< < < < # G 2.1.1.1.1.1.1.1.1.2.( 2 < < < < < < < < < < < < < < & Y 2.1.1.1.1.1.1.1.1.2.! : < < < < ",
"< < < < # G 2.1.1.1.1.1.1.1.1.2.( 2 < < < < < < < < < < < < < < & Y 2.1.1.1.1.1.1.1.1.2.! : < < < < ",
"< < < < # G 2.1.1.1.1.1.1.1.1.2.( 2 < < < < < < < < < < < < < < & Y 2.1.1.1.1.1.1.1.1.2.! : < < < < ",
"< < < < # G 2.1.1.1.1.1.1.1.1.2.( 2 < < < < < < < < < < < < < < & Y 2.1.1.1.1.1.1.1.1.2.! : < < < < ",
"< < < < # G 2.1.1.1.1.1.1.1.1.2.( 2 < < < < < < < < < < < < < < & Y 2.1.1.1.1.1.1.1.1.2.! : < < < < ",
"< < < < # G 2.1.1.1.1.1.1.1.1.2.( 2 < < < < < < < < < < < < < < & Y 2.1.1.1.1.1.1.1.1.2.! : < < < < ",
"< < < < # G 2.1.1.1.1.1.1.1.1.2.( 2 < < < < < < < < < < < < < < & Y 2.1.1.1.1.1.1.1.1.2.! : < < < < ",
"< < < < # G 2.1.1.1.1.1.1.1.1.2.( 2 < < < < < < < < < < < < < < & Y 2.1.1.1.1.1.1.1.1.2.! : < < < < ",
"< < < < # G 2.1.1.1.1.1.1.1.1.2.( 2 < < < < < < < < < < < < < < & Y 2.1.1.1.1.1.1.1.1.2.! : < < < < ",
"< < < < # G 2.1.1.1.1.1.1.1.1.2.( 2 < < < < < < < < < < < < < < & Y 2.1.1.1.1.1.1.1.1.2.! : < < < < ",
"< < < < # G 2.1.1.1.1.1.1.1.1.2.( 2 < < < < < < < < < < < < < < & Y 2.1.1.1.1.1.1.1.1.2.! : < < < < ",
"< < < < # J 3.2.2.2.2.1.1.1.1.2.( 2 < < < < < < < < < < < < < < & Y 2.1.1.1.1.2.2.2.2.3.^ ; < < < < ",
"< < < < * m J G G D L #.1.1.1.2.( 2 < < < < < < < < < < < < < < & Y 2.1.1.1.;.W S G G J n 1 < < < < ",
"< < < < < = # # # o 7 ' 2.1.1.2.( 2 < < < < < < < < < < < < < < & Y 2.1.1.1.$.k   # # # $ < < < < < ",
"< < < < < < < < < - y ] 2.1.1.2.( 2 < < < < < < < < < < < < < < & Y 2.1.1.1.%.e @ < < < < < < < < < ",
"< < < < < < < < < - y ] 2.1.1.2.( 2 < < < < < < < < < < < < < < & Y 2.1.1.1.%.e @ < < < < < < < < < ",
"< < < < < < < < < - y [ 2.1.1.2.( ; * * * * * * * * * * * * * * O P 2.1.1.2.&.e @ < < < < < < < < < ",
"< < < < < < < < < - 8 _ +.o.o.O./ d a a a a a a a a a a a a a a p T O.o.o.o.` h % < < < < < < < < < ",
"< < < < < < < < < < , s w q q f B  .............................X.K f q q q g 3 < < < < < < < < < < ",
"< < < < < < < < < < < = % % % . b <.2.1.1.1.1.1.1.1.1.1.1.1.1.1.2.D . % % % % < < < < < < < < < < < ",
"< < < < < < < < < < < < < < < # M >.1.1.1.1.1.1.1.1.1.1.1.1.1.1.2.G # < < < < < < < < < < < < < < < ",
"< < < < < < < < < < < < < < < # M >.1.1.1.1.1.1.1.1.1.1.1.1.1.1.2.G # < < < < < < < < < < < < < < < ",
"< < < < < < < < < < < < < < < # N 1.2.2.2.2.2.2.2.2.2.2.2.2.2.2.3.J # < < < < < < < < < < < < < < < ",
"< < < < < < < < < < < < < < < $ t Q ! ! ! ! ! ! ! ! ! ! ! ! ! ! ^ n $ < < < < < < < < < < < < < < < ",
"< < < < < < < < < < < < < < < < 1 ; , , , , , , , , , , , , , , ; 1 < < < < < < < < < < < < < < < < ",
"< < < < < < < < < < < < < < < < < < < < < < < < < < < < < < < < < < < < < < < < < < < < < < < < < < "
};
