/* XPM */
static char *__resized[] = {
/* columns rows colors chars-per-pixel */
"50 50 52 1 ",
"  c #242424",
". c #2D252A",
"X c #2D262A",
"o c #2D282B",
"O c #2D292B",
"+ c #2C2A2B",
"@ c #2D2A2B",
"# c #2C2A2C",
"$ c #2C2B2C",
"% c #2B2D2C",
"& c #2C2C2C",
"* c #27342E",
"= c #27362E",
"- c #27362F",
"; c #2A302D",
": c #28332E",
"> c #29372F",
", c #283F31",
"< c #274533",
"1 c #235136",
"2 c #1C663C",
"3 c #1F683C",
"4 c #1F693C",
"5 c #20663C",
"6 c #197440",
"7 c #197F43",
"8 c #168945",
"9 c #178945",
"0 c #168B45",
"q c #168B46",
"w c #168C46",
"e c #0BA64D",
"r c #0DAA4F",
"t c #0DAD4F",
"y c #0CAE4F",
"u c #10AC4F",
"i c #0AB952",
"p c #0BBF54",
"a c #05CC57",
"s c #05CC58",
"d c #05CD58",
"f c #05CE58",
"g c #05E65E",
"h c #05E75F",
"j c #05E95F",
"k c #01FB64",
"l c #01FD65",
"z c #01FE65",
"x c #00FF65",
"c c #01FF65",
"v c #00FF66",
"b c #00FF67",
/* pixels */
"&&&&&&&&&&&&&&&&&&&&&&&&&&&&&&&&&&&&&&&&&&&&&&&&& ",
"&&&&&&&&&&&&&&&&&&&&&$###########&&&&&&&&&&&&&&&& ",
"&&&&&&&&&&&&&&&&&&&&&><<<<<<<<<<,%&&&&&&&&&&&&&&& ",
"&&&&&&&&&&&&&&&&&&&&@7hggggggggji*$&&&&&&&&&&&&&& ",
"&&&&&&&&&&&&&&&&&&&&Oqvvvxxxxxxbd-$&&&&&&&&&&&&&& ",
"&&&&&&&&&&&&&&&&&&&&O0xxxxxxxxxva-$&&&&&&&&&&&&&& ",
"&&&&&&&&&&&&&&&&&&&&O0vxxxxxxxxva-$&&&&&&&&&&&&&& ",
"&&&&&&&&&&#OOOOOOOOOX9vxxxxxxxxva-$&&&&&&&&&&&&&& ",
"&&&&&&&&&&2w000000008pvxxxxxxxxva-$&&&&&&&&&&&&&& ",
"&&&&&&&&&%ybxxxxxxxxxxxxxxxxxxxva-$&&&&&&&&&&&&&& ",
"&&&&&&&&&%tvxxxxxxxxxxxxxxxxxxxva-$&&&&&&&&&&&&&& ",
"&&&&&&&&&%tvxxxxxxxxxxxxxxxxxxxva-$&&&&&&&&&&&&&& ",
"&&&&&&&&&%tvxxxxxxxxxxxxxxxxxxxva-$&&&&&&&&&&&&&& ",
"&&&&&&&&&%rzkkkkkkkkklcxxxxxxxxva-$&&&&&&&&&&&&&& ",
"&&&&&&&&&&14333333335uvxxxxxxxxva-$&&&&&&&&&&&&&& ",
"&&&&&&&&&&+ooooooooo.8xxxxxxxxxva-$&&&&&&&&&&&&&& ",
"&&&&&&&&&&&&&&&&&&&&O0xxxxxxxxxva-$&&&&&&&&&&&&&& ",
"&&&&&&&&&&&&&&&&&&&&O0xxxxxxxxxva-$&&&&&&&&&&&&&& ",
"&&&&&&&&&&&&&&&&&&&&O0xxxxxxxxxva-$&&&&&&&&&&&&&& ",
"&&&&&&&&&&&&&&&&&&&&O0xxxxxxxxxva-$&&&&&&&&&&&&&& ",
"&&&&&&&&&&&&&&&&&&&&O0xxxxxxxxxva-$&&&&&&&&&&&&&& ",
"&&&&&&&&&&&&&&&&&&&&O0xxxxxxxxxva-$&&&&&&&&&&&&&& ",
"&&&&&&&&&&&&&&&&&&&&O0xxxxxxxxxva-$&&&&&&&&&&&&&& ",
"&&&&&&&&&&&&&&&&&&&&O0xxxxxxxxxva-$&&&&&&&&&&&&&& ",
"&&&&&&&&&&&&&&&&&&&&O0xxxxxxxxxva-$&&&&&&&&&&&&&& ",
"&&&&&&&&&&&&&&&&&&&&O0xxxxxxxxxva-$&&&&&&&&&&&&&& ",
"&&&&&&&&&&&&&&&&&&&&O0xxxxxxxxxva-$&&&&&&&&&&&&&& ",
"&&&&&&&&&&&&&&&&&&&&O0xxxxxxxxxva-$&&&&&&&&&&&&&& ",
"&&&&&&&&&&&&&&&&&&&&O0xxxxxxxxxva-$&&&&&&&&&&&&&& ",
"&&&&&&&&&&&&&&&&&&&&O0xxxxxxxxxva-$&&&&&&&&&&&&&& ",
"&&&&&&&&&&&&&&&&&&&&O0xxxxxxxxxva-$&&&&&&&&&&&&&& ",
"&&&&&&&&&&&&&&&&&&&&O0xxxxxxxxxva-$&&&&&&&&&&&&&& ",
"&&&&&&&&&&&&&&&&&&&&O0xxxxxxxxxva-$&&&&&&&&&&&&&& ",
"&&&&&&&&&&&&&&&&&&&&O0xxxxxxxxxva-$&&&&&&&&&&&&&& ",
"&&&&&&&&&&&&&&&&&&&&O0xxxxxxxxxva-$&&&&&&&&&&&&&& ",
"&&&&&&&&&&&&&&&&&&&&O0xxxxxxxxxva-$&&&&&&&&&&&&&& ",
"&&&&&&&&&&&&&&&&&&&&O0xxxxxxxxxva-$&&&&&&&&&&&&&& ",
"&&&&&&&&&&&&&&&&&&&&O0xxxxxxxxxva-$&&&&&&&&&&&&&& ",
"&&&&&&&&&&&&&&&&&&&&O0xxxxxxxxxva-$&&&&&&&&&&&&&& ",
"&&&&&&&&&&&&&&&&&&&&O0xxxxxxxxxva-$&&&&&&&&&&&&&& ",
"&&&&&&&&&&&&&&&&&&&&O0xxxxxxxxxva-$&&&&&&&&&&&&&& ",
"&&&&&&&&&&&&&&&&&&&&O0xxxxxxxxxva-$&&&&&&&&&&&&&& ",
"&&&&&&&&&&&&&&&&&&&&O0xxxxxxxxxva-$&&&&&&&&&&&&&& ",
"&&&&&&&&&&&&&&&&&&&&O0xxxxxxxxxva-$&&&&&&&&&&&&&& ",
"&&&&&&&&&&&&&&&&&&&&O0xxxxxxxxxva-$&&&&&&&&&&&&&& ",
"&&&&&&&&&&&&&&&&&&&&O0xxxxxxxxxva-$&&&&&&&&&&&&&& ",
"&&&&&&&&&&&&&&&&&&&&Owbvvvvvvvvbf-$&&&&&&&&&&&&&& ",
"&&&&&&&&&&&&&&&&&&&&@6dssssssssfe:&&&&&&&&&&&&&&& ",
"&&&&&&&&&&&&&&&&&&&&&;=========-:&&&&&&&&&&&&&&&& ",
"&&&&&&&&&&&&&&&&&&&&&&$$$$$$$$$$$&&&&&&&&&&&&&&&& "
};
