/* XPM */
static char *__resized[] = {
/* columns rows colors chars-per-pixel */
"50 50 115 2 ",
"   c #2D252A",
".  c #2D262A",
"X  c #2D282B",
"o  c #2C292B",
"O  c #2D292B",
"+  c #2C2A2B",
"@  c #2D2A2B",
"#  c #2B2B2C",
"$  c #2C2A2C",
"%  c #2C2B2C",
"&  c #2B2E2D",
"*  c #2A2F2D",
"=  c #2B2F2D",
"-  c #2C2C2C",
";  c #2C2E2C",
":  c #2C2E2D",
">  c #27322E",
",  c #27342E",
"<  c #27362E",
"1  c #2B302D",
"2  c #29322E",
"3  c #29332E",
"4  c #2A322E",
"5  c #28362F",
"6  c #28372F",
"7  c #27392F",
"8  c #263B30",
"9  c #273B30",
"0  c #263F31",
"q  c #1F4E35",
"w  c #1C5B39",
"e  c #1E5B39",
"r  c #264332",
"t  c #274432",
"y  c #274533",
"u  c #204D35",
"i  c #224D35",
"p  c #215638",
"a  c #215A39",
"s  c #205D39",
"d  c #1F603A",
"f  c #1C673D",
"g  c #196F3E",
"h  c #16733F",
"j  c #16743F",
"k  c #1C703E",
"l  c #1C703F",
"z  c #147A41",
"x  c #167D42",
"c  c #167F43",
"v  c #168043",
"b  c #168143",
"n  c #178244",
"m  c #178645",
"M  c #198143",
"N  c #168B45",
"B  c #168B46",
"V  c #168C46",
"C  c #0F9F4B",
"Z  c #169448",
"A  c #169548",
"S  c #159748",
"D  c #169648",
"F  c #169748",
"G  c #16984A",
"H  c #109C4B",
"J  c #109F4B",
"K  c #0DA14C",
"L  c #0CA24C",
"P  c #0DA24C",
"I  c #10A54D",
"U  c #10AF4F",
"Y  c #0DB752",
"T  c #0DB852",
"R  c #0CBA52",
"E  c #0DC255",
"W  c #0CC355",
"Q  c #0DC355",
"!  c #0BC756",
"~  c #0CC455",
"^  c #0CC555",
"/  c #0CC456",
"(  c #0CC556",
")  c #05CB57",
"_  c #05CC57",
"`  c #05D259",
"'  c #05D559",
"]  c #05D55A",
"[  c #05D65A",
"{  c #05D75B",
"}  c #05D85B",
"|  c #07DB5B",
" . c #03DD5C",
".. c #04DC5C",
"X. c #06DE5C",
"o. c #05E65E",
"O. c #05E75E",
"+. c #05E75F",
"@. c #01EC60",
"#. c #00ED60",
"$. c #01ED60",
"%. c #02F362",
"&. c #01F563",
"*. c #01F663",
"=. c #00F763",
"-. c #01F763",
";. c #01F964",
":. c #01FA64",
">. c #01FB64",
",. c #00FD64",
"<. c #00FD65",
"1. c #00FE65",
"2. c #00FF65",
"3. c #00FF66",
"4. c #00FF67",
/* pixels */
"- - - - - - - - - - - - - - - - - - - - - - - - - - - - - - - - - - - - - - - - - - - - - - - - - - ",
"- - - - - - - - - - - - - - - - @ O O O O O O O O O O O O O O O O O O O O O o - - - - - - - - - - - ",
"- - - - - - - - - - - - - - - - e b c c c c c c c c c c c c c c c c c c c v g 2 - - - - - - - - - - ",
"- - - - - - - - - - - - - - - # K 3.1.1.1.1.1.1.1.1.1.1.1.1.1.1.1.1.1.1.1.3.] 9 % - - - - - - - - - ",
"- - - - - - - - - - - - - - - # P 3.2.2.2.2.2.2.2.2.2.2.2.2.2.2.2.2.2.2.2.3.] 9 % - - - - - - - - - ",
"- - - - - - - - - - - - - - - # P 3.2.2.2.2.2.2.2.2.2.2.2.2.2.2.2.2.2.2.2.3.] 9 % - - - - - - - - - ",
"- - - - - - - - - - - - - - - # P 3.2.2.2.2.2.2.2.2.2.2.2.2.2.2.2.2.2.2.2.3.] 9 % - - - - - - - - - ",
"- - - - - = 1 1 1 1 1 1 1 1 1 * L 2.,.,.,.,.,.,.,.,.,.,.,.,.,.,.<.1.2.2.2.3.[ 0 = 1 1 1 ; - - - - - ",
"- - - - = G ( E E E E E E E E / C h j j j j j j j j j j j j j j z  .3.2.2.2.%.! E E E ~ k + - - - - ",
"- - - - 1 ( 4.3.3.3.3.3.3.3.3.4.A   O O O O O O O O O O O O O X > ) 3.2.2.2.2.3.3.3.3.4.V O - - - - ",
"- - - - 1 Q 3.2.2.2.2.2.2.2.2.3.D O - - - - - - - - - - - - - % < _ 3.2.2.2.2.2.2.2.2.2.N O - - - - ",
"- - - - 1 Q 3.2.2.2.2.2.2.2.2.3.D O - - - - - - - - - - - - - % < _ 3.2.2.2.2.2.2.2.2.2.N O - - - - ",
"- - - - 1 ^ 4.3.3.3.3.3.3.3.3.4.F O - - - - - - - - - - - - - % < _ 3.2.2.2.2.2.2.2.2.2.N O - - - - ",
"- - - - = I } ] ] ] ] ] ] ] ] { M o - - - - - - - - - - - - - % < _ 3.2.2.2.2.2.2.2.2.2.N O - - - - ",
"- - - - - 6 9 9 9 9 9 9 9 9 9 9 3 - - - - - - - - - - - - - - % < _ 3.2.2.2.2.2.2.2.2.2.N O - - - - ",
"- - - - - % % % % % % % % % % % % - - - - - - - - - - - - - - % < _ 3.2.2.2.2.2.2.2.2.2.N O - - - - ",
"- - - - - - - - - - - - - - - - - - - - - - - - - - - - - - - % < _ 3.2.2.2.2.2.2.2.2.2.N O - - - - ",
"- - - - - - - - - - - - - - - - - - - - - - - - - - - - - - - % < _ 3.2.2.2.2.2.2.2.2.2.N O - - - - ",
"- - - - - - - - - - - - - - - - - - - - - - - - - - - - - - - % < _ 3.2.2.2.2.2.2.2.2.2.N O - - - - ",
"- - - - - - - - - - - - - - - - - - - - - - - - - - - - - - - % < _ 3.2.2.2.2.2.2.2.2.2.N O - - - - ",
"- - - - - - - - - - - - - - - - - - - - - - - - - - - - - - - % < _ 3.2.2.2.2.2.2.2.2.2.N O - - - - ",
"- - - - - - - - - - - - - - - - - - - - - - - - - - - - - - - % < _ 3.2.2.2.2.2.2.2.2.2.N O - - - - ",
"- - - - - - - - - - - - - - - - - - - - - - - - - - - - - - - % < _ 3.2.2.2.2.2.2.2.2.2.N O - - - - ",
"- - - - - - - - - - - $ $ $ $ $ $ $ $ $ $ $ $ $ $ $ $ $ $ $ $ @ , _ 3.2.2.2.2.2.2.2.2.3.N O - - - - ",
"- - - - - - - - - - 4 t y y y y y y y y y y y y y y y y y y y t i ` 3.2.2.2.>.$.@.@.@.#.n O - - - - ",
"- - - - - - - - - o a X.O.o.o.o.o.o.o.o.o.o.o.o.o.o.o.o.o.o.o.o.+.;.2.2.2.3...w u q q q 8 % - - - - ",
"- - - - - - - - - O d -.3.3.3.3.3.3.3.3.3.3.3.3.3.3.3.3.3.3.3.3.2.2.2.2.2.3.' 7 O @ @ @ % - - - - - ",
"- - - - - - - - - O d *.2.2.2.2.2.2.2.2.2.2.2.2.2.2.2.2.2.2.2.2.2.2.2.2.2.3.] 9 % - - - - - - - - - ",
"- - - - - - - - - O d *.2.2.2.2.2.2.2.2.2.2.2.2.2.2.2.2.2.2.2.2.2.2.2.2.2.3.] 9 % - - - - - - - - - ",
"- - - - - + O O O . s *.2.2.2.2.3.3.3.3.3.3.3.3.3.3.3.3.3.3.3.3.3.3.3.3.3.4.} 9 % - - - - - - - - - ",
"- - - - & f b c c x J ;.2.2.2.2.| Y T T T T T T T T T T T T T T T T T T T R H 5 % - - - - - - - - - ",
"- - - - 1 W 3.1.1.1.1.2.2.2.2.3.S % & & & & & & & & & & & & & & & & & & & & & - - - - - - - - - - - ",
"- - - - 1 Q 3.2.2.2.2.2.2.2.2.3.D O - - - - - - - - - - - - - - - - - - - - - - - - - - - - - - - - ",
"- - - - 1 Q 3.2.2.2.2.2.2.2.2.3.D O - - - - - - - - - - - - - - - - - - - - - - - - - - - - - - - - ",
"- - - - 1 Q 3.2.2.2.2.2.2.2.2.3.D O - - - - - - - - - - - - - - - - - - - - - - - - - - - - - - - - ",
"- - - - 1 Q 3.2.2.2.2.2.2.2.2.3.D O - - - - - - - - - - - - - - - - - - - - - - - - - - - - - - - - ",
"- - - - 1 Q 3.2.2.2.2.2.2.2.2.3.D O - - - - - - - - - - - - - - - - - - - - - - - - - - - - - - - - ",
"- - - - 1 Q 3.2.2.2.2.2.2.2.2.3.D O - - - - - - - - - - - - - - - - - - - - - - - - - - - - - - - - ",
"- - - - 1 Q 3.2.2.2.2.2.2.2.2.3.D O - - - - - - - - - - - - - - - - - - - - - - - - - - - - - - - - ",
"- - - - 1 Q 3.2.2.2.2.2.2.2.2.3.D O - - - - - - - - - - - - - - - - - - - - - - - - - - - - - - - - ",
"- - - - 1 Q 3.2.2.2.2.2.2.2.2.3.Z . O O O O O O O O O O O O O O O O O O O O O O O O O O $ - - - - - ",
"- - - - 1 Q 3.2.2.2.2.2.2.2.2.3.U s d d d d d d d d d d d d d d d d d d d d d d d d d d r % - - - - ",
"- - - - 1 Q 3.2.2.2.2.2.2.2.2.2.:.&.*.*.*.*.*.*.*.*.*.*.*.*.*.*.*.*.*.*.*.*.*.*.*.*.*.=.m O - - - - ",
"- - - - 1 Q 3.2.2.2.2.2.2.2.2.2.2.2.2.2.2.2.2.2.2.2.2.2.2.2.2.2.2.2.2.2.2.2.2.2.2.2.2.3.B O - - - - ",
"- - - - 1 Q 3.2.2.2.2.2.2.2.2.2.2.2.2.2.2.2.2.2.2.2.2.2.2.2.2.2.2.2.2.2.2.2.2.2.2.2.2.2.N O - - - - ",
"- - - - 1 Q 3.2.2.2.2.2.2.2.2.2.2.2.2.2.2.2.2.2.2.2.2.2.2.2.2.2.2.2.2.2.2.2.2.2.2.2.2.2.B O - - - - ",
"- - - - 1 ~ 4.3.3.3.3.3.3.3.3.3.3.3.3.3.3.3.3.3.3.3.3.3.3.3.3.3.3.3.3.3.3.3.3.3.3.3.3.3.B O - - - - ",
"- - - - : l V B B B B B B B B B B B B B B B B B B B B B B B B B B B B B B B B B B B B B p $ - - - - ",
"- - - - - + O O O O O O O O O O O O O O O O O O O O O O O O O O O O O O O O O O O O O O $ - - - - - ",
"- - - - - - - - - - - - - - - - - - - - - - - - - - - - - - - - - - - - - - - - - - - - - - - - - - "
};
