/* XPM */
static char *__resized[] = {
/* columns rows colors chars-per-pixel */
"50 50 124 2 ",
"   c #2D262A",
".  c #2D272B",
"X  c #2E272B",
"o  c #2A292B",
"O  c #2B292B",
"+  c #2D282B",
"@  c #2D292B",
"#  c #2C2A2B",
"$  c #2D2A2B",
"%  c #2B2A2C",
"&  c #2B2B2C",
"*  c #2C2A2C",
"=  c #2D2A2C",
"-  c #2C2B2C",
";  c #2B2E2C",
":  c #2B2E2D",
">  c #2A2F2D",
",  c #2B2F2D",
"<  c #2C2C2C",
"1  c #2C2D2C",
"2  c #2B302D",
"3  c #28352F",
"4  c #2A342E",
"5  c #273D30",
"6  c #273D31",
"7  c #263F31",
"8  c #273F31",
"9  c #283930",
"0  c #283A30",
"q  c #283D31",
"w  c #283E31",
"e  c #1F5738",
"r  c #1F5838",
"t  c #274031",
"y  c #274032",
"u  c #264132",
"i  c #264232",
"p  c #244432",
"a  c #264432",
"s  c #234834",
"d  c #234934",
"f  c #215036",
"g  c #205437",
"h  c #205537",
"j  c #205538",
"k  c #205638",
"l  c #205738",
"z  c #1C673C",
"x  c #186D3E",
"c  c #16733F",
"v  c #16743F",
"b  c #1C723F",
"n  c #21613A",
"m  c #167540",
"M  c #167A41",
"N  c #177942",
"B  c #148143",
"V  c #178E47",
"C  c #0E9A49",
"Z  c #169448",
"A  c #179448",
"S  c #169449",
"D  c #169549",
"F  c #169648",
"G  c #169649",
"H  c #169749",
"J  c #149F4C",
"K  c #0DA14B",
"L  c #0DA24B",
"P  c #0CA14C",
"I  c #0DA14C",
"U  c #0CA24C",
"Y  c #0DA24C",
"T  c #0CA34C",
"R  c #0DA34D",
"E  c #0BAA4E",
"W  c #0DAF4F",
"Q  c #11A24C",
"!  c #10AB4F",
"~  c #11AB4F",
"^  c #0DAE50",
"/  c #0DB852",
"(  c #0CB952",
")  c #0DB952",
"_  c #0CBA53",
"`  c #0AC155",
"'  c #0CC255",
"]  c #0DC255",
"[  c #0DC355",
"{  c #0CC455",
"}  c #0DC455",
"|  c #0BC856",
" . c #06D259",
".. c #04D55A",
"X. c #05DD5C",
"o. c #05DD5D",
"O. c #06DD5C",
"+. c #05DE5C",
"@. c #05DF5C",
"#. c #06DE5C",
"$. c #05E05D",
"%. c #05E15D",
"&. c #02E45E",
"*. c #04E45E",
"=. c #03E95F",
"-. c #03EE61",
";. c #04EE61",
":. c #01F161",
">. c #02F062",
",. c #01F262",
"<. c #01F362",
"1. c #00F462",
"2. c #01F462",
"3. c #02F562",
"4. c #02F563",
"5. c #01F863",
"6. c #00FD64",
"7. c #01FC65",
"8. c #00FD65",
"9. c #00FE65",
"0. c #01FE65",
"q. c #00FF65",
"w. c #00FF66",
"e. c #00FF67",
/* pixels */
"< < < < < < < < < < < < < < < < < < < < < < < < < < < < < < < < < < < < < < < < < < < < < < < < < < ",
"< < < < < < < < < < < = @ @ @ @ @ @ @ @ @ @ @ @ @ @ @ @ @ @ @ @ @ @ @ @ @ @ $ < < < < < < < < < < < ",
"< < < < < < < < < < 3 g e e e e e e e e e e e e e e e e e e e e e e e e e r f 2 < < < < < < < < < < ",
"< < < < < < < < < $ g &.,.:.:.:.:.:.:.:.:.:.:.:.:.:.:.:.:.:.:.:.:.:.:.:.:.<. .8 - < < < < < < < < < ",
"< < < < < < < < < @ e ,.w.q.q.q.q.q.q.q.q.q.q.q.q.q.q.q.q.q.q.q.q.q.q.q.q.w.@.t - < < < < < < < < < ",
"< < < < < < < < < @ e :.q.q.q.q.q.q.q.q.q.q.q.q.q.q.q.q.q.q.q.q.q.q.q.q.q.w.+.t - < < < < < < < < < ",
"< < < < < < < < < @ e :.q.q.q.q.q.q.q.q.q.q.q.q.q.q.q.q.q.q.q.q.q.q.q.q.q.w.+.t - < < < < < < < < < ",
"< < < < < $ @ @ @   g :.q.q.q.q.q.w.w.w.w.w.w.w.w.w.w.w.w.w.w.w.w.q.q.q.q.w.X.6 . @ @ @ * < < < < < ",
"< < < < 1 b H D D A ! 5.q.q.q.q...P Y Y Y Y Y Y Y Y Y Y Y Y L I R *.q.q.q.w.-.J S D D H n * < < < < ",
"< < < < , _ e.w.w.w.w.q.q.q.q.w.K o & & & & & & & & & & & & & % > ' w.q.q.q.q.w.w.w.w.e.H @ < < < < ",
"< < < < , / w.q.q.q.q.q.q.q.q.w.L & < < < < < < < < < < < < < < 2 [ w.q.q.q.q.q.q.q.q.w.F @ < < < < ",
"< < < < , / w.q.q.q.q.q.q.q.q.w.Y & < < < < < < < < < < < < < < 2 [ w.q.q.q.q.q.q.q.q.w.F @ < < < < ",
"< < < < , ) w.q.q.q.q.q.q.q.q.w.U & < < < < < < < < < < < < < < 2 [ w.q.q.q.q.q.q.q.q.w.F @ < < < < ",
"< < < < : W 1.:.:.:.:.:.:.:.:.1.C & < < < < < < < < < < < < < < 2 [ w.q.q.q.q.q.q.q.q.w.F @ < < < < ",
"< < < < 1 s r e e e e e e e e r p < < < < < < < < < < < < < < < 2 [ w.q.q.q.q.q.q.q.q.w.F @ < < < < ",
"< < < < < # @ @ @ @ @ @ @ @ @ @ * < < < < < < < < < < < < < < < 2 [ w.q.q.q.q.q.q.q.q.w.F @ < < < < ",
"< < < < < < < < < < < < < < < < < < < < < < < < < < < < < < < < 2 [ w.q.q.q.q.q.q.q.q.w.F @ < < < < ",
"< < < < < < < < < < < < < < < < < < < < < < < < < < < < < < < < 2 [ w.q.q.q.q.q.q.q.q.w.F @ < < < < ",
"< < < < < < < < < < < < < < < < < < < < < < < < < < < < < < < < 2 [ w.q.q.q.q.q.q.q.q.w.F @ < < < < ",
"< < < < < < < < < < < < < < < < < < < < < < < < < < < < < < < < 2 [ w.q.q.q.q.q.q.q.q.w.F @ < < < < ",
"< < < < < < < < < < < < < < < < < < < < < < < < < < < < < < < < 2 [ w.q.q.q.q.q.q.q.q.w.F @ < < < < ",
"< < < < < < < < < < < < < < < < < < < < < < < < < < < < < < < < 2 [ w.q.q.q.q.q.q.q.q.w.F @ < < < < ",
"< < < < < < < < < < < < < < < < < < < < < < < < < < < < < < < < 2 [ w.q.q.q.q.q.q.q.q.w.F @ < < < < ",
"< < < < < < < < < < < < < < < < < < < < < < < < < < < < < < < < 2 [ w.q.q.q.q.q.q.q.q.w.F @ < < < < ",
"< < < < < < < < < < < < < < < < < < < < < < 2 2 2 2 2 2 2 2 2 2 4 } w.q.q.q.0.6.6.6.6.q.Z @ < < < < ",
"< < < < < < < < < < < < < < < < < < < < - 0 ~ { [ [ [ [ [ [ [ [ } ;.q.q.q.w.=.B c v v m f - < < < < ",
"< < < < < < < < < < < < < < < < < < < < - y %.e.w.w.w.w.w.w.w.w.w.q.q.q.q.w.X.5 . @ @ + * < < < < < ",
"< < < < < < < < < < < < < < < < < < < < - t +.w.q.q.q.q.q.q.q.q.q.q.q.q.q.w.+.t - < < < < < < < < < ",
"< < < < < < < < < < < < < < < < < < < < - t +.w.q.q.q.q.q.q.q.q.q.q.q.q.q.w.+.t - < < < < < < < < < ",
"< < < < < < < < < < < < < < < < < < < < - t @.w.w.w.w.w.w.w.w.w.w.q.q.q.q.w.X.w + @ @ @ - < < < < < ",
"< < < < < < < < < < < < < < < < < < < < - q ` @.+.+.+.+.+.+.+.X.#.3.q.q.q.w.*.z k e e r i - < < < < ",
"< < < < < < < < < < < < < < < < < < < < < : q t t t t t t t t t a | w.q.q.q.7.,.:.:.:.1.V @ < < < < ",
"< < < < < < < < < < < < < < < < < < < < < < - - - - - - - - - * , ] w.q.q.q.q.q.q.q.q.w.G @ < < < < ",
"< < < < < < < < < < < < < < < < < < < < < < < < < < < < < < < < 2 [ w.q.q.q.q.q.q.q.q.w.F @ < < < < ",
"< < < < < < < < < < < < < < < < < < < < < < < < < < < < < < < < 2 [ w.q.q.q.q.q.q.q.q.w.F @ < < < < ",
"< < < < < - & & & & & & & & & & - < < < < < < < < < < < < < < < 2 [ w.q.q.q.q.q.q.q.q.w.F @ < < < < ",
"< < < < 1 M T Y Y Y Y Y Y Y Y T x - < < < < < < < < < < < < < < 2 [ w.q.q.q.q.q.q.q.q.w.F @ < < < < ",
"< < < < ; _ e.w.w.w.w.w.w.w.w.e.T & < < < < < < < < < < < < < < 2 [ w.q.q.q.q.q.q.q.q.w.F @ < < < < ",
"< < < < , / w.q.q.q.q.q.q.q.q.w.Y & < < < < < < < < < < < < < < 2 [ w.q.q.q.q.q.q.q.q.w.F @ < < < < ",
"< < < < , / w.q.q.q.q.q.q.q.q.w.Y & < < < < < < < < < < < < < < 2 [ w.q.q.q.q.q.q.q.q.w.F @ < < < < ",
"< < < < , ) w.q.q.q.q.q.q.q.q.w.K O - - - - - - - - - - - - - * , ] w.q.q.q.q.q.q.q.q.w.G @ < < < < ",
"< < < < : W 1.:.:.:.2.9.q.q.q.w.E 7 t t t t t t t t t t t t t t a | w.q.q.q.8.,.:.:.:.1.V @ < < < < ",
"< < < < 1 s r e e j N 2.q.q.q.q.>.o.+.+.+.+.+.+.+.+.+.+.+.+.+.X.#.4.q.q.q.w.*.z k e e r u - < < < < ",
"< < < < < # @ @ @ X h :.q.q.q.q.q.w.w.w.w.w.w.w.w.w.w.w.w.w.w.w.w.q.q.q.q.w.O.w + @ @ @ - < < < < < ",
"< < < < < < < < < @ e :.q.q.q.q.q.q.q.q.q.q.q.q.q.q.q.q.q.q.q.q.q.q.q.q.q.w.+.t - < < < < < < < < < ",
"< < < < < < < < < @ l :.q.q.q.q.q.q.q.q.q.q.q.q.q.q.q.q.q.q.q.q.q.q.q.q.q.w.+.t - < < < < < < < < < ",
"< < < < < < < < < @ r 1.w.w.w.w.w.w.w.w.w.w.w.w.w.w.w.w.w.w.w.w.w.w.w.w.w.e.$.y - < < < < < < < < < ",
"< < < < < < < < < # d ^ ( / / / / / / / / / / / / / / / / / / / / / / / / ( Q 9 - < < < < < < < < < ",
"< < < < < < < < < < 1 : : : : : : : : : : : : : : : : : : : : : : : : : : : : < < < < < < < < < < < ",
"< < < < < < < < < < < < < < < < < < < < < < < < < < < < < < < < < < < < < < < < < < < < < < < < < < "
};
