/* XPM */
static char *__resized[] = {
/* columns rows colors chars-per-pixel */
"50 50 67 1 ",
"  c #2C272B",
". c #2D282B",
"X c #2D292B",
"o c #2D2A2B",
"O c #2B2B2C",
"+ c #2C2B2C",
"@ c #2B2C2C",
"# c #2B2D2C",
"$ c #2B2D2D",
"% c #2B2E2D",
"& c #2C2C2C",
"* c #2C2D2C",
"= c #27362E",
"- c #27362F",
"; c #29322E",
": c #28342E",
"> c #263B30",
", c #1F4E35",
"< c #1F4F35",
"1 c #1C5737",
"2 c #244834",
"3 c #234E35",
"4 c #205F3A",
"5 c #1F603A",
"6 c #1F673C",
"7 c #1F683C",
"8 c #1F6A3D",
"9 c #20603A",
"0 c #187440",
"q c #168143",
"w c #178243",
"e c #168A45",
"r c #168B45",
"t c #168B46",
"y c #168C46",
"u c #0E9C4A",
"i c #119649",
"p c #0DA04B",
"a c #0DA24C",
"s c #0CA34C",
"d c #0DAD4F",
"f c #0CAF50",
"g c #0DB250",
"h c #0DB752",
"j c #0DB852",
"k c #0CBA52",
"l c #0DBA53",
"z c #09BC53",
"x c #05CC57",
"c c #06CC57",
"v c #05CF58",
"b c #09CC58",
"n c #04D45A",
"m c #07D75B",
"M c #01EC60",
"N c #00ED60",
"B c #01ED60",
"V c #01F663",
"C c #00F964",
"Z c #01F964",
"A c #00FA64",
"S c #01FB64",
"D c #00FD65",
"F c #00FE65",
"G c #00FF65",
"H c #00FF66",
"J c #00FF67",
/* pixels */
"&&&&&&&&&&&&&&&&&&&&&&&&&&&&&&&&&&&&&&&&&&&&&&&&&&",
"&&&&&&&&&&&&&&&&&&&&&&&&&&&&&&&&&&&&&&&&&&&&&&&&&&",
"&&&&&@#$$$$$$$$#*&&&&&&&&&&&&&&&&@#$$$$$$$$#*&&&&&",
"&&&&#qfddddddddf0+&&&&&&&&&&&&&&#qfddddddddf0+&&&&",
"&&&&%kJHHHHHHHHJsO&&&&&&&&&&&&&&%kJHHHHHHHHJsO&&&&",
"&&&&%jHGGGGGGGGHaO&&&&&&&&&&&&&&%jHGGGGGGGGHaO&&&&",
"&&&&%jHGGGGGGGGHaO&&&&&&&&&&&&&&%jHGGGGGGGGHaO&&&&",
"&&&&%jHGGGGGGGGHaO&&&&&&&&&&&&&&%jHGGGGGGGGHaO&&&&",
"&&&&%jHGGGGGGGGHaO&&&&&&&&&&&&&&%jHGGGGGGGGHaO&&&&",
"&&&&%jHGGGGGGGGHaO&&&&&&&&&&&&&&%jHGGGGGGGGHaO&&&&",
"&&&&%jHGGGGGGGGHaO&&&&&&&&&&&&&&%jHGGGGGGGGHaO&&&&",
"&&&&%jHGGGGGGGGHaO&&&&&&&&&&&&&&%jHGGGGGGGGHaO&&&&",
"&&&&%jHGGGGGGGGHaO&&&&&&&&&&&&&&%jHGGGGGGGGHaO&&&&",
"&&&&%jHGGGGGGGGHaO&&&&&&&&&&&&&&%jHGGGGGGGGHaO&&&&",
"&&&&%jHGGGGGGGGHaO&&&&&&&&&&&&&&%jHGGGGGGGGHaO&&&&",
"&&&&%jHGGGGGGGGHaO&&&&&&&&&&&&&&%jHGGGGGGGGHaO&&&&",
"&&&&%jHGGGGGGGGHaO&&&&&&&&&&&&&&%jHGGGGGGGGHaO&&&&",
"&&&&%jHGGGGGGGGHaO&&&&&&&&&&&&&&%jHGGGGGGGGHaO&&&&",
"&&&&%jHGGGGGGGGHaO&&&&&&&&&&&&&&%jHGGGGGGGGHaO&&&&",
"&&&&%jHGGGGGGGGHaO&&&&&&&&&&&&&&%jHGGGGGGGGHaO&&&&",
"&&&&%jHGGGGGGGGHaO&&&&&&&&&&&&&&%jHGGGGGGGGHaO&&&&",
"&&&&%jHGGGGGGGGHaO&&&&&&&&&&&&&&%jHGGGGGGGGHaO&&&&",
"&&&&%jHGGGGGGGGHaO&&&&&&&&&&&&&&%jHGGGGGGGGHaO&&&&",
"&&&&%jHGGGGGGGGHaO&&&&&&&&&&&&&&%jHGGGGGGGGHaO&&&&",
"&&&&%lJHHHHGGGGHp .XXXXXXXXXXXX.+hHGGGGGGGGHaO&&&&",
"&&&&%ivxxcnAGGGHz6777777777777778bHGGGGGGGGHaO&&&&",
"&&&&&;-==:1BGGGGDSSSSSSSSSSSSSSSSFGGGGGGGGGHaO&&&&",
"&&&&&&+++o,MGGGGGGGGGGGGGGGGGGGGGGGGGGGGGGGHaO&&&&",
"&&&&&&&&&o<MGGGGGGGGGGGGGGGGGGGGGGGGGGGGGGGHaO&&&&",
"&&&&&&&&&o<MGGGGGGGGGGGGGGGGGGGGGGGGGGGGGGGHaO&&&&",
"&&&&&&&&&o,NHGGGGGGGGGGGGGGGGGGGGGGGGGGGGGGHaO&&&&",
"&&&&&&&&&+>wtrrrrrrrrrrrrrrrrrreymHGGGGGGGGHaO&&&&",
"&&&&&&&&&&+XXXXXXXXXXXXXXXXXXXXX+hHGGGGGGGGHaO&&&&",
"&&&&&&&&&&&&&&&&&&&&&&&&&&&&&&&&%jHGGGGGGGGHaO&&&&",
"&&&&&&&&&&&&&&&&&&&&&&&&&&&&&&&&%jHGGGGGGGGHaO&&&&",
"&&&&&&&&&&&&&&&&&&&&&&&&&&&&&&&&%jHGGGGGGGGHaO&&&&",
"&&&&&&&&&&&&&&&&&&&&&&&&&&&&&&&&%jHGGGGGGGGHaO&&&&",
"&&&&&&&&&&&&&&&&&&&&&&&&&&&&&&&&%jHGGGGGGGGHaO&&&&",
"&&&&&&&&&&&&&&&&&&&&&&&&&&&&&&&&%jHGGGGGGGGHaO&&&&",
"&&&&&&&&&&&&&&&&&&&&&&&&&&&&&&&&%jHGGGGGGGGHaO&&&&",
"&&&&&&&&&&&&&&&&&&&&&&&&&&&&&&&&%jHGGGGGGGGHaO&&&&",
"&&&&&&&&&&&&&&&&&&&&&&&&&&&&&&&&%jHGGGGGGGGHaO&&&&",
"&&&&&&&&&&&&&&&&&&&&&&&&&&&&&&&&%jHGGGGGGGGHaO&&&&",
"&&&&&&&&&&&&&&&&&&&&&&&&&&&&&&&&%jHGGGGGGGGHaO&&&&",
"&&&&&&&&&&&&&&&&&&&&&&&&&&&&&&&&%jHGGGGGGGGHaO&&&&",
"&&&&&&&&&&&&&&&&&&&&&&&&&&&&&&&&%jHGGGGGGGGHaO&&&&",
"&&&&&&&&&&&&&&&&&&&&&&&&&&&&&&&&%jHGGGGGGGGHaO&&&&",
"&&&&&&&&&&&&&&&&&&&&&&&&&&&&&&&&%gCVVVVVVVVZuO&&&&",
"&&&&&&&&&&&&&&&&&&&&&&&&&&&&&&&&*354444444492&&&&&",
"&&&&&&&&&&&&&&&&&&&&&&&&&&&&&&&&&o.XXXXXXXX.o&&&&&"
};
