/* XPM */
static char *__resized[] = {
/* columns rows colors chars-per-pixel */
"50 50 90 1 ",
"  c #2D272B",
". c #2D282B",
"X c #2C292B",
"o c #2D292B",
"O c #2C2A2B",
"+ c #2D2A2B",
"@ c #2B2B2C",
"# c #2C2A2C",
"$ c #2D2A2C",
"% c #2C2B2C",
"& c #2B2C2C",
"* c #2B2D2C",
"= c #2B2E2D",
"- c #2A2F2D",
"; c #2B2F2D",
": c #2C2C2C",
"> c #27362F",
", c #29322E",
"< c #28352F",
"1 c #29372F",
"2 c #273930",
"3 c #273B30",
"4 c #283C30",
"5 c #1F4E35",
"6 c #1F4F35",
"7 c #1E5838",
"8 c #1D5F3A",
"9 c #244132",
"0 c #274232",
"q c #274332",
"w c #274432",
"e c #264533",
"r c #274533",
"t c #204D35",
"y c #225236",
"u c #1F603A",
"i c #1C633B",
"p c #1C663C",
"a c #16743F",
"s c #16753F",
"d c #167540",
"f c #167E43",
"g c #167F43",
"h c #197F43",
"j c #168143",
"k c #168B46",
"l c #128E47",
"z c #138E47",
"x c #168C46",
"c c #109348",
"v c #0EA14C",
"b c #0DAB4F",
"n c #0DAC4F",
"m c #0CAD4F",
"M c #0DAD4F",
"N c #0CAE4F",
"B c #0DAE4F",
"V c #10A74D",
"C c #0CAE50",
"Z c #0CAF50",
"A c #0BB652",
"S c #0DB852",
"D c #0DB952",
"F c #09C154",
"G c #07C957",
"H c #05CC57",
"J c #05CF58",
"K c #05D55A",
"L c #0AD058",
"P c #05D85B",
"I c #05DA5B",
"U c #04E35E",
"Y c #05E65E",
"T c #05E75F",
"R c #05E85F",
"E c #05E95F",
"W c #04EA5F",
"Q c #01EC60",
"! c #01EE60",
"~ c #01EE61",
"^ c #03F061",
"/ c #02F562",
"( c #01F663",
") c #01FA64",
"_ c #01FB64",
"` c #00FD64",
"' c #00FE65",
"] c #00FF65",
"[ c #00FF66",
"{ c #00FF67",
/* pixels */
"::::::::::::::::::::::::::::::::::::::::::::::::::",
":::::$oooooooooooooooooooooooooooooooooooooo$:::::",
":::::8jggggggggggggggggggggggggggggggggggggj8:::::",
"::::*m[]]]]]]]]]]]]]]]]]]]]]]]]]]]]]]]]]]]][m*::::",
"::::*M[]]]]]]]]]]]]]]]]]]]]]]]]]]]]]]]]]]]][M*::::",
"::::*M[]]]]]]]]]]]]]]]]]]]]]]]]]]]]]]]]]]]][M*::::",
"::::*M[]]]]]]]]]]]]]]]]]]]]]]]]]]]]]]]]]]]][M*::::",
"::::*M[]]]]]]]]]'``````````````````````````]b*::::",
"::::*M[]]]]]]]][Gsaaaaaaaaaaaaaaaaaaaaaaaaad7:::::",
"::::*M[]]]]]]]][bX.ooooooooooooooooooooooooo+:::::",
"::::*M[]]]]]]]][M*::::::::::::::::::::::::::::::::",
"::::*M[]]]]]]]][M*::::::::::::::::::::::::::::::::",
"::::*M[]]]]]]]][M*::::::::::::::::::::::::::::::::",
"::::*M[]]]]]]]][M*::::::::::::::::::::::::::::::::",
"::::*M[]]]]]]]][M*::::::::::::::::::::::::::::::::",
"::::*M[]]]]]]]][M*::::::::::::::::::::::::::::::::",
"::::*M[]]]]]]]][M*::::::::::::::::::::::::::::::::",
"::::*M[]]]]]]]][M*::::::::::::::::::::::::::::::::",
"::::*M[]]]]]]]][M*::::::::::::::::::::::::::::::::",
"::::*M[]]]]]]]][M*::::::::::::::::::::::::::::::::",
"::::*M[]]]]]]]][M*::::::::::::::::::::::::::::::::",
"::::*M[]]]]]]]][M*::::::::::::::::::::::::::::::::",
"::::*M[]]]]]]]][M*::::::::::::::::::::::::::::::::",
"::::*B{]]]]]]]][n@#####################:::::::::::",
"::::*v~QQQ!`]]][Aerrrrrrrrrrrrrrrrrrrr0;::::::::::",
":::::9655tiW]]]]/YYYYYYYYYYYYYYYYYYYYRL0#:::::::::",
":::::#+++.qY[]]]][[[[[[[[[[[[[[[[[[[[[Rr#:::::::::",
":::::::::#rY[]]]]]]]]]]]]]]]]]]]]]]]][Yr#:::::::::",
":::::::::#rY[]]]]]]]]]]]]]]]]]]]]]]]][Yr#:::::::::",
":::::::::#rE{[[[[[[[[[[[[[[[[[[[[]]]][Y0 ooo$:::::",
":::::::::%4VDSSSSSSSSSSSSSSSSSSSSU[]]]^zfggj8:::::",
":::::::::::=====================-N[]]]]]]]][m*::::",
"::::::::::::::::::::::::::::::::&M[]]]]]]]][M*::::",
"::::::::::::::::::::::::::::::::*M[]]]]]]]][M*::::",
"::::::%%%%%%%%%%::::::::::::::::*M[]]]]]]]][M*::::",
":::::,>>>>>>>>>>,:::::::::::::::*M[]]]]]]]][M*::::",
"::::&lJHHHHHHHHJl&::::::::::::::*M[]]]]]]]][M*::::",
"::::*Z{[[[[[[[[{Z*::::::::::::::*M[]]]]]]]][M*::::",
"::::*M[]]]]]]]][M*::::::::::::::*M[]]]]]]]][M*::::",
"::::*M[]]]]]]]][M*::::::::::::::*M[]]]]]]]][M*::::",
"::::*M[]]]]]]]][nOooooooooooooooOn[]]]][[[[{C*::::",
"::::*M[]]]]]]]][FuuuuuuuuuuuuuuuuF[]]])IKKKPc*::::",
"::::*M[]]]]]]]]]_((((((((((((((((_]]]]Ry2333<:::::",
"::::*M[]]]]]]]]]]]]]]]]]]]]]]]]]]]]]][Yw+%%%%:::::",
"::::*M[]]]]]]]]]]]]]]]]]]]]]]]]]]]]]][Yr#:::::::::",
"::::*M[]]]]]]]]]]]]]]]]]]]]]]]]]]]]]][Yr#:::::::::",
"::::*N{[[[[[[[[[[[[[[[[[[[[[[[[[[[[[[[Tr#:::::::::",
":::::pxkkkkkkkkkkkkkkkkkkkkkkkkkkkkkkkh1%:::::::::",
":::::+ooooooooooooooooooooooooooooooooo:::::::::::",
"::::::::::::::::::::::::::::::::::::::::::::::::::"
};
