/* XPM */
static char *__resized[] = {
/* columns rows colors chars-per-pixel */
"50 50 106 2 ",
"   c #2D272A",
".  c #2C272B",
"X  c #2D272B",
"o  c #2D282B",
"O  c #2C292B",
"+  c #2D292B",
"@  c #2C2A2B",
"#  c #2D2A2B",
"$  c #2B2B2C",
"%  c #2C2A2C",
"&  c #2D2A2C",
"*  c #2C2B2C",
"=  c #2B2C2C",
"-  c #2B2D2C",
";  c #2B2D2D",
":  c #2B2E2D",
">  c #2C2C2C",
",  c #2B312D",
"<  c #29342E",
"1  c #28362F",
"2  c #273D31",
"3  c #273F31",
"4  c #283C30",
"5  c #1F4D35",
"6  c #1F4E35",
"7  c #1F4F35",
"8  c #1F5036",
"9  c #1C5F3A",
"0  c #274031",
"q  c #264032",
"w  c #274232",
"e  c #274533",
"r  c #284132",
"t  c #204D35",
"y  c #204E35",
"u  c #215738",
"i  c #205B39",
"p  c #1D603A",
"a  c #1F603A",
"s  c #1F683C",
"d  c #1F6A3D",
"f  c #1C6D3E",
"g  c #20633B",
"h  c #177440",
"j  c #167F43",
"k  c #168143",
"l  c #168243",
"z  c #168144",
"x  c #148845",
"c  c #168A45",
"v  c #168B45",
"b  c #168C46",
"n  c #169548",
"m  c #149649",
"M  c #159749",
"N  c #169648",
"B  c #149949",
"V  c #0DA04B",
"C  c #0DA04C",
"Z  c #0DA14C",
"A  c #0DA24C",
"S  c #0CA34C",
"D  c #0CA44D",
"F  c #0DAC4F",
"G  c #0CAD4F",
"H  c #0DAD4F",
"J  c #10A74D",
"K  c #0CAF50",
"L  c #0BB451",
"P  c #0CB451",
"I  c #0DB751",
"U  c #0DB752",
"Y  c #09BA53",
"T  c #0DB852",
"R  c #0CB952",
"E  c #0CBA52",
"W  c #07CB57",
"Q  c #0AC857",
"!  c #09CC58",
"~  c #06D55A",
"^  c #07D75B",
"/  c #07D85A",
"(  c #05DD5C",
")  c #05DE5C",
"_  c #05DF5D",
"`  c #02E35E",
"'  c #05E65F",
"]  c #02E85F",
"[  c #05E85F",
"{  c #05E960",
"}  c #00EC60",
"|  c #01EC60",
" . c #03EC60",
".. c #00EE60",
"X. c #02F262",
"o. c #01F663",
"O. c #00F763",
"+. c #01F763",
"@. c #01F863",
"#. c #01FB64",
"$. c #01FC64",
"%. c #00FE65",
"&. c #00FF65",
"*. c #01FF65",
"=. c #00FF66",
"-. c #00FF67",
/* pixels */
"> > > > > > > > > > > > > > > > > > > > > > > > > > > > > > > > > > > > > > > > > > > > > > > > > > ",
"> > > > > > > > > > > > > > > > = ; ; ; ; ; ; ; ; ; ; ; ; ; ; ; ; > > > > > > > > > > > > > > > > > ",
"> > > > > > > > > > > > > > > & 9 G H H H H H H H H H H H H H H K f @ > > > > > > > > > > > > > > > ",
"> > > > > > > > > > > > > > > + z =.=.=.=.=.=.=.=.=.=.=.=.=.=.=.-.M + > > > > > > > > > > > > > > > ",
"> > > > > > > > > > > > > > > + j &.&.&.&.&.&.&.&.&.&.&.&.&.&.&.=.N + > > > > > > > > > > > > > > > ",
"> > > > > > > > > > > > > > > + j &.&.&.&.&.&.&.&.&.&.&.&.&.&.&.=.N + > > > > > > > > > > > > > > > ",
"> > > > > > > > > > > % % % % X j &.&.&.&.&.&.&.&.&.&.&.&.&.&.&.=.n   % % % % % % % % % * > > > > > ",
"> > > > > > > > > > : r e e e w x } | | | | | | | | | | | | | | ..B w e e e e e e e e e 4 > > > > > ",
"> > > > > > > > > * 2 Q [ ' ' [ P 8 6 6 6 6 6 6 6 6 6 6 6 6 6 6 5 D [ ' ' ' ' ' ' ' ' { J : > > > > ",
"> > > > > > > > > % 0 _ -.&.&.=.T > # # # # # # # # # # # # # # O Z =.&.&.&.&.&.&.&.&.-.R : > > > > ",
"> > > > > > > > > * 0 ) =.&.&.=.T : > > > > > > > > > > > > > > $ A =.&.&.&.&.&.&.&.&.=.T : > > > > ",
"> > > > > > > > > * 0 ) =.&.&.=.T : > > > > > > > > > > > > > > $ A =.&.&.&.&.&.&.&.&.=.T : > > > > ",
"> > > > > % + + + X 2 ( =.&.&.=.T : > > > > > > > > > > > > > > $ S -.=.=.=.=.=.=.=.=.-.E : > > > > ",
"> > > > * p b v v c m  .=.&.&.=.T : > > > > > > > > > > > > > > * h K H H H H H H H H K l - > > > > ",
"> > > > $ A -.=.=.=.=.*.*.&.&.=.T : > > > > > > > > > > > > > > > > - - - - - - - - - - = > > > > > ",
"> > > > $ Z =.&.&.&.&.&.&.&.&.=.T : > > > > > > > > > > > > > > > > > > > > > > > > > > > > > > > > ",
"> > > > $ A =.&.&.&.&.&.&.&.&.=.T : > > > > > > > > > > > > > > > > > > > > > > > > > > > > > > > > ",
"> > > > $ A =.&.&.&.&.&.&.&.&.=.T : > > > > > > > > > > > > > > > > > > > > > > > > > > > > > > > > ",
"> > > > $ A =.&.&.&.&.&.&.&.&.=.T : > > > > > > > > > > > > > > > > > > > > > > > > > > > > > > > > ",
"> > > > $ A =.&.&.&.&.&.&.&.&.=.T : > > > > > > > > > > > > > > > > > > > > > > > > > > > > > > > > ",
"> > > > $ A =.&.&.&.&.&.&.&.&.=.T : > > > > > > > > > > > > > > > > > > > > > > > > > > > > > > > > ",
"> > > > $ A =.&.&.&.&.&.&.&.&.=.T : > > > > > > > > > > > > > > > > > > > > > > > > > > > > > > > > ",
"> > > > $ A =.&.&.&.&.&.&.&.&.=.T : > > > > > > > > > > > > > > > > > > > > > > > > > > > > > > > > ",
"> > > > $ A =.&.&.&.&.&.&.&.&.=.U * o o o o o o o o o o o o o o o o o o o o + > > > > > > > > > > > ",
"> > > > $ A =.&.&.&.&.&.&.&.&.=.! d s s s s s s s s s s s s s s s s s s s s g 1 * > > > > > > > > > ",
"> > > > $ A =.&.&.&.&.&.&.&.&.&.%.#.#.#.#.#.#.#.#.#.#.#.#.#.#.#.#.#.#.#.#.$.] y # > > > > > > > > > ",
"> > > > $ A =.&.&.&.&.&.&.&.&.&.&.&.&.&.&.&.&.&.&.&.&.&.&.&.&.&.&.&.&.&.&.&.| 7 # > > > > > > > > > ",
"> > > > $ A =.&.&.&.&.&.&.&.&.&.&.&.&.&.&.&.&.&.&.&.&.&.&.&.&.&.&.&.&.&.&.&.| 7 # > > > > > > > > > ",
"> > > > $ A =.&.&.&.&.&.&.&.&.&.&.&.&.&.&.&.&.&.&.&.&.&.&.&.&.&.&.&.&.&.&.&.| 7 # > > > > > > > > > ",
"> > > > $ A =.&.&.&.&.&.&.&.&.&.&.&.&.&.&.&.&.&.&.&.&.&.&.&.&.&.&.=.&.&.&.&.| 7 * ; ; - = > > > > > ",
"> > > > $ A =.&.&.&.&.&.&.&.&.=.^ b v v v v v v v v v v v v v v c W &.&.&.&.O.Y F H H K k - > > > > ",
"> > > > $ A =.&.&.&.&.&.&.&.&.=.U * o + + + + + + + + + + + + + . V =.&.&.&.&.=.=.=.=.-.E : > > > > ",
"> > > > $ A =.&.&.&.&.&.&.&.&.=.T : > > > > > > > > > > > > > > $ A =.&.&.&.&.&.&.&.&.=.T : > > > > ",
"> > > > $ A =.&.&.&.&.&.&.&.&.=.T : > > > > > > > > > > > > > > $ A =.&.&.&.&.&.&.&.&.=.T : > > > > ",
"> > > > $ A =.&.&.&.&.&.&.&.&.=.T : > > > > > > > > > > > > > > $ A =.&.&.&.&.&.&.&.&.=.T : > > > > ",
"> > > > $ A =.&.&.&.&.&.&.&.&.=.T : > > > > > > > > > > > > > > $ A =.&.&.&.&.&.&.&.&.=.T : > > > > ",
"> > > > $ A =.&.&.&.&.&.&.&.&.=.T : > > > > > > > > > > > > > > $ A =.&.&.&.&.&.&.&.&.=.T : > > > > ",
"> > > > $ A =.&.&.&.&.&.&.&.&.=.T : > > > > > > > > > > > > > > $ A =.&.&.&.&.&.&.&.&.=.T : > > > > ",
"> > > > $ A =.&.&.&.&.&.&.&.&.=.T : > > > > > > > > > > > > > > $ A =.&.&.&.&.&.&.&.&.=.T : > > > > ",
"> > > > $ A =.&.&.&.&.&.&.&.&.=.T : > > > > > > > > > > > > > > $ A =.&.&.&.&.&.&.&.&.=.T : > > > > ",
"> > > > $ S -.=.=.=.=.&.&.&.&.=.I * o + + + + + + + + + + + + + . C =.&.&.&.&.=.=.=.=.-.E : > > > > ",
"> > > > * h K H H F L X.=.&.&.=./ b v v v v v v v v v v v v v v c W =.&.&.&.O.Y F H H K l - > > > > ",
"> > > > > > - - - $ q ) =.&.&.*.&.=.=.=.=.=.=.=.=.=.=.=.=.=.=.=.=.*.*.&.&.&.| 7 @ - - - = > > > > > ",
"> > > > > > > > > % 0 ) =.&.&.&.&.&.&.&.&.&.&.&.&.&.&.&.&.&.&.&.&.&.&.&.&.&.| 6 # > > > > > > > > > ",
"> > > > > > > > > * 0 ) =.&.&.&.&.&.&.&.&.&.&.&.&.&.&.&.&.&.&.&.&.&.&.&.&.&.| 7 # > > > > > > > > > ",
"> > > > > > > > > * 0 ) =.&.&.&.&.&.&.&.&.&.&.&.&.&.&.&.&.&.&.&.&.&.&.&.&.=.| y # > > > > > > > > > ",
"> > > > > > > > > * 3 ~ @.o.o.o.o.o.o.o.o.o.o.o.o.o.o.o.o.o.o.o.o.o.o.o.o.+.` t # > > > > > > > > > ",
"> > > > > > > > > > , u a a a a a a a a a a a a a a a a a a a a a a a a a a i < * > > > > > > > > > ",
"> > > > > > > > > > > # + + + + + + + + + + + + + + + + + + + + + + + + + + + > > > > > > > > > > > ",
"> > > > > > > > > > > > > > > > > > > > > > > > > > > > > > > > > > > > > > > > > > > > > > > > > > "
};
