/* XPM */
static char *__resized[] = {
/* columns rows colors chars-per-pixel */
"50 50 104 2 ",
"   c #2D262A",
".  c #2D262B",
"X  c #2D272B",
"o  c #2E272B",
"O  c #2A292B",
"+  c #2B292B",
"@  c #2D292B",
"#  c #2C2A2B",
"$  c #2D2A2B",
"%  c #2B2B2C",
"&  c #2C2A2C",
"*  c #2D2A2C",
"=  c #2C2B2C",
"-  c #2B2E2C",
";  c #2B2E2D",
":  c #2B2F2D",
">  c #2C2C2C",
",  c #2C2D2C",
"<  c #2C2D2D",
"1  c #2C2E2C",
"2  c #2C2F2D",
"3  c #2A302D",
"4  c #2B302D",
"5  c #2A342E",
"6  c #273D30",
"7  c #263F31",
"8  c #273F31",
"9  c #283D30",
"0  c #283D31",
"q  c #1F5738",
"w  c #1F5838",
"e  c #274031",
"r  c #264232",
"t  c #234834",
"y  c #234B35",
"u  c #215036",
"i  c #205437",
"p  c #205537",
"a  c #205538",
"s  c #205738",
"d  c #1C603A",
"f  c #1C673C",
"g  c #16723F",
"h  c #16733F",
"j  c #16743F",
"k  c #1D723F",
"l  c #167540",
"z  c #177942",
"x  c #148143",
"c  c #178E47",
"v  c #109047",
"b  c #169047",
"n  c #169448",
"m  c #169548",
"M  c #169549",
"N  c #169648",
"B  c #169649",
"V  c #169749",
"C  c #169849",
"Z  c #0DA14B",
"A  c #0DA24B",
"S  c #0CA14C",
"D  c #0DA14C",
"F  c #0DA24C",
"G  c #0CA34C",
"H  c #0BAA4E",
"J  c #0DAF4F",
"K  c #0DB852",
"L  c #0DB952",
"P  c #0CBA53",
"I  c #0AC155",
"U  c #0CC154",
"Y  c #0CC155",
"T  c #0DC254",
"R  c #0DC255",
"E  c #0DC355",
"W  c #0DC455",
"Q  c #0CC555",
"!  c #06D259",
"~  c #04D55A",
"^  c #05DD5C",
"/  c #05DD5D",
"(  c #05DE5C",
")  c #05DF5C",
"_  c #06E15D",
"`  c #03E95F",
"'  c #04EE61",
"]  c #01F161",
"[  c #02F061",
"{  c #01F162",
"}  c #02F062",
"|  c #01F362",
" . c #00F462",
".. c #01F462",
"X. c #01F563",
"o. c #01F663",
"O. c #00FD64",
"+. c #00FD65",
"@. c #00FE65",
"#. c #01FE65",
"$. c #00FF65",
"%. c #00FE66",
"&. c #00FF66",
"*. c #00FF67",
/* pixels */
"> > > > > > > > > > > > > > > > > > > > > > > > > > > > > > > > > > > > > > > > > > > > > > > > > > ",
"> > > > > = @ # # # # # # # # # # # # # # # # # # # # # # # # # # # # # # # # # # # # @ * > > > > > ",
"> > > > = r w q q q q q q q q q q q q q q q q q q q q q q q q q q q q q q q q q q q q w t , > > > > ",
"> > > > @ c  .] ] ] ] ] ] ] ] ] ] ] ] ] ] ] ] ] ] ] ] ] ] ] ] ] ] ] ] ] ] ] ] ] ] ] ]  .J ; > > > > ",
"> > > > @ N &.$.$.$.$.$.$.$.$.$.$.$.$.$.$.$.$.$.$.$.$.$.$.$.$.$.$.$.$.$.$.$.$.$.$.$.$.&.L : > > > > ",
"> > > > @ M &.$.$.$.$.$.$.$.$.$.$.$.$.$.$.$.$.$.$.$.$.$.$.$.$.$.$.$.$.$.$.$.$.$.$.$.$.&.K : > > > > ",
"> > > > @ M &.$.$.$.$.$.$.$.$.$.$.$.$.$.$.$.$.$.$.$.$.$.$.$.$.$.$.$.$.$.$.$.$.$.$.$.$.&.K : > > > > ",
"> > > > @ V *.&.&.&.&.&.&.&.&.&.&.&.&.&.&.&.&.&.&.&.&.&.&.&.&.&.&.$.$.$.$.$.$.$.$.$.$.&.K : > > > > ",
"> > > > & f G F F F F F F F F F F F F F F F F F F F F F F F F F S ~ $.$.$.$.$.$.$.$.$.&.K : > > > > ",
"> > > > > = % % % % % % % % % % % % % % % % % % % % % % % % % % O Z &.$.$.$.$.$.$.$.$.&.K : > > > > ",
"> > > > > > > > > > > > > > > > > > > > > > > > > > > > > > > > % A &.$.$.$.$.$.$.$.$.&.K : > > > > ",
"> > > > > > > > > > > > > > > > > > > > > > > > > > > > > > > > % F &.$.$.$.$.$.$.$.$.&.K : > > > > ",
"> > > > > > > > > > > > > > > > > > > > > > > > > > > > = = = = + Z &.$.$.$.$.$.$.$.$.&.L : > > > > ",
"> > > > > > > > > > > > > > > > > > > > > > > > > > > 3 8 e e e 7 H &.$.$.$.@...] ] ]  .J ; > > > > ",
"> > > > > > > > > > > > > > > > > > > > > > > > > > $ u ! ) ( ( / } $.$.$.$...z a q q w t , > > > > ",
"> > > > > > > > > > > > > > > > > > > > > > > > > > # q | &.&.&.&.$.$.$.$.$.{ p o @ @ @ $ > > > > > ",
"> > > > > > > > > > > > > > > > > > > > > > > > > > @ q ] $.$.$.$.$.$.$.$.$.] q @ > > > > > > > > > ",
"> > > > > > > > > > > > > > > > > > > > > > > > > > # s ] $.$.$.$.$.$.$.$.$.] q @ > > > > > > > > > ",
"> > > > > > > > > > > > > > > > > > > > > > # @ @ @   i { $.$.$.$.&.&.&.&.&. .w @ > > > > > > > > > ",
"> > > > > > > > > > > > > > > > > > > > > 1 d l j j g v o.$.$.$.$._ R E E W L y $ > > > > > > > > > ",
"> > > > > > > > > > > > > > > > > > > > > 4 U $.O.O.O.+.$.$.$.$.&.C , 4 4 4 4 , > > > > > > > > > > ",
"> > > > > > > > > > > > > > > > > > > > > 4 E &.$.$.$.$.$.$.$.$.&.m @ > > > > > > > > > > > > > > > ",
"> > > > > > > > > > > > > > > > > > > > > 4 E &.$.$.$.$.$.$.$.$.&.M @ > > > > > > > > > > > > > > > ",
"> > > > > > > > > > > > > > > > > > > > > 4 E &.$.$.$.$.$.$.$.$.&.B @ > > > > > > > > > > > > > > > ",
"> > > > > > > > > > > > > > > > < 4 4 4 4 5 W &.$.$.$.#.+.O.O.O.$.n @ > > > > > > > > > > > > > > > ",
"> > > > > > > > > > > > > > > # d Y E E E W ' $.$.$.&.` x h j j l u = > > > > > > > > > > > > > > > ",
"> > > > > > > > > > > > > > > @ l $.&.&.&.&.$.$.$.$.&.^ 6 X @ @ @ & > > > > > > > > > > > > > > > > ",
"> > > > > > > > > > > > > > > @ j O.$.$.$.$.$.$.$.$.&.( e = > > > > > > > > > > > > > > > > > > > > ",
"> > > > > > > > > > > > > > > @ j O.$.$.$.$.$.$.$.$.&.( e = > > > > > > > > > > > > > > > > > > > > ",
"> > > > > > > > > > > $ @ # # . g O.$.$.$.$.$.&.&.&.&.) e = > > > > > > > > > > > > > > > > > > > > ",
"> > > > > > > > > > 3 u w q q i v +.$.$.$.%.` ^ ( ( ) I 9 = > > > > > > > > > > > > > > > > > > > > ",
"> > > > > > > > > = 8 ! | ] ] ] X.#.$.$.$.O.x 9 e e e 0 - > > > > > > > > > > > > > > > > > > > > > ",
"> > > > > > > > > = e ) &.$.$.$.$.$.$.$.$.O.h X = = = = > > > > > > > > > > > > > > > > > > > > > > ",
"> > > > > > > > > = e ( &.$.$.$.$.$.$.$.$.O.j @ > > > > > > > > > > > > > > > > > > > > > > > > > > ",
"> > > > > > > > > = e ( &.$.$.$.$.$.$.$.$.O.j @ > > > > > > > > > > > > > > > > > > > > > > > > > > ",
"> > > > > = % % % + 7 ^ &.$.$.$.$.&.&.&.&.$.l @ > > > > > > > > > > > > > > > > > > > > > > > > > > ",
"> > > > & f G F F D H [ $.$.$.&._ V M N B n u & > > > > > > > > > > > > > > > > > > > > > > > > > > ",
"> > > > @ V *.&.&.&.&.$.$.$.$.&.T , @ @ @ @ = > > > > > > > > > > > > > > > > > > > > > > > > > > > ",
"> > > > @ M &.$.$.$.$.$.$.$.$.&.E 4 > > > > > > > > > > > > > > > > > > > > > > > > > > > > > > > > ",
"> > > > @ M &.$.$.$.$.$.$.$.$.&.E 4 > > > > > > > > > > > > > > > > > > > > > > > > > > > > > > > > ",
"> > > > @ M &.$.$.$.$.$.$.$.$.&.E 4 > > > > > > > > > > > > > > > > > > > > > > > > > > > > > > > > ",
"> > > > @ M &.$.$.$.$.$.$.$.$.&.E 4 > > > > > > > > > > > > > > > > > > > > > > > > > > > > > > > > ",
"> > > > @ M &.$.$.$.$.$.$.$.$.&.E 4 > > > > > > > > > > > > > > > > > > > > > > > > > > > > > > > > ",
"> > > > @ M &.$.$.$.$.$.$.$.$.&.E 4 > > > > > > > > > > > > > > > > > > > > > > > > > > > > > > > > ",
"> > > > @ M &.$.$.$.$.$.$.$.$.&.E 4 > > > > > > > > > > > > > > > > > > > > > > > > > > > > > > > > ",
"> > > > @ M &.$.$.$.$.$.$.$.$.&.E 4 > > > > > > > > > > > > > > > > > > > > > > > > > > > > > > > > ",
"> > > > @ V *.&.&.&.&.&.&.&.&.*.Q 4 > > > > > > > > > > > > > > > > > > > > > > > > > > > > > > > > ",
"> > > > $ k P K K K K K K K K P b 2 > > > > > > > > > > > > > > > > > > > > > > > > > > > > > > > > ",
"> > > > > , ; ; ; ; ; ; ; ; ; ; - > > > > > > > > > > > > > > > > > > > > > > > > > > > > > > > > > ",
"> > > > > > > > > > > > > > > > > > > > > > > > > > > > > > > > > > > > > > > > > > > > > > > > > > "
};
