/* XPM */
static char *__resized[] = {
/* columns rows colors chars-per-pixel */
"50 50 167 2 ",
"   c #2D252A",
".  c #2D262A",
"X  c #2C272B",
"o  c #2D272B",
"O  c #282828",
"+  c #2D282B",
"@  c #2C292B",
"#  c #2D292B",
"$  c #2C2A2B",
"%  c #2D2A2B",
"&  c #2B2B2C",
"*  c #2C2A2C",
"=  c #2D2A2C",
"-  c #2C2B2C",
";  c #2B2C2C",
":  c #2B2D2C",
">  c #2B2D2D",
",  c #2B2E2D",
"<  c #2C2C2C",
"1  c #2C2D2C",
"2  c #27322E",
"3  c #27332E",
"4  c #27352E",
"5  c #27362F",
"6  c #29312D",
"7  c #2B302D",
"8  c #2A312D",
"9  c #2B312D",
"0  c #2A342F",
"q  c #29362F",
"w  c #29372F",
"e  c #273D30",
"r  c #263E31",
"t  c #273E31",
"y  c #263F31",
"u  c #273F31",
"i  c #293830",
"p  c #283E31",
"a  c #1F4D35",
"s  c #1F4E35",
"d  c #1F5738",
"f  c #1E5838",
"g  c #1F5838",
"h  c #1C5D39",
"j  c #1C5E3A",
"k  c #1C5F3A",
"l  c #274031",
"z  c #274232",
"x  c #274332",
"c  c #234633",
"v  c #274533",
"b  c #264633",
"n  c #224934",
"m  c #204B34",
"M  c #204D35",
"N  c #204E35",
"B  c #215237",
"V  c #205437",
"C  c #205537",
"Z  c #205538",
"A  c #205638",
"S  c #205C39",
"D  c #205F3A",
"F  c #1F603A",
"G  c #1F673C",
"H  c #1C683D",
"J  c #1F683C",
"K  c #1D6B3D",
"L  c #1F6A3D",
"P  c #196C3D",
"I  c #17713F",
"U  c #16733F",
"Y  c #16743F",
"T  c #16753F",
"R  c #20603A",
"E  c #20663C",
"W  c #167540",
"Q  c #1C7640",
"!  c #147941",
"~  c #197C42",
"^  c #168143",
"/  c #148444",
"(  c #178444",
")  c #108B46",
"_  c #168945",
"`  c #178945",
"'  c #168B46",
"]  c #168C46",
"[  c #198945",
"{  c #179147",
"}  c #169448",
"|  c #179448",
" . c #169549",
".. c #169649",
"X. c #169749",
"o. c #0DA14B",
"O. c #0DA24B",
"+. c #0DA04C",
"@. c #0DA24C",
"#. c #0DA44D",
"$. c #0CAB4F",
"%. c #0DAC4E",
"&. c #0DAC4F",
"*. c #0CAD4F",
"=. c #0DAD4F",
"-. c #10A24C",
";. c #0CAF50",
":. c #09B050",
">. c #0CB250",
",. c #0DB852",
"<. c #0CB952",
"1. c #0CBA53",
"2. c #09BC53",
"3. c #09BD54",
"4. c #10B351",
"5. c #0DC355",
"6. c #0DC455",
"7. c #0CC556",
"8. c #05CB57",
"9. c #05CC57",
"0. c #05CE58",
"q. c #05CF58",
"w. c #08CF58",
"e. c #05D159",
"r. c #04D65A",
"t. c #07D65A",
"y. c #06DA5B",
"u. c #05DD5C",
"i. c #06DD5C",
"p. c #05DE5C",
"a. c #05DF5D",
"s. c #02E15D",
"d. c #04E35E",
"f. c #05E45E",
"g. c #05E65E",
"h. c #05E75E",
"j. c #04E75F",
"k. c #02E85F",
"l. c #05E85F",
"z. c #05E95F",
"x. c #01EB60",
"c. c #01EC60",
"v. c #01ED60",
"b. c #03EE61",
"n. c #01F161",
"m. c #01F162",
"M. c #00F262",
"N. c #01F262",
"B. c #00F462",
"V. c #01F462",
"C. c #00F663",
"Z. c #01F663",
"A. c #00F763",
"S. c #01F763",
"D. c #00F963",
"F. c #01F963",
"G. c #00F964",
"H. c #01FB64",
"J. c #00FC64",
"K. c #00FD64",
"L. c #01FD64",
"P. c #00FD65",
"I. c #01FD65",
"U. c #00FE65",
"Y. c #00FF65",
"T. c #00FF66",
"R. c #00FF67",
/* pixels */
"O < < < < < < < < < < < < < < < < < < < < < < < < < < < < < < < < < < < < < < < < < < < < < < < < < ",
"O < < < < < < < < < < $ # % % % % % % % % % % % % % % % % % % % % % % % % % # - < < < < < < < < < < ",
"O < < < < < < < < < < c g d d d d d d d d d d d d d d d d d d d d d d d d d d y - < < < < < < < < < ",
"O < < < < < < < < < : #.B.n.n.n.n.n.n.n.n.n.n.n.n.n.n.n.n.n.n.n.n.n.n.n.n.n.M.( # < < < < < < < < < ",
"O < < < < < < < < < : *.T.Y.Y.Y.Y.Y.Y.Y.Y.Y.Y.Y.Y.Y.Y.Y.Y.Y.Y.Y.Y.Y.Y.Y.Y.Y.T.' # < < < < < < < < < ",
"O < < < < < < < < < : =.T.Y.Y.Y.Y.Y.Y.Y.Y.Y.Y.Y.Y.Y.Y.Y.Y.Y.Y.Y.Y.Y.Y.Y.Y.Y.T.' # < < < < < < < < < ",
"O < < < < < < < < < : =.T.Y.Y.Y.Y.Y.Y.Y.Y.Y.Y.Y.Y.Y.Y.Y.Y.Y.Y.Y.Y.Y.Y.Y.Y.Y.T.' # < < < < < < < < < ",
"O < < < < - # # # # @ %.T.Y.Y.Y.Y.T.T.T.T.T.T.T.T.T.T.T.T.T.T.T.T.T.Y.Y.Y.Y.T._   # # # # < < < < < ",
"O < < < * b {  . . ...t.T.Y.Y.Y.C.:.o.@.@.@.@.@.@.@.@.@.@.@.@.O.+.2.L.Y.Y.Y.Y.7.|  . ...[ i - < < < ",
"O < < < # F D.T.T.T.T.Y.Y.Y.Y.Y.x.a @ & & & & & & & & & & & & & X G H.Y.Y.Y.Y.T.T.T.T.R.z.v * < < < ",
"O < < < # F Z.Y.Y.Y.Y.Y.Y.Y.Y.Y.c.N % < < < < < < < < < < < < < + J H.Y.Y.Y.Y.Y.Y.Y.Y.Y.g.v * < < < ",
"O < < < # F Z.Y.Y.Y.Y.Y.Y.Y.Y.Y.c.s % < < < < < < < < < < < < < + J H.Y.Y.Y.Y.Y.Y.Y.Y.Y.g.v * < < < ",
"O < < < # F Z.Y.Y.Y.Y.Y.Y.Y.Y.Y.c.s % < < < < < < < < < < < < < + J H.Y.Y.Y.Y.Y.Y.Y.Y.Y.g.v * < < < ",
"O < < < # F Z.Y.Y.Y.Y.Y.Y.Y.Y.Y.c.s % < < < < < < < < < < < < < + J H.Y.Y.Y.Y.Y.Y.Y.Y.Y.g.v * < < < ",
"O < < < # F Z.Y.Y.Y.Y.Y.Y.Y.Y.Y.c.s % < < < < < < < < < < < < < + J H.Y.Y.Y.Y.Y.Y.Y.Y.Y.g.v * < < < ",
"O < < < # F Z.Y.Y.Y.Y.Y.Y.Y.Y.Y.c.s % < < < < < < < < < < < < < + J H.Y.Y.Y.Y.Y.Y.Y.Y.Y.g.v * < < < ",
"O < < < # F Z.Y.Y.Y.Y.Y.Y.Y.Y.Y.c.s % < < < < < < < < < < < < < + J H.Y.Y.Y.Y.Y.Y.Y.Y.Y.g.v * < < < ",
"O < < < # F Z.Y.Y.Y.Y.Y.Y.Y.Y.Y.c.N % < < < < < < < < < < < < < + J H.Y.Y.Y.Y.Y.Y.Y.Y.Y.g.v * < < < ",
"O < < < # F Z.Y.Y.Y.Y.Y.Y.Y.Y.Y.x.m . # # # % < < < < < < < < < + J H.Y.Y.Y.Y.Y.Y.Y.Y.Y.g.v * < < < ",
"O < < < # F Z.Y.Y.Y.Y.Y.Y.Y.Y.Y.N.) U Y Y W f < < < < < < < < < + J H.Y.Y.Y.Y.Y.Y.Y.Y.Y.g.v * < < < ",
"O < < < # F Z.Y.Y.Y.Y.Y.Y.Y.Y.Y.Y.P.K.K.K.Y.$.> < < < < < < < < + J H.Y.Y.Y.Y.Y.Y.Y.Y.Y.g.v * < < < ",
"O < < < # F Z.Y.Y.Y.Y.Y.Y.Y.Y.Y.Y.Y.Y.Y.Y.T.=.> < < < < < < < < + J H.Y.Y.Y.Y.Y.Y.Y.Y.Y.g.v * < < < ",
"O < < < # F Z.Y.Y.Y.Y.Y.Y.Y.Y.Y.Y.Y.Y.Y.Y.T.=.> < < < < < < < < + J H.Y.Y.Y.Y.Y.Y.Y.Y.Y.g.v * < < < ",
"O < < < # R Z.Y.Y.Y.Y.Y.Y.Y.Y.Y.Y.Y.Y.Y.Y.T.=.; < < < < < < < < + J H.Y.Y.Y.Y.Y.Y.Y.Y.T.g.v * < < < ",
"O < < < # D V.P.K.K.K.K.K.K.K.K.K.U.Y.Y.Y.T.;.8 7 7 7 7 7 7 7 7 1 L F.P.K.K.K.K.K.K.K.Y.f.v $ < < < ",
"O < < < - r I Y Y Y Y Y Y Y Y U / b.Y.Y.Y.Y.j.5.5.5.5.5.5.5.5.5.6.>.! Y Y Y Y Y Y Y Y T P 0 - < < < ",
"O < < < < - # # # # # # # # # o z g.Y.Y.Y.Y.Y.T.T.T.T.T.T.T.T.T.R.0.2 + # # # # # # # # # < < < < < ",
"O < < < < < < < < < < < < < < * v g.Y.Y.Y.Y.Y.Y.Y.Y.Y.Y.Y.Y.Y.Y.T.9.5 - < < < < < < < < < < < < < < ",
"O < < < < < < < < < < < < < < * v g.Y.Y.Y.Y.Y.Y.Y.Y.Y.Y.Y.Y.Y.Y.T.9.5 - < < < < < < < < < < < < < < ",
"O < < < < - % % % % % % % % % + x l.T.T.T.T.T.T.T.T.T.T.Y.Y.Y.Y.T.8.3 # % % % % % % % % % < < < < < ",
"O < < < - q Z d d d d d d d d A H w.a.p.p.p.p.p.p.p.u.a.S.Y.Y.Y.T.r.j A d d d d d d d d B 8 < < < < ",
"O < < < # S k.m.n.n.n.n.n.n.n.N.s.h p l l l l l l l u n e.T.Y.Y.Y.H.m.n.n.n.n.n.n.n.n.N.y.x * < < < ",
"O < < < # F S.Y.Y.Y.Y.Y.Y.Y.Y.T.c.M + - - - - - - - % 4 9.T.Y.Y.Y.Y.Y.Y.Y.Y.Y.Y.Y.Y.Y.T.h.v * < < < ",
"O < < < # F Z.Y.Y.Y.Y.Y.Y.Y.Y.Y.c.s % < < < < < < < - 5 9.T.Y.Y.Y.Y.Y.Y.Y.Y.Y.Y.Y.Y.Y.Y.g.v * < < < ",
"O < < < # F Z.Y.Y.Y.Y.Y.Y.Y.Y.Y.c.s % < < < < < < < - 5 9.T.Y.Y.Y.Y.Y.Y.Y.Y.Y.Y.Y.Y.Y.Y.g.v * < < < ",
"O < < < # F Z.Y.Y.Y.Y.Y.Y.Y.Y.Y.c.s % < < < < < < < - 5 q.R.T.T.T.T.Y.Y.Y.Y.Y.Y.Y.Y.Y.Y.g.v * < < < ",
"O < < < # F Z.Y.Y.Y.Y.Y.Y.Y.Y.Y.c.s % < < < < < < < < 6 ~ X.....} 4.I.Y.Y.Y.Y.Y.Y.Y.Y.Y.g.v * < < < ",
"O < < < # F Z.Y.Y.Y.Y.Y.Y.Y.Y.Y.c.s % < < < < < < < < < % # # #   E H.Y.Y.Y.Y.Y.Y.Y.Y.Y.g.v * < < < ",
"O < < < # F Z.Y.Y.Y.Y.Y.Y.Y.Y.Y.c.s % < < < < < < < < < < < < < + J H.Y.Y.Y.Y.Y.Y.Y.Y.Y.g.v * < < < ",
"O < < < # F Z.Y.Y.Y.Y.Y.Y.Y.Y.Y.c.s % < < < < < < < < < < < < < + J H.Y.Y.Y.Y.Y.Y.Y.Y.Y.g.v * < < < ",
"O < < < # F S.Y.Y.Y.Y.Y.Y.Y.Y.Y.c.M + - - - - - - - - - - - - - o G H.Y.Y.Y.Y.Y.Y.Y.Y.T.h.v * < < < ",
"O < < < # S k.m.n.n.n.G.Y.Y.Y.Y.v.k t l l l l l l l l l l l l l e Q H.Y.Y.Y.Y.A.n.n.n.N.y.x * < < < ",
"O < < < - w C d d d d 3.T.Y.Y.Y.J.d.u.p.p.p.p.p.p.p.p.p.p.p.p.p.i.j.U.Y.Y.Y.T.-.V d d d B 9 < < < < ",
"O < < < < - % # # # $ &.T.Y.Y.Y.Y.T.T.T.T.T.T.T.T.T.T.T.T.T.T.T.T.T.Y.Y.Y.Y.T.` . # # # % < < < < < ",
"O < < < < < < < < < : =.T.Y.Y.Y.Y.Y.Y.Y.Y.Y.Y.Y.Y.Y.Y.Y.Y.Y.Y.Y.Y.Y.Y.Y.Y.Y.T.' # < < < < < < < < < ",
"O < < < < < < < < < : =.T.Y.Y.Y.Y.Y.Y.Y.Y.Y.Y.Y.Y.Y.Y.Y.Y.Y.Y.Y.Y.Y.Y.Y.Y.Y.T.' # < < < < < < < < < ",
"O < < < < < < < < < ; ;.R.T.T.T.T.T.T.T.T.T.T.T.T.T.T.T.T.T.T.T.T.T.T.T.T.T.R.] # < < < < < < < < < ",
"O < < < < < < < < < ; ^ 1.,.,.,.,.,.,.,.,.,.,.,.,.,.,.,.,.,.,.,.,.,.,.,.,.,.<.K = < < < < < < < < < ",
"O < < < < < < < < < < : , , , , , , , , , , , , , , , , , , , , , , , , , , , 1 < < < < < < < < < < ",
"O < < < < < < < < < < < < < < < < < < < < < < < < < < < < < < < < < < < < < < < < < < < < < < < < < "
};
