/* XPM */
static char *__resized[] = {
/* columns rows colors chars-per-pixel */
"50 50 120 2 ",
"   c #2D252A",
".  c #2D262A",
"X  c #2D272B",
"o  c #2A2A2A",
"O  c #2D282B",
"+  c #2C292B",
"@  c #2D292B",
"#  c #2D2A2B",
"$  c #2C2B2B",
"%  c #2B2B2C",
"&  c #2C2A2C",
"*  c #2D2A2C",
"=  c #2C2B2C",
"-  c #2B2D2C",
";  c #2B2E2C",
":  c #2B2E2D",
">  c #2C2C2C",
",  c #27322E",
"<  c #27342E",
"1  c #27362E",
"2  c #27362F",
"3  c #2B302D",
"4  c #2A322D",
"5  c #29322E",
"6  c #29342E",
"7  c #29362F",
"8  c #29372F",
"9  c #273F31",
"0  c #283C30",
"q  c #283D31",
"w  c #1F4E35",
"e  c #274031",
"r  c #274432",
"t  c #274532",
"y  c #264433",
"u  c #274533",
"i  c #264633",
"p  c #264733",
"a  c #204B34",
"s  c #204C35",
"d  c #224D35",
"f  c #215F3A",
"g  c #1A6B3D",
"h  c #1F683C",
"j  c #1F693C",
"k  c #1F6A3D",
"l  c #17733F",
"z  c #16743F",
"x  c #16753F",
"c  c #19723F",
"v  c #20663C",
"b  c #20673C",
"n  c #20683C",
"m  c #20683D",
"M  c #167640",
"N  c #197640",
"B  c #147A41",
"V  c #167D42",
"C  c #177D42",
"Z  c #177E42",
"A  c #167F43",
"S  c #197F42",
"D  c #168042",
"F  c #168043",
"G  c #168143",
"H  c #108A46",
"J  c #168945",
"K  c #168A45",
"L  c #168B45",
"P  c #168B46",
"I  c #119448",
"U  c #119649",
"Y  c #0DAB4F",
"T  c #0CAC4F",
"R  c #0DAD4F",
"E  c #10A44D",
"W  c #10A74E",
"Q  c #0BB250",
"!  c #0DB752",
"~  c #0DB852",
"^  c #0CB952",
"/  c #0CBA53",
"(  c #0BC054",
")  c #07C957",
"_  c #06CB57",
"`  c #05CC57",
"'  c #05CF58",
"]  c #09CC58",
"[  c #07D059",
"{  c #05D259",
"}  c #07D45A",
"|  c #02DA5B",
" . c #06DA5B",
".. c #03DD5C",
"X. c #05DD5C",
"o. c #05DE5C",
"O. c #05E65E",
"+. c #05E75E",
"@. c #05E75F",
"#. c #05E85F",
"$. c #05E95F",
"%. c #01EB60",
"&. c #01EC60",
"*. c #01ED60",
"=. c #01EE61",
"-. c #00F262",
";. c #02F663",
":. c #02F763",
">. c #01F963",
",. c #00FA64",
"<. c #01FB64",
"1. c #00FC64",
"2. c #01FC64",
"3. c #00FD64",
"4. c #00FD65",
"5. c #01FD65",
"6. c #00FE65",
"7. c #00FF65",
"8. c #00FF66",
"9. c #00FF67",
/* pixels */
"o > > > > > > > > > > > > > > > > > > > > > > > > > > > > > > > > > > > > > > > > > > > > > > > > > ",
"o > > > > > > > > > > = & & & & & & & & & & & & & & & & & & & & & & & & & & & = > > > > > > > > > > ",
"o > > > > > > > > > > 0 u u u u u u u u u u u u u u u u u u u u u u u u u u u 7 > > > > > > > > > > ",
"o > > > > > > > > > : W $.O.O.O.O.O.O.O.O.O.O.O.O.O.O.O.O.O.O.O.O.O.O.O.O.O.O.N @ > > > > > > > > > ",
"o > > > > > > > > > : ^ 9.7.8.8.8.8.8.8.8.8.8.8.8.8.8.8.8.8.8.8.8.8.8.8.8.8.7.F @ > > > > > > > > > ",
"o > > > > > > > > > : ~ 8.7.7.7.7.7.7.7.7.7.7.7.7.7.7.7.7.7.7.7.7.7.7.7.7.7.7.D @ > > > > > > > > > ",
"o > > > > > > > > > : ~ 8.7.7.7.7.7.7.7.7.7.7.7.7.7.7.7.7.7.7.7.7.7.7.7.7.7.6.D @ > > > > > > > > > ",
"o > > > > = @ @ @ O = ! 8.7.7.7.7.8.9.9.9.9.9.9.9.9.9.9.9.9.9.9.8.8.7.7.7.7.6.C   @ @ @ + > > > > > ",
"o > > > $ y Z A A A G } 8.7.7.7.;.( ! ~ ~ ~ ~ ~ ~ ~ ~ ~ ~ ~ ~ ~ ! [ 6.7.7.7.7.Q V A A F c 6 > > > > ",
"o > > > @ h ,.7.6.6.6.7.7.7.7.8.+.p - : : : : : : : : : : : : : = M 3.7.7.7.7.7.6.6.6.8.X.e & > > > ",
"o > > > O h <.7.7.7.7.7.7.7.7.8.O.t & > > > > > > > > > > > > > O z 3.7.7.7.7.7.7.7.7.8.o.e & > > > ",
"o > > > O h <.7.7.7.7.7.7.7.7.8.O.t & > > > > > > > > > > > > > @ z 3.7.7.7.7.7.7.7.7.8.o.e & > > > ",
"o > > > O h <.7.7.7.7.7.7.7.7.8.O.t & > > > > > > > > > > > > > @ z 3.7.7.7.7.7.7.7.7.8.o.e & > > > ",
"o > > > O h <.7.7.7.7.7.7.7.7.8.O.t & > > > > > > > > > > > > > @ z 3.7.7.7.7.7.7.7.7.8.o.e & > > > ",
"o > > > O h <.7.7.7.7.7.7.7.7.8.O.t & > > > > > > > > > > > > > @ z 3.7.7.7.7.7.7.7.7.8.o.e & > > > ",
"o > > > O h <.7.7.7.7.7.7.7.7.8.O.t & > > > > > > > > > > > > > @ z 3.7.7.7.7.7.7.7.7.8.o.e & > > > ",
"o > > > O h <.7.7.7.7.7.7.7.7.8.O.t & > > > > > > > > > > > > > @ z 3.7.7.7.7.7.7.7.7.8.o.e & > > > ",
"o > > > O h <.7.7.7.7.7.7.7.7.8.O.t & > > > > > > > > > > > > > @ z 3.7.7.7.7.7.7.7.7.8.o.e & > > > ",
"o > > > O h <.7.7.7.7.7.7.7.7.8.O.t & > > > > > > > > > > > > > @ z 3.7.7.7.7.7.7.7.7.8.o.e & > > > ",
"o > > > O h <.7.7.7.7.7.7.7.7.8.O.t & > > > > > > > > > > > > > @ z 3.7.7.7.7.7.7.7.7.8.o.e & > > > ",
"o > > > O h <.7.7.7.7.7.7.7.7.8.O.t & > > > > > > > > > > > > > @ z 3.7.7.7.7.7.7.7.7.8.o.e & > > > ",
"o > > > O h <.7.7.7.7.7.7.7.7.8.O.t & > > > > > > > > > > > > > @ z 3.7.7.7.7.7.7.7.7.8.o.e & > > > ",
"o > > > O h <.7.7.7.7.7.7.7.7.8.O.t & > > > > > > > > > > > > > @ z 3.7.7.7.7.7.7.7.7.8.o.e & > > > ",
"o > > > O h <.7.7.7.7.7.7.7.7.8.O.t & > > > > > > > > > > > > > O z 3.7.7.7.7.7.7.7.7.8.o.e & > > > ",
"o > > > O j 1.8.7.7.7.7.7.7.7.8.#.i % - - - - - - - - - - - - - + x 3.7.7.7.7.7.7.7.7.8.o.e & > > > ",
"o > > > & p J L L L L L L L L K I T R R R R R R R R R R R R R R Y ) 6.7.7.7.7.7.7.7.7.8.o.e & > > > ",
"o > > > > = @ @ @ @ @ @ @ @ @ X s =.9.8.8.8.8.8.8.8.8.8.8.8.8.8.8.8.7.7.7.7.7.7.7.7.7.8.o.e & > > > ",
"o > > > > > > > > > > > > > > # w &.7.7.7.7.7.7.7.7.7.7.7.7.7.7.7.7.7.7.7.7.7.7.7.7.7.8.o.e & > > > ",
"o > > > > > > > > > > > > > > # w &.7.7.7.7.7.7.7.7.7.7.7.7.7.7.7.7.7.7.7.7.7.7.7.7.7.8.o.e & > > > ",
"o > > > > > > > > > > > > > > # w *.8.7.7.7.7.7.7.7.7.7.7.7.7.7.7.7.7.7.7.7.7.7.7.7.7.8.o.e & > > > ",
"o > > > > > > > > > > > > > > # a | *.&.&.&.&.&.&.&.&.&.&.&.&.&.%.-.7.7.7.7.7.7.7.7.7.8.o.e & > > > ",
"o > > > > > > > > > > > > > > > 4 a w w w w w w w w w w w w w w a H 4.7.7.7.7.7.7.7.7.8.o.e & > > > ",
"o > > > > > > > > > > > > > > > > * * # # # # # # # # # # # # # . l 3.7.7.7.7.7.7.7.7.8.o.e & > > > ",
"o > > > > > > > > > > > > > > > > > > > > > > > > > > > > > > > @ z 3.7.7.7.7.7.7.7.7.8.o.e & > > > ",
"o > > > > > > > > > > > > > > > > > > > > > > > > > > > > > > > @ z 3.7.7.7.7.7.7.7.7.8.o.e & > > > ",
"o > > > > = @ @ @ @ @ @ @ @ @ @ + > > > > > > > > > > > > > > > @ z 3.7.7.7.7.7.7.7.7.8.o.e & > > > ",
"o > > > & p J L L L L L L L L P S 8 = > > > > > > > > > > > > > @ z 3.7.7.7.7.7.7.7.7.8.o.e & > > > ",
"o > > > O j 1.8.7.7.7.7.7.7.7.8.#.t & > > > > > > > > > > > > > @ z 3.7.7.7.7.7.7.7.7.8.o.e & > > > ",
"o > > > O h <.7.7.7.7.7.7.7.7.8.O.t & > > > > > > > > > > > > > @ z 3.7.7.7.7.7.7.7.7.8.o.e & > > > ",
"o > > > @ h <.7.7.7.7.7.7.7.7.8.O.t & > > > > > > > > > > > > > @ z 3.7.7.7.7.7.7.7.7.8.o.e & > > > ",
"o > > > O h <.7.7.7.7.7.7.7.7.8.O.r # = = = = = = = = = = = = = O z 3.7.7.7.7.7.7.7.7.8.o.e & > > > ",
"o > > > O b :.<.<.<.<.5.7.7.7.7.@.d < 1 1 1 1 1 1 1 1 1 1 1 1 1 , B 3.7.7.7.7.2.<.<.<.5. .9 & > > > ",
"o > > > = q b n n n k ] 8.7.7.7.>.{ ` ` ` ` ` ` ` ` ` ` ` ` ` ` _ ..6.7.7.7.6.E v n n m f 4 > > > > ",
"o > > > > = @ @ @ O = ! 8.7.7.7.7.8.8.8.8.8.8.8.8.8.8.8.8.8.8.8.8.8.7.7.7.7.6.V   @ @ O @ > > > > > ",
"o > > > > > > > > > : ~ 8.7.7.7.7.7.7.7.7.7.7.7.7.7.7.7.7.7.7.7.7.7.7.7.7.7.7.D @ > > > > > > > > > ",
"o > > > > > > > > > : ~ 8.7.7.7.7.7.7.7.7.7.7.7.7.7.7.7.7.7.7.7.7.7.7.7.7.7.7.D @ > > > > > > > > > ",
"o > > > > > > > > > : / 9.8.8.8.8.8.8.8.8.8.8.8.8.8.8.8.8.8.8.8.8.8.8.8.8.8.8.G @ > > > > > > > > > ",
"o > > > > > > > > > ; U ' ` ` ` ` ` ` ` ` ` ` ` ` ` ` ` ` ` ` ` ` ` ` ` ` ` ` g # > > > > > > > > > ",
"o > > > > > > > > > > 5 2 1 1 1 1 1 1 1 1 1 1 1 1 1 1 1 1 1 1 1 1 1 1 1 1 1 2 3 > > > > > > > > > > ",
"o > > > > > > > > > > > = = = = = = = = = = = = = = = = = = = = = = = = = = = > > > > > > > > > > > "
};
