/* XPM */
static char *moves_str_resized[] = {
/* columns rows colors chars-per-pixel */
"300 50 68 1 ",
"  c #320D23",
". c #2E1626",
"X c #2F1C27",
"o c #2F1D28",
"O c #311225",
"+ c #301927",
"@ c #301D28",
"# c #2E232A",
"$ c #2C2C2C",
"% c #26362F",
"& c #2B312D",
"* c #25382F",
"= c #29382F",
"- c #243C30",
"; c #293A30",
": c #1E5136",
"> c #1E5738",
", c #1D5C39",
"< c #224332",
"1 c #284132",
"2 c #224D35",
"3 c #225336",
"4 c #215738",
"5 c #215938",
"6 c #1E643B",
"7 c #176F3E",
"8 c #1E6B3D",
"9 c #15723F",
"0 c #1A713F",
"q c #21633B",
"w c #167740",
"e c #1A7440",
"r c #167B42",
"t c #1B7B42",
"y c #168344",
"u c #198444",
"i c #168A45",
"p c #188A45",
"a c #0F9047",
"s c #0E9248",
"d c #0E9E4B",
"f c #169047",
"g c #169548",
"h c #139B4A",
"j c #0BA34C",
"k c #0BAB4F",
"l c #13A14C",
"z c #11AB4F",
"x c #0BAF50",
"c c #07B350",
"v c #0BB251",
"b c #07B952",
"n c #0BBC53",
"m c #05C355",
"M c #0BC556",
"N c #05CB57",
"B c #0BC956",
"V c #04CE58",
"C c #03D359",
"Z c #09D359",
"A c #04DD5C",
"S c #08DB5B",
"D c #03E45E",
"F c #03E85F",
"G c #02ED60",
"H c #01F362",
"J c #00FE65",
"K c #00FF69",
/* pixels */
"$$$$$$$&$$$$$$$&$$$$$$$$$$$$$$$$$$$$$$$$&$$$$$$$$$$$$$$$$$$$$$$$$$$$&$$&$&&$&$&&$&$$$$$$$$$$$$$$$$$$$$$$$$$$$$$$$$$$$$$$$$$$$$$$$$$$$$$$$$$$$$$$$$$$$#$$$$$$&$$&$$&$&$$$&$&$$$&$&$$&$$&$$$&$&$$$&$$$$$$$$$$$$$$$$$$$$$$$$&&&&$&$&&&&$&$&&$$$$$$$$$$$$$$$$$$$$$$$$$$$$$$$$$$$$$$$$$$$$$$$$$$$$$$$$$$$$$$$$$$$",
"$$$$$$###$#$$#$#$$$$$$$$$$$$$$$$$$#$$##$#$$#$$$$$$$$$$$$$$$$$$$$$&$#######$########$$$$$$$$$$$$$$$$$$$$$$$$$$$$$$$$$$$$$$$$$$$$$$$$$$$$$$$$$$&$$$$$$$$$$$$$$######################################$$$$$$$$$$$$$$$$$$$$$$#XoX@o#@#@@o#@@#@#$$$$$$$$$$$$$$$$$$$$$$#$$$$$$$$$$$$$$$$$$$$$$$$$$$$$$$$$$$$$$$$$$$",
"$$$$$*<<<<<<<<<<-$$$$$$$$$$$$$$$$-<<<<<<<<<<-$$$$$$$$$$$$$$$$$$$$#-3322222222222322=$$$$$$$$$$$$$$$$$$$$$$@##@$#####$$$$$$$$$$$$$$$$$$###########$$$$$$$$$#<,4>>55555555555555555555555555555555552#$$$$$$$$$$$$$$$$$$$$,rwwrrrrrrrrrrrry2$$$$$$$$$$$$$$$$$$$$$$$$$$$$$$$$$$$$$$$$$$$$$#$$$$$$$$$$$$$$$$$$$$",
"$$$$ofKHJHJHHJHJB#$$$$$$$$$#$$$&+dKHHJHJHJHJb#$$$$$$$$$$$$$$$$$$%ojKHKKJJJJJJJJJJJKqo$$$$$$$$$$$$$$$$$$$$hZBBBBBBBBZt@$$$$$$$$$$$$$$#zBMBBBBBBBZe#&$$$#$$&ojJJJJKJJJJJJKJKJJKJJJJJKJJJKJKJJKJJJKJKn#$$$$$$$$$$$$$$$$$$$okKKKKJKKKKKJJKKKKp+&$$$$$$$$$$$$$$$$$$$$$$$$$$$$$$$$$$$$$$$$$$$$$$$$$$$$$$$$$$$$$$$$",
"$$$&@gKJJJJJJJJKB#$$$$$$$$$$$$$&ojKJJJJJJJJKn#$$$$$$#$$$$$$$$$$#&XjKJJJJJJJJJJJJJJKq#$$$$$$$$$$$$$$$$$$&#ZKJKKKKJKJKh+&$$$$$$$$$$$$$$AKKKKKJJKKKf@&$$$$$$&ojJJJJJJJJJJJJJJJJJJJJJJJJJJJJJJJJJJJJJKn#$$$$$$$$$$$$$$$$$$&ohKHJJJJJJJJJJJJJKuo$$$$$$$$$$$$$$$$$$$$$$$$$$$$$$$$$$$$$$$$$$$$$$$$$$$$$$$$$$$$$$$$$",
"$$$&@gKJJJJJJJJKB#$$$$$$$$$$$$$$ojKJJJJJJJJJn#&$$$$$$$$$$$$$$$$$&XjKJJJJJJJJJJJJJJKq#$$$$$$$$$$$$$$$$$$$#BKJJHJJJJJKg+&$$$$$$$$$$$$$$VKJJJJJJJJKu@&$$$$$$$ojJJJJJJJJJJJJJJJJJJJJJJJJJJJJJJJJJJJJJKno$$$$$$$$$$$$$$$$$$$odKJJJJJJJJJJJJJHKuo&$$$$$$$$$$$$$$$$$#$$$$$$$$$$$$$$$$$$$$$$$$$$$$$$$$$$$$$$$$#$$$$$",
"$$$$@gKJJJJJJJJJB#&&$$$$$$$$$$&&#jKJJJJJJJJKn#&$$$$$$$$$$$$$$&$&%#jKHJJJJJJJJJJJJJKq#&$&$$$$$$$$$$$$$$$$#BKJJJJJJJJKg+&$$$$$$$$$$$$$$CKJJJJJJJJKi@&$$#$$$&ojJJJJJJJJJJJJJJJJJJJJJJJJJJJJJJJJJJKJJKn#&$$$$$$$$$$$$$$$$$$#dKKJJJJJJJJJJJJJKuo$$$$$$$$$$$$$$$$$$$$$$$$$$$$$$$$$$$$$$$$$$$$$$$#$$$$$$$$$$$$$$$$$",
"$$$&+gKJJJJJJJJKBO#ooo$$$$$$@@@# dKJJJJJJJJKn#$$$$$$$$$$$$$$$@@@# jKKKKKKKKKKKKKKKK5O#oo@$$$$$$$$$#$$$$$#BKJJJJJJJJKg@$$$$$$$$$$$$$$$CJJJJJJJJJKio$$$$$$$$ojKJJJJJJJJJKKKKKKKKKKKKKKKKKKKKKKKKKKKKBo$$$$$$$$$$$##$#$$$$.jKKKJKJKJJKKKJKJKy.$$$$##$$#$$$$$$$$$$$$$$$$$$$$$$$$$$$$#$$$$$$$$$$$$$$$$$$$$$$$$#$$",
"$$$&+gKJJJJJJJJKDuiiif2#$$#-iiiiyNJJJJJJJJJKn#$$$$$$$$$$$$$$1kjjjjjfgggggggggggggghjjjjjs$$$$$$$$$$$$$$&oBKJJJJJJJJKgo&$$$$&$$$$$$$$$CKJJJJJJJJKao&$$$$$$&ojKJJJJJJJJKSfggggggggggggggggggggggggghe#$$$$$$$$$jCNNNNNNNNClqqq8q8q8q88qq88qkCNNNNNNNNCg#$$$#$$$$$$$$#$$$$$$$$$$$$$$$$$$$$$$$$$$$$$$$$$$$$$$$$$",
"$$$&ogKJJJJJJJJJJKKKKKe@&&#3KKKKKKJJJJJJJJJKn#$$$$$$$$$$$$$#5KKKKKg #@@@+@@@@+@@o+.AKKKKG&$$$$$$$$$$$$$$#BKJJJJJJJJKg+&$$$$#$$$$$$$$$CJJJJJJJJJKy.$$$#$$$&ojKJJJJJJJJKnO@@+@+@@@+oo++@@@+@@@@+@@@@#$$$$$$$$$#CKKKJKKKKKKhO$######o######+bKJKJKKKKKKn#&$$$$$$$$$$$$$$$$$$$$$$$$$$$$$$$$$$$$$$$$$$$$$#$$$$$$$",
"$$$$ogKJJJJJJJJJJJJJJK7@&$#2JJJJJJJJJJJJJJJKn#&$$$$$$$$$$$$#4JJJHKgo&&&$&&$&&&&&&$$CJJJJC&$$$$$$$$$$$$$$#BKJJJJJJJJKgo$$$$$$$$$$$$$$#CKJJJJJJJJKa.&$$$$$$&ojKJJJJJJJJJn#&&&&&$$&&&&$&&$$&&&&&&&$$&$$$$$$$$$$#NKJJJJJJJJKh#&&&&$$&$$&&$&&#vKJJJJJJJJKv#$$$$$$$$$$$$$$$$$$$$$$$$$$###$$$$$$$$$$$$$$$$$$$$$$$$$",
"$$$&+gKJJKJJJJJJJJJJJK7#&$#2JJJJJJJJJJJJJJJKn#$$$$$$$$$$$$$#5KJJJKgo$$$$$$$$$$$$$$$CJJJKA&$$$$$$$$$$$$$&#BKJJJJJJJJKgo&$$$$$$$$$$$$$$CJJJJJJJJJKio&$&#$$$$ojKJJJJJKJJKn#&$$$$$$$$$$$$$$$$$$$$$$$$$$$$$$$$$$$$VKJJJJJJJJJh#&$$$$$$$$$$$$$#vKJJJJJJJHKb#&$$$$$$$$$$$$$$$$$$$$$$$$&1211<-$$$$$$$$$$$$$$$$$$$$$$",
"$$$$@gKJJJJJJJJJJJJJJKeo$$#3JJJJJJJJJJJJJJJKn#$$$$$$$$$$$$$@4KJJJKgo$$$$$$$$$$#$$$$VJJJJA&$$#$$$$$$$$$$$#BJJJJJJJJJKg@&$$$$$$$$$$$$$#CJJJJJJJJJKio&$$$$$$&ojKJJJJJJJJKn@$$$$$$$$$$$$$$$$$$$$$$$$$$$$$$$$$$$$$NJJJJJJJJJKho&$$$$$$$$$$$$$#cKKJKKJJJJKn@$$$$$$$$$$$$$$$$$$$$$#$$$&GKHHKB#$$$$$$$$$$$$$$$$$$$$$",
"$$$&ogKJJJJJJJJJJJKJJKwo%$#:JJKJKJJJJJJJJJJKn#&$$$$$$$$%&&=$,JJJJKg+$$$$$$$$$$&$$$$CJJJKA*&&&%&$$$$$$$$$#BKJJJJJJJJKg@&$$$$$$$$$$$$$$CKJJJJJJJJKio$$$#$$$$ojKJJJJJJJJKn#&$$$$$$$$$$$$$$$$$$$$$$$$$$$$$$$$$$$$NKJJJJJJJJKho$$$$$$$$$$$$$$#jGGDDDDGDGHk#$$$$$$$$$$$$$$$$$$$$$&$$$&GKJJKB#$$$$$$$$$$$$$$$$$$$$$",
"$$$&+gKJJJJJJJJKZ35553nGAADCq4552cKJJJJJJJJJn#$$$$$$$$#nHDGDGJJJJKg+&$$$$$$$$$$$$$$CKJJJJGGGGHr@$$$$$$$$#BKJJJJJJJJKg+&$$$$$$$$$$$$$$CKJJJJJJJJKio&$$$$$$&ojKJJJJJJJJKn#$$$$$$$$$$$$$$$$$$$$$$$$$$$$$$$$$$$$#VKJJJJJJJJKho&$$$$$$$$$$$$$$%%%--=;%-%%%#$$$$$$$$$#$$$$#&$$$$$$$$$;GKKJKB#$$$$$$#$$$$$$$$$$$$$$",
"$$$&ogKJJJJJJJJKB+###+BKJKKG$###+dKJJJJJJJJKno$$$$$$$$#BKJJKJJJJJKg@&$$$$$$$$$$$$$$CJJJJKJJJJKf+$$$$$$$$#BKJJJJJJJJJg@$$$$$$&#$$$$$$$VJJJJJJJJJKio&$$$$$$$ojKJJJJJJJJKn#$$$$$$$$$$$$$$$$#&$$$$$$$$$$$$$$$$$$$VJJJJJJJJJKho&$$$$$$$$$$$$$$$$#$#$#$#$#$$$$$$$$$$$$$$$$$$$$$$$$$$$&SKHJKB#$$$$$$$$$$$$$$$$$$$$$",
"$$$&@gKJJJJJJJJKB#&$&#BKJJJD=$&&#jKJJJJJJJJKn#&$$$$$$$$BKHJJJJJJJKg+&$$$$$$$$$$$$$$CJJJJJJJJJJio&$$$$$$$#BKJJJJJJJJKg@&$$$$$$$$$$$$$$CJJJJJJJJJKiX$$$#$$$$ojJJJJJJJJJKn#$$$$$$$$$$$$$$$$$$$$$$$$$$$$$$$$$$$$#VKJJJJJJJJKh#$$$$$$$$$$$$$$$$$$$$$$$$$$$$$$$$$$$$$$$$$$$$$$$$$$$$#&HKKKKZ#$$$$$$$$$$$$$$$$$$$$$",
"$$$$@gKJJJJJJJJKB#&$$#BKHJKF&$$$ojKJJJJJJJJKn#$$$$$$$$@BKJJJJJJJJKg.&$$$$$$$$$$$$$$CKJJJJJJJJKio&$$$$$$$#BKJJJJJJJJKg.&$$$$$$$$$$$$$#CKJJJJJJJJKio&$$$$$$%ojJJJJJJJJJKno$$$$$$$$$$$$$$$$$$$$$$$$$$$$$$$$$$$$$VJJJJJJJJJKh@$$$$$$$$$$$$$$$$$$$$$$$$$$$$$$$$$$$$$$$$$$$$$$$$$$$$$&jvxznp$$$#$$$$$$$$$$$$$$$$$$",
"$$$&+gKJJJJJJJJKB#$$$#BJJJJG=$$&ojKJJJJJJJJJn#$$$$$$$$#BKJJJJJJJJKgo&$$$$$$$$$$$$$#CKJJJJJJJJKi+$$$$$$$$#BKJJJJJJJJKg@&$$$$$$$$$$$$$$CKJJJJJJJJJio&$$$$$$$.jJHJJJJJJJKn#$$$$$$$$$$$$$$$$$$$$$$$$$$$$$$$$$$$$$VJJJJJJJJJKh@&$$$$$$$$$$$$$$$$$$$$$$$$$$$$$$$$$#$$$$$$$$$$$$$$$$$$$#@@#@#$$$$$$$$$$$$$$$$#$$$$$",
"$$$$ogKJJJJJJJJKB#$$$#BKJJJD&$$$ojKJJJJJJJJKn#&$$$$$$$#BKJJJJJJJJKgo&$$$$$$$$$$$$$$CJJJJJJJJJKio&$$$$$$&#BJJJJJJJJJKg+&$&#$$$$$$$$$$$CJJJJJJJJJKio$$$$#$$$ojJJJJJJJJJKn#&$$$$$$$$$$$$$$$$$$$$$$$$$$$$$$$$$$$#VKJJJJJJJJKh#$$$$$$$$$$$$$$$$$$$$$$$$$$$$$$$$$$$$$$$$$$$#$$$$$$$$$$&&&&$$$$$$$$$$$$$$$$$$$$$$$$",
"$$$$+gKJJJJJJJJKB#$$&#BKJJKD&$$&ojKJJJJJJJJKn#$$$$$$$$#BKJJJJJJJJJg+$$$$$$$$$$$$$$$CKJJJJJJJJJio&$$$$$$$#BJJJJKJJJJKgo&$$$$$$$$&$$$$$CJJJJJJJJJKiX&$$#$$$&ojJJJJJJJJJKn#$$$$$$$$$$$$$$$$#$$$$$$$$$$$$$$$$$$$#VKJJJJJJJJKh@&$$$$$$$$$$$$$$$$$$$$$$$$$$$$$$$$$$$$$$$$$$$$$$$$$$$$$$$$$$$$$$$$$$$$$$$$$$$$$$$$$",
"$$$&ogKJJJJJJJJKB#&$$#BKJJJG&$$$ojKJJJJJJJJKn#$$$$$$$$#BKJJJJJJJJKgX&$$$$$$$$$$$$$$CKJJJJJJJJKi@$$$$$$$$#BKJJJJJJJJKg+&$$$$$$$$#$$$$$CKJJJJJJJJKiX&$$$$$$&ojJJJJJJJJJKno&$$$$$$$$$$$$$$$$$$$$$$$$$$$$$$$$$$$$VKJJJJJJJJKh@$$$$$$$$$$$$$$$$$$$$$$$$$$$$$$$$$$$$$$$$$$$$$$$$$$$$$$$$$$$$$$$$$$&#$$$$$$$$$$#$$$",
"$$$&+gKJJJJJJJJJB#&$$#BKJJKG&$$&ojKJJJJJJJJJn#$$$$$$$$@BKJJJJJJJJKh+&$$$$$$$$$$$$$$VJJJJJJJJJKi#&$$$$$$&#BKJJJJJJJJKg+&$$$$$$$$$$$$$#CKJJJJJJJJKiX&$$$$$$$ojJJJJJJJJJJn#&$$$$$$$$$$$$$$$$$$$$$$$$$$$$$$$$$$$$NKJJJJJJJJKh#$$$$$$$$$$$$$$$$$$$$$$$$$$$$$$$$$$$$$$$$$$$$$$$$$$$$$$$$$$$$$$$$$$$$$$$$$$$$$$$$$$",
"$$$$ogKJJJJJJJJKB#$$$#BJHHJG&$$&ojJJJJJJJJJKn#$$$$$$$$#BKJJJJJJJJKg+&$$$$$$$$$$#$$$CKJJJJJJJJJi+&$$$$$$$#BKJJJJJJJJKg+&$$$$$$$$$$$$$$CKJJJJJJJJKiX&$$$$$$&ojJJJJJJJJJKn#$$$$$$$$$$#$$$$$$$$$$$$$$$$$$$$$$$$$$VKJJJJJJJJKh@$$$$$$$$$#$$$$$$$$$$$$$$$$$$$$$$$$$$$$$$$$$$$$$$$#$$$$$$$$$$$$$$$$$$$$$$$$$$$$$$$$",
"$$$&+gKJJJJJJJJKB#$$$#ZKKKKH&$$&ojKJJJJJJJJKn#&$$$$$$&#BKJJJJJJJJKg+&$$$$$$$$$#$$$#CJJJJJJJJJKio&$$$$$$&#BKJJJJJJJJKg#&$$$$$$$$$$$$$$CKJJJJJJJJKao&$&#$$$$ojJJJJJJJJJKbo$$$$$$#$$$$#$#$$$$$$$$$$$$$$$$$$$$$$$BKJJJJJJJJKh#&$$&$$$$&$&&$&$&$$$$$$$$$$$$$$$$$$$$$$$$$$$$$$$$$$$$$$$$$$$$$$$$$$$$$$$$$$$$$$$$$$",
"$$$&ogKJJJJJJJJJB#$$$$8rrrre$$$&ojKJJJJJJJJJn#$$$$$$$$#BJJJJJJJJJKg.&$$$$$$$$$$$$$$CKJJJJJJJJKio$$$$$$$$@BKJJJJJJJJKg+&$$$$$$$$$$$$$#CJJJJJKJJJKy.&$$#$$$&ojJJJJJJJKJJHCVCCCCCCCZZCCCCDr@&$$$$$$$$$$$$$$$$$$$3,,,:eJJJJJGSDSSASDSSSSSSSSSASDSDV-$$$$$$$$$$$$$$$$$$#$$$$$$$$$$$$$$$$$$$$$$$$$$$#$$$$$$$$$$$$$",
"$$$$ogKJJJJJJJJKB#$$$$#@oo#o$$$&ojKJJJJJJJJKno$$$$$$$$#BKJJJJJJJJKgo&$$$$$$$$$$$$$$CJJJJJJJJJKio&$$$$$$$#BKJJJJJJJJKg@&$$$$$$$$$$$$$$CKJJJJJJJJKa.&$$$$$$$ojKJJJJJJJJJJKJJJKJKJKKKKKKJKh+&$$$$$$$$$$$$$$$$$$$#@##+2JJJJJJJKKKJJJKKJJKJKKJKKJJKH<#$$$$$$$$$$$$$$$$$$$$$$$$$$$$$$$$$$$$$$$$$$$$$$$$$$$$$$$$$$$",
"$$$&+gKJJJJJJJJKB#&$$$$$&&&&$$$$ojKJJJJJJJJKn#&$$$$$$&#BKJJJJJJJJKg@&$$$$$$$$$$$$$$VKJJJJJJJJKi+$$$$$$$$#BKJJJJJJJJKg+$$$$$$$$$$$$$$$CJJJJJJJJJKio&$&#$$$&#jKJJJJJJJJJJJJJJJJJJJJJJJJJKg@&$$$$$$$$$$$$$$$$$$$$$$&#3JJJJJJJJJJJJJJJJJJJJJJJJJJJH-$$$$$$$$$$$$$$@$$$$$$$$$$$$$$$$$$$$$$$$$$$$$$$$$$$$$$$$$$$$$",
"$$$&@gKJJJJJJJJKB#&$$$$$$$$$$$$&ojKJJJJJJJJKn#$$$$$$$$#BKJJJJJJJJKg@$$$$$$$$$$$$$$$CJJJJJJJJJKio&$$$$$$&#BKJJJJJJJJKg.&$$$$$$$#$$$$$$CKJJJJJJJJJio$$$$$$$$ojKJJJJJJJJJJJJJJJJJJJJJJJJJKg@$$$$$$#$$$$$#$$#$$$$$$$$#3JJJJJJJJJJJJJJJJJJJJJJJJJJKH-$&&$$$$$$$$$$$$$$$$$$$$$$$$$$$$$$$$$$$$$$$$$$$$$$$$$$$$$$$$$",
"$$$&+gKJJJJJJJJKB#$$$$$$$$$$$$$&ojKJJJJJJJJKn#$$$$$$$$#BKJJJJJJJJKg.$$$$$$$$$$$$$$$CKJJJJJJJJKio&$$$$$$$#BJJJJJJJJJKh+$$$$$$$$$$$$$$#CJJJJJJJJJJio&$$#$$$&ojKJJJJJJJJJJKJKKJKKJKJJKKJJKh@&$$$$$$$$$$$$$$$$$$$$$$&#3KKJJKKKKJKJKJJKJKKJJKKJJJJJG%+@@@@$$$$$$$$$$$$$$$$$$$$$$$$$$$$$$$$$$$$$$$$$$$$$$$$$$$#$$$",
"$$$&@gKJJJJJJJJKB#$$$$$$$$$$$$$$ojKJJJJJJJJJn#$$$$$$$$#BKJJJJJJJJKgo$$$$$$$$$$$$$&#CKJJJJJJJJKi@$$$$$$$$#ZKKKKJJJJJKg+=$$$$$$$$$$$$$$CKJJJJJJJJJio$$$$$$$&ojJJJJJJJJJJHAAAAAAAAAAAAAAAGu@$$$$$$$$$$$$$$$$$$$$$$$$$<BVNNVVVNVVVNVVNNNNVVNNGJJJJHrqe8e4$$$$$$$$$$$$$$$$$$$$$$$$$$$$$$$$$$$$$$$$$$$$$$$$$$$$$$$",
"$$$$@gKJJJJJJJJKB#$$$$$$$$$$$$$&ojKJJJJJJJJKn#$$$$$$$$#BKJJJJJJJJKgo&$$$$$$$$$$$$$$CJJJJJJJJJKi@&$$$$$$$#3qqq5uJJJJKg+&$$$$$$$$$$$$$$CJJJJD6qqq6<$$$$$$$$&ojKJJJJJJJJKb#&&&&&$&&&&&$&&$$$$$$$$$$$$$$$$$$$$$$$$$$$$$$#$$##$$##$#$#$$#$#$$ovKJJJJKKKKKn@$$$$$$$$$$$$$$$$$$$#$$$$$$#$$$$$$$$$$$$$$#$#$$$$$$$$$$",
"$$$&+gKJJJJJJJJKB#$$$$$$$$$$$$$&ojKJJJJJJJJKn#&$$$$$$$#BKJJJJJJJJKg+&$$$$$$$$$$#&$#CJJJJJJJJJKio$$$$$$$$$####+3JJJJKg@&$$$$$$$$$$$$$$VJJJJA###oo$$$$$##%$%.jJJJJJJJJJKno$$$$$$$#$$$$$#$$$$$$$$$$$$$$$$$$$$$$$$$$$$$$$$$$$$$$$$$$$$$$$$$&#cKJJJJJJJJJz#&$$$$$$$$$$$$$$$$$$$$$$$$$$$$&$$$$$$$$$$$$$$$$$$$$$$$$",
"$$$&ogKJJJJJJJJKB#$$#$$$$$$$$$$$ojKJJJJJJJJJn#$$$$$$$$#BKJJJJJJJJKg.&$$$$$$$$$$$$$$CKJJJJJJJJKio$$$$$$$$$$$$&#5KJJJKg@&$$$$$$$$$$$$$$CKJJKA&$&$&$$$$$$#$$$.jJJJJJJJJJKn#&$$$$$$&$$$$$$$$$$$$$$$$$$$$$$$$$$$$$$$$$$$$$$$$$$$$$$$$$$$$$$$$#cKJJJJJJJJKn@$$$$$$$$$$$$$$$$$$$$$$$$$$###@#$$$$$$$$$$$$$$$$$$$$$$$",
"$$$$ogKJJJJJJJJJB#$$$$$$$$$$$$$&ojJJJJJJJJJKno$$$$$$$&#BJJJJJJJJJKg@&$$$$$$$$$$$$$$CJJJJJJJJHKio$$$$$$$$$$$$$#4JJJJKgo&&$$$$$$$$$$$$$CKJJJA&$$$$$$$$$$$$$&.jJJJJJJJJJJn@$$$$$$$$$$$$$$$$$$$$$$$$$$$$$$$$$$$$$$$$$&$&&$$$$$$$$$$$$$$$$$$&#cJJJJJJJJJKn+$$$$$$$&$$#$$$$$$$$$$$$$#&zMnnBg@$$$$$$$$$$$$$$$$$$$$#",
"$$$&+gKJJJJJJJJKB#$$$$$$$$$$$$$&ojKJJJJJJJJKn#&$$$$$$$#ZKKKKKJJJJKg@&$$$$$$$$$$$$$$CKJJJJKKKKKfX&$$$$$$$$$$$$#4KJJKKgO####$$$$$$#####CKJJKD$$$$$$$$$$$#%$&#jJJJJJJJJJKn#$$$$$$$$$$$$$$$$$$$$$$$$$$$$$$$$$$$$$$####o######$$$$$$$$$$$$$$$#vKJJJJJJJJKn#&$$$$$$#$$$$$$$$$$$$$$$&$&HKKKKZ#&$$$$$$$$$$$#$$$$$$$$",
"$$$$@gKJJJJJJJJKB#$$$$$$$$$$$$$$ojKJJJJJJJJKn#$$$$$$$$#thggfzJJJJKg@&$$$$$$$$$$$$$$CKJJJGggggh5#$$$$$$$$$$$$$@3GAAAGh3,554$$$$$15555>mDACGm$$$$$$$$$$$$$$&ojJJJJJJJJJJb#$$$$$$$$$$$$$$$$$$$$$$$$$$$$$$$$$$$$#scxcvxcvxxbe#$$$$$$$$$$$$$&#cKJJJJJJJJJb@&$$$$$$$$$$$$$&#$$$$$$$$$;DJJJKB#&$$$$$$$$$$$$$$$$$$$$",
"$$$&ogKJJJJJJJJKB#$$$$$$$$$$$$$&ojKJJJJJJJJKn#&$$$$$$$$@++#O2KJJJKg.$$$$$$$$$$$$$$$CKJJJAo.#@+#$$$$$$$$$$$$$$$$$$&&ojKJJKJ<#$$@rKJJJK6#&&$&$$$$$$$$$$$#$$$#jJJJJJJJJJKn#&$$$$$$$$$$$$$$$$$$$$$$$$$$$$$$$$$$$$AKKKKKKKKKKl#&$$$$$$$$$$$$$#cKJJJJJJJJKb#$$$$$$$$$$$$$$$$$$$$$$$$#&GJJHKB#$$$$$$$$$$$$$$$$$$$$$",
"$$$&+gKJJJJJJJJJB@$$$$$$$$$$$$$$ojKJJJJJJJJKn#&$$$$$$$$$&&=#5KJJJKg@&$$$$$$$$$$$$$#CJJJJD&$&&&$$$$$$$$$$$$$$$$$$$$&XjKJJJH<$&&#rKJJJKq@$$$$$$$$$$$$$$$$$$&.jJJJJJJJJJKn#$$$$$$$$$$$$$$$$$$$$$$$$$$$$$$#$$$$$$NJJJJJJJHJJh@&$$$$$$$$$$$$$#cKJJJJJJJJKv#$$$$$$$$$$$$$$$$$$$$$$$$#;GJKKKB#$$$$$$$$$$$$$$$$$$$$$",
"$$$&ogKJJJJJJJJKB$$$$$$$$$$$$$$&ojKJJJJJJJJKno$$$$$$$$$$$$$#5JJJJKg@&$$$$$$$$$$$&$$CKJJKA$$$$$$$$$$$$$$$$$$$$$$$$$&ojKJJKJ<#$$@rKJJJKq#$$$$$$$$$$$$$$#$$$&ojJJJJJJJJJKn#&$&$$$$$$$$$$$$$$$$$$$$$$$$$$$$$$$$$#VKJJJJJJJJKh#&$$&$$$$$$$&$&#vKJJJJJJJJJv#&$$$$$$$$$$$$$$$$$$$$$$$$;SHGGKn#&$$$$$$$#$$$$$$$$$$$$",
"$$$&@gKJJJJJJJJKB#$$$$$$$$$$$$$&ojKJJJJJJJJKn#$$$#$$$$$$$$$#5JJJJKg+$#$#$$$##$$##$#CKJJKD&$$$$$$$$$$$$$$$$$$$$$$$$&XjKJJJH2$$&#rKJJJKq#$$$$$$$$$$$$$$$$$$&ojKJJJJJJJJKn@$#$#$$#$#$#$$#$$#$$$#$#$#$$$$$$$$$$$$VKJJJJJJJJKhX$#$#$#$$#$$#$$+vKJJKJJJJJKn@$$$$$$$$$$$$$$$$$$$$$$$$$$;===;;$$$$$$$$$$$$$$$$$$$$$$",
"$$$$@gKJJJJJJJJKB#$$$$$$$$$$$$$$ojJJJJJJJJJKn#$$$$$$$$$$$$$#4JHJHKh$;;;;=;;;;;;=-;%CJJHJC$$$$$$$$$$$$$$$$$$$$$$$$$&okKKKKK*.## rKKKKK6o&$$$$$$$$$$#$$$$$$$ojKJJJJJJJJKM$;;;;=;;;;;;;;;;;===;;;;;%;&$$$$$$$$$$mJGHHHHHHGJh&111111111;1111;vJHHHHHHHGJz@$$$$$$$$$$$$$$#$$$$$$$$$$$$$$$$@$$$$$$$$$$$$$$$$$$$$$$",
"$$$&+gKJJJJJJJJKB#$$$$$$$$$$$$$$ojKJJJJJJJJKn#$$$$$$$$$$$$$$&<<<<-jJHHHHGHHHHHHHHHJ7-<<<<$$$$$$$$$$$$$$$$$$$$$$$$$$#,fiiuivvvkbjiiiif1#$$$$$$$$$$$$$$$$$$$ojKJJJJJJJJJJGHHHHHHGHHHHGHHHHGHHHHHHGGJz#$$$$$$$$$--<--<-<-<%kKHHHHHHHHHHHHHHJi&<--<-<-11;$$$$$$$$$$$$$$$$$$$$$$$$$$$$$$$$$$$$$$$$$$$$$$$$$$$$$$$",
"$$$$ogKJJJJJJJJKB#$$$$$$$$$$$$$$ojKJJJJJJJJKn#&$$$$$$$$$$$$$$#$#$+jKJKJJJJJJJJKJJJK5+$#$#$$$$$$$$$$$$$$$$$$$$$$$$$$$#X@o+$JKKKKMOoooX$$$$$$$$$$$$$$$$#$$$&ojKJJJJJJJJJJJJJKJJKJJJJJJKJJJJKJJKJJJKKM#$$$$$$$$$#$##$#$##$XhKJJKJJKJJKJJJJJKu.$$$#$$##$$$$$$$$$$$$$$$$$$$$$$$$$$$$$$$$$$$$$$$$$$$$$$$$$$$$$$$$$",
"$$$&+gKJJJJJJJKKB#$$$$$$$$$$$$$&ojKJJJJJJJJKn#&$$$$$$$$$$$$$$$$&%ojKJJJJJJJJJJJJJJKq#$$$$$$$$$$$$$$$$$$$$$$$$$$$$$$$$&&&$;GJJJKn#%$$$$$$$$#$$$$$$$$$$#$$$$ojKJJJJJJJJJJJJJJJJJJJJJJJJJJJJJJJJJJJJKn#$$$$$$$$$$&$$$$$$$&#dKJJJJJJJJJJJJJHKu@&$$$$$$$$$$$$$$$$$$$$$$$$$$$$$$$$$$$$$$$$$$$$#$$$$$$$$$$$$$$$$$$$",
"$$$$ogKHJJJJJJHKB#&$$$$$$$$$$$$$ojKJJJJJJJJKno$$$$$$$$$$$$$$$$$$$ojKHJJJJJJHJJJJJJJq#&$$$$$$$$$$$$$$$$$$$$$$$$$$$$$$$$$$$;HJJJKn#$$$$$$$$$$$$$$$$$$$$$$$$&ojKJJJJJJJJJJJJJJJHJJJJJJJJJJJJHJJJJJJHKno&$$$$$$$$$$$$$$$$$$#dKJJJJJJJJJJJJJJKu@$$$$$$$$$$$$$$$$$$$$$$$$$$$$$$$$$$$$$$$$$$$$$$$$$$$$$$$$$$$$$$$$$",
"$$$&+hKKKKKKKKKKZ#$$$$$$$$$$$$$$okKKJKKKJKKKM#$$$$$$$$$$$$$$$$$$&oxKJKKKKKKKKKKKJKKqo&$$$$$$$$$$$$$$$$$$$$$$$$$$$$$$$$$$$;HKJJKn#&$$$$$$$$$$$$$$$$$$$$$$$&okKKKKKKJKKKKKKJKKKKKKKKKKJKKKKKKKKKKKKKB#$$$$$$$$$$$$$$$$$$&ojKJKKJKKKKKKJJKKKf+%$$$$$$$$$$$$$$$$$$$$$$$$$$$$#$$$$$$$$$$$$$$$$$$$$$$$$$$$$$$$$$$$",
"$$$&#tZBBBBBBBBZl#$$$$$$$$$$$$$$#yZMBBBBBBBZg#$$$$$$$$$$$$$$$$$$$#rBnnnnnnnnnnnnnnM3#$$$$$$$$$$$$$$$$$$$$$$$$$$$$$$$$$$$#=GJHHKv#$$$$$$$$$$$$$$$$$$$$$$$$$#wbxvvvvxvvxvvxvvxvvvzvxvxxvvxvvxvvxvvxni#$$$$$$$$$$$$$$$$$$$#eMnnnnnnnnnnnnnbM6#$$$$$$$$$$$$$$$$$#$$$$$$$$$$$$$$$$$$$$$$$$$$$$$$$$$$$$$$$$$$$$$$$",
"$$$$$$@##########$$$$$$$$$$$$$$$$$@$###$#####$$$$$$$$$$$$$$$$$$$$$#@#@@$#@$@#####@@#$$$$$$$$$$$$$$$$$$$$$$$$$$$$$$$$$$$$$$1<1<<-$$$$$$$$$$$$$$$$$$$$$$$$$$$####ooo#oo#o##oo##o#o#o#o###o#o##o##ooo#$$$$$$$$$$$$$$$$$$$$$##################$$$$$$$$$$$$$$$$$$$$$$$$$$$$$$$$$$$$$#$$$$$#$$$$$$$$$$$$$$$$$#$$$$",
"$$$$$$$&&$&$$$&$$$$$$$$$$$$$$$$$$$$$$$$$$$$$$$$$$$$$$$$$$$$$$$$$$$&&&&$&$$$$$&$$&$&$$$$$$$$$$$$$$$$$$$$$$#$$$$$$$$$$$$$$$$#$#$#$$$$$$$$$$$$$$$$$$$$$$##$$$$$&$&$$&&&&$&$&$&$&$&$&$&$$$&$&$$$&$&$$&&$$$$$$$$$$$$$$$$$$$$$$&$$$&$$$$$$$&$$$$$$$$$$$$$$$$$$$$$$$$$$$$$$$$$$$$$$$$$$$$$$$$$$$$$$$$$$$$$$$$$$$$$$"
};
